<?xml version="1.0" encoding="UTF-8" standalone="no"?>
<svg xmlns:xlink="http://www.w3.org/1999/xlink" height="216.0px" width="146.55px" xmlns="http://www.w3.org/2000/svg">
  <g transform="matrix(1.0, 0.0, 0.0, 1.0, -14.95, 200.5)">
    <path d="M27.35 -51.55 Q30.3 -38.25 41.5 -27.5 49.2 -20.1 43.65 -6.55 40.85 0.2 36.5 5.5 36.5 10.5 36.5 15.5 40.0 13.1 43.5 10.7 50.7 4.85 51.5 -0.5 52.45 -6.9 57.0 -10.1 61.45 -13.3 79.5 -20.5 87.8 -23.8 86.0 -28.2 84.6 -31.65 76.05 -36.7 67.65 -41.3 59.3 -45.9 49.2 -51.55 45.5 -55.5 41.2 -60.15 42.7 -63.3 44.05 -66.15 50.4 -68.25 55.1 -69.9 65.35 -71.85 74.95 -73.7 84.5 -75.5 103.5 -79.45 113.45 -90.0 122.4 -99.45 120.5 -109.5 119.2 -116.35 99.2 -124.2 85.75 -129.5 84.85 -129.9 77.9 -133.0 76.5 -135.5 75.1 -138.05 80.3 -139.75 82.8 -140.6 94.45 -142.85 120.15 -147.9 131.5 -156.5 144.8 -166.55 154.45 -184.5 159.3 -193.5 161.5 -200.5 94.5 -199.0 27.5 -197.5 27.65 -195.05 28.6 -192.25 30.5 -186.55 34.5 -184.5 37.05 -183.2 38.75 -179.7 40.6 -175.95 40.6 -171.05 40.6 -158.7 29.5 -146.5 17.8 -133.6 28.85 -123.7 38.4 -115.2 68.5 -106.5 92.2 -99.65 74.5 -89.35 68.7 -85.95 56.05 -80.95 46.75 -77.2 37.5 -73.5 23.85 -67.4 27.35 -51.55" fill="url(#gradient0)" fill-rule="evenodd" stroke="none">
      <animate attributeName="d" dur="2s" repeatCount="indefinite" values="M27.35 -51.55 Q30.3 -38.25 41.5 -27.5 49.2 -20.1 43.65 -6.55 40.85 0.2 36.5 5.5 36.5 10.5 36.5 15.5 40.0 13.1 43.5 10.7 50.7 4.85 51.5 -0.5 52.45 -6.9 57.0 -10.1 61.45 -13.3 79.5 -20.5 87.8 -23.8 86.0 -28.2 84.6 -31.65 76.05 -36.7 67.65 -41.3 59.3 -45.9 49.2 -51.55 45.5 -55.5 41.2 -60.15 42.7 -63.3 44.05 -66.15 50.4 -68.25 55.1 -69.9 65.35 -71.85 74.95 -73.7 84.5 -75.5 103.5 -79.45 113.45 -90.0 122.4 -99.45 120.5 -109.5 119.2 -116.35 99.2 -124.2 85.75 -129.5 84.85 -129.9 77.9 -133.0 76.5 -135.5 75.1 -138.05 80.3 -139.75 82.8 -140.6 94.45 -142.85 120.15 -147.9 131.5 -156.5 144.8 -166.55 154.45 -184.5 159.3 -193.5 161.5 -200.5 94.5 -199.0 27.5 -197.5 27.65 -195.05 28.6 -192.25 30.5 -186.55 34.5 -184.5 37.05 -183.2 38.75 -179.7 40.6 -175.95 40.6 -171.05 40.6 -158.7 29.5 -146.5 17.8 -133.6 28.85 -123.7 38.4 -115.2 68.5 -106.5 92.2 -99.65 74.5 -89.35 68.7 -85.95 56.05 -80.95 46.75 -77.2 37.5 -73.5 23.85 -67.4 27.35 -51.55;M17.65 -73.4 Q23.85 -63.15 60.7 -56.85 97.55 -50.6 68.1 -40.7 38.65 -30.8 38.15 -25.45 37.65 -20.1 39.25 -9.95 40.85 0.2 36.5 5.5 36.5 10.5 36.5 15.5 40.0 13.1 43.5 10.7 50.7 4.85 52.2 -1.0 53.55 -6.8 54.9 -12.55 56.15 -18.2 63.5 -21.6 70.9 -25.05 75.65 -25.3 86.75 -26.15 97.8 -26.95 113.85 -28.7 121.8 -31.85 129.75 -35.0 120.15 -43.6 110.55 -52.25 93.7 -57.35 76.8 -62.45 65.95 -66.15 55.1 -69.9 60.6 -75.25 66.1 -80.65 75.6 -84.15 85.05 -87.6 103.75 -93.5 122.4 -99.45 120.5 -109.5 119.2 -116.35 131.75 -119.85 144.25 -123.35 128.2 -128.9 112.1 -134.45 114.15 -134.4 116.2 -134.35 99.5 -137.45 82.8 -140.6 94.45 -142.85 120.15 -147.9 131.5 -156.5 144.8 -166.55 154.45 -184.5 159.3 -193.5 161.5 -200.5 94.5 -199.0 27.5 -197.5 27.65 -195.05 28.6 -192.25 30.5 -186.55 34.5 -184.5 37.05 -183.2 38.75 -179.7 40.6 -175.95 40.45 -173.6 40.3 -171.25 55.5 -154.6 70.7 -137.95 57.35 -126.55 46.55 -117.4 35.8 -108.3 27.6 -101.4 19.5 -92.5 11.4 -83.65 17.65 -73.4"/>
    </path>
    <path d="M27.35 -51.55 Q23.85 -67.4 37.5 -73.5 46.75 -77.2 56.05 -80.95 68.7 -85.95 74.5 -89.35 92.2 -99.65 68.5 -106.5 38.4 -115.2 28.85 -123.7 17.8 -133.6 29.5 -146.5 40.6 -158.7 40.6 -171.05 40.6 -175.95 38.75 -179.7 37.05 -183.2 34.5 -184.5 30.5 -186.55 28.6 -192.25 27.65 -195.05 27.5 -197.5 94.5 -199.0 161.5 -200.5 159.3 -193.5 154.45 -184.5 144.8 -166.55 131.5 -156.5 120.15 -147.9 94.45 -142.85 82.8 -140.6 80.3 -139.75 75.1 -138.05 76.5 -135.5 77.9 -133.0 84.85 -129.9 85.75 -129.5 99.2 -124.2 119.2 -116.35 120.5 -109.5 122.4 -99.45 113.45 -90.0 103.5 -79.45 84.5 -75.5 74.95 -73.7 65.35 -71.85 55.1 -69.9 50.4 -68.25 44.05 -66.15 42.7 -63.3 41.2 -60.15 45.5 -55.5 49.2 -51.55 59.3 -45.9 67.65 -41.3 76.05 -36.7 84.6 -31.65 86.0 -28.2 87.8 -23.8 79.5 -20.5 61.45 -13.3 57.0 -10.1 52.45 -6.9 51.5 -0.5 50.7 4.85 43.5 10.7 40.0 13.1 36.5 15.5 36.5 10.5 36.5 5.5 40.85 0.2 43.65 -6.55 49.2 -20.1 41.5 -27.5 30.3 -38.25 27.35 -51.55" fill="none" stroke="#000000" stroke-linecap="round" stroke-linejoin="round" stroke-opacity="0.0" stroke-width="1.0">
      <animate attributeName="stroke" dur="2s" repeatCount="indefinite" values="#000000;#000001"/>
      <animate attributeName="stroke-width" dur="2s" repeatCount="indefinite" values="0.0;0.0"/>
      <animate attributeName="fill-opacity" dur="2s" repeatCount="indefinite" values="0.0;0.0"/>
      <animate attributeName="d" dur="2s" repeatCount="indefinite" values="M27.35 -51.55 Q23.85 -67.4 37.5 -73.5 46.75 -77.2 56.05 -80.95 68.7 -85.95 74.5 -89.35 92.2 -99.65 68.5 -106.5 38.4 -115.2 28.85 -123.7 17.8 -133.6 29.5 -146.5 40.6 -158.7 40.6 -171.05 40.6 -175.95 38.75 -179.7 37.05 -183.2 34.5 -184.5 30.5 -186.55 28.6 -192.25 27.65 -195.05 27.5 -197.5 94.5 -199.0 161.5 -200.5 159.3 -193.5 154.45 -184.5 144.8 -166.55 131.5 -156.5 120.15 -147.9 94.45 -142.85 82.8 -140.6 80.3 -139.75 75.1 -138.05 76.5 -135.5 77.9 -133.0 84.85 -129.9 85.75 -129.5 99.2 -124.2 119.2 -116.35 120.5 -109.5 122.4 -99.45 113.45 -90.0 103.5 -79.45 84.5 -75.5 74.95 -73.7 65.35 -71.85 55.1 -69.9 50.4 -68.25 44.05 -66.15 42.7 -63.3 41.2 -60.15 45.5 -55.5 49.2 -51.55 59.3 -45.9 67.65 -41.3 76.05 -36.7 84.6 -31.65 86.0 -28.2 87.8 -23.8 79.5 -20.5 61.45 -13.3 57.0 -10.1 52.45 -6.9 51.5 -0.5 50.7 4.85 43.5 10.7 40.0 13.1 36.5 15.5 36.5 10.5 36.5 5.5 40.85 0.2 43.65 -6.55 49.2 -20.1 41.5 -27.5 30.3 -38.25 27.35 -51.55;M17.65 -73.4 Q11.4 -83.65 19.5 -92.5 27.6 -101.4 35.8 -108.3 46.55 -117.4 57.35 -126.55 70.7 -137.95 55.5 -154.6 40.3 -171.25 40.45 -173.6 40.6 -175.95 38.75 -179.7 37.05 -183.2 34.5 -184.5 30.5 -186.55 28.6 -192.25 27.65 -195.05 27.5 -197.5 94.5 -199.0 161.5 -200.5 159.3 -193.5 154.45 -184.5 144.8 -166.55 131.5 -156.5 120.15 -147.9 94.45 -142.85 82.8 -140.6 99.5 -137.45 116.2 -134.35 114.15 -134.4 112.1 -134.45 128.2 -128.9 144.25 -123.35 131.75 -119.85 119.2 -116.35 120.5 -109.5 122.4 -99.45 103.75 -93.5 85.05 -87.6 75.6 -84.15 66.1 -80.65 60.6 -75.25 55.1 -69.9 65.95 -66.15 76.8 -62.45 93.7 -57.35 110.55 -52.25 120.15 -43.6 129.75 -35.0 121.8 -31.85 113.85 -28.7 97.8 -26.95 86.75 -26.15 75.65 -25.3 70.9 -25.05 63.5 -21.6 56.15 -18.2 54.9 -12.55 53.55 -6.8 52.2 -1.0 50.7 4.85 43.5 10.7 40.0 13.1 36.5 15.5 36.5 10.5 36.5 5.5 40.85 0.2 39.25 -9.95 37.65 -20.1 38.15 -25.45 38.65 -30.8 68.1 -40.7 97.55 -50.6 60.7 -56.85 23.85 -63.15 17.65 -73.4"/>
    </path>
  </g>
  <defs>
    <radialGradient cx="0" cy="0" gradientTransform="matrix(0.2524, 0.0, 0.0, 0.2524, 0.0, 0.0)" gradientUnits="userSpaceOnUse" id="gradient0" r="819.2" spreadMethod="reflect">
      <animateTransform additive="replace" attributeName="gradientTransform" dur="2s" from="1" repeatCount="indefinite" to="1" type="scale"/>
      <animateTransform additive="sum" attributeName="gradientTransform" dur="2s" from="0.0 0.0" repeatCount="indefinite" to="0.0 0.0" type="translate"/>
      <animateTransform additive="sum" attributeName="gradientTransform" dur="2s" from="0.0" repeatCount="indefinite" to="0.0" type="rotate"/>
      <animateTransform additive="sum" attributeName="gradientTransform" dur="2s" from="0.2524 0.2524" repeatCount="indefinite" to="0.2524 0.2524" type="scale"/>
      <animateTransform additive="sum" attributeName="gradientTransform" dur="2s" from="0.0" repeatCount="indefinite" to="0.0" type="skewX"/>
      <stop offset="0.0" stop-color="#ffffff" stop-opacity="0.7921569">
        <animate attributeName="offset" dur="2s" repeatCount="indefinite" values="0.0;0.0"/>
        <animate attributeName="stop-color" dur="2s" repeatCount="indefinite" values="#ffffff;#ffffff"/>
        <animate attributeName="stop-opacity" dur="2s" repeatCount="indefinite" values="0.7921569;1.0"/>
      </stop>
      <stop offset="0.8784313725490196" stop-color="#ffffff" stop-opacity="0.0">
        <animate attributeName="offset" dur="2s" repeatCount="indefinite" values="0.8784313725490196;0.8784313725490196"/>
        <animate attributeName="stop-color" dur="2s" repeatCount="indefinite" values="#ffffff;#ffffff"/>
        <animate attributeName="stop-opacity" dur="2s" repeatCount="indefinite" values="0.0;0.0"/>
      </stop>
    </radialGradient>
  </defs>
</svg>
