<?xml version="1.0" encoding="UTF-8" standalone="no"?>
<svg xmlns:xlink="http://www.w3.org/1999/xlink" height="375.0px" width="486.6px" xmlns="http://www.w3.org/2000/svg">
  <g transform="matrix(1.0, 0.0, 0.0, 1.0, -72.5, -2.5)">
    <path d="M72.5 96.5 L108.5 277.5 136.5 377.5 160.5 369.5 129.5 275.5 157.5 265.5 208.5 118.5 361.5 101.5 383.5 203.5 552.5 311.5 552.5 259.5 478.5 215.5 504.5 208.5 Q492.15 199.65 472.2 182.4 472.5 182.65 484.55 168.85 498.65 152.75 512.0 136.25 552.65 85.85 558.95 65.0 561.45 56.75 520.05 75.9 507.9 81.55 491.55 89.75 478.85 96.15 478.95 96.0 463.1 78.8 443.55 89.85 436.6 94.65 435.55 94.9 434.3 95.15 438.5 86.5 178.45 85.25 72.5 96.5" fill="#27130c" fill-opacity="0.52156866" fill-rule="evenodd" stroke="none">
      <animate attributeName="fill" dur="2s" repeatCount="indefinite" values="#27130c;#27130d"/>
      <animate attributeName="fill-opacity" dur="2s" repeatCount="indefinite" values="0.52156866;0.52156866"/>
      <animate attributeName="d" dur="2s" repeatCount="indefinite" values="M72.5 96.5 L108.5 277.5 136.5 377.5 160.5 369.5 129.5 275.5 157.5 265.5 208.5 118.5 361.5 101.5 383.5 203.5 552.5 311.5 552.5 259.5 478.5 215.5 504.5 208.5 Q492.15 199.65 472.2 182.4 472.5 182.65 484.55 168.85 498.65 152.75 512.0 136.25 552.65 85.85 558.95 65.0 561.45 56.75 520.05 75.9 507.9 81.55 491.55 89.75 478.85 96.15 478.95 96.0 463.1 78.8 443.55 89.85 436.6 94.65 435.55 94.9 434.3 95.15 438.5 86.5 178.45 85.25 72.5 96.5;M72.5 36.5 L108.5 217.5 136.5 317.5 160.5 309.5 129.5 215.5 157.5 205.5 208.5 58.5 361.5 41.5 383.5 143.5 552.5 251.5 552.5 199.5 478.5 155.5 504.5 148.5 Q492.15 139.65 472.2 122.4 472.5 122.65 484.55 108.85 498.65 92.75 512.0 76.25 552.65 25.85 558.95 5.0 561.45 -3.25 520.05 15.9 507.9 21.55 491.55 29.75 478.85 36.15 478.95 36.0 463.1 18.8 443.55 29.85 436.6 34.65 435.55 34.9 434.3 35.15 438.5 26.5 178.45 25.25 72.5 36.5"/>
    </path>
    <path d="M72.5 96.5 Q178.45 85.25 438.5 86.5 434.3 95.15 435.55 94.9 436.6 94.65 443.55 89.85 463.1 78.8 478.95 96.0 478.85 96.15 491.55 89.75 507.9 81.55 520.05 75.9 561.45 56.75 558.95 65.0 552.65 85.85 512.0 136.25 498.65 152.75 484.55 168.85 472.5 182.65 472.2 182.4 492.15 199.65 504.5 208.5 L478.5 215.5 552.5 259.5 552.5 311.5 383.5 203.5 361.5 101.5 208.5 118.5 157.5 265.5 129.5 275.5 160.5 369.5 136.5 377.5 108.5 277.5 72.5 96.5" fill="none" stroke="#000000" stroke-linecap="round" stroke-linejoin="round" stroke-opacity="0.0" stroke-width="1.0">
      <animate attributeName="stroke" dur="2s" repeatCount="indefinite" values="#000000;#000001"/>
      <animate attributeName="stroke-width" dur="2s" repeatCount="indefinite" values="0.0;0.0"/>
      <animate attributeName="fill-opacity" dur="2s" repeatCount="indefinite" values="0.0;0.0"/>
      <animate attributeName="d" dur="2s" repeatCount="indefinite" values="M72.5 96.5 Q178.45 85.25 438.5 86.5 434.3 95.15 435.55 94.9 436.6 94.65 443.55 89.85 463.1 78.8 478.95 96.0 478.85 96.15 491.55 89.75 507.9 81.55 520.05 75.9 561.45 56.75 558.95 65.0 552.65 85.85 512.0 136.25 498.65 152.75 484.55 168.85 472.5 182.65 472.2 182.4 492.15 199.65 504.5 208.5 L478.5 215.5 552.5 259.5 552.5 311.5 383.5 203.5 361.5 101.5 208.5 118.5 157.5 265.5 129.5 275.5 160.5 369.5 136.5 377.5 108.5 277.5 72.5 96.5;M72.5 36.5 Q178.45 25.25 438.5 26.5 434.3 35.15 435.55 34.9 436.6 34.65 443.55 29.85 463.1 18.8 478.95 36.0 478.85 36.15 491.55 29.75 507.9 21.55 520.05 15.9 561.45 -3.25 558.95 5.0 552.65 25.85 512.0 76.25 498.65 92.75 484.55 108.85 472.5 122.65 472.2 122.4 492.15 139.65 504.5 148.5 L478.5 155.5 552.5 199.5 552.5 251.5 383.5 143.5 361.5 41.5 208.5 58.5 157.5 205.5 129.5 215.5 160.5 309.5 136.5 317.5 108.5 217.5 72.5 36.5"/>
    </path>
  </g>
</svg>
