<?xml version="1.0" encoding="UTF-8" standalone="no"?>
<svg xmlns:xlink="http://www.w3.org/1999/xlink" height="158.0px" width="158.0px" xmlns="http://www.w3.org/2000/svg">
  <g transform="matrix(1.0, 0.0, 0.0, 1.0, 79.0, 79.0)">
    <path d="M75.8 -9.2 L74.9 -14.85 Q70.65 -35.95 54.5 -52.15 32.65 -74.0 1.8 -74.0 -29.1 -74.0 -51.0 -52.15 -72.85 -30.3 -72.85 0.6 -72.85 31.5 -51.0 53.35 -29.1 75.2 1.8 75.25 32.65 75.2 54.5 53.35 76.35 31.5 76.4 0.6 76.35 -4.45 75.8 -9.2 76.35 -4.45 76.4 0.6 76.35 31.5 54.5 53.35 32.65 75.2 1.8 75.25 -29.1 75.2 -51.0 53.35 -72.85 31.5 -72.85 0.6 -72.85 -30.3 -51.0 -52.15 -29.1 -74.0 1.8 -74.0 32.65 -74.0 54.5 -52.15 70.65 -35.95 74.9 -14.85 L75.8 -9.2 M55.85 -55.85 Q79.0 -32.7 79.0 0.0 79.0 32.7 55.85 55.85 32.7 79.0 0.0 79.0 -32.7 79.0 -55.85 55.85 -79.0 32.7 -79.0 0.0 -79.0 -32.7 -55.85 -55.85 -32.7 -79.0 0.0 -79.0 32.7 -79.0 55.85 -55.85" fill="url(#gradient0)" fill-rule="evenodd" stroke="none"/>
    <path d="M75.8 -9.2 Q76.35 -4.45 76.4 0.6 76.35 31.5 54.5 53.35 32.65 75.2 1.8 75.25 -29.1 75.2 -51.0 53.35 -72.85 31.5 -72.85 0.6 -72.85 -30.3 -51.0 -52.15 -29.1 -74.0 1.8 -74.0 32.65 -74.0 54.5 -52.15 70.65 -35.95 74.9 -14.85 L75.8 -9.2 Z" fill="none" stroke="#ffffff" stroke-linecap="round" stroke-linejoin="round" stroke-opacity="0.2" stroke-width="3.0"/>
  </g>
  <defs>
    <radialGradient cx="0" cy="0" gradientTransform="matrix(0.0826, 0.0, 0.0, 0.0826, 0.0, 0.0)" gradientUnits="userSpaceOnUse" id="gradient0" r="819.2" spreadMethod="pad">
      <stop offset="0.20392156862745098" stop-color="#ffffff"/>
      <stop offset="0.47843137254901963" stop-color="#ffffff" stop-opacity="0.4"/>
      <stop offset="0.8862745098039215" stop-color="#ffffff" stop-opacity="0.0"/>
    </radialGradient>
  </defs>
</svg>
