<?xml version="1.0" encoding="UTF-8" standalone="no"?>
<svg xmlns:xlink="http://www.w3.org/1999/xlink" height="129.0px" width="107.05px" xmlns="http://www.w3.org/2000/svg">
  <g transform="matrix(1.0, 0.0, 0.0, 1.0, 53.5, 61.0)">
    <path d="M-1.3 -2.75 L-0.8 -2.75 22.5 -4.5 53.55 -4.5 53.55 2.45 21.55 2.45 1.3 0.7 -1.05 0.5 Q-23.5 -1.1 -1.3 -2.75" fill="url(#gradient0)" fill-rule="evenodd" stroke="none"/>
    <path d="M1.3 0.7 L-0.85 0.95 -21.95 3.55 -53.5 3.55 -53.5 -4.5 -23.25 -4.5 -3.0 -2.85 -1.3 -2.75 Q-23.5 -1.1 -1.05 0.5 L1.3 0.7" fill="url(#gradient1)" fill-rule="evenodd" stroke="none"/>
    <path d="M-1.4 -5.35 Q-1.95 -7.65 -2.45 -12.65 -4.0 -26.95 -4.4 -26.9 L-4.4 -61.0 2.6 -61.0 2.6 -27.05 Q1.6 -14.5 0.35 -6.45 -0.35 -2.1 -1.1 -4.25 L-1.4 -5.35 M-4.4 18.2 Q-4.0 18.25 -2.7 8.3 -1.4 -1.7 -0.15 2.1 1.1 5.9 1.65 12.15 2.2 18.4 2.6 18.35 L2.6 68.0 -4.4 68.0 -4.4 18.2" fill="url(#gradient2)" fill-rule="evenodd" stroke="none"/>
    <path d="M-1.4 -5.35 L-1.1 -4.25 Q-1.8 -3.95 -5.85 -6.2 -19.6 -13.8 -21.15 -14.2 L-39.0 -32.05 -39.0 -41.95 -17.05 -20.05 Q-3.65 -8.5 -1.4 -5.35 M2.9 4.75 Q-2.3 -4.35 15.3 12.3 L31.05 28.05 26.1 33.0 9.45 16.4 2.9 4.75" fill="url(#gradient3)" fill-rule="evenodd" stroke="none"/>
    <path d="M30.0 -35.9 L30.0 -26.0 19.65 -15.65 Q-5.25 2.0 3.8 -8.25 L15.2 -21.1 30.0 -35.9 M-17.1 11.2 Q-16.55 11.15 -6.75 4.0 3.0 -3.15 -11.65 15.65 L-32.0 36.0 -32.0 26.1 -17.1 11.2" fill="url(#gradient4)" fill-rule="evenodd" stroke="none"/>
  </g>
  <defs>
    <linearGradient gradientTransform="matrix(-0.0691, 0.0, 0.0, -0.0458, 0.05, -1.05)" gradientUnits="userSpaceOnUse" id="gradient0" spreadMethod="pad" x1="-819.2" x2="819.2">
      <stop offset="0.0" stop-color="#d0faa7" stop-opacity="0.33333334"/>
      <stop offset="0.23529411764705882" stop-color="#d0f9a8"/>
      <stop offset="0.5176470588235295" stop-color="#ddf578"/>
      <stop offset="0.7294117647058823" stop-color="#ccf7a2"/>
      <stop offset="1.0" stop-color="#bcf581" stop-opacity="0.2509804"/>
    </linearGradient>
    <linearGradient gradientTransform="matrix(-0.0691, 0.0, 0.0, -0.0525, 0.05, -0.5)" gradientUnits="userSpaceOnUse" id="gradient1" spreadMethod="pad" x1="-819.2" x2="819.2">
      <stop offset="0.0" stop-color="#d0faa7" stop-opacity="0.33333334"/>
      <stop offset="0.23529411764705882" stop-color="#d0f9a8"/>
      <stop offset="0.5176470588235295" stop-color="#ddf578"/>
      <stop offset="0.7294117647058823" stop-color="#ccf7a2"/>
      <stop offset="1.0" stop-color="#bcf581" stop-opacity="0.2509804"/>
    </linearGradient>
    <linearGradient gradientTransform="matrix(0.0, 0.1594, -0.0459, 0.0, -0.9, 0.0)" gradientUnits="userSpaceOnUse" id="gradient2" spreadMethod="pad" x1="-819.2" x2="819.2">
      <stop offset="0.0" stop-color="#d0faa7" stop-opacity="0.33333334"/>
      <stop offset="0.23529411764705882" stop-color="#d0f9a8"/>
      <stop offset="0.5176470588235295" stop-color="#ddf578"/>
      <stop offset="0.7294117647058823" stop-color="#ccf7a2"/>
      <stop offset="1.0" stop-color="#bcf581" stop-opacity="0.2509804"/>
    </linearGradient>
    <linearGradient gradientTransform="matrix(0.0488, 0.0488, -0.0325, 0.0325, -9.35, -7.35)" gradientUnits="userSpaceOnUse" id="gradient3" spreadMethod="pad" x1="-819.2" x2="819.2">
      <stop offset="0.0" stop-color="#d0faa7" stop-opacity="0.33333334"/>
      <stop offset="0.23529411764705882" stop-color="#d0f9a8"/>
      <stop offset="0.5176470588235295" stop-color="#ddf578"/>
      <stop offset="0.7294117647058823" stop-color="#ccf7a2"/>
      <stop offset="1.0" stop-color="#bcf581" stop-opacity="0.2509804"/>
    </linearGradient>
    <linearGradient gradientTransform="matrix(-0.0488, 0.0488, -0.0325, -0.0325, -1.95, 0.95)" gradientUnits="userSpaceOnUse" id="gradient4" spreadMethod="pad" x1="-819.2" x2="819.2">
      <stop offset="0.0" stop-color="#d0faa7" stop-opacity="0.33333334"/>
      <stop offset="0.23529411764705882" stop-color="#d0f9a8"/>
      <stop offset="0.5176470588235295" stop-color="#ddf578"/>
      <stop offset="0.7294117647058823" stop-color="#ccf7a2"/>
      <stop offset="1.0" stop-color="#bcf581" stop-opacity="0.2509804"/>
    </linearGradient>
  </defs>
</svg>
