<?xml version="1.0" encoding="UTF-8" standalone="no"?>
<svg xmlns:xlink="http://www.w3.org/1999/xlink" height="125.95px" width="141.9px" xmlns="http://www.w3.org/2000/svg">
  <g transform="matrix(1.0, 0.0, 0.0, 1.0, 77.0, 85.3)">
    <path d="M51.2 -62.35 Q46.35 -55.5 46.0 -51.25 L49.85 -51.6 Q53.2 -51.6 54.7 -50.45 L55.9 -49.35 Q56.7 -49.35 61.75 -53.2 L63.0 -52.85 Q63.4 -52.25 63.1 -51.55 62.65 -50.45 62.65 -49.7 62.65 -48.8 63.55 -47.95 64.4 -47.1 64.4 -46.25 64.4 -40.5 59.5 -34.6 54.15 -28.1 48.45 -29.9 L48.75 -25.75 49.5 -25.35 Q53.9 -22.65 53.9 -20.1 52.85 -18.45 53.2 -17.2 52.85 -16.85 52.3 -16.7 50.35 -18.8 50.75 -19.5 L51.6 -20.0 Q51.6 -21.75 51.45 -21.05 L48.7 -22.05 Q48.45 -19.9 47.4 -16.85 47.05 -15.75 46.25 -15.85 L44.3 -16.5 Q40.85 -17.6 37.1 -14.4 L33.65 -9.65 Q31.0 -6.05 27.45 -4.9 31.6 -0.75 34.95 1.55 36.9 2.9 40.6 5.05 41.95 4.2 42.9 0.9 43.8 -2.15 46.7 -3.55 46.0 -3.7 45.8 -3.9 45.5 -4.15 45.5 -5.3 45.5 -6.45 48.45 -7.45 51.5 -8.45 55.1 -8.45 62.85 -8.45 63.7 -4.3 64.1 -2.15 63.0 0.6 63.0 1.65 63.95 4.25 64.9 6.85 64.9 8.1 64.9 9.4 60.7 12.65 56.25 16.1 53.7 16.15 55.5 18.25 55.85 19.9 L56.0 23.0 Q56.0 26.25 53.55 28.8 50.4 32.1 44.5 32.1 L43.75 31.55 Q50.5 29.2 52.4 27.55 54.25 25.95 54.25 22.75 54.25 21.95 53.2 19.85 52.15 17.75 52.15 16.95 52.15 14.9 56.9 13.2 61.6 11.5 61.6 8.75 60.55 -1.1 60.55 -3.2 60.55 -4.35 60.2 -4.55 L55.1 -4.95 Q48.15 -4.95 44.85 1.1 42.25 8.05 40.4 9.8 36.35 4.0 29.75 -0.8 L24.05 -4.7 Q24.05 -5.05 29.05 -10.4 34.35 -16.1 36.2 -17.05 40.8 -19.5 44.15 -20.1 45.4 -20.3 46.0 -22.1 L45.95 -23.05 36.95 -26.45 Q26.9 -30.4 24.4 -33.65 19.9 -31.9 19.5 -31.9 16.7 -31.9 13.05 -37.65 9.5 -43.25 9.5 -46.9 L9.7 -47.25 Q3.6 -45.75 1.9 -42.85 L0.7 -40.45 Q-0.15 -39.1 -1.75 -38.15 -0.75 -37.25 1.25 -36.7 L4.55 -35.8 Q8.25 -34.5 7.6 -29.9 7.45 -28.5 8.3 -25.2 L9.15 -21.05 Q9.15 -14.6 3.05 -14.6 -0.15 -14.6 -1.05 -15.15 L-1.6 -16.25 Q-2.0 -17.55 -10.55 -16.7 -10.55 -12.05 -17.2 -6.6 -23.45 -1.45 -27.55 -1.45 -31.15 -1.45 -31.9 -4.95 -32.25 -6.7 -31.9 -8.45 L-31.85 -9.1 Q-39.9 -5.9 -40.9 -3.1 -41.65 -0.9 -40.4 5.6 -40.4 8.55 -42.75 9.6 -47.8 11.95 -51.1 14.7 -50.35 14.95 -50.05 15.2 -49.5 15.6 -49.5 16.7 -49.5 17.55 -51.55 18.7 L-55.8 20.9 Q-57.15 21.65 -58.2 23.5 -59.0 24.9 -60.35 24.9 -62.65 24.9 -63.25 23.85 L-63.85 21.8 -60.7 23.0 Q-54.85 20.45 -51.25 16.85 -50.9 17.9 -50.9 16.15 -50.9 15.1 -51.75 14.9 L-52.85 14.7 Q-41.8 7.85 -41.8 5.5 -43.2 -2.35 -43.2 -4.1 -43.2 -5.55 -37.75 -8.15 -34.15 -9.85 -31.75 -10.5 -31.45 -12.75 -30.5 -14.75 -35.7 -13.35 -34.9 -16.95 -34.9 -17.8 -34.2 -18.4 -33.5 -18.95 -33.5 -19.85 -33.5 -24.65 -36.05 -27.45 -40.7 -32.5 -43.1 -37.15 L-48.0 -35.4 -51.6 -33.75 -54.05 -34.0 Q-53.15 -33.95 -48.75 -35.95 -44.35 -37.95 -43.55 -37.95 -39.3 -37.95 -34.55 -31.65 L-34.5 -31.55 Q-28.85 -35.65 -26.45 -40.35 -24.2 -44.8 -24.4 -51.25 L-30.7 -50.2 Q-33.6 -50.2 -36.35 -54.8 -37.75 -57.2 -39.35 -60.7 L-39.35 -60.9 -38.9 -60.9 Q-37.45 -60.9 -35.7 -58.0 -33.85 -54.95 -34.35 -52.5 L-28.9 -52.25 -22.3 -52.3 Q-23.35 -50.1 -23.55 -46.4 -23.8 -41.7 -24.1 -40.4 -25.5 -34.35 -33.8 -30.6 -29.45 -24.3 -30.7 -18.1 -27.35 -16.65 -27.35 -15.75 L-29.05 -10.35 -28.95 -10.2 -29.1 -10.15 -29.45 -8.65 -29.45 -6.05 Q-29.2 -4.2 -27.55 -4.2 -25.8 -4.2 -20.6 -7.55 -15.85 -10.7 -14.4 -12.3 -13.3 -13.55 -13.55 -15.15 L-14.0 -17.4 Q-14.0 -19.5 -5.6 -19.5 -0.5 -19.5 0.2 -18.5 0.05 -17.55 0.7 -17.55 4.6 -17.55 5.7 -18.8 6.0 -19.2 6.0 -20.35 6.0 -22.1 4.8 -26.65 L4.8 -32.7 -2.85 -35.65 Q-5.6 -36.85 -5.6 -37.95 -5.6 -39.65 0.1 -44.8 3.45 -47.85 5.9 -49.15 L5.85 -49.7 8.9 -51.95 Q11.9 -53.95 11.95 -57.05 12.65 -63.4 13.05 -63.2 L14.55 -62.2 Q16.0 -61.4 17.9 -61.4 L22.1 -61.55 Q24.15 -67.25 26.05 -65.95 25.9 -65.15 24.25 -63.6 L22.6 -61.6 Q25.75 -61.95 28.15 -62.8 L32.25 -64.4 Q29.7 -61.75 27.65 -61.05 24.2 -59.8 15.3 -59.65 14.8 -58.85 14.85 -56.7 L14.95 -52.9 Q14.65 -49.3 11.25 -48.5 L13.7 -45.05 Q17.15 -39.55 17.9 -35.15 20.15 -35.9 21.95 -37.05 23.2 -37.8 24.05 -37.8 38.4 -31.75 42.5 -29.2 L45.1 -27.7 44.8 -28.95 Q44.8 -32.6 48.45 -32.6 50.2 -32.6 51.1 -31.3 L52.6 -33.0 Q54.45 -34.6 57.4 -35.5 56.75 -37.75 58.25 -41.0 L60.7 -46.55 Q60.0 -47.25 59.65 -48.1 57.4 -45.85 55.8 -45.85 54.1 -45.85 52.9 -46.95 51.75 -48.1 45.65 -48.1 L43.2 -48.45 43.2 -54.25 Q44.3 -56.25 48.15 -61.45 51.25 -65.7 52.65 -69.1 50.6 -69.95 47.85 -72.2 L43.0 -76.45 Q36.65 -81.8 30.95 -81.8 28.9 -81.8 28.55 -80.95 L28.3 -79.05 Q27.4 -76.3 16.7 -76.3 13.25 -76.3 11.85 -77.05 10.35 -77.95 7.75 -78.1 1.55 -79.8 -0.15 -79.8 -3.65 -78.75 -8.75 -78.1 -8.75 -75.4 -11.2 -73.4 -14.9 -70.35 -23.0 -70.35 -26.45 -70.35 -32.45 -71.55 L-39.25 -72.8 Q-46.7 -72.8 -53.55 -62.7 -53.55 -61.8 -52.65 -59.8 -51.8 -57.8 -51.8 -56.95 -51.8 -56.05 -52.55 -55.6 -53.35 -55.15 -53.35 -54.3 -53.35 -53.85 -51.75 -52.2 -50.2 -50.6 -50.2 -50.4 -50.2 -48.7 -53.6 -46.95 -58.4 -44.4 -66.3 -46.35 L-67.0 -45.65 Q-63.7 -38.15 -54.45 -28.7 -46.0 -20.8 -46.0 -20.2 -46.0 -17.9 -52.45 -16.45 -58.95 -14.95 -58.95 -13.0 -58.95 -11.2 -58.15 -8.65 -57.4 -6.1 -57.4 -2.85 -57.4 -1.9 -59.05 -0.5 -60.65 0.85 -62.1 1.2 L-63.05 1.15 Q-63.35 1.1 -63.35 0.05 -63.35 -1.65 -61.95 -6.1 -61.95 -7.85 -63.35 -12.95 -63.35 -16.8 -57.25 -19.2 -51.05 -20.85 -50.9 -21.05 -61.45 -26.05 -66.6 -35.9 -67.95 -38.5 -70.15 -44.15 -72.2 -49.45 -73.65 -51.95 -73.25 -53.35 -71.55 -53.35 -69.6 -53.35 -69.35 -52.85 -68.6 -51.55 -62.65 -49.15 L-54.6 -49.15 -53.7 -50.2 -55.1 -52.05 Q-56.35 -53.65 -56.35 -54.4 L-55.2 -56.25 Q-54.05 -57.85 -54.05 -58.6 L-55.1 -60.45 Q-56.15 -62.05 -56.15 -62.8 -56.15 -64.15 -54.05 -65.65 -51.95 -67.2 -51.95 -69.1 -51.95 -70.7 -48.05 -72.75 -43.95 -74.95 -40.3 -74.95 -37.65 -74.95 -32.05 -73.55 -26.45 -72.15 -24.2 -72.15 -20.85 -72.15 -16.6 -74.05 -11.05 -76.55 -10.55 -80.5 -5.25 -81.95 -3.5 -81.95 L14.7 -78.45 Q25.5 -78.45 26.35 -81.85 L27.0 -84.25 Q27.8 -85.3 30.95 -85.3 38.2 -85.3 56.0 -68.75 L51.2 -62.35 M14.95 6.35 Q14.95 7.0 14.25 7.05 11.25 4.7 9.45 4.7 6.45 4.7 3.85 9.95 2.9 11.8 1.9 14.55 5.65 15.3 8.65 19.3 8.65 19.8 7.0 21.95 5.3 24.1 5.3 25.1 5.3 27.85 9.6 28.95 14.9 30.25 16.85 33.5 L18.45 33.85 25.35 33.4 Q26.35 32.1 28.5 30.35 L29.55 30.85 Q25.95 32.65 25.5 34.8 25.35 35.75 19.6 35.75 15.2 35.75 14.4 34.05 L14.4 32.1 Q12.0 32.5 7.5 29.4 3.2 26.45 3.2 25.1 3.2 24.2 4.65 22.75 L6.7 20.35 Q6.45 19.0 3.0 17.5 L1.1 16.8 0.75 17.75 0.35 17.75 0.05 16.4 -2.45 15.4 Q-1.55 14.35 0.0 14.35 L0.8 14.4 Q6.75 2.6 8.3 2.6 10.2 2.6 12.4 4.05 14.2 5.2 14.95 6.35 M-66.3 -0.25 Q-66.3 1.2 -70.4 6.65 -74.55 12.05 -74.55 15.65 -74.55 17.3 -74.2 17.85 -73.85 18.5 -72.5 18.95 L-67.15 20.6 Q-69.7 20.65 -74.0 21.75 L-76.5 21.75 Q-77.0 21.7 -77.0 20.55 L-76.3 15.55 Q-76.3 13.95 -73.65 8.2 -71.05 2.55 -69.8 1.2 L-69.8 -4.55 Q-69.45 -5.45 -68.05 -5.65 -66.3 -3.25 -66.3 -0.25 M-5.6 20.2 Q-12.75 20.2 -19.65 16.85 -22.45 16.85 -26.3 26.5 -26.3 29.85 -25.6 30.8 -23.25 33.9 -14.35 33.15 L-14.0 34.45 Q-14.0 36.2 -15.05 40.4 L-15.75 40.65 Q-16.35 37.15 -15.4 34.35 -25.0 33.75 -27.3 31.3 -28.1 30.45 -28.15 29.1 L-28.05 26.95 Q-28.05 26.0 -26.85 23.95 L-34.0 25.6 Q-33.9 32.25 -36.3 34.9 -38.2 34.65 -49.15 30.15 L-49.15 29.8 Q-50.05 29.65 -48.3 29.65 -46.0 29.65 -44.0 31.15 -42.0 32.6 -36.8 32.6 -35.95 32.6 -36.05 31.3 L-36.1 28.35 Q-35.3 24.25 -26.65 23.6 L-25.55 21.8 Q-23.25 18.3 -23.85 14.75 -24.75 14.4 -23.0 14.4 -12.4 17.55 -1.4 17.55 0.45 17.55 1.05 18.25 -0.9 17.85 -2.05 18.95 -3.45 20.2 -5.6 20.2" fill="#ffffff" fill-rule="evenodd" stroke="none"/>
  </g>
</svg>
