<?xml version="1.0" encoding="UTF-8" standalone="no"?>
<svg xmlns:xlink="http://www.w3.org/1999/xlink" height="124.9px" width="138.75px" xmlns="http://www.w3.org/2000/svg">
  <g transform="matrix(1.0, 0.0, 0.0, 1.0, 71.05, 87.05)">
    <path d="M56.6 -67.2 Q56.85 -66.9 56.0 -66.9 52.7 -66.9 48.5 -69.5 45.0 -71.65 44.45 -72.8 43.5 -74.6 40.95 -75.25 38.4 -75.6 38.0 -75.95 34.65 -78.75 30.65 -78.75 L21.95 -78.05 Q18.4 -78.05 13.1 -81.25 L7.9 -84.45 Q7.05 -84.45 -4.7 -75.45 -16.8 -68.15 -16.8 -66.7 -16.8 -65.45 -18.1 -63.15 -19.7 -60.35 -21.6 -60.35 -22.25 -60.35 -25.75 -62.05 -29.3 -63.75 -30.45 -64.6 L-30.45 -65.45 Q-30.15 -65.8 -29.3 -65.8 L-22.05 -63.4 Q-20.25 -63.4 -19.85 -65.85 -19.65 -67.05 -19.85 -68.4 -19.85 -69.0 -13.75 -72.9 -7.05 -77.2 -6.45 -77.8 -3.1 -81.05 7.25 -87.05 9.4 -87.05 18.0 -81.65 20.0 -80.45 28.3 -79.9 36.55 -79.3 37.65 -78.6 L41.85 -76.6 Q44.95 -74.95 46.8 -72.65 47.2 -72.1 51.65 -70.45 55.85 -68.85 56.6 -67.2 M46.75 -56.95 Q46.0 -56.95 43.85 -52.35 48.1 -52.1 56.6 -46.45 L54.5 -35.85 Q54.5 -35.45 61.1 -28.7 67.7 -21.95 67.7 -21.0 67.7 -20.05 66.1 -18.0 64.5 -16.05 64.6 -12.35 64.7 -8.85 64.0 -7.85 62.15 -5.35 54.5 -4.3 54.15 -4.75 54.15 -3.85 54.15 -2.5 56.95 2.2 56.95 3.7 55.1 3.7 52.85 3.7 52.05 1.65 L51.25 -1.6 Q50.95 -2.5 48.7 -4.35 46.55 -6.1 46.55 -7.0 46.55 -8.5 48.65 -8.5 50.5 -8.5 51.45 -7.8 L52.5 -7.1 Q57.0 -7.1 58.85 -8.25 60.4 -9.15 60.9 -11.35 L61.85 -16.0 Q62.75 -19.2 64.95 -21.85 63.15 -23.05 57.85 -28.7 52.25 -34.65 52.25 -35.8 L52.9 -40.95 Q52.9 -42.45 53.35 -45.6 53.35 -46.05 47.75 -48.15 44.3 -49.45 42.95 -50.4 40.15 -44.2 39.2 -43.05 45.4 -38.35 45.4 -37.7 45.4 -35.9 43.95 -35.9 42.9 -35.9 37.45 -40.6 L36.8 -39.15 Q36.55 -38.5 35.2 -38.5 33.5 -38.5 33.45 -40.55 L33.65 -43.4 32.35 -45.7 Q31.2 -47.55 31.2 -48.15 31.2 -49.7 32.9 -49.7 36.0 -49.7 36.85 -45.15 38.7 -47.15 41.4 -52.75 43.85 -57.85 43.85 -58.85 34.45 -63.6 31.15 -65.85 26.45 -72.65 24.15 -72.65 23.5 -71.25 22.2 -71.25 L18.2 -69.95 19.15 -69.4 Q22.05 -67.75 22.05 -66.65 22.05 -64.0 18.85 -63.5 L14.95 -62.8 Q14.2 -61.9 9.45 -59.2 10.05 -58.3 10.05 -56.5 10.05 -49.95 20.25 -45.6 L27.25 -42.45 Q30.45 -40.6 30.45 -38.3 30.45 -36.2 27.15 -34.55 23.8 -32.9 23.8 -31.5 23.8 -30.25 24.85 -29.2 26.45 -27.65 27.35 -25.7 27.2 -24.9 26.45 -24.9 L18.8 -25.6 Q14.35 -25.6 11.3 -24.15 9.8 -23.2 8.7 -22.7 10.15 -22.15 10.15 -21.5 10.15 -19.5 9.1 -16.65 8.05 -13.8 8.05 -11.4 8.05 -10.3 6.9 -8.95 18.75 -8.25 22.45 -5.25 23.8 -4.15 24.35 -2.5 L25.0 0.15 Q25.45 1.5 25.5 3.15 25.95 4.25 29.05 5.25 32.85 6.45 35.65 4.3 37.55 2.85 41.05 6.15 41.55 6.55 41.75 7.45 42.35 9.0 42.95 9.95 42.95 11.45 41.3 15.95 39.6 20.55 38.85 20.65 38.0 20.05 38.0 19.6 38.0 18.35 39.25 14.6 40.45 10.9 40.45 10.0 39.45 9.3 38.95 8.5 L28.35 7.75 Q24.0 6.55 23.5 5.65 21.9 2.55 22.4 0.15 22.8 -2.25 20.8 -3.1 17.3 -4.5 17.05 -4.75 13.65 -7.75 8.1 -7.2 L4.95 -6.95 Q3.7 -7.0 3.7 -8.05 7.25 -18.15 7.25 -18.7 L7.2 -20.8 3.45 -21.45 0.25 -21.95 Q-0.5 -21.95 -1.65 -20.6 -2.8 -19.25 -4.2 -19.25 L-13.75 -20.55 Q-15.75 -20.55 -23.15 -15.0 -21.7 -13.05 -19.05 -10.9 -16.45 -8.75 -16.45 -5.65 -16.45 -3.65 -20.55 4.05 -20.55 4.65 -19.15 5.55 L-20.15 7.45 -13.0 9.55 Q-8.75 10.85 -7.4 12.95 -7.1 13.45 -6.5 17.35 -6.1 20.3 -4.75 20.3 5.0 20.3 7.55 19.1 L8.9 18.25 11.25 17.85 Q12.3 17.85 12.75 19.5 12.75 20.8 11.8 20.5 10.6 19.95 10.05 19.95 8.7 19.95 8.2 20.4 L7.15 21.4 Q5.05 22.85 -4.0 22.85 -9.05 22.85 -9.45 18.55 L-9.95 15.15 Q-10.6 13.4 -12.6 12.7 L-13.75 12.3 Q-13.9 13.05 -15.75 13.05 -16.65 13.05 -18.35 12.3 L-18.45 12.35 Q-19.35 12.35 -21.6 11.45 -23.85 10.5 -25.45 10.5 -26.6 10.5 -28.5 15.5 L-24.95 18.3 Q-21.45 21.15 -21.45 23.7 -21.45 25.2 -22.85 25.2 -24.55 25.2 -24.95 23.45 -25.5 21.15 -26.35 20.5 -28.2 19.1 -30.75 17.8 -31.5 17.4 -31.5 16.05 -31.5 14.9 -29.8 11.35 -27.95 7.35 -26.65 7.35 L-23.1 7.7 Q-23.7 6.55 -23.7 4.7 -23.7 3.3 -21.4 -0.9 -19.15 -5.1 -19.15 -5.8 L-21.75 -8.55 Q-24.85 -11.8 -26.85 -16.45 -27.6 -18.2 -28.1 -21.95 -28.5 -23.65 -29.2 -24.55 L-30.35 -25.25 -42.55 -25.6 -44.8 -25.35 Q-47.05 -25.35 -48.3 -26.65 -56.05 -27.25 -60.4 -31.75 L-63.55 -35.75 Q-65.15 -37.85 -66.5 -38.5 L-66.9 -37.5 Q-66.9 -36.35 -62.85 -32.65 -58.8 -29.0 -58.8 -24.8 -58.8 -24.0 -57.5 -21.6 -56.2 -19.2 -56.2 -18.75 -56.2 -17.35 -57.55 -16.3 L-60.8 -13.65 Q-59.55 -12.85 -59.5 -11.15 L-59.7 -8.8 -59.15 -3.95 Q-51.85 -2.75 -46.85 0.65 -42.4 3.65 -42.4 6.3 -42.4 8.05 -45.7 12.45 -45.7 13.3 -44.9 14.8 -44.9 16.05 -46.65 18.75 -46.05 19.3 -43.75 19.7 L-39.15 20.6 Q-32.6 22.2 -30.45 26.6 -28.6 30.65 -22.75 36.1 -22.75 37.85 -24.05 37.85 -26.15 37.85 -29.45 33.3 -32.3 29.35 -33.05 26.7 -33.8 24.0 -41.8 22.55 -49.4 21.1 -49.4 18.6 -49.4 18.05 -47.25 14.0 L-48.85 12.95 -51.45 13.3 Q-53.2 13.3 -54.45 12.5 -55.75 11.65 -56.15 11.65 -56.85 11.65 -57.8 12.65 -58.8 13.65 -59.15 13.65 -60.55 13.65 -61.85 12.3 -61.15 15.1 -61.15 15.75 L-62.2 17.75 -62.2 18.05 Q-59.5 17.95 -59.05 19.85 -58.85 20.8 -59.15 21.95 -59.15 23.55 -56.8 23.85 L-51.6 24.0 Q-44.1 24.4 -44.1 31.0 L-44.15 31.9 -45.0 32.2 -46.55 30.55 -48.4 28.1 Q-50.9 24.1 -54.55 25.35 L-57.3 26.3 Q-58.85 26.6 -59.95 25.7 -60.7 25.1 -65.25 18.35 -65.25 17.55 -64.45 16.2 L-63.7 14.8 Q-64.75 12.8 -64.75 12.05 -64.75 10.15 -62.9 9.85 L-59.55 9.9 Q-59.25 9.9 -58.7 9.35 -58.15 8.75 -56.0 8.75 -53.5 8.75 -53.1 9.55 -52.75 10.35 -50.5 10.35 -49.7 10.35 -48.05 9.5 L-46.95 8.95 -45.35 7.0 Q-46.95 6.25 -46.95 3.95 -47.0 2.1 -51.3 1.3 L-59.8 -0.25 Q-63.1 -1.15 -63.1 -3.3 L-61.95 -10.65 Q-61.95 -11.05 -63.2 -12.1 -64.5 -13.15 -64.5 -13.65 -64.5 -14.4 -62.05 -16.55 L-59.6 -18.9 -60.5 -21.8 Q-61.4 -24.75 -61.4 -26.35 -61.4 -28.2 -65.65 -31.55 -69.9 -34.95 -69.9 -37.8 -69.9 -41.55 -66.85 -41.55 -64.75 -41.55 -62.65 -39.65 L-58.9 -35.5 Q-53.65 -29.45 -47.8 -29.45 -44.55 -32.55 -43.6 -32.95 -43.85 -36.3 -49.3 -38.9 -54.6 -41.45 -54.6 -43.3 -54.6 -44.05 -52.85 -49.45 L-63.65 -53.35 Q-71.05 -56.35 -71.05 -58.7 -66.85 -69.65 -64.05 -69.65 -62.6 -69.65 -61.65 -69.05 -60.65 -68.45 -56.6 -68.45 L-50.15 -68.7 Q-50.05 -70.45 -48.05 -71.3 -46.25 -72.1 -40.75 -72.85 L-42.0 -75.0 -42.05 -76.55 Q-42.05 -78.2 -40.95 -79.75 L-38.55 -83.2 Q-36.9 -86.35 -29.1 -86.35 L-22.25 -84.8 -21.8 -84.1 Q-23.7 -82.95 -25.45 -82.95 L-30.25 -83.8 -35.15 -84.7 Q-36.9 -84.7 -40.3 -76.65 L-39.6 -74.85 Q-38.9 -73.6 -38.9 -72.6 -38.9 -71.25 -47.75 -68.65 -52.2 -67.35 -56.7 -66.35 -60.8 -66.35 -61.8 -66.95 -62.8 -67.55 -63.85 -67.55 -64.8 -67.55 -69.2 -58.5 -69.2 -57.85 -60.15 -54.3 -51.1 -50.8 -51.1 -49.2 L-52.85 -43.4 Q-52.85 -42.75 -50.95 -41.7 L-46.8 -39.55 Q-40.75 -36.15 -40.75 -32.4 L-44.5 -28.2 Q-41.85 -28.05 -36.8 -28.05 -30.2 -28.05 -28.5 -27.3 -26.25 -26.35 -25.65 -22.3 -25.15 -18.3 -24.15 -16.5 L-24.0 -16.2 Q-16.2 -22.45 -14.35 -22.45 L-4.6 -21.5 Q-3.7 -21.5 -2.15 -22.65 -0.6 -23.85 0.35 -23.85 L6.55 -23.3 Q6.85 -24.75 12.7 -26.25 18.95 -27.9 22.75 -27.3 21.5 -28.75 21.5 -31.4 21.5 -34.55 24.85 -35.9 28.15 -37.25 28.15 -38.35 28.15 -40.45 8.4 -48.55 8.8 -49.35 9.8 -50.2 9.25 -51.45 8.2 -55.15 L7.2 -59.4 Q7.2 -61.25 10.25 -62.7 L18.35 -66.3 14.95 -69.0 14.7 -69.05 14.5 -69.4 13.15 -70.65 Q8.5 -74.9 8.5 -76.4 8.5 -78.05 10.2 -78.05 11.6 -78.05 13.05 -75.3 14.3 -72.35 14.6 -72.1 L16.5 -70.9 24.2 -75.1 Q26.35 -75.1 30.55 -70.9 34.6 -66.55 35.2 -66.15 36.0 -65.6 43.15 -63.1 49.95 -60.3 49.95 -58.25 49.95 -57.1 49.15 -56.95 L46.75 -56.95 M-16.65 11.3 L-16.95 11.15 -16.95 11.2 -16.65 11.3" fill="#ffffff" fill-rule="evenodd" stroke="none"/>
  </g>
</svg>
