<?xml version="1.0" encoding="UTF-8" standalone="no"?>
<svg xmlns:xlink="http://www.w3.org/1999/xlink" height="133.1px" width="139.4px" xmlns="http://www.w3.org/2000/svg">
  <g transform="matrix(1.0, 0.0, 0.0, 1.0, 70.4, 86.8)">
    <path d="M55.5 -65.5 L56.3 -67.2 Q51.3 -68.35 49.6 -69.4 49.95 -70.35 50.55 -70.35 57.25 -70.35 60.9 -67.6 L63.5 -65.25 Q65.05 -63.8 66.35 -63.15 67.6 -62.55 68.4 -59.15 69.0 -56.6 69.0 -55.05 L68.6 -47.7 Q68.4 -47.25 67.55 -47.25 66.55 -47.25 64.0 -49.05 L61.45 -50.85 Q59.9 -50.85 58.1 -47.35 L56.6 -43.8 57.3 -40.25 56.65 -39.45 Q55.85 -38.85 55.45 -37.65 L58.55 -33.85 Q60.2 -31.75 60.2 -30.2 60.2 -28.7 55.1 -24.95 L51.8 -22.7 52.3 -22.35 Q56.0 -19.45 56.0 -16.9 54.6 -12.25 54.6 -11.55 L53.2 -6.7 53.9 -3.95 Q53.45 -2.6 53.45 -1.75 L53.65 -1.25 Q52.95 -2.1 52.4 -3.45 51.35 -5.95 51.35 -7.3 51.35 -9.2 53.55 -16.7 53.55 -18.15 50.5 -20.35 L49.15 -21.2 48.5 -21.6 Q45.9 -22.9 43.15 -22.9 41.6 -22.9 41.4 -21.3 L41.5 -19.75 Q41.5 -17.65 39.55 -16.85 L33.7 -16.25 Q32.95 -16.25 32.1 -15.45 L30.3 -13.6 Q27.15 -11.0 21.05 -11.0 18.5 -11.0 14.2 -7.3 L11.05 -4.6 12.6 -3.35 Q14.15 -1.9 16.65 -1.75 L19.3 -1.6 16.0 -0.45 Q13.55 -0.45 10.95 -2.25 L9.6 -3.35 9.0 -2.9 Q7.95 -3.2 7.95 -3.75 7.95 -4.4 8.3 -5.1 L8.05 -5.8 Q4.75 -4.65 3.85 -4.65 -4.25 -0.35 -7.7 -0.35 -9.9 -0.35 -11.7 -2.75 -13.2 -4.65 -13.5 -6.4 -13.75 -7.65 -15.85 -9.4 -17.85 -11.05 -17.85 -12.3 -17.85 -13.9 -16.2 -15.4 -17.65 -15.9 -21.05 -19.05 -24.5 -22.3 -24.5 -23.2 L-24.2 -24.2 Q-25.95 -24.45 -27.4 -25.9 L-29.3 -27.65 Q-31.25 -27.65 -34.55 -25.35 -37.85 -23.1 -42.2 -23.1 L-44.8 -24.25 -44.8 -24.2 Q-52.25 -24.4 -55.5 -22.95 -57.85 -21.9 -58.85 -19.35 -60.3 -15.8 -60.95 -15.05 -62.85 -12.7 -67.7 -11.7 -67.15 -10.75 -64.15 -8.3 L-60.45 -4.75 -60.05 -0.8 Q-59.85 1.95 -57.6 1.95 -53.15 1.95 -49.95 0.0 -46.7 -1.95 -46.05 -1.95 -42.55 -1.95 -41.0 0.95 -39.8 4.35 -38.85 5.4 -37.45 6.85 -34.05 9.6 -32.7 10.65 -32.7 12.45 -32.7 14.1 -33.65 17.5 L-34.0 17.5 Q-33.3 16.05 -33.3 15.15 -33.3 12.15 -39.2 7.35 -39.8 6.85 -41.8 2.8 -43.15 0.0 -46.3 0.0 -46.55 0.0 -49.7 2.1 -51.3 3.15 -52.95 3.7 L-54.7 4.95 -54.0 7.15 -54.35 11.2 Q-54.35 12.35 -55.95 13.55 -58.4 15.35 -63.15 14.8 -62.9 16.25 -58.45 19.95 -53.7 23.9 -52.85 25.8 L-53.75 26.05 Q-56.65 26.05 -65.7 14.35 -65.7 13.05 -64.4 12.7 L-56.95 11.3 Q-57.3 10.85 -57.3 10.0 -56.25 8.05 -56.25 7.1 -56.95 6.05 -56.95 5.2 -56.95 4.6 -56.4 4.2 -61.8 4.2 -62.0 1.1 L-61.9 -1.65 Q-61.9 -3.35 -62.75 -4.3 L-67.15 -8.3 Q-70.4 -11.3 -70.4 -12.6 -70.4 -13.75 -69.05 -13.85 -66.25 -14.15 -63.15 -15.9 -62.0 -16.55 -62.0 -17.85 L-62.1 -19.85 Q-60.95 -21.8 -59.1 -23.2 -55.5 -25.95 -49.2 -25.95 L-48.65 -25.95 -51.15 -27.05 Q-60.6 -31.1 -63.45 -31.55 L-59.15 -32.6 Q-53.4 -31.4 -48.85 -29.1 L-46.35 -26.75 Q-44.75 -25.2 -42.25 -25.2 -38.4 -25.2 -34.6 -27.35 -30.8 -29.55 -28.95 -29.55 -28.25 -29.55 -26.7 -28.35 -25.15 -27.15 -24.65 -27.15 -23.85 -27.15 -21.35 -30.05 L-19.25 -32.25 Q-20.95 -33.65 -20.55 -35.55 -24.5 -36.25 -24.6 -46.4 -24.6 -46.8 -26.85 -47.85 -26.55 -49.7 -24.55 -50.4 L-23.55 -50.75 -24.95 -54.35 Q-27.15 -58.1 -31.65 -58.1 -35.05 -58.1 -37.7 -52.9 -37.0 -51.45 -37.0 -50.55 -37.0 -49.55 -38.75 -48.75 -41.0 -47.7 -45.0 -47.7 L-48.9 -48.05 -51.65 -48.9 Q-51.65 -52.5 -54.45 -53.8 L-52.45 -55.9 Q-51.65 -56.7 -51.65 -57.6 -51.65 -58.85 -53.7 -60.3 -55.75 -61.75 -55.75 -62.75 -55.75 -63.8 -54.8 -65.25 -54.8 -68.05 -59.7 -68.05 -62.4 -68.05 -65.9 -60.8 -64.4 -58.3 -64.4 -57.7 -66.75 -55.5 -66.75 -54.15 -66.75 -53.0 -64.55 -47.15 -62.3 -41.2 -61.35 -40.1 -61.55 -39.3 -62.1 -39.3 -64.8 -39.3 -68.65 -54.0 -68.65 -54.95 -66.4 -58.6 -66.4 -59.15 -67.55 -61.25 -63.7 -70.1 -60.2 -70.1 -55.55 -70.1 -53.75 -67.7 L-52.85 -65.2 Q-53.75 -63.65 -53.75 -62.7 L-52.0 -60.85 Q-50.25 -59.0 -50.25 -57.5 -50.25 -56.65 -51.05 -55.6 L-51.9 -54.3 Q-51.9 -49.45 -45.05 -49.45 L-41.35 -49.4 Q-40.65 -49.45 -38.5 -50.75 -39.05 -51.3 -39.05 -52.75 -39.05 -53.75 -36.8 -56.5 -34.25 -59.65 -32.1 -59.65 -28.0 -59.65 -24.95 -56.15 -22.65 -53.45 -22.65 -52.0 L-22.75 -51.05 Q-21.8 -51.5 -21.55 -51.8 -20.95 -52.5 -20.3 -54.0 -19.5 -55.35 -17.7 -56.05 -22.8 -63.3 -23.55 -67.9 -23.9 -70.0 -25.4 -71.15 L-28.6 -73.6 Q-29.2 -74.25 -29.65 -79.25 -29.65 -81.75 -25.95 -81.75 L-17.85 -81.1 Q-16.6 -86.8 -12.75 -86.8 -8.95 -86.8 -5.4 -83.65 -2.75 -81.3 -2.3 -79.9 -2.6 -79.1 -4.2 -79.1 -5.3 -79.1 -8.0 -81.55 -10.7 -84.0 -12.6 -84.0 -14.35 -84.0 -14.65 -80.85 -14.95 -77.7 -17.25 -77.7 L-26.15 -78.6 -26.4 -76.55 Q-26.4 -75.3 -23.3 -74.0 -20.2 -72.7 -20.2 -71.5 L-20.85 -70.4 Q-19.65 -71.05 -16.75 -71.05 -14.55 -71.05 -13.5 -70.15 L-12.0 -68.15 Q-9.95 -65.25 -3.15 -65.25 L-0.6 -65.3 -0.25 -66.15 Q-0.25 -66.5 -1.4 -69.4 -1.4 -72.7 2.6 -74.85 L7.35 -77.35 Q7.9 -78.15 7.3 -79.6 6.65 -81.25 6.8 -81.8 7.35 -84.2 19.15 -84.2 21.35 -84.2 26.95 -79.8 32.15 -75.7 32.9 -74.05 L32.65 -73.6 32.1 -73.55 Q20.0 -81.9 19.5 -81.9 11.2 -81.9 9.95 -80.5 9.5 -80.05 9.85 -79.45 L10.25 -78.85 Q10.25 -75.8 5.5 -73.45 0.7 -71.1 0.7 -69.05 1.6 -66.85 1.6 -66.15 1.6 -64.5 0.7 -63.9 -0.35 -63.15 -3.5 -63.15 -4.35 -63.15 -5.05 -64.05 L-7.85 -63.75 Q-13.2 -63.75 -13.6 -66.4 -13.85 -67.85 -14.15 -68.2 -14.85 -69.05 -17.2 -69.05 L-20.9 -68.3 Q-21.45 -68.45 -21.6 -68.8 L-21.8 -68.0 -21.2 -65.0 Q-21.2 -63.3 -18.8 -60.4 -16.4 -57.4 -13.75 -56.0 -18.1 -53.55 -19.35 -51.95 -21.2 -49.6 -24.5 -47.95 -22.55 -44.3 -21.55 -38.25 -17.3 -38.9 -17.05 -37.7 L-17.6 -35.4 Q-17.6 -34.45 -12.65 -32.75 -7.5 -31.0 -3.95 -31.0 -2.4 -31.0 -0.65 -32.35 1.1 -33.7 2.45 -33.7 6.6 -33.7 10.3 -31.7 14.05 -29.75 20.55 -29.75 L25.1 -30.7 30.3 -31.35 Q33.55 -30.9 35.6 -32.55 L37.65 -34.3 38.85 -33.95 38.95 -33.35 Q38.95 -32.45 29.6 -29.9 20.55 -27.45 18.45 -27.45 13.9 -27.45 8.85 -29.9 3.85 -32.4 3.15 -32.4 1.5 -32.4 -0.8 -30.75 -3.1 -29.1 -4.35 -29.1 -12.75 -29.1 -17.0 -30.95 L-19.6 -27.75 -20.95 -26.15 -20.9 -25.6 -21.55 -23.0 Q-21.55 -21.5 -16.8 -19.15 -12.1 -16.8 -12.1 -15.5 -12.1 -14.65 -12.85 -13.95 L-14.7 -12.25 Q-12.8 -10.85 -11.2 -9.1 -10.15 -8.0 -10.4 -7.35 L-10.9 -5.95 Q-10.9 -5.25 -7.0 -2.8 -4.5 -2.8 -0.65 -4.65 3.15 -6.55 8.2 -6.55 L8.9 -6.1 Q10.1 -7.8 12.95 -9.9 18.65 -14.1 24.55 -14.1 26.05 -14.1 29.55 -17.05 33.05 -20.0 33.95 -20.0 35.0 -20.0 36.0 -19.05 38.4 -19.05 39.05 -22.35 39.7 -25.7 42.9 -25.7 46.6 -25.7 49.9 -23.95 52.55 -27.15 57.75 -30.45 56.7 -32.85 52.15 -37.85 52.15 -38.55 52.85 -38.95 L54.95 -40.35 Q54.3 -42.6 54.3 -43.75 54.3 -45.4 56.15 -48.75 58.45 -52.9 61.05 -52.9 62.1 -52.9 66.7 -49.6 67.05 -51.35 67.05 -54.95 67.05 -58.4 63.85 -61.4 60.6 -64.45 60.6 -65.15 60.6 -66.0 58.05 -66.75 57.45 -65.5 57.45 -64.7 57.45 -64.25 55.7 -62.9 53.85 -61.5 53.0 -61.5 48.7 -61.5 46.3 -63.2 L43.6 -64.9 41.85 -64.55 Q42.2 -63.5 44.0 -62.4 45.6 -61.45 45.6 -60.25 46.75 -57.1 46.75 -56.2 37.15 -44.0 33.6 -44.0 33.15 -44.0 28.0 -47.25 22.85 -50.55 20.5 -50.55 18.45 -50.55 15.9 -49.15 13.3 -47.75 11.8 -47.75 11.15 -47.75 10.6 -48.3 L10.25 -48.8 20.35 -52.5 Q24.5 -52.5 33.6 -46.8 36.7 -46.8 40.1 -51.05 L44.3 -56.4 Q43.65 -56.95 43.65 -59.7 43.65 -61.45 42.15 -62.0 40.6 -62.6 40.6 -64.45 40.6 -64.9 41.25 -65.5 42.0 -66.2 42.7 -66.2 43.85 -66.2 45.8 -64.85 47.7 -63.5 53.7 -63.5 54.8 -63.5 55.5 -65.5 M13.1 -4.1 L12.7 -4.05 Q13.15 -4.95 13.4 -4.65 L13.1 -4.1 M13.4 -3.35 L13.55 -3.6 14.45 -3.35 13.4 -3.35 M24.85 -2.1 Q25.55 -1.6 30.15 0.05 29.5 0.3 27.45 -0.55 L24.55 -2.1 24.85 -2.1 M39.55 -2.55 Q39.55 -1.8 38.9 -1.45 37.8 -0.85 36.75 0.7 37.95 2.1 44.25 5.55 49.95 8.7 49.95 9.45 49.4 16.35 48.35 19.55 L54.05 17.15 Q53.5 15.45 54.7 11.9 56.05 7.75 58.8 7.75 60.25 7.75 60.25 9.1 60.25 9.6 58.45 11.3 56.65 13.05 56.5 14.0 56.45 14.55 56.85 16.4 57.15 17.95 56.7 18.65 55.5 20.65 46.3 23.3 38.2 25.65 35.9 25.65 32.95 25.65 31.15 24.65 29.8 23.9 29.8 23.35 31.9 21.45 31.9 20.45 31.1 17.65 28.9 17.75 L28.7 19.0 Q28.7 20.1 30.8 28.7 30.8 30.05 28.9 30.4 26.6 30.8 25.75 33.25 25.25 34.7 25.75 38.2 25.5 40.25 20.95 42.95 15.15 46.3 7.4 46.3 6.55 46.3 -3.9 39.0 -4.8 39.0 -7.35 39.75 L-11.0 40.25 -18.1 39.75 Q-18.75 39.7 -19.6 39.1 L-25.8 40.3 Q-28.45 40.3 -41.5 34.65 -41.5 34.15 -40.6 33.1 -39.75 32.05 -39.75 31.6 L-42.05 26.0 Q-42.45 25.05 -42.55 23.1 L-46.9 22.4 Q-47.95 22.3 -47.95 21.15 -47.95 19.95 -43.25 19.95 -40.25 19.95 -38.65 25.7 -37.9 28.55 -37.7 31.5 -37.7 33.0 -39.4 35.0 -29.8 38.65 -27.8 38.65 -26.1 38.65 -23.3 37.85 -20.55 37.0 -19.15 37.0 L-14.0 37.7 -11.2 37.95 -3.15 36.65 2.45 40.6 Q6.6 44.25 7.65 44.25 23.95 44.25 23.95 36.75 23.25 35.25 23.25 34.35 23.25 32.75 24.15 30.8 25.4 27.9 27.65 28.45 25.95 25.15 26.0 24.2 26.4 22.95 26.4 21.0 25.45 19.3 25.45 18.85 L25.65 17.75 Q23.55 17.7 21.35 16.75 19.0 15.75 16.45 15.75 14.55 15.75 14.5 17.85 14.5 18.9 14.85 20.0 14.85 22.85 10.4 22.85 9.25 22.85 7.4 21.0 5.05 18.75 3.15 17.95 2.3 17.6 0.75 15.25 -0.7 13.0 -0.7 12.4 L0.0 10.85 0.0 10.55 Q-1.05 11.0 -2.15 12.65 L-4.2 15.9 Q-7.25 20.15 -12.6 20.15 L-15.7 19.5 Q-17.8 18.8 -19.15 18.8 L-24.75 20.85 -25.7 19.9 Q-25.7 18.95 -23.8 18.0 -21.6 16.8 -18.45 16.8 -16.8 16.8 -15.3 17.45 L-12.7 18.05 -10.35 17.7 Q-12.7 16.3 -16.45 12.0 -20.0 8.75 -23.6 7.75 L-30.45 6.7 -30.6 5.9 -30.45 5.1 -27.9 4.75 Q-19.4 4.75 -16.0 7.95 -12.35 12.65 -8.1 16.55 -6.6 15.35 -5.5 13.25 L-3.65 9.9 Q-2.5 8.4 -0.85 8.4 2.5 8.4 2.3 10.75 2.0 14.05 2.45 14.55 3.35 15.65 10.75 19.5 11.9 19.45 11.95 18.4 L11.8 16.95 Q11.8 15.85 12.85 14.2 13.9 12.6 14.6 12.6 18.75 12.6 22.85 14.45 L26.4 16.35 Q27.35 15.05 28.7 15.05 33.5 15.05 34.65 18.25 35.55 20.7 34.35 22.6 L34.3 22.95 Q34.25 23.1 34.75 23.1 38.9 23.1 46.85 20.15 L47.6 15.2 Q47.6 9.1 42.8 7.8 39.7 7.0 36.95 4.5 34.35 2.15 34.35 0.5 34.35 -0.25 35.75 -1.3 37.1 -2.3 37.1 -2.8 37.1 -3.65 36.45 -4.55 36.45 -5.7 37.65 -5.7 39.75 -5.7 39.55 -2.55 M61.6 5.1 Q61.55 6.3 59.65 6.15 59.15 6.1 59.05 5.8 60.8 5.6 60.8 4.45 L60.8 4.25 Q61.6 4.65 61.6 5.1 M57.0 2.0 L56.35 1.75 56.6 1.6 57.0 2.0 M56.35 0.4 Q54.9 0.3 53.75 -1.1 54.4 -0.4 56.35 0.4" fill="#ffffff" fill-rule="evenodd" stroke="none"/>
  </g>
</svg>
