<?xml version="1.0" encoding="UTF-8" standalone="no"?>
<svg xmlns:xlink="http://www.w3.org/1999/xlink" height="120.9px" width="143.8px" xmlns="http://www.w3.org/2000/svg">
  <g transform="matrix(1.0, 0.0, 0.0, 1.0, 80.65, 85.65)">
    <path d="M50.75 -62.65 Q54.7 -62.65 55.7 -61.95 56.0 -61.7 56.0 -60.9 55.65 -58.85 54.4 -58.85 L53.2 -60.1 Q48.05 -60.1 44.65 -58.55 41.3 -57.05 40.45 -57.05 31.95 -57.05 31.95 -60.85 31.95 -61.4 32.9 -63.05 L30.4 -65.8 Q27.85 -68.5 27.85 -70.55 27.85 -71.45 29.25 -73.7 L25.7 -75.3 21.35 -76.05 Q21.5 -75.35 23.85 -73.2 26.1 -71.15 26.1 -70.45 26.1 -69.3 23.5 -66.6 L19.85 -63.0 21.25 -60.75 Q21.25 -58.7 17.55 -58.7 15.15 -58.7 14.15 -59.45 13.1 -60.2 10.35 -60.2 6.8 -60.2 4.85 -52.55 L3.2 -47.3 Q2.0 -44.9 0.0 -44.9 -9.9 -44.9 -15.85 -49.0 -20.25 -52.0 -21.0 -55.65 L-22.15 -61.95 Q-22.4 -63.05 -25.85 -63.95 -29.2 -64.8 -29.2 -66.45 -29.2 -67.35 -28.35 -68.4 L-29.1 -68.7 Q-32.45 -68.7 -37.15 -67.0 L-38.05 -67.2 -38.3 -68.1 -38.15 -68.7 Q-30.7 -70.75 -28.95 -70.75 -26.55 -70.75 -26.0 -69.15 -25.6 -67.9 -26.25 -66.85 -20.1 -66.3 -19.2 -63.0 -19.25 -58.8 -18.65 -56.7 -17.65 -53.4 -13.55 -50.8 -8.15 -47.35 0.1 -47.35 1.25 -47.35 1.9 -49.7 L2.9 -54.9 Q4.6 -62.45 10.2 -62.45 12.4 -62.45 14.25 -61.55 16.1 -60.7 16.6 -60.7 L18.45 -60.8 17.75 -62.75 Q17.75 -64.6 23.6 -70.0 L20.6 -73.65 Q18.95 -75.6 18.95 -77.05 18.95 -78.05 20.9 -78.05 25.05 -78.05 28.55 -76.15 31.35 -74.65 31.35 -73.8 31.35 -73.05 30.65 -72.0 L29.95 -70.65 Q29.95 -69.3 30.75 -68.15 33.8 -72.0 38.35 -70.05 L39.25 -69.95 39.4 -70.5 Q39.4 -72.9 37.1 -74.3 34.75 -75.75 34.75 -76.9 L35.1 -80.15 Q35.1 -81.4 36.25 -81.4 36.75 -81.4 37.7 -80.7 38.7 -79.95 38.95 -79.2 37.55 -77.8 37.55 -76.85 41.5 -73.35 41.5 -70.85 41.5 -67.9 40.25 -67.9 38.75 -67.9 37.75 -68.4 L36.25 -68.95 Q34.35 -68.95 32.75 -67.75 L31.8 -67.05 32.65 -66.4 Q35.35 -64.65 35.35 -63.15 34.5 -61.8 34.5 -60.9 L34.65 -60.35 37.2 -59.95 40.3 -59.65 Q42.1 -59.65 44.7 -61.15 47.25 -62.65 50.75 -62.65 M4.55 -75.1 L3.85 -72.1 Q5.95 -71.35 6.8 -71.6 L11.8 -72.2 Q18.55 -72.2 22.3 -69.4 22.2 -69.05 21.35 -69.05 17.2 -70.1 14.6 -70.1 L5.35 -69.35 Q1.95 -69.35 1.65 -71.85 1.45 -73.1 1.95 -74.6 1.95 -75.0 0.3 -76.6 -1.35 -78.15 -1.1 -80.35 -5.2 -81.6 -4.7 -83.05 L-4.7 -83.2 Q-6.45 -82.7 -13.8 -77.35 -18.45 -77.35 -23.1 -80.0 -25.05 -81.0 -31.15 -82.7 L-32.75 -80.95 Q-34.6 -79.2 -38.4 -79.2 -41.5 -79.2 -44.5 -80.45 -47.5 -81.75 -49.3 -81.75 -50.15 -81.75 -53.9 -80.15 L-50.85 -73.95 Q-50.85 -73.4 -52.05 -71.85 -53.25 -70.3 -53.3 -66.35 -53.3 -65.35 -56.0 -63.1 -59.1 -60.55 -61.75 -60.55 -64.75 -60.55 -66.25 -61.85 -67.05 -61.85 -68.75 -59.15 -70.4 -56.6 -70.6 -55.45 -71.05 -52.85 -74.0 -51.0 -75.45 -50.05 -76.8 -49.6 L-77.85 -47.7 -77.9 -47.6 Q-76.5 -47.3 -72.2 -43.65 -68.2 -40.25 -66.55 -40.25 -64.95 -40.25 -63.45 -40.75 L-61.6 -41.3 -58.1 -39.3 Q-54.1 -41.45 -54.1 -44.6 L-55.4 -51.05 Q-55.4 -51.65 -54.0 -52.45 -52.6 -53.3 -52.6 -54.15 -52.6 -55.0 -53.3 -56.0 -53.3 -57.8 -50.75 -57.8 -44.85 -57.8 -32.35 -42.05 -32.35 -41.65 -33.3 -40.7 -34.25 -39.75 -34.2 -38.5 -34.05 -35.55 -34.65 -35.05 L-38.9 -31.55 Q-40.25 -30.3 -40.25 -28.55 -40.25 -28.05 -41.25 -27.4 L-42.5 -26.25 -36.1 -23.75 Q-33.95 -22.8 -33.95 -21.1 L-34.9 -18.9 Q-31.6 -16.0 -29.9 -15.05 L-28.5 -15.3 Q-23.45 -16.15 -23.2 -19.6 -22.05 -22.3 -20.6 -23.6 -19.8 -24.35 -19.8 -26.35 -19.8 -29.05 -11.9 -29.05 -5.5 -28.15 -1.8 -25.7 L0.75 -23.95 Q1.5 -23.25 1.15 -22.2 0.5 -22.1 1.4 -22.1 3.05 -22.1 5.45 -24.25 7.9 -26.4 12.2 -26.4 18.1 -26.4 22.3 -29.1 21.4 -29.35 21.4 -30.1 21.4 -30.95 24.55 -31.35 27.1 -31.7 27.55 -32.55 L26.75 -33.0 27.6 -34.0 26.95 -43.4 Q26.95 -46.45 31.5 -46.45 33.0 -46.45 34.05 -45.3 L35.3 -44.2 Q38.55 -44.2 38.7 -45.35 39.55 -45.0 39.55 -44.35 39.55 -43.8 38.2 -43.15 36.7 -42.45 34.85 -42.45 33.6 -42.45 33.05 -43.55 32.5 -44.7 31.4 -44.7 28.9 -43.75 28.9 -43.65 L29.6 -34.45 29.6 -33.8 32.65 -32.65 Q36.6 -31.0 36.6 -30.1 L35.4 -27.5 Q35.4 -25.75 38.55 -21.35 41.45 -17.35 40.8 -15.55 43.55 -15.5 44.85 -13.5 45.75 -12.15 45.75 -10.6 44.9 -8.6 44.9 -7.7 44.9 -6.8 48.5 -3.65 L52.85 0.5 Q52.5 0.85 51.6 0.85 50.25 0.85 45.85 -3.2 41.75 -7.05 41.75 -7.35 41.75 -8.25 42.6 -10.65 42.6 -11.65 40.4 -13.0 38.15 -14.3 38.15 -16.85 L35.9 -20.95 Q33.65 -25.2 33.65 -27.5 33.65 -28.0 34.25 -28.55 34.9 -29.2 35.1 -30.5 L29.3 -31.9 29.2 -31.7 Q28.3 -30.35 24.5 -29.75 24.85 -29.7 24.85 -28.8 24.85 -28.2 18.55 -26.6 L10.6 -24.85 Q7.35 -24.25 5.55 -22.15 4.0 -20.35 1.2 -20.35 -0.6 -20.35 -0.75 -21.65 -1.0 -23.3 -2.1 -23.85 -4.9 -25.35 -11.2 -27.35 L-14.75 -27.55 Q-17.65 -27.3 -18.2 -25.0 -18.4 -24.35 -19.6 -22.85 L-21.2 -20.55 Q-21.65 -19.3 -21.25 -16.1 -22.25 -14.75 -27.8 -14.35 -27.2 -13.85 -27.45 -12.35 -24.5 -11.85 -22.5 -9.95 -20.85 -8.35 -20.85 -6.9 -20.85 -0.9 -25.55 3.15 L-28.8 5.75 Q-30.25 7.1 -30.25 8.25 -30.25 9.1 -30.5 8.95 L-31.05 9.15 Q-33.3 9.15 -32.7 7.0 -32.7 6.1 -27.95 2.65 -23.25 -0.8 -23.25 -4.75 -23.25 -6.95 -23.55 -7.6 -24.4 -9.35 -27.55 -9.35 -31.4 -9.35 -39.9 -17.85 -39.9 -19.15 -38.85 -20.7 L-39.1 -20.75 Q-39.6 -20.0 -40.45 -20.0 -41.3 -20.0 -42.5 -20.8 -45.15 -20.8 -46.05 -17.95 -46.05 -17.15 -45.3 -15.85 -44.55 -14.55 -44.55 -13.65 -44.55 -12.0 -47.15 -11.05 -49.8 -10.1 -49.8 -8.15 -49.8 -6.35 -48.0 -2.7 -48.0 -1.4 -48.45 -1.2 L-49.75 -1.3 Q-51.85 -1.75 -53.6 0.1 -46.7 5.45 -44.55 7.7 L-49.8 14.7 -48.4 15.25 -51.4 17.6 -46.35 17.7 Q-41.7 17.75 -41.7 19.6 -41.7 20.15 -43.45 22.25 -43.45 23.1 -42.85 23.9 -42.85 26.15 -40.35 27.7 -34.6 31.3 -33.75 32.0 -38.15 32.9 -42.0 28.55 -45.2 24.9 -45.2 22.2 -45.2 20.55 -44.3 19.85 L-44.25 19.7 -48.5 18.95 Q-51.1 18.6 -52.5 17.85 L-52.35 17.6 -51.8 17.6 -52.25 16.85 -51.75 16.35 -49.9 15.4 -50.4 15.25 Q-50.6 15.6 -50.6 14.7 L-46.2 8.8 Q-47.65 8.35 -51.1 5.2 -54.0 2.6 -54.55 1.25 -57.0 4.3 -61.35 5.6 -61.35 7.25 -59.7 10.5 -57.95 14.05 -56.0 15.75 -61.45 14.2 -61.95 13.4 L-61.7 10.5 Q-63.6 6.25 -63.6 5.5 -63.6 2.45 -61.1 2.15 -57.75 1.7 -57.3 1.2 L-55.65 -1.3 Q-54.3 -2.95 -51.3 -3.15 L-52.25 -4.75 -52.7 -4.3 Q-53.05 -4.5 -53.05 -5.5 L-52.65 -5.95 -52.85 -8.05 -52.8 -9.0 -53.2 -9.2 Q-55.65 -10.3 -59.15 -10.3 -62.15 -10.3 -63.1 -9.45 -64.05 -8.65 -64.75 -8.65 -68.6 -8.65 -70.4 -17.1 -70.4 -18.65 -68.4 -19.4 -67.45 -19.05 -67.55 -18.3 L-67.8 -17.15 -64.75 -11.65 -59.0 -13.1 Q-54.95 -13.1 -52.45 -11.25 -51.55 -13.0 -47.6 -14.35 L-49.0 -17.15 Q-49.0 -19.0 -48.15 -20.65 -47.0 -22.95 -44.55 -23.2 L-45.05 -23.8 Q-45.7 -24.8 -45.7 -27.25 -45.7 -28.55 -40.3 -32.75 L-35.85 -36.35 Q-35.55 -36.8 -36.1 -38.8 -36.1 -39.8 -34.0 -41.85 -47.3 -55.8 -49.45 -55.8 L-51.1 -55.7 -50.4 -54.4 Q-50.4 -52.95 -51.95 -51.55 -53.55 -50.2 -53.55 -49.35 -53.55 -47.95 -52.85 -46.4 L-52.15 -44.5 Q-52.15 -43.15 -53.85 -40.95 -55.35 -39.0 -56.85 -38.6 L-52.95 -36.4 Q-52.95 -35.5 -55.55 -33.05 L-58.2 -30.35 Q-56.0 -27.2 -56.0 -26.65 -56.0 -24.9 -60.7 -24.9 L-62.2 -25.1 -62.45 -25.55 Q-61.65 -26.5 -58.45 -27.15 L-58.35 -27.6 -60.4 -31.5 Q-60.4 -33.05 -56.25 -35.75 L-59.2 -37.8 Q-60.4 -38.85 -61.6 -38.85 -63.9 -38.85 -67.0 -37.8 -69.8 -37.8 -73.2 -42.6 -75.25 -45.3 -78.3 -45.7 -80.65 -46.0 -80.65 -46.95 L-79.6 -50.5 Q-79.6 -51.65 -76.7 -53.5 -73.3 -55.65 -72.25 -57.65 -71.3 -64.6 -66.3 -64.6 -64.15 -63.0 -63.15 -63.0 -60.35 -63.0 -57.9 -64.7 -55.55 -66.3 -55.55 -68.05 -55.3 -68.75 -55.6 -70.85 -55.6 -72.85 -53.9 -73.85 -55.3 -74.85 -56.25 -80.35 -56.25 -81.45 -54.0 -82.8 -51.7 -84.2 -49.55 -84.2 -47.55 -84.2 -44.6 -82.8 -41.7 -81.45 -38.45 -81.45 -35.25 -81.45 -33.65 -83.3 -32.1 -85.15 -31.4 -85.15 L-16.8 -79.65 -14.7 -79.7 Q-14.3 -81.65 -10.05 -83.75 -6.25 -85.65 -4.2 -85.65 -3.35 -85.65 -1.8 -84.25 L0.2 -82.5 Q2.3 -81.35 2.1 -80.75 1.4 -80.05 1.4 -79.35 1.4 -78.9 3.0 -77.3 4.55 -75.7 4.55 -75.1 M9.3 -1.75 Q12.8 -1.75 13.95 -3.7 15.4 -6.25 17.4 -7.0 20.55 -8.2 22.2 -8.95 L26.3 -9.9 26.6 -10.4 Q26.6 -11.3 22.9 -16.85 22.9 -17.7 24.4 -18.6 26.05 -19.6 28.2 -19.6 L30.1 -19.3 Q30.3 -19.3 30.3 -18.45 30.3 -17.6 29.35 -17.4 L25.75 -16.5 Q28.5 -11.7 28.5 -10.5 28.5 -7.55 24.15 -7.55 22.65 -7.55 17.1 -3.65 11.6 0.25 10.75 0.25 6.6 0.25 5.5 -1.05 4.6 0.95 3.35 2.25 L4.65 3.7 1.85 5.8 1.75 6.1 Q11.9 6.8 11.9 10.7 11.9 14.25 8.3 18.05 L10.05 19.45 Q8.1 22.5 3.65 24.8 6.8 29.8 12.5 29.8 17.95 29.8 26.05 22.7 25.35 20.45 25.35 19.6 25.35 17.95 26.35 17.05 28.2 15.4 29.4 13.4 30.35 11.85 37.3 9.9 38.7 9.9 42.15 13.7 45.6 17.5 47.25 17.5 56.35 17.5 56.35 12.25 L57.2 6.1 55.65 -0.4 Q55.65 -1.65 57.55 -3.9 57.55 -4.65 56.4 -8.0 L56.75 -10.85 Q56.75 -11.35 57.6 -12.1 58.55 -13.0 58.85 -14.0 57.85 -15.1 56.75 -18.5 55.7 -21.65 55.7 -22.9 55.7 -23.8 56.5 -25.9 56.5 -27.3 55.15 -29.65 53.8 -32.05 53.8 -32.5 53.8 -33.75 55.05 -35.5 56.4 -37.45 57.9 -37.45 60.6 -37.45 62.9 -36.4 L63.15 -35.9 Q62.5 -35.55 61.25 -35.55 56.5 -35.55 56.5 -32.65 59.3 -28.0 59.3 -26.0 58.6 -24.5 58.6 -23.65 58.6 -22.7 60.4 -18.15 L62.2 -13.7 59.3 -6.9 Q60.2 -4.75 60.2 -3.85 60.2 -2.7 58.45 -0.35 L59.9 6.55 Q59.9 9.45 59.5 14.1 59.5 15.85 55.05 18.05 50.75 20.15 47.95 20.15 45.95 20.15 42.45 16.05 38.95 11.9 37.45 11.9 34.65 11.9 31.0 15.15 27.65 18.15 27.65 19.45 27.65 20.3 28.4 22.65 L28.4 22.75 29.6 22.6 30.8 23.7 Q30.8 24.65 27.5 26.5 L23.0 28.85 Q21.45 29.85 20.6 31.65 19.1 32.95 12.65 32.95 5.45 32.95 2.1 27.8 L0.1 24.2 Q-0.8 22.6 -1.75 22.6 -5.4 22.6 -6.85 24.6 -7.8 25.9 -8.15 28.95 -8.45 32.3 -8.95 33.25 -9.85 35.25 -12.6 35.25 -14.7 35.25 -22.25 29.4 -22.25 28.1 -20.7 28.1 -18.45 28.1 -16.05 29.95 L-14.1 31.75 Q-12.3 31.75 -11.7 29.85 L-10.85 25.6 Q-9.4 19.45 -1.55 19.45 0.1 19.45 1.35 21.05 L2.9 23.5 Q6.65 20.6 7.6 19.5 6.85 18.55 6.85 17.8 6.85 17.35 8.65 15.25 10.4 13.15 10.4 11.6 10.4 9.2 4.15 8.75 -2.15 8.25 -2.15 6.6 -2.15 5.7 -0.65 5.35 L2.9 4.2 2.0 3.35 0.1 4.25 Q0.0 4.7 0.0 3.85 0.0 3.5 0.65 2.6 L-1.1 1.8 Q-6.9 1.8 -12.6 9.0 -15.65 12.85 -16.85 13.95 -19.4 16.2 -22.1 16.2 -23.6 16.2 -23.8 15.65 -24.0 15.05 -24.8 15.05 L-26.05 15.25 -26.0 16.1 Q-26.0 18.1 -27.55 18.1 -28.5 18.1 -28.75 15.35 -28.75 14.45 -27.7 13.5 -26.45 12.35 -24.75 12.35 L-21.95 13.4 Q-19.8 13.4 -17.5 11.25 L-13.4 6.55 Q-7.7 -0.35 -2.45 -0.35 -0.15 -0.35 1.8 0.95 L2.45 0.1 Q4.85 -3.0 5.3 -3.0 6.2 -3.0 7.35 -2.35 8.5 -1.75 9.3 -1.75" fill="#ffffff" fill-rule="evenodd" stroke="none"/>
  </g>
</svg>
