<?xml version="1.0" encoding="UTF-8" standalone="no"?>
<svg xmlns:xlink="http://www.w3.org/1999/xlink" height="57.5px" width="57.5px" xmlns="http://www.w3.org/2000/svg">
  <g transform="matrix(1.0, 0.0, 0.0, 1.0, -4.0, 68.0)">
    <path d="M32.75 -68.0 Q44.65 -68.0 53.05 -59.6 61.5 -51.2 61.5 -39.25 61.5 -27.35 53.05 -18.9 44.65 -10.5 32.75 -10.5 20.8 -10.5 12.45 -18.9 4.0 -27.35 4.0 -39.25 4.0 -51.2 12.45 -59.6 20.8 -68.0 32.75 -68.0 M33.5 -46.7 Q30.35 -46.7 28.1 -44.5 25.9 -42.25 25.9 -39.1 25.9 -35.95 28.1 -33.7 30.35 -31.5 33.5 -31.5 36.65 -31.5 38.9 -33.7 41.1 -35.95 41.1 -39.1 41.1 -42.25 38.9 -44.5 36.65 -46.7 33.5 -46.7" fill="url(#gradient0)" fill-rule="evenodd" stroke="none"/>
    <path d="M33.5 -46.7 Q36.65 -46.7 38.9 -44.5 41.1 -42.25 41.1 -39.1 41.1 -35.95 38.9 -33.7 36.65 -31.5 33.5 -31.5 30.35 -31.5 28.1 -33.7 25.9 -35.95 25.9 -39.1 25.9 -42.25 28.1 -44.5 30.35 -46.7 33.5 -46.7 M30.75 -39.1 Q30.45 -38.95 30.45 -38.65 L30.75 -38.6 29.25 -38.5 Q29.25 -38.15 30.65 -38.0 L32.3 -38.05 Q32.15 -38.4 31.25 -38.6 L32.3 -38.65 30.75 -39.1 M31.95 -42.75 L31.4 -40.95 Q31.4 -40.0 31.7 -39.55 33.65 -39.55 35.65 -40.3 35.65 -39.4 35.95 -38.5 L32.35 -37.4 30.75 -35.75 Q30.95 -35.5 32.1 -35.25 L33.2 -35.15 34.15 -36.25 Q35.0 -36.9 38.7 -37.6 L37.6 -37.85 Q36.7 -38.05 36.7 -38.95 L37.0 -41.05 Q37.2 -42.25 36.85 -43.05 35.95 -41.95 32.6 -41.1 33.0 -42.0 33.35 -45.2 32.7 -44.65 31.95 -42.75" fill="url(#gradient1)" fill-rule="evenodd" stroke="none"/>
    <path d="M31.95 -42.75 Q32.7 -44.65 33.35 -45.2 33.0 -42.0 32.6 -41.1 35.95 -41.95 36.85 -43.05 37.2 -42.25 37.0 -41.05 L36.7 -38.95 Q36.7 -38.05 37.6 -37.85 L38.7 -37.6 Q35.0 -36.9 34.15 -36.25 L33.2 -35.15 32.1 -35.25 Q30.95 -35.5 30.75 -35.75 L32.35 -37.4 35.95 -38.5 Q35.65 -39.4 35.65 -40.3 33.65 -39.55 31.7 -39.55 31.4 -40.0 31.4 -40.95 L31.95 -42.75 M30.75 -39.1 L32.3 -38.65 31.25 -38.6 Q32.15 -38.4 32.3 -38.05 L30.65 -38.0 Q29.25 -38.15 29.25 -38.5 L30.75 -38.6 30.45 -38.65 Q30.45 -38.95 30.75 -39.1" fill="#ffffff" fill-rule="evenodd" stroke="none"/>
    <path d="M33.5 -46.7 Q36.65 -46.7 38.9 -44.5 41.1 -42.25 41.1 -39.1 41.1 -35.95 38.9 -33.7 36.65 -31.5 33.5 -31.5 30.35 -31.5 28.1 -33.7 25.9 -35.95 25.9 -39.1 25.9 -42.25 28.1 -44.5 30.35 -46.7 33.5 -46.7 Z" fill="none" stroke="#ffffff" stroke-linecap="round" stroke-linejoin="round" stroke-opacity="0.76862746" stroke-width="1.0"/>
  </g>
  <defs>
    <radialGradient cx="0" cy="0" gradientTransform="matrix(0.0277, 0.0, 0.0, 0.0277, 32.7, -39.3)" gradientUnits="userSpaceOnUse" id="gradient0" r="819.2" spreadMethod="pad">
      <stop offset="0.1568627450980392" stop-color="#ffffff"/>
      <stop offset="0.5254901960784314" stop-color="#ffffff" stop-opacity="0.5411765"/>
      <stop offset="0.7843137254901961" stop-color="#ffffff" stop-opacity="0.23137255"/>
      <stop offset="0.9882352941176471" stop-color="#ffffff" stop-opacity="0.0"/>
    </radialGradient>
    <radialGradient cx="0" cy="0" gradientTransform="matrix(0.0277, 0.0, 0.0, 0.0277, 32.7, -39.3)" gradientUnits="userSpaceOnUse" id="gradient1" r="819.2" spreadMethod="pad">
      <stop offset="0.1568627450980392" stop-color="#ffffff"/>
      <stop offset="0.4" stop-color="#ffffff" stop-opacity="0.5411765"/>
      <stop offset="0.6196078431372549" stop-color="#ffffff" stop-opacity="0.23137255"/>
      <stop offset="0.9882352941176471" stop-color="#ffffff" stop-opacity="0.0"/>
    </radialGradient>
  </defs>
</svg>
