<?xml version="1.0" encoding="UTF-8" standalone="no"?>
<svg xmlns:xlink="http://www.w3.org/1999/xlink" height="94.5px" width="94.5px" xmlns="http://www.w3.org/2000/svg">
  <g transform="matrix(1.0, 0.0, 0.0, 1.0, 15.0, 87.0)">
    <path d="M26.5 -38.5 Q26.5 -37.95 28.8 -37.65 L31.5 -37.75 Q31.3 -38.35 29.75 -38.65 L31.5 -38.75 Q31.25 -39.25 29.0 -39.5 28.5 -39.25 28.5 -38.75 L29.0 -38.7 26.5 -38.5 M32.0 -42.75 Q32.65 -44.25 33.25 -49.5 32.15 -48.6 30.95 -45.5 30.0 -42.95 30.0 -42.5 30.0 -41.0 30.5 -40.25 33.75 -40.25 37.0 -41.5 37.0 -40.0 37.5 -38.5 32.3 -37.2 31.6 -36.7 30.9 -35.6 29.0 -34.0 29.3 -33.55 31.2 -33.2 L33.0 -33.0 Q33.95 -33.6 34.55 -34.8 35.95 -35.9 42.0 -37.0 L40.2 -37.45 Q38.75 -37.75 38.75 -39.25 L39.25 -42.7 Q39.6 -44.7 39.0 -46.0 37.55 -44.15 32.0 -42.75 M24.65 -48.35 Q28.3 -52.0 33.5 -52.0 38.7 -52.0 42.35 -48.35 46.0 -44.7 46.0 -39.5 46.0 -34.3 42.35 -30.65 38.7 -27.0 33.5 -27.0 28.3 -27.0 24.65 -30.65 21.0 -34.3 21.0 -39.5 21.0 -44.7 24.65 -48.35" fill="url(#gradient0)" fill-rule="evenodd" stroke="none"/>
    <path d="M32.0 -42.75 Q37.55 -44.15 39.0 -46.0 39.6 -44.7 39.25 -42.7 L38.75 -39.25 Q38.75 -37.75 40.2 -37.45 L42.0 -37.0 Q35.95 -35.9 34.55 -34.8 33.95 -33.6 33.0 -33.0 L31.2 -33.2 Q29.3 -33.55 29.0 -34.0 30.9 -35.6 31.6 -36.7 32.3 -37.2 37.5 -38.5 37.0 -40.0 37.0 -41.5 33.75 -40.25 30.5 -40.25 30.0 -41.0 30.0 -42.5 30.0 -42.95 30.95 -45.5 32.15 -48.6 33.25 -49.5 32.65 -44.25 32.0 -42.75 M26.5 -38.5 L29.0 -38.7 28.5 -38.75 Q28.5 -39.25 29.0 -39.5 31.25 -39.25 31.5 -38.75 L29.75 -38.65 Q31.3 -38.35 31.5 -37.75 L28.8 -37.65 Q26.5 -37.95 26.5 -38.5" fill="#ffffff" fill-rule="evenodd" stroke="none"/>
    <path d="M24.65 -48.35 Q21.0 -44.7 21.0 -39.5 21.0 -34.3 24.65 -30.65 28.3 -27.0 33.5 -27.0 38.7 -27.0 42.35 -30.65 46.0 -34.3 46.0 -39.5 46.0 -44.7 42.35 -48.35 38.7 -52.0 33.5 -52.0 28.3 -52.0 24.65 -48.35 M65.65 -6.3 Q51.85 7.5 32.25 7.5 12.65 7.5 -1.15 -6.3 -15.0 -20.15 -15.0 -39.75 -15.0 -59.35 -1.15 -73.15 12.65 -87.0 32.25 -87.0 51.85 -87.0 65.65 -73.15 79.5 -59.35 79.5 -39.75 79.5 -20.15 65.65 -6.3" fill="url(#gradient1)" fill-rule="evenodd" stroke="none"/>
    <path d="M24.65 -48.35 Q28.3 -52.0 33.5 -52.0 38.7 -52.0 42.35 -48.35 46.0 -44.7 46.0 -39.5 46.0 -34.3 42.35 -30.65 38.7 -27.0 33.5 -27.0 28.3 -27.0 24.65 -30.65 21.0 -34.3 21.0 -39.5 21.0 -44.7 24.65 -48.35 Z" fill="none" stroke="#ffffff" stroke-linecap="round" stroke-linejoin="round" stroke-opacity="0.76862746" stroke-width="1.0"/>
  </g>
  <defs>
    <radialGradient cx="0" cy="0" gradientTransform="matrix(0.0456, 0.0, 0.0, 0.0456, 32.15, -39.85)" gradientUnits="userSpaceOnUse" id="gradient0" r="819.2" spreadMethod="pad">
      <stop offset="0.1568627450980392" stop-color="#ffffff"/>
      <stop offset="0.4" stop-color="#ffffff" stop-opacity="0.5411765"/>
      <stop offset="0.6196078431372549" stop-color="#ffffff" stop-opacity="0.23137255"/>
      <stop offset="0.9882352941176471" stop-color="#ffffff" stop-opacity="0.0"/>
    </radialGradient>
    <radialGradient cx="0" cy="0" gradientTransform="matrix(0.0456, 0.0, 0.0, 0.0456, 32.15, -39.85)" gradientUnits="userSpaceOnUse" id="gradient1" r="819.2" spreadMethod="pad">
      <stop offset="0.1568627450980392" stop-color="#ffffff"/>
      <stop offset="0.5254901960784314" stop-color="#ffffff" stop-opacity="0.5411765"/>
      <stop offset="0.7843137254901961" stop-color="#ffffff" stop-opacity="0.23137255"/>
      <stop offset="0.9882352941176471" stop-color="#ffffff" stop-opacity="0.0"/>
    </radialGradient>
  </defs>
</svg>
