<?xml version="1.0" encoding="UTF-8" standalone="no"?>
<svg xmlns:xlink="http://www.w3.org/1999/xlink" height="253.75px" width="173.95px" xmlns="http://www.w3.org/2000/svg">
  <g transform="matrix(1.0, 0.0, 0.0, 1.0, 69.15, 139.3)">
    <path d="M61.15 -80.35 L59.0 -79.75 53.85 -84.1 38.55 -97.75 Q42.3 -99.75 43.45 -102.65 L43.45 -102.7 44.2 -104.1 43.6 -103.05 43.65 -103.45 45.3 -107.6 Q54.5 -83.15 63.7 -81.55 L61.15 -80.35 M15.8 -109.45 L15.8 -109.1 11.2 -106.1 Q1.45 -99.2 4.4 -94.4 3.3 -96.05 2.95 -97.55 2.85 -95.65 4.5 -93.9 -5.05 -91.5 -2.8 -101.5 -0.35 -112.3 15.65 -109.4 L15.8 -109.45 M78.15 -84.8 L83.7 -83.55 Q69.7 -76.55 69.15 -74.3 69.15 -74.5 68.25 -74.9 65.05 -77.5 60.55 -79.35 L78.15 -84.8 M-7.5 -68.9 L-1.2 -80.45 -0.85 -80.95 -6.3 -68.75 -7.5 -68.9 M11.95 -66.15 Q18.3 -67.95 23.05 -72.6 L24.85 -74.25 26.45 -75.55 20.7 -67.95 11.95 -66.15 M20.7 -45.8 L29.15 -47.2 36.1 -53.2 36.1 -53.15 30.2 -45.6 20.7 -45.8 M29.65 -27.0 Q31.2 -27.0 31.2 -26.3 31.2 -25.4 29.65 -25.65 27.9 -25.65 27.95 -26.3 27.9 -27.0 29.65 -27.0 M78.75 29.4 Q74.35 34.45 69.3 38.0 L69.15 37.75 69.1 37.65 Q62.1 21.9 47.75 13.2 45.85 12.05 43.8 11.2 63.2 13.2 77.2 27.0 L78.75 28.45 78.75 29.4 M33.8 -31.1 L34.05 -31.1 33.8 -31.15 Q39.4 -32.3 42.5 -28.3 43.35 -27.3 42.9 -26.0 40.4 -19.1 43.45 -12.65 L45.25 -9.6 Q46.8 -7.35 45.3 -5.55 43.45 -3.4 40.5 -3.6 L40.35 -3.4 Q41.05 -4.45 41.15 -5.6 L41.1 -12.65 Q40.7 -18.85 39.35 -25.05 L38.65 -27.0 37.9 -28.55 Q36.65 -30.85 33.8 -31.1 M31.1 -29.45 Q29.5 -29.7 29.75 -30.35 29.75 -31.05 31.3 -30.85 32.9 -30.6 32.65 -29.9 32.65 -29.25 31.1 -29.45 M-20.85 -39.9 L-18.95 -38.9 Q-29.7 -35.55 -37.25 -27.4 -38.15 -26.5 -38.4 -25.05 -39.0 -21.45 -40.25 -18.4 -42.75 -20.65 -44.55 -23.4 L-44.9 -23.15 -44.65 -26.35 -44.3 -27.35 Q-36.0 -39.75 -20.85 -39.9 M28.5 -21.0 Q26.55 -20.8 26.55 -21.65 26.35 -22.5 28.4 -22.7 30.3 -22.95 30.3 -22.0 30.5 -21.25 28.5 -21.0 M28.4 -15.45 Q30.3 -16.05 30.65 -15.15 30.85 -14.15 29.15 -13.45 27.25 -12.75 26.9 -13.75 26.45 -14.8 28.4 -15.45 M32.15 -6.75 Q33.25 -10.25 36.4 -8.7 35.85 -5.55 32.45 -6.3 32.0 -6.35 32.15 -6.75 M66.7 8.5 Q63.6 7.45 64.3 4.75 68.15 4.55 67.45 8.1 67.35 8.7 66.7 8.5 M75.25 15.85 Q75.3 15.3 75.95 15.55 78.8 16.6 78.4 19.2 74.5 19.75 75.25 15.85 M40.95 46.8 Q55.85 49.7 68.25 40.85 L68.45 41.3 68.55 41.1 Q74.55 54.2 84.5 64.25 79.25 71.1 71.6 75.05 56.25 82.9 41.9 74.3 45.75 60.9 41.65 47.65 L41.25 47.45 41.6 47.5 40.95 46.8 M-65.3 -98.35 L-64.8 -102.6 Q-61.85 -118.95 -47.75 -128.05 -44.5 -129.4 -43.55 -126.75 -43.4 -126.3 -43.6 -125.7 -45.65 -120.6 -50.9 -118.95 -62.2 -101.35 -60.45 -80.4 -64.4 -88.95 -65.3 -98.35 M-25.5 -136.25 Q-20.95 -139.8 -17.1 -136.0 -16.3 -135.25 -16.35 -134.3 -17.1 -125.75 -21.35 -118.05 L-24.6 -107.6 -26.35 -100.6 -21.25 -130.65 Q-20.65 -134.2 -23.25 -136.4 L-25.5 -136.25 M-26.85 -96.2 L-26.85 -95.85 -26.95 -95.3 -26.85 -96.2 M-8.35 -69.45 L-7.3 -71.05 -7.25 -71.1 -8.2 -69.45 -8.35 -69.45 M-41.3 -54.1 Q-39.4 -52.3 -32.7 -57.15 L-25.4 -65.1 Q-29.25 -57.05 -37.4 -53.15 L-38.2 -52.8 -40.45 -52.3 -40.3 -52.1 -40.35 -52.05 -40.45 -52.3 -41.3 -53.85 -41.3 -53.9 -41.3 -54.1 M-27.55 -50.15 L-22.65 -53.3 -22.4 -52.45 -22.3 -51.95 -27.55 -50.15 M-18.4 -42.75 L-18.35 -42.8 -16.9 -45.05 -16.25 -44.7 -18.8 -41.9 -18.4 -42.75 M-41.4 16.45 Q-53.8 19.75 -57.55 30.6 -57.15 29.75 -57.25 31.75 L-61.5 31.75 Q-63.2 31.5 -64.65 29.45 -60.25 20.75 -43.65 15.25 L-41.4 16.45" fill="#f2f5d3" fill-rule="evenodd" stroke="none"/>
    <path d="M0.45 -114.05 Q6.1 -116.6 14.95 -114.05 34.9 -123.1 48.6 -116.4 59.05 -111.35 68.1 -102.05 77.25 -92.6 77.85 -85.8 L78.05 -85.65 61.15 -80.35 63.7 -81.55 Q54.5 -83.15 45.3 -107.6 L43.65 -103.45 42.15 -101.9 Q41.05 -100.8 39.75 -100.4 L12.1 -92.25 17.2 -93.35 Q6.2 -79.8 -11.25 -81.15 -10.6 -89.05 -8.1 -96.55 L-6.85 -92.95 -7.0 -93.85 Q-9.6 -106.6 0.45 -114.05 M59.0 -79.75 L58.75 -79.9 Q56.15 -81.85 53.85 -84.1 L59.0 -79.75 M43.45 -102.7 L43.6 -103.05 44.2 -104.1 43.45 -102.7 M15.8 -109.45 L15.65 -109.4 Q-0.35 -112.3 -2.8 -101.5 -5.05 -91.5 4.5 -93.9 2.85 -95.65 2.95 -97.55 3.3 -96.05 4.4 -94.4 1.45 -99.2 11.2 -106.1 L15.8 -109.1 15.8 -109.45 M68.25 -74.9 Q69.15 -74.5 69.15 -74.3 69.7 -76.55 83.7 -83.55 L78.15 -84.8 83.6 -86.5 84.6 -86.6 Q111.2 -70.5 76.15 -60.75 L75.95 -59.85 75.9 -59.95 Q75.3 -69.2 68.25 -74.9 M55.65 -77.0 L55.95 -77.35 Q61.55 -80.05 66.65 -75.0 69.55 -72.2 71.65 -68.7 77.0 -59.7 73.75 -49.55 71.35 -51.15 69.6 -53.5 71.65 -64.95 61.1 -69.25 L57.6 -70.1 Q55.35 -72.85 55.55 -76.3 L55.65 -77.0 M43.6 -52.3 L31.75 -43.25 Q23.6 -41.85 15.3 -41.25 L13.4 -41.55 Q5.3 -45.85 -1.0 -52.5 0.25 -55.85 -0.9 -59.25 -2.25 -63.0 -5.9 -64.4 -13.1 -67.25 -17.5 -60.9 -19.8 -57.65 -18.65 -53.75 -16.3 -45.6 -7.65 -46.75 L4.4 -38.3 Q10.1 -34.5 6.8 -28.9 L4.0 -30.5 Q0.0 -39.0 -8.4 -43.6 -9.45 -42.9 -10.9 -43.2 -21.6 -45.45 -22.3 -56.45 -17.55 -61.35 -13.25 -68.1 -10.15 -69.0 -7.65 -68.65 L-7.5 -68.9 -6.3 -68.75 -0.85 -80.95 -1.2 -80.45 -0.85 -81.05 2.85 -82.1 Q1.6 -75.3 -4.15 -67.65 -1.1 -66.3 1.85 -62.1 L11.95 -66.15 20.7 -67.95 26.45 -75.55 24.85 -74.25 26.65 -76.0 Q26.85 -75.9 27.15 -75.75 28.35 -75.1 28.95 -73.95 L21.25 -66.4 13.2 -62.9 Q9.85 -61.5 6.45 -60.45 1.9 -59.1 3.1 -53.75 L8.4 -48.65 Q13.95 -43.25 20.7 -45.8 L30.2 -45.6 36.1 -53.15 40.2 -56.7 Q43.1 -56.9 43.6 -52.3 M20.2 -93.55 L19.25 -94.05 Q25.85 -96.35 31.25 -92.1 L28.8 -92.7 Q23.5 -93.95 20.2 -93.55 M39.65 -57.45 Q33.15 -49.65 23.7 -47.15 19.1 -45.95 14.25 -45.85 9.8 -49.9 6.8 -55.15 L5.95 -56.7 6.1 -57.3 Q19.35 -63.05 30.65 -71.7 L39.65 -57.45 M25.25 -75.95 L19.55 -71.1 Q12.8 -66.1 4.45 -64.1 0.1 -66.8 1.5 -69.45 5.35 -77.75 6.15 -83.4 L8.05 -84.1 Q10.1 -84.95 11.3 -85.75 23.45 -79.65 25.25 -75.95 M18.35 -93.15 L18.45 -93.25 18.55 -93.2 18.35 -93.15 M34.0 -40.45 L34.15 -40.3 Q33.9 -39.65 44.6 -49.95 L46.9 -44.6 44.45 -42.4 44.4 -42.45 44.45 -42.35 37.05 -35.55 34.0 -40.45 M22.05 -40.2 Q24.05 -41.2 25.65 -41.45 L19.25 -37.6 18.8 -38.4 22.05 -40.2 M26.9 -41.45 L27.25 -40.85 Q22.3 -37.35 16.9 -35.0 L16.55 -34.9 16.9 -35.3 26.9 -41.45 M27.4 -28.2 L26.55 -27.9 27.45 -29.5 27.4 -28.2 M27.75 -29.9 Q30.15 -32.55 34.4 -30.05 L34.35 -29.7 Q34.2 -28.0 32.7 -27.5 31.95 -28.0 30.85 -28.25 L28.25 -28.4 Q27.7 -29.1 27.75 -29.9 M34.65 -29.65 Q35.55 -27.85 34.2 -26.45 L33.9 -26.2 33.65 -26.6 Q34.6 -27.25 34.7 -28.55 L34.5 -29.85 34.65 -29.65 M27.05 -23.75 Q26.0 -24.45 26.25 -25.65 L26.25 -25.8 Q25.4 -24.7 26.05 -23.45 L25.65 -23.25 Q24.25 -27.8 29.65 -27.35 34.65 -27.1 32.65 -22.8 L32.55 -22.95 Q33.3 -24.0 32.8 -25.25 L32.65 -25.55 Q32.7 -24.3 31.75 -23.55 L29.4 -24.05 27.05 -23.75 M29.65 -27.0 Q27.9 -27.0 27.95 -26.3 27.9 -25.65 29.65 -25.65 31.2 -25.4 31.2 -26.3 31.2 -27.0 29.65 -27.0 M37.35 -34.35 Q37.35 -34.1 37.5 -34.1 L38.1 -34.2 Q48.05 -31.65 52.7 -22.85 53.65 -21.0 53.85 -18.9 54.15 -15.6 53.6 -12.65 52.45 -6.6 47.6 -2.15 50.85 -2.4 54.1 -2.05 L55.2 -1.9 Q59.65 -1.45 61.9 2.25 L57.95 3.55 Q56.0 4.2 54.8 5.65 55.1 7.75 56.85 9.15 L78.65 25.5 80.2 27.65 78.75 29.4 78.75 28.45 77.2 27.0 Q63.2 13.2 43.8 11.2 45.85 12.05 47.75 13.2 62.1 21.9 69.1 37.65 51.85 45.0 40.35 42.0 L36.25 40.65 Q16.4 31.3 16.7 18.4 18.45 19.6 19.9 20.1 21.95 20.9 28.75 14.9 35.6 8.7 39.45 9.5 L51.3 11.65 Q49.85 9.7 45.75 8.0 L45.3 7.85 45.25 7.8 45.2 7.8 Q42.85 6.5 40.2 5.95 37.8 5.4 35.5 6.3 L18.35 15.0 8.2 9.35 Q6.8 8.55 6.45 7.05 4.15 -2.65 4.7 -12.65 L4.8 -13.75 10.25 -21.6 Q20.3 -35.3 37.35 -34.35 M69.3 38.0 L65.55 40.4 69.15 37.75 69.3 38.0 M40.35 -3.4 L40.5 -3.6 Q43.45 -3.4 45.3 -5.55 46.8 -7.35 45.25 -9.6 L43.45 -12.65 Q40.4 -19.1 42.9 -26.0 43.35 -27.3 42.5 -28.3 39.4 -32.3 33.8 -31.15 L34.05 -31.1 33.8 -31.1 Q26.85 -33.6 24.25 -26.3 21.85 -19.55 22.65 -12.65 22.95 -9.85 23.8 -7.05 25.1 -2.55 29.65 -1.15 35.35 0.6 40.15 -3.2 L40.35 -3.4 M31.1 -29.45 Q32.65 -29.25 32.65 -29.9 32.9 -30.6 31.3 -30.85 29.75 -31.05 29.75 -30.35 29.5 -29.7 31.1 -29.45 M31.4 -26.05 L32.05 -26.1 31.75 -26.2 31.4 -26.05 M-20.85 -39.9 Q-4.75 -35.7 9.25 -26.55 10.75 -25.6 12.55 -25.15 L7.35 -18.85 8.05 -20.45 Q1.4 -15.95 -6.55 -18.4 -16.3 -21.4 -26.1 -24.0 -27.75 -24.45 -29.25 -23.75 -36.1 -20.45 -34.25 -12.65 L-34.05 -11.85 -33.45 -12.65 -33.4 -12.7 Q-32.7 -13.6 -31.7 -14.0 -29.55 -13.7 -27.4 -12.65 L-23.85 -10.55 -25.6 -10.95 Q-15.45 -5.05 -10.0 12.05 -24.7 17.65 -40.15 15.55 -41.5 15.45 -42.75 14.8 L-38.7 1.6 Q-37.1 -0.8 -37.65 -3.75 -35.65 -7.75 -32.4 -6.4 L-34.55 -7.55 -34.25 -7.65 -31.1 -5.65 Q-35.4 -10.25 -41.15 -12.65 L-44.2 -13.75 -44.65 -14.1 Q-45.85 -18.35 -44.9 -23.15 L-44.55 -23.4 Q-42.75 -20.65 -40.25 -18.4 -39.0 -21.45 -38.4 -25.05 -38.15 -26.5 -37.25 -27.4 -29.7 -35.55 -18.95 -38.9 L-20.85 -39.9 M12.35 -40.5 L8.3 -35.35 Q1.45 -42.0 -6.5 -47.2 L-5.8 -47.5 Q-2.95 -48.8 -1.3 -51.6 5.1 -45.6 12.35 -40.5 M-15.6 -7.0 L-19.6 -10.7 Q-21.05 -11.75 -22.45 -12.35 L-22.35 -12.9 -22.0 -12.65 Q-18.5 -10.4 -14.15 -5.95 L-15.6 -7.0 M31.3 -17.9 Q33.45 -19.35 32.15 -21.7 L31.95 -22.0 Q34.45 -19.35 31.3 -17.9 M31.9 -22.0 Q31.35 -16.85 25.75 -19.15 24.45 -19.7 24.55 -21.15 27.6 -24.95 31.75 -22.2 L31.9 -22.0 M24.2 -19.6 Q24.4 -17.05 28.3 -17.15 L27.15 -16.7 Q24.25 -17.05 24.2 -19.6 M33.65 -15.95 L33.0 -16.35 Q33.4 -14.0 32.4 -12.65 31.1 -10.95 27.5 -10.9 26.15 -11.25 25.7 -12.5 L25.7 -12.65 Q26.8 -17.75 32.8 -16.85 L33.65 -15.95 M25.65 -12.5 Q25.85 -10.65 26.9 -9.95 25.4 -10.2 25.55 -11.75 L25.65 -12.5 M28.8 -9.55 Q29.65 -9.6 30.7 -10.0 33.35 -10.95 34.05 -12.65 34.55 -13.9 34.05 -15.5 L34.75 -14.75 34.15 -12.65 Q32.65 -9.15 28.8 -9.55 M28.5 -21.0 Q30.5 -21.25 30.3 -22.0 30.3 -22.95 28.4 -22.7 26.35 -22.5 26.55 -21.65 26.55 -20.8 28.5 -21.0 M24.3 -22.25 Q24.55 -23.25 24.75 -23.35 L25.0 -22.8 24.3 -22.25 M28.4 -15.45 Q26.45 -14.8 26.9 -13.75 27.25 -12.75 29.15 -13.45 30.85 -14.15 30.65 -15.15 30.3 -16.05 28.4 -15.45 M32.15 -6.75 Q32.0 -6.35 32.45 -6.3 35.85 -5.55 36.4 -8.7 33.25 -10.25 32.15 -6.75 M30.55 -5.65 Q31.6 -0.55 37.35 -3.45 42.45 -6.1 39.1 -9.7 39.15 -3.6 32.65 -4.1 31.05 -4.15 30.55 -5.65 M40.2 -5.5 Q37.05 -0.35 31.6 -2.65 30.05 -3.25 30.35 -4.85 31.4 -11.5 38.5 -10.6 42.35 -9.2 40.2 -5.5 M49.2 -45.45 L49.7 -45.95 Q51.55 -41.1 55.2 -37.2 L56.8 -34.6 Q57.1 -33.6 56.95 -32.55 L56.9 -32.1 49.2 -45.45 M64.7 112.3 L57.65 112.8 59.2 82.05 Q70.75 81.3 82.55 74.65 L88.05 71.3 Q78.6 77.85 67.55 80.95 L64.7 112.3 M41.6 109.45 Q33.5 106.65 24.75 101.75 L19.7 98.7 Q20.0 93.4 22.15 69.3 L27.35 73.15 Q35.85 78.75 45.0 80.85 L43.4 80.75 Q41.75 104.85 41.6 109.45 M74.7 34.7 Q77.8 31.75 80.5 28.05 L101.0 55.55 102.2 57.45 Q99.4 61.1 96.0 64.15 85.25 73.7 71.7 78.5 56.0 84.05 40.35 78.5 30.55 75.0 22.55 68.5 L40.0 45.25 Q44.75 46.35 49.7 46.5 L50.9 46.4 50.45 47.15 Q58.35 46.5 65.1 41.65 L68.4 39.7 68.0 40.85 Q71.45 38.25 74.7 34.7 M22.45 39.2 L23.6 39.8 22.4 39.45 22.45 39.2 M66.7 8.5 Q67.35 8.7 67.45 8.1 68.15 4.55 64.3 4.75 63.6 7.45 66.7 8.5 M66.7 4.15 Q71.15 6.6 69.7 11.4 69.25 13.0 67.55 13.2 60.4 13.5 59.45 6.55 60.85 0.95 66.7 4.15 M61.6 7.8 Q60.7 6.0 61.7 4.3 57.9 7.1 61.8 10.9 66.3 15.25 69.55 10.35 64.45 13.45 61.6 7.8 M70.1 17.95 L69.15 17.3 Q70.95 13.65 74.9 14.1 78.5 14.55 79.95 18.15 81.55 22.0 78.65 24.25 L78.25 24.0 Q79.45 23.4 79.65 22.05 L79.7 21.6 Q78.25 23.2 76.15 22.45 L72.45 19.7 Q70.45 17.3 72.25 14.95 L71.75 15.1 Q69.8 15.9 70.1 17.95 M75.25 15.85 Q74.5 19.75 78.4 19.2 78.8 16.6 75.95 15.55 75.3 15.3 75.25 15.85 M40.95 46.8 L41.6 47.5 41.25 47.45 41.65 47.65 Q45.75 60.9 41.9 74.3 56.25 82.9 71.6 75.05 79.25 71.1 84.5 64.25 74.55 54.2 68.55 41.1 L68.45 41.3 68.25 40.85 Q55.85 49.7 40.95 46.8 M15.45 17.5 L15.0 18.05 15.0 17.15 15.45 17.5 M-9.8 13.1 L-9.45 14.0 -9.15 13.85 Q-8.55 14.55 -8.55 15.15 L-7.3 28.9 -11.8 27.7 -7.2 29.9 -7.2 30.15 -4.2 31.7 -3.55 32.4 -2.8 52.7 Q-38.95 58.7 -61.05 53.3 -61.7 47.75 -61.7 32.5 L-41.15 32.65 Q-37.2 29.95 -32.25 28.0 -25.7 25.85 -20.5 26.1 L-17.4 26.4 -20.7 25.65 -24.75 25.55 Q-33.9 26.5 -41.6 31.75 L-57.25 31.75 Q-57.15 29.75 -57.55 30.6 -53.8 19.75 -41.4 16.45 -26.15 19.35 -11.2 13.55 -10.55 13.25 -9.8 13.1 M2.05 40.3 L3.15 39.2 3.1 39.65 2.05 40.3 M-65.3 -98.35 Q-64.4 -88.95 -60.45 -80.4 -62.2 -101.35 -50.9 -118.95 -45.65 -120.6 -43.6 -125.7 -43.4 -126.3 -43.55 -126.75 -44.5 -129.4 -47.75 -128.05 -41.9 -130.65 -35.4 -131.6 L-34.35 -131.85 Q-40.6 -112.1 -41.95 -91.3 -42.45 -84.0 -45.55 -77.4 -50.3 -67.45 -59.9 -62.3 -66.7 -79.6 -65.3 -98.35 M-25.5 -136.25 L-23.25 -136.4 Q-20.65 -134.2 -21.25 -130.65 L-26.35 -100.6 -26.35 -100.55 -26.4 -100.35 -26.85 -96.2 -26.95 -95.3 -26.85 -95.85 -26.85 -95.6 -25.6 -100.15 -25.7 -99.6 Q-26.2 -96.65 -26.7 -95.8 -23.7 -99.9 -19.5 -111.9 L-14.45 -109.75 -14.4 -109.7 -14.15 -109.6 -13.9 -109.45 Q-7.6 -106.8 -8.25 -100.3 L-8.4 -98.9 -11.8 -84.9 -26.85 -85.0 Q-31.8 -69.55 -43.6 -58.55 -46.45 -55.95 -50.15 -55.75 -53.0 -55.6 -54.85 -57.75 L-55.7 -58.8 Q-44.4 -66.55 -38.5 -79.0 -33.65 -89.15 -35.4 -100.45 -37.95 -116.8 -33.05 -132.55 L-25.5 -136.25 M-17.6 -117.65 Q-15.3 -117.2 -13.0 -116.0 L-15.1 -113.35 -18.0 -112.7 -17.1 -111.95 -19.2 -112.75 -17.6 -117.65 M-10.65 -108.3 L-13.85 -110.4 -11.5 -115.15 Q-9.15 -113.25 -8.2 -111.85 L-10.35 -109.5 -12.25 -109.75 -10.65 -108.3 M-6.9 -107.5 L-8.75 -107.15 -7.75 -105.15 -9.45 -107.25 -7.3 -110.65 -6.4 -108.95 -6.9 -107.5 M-19.6 -84.0 L-11.8 -83.65 Q-12.75 -72.75 -19.55 -64.15 -22.35 -60.7 -25.3 -57.4 -31.0 -51.0 -39.15 -51.05 -31.55 -54.8 -26.55 -61.45 -25.4 -63.0 -25.0 -64.75 -22.85 -74.5 -19.6 -84.0 M-6.9 -80.05 L-2.1 -80.6 -7.2 -71.25 -7.3 -71.05 -8.35 -69.45 -9.3 -69.45 -12.65 -69.1 Q-9.65 -74.1 -6.9 -80.05 M-41.3 -54.1 L-41.6 -58.5 -24.35 -70.45 Q-24.25 -68.0 -25.4 -65.1 L-32.7 -57.15 Q-39.4 -52.3 -41.3 -54.1 M-38.2 -52.8 L-40.3 -52.1 -40.45 -52.3 -38.2 -52.8 M-40.35 -52.05 L-41.25 -53.8 -41.3 -53.85 -40.45 -52.3 -40.35 -52.05 M-22.9 -55.85 L-22.75 -53.95 -31.1 -48.8 -32.6 -51.25 -31.25 -49.35 Q-26.9 -51.95 -22.9 -55.85 M-22.4 -52.45 L-21.65 -50.1 Q-24.35 -47.85 -30.1 -45.55 L-31.45 -45.7 -31.7 -46.0 -32.15 -47.2 -27.55 -50.15 -22.3 -51.95 -22.4 -52.45 M-67.15 -86.85 Q-67.15 -89.75 -66.0 -92.0 L-65.65 -82.1 Q-67.15 -83.8 -67.15 -86.85 M-43.05 -58.65 L-45.7 -56.7 Q-47.15 -52.75 -44.2 -50.35 -41.6 -48.2 -38.35 -48.9 -36.1 -49.35 -33.85 -43.6 L-31.55 -38.3 -37.8 -36.35 -38.5 -40.9 Q-39.2 -45.4 -42.7 -47.6 -47.35 -50.5 -46.6 -56.1 L-43.2 -58.55 -43.05 -58.65 M-32.75 -47.2 L-32.95 -47.4 -32.65 -47.6 -32.75 -47.2 M-9.0 -42.7 L-6.5 -40.85 Q-0.55 -37.05 3.0 -31.05 L-16.35 -39.95 Q-15.5 -42.2 -13.55 -43.25 -11.3 -42.5 -9.0 -42.7 M-18.4 -42.75 L-18.8 -41.9 -16.25 -44.7 -14.5 -43.7 -17.1 -40.2 -19.5 -41.1 -18.55 -42.55 -18.4 -42.75 M-20.4 -40.75 L-24.1 -40.2 Q-24.6 -40.2 -26.5 -42.55 L-28.65 -45.4 Q-23.45 -47.9 -21.2 -49.55 -20.4 -48.0 -17.6 -45.4 L-20.4 -40.75 M-65.0 30.6 L-62.5 32.4 Q-62.75 42.65 -61.95 52.95 L-64.9 52.05 Q-68.8 41.35 -65.0 30.6" fill="#6bbd46" fill-rule="evenodd" stroke="none"/>
    <path d="M78.05 -85.65 L82.15 -86.95 Q72.3 -100.55 61.1 -113.0 55.5 -119.3 47.45 -121.65 39.5 -124.05 31.1 -123.35 14.8 -121.8 0.45 -114.05 -9.6 -106.6 -7.0 -93.85 L-6.85 -92.95 -8.1 -96.55 Q-10.6 -89.05 -11.25 -81.15 6.2 -79.8 17.2 -93.35 L12.1 -92.25 39.75 -100.4 Q41.05 -100.8 42.15 -101.9 L43.65 -103.45 43.6 -103.05 43.45 -102.7 43.45 -102.65 Q42.3 -99.75 38.55 -97.75 L53.85 -84.1 Q56.15 -81.85 58.75 -79.9 L59.0 -79.75 61.15 -80.35 78.05 -85.65 M-39.9 -4.75 L-40.25 -5.85 Q-41.1 -8.45 -42.4 -10.95 L-46.95 -13.75 -46.45 -28.65 Q-46.35 -29.75 -45.75 -30.7 -43.6 -34.35 -39.7 -36.15 L-39.85 -37.25 Q-40.3 -43.4 -44.75 -46.85 -48.3 -49.65 -48.3 -54.2 L-50.75 -53.7 -52.8 -53.65 -58.2 -58.6 -58.3 -59.85 Q-58.85 -59.7 -59.15 -60.05 -66.1 -68.45 -66.35 -79.7 -70.6 -85.05 -68.4 -91.45 -67.85 -93.05 -67.8 -94.65 -67.5 -107.2 -60.6 -117.65 -51.95 -130.8 -36.55 -134.4 -34.7 -134.85 -33.1 -135.85 -25.2 -140.75 -16.65 -138.65 -15.5 -138.4 -15.3 -137.35 -13.45 -128.2 -18.35 -119.7 -16.65 -119.55 -15.1 -118.9 -9.35 -116.6 -5.5 -111.65 2.15 -118.55 12.0 -121.4 28.65 -126.25 45.8 -124.05 47.5 -123.85 48.8 -122.95 69.65 -109.25 83.8 -88.3 L87.45 -88.05 Q92.0 -87.35 95.0 -83.85 105.0 -72.15 100.85 -57.0 L100.45 -56.65 Q99.75 -56.15 99.0 -55.9 97.65 -55.35 96.35 -55.0 L76.6 -48.3 Q72.0 -47.2 69.25 -50.9 68.3 -52.15 68.45 -53.6 69.45 -65.55 58.35 -68.55 57.25 -68.9 56.5 -69.5 50.4 -74.55 55.95 -79.7 L39.1 -94.5 37.15 -95.75 Q33.4 -97.0 29.75 -95.3 36.6 -92.0 40.75 -85.6 45.5 -78.25 48.4 -69.95 52.55 -57.85 51.85 -45.5 L56.05 -39.15 Q61.3 -31.1 54.1 -24.6 55.8 -18.55 55.0 -12.65 54.35 -8.3 52.3 -4.05 59.25 -4.2 63.7 1.15 67.4 1.3 69.7 4.1 72.65 7.65 71.85 12.3 L76.15 12.55 Q80.1 13.7 81.9 17.5 83.85 21.75 80.65 25.1 L96.4 45.1 Q98.85 48.15 100.85 51.45 105.65 59.45 104.65 69.05 103.7 78.3 101.2 87.3 96.5 104.25 79.95 110.15 64.8 116.65 48.75 113.15 32.35 109.55 18.5 100.25 12.5 96.25 8.6 92.35 5.7 89.4 5.0 87.6 4.35 85.7 4.55 79.15 L6.45 53.85 Q6.7 53.3 8.2 52.05 L20.6 39.5 19.25 38.15 20.15 38.35 19.9 38.15 Q19.0 37.25 18.35 37.35 L16.2 34.95 11.85 30.0 Q10.9 28.9 10.4 27.6 7.9 20.6 10.6 13.1 L10.65 12.9 9.95 12.45 Q3.25 9.8 2.65 2.8 L2.4 1.35 0.15 1.45 Q1.3 3.15 1.6 5.35 L1.95 7.7 3.65 21.6 Q5.65 31.35 4.35 40.95 L3.95 41.5 -1.3 44.7 -1.0 53.55 -2.0 54.55 Q-28.2 59.15 -54.55 56.8 -60.85 56.15 -66.1 53.1 -66.8 52.7 -67.05 51.9 -71.0 39.35 -65.55 27.55 -64.3 24.85 -62.1 22.95 -54.35 16.15 -44.35 13.3 L-39.75 -2.75 -39.6 -3.4 -39.9 -4.75 M68.25 -74.9 Q75.3 -69.2 75.9 -59.95 L75.95 -59.85 Q76.1 -54.7 74.8 -49.8 L99.05 -57.9 Q101.25 -66.25 99.0 -74.5 95.85 -86.05 84.6 -86.6 L83.6 -86.5 78.15 -84.8 60.55 -79.35 Q65.05 -77.5 68.25 -74.9 M55.65 -77.0 L55.55 -76.3 Q55.35 -72.85 57.6 -70.1 L61.1 -69.25 Q71.65 -64.95 69.6 -53.5 71.35 -51.15 73.75 -49.55 77.0 -59.7 71.65 -68.7 69.55 -72.2 66.65 -75.0 61.55 -80.05 55.95 -77.35 L55.65 -77.0 M43.6 -52.3 L48.7 -56.2 Q47.55 -57.8 44.65 -60.5 L40.15 -56.7 36.1 -53.2 29.15 -47.2 20.7 -45.8 Q13.95 -43.25 8.4 -48.65 L3.1 -53.75 Q1.9 -59.1 6.45 -60.45 9.85 -61.5 13.2 -62.9 L16.75 -64.35 Q20.15 -65.6 21.25 -66.4 L28.95 -73.95 36.5 -82.3 33.55 -85.25 32.95 -84.15 Q30.35 -79.65 26.65 -76.0 L24.85 -74.25 23.05 -72.6 Q18.3 -67.95 11.95 -66.15 L1.85 -62.1 Q-1.1 -66.3 -4.15 -67.65 1.6 -75.3 2.85 -82.1 L-0.85 -81.05 -1.2 -80.45 -7.5 -68.9 -7.65 -68.65 Q-10.15 -69.0 -13.25 -68.1 L-16.65 -66.85 Q-18.15 -64.35 -21.75 -60.3 L-22.3 -56.45 Q-21.6 -45.45 -10.9 -43.2 -9.45 -42.9 -8.4 -43.6 0.0 -39.0 4.0 -30.5 L6.8 -28.9 Q10.1 -34.5 4.4 -38.3 L-7.65 -46.75 Q-16.3 -45.6 -18.65 -53.75 -19.8 -57.65 -17.5 -60.9 -13.1 -67.25 -5.9 -64.4 -2.25 -63.0 -0.9 -59.25 0.25 -55.85 -1.0 -52.5 5.3 -45.85 13.4 -41.55 L15.3 -41.25 Q23.6 -41.85 31.75 -43.25 L43.6 -52.3 M20.2 -93.55 Q37.0 -88.05 42.55 -71.7 44.15 -66.8 45.0 -61.65 L49.15 -57.35 Q47.45 -72.5 38.95 -84.75 35.85 -89.2 31.25 -92.1 25.85 -96.35 19.25 -94.05 L20.2 -93.55 M49.15 -50.7 L49.7 -51.8 48.8 -55.1 47.0 -53.75 49.15 -50.7 M39.65 -57.45 L44.2 -61.4 Q42.55 -72.0 37.05 -81.3 34.85 -79.05 33.05 -76.55 26.7 -68.15 17.55 -63.7 L3.65 -57.9 Q3.7 -57.1 4.05 -56.35 7.15 -49.55 14.25 -45.85 19.1 -45.95 23.7 -47.15 33.15 -49.65 39.65 -57.45 M25.25 -75.95 Q31.0 -81.65 32.65 -85.45 30.05 -87.75 18.55 -93.2 L18.45 -93.25 18.35 -93.15 11.3 -85.75 Q10.1 -84.95 8.05 -84.1 L6.15 -83.4 3.85 -82.55 Q2.5 -75.2 -3.0 -67.85 0.15 -65.95 1.95 -63.1 L4.45 -64.1 Q12.8 -66.1 19.55 -71.1 L25.25 -75.95 M46.9 -44.6 L50.15 -47.65 46.35 -53.2 32.55 -42.8 34.0 -40.45 37.05 -35.55 44.45 -42.35 44.45 -42.4 46.9 -44.6 M22.05 -40.2 L18.8 -38.4 19.25 -37.6 25.65 -41.45 Q24.05 -41.2 22.05 -40.2 M27.7 -40.3 L16.95 -34.1 Q12.55 -31.15 11.8 -29.35 L28.4 -39.05 27.7 -40.3 M26.9 -41.45 L16.9 -35.3 16.55 -34.9 16.9 -35.0 Q22.3 -37.35 27.25 -40.85 L26.9 -41.45 M27.45 -29.5 L26.55 -27.9 27.4 -28.2 28.25 -28.4 30.85 -28.25 Q31.95 -28.0 32.7 -27.5 L33.65 -26.6 33.9 -26.2 34.2 -26.45 Q35.55 -27.85 34.65 -29.65 L34.5 -29.9 34.4 -30.05 Q30.15 -32.55 27.75 -29.9 L27.85 -30.45 27.45 -29.5 M27.05 -23.75 L29.4 -24.05 31.75 -23.55 32.55 -22.95 32.65 -22.8 Q34.65 -27.1 29.65 -27.35 24.25 -27.8 25.65 -23.25 L26.05 -23.45 27.05 -23.75 M38.1 -34.2 L37.35 -34.35 Q20.3 -35.3 10.25 -21.6 L4.8 -13.75 4.7 -12.65 Q4.15 -2.65 6.45 7.05 6.8 8.55 8.2 9.35 L18.35 15.0 35.5 6.3 Q37.8 5.4 40.2 5.95 42.85 6.5 45.2 7.8 L45.25 7.8 45.3 7.85 47.45 9.15 Q42.5 6.7 37.25 6.8 35.95 6.8 34.8 7.55 27.2 11.5 19.55 15.5 L18.35 15.9 12.7 12.9 Q9.25 20.2 12.45 27.0 14.3 30.9 17.5 33.75 30.5 45.2 47.9 45.2 57.35 45.15 65.55 40.4 L69.3 38.0 Q74.35 34.45 78.75 29.4 L80.2 27.65 78.65 25.5 56.85 9.15 Q55.1 7.75 54.8 5.65 56.0 4.2 57.95 3.55 L61.9 2.25 Q59.65 -1.45 55.2 -1.9 L54.1 -2.05 Q50.85 -2.4 47.6 -2.15 52.45 -6.6 53.6 -12.65 54.15 -15.6 53.85 -18.9 53.65 -21.0 52.7 -22.85 48.05 -31.65 38.1 -34.2 M40.35 -3.4 L40.15 -3.2 Q35.35 0.6 29.65 -1.15 25.1 -2.55 23.8 -7.05 22.95 -9.85 22.65 -12.65 21.85 -19.55 24.25 -26.3 26.85 -33.6 33.8 -31.1 36.65 -30.85 37.9 -28.55 L38.65 -27.0 Q37.7 -28.65 35.75 -29.35 36.15 -26.85 34.25 -25.4 L34.25 -24.9 Q34.25 -23.45 33.25 -22.35 34.55 -19.9 32.8 -17.75 36.6 -16.2 35.3 -12.65 L34.8 -11.65 Q37.7 -12.35 40.25 -10.95 L40.05 -12.65 Q39.55 -18.1 39.45 -23.5 L39.35 -25.05 Q40.7 -18.85 41.1 -12.65 L41.15 -5.6 Q41.05 -4.45 40.35 -3.4 M32.25 -35.55 L36.05 -35.45 31.75 -42.35 27.7 -41.75 32.25 -35.55 M28.15 -37.95 L9.85 -27.2 Q11.45 -25.65 13.25 -26.3 L16.4 -29.0 Q20.55 -32.85 28.15 -34.9 27.8 -36.35 28.15 -37.95 M13.25 -40.3 L12.1 -39.0 8.6 -34.65 8.85 -31.85 Q12.5 -35.2 16.9 -37.9 19.45 -39.55 22.15 -40.85 L13.25 -40.3 M12.35 -40.5 Q5.1 -45.6 -1.3 -51.6 -2.95 -48.8 -5.8 -47.5 L-6.5 -47.2 Q1.45 -42.0 8.3 -35.35 L12.35 -40.5 M7.35 -18.85 L12.55 -25.15 Q10.75 -25.6 9.25 -26.55 -4.75 -35.7 -20.85 -39.9 -36.0 -39.75 -44.3 -27.35 L-44.65 -26.35 -44.9 -23.15 Q-45.85 -18.35 -44.65 -14.1 L-44.2 -13.75 -41.15 -12.65 Q-35.4 -10.25 -31.1 -5.65 L-34.25 -7.65 -40.25 -11.15 -38.7 -7.45 -37.65 -3.75 Q-37.1 -0.8 -38.7 1.6 L-42.75 14.8 Q-41.5 15.45 -40.15 15.55 -24.7 17.65 -10.0 12.05 -4.4 11.0 0.15 7.7 0.25 2.4 -4.55 0.25 -6.75 -0.75 -8.75 -2.0 -17.05 -7.05 -24.95 -12.65 L-25.7 -13.2 -22.45 -12.35 Q-21.05 -11.75 -19.6 -10.7 L-15.6 -7.0 Q-12.95 -4.45 -9.75 -2.65 -3.6 0.8 3.2 -0.7 3.5 -6.75 4.5 -12.65 L4.65 -13.65 Q5.15 -16.65 7.35 -18.85 M31.95 -22.0 L31.9 -22.05 31.9 -22.0 31.75 -22.2 Q27.6 -24.95 24.55 -21.15 L24.2 -19.7 24.2 -19.65 24.2 -19.6 Q24.25 -17.05 27.15 -16.7 L28.3 -17.15 30.4 -17.95 31.3 -17.9 Q34.45 -19.35 31.95 -22.0 M34.05 -15.5 L33.65 -15.95 32.8 -16.85 Q26.8 -17.75 25.7 -12.65 L25.7 -12.5 25.65 -12.5 25.55 -11.75 Q25.4 -10.2 26.9 -9.95 27.6 -9.45 28.8 -9.55 32.65 -9.15 34.15 -12.65 L34.75 -14.75 34.05 -15.5 M24.3 -22.25 L25.0 -22.8 24.75 -23.35 Q24.55 -23.25 24.3 -22.25 M23.4 -12.65 Q23.9 -8.3 26.85 -4.7 28.15 -3.15 30.05 -2.15 28.35 -4.6 29.45 -7.5 L30.2 -8.45 Q24.3 -8.0 24.9 -12.65 L25.1 -13.55 Q25.4 -14.95 26.25 -16.15 24.9 -16.55 24.05 -17.65 L23.65 -18.3 Q23.05 -15.35 23.4 -12.65 M40.2 -5.5 Q42.35 -9.2 38.5 -10.6 31.4 -11.5 30.35 -4.85 30.05 -3.25 31.6 -2.65 37.05 -0.35 40.2 -5.5 M55.2 -37.2 Q51.55 -41.1 49.7 -45.95 L49.2 -45.45 38.0 -35.1 Q45.1 -33.55 52.2 -26.1 54.7 -27.0 56.15 -30.05 L56.9 -32.1 56.95 -32.55 Q57.1 -33.6 56.8 -34.6 L56.4 -35.8 55.2 -37.2 M64.7 112.3 Q81.2 109.7 93.45 98.6 95.2 96.95 96.2 94.55 102.2 80.0 102.45 64.25 L102.45 58.95 Q95.75 65.75 88.05 71.3 L82.55 74.65 Q70.75 81.3 59.2 82.05 L54.25 82.1 45.0 80.85 Q35.85 78.75 27.35 73.15 L22.15 69.3 Q14.5 63.2 8.2 55.9 L6.35 79.6 6.45 81.15 Q8.1 93.3 19.7 98.7 L24.75 101.75 Q33.5 106.65 41.6 109.45 L43.0 110.0 Q50.1 112.6 57.65 112.8 L64.7 112.3 M22.55 68.5 Q30.55 75.0 40.35 78.5 56.0 84.05 71.7 78.5 85.25 73.7 96.0 64.15 99.4 61.1 102.2 57.45 L101.0 55.55 80.5 28.05 Q77.8 31.75 74.7 34.7 71.75 37.5 68.4 39.7 L65.1 41.65 Q60.3 44.2 54.8 45.6 L50.9 46.4 49.7 46.5 Q44.75 46.35 40.0 45.25 30.3 43.2 23.6 39.8 L22.45 39.2 21.7 38.85 21.5 39.05 23.05 40.1 8.4 54.55 Q14.8 62.5 22.55 68.5 M66.7 4.15 Q60.85 0.95 59.45 6.55 60.4 13.5 67.55 13.2 69.25 13.0 69.7 11.4 71.15 6.6 66.7 4.15 M68.55 16.7 Q69.15 15.6 70.95 14.25 L69.8 12.9 Q68.1 15.0 64.5 13.8 L68.55 16.7 M78.25 24.0 L78.65 24.25 Q81.55 22.0 79.95 18.15 78.5 14.55 74.9 14.1 70.95 13.65 69.15 17.3 L70.1 17.95 72.45 19.7 76.15 22.45 78.25 24.0 M60.0 10.5 L59.6 9.85 Q58.05 7.05 59.55 4.2 57.35 4.5 55.65 5.75 56.6 9.15 60.0 10.5 M3.15 39.2 Q3.4 33.9 2.8 28.7 L2.8 28.35 0.15 9.05 Q-4.45 11.85 -9.8 13.1 -10.55 13.25 -11.2 13.55 -26.15 19.35 -41.4 16.45 L-43.65 15.25 Q-60.25 20.75 -64.65 29.45 -63.2 31.5 -61.5 31.75 L-57.25 31.75 -41.6 31.75 Q-33.9 26.5 -24.75 25.55 L-20.7 25.65 -17.4 26.4 -20.5 26.1 Q-25.7 25.85 -32.25 28.0 -37.2 29.95 -41.15 32.65 L-61.7 32.5 Q-61.7 47.75 -61.05 53.3 -38.95 58.7 -2.8 52.7 L-3.55 32.4 -4.2 31.7 -7.2 29.9 -11.8 27.7 -7.3 28.9 Q-5.3 30.0 -3.35 31.5 L-0.5 26.85 0.95 41.0 2.05 40.3 3.1 39.65 3.15 39.2 M-47.75 -128.05 Q-61.85 -118.95 -64.8 -102.6 L-65.3 -98.35 Q-66.7 -79.6 -59.9 -62.3 -50.3 -67.45 -45.55 -77.4 -42.45 -84.0 -41.95 -91.3 -40.6 -112.1 -34.35 -131.85 L-35.4 -131.6 Q-41.9 -130.65 -47.75 -128.05 M-26.35 -100.6 L-24.6 -107.6 -21.35 -118.05 Q-17.1 -125.75 -16.35 -134.3 -16.3 -135.25 -17.1 -136.0 -20.95 -139.8 -25.5 -136.25 L-33.05 -132.55 Q-37.95 -116.8 -35.4 -100.45 -33.65 -89.15 -38.5 -79.0 -44.4 -66.55 -55.7 -58.8 L-54.85 -57.75 Q-53.0 -55.6 -50.15 -55.75 -46.45 -55.95 -43.6 -58.55 -31.8 -69.55 -26.85 -85.0 L-11.8 -84.9 -8.4 -98.9 -8.25 -100.3 Q-7.6 -106.8 -13.9 -109.45 L-14.15 -109.6 -14.45 -109.75 -19.5 -111.9 -22.15 -112.75 -25.6 -100.15 -26.85 -95.6 -26.85 -95.85 -26.85 -96.2 -26.4 -100.35 -26.35 -100.55 -26.35 -100.6 M-17.6 -117.65 L-20.4 -118.0 -21.85 -113.8 -19.2 -112.75 -17.1 -111.95 -15.0 -111.1 -12.7 -115.85 -13.0 -116.0 Q-15.3 -117.2 -17.6 -117.65 M-36.45 -119.55 Q-38.3 -113.15 -39.05 -106.55 -39.8 -100.2 -37.2 -94.6 -35.8 -91.6 -38.15 -89.25 -41.15 -86.25 -42.4 -82.45 -46.55 -69.85 -56.3 -60.85 -45.05 -67.05 -39.15 -78.5 -35.55 -85.5 -36.3 -93.3 -37.6 -105.85 -36.55 -118.35 L-36.45 -119.55 M-10.65 -108.3 L-10.25 -108.05 -8.1 -111.65 -8.2 -111.85 Q-9.15 -113.25 -11.5 -115.15 L-13.85 -110.4 -10.65 -108.3 M-7.75 -105.15 L-6.9 -107.5 -6.4 -108.95 -7.3 -110.65 -9.45 -107.25 -7.75 -105.15 M-19.6 -84.0 Q-22.85 -74.5 -25.0 -64.75 -25.4 -63.0 -26.55 -61.45 -31.55 -54.8 -39.15 -51.05 -31.0 -51.0 -25.3 -57.4 -22.35 -60.7 -19.55 -64.15 -12.75 -72.75 -11.8 -83.65 L-19.6 -84.0 M-7.2 -71.25 L-2.1 -80.6 -6.9 -80.05 -11.45 -80.25 Q-12.7 -73.8 -15.9 -68.05 L-12.65 -69.1 -9.3 -69.45 -8.35 -69.45 -8.2 -69.45 -7.25 -71.1 -7.2 -71.25 M-26.25 -84.25 Q-30.7 -70.6 -41.05 -60.2 -27.85 -69.1 -24.6 -71.55 L-21.1 -84.0 -26.25 -84.25 M-25.4 -65.1 Q-24.25 -68.0 -24.35 -70.45 L-41.6 -58.5 -41.3 -54.1 -41.3 -53.9 -41.3 -53.85 -41.25 -53.8 -40.35 -52.05 -40.3 -52.1 -38.2 -52.8 -37.4 -53.15 Q-29.25 -57.05 -25.4 -65.1 M-22.9 -55.85 Q-22.95 -57.8 -22.65 -59.4 L-24.15 -58.05 Q-27.9 -54.75 -30.15 -53.0 -31.75 -51.7 -32.6 -51.25 L-31.1 -48.8 -22.75 -53.95 -22.9 -55.85 M-22.4 -52.45 L-22.65 -53.3 -27.55 -50.15 -32.15 -47.2 -31.7 -46.0 -31.1 -45.15 -30.1 -45.55 Q-24.35 -47.85 -21.65 -50.1 L-22.4 -52.45 M-16.65 -61.2 Q-21.25 -53.9 -14.15 -48.7 -11.2 -46.55 -7.65 -47.5 -4.15 -48.4 -2.1 -51.35 -9.95 -47.15 -15.3 -54.2 -17.65 -57.35 -16.65 -61.2 M-7.75 -50.65 Q-1.15 -50.0 -1.25 -56.0 -1.4 -62.85 -8.15 -64.25 -15.7 -65.8 -16.35 -59.05 -15.6 -51.4 -7.75 -50.65 M-67.15 -86.85 Q-67.15 -83.8 -65.65 -82.1 L-66.0 -92.0 Q-67.15 -89.75 -67.15 -86.85 M-32.65 -47.6 Q-32.45 -48.15 -31.7 -48.3 L-33.25 -50.9 Q-39.35 -48.8 -41.15 -51.15 -42.65 -53.2 -42.4 -57.25 L-42.2 -59.3 -42.95 -58.7 -43.0 -58.7 -43.2 -58.55 -46.6 -56.1 Q-47.35 -50.5 -42.7 -47.6 -39.2 -45.4 -38.5 -40.9 L-37.8 -36.35 -31.55 -38.3 -25.15 -39.95 -29.45 -45.05 -29.7 -44.95 Q-32.5 -44.0 -32.75 -47.2 L-32.65 -47.6 M-9.0 -42.7 Q-11.3 -42.5 -13.55 -43.25 -15.5 -42.2 -16.35 -39.95 L3.0 -31.05 Q-0.55 -37.05 -6.5 -40.85 L-9.0 -42.7 M-16.25 -44.7 L-16.9 -45.05 -18.35 -42.8 -18.4 -42.75 -18.55 -42.55 -19.5 -41.1 -17.1 -40.2 -14.5 -43.7 -16.25 -44.7 M-20.4 -40.75 L-17.6 -45.4 Q-20.4 -48.0 -21.2 -49.55 -23.45 -47.9 -28.65 -45.4 L-26.5 -42.55 Q-24.6 -40.2 -24.1 -40.2 L-20.4 -40.75 M-1.4 14.55 Q1.25 18.95 -1.1 23.35 0.95 18.2 -2.8 14.25 -4.35 14.65 -5.05 16.15 -7.85 22.15 -2.2 24.65 -2.7 25.05 -2.9 24.9 -7.1 22.7 -6.4 17.6 -5.65 12.15 -1.4 14.55 M-65.0 30.6 Q-68.8 41.35 -64.9 52.05 L-61.95 52.95 Q-62.75 42.65 -62.5 32.4 L-65.0 30.6" fill="#000000" fill-rule="evenodd" stroke="none"/>
    <path d="M0.45 -114.05 Q14.8 -121.8 31.1 -123.35 39.5 -124.05 47.45 -121.65 55.5 -119.3 61.1 -113.0 72.3 -100.55 82.15 -86.95 L78.05 -85.65 77.85 -85.8 Q77.25 -92.6 68.1 -102.05 59.05 -111.35 48.6 -116.4 34.9 -123.1 14.95 -114.05 6.1 -116.6 0.45 -114.05 M-39.9 -4.75 L-39.6 -3.4 -39.75 -2.75 -39.9 -4.75 M9.95 12.45 L10.65 12.9 10.6 13.1 9.95 12.45 M11.85 30.0 L16.2 34.95 Q13.15 32.65 11.85 30.0 M75.95 -59.85 L76.15 -60.75 Q111.2 -70.5 84.6 -86.6 95.85 -86.05 99.0 -74.5 101.25 -66.25 99.05 -57.9 L74.8 -49.8 Q76.1 -54.7 75.95 -59.85 M40.15 -56.7 L44.65 -60.5 Q47.55 -57.8 48.7 -56.2 L43.6 -52.3 Q43.1 -56.9 40.2 -56.7 L40.15 -56.7 M-22.3 -56.45 L-21.75 -60.3 Q-18.15 -64.35 -16.65 -66.85 L-13.25 -68.1 Q-17.55 -61.35 -22.3 -56.45 M26.65 -76.0 Q30.35 -79.65 32.95 -84.15 L33.55 -85.25 36.5 -82.3 28.95 -73.95 Q28.35 -75.1 27.15 -75.75 26.85 -75.9 26.65 -76.0 M21.25 -66.4 Q20.15 -65.6 16.75 -64.35 L13.2 -62.9 21.25 -66.4 M49.15 -50.7 L47.0 -53.75 48.8 -55.1 49.7 -51.8 49.15 -50.7 M31.25 -92.1 Q35.85 -89.2 38.95 -84.75 47.45 -72.5 49.15 -57.35 L45.0 -61.65 Q44.15 -66.8 42.55 -71.7 37.0 -88.05 20.2 -93.55 23.5 -93.95 28.8 -92.7 L31.25 -92.1 M14.25 -45.85 Q7.15 -49.55 4.05 -56.35 3.7 -57.1 3.65 -57.9 L17.55 -63.7 Q26.7 -68.15 33.05 -76.55 34.85 -79.05 37.05 -81.3 42.55 -72.0 44.2 -61.4 L39.65 -57.45 30.65 -71.7 Q19.35 -63.05 6.1 -57.3 L5.95 -56.7 6.8 -55.15 Q9.8 -49.9 14.25 -45.85 M18.55 -93.2 Q30.05 -87.75 32.65 -85.45 31.0 -81.65 25.25 -75.95 23.45 -79.65 11.3 -85.75 L18.35 -93.15 18.55 -93.2 M4.45 -64.1 L1.95 -63.1 Q0.15 -65.95 -3.0 -67.85 2.5 -75.2 3.85 -82.55 L6.15 -83.4 Q5.35 -77.75 1.5 -69.45 0.1 -66.8 4.45 -64.1 M34.0 -40.45 L32.55 -42.8 46.35 -53.2 50.15 -47.65 46.9 -44.6 44.6 -49.95 Q33.9 -39.65 34.15 -40.3 L34.0 -40.45 M44.45 -42.4 L44.45 -42.35 44.4 -42.45 44.45 -42.4 M27.7 -40.3 L28.4 -39.05 11.8 -29.35 Q12.55 -31.15 16.95 -34.1 L27.7 -40.3 M27.45 -29.5 L27.85 -30.45 27.75 -29.9 Q27.7 -29.1 28.25 -28.4 L27.4 -28.2 27.45 -29.5 M34.4 -30.05 L34.5 -29.9 34.5 -29.85 34.7 -28.55 Q34.6 -27.25 33.65 -26.6 L32.7 -27.5 Q34.2 -28.0 34.35 -29.7 L34.4 -30.05 M26.05 -23.45 Q25.4 -24.7 26.25 -25.8 L26.25 -25.65 Q26.0 -24.45 27.05 -23.75 L26.05 -23.45 M31.75 -23.55 Q32.7 -24.3 32.65 -25.55 L32.8 -25.25 Q33.3 -24.0 32.55 -22.95 L31.75 -23.55 M37.35 -34.35 L38.1 -34.2 37.5 -34.1 Q37.35 -34.1 37.35 -34.35 M65.55 40.4 Q57.35 45.15 47.9 45.2 30.5 45.2 17.5 33.75 14.3 30.9 12.45 27.0 9.25 20.2 12.7 12.9 L18.35 15.9 19.55 15.5 Q27.2 11.5 34.8 7.55 35.95 6.8 37.25 6.8 42.5 6.7 47.45 9.15 L45.3 7.85 45.75 8.0 Q49.85 9.7 51.3 11.65 L39.45 9.5 Q35.6 8.7 28.75 14.9 21.95 20.9 19.9 20.1 18.45 19.6 16.7 18.4 16.4 31.3 36.25 40.65 L40.35 42.0 Q51.85 45.0 69.1 37.65 L69.15 37.75 65.55 40.4 M38.65 -27.0 L39.35 -25.05 39.45 -23.5 Q39.55 -18.1 40.05 -12.65 L40.25 -10.95 Q37.7 -12.35 34.8 -11.65 L35.3 -12.65 Q36.6 -16.2 32.8 -17.75 34.55 -19.9 33.25 -22.35 34.25 -23.45 34.25 -24.9 L34.25 -25.4 Q36.15 -26.85 35.75 -29.35 37.7 -28.65 38.65 -27.0 M31.4 -26.05 L31.75 -26.2 32.05 -26.1 31.4 -26.05 M32.25 -35.55 L27.7 -41.75 31.75 -42.35 36.05 -35.45 32.25 -35.55 M28.15 -37.95 Q27.8 -36.35 28.15 -34.9 20.55 -32.85 16.4 -29.0 L13.25 -26.3 Q11.45 -25.65 9.85 -27.2 L28.15 -37.95 M-34.25 -7.65 L-34.55 -7.55 -32.4 -6.4 Q-35.65 -7.75 -37.65 -3.75 L-38.7 -7.45 -40.25 -11.15 -34.25 -7.65 M-10.0 12.05 Q-15.45 -5.05 -25.6 -10.95 L-23.85 -10.55 -27.4 -12.65 Q-29.55 -13.7 -31.7 -14.0 -32.7 -13.6 -33.4 -12.7 L-33.45 -12.65 -34.05 -11.85 -34.25 -12.65 Q-36.1 -20.45 -29.25 -23.75 -27.75 -24.45 -26.1 -24.0 -16.3 -21.4 -6.55 -18.4 1.4 -15.95 8.05 -20.45 L7.35 -18.85 Q5.15 -16.65 4.65 -13.65 L4.5 -12.65 Q3.5 -6.75 3.2 -0.7 -3.6 0.8 -9.75 -2.65 -12.95 -4.45 -15.6 -7.0 L-14.15 -5.95 Q-18.5 -10.4 -22.0 -12.65 L-22.35 -12.9 -22.45 -12.35 -25.7 -13.2 -24.95 -12.65 Q-17.05 -7.05 -8.75 -2.0 -6.75 -0.75 -4.55 0.25 0.25 2.4 0.15 7.7 -4.4 11.0 -10.0 12.05 M31.95 -22.0 L32.15 -21.7 Q33.45 -19.35 31.3 -17.9 L30.4 -17.95 28.3 -17.15 Q24.4 -17.05 24.2 -19.6 L24.2 -19.65 24.2 -19.7 24.55 -21.15 Q24.45 -19.7 25.75 -19.15 31.35 -16.85 31.9 -22.0 L31.9 -22.05 31.95 -22.0 M33.65 -15.95 L34.05 -15.5 Q34.55 -13.9 34.05 -12.65 33.35 -10.95 30.7 -10.0 29.65 -9.6 28.8 -9.55 27.6 -9.45 26.9 -9.95 25.85 -10.65 25.65 -12.5 L25.7 -12.5 Q26.15 -11.25 27.5 -10.9 31.1 -10.95 32.4 -12.65 33.4 -14.0 33.0 -16.35 L33.65 -15.95 M23.4 -12.65 Q23.05 -15.35 23.65 -18.3 L24.05 -17.65 Q24.9 -16.55 26.25 -16.15 25.4 -14.95 25.1 -13.55 L24.9 -12.65 Q24.3 -8.0 30.2 -8.45 L29.45 -7.5 Q28.35 -4.6 30.05 -2.15 28.15 -3.15 26.85 -4.7 23.9 -8.3 23.4 -12.65 M30.55 -5.65 Q31.05 -4.15 32.65 -4.1 39.15 -3.6 39.1 -9.7 42.45 -6.1 37.35 -3.45 31.6 -0.55 30.55 -5.65 M55.2 -37.2 L56.4 -35.8 56.8 -34.6 55.2 -37.2 M56.9 -32.1 L56.15 -30.05 Q54.7 -27.0 52.2 -26.1 45.1 -33.55 38.0 -35.1 L49.2 -45.45 56.9 -32.1 M88.05 71.3 Q95.75 65.75 102.45 58.95 L102.45 64.25 Q102.2 80.0 96.2 94.55 95.2 96.95 93.45 98.6 81.2 109.7 64.7 112.3 L67.55 80.95 Q78.6 77.85 88.05 71.3 M57.65 112.8 Q50.1 112.6 43.0 110.0 L41.6 109.45 Q41.75 104.85 43.4 80.75 L45.0 80.85 54.25 82.1 59.2 82.05 57.65 112.8 M19.7 98.7 Q8.1 93.3 6.45 81.15 L6.35 79.6 8.2 55.9 Q14.5 63.2 22.15 69.3 20.0 93.4 19.7 98.7 M22.55 68.5 Q14.8 62.5 8.4 54.55 L23.05 40.1 21.5 39.05 21.7 38.85 22.45 39.2 22.4 39.45 23.6 39.8 Q30.3 43.2 40.0 45.25 L22.55 68.5 M61.6 7.8 Q64.45 13.45 69.55 10.35 66.3 15.25 61.8 10.9 57.9 7.1 61.7 4.3 60.7 6.0 61.6 7.8 M68.55 16.7 L64.5 13.8 Q68.1 15.0 69.8 12.9 L70.95 14.25 Q69.15 15.6 68.55 16.7 M70.1 17.95 Q69.8 15.9 71.75 15.1 L72.25 14.95 Q70.45 17.3 72.45 19.7 L70.1 17.95 M76.15 22.45 Q78.25 23.2 79.7 21.6 L79.65 22.05 Q79.45 23.4 78.25 24.0 L76.15 22.45 M60.0 10.5 Q56.6 9.15 55.65 5.75 57.35 4.5 59.55 4.2 58.05 7.05 59.6 9.85 L60.0 10.5 M15.45 17.5 L15.0 17.15 15.0 18.05 15.45 17.5 M-9.8 13.1 Q-4.45 11.85 0.15 9.05 L2.8 28.35 2.8 28.7 Q3.4 33.9 3.15 39.2 L2.05 40.3 0.95 41.0 -0.5 26.85 -3.35 31.5 Q-5.3 30.0 -7.3 28.9 L-8.55 15.15 Q-8.55 14.55 -9.15 13.85 L-9.45 14.0 -9.8 13.1 M-25.6 -100.15 L-22.15 -112.75 -19.5 -111.9 Q-23.7 -99.9 -26.7 -95.8 -26.2 -96.65 -25.7 -99.6 L-25.6 -100.15 M-14.45 -109.75 L-14.15 -109.6 -14.4 -109.7 -14.45 -109.75 M-19.2 -112.75 L-21.85 -113.8 -20.4 -118.0 -17.6 -117.65 -19.2 -112.75 M-13.0 -116.0 L-12.7 -115.85 -15.0 -111.1 -17.1 -111.95 -18.0 -112.7 -15.1 -113.35 -13.0 -116.0 M-36.45 -119.55 L-36.55 -118.35 Q-37.6 -105.85 -36.3 -93.3 -35.55 -85.5 -39.15 -78.5 -45.05 -67.05 -56.3 -60.85 -46.55 -69.85 -42.4 -82.45 -41.15 -86.25 -38.15 -89.25 -35.8 -91.6 -37.2 -94.6 -39.8 -100.2 -39.05 -106.55 -38.3 -113.15 -36.45 -119.55 M-8.2 -111.85 L-8.1 -111.65 -10.25 -108.05 -10.65 -108.3 -12.25 -109.75 -10.35 -109.5 -8.2 -111.85 M-7.75 -105.15 L-8.75 -107.15 -6.9 -107.5 -7.75 -105.15 M-6.9 -80.05 Q-9.65 -74.1 -12.65 -69.1 L-15.9 -68.05 Q-12.7 -73.8 -11.45 -80.25 L-6.9 -80.05 M-26.25 -84.25 L-21.1 -84.0 -24.6 -71.55 Q-27.85 -69.1 -41.05 -60.2 -30.7 -70.6 -26.25 -84.25 M-32.6 -51.25 Q-31.75 -51.7 -30.15 -53.0 -27.9 -54.75 -24.15 -58.05 L-22.65 -59.4 Q-22.95 -57.8 -22.9 -55.85 -26.9 -51.95 -31.25 -49.35 L-32.6 -51.25 M-30.1 -45.55 L-31.1 -45.15 -31.7 -46.0 -31.45 -45.7 -30.1 -45.55 M-16.65 -61.2 Q-17.65 -57.35 -15.3 -54.2 -9.95 -47.15 -2.1 -51.35 -4.15 -48.4 -7.65 -47.5 -11.2 -46.55 -14.15 -48.7 -21.25 -53.9 -16.65 -61.2 M-43.0 -58.7 L-42.95 -58.7 -42.2 -59.3 -42.4 -57.25 Q-42.65 -53.2 -41.15 -51.15 -39.35 -48.8 -33.25 -50.9 L-31.7 -48.3 Q-32.45 -48.15 -32.65 -47.6 L-32.95 -47.4 -32.75 -47.2 Q-32.5 -44.0 -29.7 -44.95 L-29.45 -45.05 -25.15 -39.95 -31.55 -38.3 -33.85 -43.6 Q-36.1 -49.35 -38.35 -48.9 -41.6 -48.2 -44.2 -50.35 -47.15 -52.75 -45.7 -56.7 L-43.05 -58.65 -43.0 -58.7 M-1.4 14.55 Q-5.65 12.15 -6.4 17.6 -7.1 22.7 -2.9 24.9 -2.7 25.05 -2.2 24.65 -7.85 22.15 -5.05 16.15 -4.35 14.65 -2.8 14.25 0.95 18.2 -1.1 23.35 1.25 18.95 -1.4 14.55 M-4.2 31.7 L-7.2 30.15 -7.2 29.9 -4.2 31.7" fill="#016a3a" fill-rule="evenodd" stroke="none"/>
  </g>
</svg>
