<?xml version="1.0" encoding="UTF-8" standalone="no"?>
<svg xmlns:xlink="http://www.w3.org/1999/xlink" height="606.8px" width="191.35px" xmlns="http://www.w3.org/2000/svg">
  <g transform="matrix(1.0, 0.0, 0.0, 1.0, 95.65, 303.2)">
    <path d="M65.2 -252.25 Q50.55 -263.0 42.15 -278.85 40.45 -282.1 37.7 -284.6 18.4 -301.9 -7.65 -298.1 -34.85 -294.05 -49.55 -270.9 -57.25 -258.8 -67.55 -248.3 L-67.9 -247.8 Q-72.4 -243.0 -68.05 -240.6 -67.2 -240.1 -66.05 -240.6 -54.85 -244.35 -44.05 -248.9 -27.3 -255.7 -19.75 -261.05 L-19.4 -261.3 Q-11.1 -268.45 -0.2 -268.75 3.05 -268.85 6.1 -267.3 L11.25 -264.7 13.9 -258.55 Q14.8 -253.65 11.4 -249.9 L8.35 -247.4 7.85 -247.15 Q1.25 -243.75 -5.1 -246.3 L-5.15 -246.35 Q-8.45 -247.85 -10.15 -251.3 L-11.65 -257.0 Q-11.8 -261.5 -8.95 -265.1 L-8.2 -266.1 Q-32.9 -249.25 -61.65 -240.1 L-50.4 -241.35 -15.0 -245.4 Q-0.65 -230.85 15.5 -243.65 L17.15 -245.4 52.05 -241.45 63.85 -240.1 Q40.25 -248.35 18.95 -260.95 43.55 -249.2 69.35 -239.95 L70.3 -240.35 70.7 -241.2 Q73.1 -248.55 65.2 -252.25 M-43.95 -204.0 Q-45.6 -206.1 -46.1 -208.45 -48.85 -221.0 -50.45 -233.6 L-67.2 -234.5 Q-70.25 -234.9 -72.25 -237.35 -78.75 -245.1 -70.15 -251.75 -57.2 -261.75 -49.4 -275.6 -38.5 -295.0 -17.3 -300.7 8.45 -307.7 31.85 -295.0 44.3 -288.2 50.55 -275.65 56.1 -264.55 66.6 -257.75 75.05 -252.3 77.1 -243.2 77.8 -240.15 75.45 -238.25 66.7 -231.1 54.55 -233.6 L52.6 -233.6 52.5 -232.85 49.05 -208.5 46.2 -204.85 45.8 -204.4 45.55 -201.8 40.6 -177.55 39.3 -173.9 33.4 -168.65 Q56.75 -166.45 78.7 -158.45 84.65 -156.25 88.05 -150.9 97.95 -135.15 91.15 -116.65 88.7 -109.95 86.95 -102.95 83.4 -88.95 78.6 -75.35 87.8 -58.2 88.5 -38.95 89.15 -21.3 83.0 -4.75 91.25 3.9 92.35 15.75 94.25 36.25 76.95 47.6 75.35 48.7 73.4 47.6 69.0 45.2 66.9 40.8 72.3 33.25 73.5 24.2 74.55 16.6 69.2 10.55 61.65 1.95 49.95 2.9 L44.4 -16.65 Q43.95 -15.55 43.85 -14.4 43.45 -9.3 43.35 -4.15 L43.15 5.85 Q37.9 9.95 35.6 16.15 31.45 27.6 38.75 37.25 40.85 39.95 42.1 43.3 L38.75 44.3 35.3 44.9 Q26.7 45.0 18.05 44.55 L17.75 49.55 Q36.45 49.1 54.85 52.1 56.75 52.5 58.05 54.3 69.2 70.4 68.75 90.85 L67.4 139.15 Q67.2 146.15 70.0 152.6 76.8 168.25 77.15 185.0 77.25 189.6 76.2 194.25 73.85 204.4 73.4 214.8 L95.7 243.55 95.7 290.5 Q95.4 292.0 94.3 293.2 88.85 299.3 80.95 301.7 74.8 303.6 68.25 303.5 66.4 298.15 66.0 292.7 65.05 278.75 66.5 264.8 L16.9 264.8 16.3 301.15 14.5 303.2 11.35 303.1 9.9 302.6 8.45 302.05 Q3.25 299.7 0.05 294.95 -2.7 299.8 -7.35 302.3 -12.9 305.4 -14.4 301.2 -15.95 297.05 -16.25 292.5 -17.2 278.7 -16.5 264.8 L-66.1 264.8 Q-66.2 280.9 -65.9 296.95 -65.8 300.7 -68.15 303.5 L-76.75 302.7 Q-85.2 300.85 -91.6 295.05 L-95.65 290.8 -95.45 243.85 Q-84.9 228.6 -73.2 214.6 -74.2 198.5 -76.8 182.5 -77.5 178.0 -75.95 173.5 -71.3 160.1 -65.05 147.3 -64.05 145.3 -64.4 142.95 -66.95 127.05 -67.8 111.1 -68.85 91.85 -65.9 72.8 -64.4 63.0 -58.2 55.05 L-53.1 49.25 -18.25 49.55 -17.95 44.55 -42.5 42.75 -40.55 37.9 -39.6 37.0 Q-33.55 31.0 -33.55 22.5 -33.55 13.95 -39.6 7.9 L-41.65 6.1 -43.05 4.9 -43.15 2.0 -43.25 -3.8 Q-43.3 -10.4 -44.35 -16.85 L-44.9 -16.3 Q-45.4 -15.75 -45.5 -14.95 -46.55 -6.5 -49.5 1.4 L-49.85 2.3 -49.95 2.3 -54.15 1.9 Q-62.65 1.9 -68.7 7.9 -74.7 13.95 -74.7 22.45 -74.7 30.0 -70.05 35.55 -68.65 37.95 -66.7 40.1 -68.35 45.15 -73.4 46.3 -76.95 47.15 -80.1 45.05 -94.1 35.65 -93.1 18.25 -92.45 7.0 -85.75 -2.0 L-83.25 -5.35 Q-90.75 -27.4 -87.15 -50.5 -85.05 -63.7 -78.8 -75.35 -90.1 -106.9 -92.1 -140.4 -92.35 -144.65 -90.2 -148.45 -85.1 -157.5 -75.85 -162.15 L-33.3 -168.95 -35.85 -173.15 Q-39.8 -180.75 -41.35 -189.3 L-43.85 -203.3 -43.95 -204.0 M-38.9 -213.7 L-35.95 -209.25 Q-33.25 -205.65 -29.8 -203.15 -21.75 -197.25 -9.75 -197.3 -9.15 -199.9 -10.9 -202.15 -16.15 -208.6 -15.0 -216.7 -13.35 -228.45 -1.5 -229.95 14.4 -232.0 17.6 -215.9 18.2 -212.85 16.65 -210.45 12.7 -204.2 11.55 -197.4 L11.55 -197.3 Q19.6 -197.5 27.5 -199.2 34.35 -200.6 40.95 -203.35 42.0 -203.85 42.3 -204.7 46.85 -218.5 47.5 -233.35 L47.65 -234.65 47.9 -236.55 Q39.6 -240.7 18.35 -243.65 11.85 -236.55 5.65 -235.95 -10.6 -234.5 -15.9 -243.65 -36.55 -241.3 -45.75 -236.55 L-45.35 -233.5 Q-43.9 -222.3 -38.9 -213.7 M9.7 -225.1 Q6.05 -228.55 0.85 -227.9 -11.7 -227.2 -12.85 -214.3 -13.5 -207.2 -7.95 -202.3 L-8.2 -165.1 Q-18.6 -165.85 -28.4 -169.5 -28.0 -162.25 -18.25 -161.15 L-4.0 -159.8 Q12.55 -158.4 27.3 -165.5 L28.55 -168.15 28.4 -168.95 Q19.85 -164.85 10.25 -165.3 L9.8 -202.3 Q21.65 -213.95 9.7 -225.1 M39.25 -200.8 L39.1 -200.75 Q27.25 -196.6 11.55 -195.2 L11.55 -189.5 11.55 -181.05 12.1 -181.1 Q22.0 -181.8 31.25 -185.3 L38.15 -187.85 40.8 -201.4 39.25 -200.8 M44.65 -240.1 L49.35 -238.35 58.8 -238.35 44.65 -240.1 M76.05 -6.65 L78.0 -5.65 81.2 -17.3 Q88.3 -42.85 77.2 -66.7 76.35 -68.5 76.4 -70.4 77.25 -96.3 86.1 -120.75 91.7 -136.3 82.35 -149.75 80.65 -152.25 78.1 -153.35 60.0 -161.2 40.35 -162.4 L36.15 -162.95 Q50.15 -151.3 54.65 -133.5 L55.95 -135.05 Q50.85 -111.8 46.65 -88.25 39.65 -49.2 51.4 -10.7 L53.95 -11.1 Q65.8 -12.65 76.05 -6.65 M23.65 -169.3 Q30.1 -171.65 35.2 -176.6 L37.25 -185.5 36.15 -185.05 35.2 -184.65 23.2 -181.1 Q17.45 -179.8 11.55 -179.3 L11.55 -178.55 11.55 -174.5 11.55 -167.15 Q18.1 -167.3 23.65 -169.3 M4.15 -144.35 Q27.2 -138.35 23.7 -114.7 22.15 -104.1 13.05 -98.35 L13.35 -45.95 Q24.25 -30.6 39.9 -20.1 L46.7 -23.1 Q39.15 -50.75 41.7 -79.2 L54.1 -129.95 Q48.6 -152.0 30.15 -165.4 24.7 -160.7 17.55 -159.55 -7.75 -154.85 -30.35 -165.1 L-33.85 -162.6 -34.5 -162.15 Q-48.85 -150.75 -54.2 -130.55 L-45.0 -94.45 Q-42.65 -85.5 -41.85 -76.25 -39.45 -49.4 -46.9 -23.35 L-45.95 -23.0 -39.8 -20.7 Q-23.85 -31.05 -13.85 -46.8 -13.4 -47.55 -13.4 -48.45 -13.25 -73.7 -13.25 -98.95 -30.4 -114.15 -19.45 -133.15 -14.55 -141.65 -5.05 -143.95 L4.15 -144.35 M23.35 -120.2 Q23.1 -129.95 16.3 -136.45 9.2 -142.95 -0.55 -142.65 -9.7 -142.35 -15.9 -135.6 -22.7 -128.8 -22.7 -119.95 -22.7 -109.9 -15.3 -103.1 -8.5 -96.9 0.65 -96.9 9.8 -97.2 16.6 -103.7 23.65 -110.5 23.35 -120.2 M26.15 -91.15 Q41.45 -89.1 35.6 -74.95 33.45 -69.8 27.85 -69.6 14.7 -70.65 16.85 -83.1 18.25 -91.0 26.15 -91.15 M47.3 -68.55 L47.9 -69.45 Q57.85 -62.4 69.15 -67.35 L68.9 -66.8 Q57.25 -58.9 47.3 -68.55 M38.75 -18.35 L34.75 -21.45 Q21.3 -31.65 10.95 -44.95 L-11.45 -44.95 Q-16.1 -38.7 -21.75 -33.35 -29.95 -25.6 -38.95 -18.65 L-38.65 2.6 Q-26.55 13.55 -30.3 29.3 -31.7 35.2 -35.4 39.8 L-24.45 39.8 -24.45 -4.45 -33.9 -10.7 -33.6 -22.5 17.45 -22.8 20.7 -22.75 28.35 -22.5 Q31.15 -22.4 33.7 -21.6 L34.0 -10.1 24.55 -3.9 24.55 40.1 35.5 40.1 Q28.3 31.95 29.2 21.2 30.15 9.9 38.55 2.55 L38.75 -18.35 M18.15 -83.75 Q16.05 -80.8 17.8 -77.55 23.6 -67.05 32.3 -73.5 38.15 -77.75 35.2 -84.5 26.3 -95.25 18.15 -83.75 M23.95 -9.5 L24.25 -6.25 31.95 -10.7 31.95 -20.4 -32.15 -20.7 -32.15 -10.95 -24.15 -6.55 -23.6 -9.8 23.95 -9.5 M20.4 -2.4 L20.4 -3.9 -20.25 -3.6 -20.35 -2.4 -20.35 18.4 -20.35 39.8 Q0.05 40.7 20.4 39.8 L20.4 19.6 20.4 -2.4 M51.85 -7.1 L53.2 -1.8 Q63.05 -2.6 70.0 4.25 87.3 21.45 72.4 40.4 L74.5 42.45 75.35 43.05 Q87.35 34.75 87.85 20.3 88.1 13.1 84.4 6.75 73.15 -12.3 51.7 -7.7 L51.85 -7.1 M11.25 -46.7 L11.25 -97.5 Q6.55 -95.1 -0.25 -95.4 -7.05 -95.7 -11.2 -98.1 L-11.2 -46.7 11.25 -46.7 M22.5 67.0 L36.05 66.7 41.1 99.75 Q44.95 124.85 44.35 134.0 L33.1 134.3 Q23.65 80.85 22.5 67.0 M34.3 68.15 L24.25 68.75 34.3 132.55 43.15 132.25 Q42.65 123.1 41.5 113.95 38.6 91.0 34.3 68.15 M22.15 140.25 Q28.55 136.95 39.6 137.25 50.15 137.85 57.1 140.85 L57.65 141.1 57.6 146.6 Q57.4 152.25 56.75 154.7 38.7 157.0 21.45 154.2 L21.0 154.1 21.6 140.5 22.15 140.25 M51.35 65.2 L-51.3 65.2 -59.2 65.5 Q-62.35 79.5 -62.9 93.8 -63.8 118.6 -59.95 143.25 -59.55 145.95 -60.55 148.5 -64.95 160.1 -69.65 171.65 -72.9 177.8 -73.0 184.7 L-72.9 186.25 Q-72.9 178.55 -68.4 175.8 -70.55 178.05 -71.1 181.25 -66.6 173.65 -60.5 180.95 L-64.5 174.45 -62.3 174.4 Q-59.5 181.95 -57.25 189.9 -52.05 208.1 -48.45 226.7 L-50.15 222.3 Q-54.6 211.35 -59.0 188.35 -58.7 194.85 -62.55 198.65 L-63.45 199.85 Q-58.15 201.35 -56.65 208.7 -54.9 216.4 -59.0 220.8 -52.2 219.65 -49.25 227.0 -46.25 233.8 -48.75 239.35 -57.25 245.5 -62.2 234.3 L-68.75 218.15 -69.85 219.4 Q-81.85 232.4 -90.6 245.9 -89.7 248.3 -88.2 250.3 -84.85 254.7 -79.5 256.8 -72.3 259.55 -64.5 259.65 -38.4 261.45 -12.5 258.85 0.5 250.65 -7.3 235.4 L-9.45 230.45 Q-14.05 217.1 -9.85 202.75 -8.75 198.95 -9.25 194.95 -12.3 169.6 -20.45 144.8 L-20.55 143.6 Q-8.0 110.65 -1.45 75.85 L-3.95 77.35 -3.45 76.2 Q-1.65 72.5 2.05 74.0 L2.55 74.25 3.25 74.9 3.6 77.4 1.25 75.95 Q9.35 104.95 16.1 134.5 20.1 152.15 14.1 169.65 5.75 194.15 11.55 219.4 L13.15 225.75 Q3.6 236.85 6.15 250.2 7.25 256.05 12.45 259.5 L15.5 259.7 Q49.15 261.45 70.6 259.5 80.95 258.9 86.55 252.7 L87.25 252.15 Q92.05 248.7 88.5 243.2 83.65 235.8 78.2 228.75 74.05 223.35 69.1 218.45 L67.7 222.05 Q66.25 233.6 58.35 239.0 60.55 237.15 61.45 232.65 62.2 228.95 60.8 225.3 L61.35 225.3 60.45 224.7 Q59.9 223.9 59.0 223.85 49.55 222.3 49.3 233.25 49.15 237.45 50.7 239.35 54.6 240.95 57.2 239.75 55.65 240.65 53.9 241.35 50.4 242.7 48.05 239.6 44.7 235.15 46.6 229.2 54.2 205.0 59.2 180.35 61.3 170.0 68.3 175.2 70.8 177.0 71.8 179.95 72.85 183.0 73.0 186.25 L73.3 183.45 Q73.15 177.85 68.55 167.95 L62.05 156.15 Q59.1 147.9 59.4 143.15 L62.05 124.25 Q65.6 90.9 59.4 65.2 L51.35 65.2 M-56.45 140.65 L-54.65 140.0 Q-38.45 134.45 -22.5 140.0 L-21.5 140.5 -21.4 142.95 -20.9 154.1 Q-38.35 157.05 -56.65 154.7 L-57.15 146.75 -57.55 141.1 -56.45 140.65 M36.2 53.7 L33.4 53.7 -43.85 53.8 -50.45 53.7 -56.35 60.8 -57.55 63.15 -46.3 63.15 46.6 63.15 57.9 63.15 50.25 53.7 36.2 53.7 M13.05 51.05 L13.05 42.2 -13.25 42.2 -13.55 51.05 13.05 51.05 M31.95 156.75 L32.25 156.3 46.7 156.15 Q47.75 185.0 41.9 213.3 40.6 219.7 37.25 225.25 L22.8 224.65 31.95 156.75 M65.5 179.55 Q64.95 179.7 64.55 180.0 59.55 183.6 60.95 190.65 61.0 197.7 66.8 197.8 L67.65 197.5 68.5 197.35 68.05 197.15 Q72.6 193.15 71.4 185.95 70.1 178.1 65.5 179.55 M61.3 179.75 L62.15 178.85 Q65.85 176.0 69.75 178.5 68.75 177.1 67.4 176.2 62.6 172.85 61.3 179.75 M55.55 153.2 L55.85 142.3 Q36.95 135.2 23.1 141.7 L22.8 152.9 Q40.5 154.4 55.55 153.2 M44.95 157.95 L33.4 158.2 24.55 223.2 36.65 223.5 Q45.5 202.5 44.95 157.95 M14.4 153.75 Q16.05 150.4 15.15 146.75 8.35 119.85 0.05 93.25 -3.1 106.9 -7.45 120.2 -9.55 126.7 -12.55 133.1 -17.45 143.7 -13.55 153.8 L-7.15 172.25 Q-5.7 176.15 -5.2 180.45 -2.65 202.6 -7.95 224.65 L0.05 239.15 8.0 224.35 Q-2.55 187.7 14.4 153.75 M87.35 254.6 Q81.8 259.1 71.2 261.25 L71.2 298.2 Q76.5 297.9 82.7 294.95 86.8 292.6 88.9 290.9 90.7 289.4 91.0 288.45 L90.7 250.95 Q89.35 252.95 87.35 254.6 M67.35 204.6 L67.8 204.5 66.8 203.5 Q66.35 202.7 65.8 202.8 55.9 205.75 58.2 216.15 58.2 217.95 59.6 219.25 61.0 220.5 63.0 220.5 72.25 215.0 67.35 204.6 M62.7 200.45 Q63.2 200.05 63.85 199.85 58.8 195.4 59.1 188.35 55.0 207.4 50.0 226.3 52.1 223.5 56.25 221.45 57.5 220.8 59.1 220.8 52.1 208.9 62.7 200.45 M66.5 200.15 L69.0 202.05 70.05 197.8 66.5 200.15 M66.1 221.0 L61.45 222.3 63.85 227.9 66.1 221.0 M48.0 233.85 L47.8 234.5 Q46.65 238.7 50.25 240.6 48.3 236.95 48.0 233.85 M28.1 231.45 Q35.2 230.25 39.3 236.15 43.45 242.1 40.5 249.15 36.05 258.0 26.9 255.35 16.3 252.4 19.55 239.7 21.3 232.95 28.1 231.45 M29.85 233.2 Q20.7 233.8 21.0 244.15 21.3 254.2 30.45 254.2 39.6 253.9 39.3 243.25 39.0 232.65 29.85 233.2 M11.85 262.45 L3.9 254.2 Q4.0 272.1 5.0 290.25 5.3 296.2 11.85 297.6 L11.85 262.45 M-41.9 -240.4 L-56.95 -238.35 Q-45.45 -237.75 -41.9 -240.4 M-1.7 -267.3 Q-9.95 -265.7 -10.0 -257.3 -10.05 -248.15 -0.95 -247.15 12.55 -245.8 12.45 -258.9 9.55 -269.45 -1.7 -267.3 M21.9 -5.35 L22.1 7.35 22.2 -8.0 -21.8 -8.0 -22.0 28.15 -21.2 -5.65 21.9 -5.35 M-36.75 -200.5 L-39.25 -201.4 -36.3 -187.85 Q-28.45 -184.5 -20.35 -183.05 L-9.7 -181.2 -9.7 -189.15 -9.7 -195.2 Q-24.7 -196.3 -36.75 -200.5 M-9.7 -173.9 L-9.7 -178.75 -9.7 -179.3 -19.85 -180.8 Q-26.45 -182.2 -33.15 -184.55 L-33.55 -184.7 -35.7 -185.5 -33.3 -176.6 -26.85 -171.3 Q-21.65 -168.1 -14.35 -167.35 L-9.7 -167.15 -9.7 -173.9 M-40.0 -162.8 Q-55.0 -160.3 -69.55 -156.35 L-70.5 -156.1 Q-90.55 -150.35 -86.9 -129.75 -82.5 -104.6 -75.45 -80.15 L-75.3 -70.45 Q-90.15 -39.0 -78.2 -5.95 L-75.95 -7.6 Q-68.95 -12.25 -59.5 -11.95 -55.8 -11.85 -51.65 -10.95 L-45.45 -41.7 Q-41.9 -66.5 -43.05 -75.05 L-53.3 -123.7 -55.75 -135.3 -55.2 -133.8 Q-50.8 -150.15 -38.05 -161.85 L-36.9 -162.6 -36.55 -163.35 -40.0 -162.8 M-36.6 -85.45 Q-33.9 -91.35 -27.6 -90.95 -12.5 -89.95 -16.5 -75.65 -18.5 -71.3 -23.1 -70.2 -28.3 -68.75 -32.6 -71.5 -40.55 -76.65 -36.6 -85.45 M-33.6 -87.45 Q-38.15 -83.2 -35.4 -77.75 -30.1 -67.25 -21.35 -73.35 -16.2 -76.95 -18.6 -82.7 -23.1 -93.7 -33.6 -87.45 M-49.75 -67.0 L-47.8 -67.35 Q-47.6 -66.25 -49.85 -65.15 -60.05 -60.35 -68.4 -67.3 L-69.65 -68.55 -69.05 -69.45 Q-60.0 -62.55 -49.75 -67.0 M-78.35 29.85 Q-79.75 24.75 -78.65 19.3 -74.55 -1.4 -53.1 -2.4 L-51.95 -8.6 -53.0 -8.85 Q-62.35 -10.75 -70.95 -6.95 -79.65 -3.05 -83.75 5.3 -93.95 26.0 -76.9 41.8 L-75.25 42.45 -72.3 39.95 Q-76.4 35.45 -78.35 29.85 M-36.0 66.7 Q-30.35 65.8 -22.4 67.0 -23.6 80.85 -33.05 134.3 L-44.25 134.0 Q-44.55 125.45 -41.3 99.75 L-36.0 66.7 M-24.15 68.75 L-34.5 68.15 Q-41.6 109.5 -43.05 132.25 L-34.2 132.55 -28.9 100.95 -24.15 68.75 M-46.95 234.95 L-46.75 236.2 Q-46.5 237.6 -47.85 238.65 -47.05 237.15 -46.95 234.95 M-46.9 156.75 L-46.3 156.15 -32.15 156.15 -22.7 224.65 -37.15 225.25 Q-40.1 221.7 -42.5 211.1 -46.3 192.45 -46.9 156.75 M-60.9 191.0 L-60.8 188.35 Q-60.8 183.35 -62.1 181.0 L-63.25 180.3 Q-68.75 177.45 -70.95 186.0 -73.1 194.2 -66.9 197.55 L-68.15 197.65 Q-65.65 198.9 -63.85 197.65 -61.05 196.7 -60.9 191.0 M-22.7 152.9 L-23.0 141.7 Q-36.85 135.2 -55.75 142.3 L-55.2 153.2 Q-40.4 154.4 -22.7 152.9 M-33.3 158.2 L-44.85 157.95 Q-45.05 182.95 -41.25 207.2 -39.9 215.8 -36.3 223.5 L-24.45 223.2 -33.3 158.2 M-24.05 236.5 Q-27.3 232.2 -32.7 233.6 -42.4 239.55 -36.65 249.4 -32.75 256.05 -26.4 252.0 -17.0 245.9 -24.05 236.5 M-32.15 231.45 Q-20.2 230.75 -19.55 243.1 -19.05 253.25 -28.45 255.15 -36.45 256.6 -39.45 248.85 -44.4 236.0 -32.15 231.45 M-59.85 218.75 Q-55.2 214.5 -57.5 208.0 -60.5 199.55 -67.55 203.15 -73.3 215.2 -61.55 220.5 L-61.15 220.45 -59.85 218.75 M-69.05 202.2 L-66.4 200.15 Q-67.0 200.15 -70.25 197.8 L-69.05 202.2 M-61.35 222.1 L-64.95 222.1 -63.15 225.75 -61.35 222.1 M-53.2 240.1 Q-50.8 238.75 -49.75 236.9 -47.6 233.05 -51.0 227.15 -53.1 222.35 -58.3 222.5 L-59.2 223.95 Q-64.65 233.2 -55.45 240.15 L-53.2 240.1 M-3.8 254.2 L-6.75 258.9 -11.75 263.35 -11.75 297.6 Q-9.8 296.8 -7.85 295.6 -6.25 294.65 -6.0 293.2 -2.55 274.1 -3.8 254.2 M-88.3 253.75 L-90.9 250.95 -90.9 288.45 -88.8 290.55 -88.0 291.3 -73.55 297.9 -71.1 298.2 -71.1 261.25 Q-82.15 259.35 -88.3 253.75" fill="#000000" fill-rule="evenodd" stroke="none"/>
    <path d="M-67.9 -247.8 L-48.95 -262.55 Q-30.1 -296.2 0.65 -296.2 14.8 -295.05 27.2 -287.65 41.4 -279.1 47.9 -264.9 49.85 -262.95 65.2 -252.25 73.1 -248.55 70.7 -241.2 L70.3 -240.35 69.35 -239.95 Q43.55 -249.2 18.95 -260.95 14.75 -263.45 10.65 -266.1 L11.25 -264.7 6.1 -267.3 Q3.05 -268.85 -0.2 -268.75 -11.1 -268.45 -19.4 -261.3 L-44.05 -248.9 Q-54.85 -244.35 -66.05 -240.6 -67.2 -240.1 -68.05 -240.6 -72.4 -243.0 -67.9 -247.8 M11.4 -249.9 Q14.8 -253.65 13.9 -258.55 17.4 -257.7 20.4 -256.05 37.4 -245.95 52.05 -241.45 L17.15 -245.4 15.5 -243.65 Q-0.65 -230.85 -15.0 -245.4 L-50.4 -241.35 Q-24.6 -252.5 -16.8 -255.45 L-11.65 -257.0 -10.15 -251.3 -11.75 -253.4 Q1.8 -230.65 11.4 -249.9 M-5.1 -246.3 Q1.25 -243.75 7.85 -247.15 L8.35 -247.4 Q1.95 -241.25 -5.1 -246.3 M-42.05 -234.7 Q-32.0 -239.4 -21.0 -240.25 L-17.95 -240.4 Q-4.85 -228.4 11.2 -235.25 15.05 -236.85 18.05 -239.8 31.75 -240.0 44.8 -235.9 L40.05 -205.95 Q35.1 -201.6 28.1 -199.35 L11.55 -197.4 Q12.7 -204.2 16.65 -210.45 18.2 -212.85 17.6 -215.9 14.4 -232.0 -1.5 -229.95 -13.35 -228.45 -15.0 -216.7 -16.15 -208.6 -10.9 -202.15 -9.15 -199.9 -9.75 -197.3 -21.4 -199.6 -29.8 -203.15 -33.25 -205.65 -35.95 -209.25 L-38.9 -213.7 -42.05 -234.7 M46.75 -235.1 L47.65 -234.65 47.5 -233.35 46.75 -235.1 M39.1 -200.75 L39.25 -200.8 37.55 -190.1 Q35.55 -187.35 31.25 -185.3 22.0 -181.8 12.1 -181.1 L11.55 -181.05 11.55 -189.5 Q25.4 -192.1 39.1 -200.75 M76.05 -6.65 Q65.8 -12.65 53.95 -11.1 L51.4 -10.7 Q39.65 -49.2 46.65 -88.25 50.85 -111.8 55.95 -135.05 L54.65 -133.5 Q50.15 -151.3 36.15 -162.95 L40.35 -162.4 Q71.75 -156.05 73.85 -154.45 89.2 -144.75 82.45 -119.65 78.6 -106.05 73.0 -83.3 68.25 -77.4 75.35 -63.55 80.35 -48.2 80.95 -41.7 82.95 -25.6 76.05 -6.65 M23.65 -169.3 Q18.1 -167.3 11.55 -167.15 L11.55 -174.5 Q23.4 -177.2 33.7 -183.7 L35.2 -184.65 36.15 -185.05 33.4 -176.9 Q28.65 -172.15 23.65 -169.3 M11.55 -178.55 L11.55 -179.3 Q17.45 -179.8 23.2 -181.1 17.45 -179.35 11.55 -178.55 M4.15 -144.35 Q18.7 -146.75 35.9 -160.25 L30.15 -165.4 Q48.6 -152.0 54.1 -129.95 L41.7 -79.2 Q39.15 -50.75 46.7 -23.1 L39.9 -20.1 Q24.25 -30.6 13.35 -45.95 L13.05 -98.35 Q22.15 -104.1 23.7 -114.7 27.2 -138.35 4.15 -144.35 M-33.85 -162.6 Q-21.35 -145.35 -5.05 -143.95 -14.55 -141.65 -19.45 -133.15 -30.4 -114.15 -13.25 -98.95 -13.25 -73.7 -13.4 -48.45 -13.4 -47.55 -13.85 -46.8 -23.85 -31.05 -39.8 -20.7 L-45.95 -23.0 Q-37.0 -47.7 -38.1 -66.15 -37.55 -77.35 -39.25 -82.15 -42.1 -90.1 -54.2 -130.55 -48.85 -150.75 -34.5 -162.15 L-33.85 -162.6 M71.5 -130.85 Q83.6 -153.6 66.2 -149.45 76.5 -144.45 71.5 -130.85 M47.3 -68.55 Q57.25 -58.9 68.9 -66.8 L69.15 -67.35 Q57.85 -62.4 47.9 -69.45 L47.3 -68.55 M26.15 -91.15 Q18.25 -91.0 16.85 -83.1 14.7 -70.65 27.85 -69.6 33.45 -69.8 35.6 -74.95 41.45 -89.1 26.15 -91.15 M-20.35 -2.4 L-20.25 -3.6 20.4 -3.9 20.4 -2.4 -20.35 -2.4 M20.4 19.6 L20.4 39.8 Q0.05 40.7 -20.35 39.8 L-20.35 18.4 Q-4.45 4.6 20.4 19.6 M74.5 42.45 L72.4 40.4 Q87.3 21.45 70.0 4.25 63.05 -2.6 53.2 -1.8 L51.85 -7.1 Q74.1 -10.2 84.8 9.15 86.9 12.95 86.95 17.5 87.1 33.15 74.5 42.45 M22.5 67.0 Q23.65 80.85 33.1 134.3 L44.35 134.0 Q44.95 124.85 41.1 99.75 L36.05 66.7 22.5 67.0 M22.15 140.25 Q21.25 136.7 19.25 133.4 L19.2 134.05 Q9.4 95.6 6.85 83.2 5.6 77.45 3.25 74.9 L2.55 74.25 2.05 74.0 Q-5.7 70.55 -6.45 79.75 -7.0 86.25 -8.65 92.5 -15.05 116.45 -22.5 140.0 -38.45 134.45 -54.65 140.0 L-56.45 140.65 Q-61.8 115.0 -60.95 88.8 -60.5 74.85 -51.3 65.2 L51.35 65.2 Q58.95 68.8 60.0 82.05 62.65 121.3 57.05 137.55 L57.1 140.85 Q50.15 137.85 39.6 137.25 28.55 136.95 22.15 140.25 M15.5 259.7 Q2.9 252.0 9.15 239.75 12.4 233.35 16.3 227.3 8.0 190.1 21.45 154.2 38.7 157.0 56.75 154.7 57.4 152.25 57.6 146.6 58.7 155.55 62.35 160.0 73.55 175.95 73.0 183.0 L73.3 183.45 73.0 186.25 Q72.85 183.0 71.8 179.95 70.8 177.0 68.3 175.2 61.3 170.0 59.2 180.35 54.2 205.0 46.6 229.2 44.7 235.15 48.05 239.6 50.4 242.7 53.9 241.35 55.65 240.65 57.2 239.75 54.6 240.95 50.7 239.35 L53.25 239.85 Q50.65 238.75 50.9 235.85 51.7 225.15 60.8 225.3 62.2 228.95 61.45 232.65 60.55 237.15 58.35 239.0 66.25 233.6 67.7 222.05 L87.15 250.35 87.25 252.15 86.55 252.7 Q80.95 258.9 70.6 259.5 49.15 261.45 15.5 259.7 M33.4 53.7 L36.2 53.7 Q60.65 58.55 46.6 63.15 L-46.3 63.15 Q-58.0 57.7 -46.55 54.5 -48.5 57.15 -38.65 62.55 L40.5 62.55 Q51.15 62.55 33.4 53.7 M49.3 233.25 Q49.55 222.3 59.0 223.85 59.9 223.9 60.45 224.7 51.75 221.4 49.3 233.25 M31.95 156.75 L22.8 224.65 37.25 225.25 Q40.6 219.7 41.9 213.3 47.75 185.0 46.7 156.15 L32.25 156.3 31.95 156.75 M60.95 190.65 Q61.35 198.4 67.65 197.5 L66.8 197.8 Q61.0 197.7 60.95 190.65 M68.05 197.15 Q60.05 193.05 64.3 182.9 65.25 180.6 67.85 180.45 66.9 179.55 65.5 179.55 70.1 178.1 71.4 185.95 72.6 193.15 68.05 197.15 M70.05 188.65 Q70.05 184.5 68.55 184.5 67.35 186.25 67.65 188.65 67.65 192.75 69.15 192.75 70.3 191.0 70.05 188.65 M88.9 290.9 Q86.8 292.6 82.7 294.95 76.5 297.9 71.2 298.2 L71.2 261.25 Q81.8 259.1 87.35 254.6 L88.9 290.9 M67.35 204.6 Q72.25 215.0 63.0 220.5 60.75 219.55 60.35 216.9 58.6 206.05 67.35 204.6 M58.2 216.15 Q55.9 205.75 65.8 202.8 66.35 202.7 66.8 203.5 L65.8 203.35 Q56.8 204.95 58.2 216.15 M65.3 216.4 Q66.5 216.7 67.65 212.85 68.55 208.7 67.35 208.4 65.9 209.9 65.3 211.95 64.7 214.05 65.3 216.4 M60.3 229.1 Q58.2 229.95 57.05 232.05 56.15 234.1 56.15 236.15 58.2 235.3 59.4 233.5 60.6 231.45 60.3 229.1 M28.1 231.45 Q21.3 232.95 19.55 239.7 16.3 252.4 26.9 255.35 36.05 258.0 40.5 249.15 43.45 242.1 39.3 236.15 35.2 230.25 28.1 231.45 M11.85 262.45 L11.85 297.6 Q5.3 296.2 5.0 290.25 4.0 272.1 3.9 254.2 L11.85 262.45 M-9.7 -181.2 Q-19.0 -183.0 -28.0 -187.25 -31.95 -188.85 -34.75 -190.65 L-36.4 -198.7 Q-23.0 -191.15 -9.7 -189.15 L-9.7 -181.2 M-9.7 -178.75 Q-14.7 -179.5 -19.85 -180.8 L-9.7 -179.3 -9.7 -178.75 M-33.15 -184.55 Q-21.9 -176.15 -9.7 -173.9 L-9.7 -167.15 -14.35 -167.35 Q-24.25 -170.6 -31.95 -176.95 L-33.55 -184.7 -33.15 -184.55 M-37.25 -162.6 L-40.0 -162.8 -36.55 -163.35 -37.25 -162.6 M-69.55 -156.35 L-38.05 -161.85 Q-50.8 -150.15 -55.2 -133.8 L-55.75 -135.3 Q-55.1 -142.45 -51.6 -148.75 L-49.9 -151.7 Q-66.7 -139.8 -59.25 -119.6 -49.8 -94.0 -49.75 -67.0 -60.0 -62.55 -69.05 -69.45 L-69.65 -68.55 -68.4 -67.3 Q-60.05 -60.35 -49.85 -65.15 -50.8 -42.25 -59.5 -11.95 -68.95 -12.25 -75.95 -7.6 -83.3 -27.5 -78.3 -48.35 -75.6 -59.5 -75.3 -70.45 L-75.45 -80.15 Q-76.5 -102.1 -83.1 -123.65 -89.7 -145.2 -70.5 -156.1 L-69.55 -156.35 M-53.3 -123.7 L-54.7 -128.15 Q-55.95 -131.65 -55.75 -135.3 L-53.3 -123.7 M-67.3 -146.5 Q-84.7 -150.65 -72.6 -127.9 -77.6 -141.5 -67.3 -146.5 M-36.6 -85.45 Q-40.55 -76.65 -32.6 -71.5 -28.3 -68.75 -23.1 -70.2 -18.5 -71.3 -16.5 -75.65 -12.5 -89.95 -27.6 -90.95 -33.9 -91.35 -36.6 -85.45 M-78.35 29.85 Q-76.4 35.45 -72.3 39.95 L-75.25 42.45 -76.9 41.8 Q-86.65 28.9 -85.6 13.25 -79.9 -7.45 -60.95 -8.95 -88.35 8.5 -78.35 29.85 M-36.0 66.7 L-41.3 99.75 Q-44.55 125.45 -44.25 134.0 L-33.05 134.3 Q-23.6 80.85 -22.4 67.0 -30.35 65.8 -36.0 66.7 M-20.55 143.6 L-20.45 144.8 Q-19.05 161.6 -14.25 178.25 -9.15 196.0 -13.9 213.35 -17.7 227.15 -9.7 239.4 -6.7 244.0 -7.55 249.6 -8.4 255.15 -12.5 258.85 -38.4 261.45 -64.5 259.65 -72.3 259.55 -79.5 256.8 -84.85 254.7 -88.2 250.3 L-68.15 220.8 -69.85 219.4 -68.75 218.15 -62.2 234.3 Q-57.25 245.5 -48.75 239.35 L-49.25 240.3 -47.85 238.65 Q-46.5 237.6 -46.75 236.2 L-46.95 234.95 -48.45 226.7 Q-52.05 208.1 -57.25 189.9 -59.5 181.95 -62.3 174.4 L-64.5 174.45 -68.4 175.8 Q-72.9 178.55 -72.9 186.25 L-73.0 184.7 Q-72.9 177.8 -69.65 171.65 -66.6 165.3 -61.1 157.05 -58.3 151.15 -57.15 146.75 L-56.65 154.7 Q-38.35 157.05 -20.9 154.1 L-21.4 142.95 -20.55 143.6 M-46.9 156.75 Q-46.3 192.45 -42.5 211.1 -40.1 221.7 -37.15 225.25 L-22.7 224.65 -32.15 156.15 -46.3 156.15 -46.9 156.75 M-63.25 180.3 Q-64.9 179.8 -66.55 180.3 L-67.3 180.7 Q-57.55 188.8 -66.9 197.55 -73.1 194.2 -70.95 186.0 -68.75 177.45 -63.25 180.3 M-63.85 197.65 Q-63.1 197.05 -62.45 195.95 -61.1 193.65 -60.9 191.0 -61.05 196.7 -63.85 197.65 M-69.95 188.95 Q-69.95 192.75 -68.75 192.75 -67.6 191.0 -67.3 188.65 -67.3 186.55 -68.45 184.8 -69.95 186.55 -69.95 188.95 M-32.15 231.45 Q-44.4 236.0 -39.45 248.85 -36.45 256.6 -28.45 255.15 -19.05 253.25 -19.55 243.1 -20.2 230.75 -32.15 231.45 M-67.55 203.15 Q-58.6 204.65 -60.05 215.9 -60.4 218.8 -62.95 219.55 -61.1 219.4 -59.85 218.75 L-61.15 220.45 -61.55 220.5 Q-73.3 215.2 -67.55 203.15 M-69.05 202.2 L-70.25 197.8 Q-67.0 200.15 -66.4 200.15 L-69.05 202.2 M-66.55 208.1 L-67.3 207.25 Q-68.95 211.95 -65.2 215.2 -64.2 211.35 -66.55 208.1 M-59.2 223.95 Q-51.0 224.55 -51.05 234.6 -51.1 239.25 -55.2 240.0 L-53.2 240.1 -55.45 240.15 Q-64.65 233.2 -59.2 223.95 M-49.75 236.9 L-51.0 227.15 Q-47.6 233.05 -49.75 236.9 M-56.65 231.45 Q-57.25 229.1 -59.0 227.9 -59.9 229.95 -59.3 232.35 -58.7 234.4 -56.95 235.9 -56.35 233.5 -56.65 231.45 M-3.8 254.2 Q-2.55 274.1 -6.0 293.2 -6.25 294.65 -7.85 295.6 -9.8 296.8 -11.75 297.6 L-11.75 263.35 -6.75 258.9 -3.8 254.2 M-88.8 290.55 L-88.3 253.75 Q-82.15 259.35 -71.1 261.25 L-71.1 298.2 -73.55 297.9 -88.0 291.3 -88.8 290.55" fill="#6bbd46" fill-rule="evenodd" stroke="none"/>
    <path d="M-44.05 -248.9 L-19.4 -261.3 -19.75 -261.05 Q-27.3 -255.7 -44.05 -248.9 M11.25 -264.7 L10.65 -266.1 Q14.75 -263.45 18.95 -260.95 40.25 -248.35 63.85 -240.1 L52.05 -241.45 Q37.4 -245.95 20.4 -256.05 17.4 -257.7 13.9 -258.55 L11.25 -264.7 M-43.95 -204.0 L-43.85 -203.3 -44.55 -203.8 -43.95 -204.0 M52.5 -232.85 L52.6 -233.6 54.55 -233.6 52.5 -232.85 M-11.65 -257.0 L-16.8 -255.45 Q-24.6 -252.5 -50.4 -241.35 L-61.65 -240.1 Q-32.9 -249.25 -8.2 -266.1 L-8.95 -265.1 Q-11.8 -261.5 -11.65 -257.0 M44.8 -235.9 Q31.75 -240.0 18.05 -239.8 15.05 -236.85 11.2 -235.25 -4.85 -228.4 -17.95 -240.4 L-21.0 -240.25 Q-32.0 -239.4 -42.05 -234.7 -43.8 -234.45 -45.35 -233.5 L-45.75 -236.55 Q-36.55 -241.3 -15.9 -243.65 -10.6 -234.5 5.65 -235.95 11.85 -236.55 18.35 -243.65 39.6 -240.7 47.9 -236.55 L47.65 -234.65 46.75 -235.1 44.8 -235.9 M11.55 -197.4 L28.1 -199.35 27.5 -199.2 Q19.6 -197.5 11.55 -197.3 L11.55 -197.4 M9.7 -225.1 Q21.65 -213.95 9.8 -202.3 L10.25 -165.3 Q19.85 -164.85 28.4 -168.95 L28.55 -168.15 27.3 -165.5 Q12.55 -158.4 -4.0 -159.8 L-18.25 -161.15 Q-28.0 -162.25 -28.4 -169.5 -18.6 -165.85 -8.2 -165.1 L-7.95 -202.3 Q-13.5 -207.2 -12.85 -214.3 -11.7 -227.2 0.85 -227.9 6.05 -228.55 9.7 -225.1 M11.55 -189.5 L11.55 -195.2 Q27.25 -196.6 39.1 -200.75 25.4 -192.1 11.55 -189.5 M44.65 -240.1 L58.8 -238.35 49.35 -238.35 44.65 -240.1 M11.55 -174.5 L11.55 -178.55 Q17.45 -179.35 23.2 -181.1 L35.2 -184.65 33.7 -183.7 Q23.4 -177.2 11.55 -174.5 M30.15 -165.4 L35.9 -160.25 Q18.7 -146.75 4.15 -144.35 L-5.05 -143.95 Q-21.35 -145.35 -33.85 -162.6 L-30.35 -165.1 Q-7.75 -154.85 17.55 -159.55 24.7 -160.7 30.15 -165.4 M18.15 -83.75 Q26.3 -95.25 35.2 -84.5 38.15 -77.75 32.3 -73.5 23.6 -67.05 17.8 -77.55 16.05 -80.8 18.15 -83.75 M38.75 -18.35 L38.55 2.55 Q30.15 9.9 29.2 21.2 28.3 31.95 35.5 40.1 L24.55 40.1 24.55 -3.9 34.0 -10.1 33.7 -21.6 Q31.15 -22.4 28.35 -22.5 L20.7 -22.75 17.45 -22.8 -33.6 -22.5 -33.9 -10.7 -24.45 -4.45 -24.45 39.8 -35.4 39.8 Q-31.7 35.2 -30.3 29.3 -26.55 13.55 -38.65 2.6 L-38.95 -18.65 Q-29.95 -25.6 -21.75 -33.35 -16.1 -38.7 -11.45 -44.95 L10.95 -44.95 Q21.3 -31.65 34.75 -21.45 L38.75 -18.35 M20.4 -2.4 L20.4 19.6 Q-4.45 4.6 -20.35 18.4 L-20.35 -2.4 20.4 -2.4 M11.25 -46.7 L-11.2 -46.7 -11.2 -98.1 Q-7.05 -95.7 -0.25 -95.4 6.55 -95.1 11.25 -97.5 L11.25 -46.7 M34.3 68.15 Q38.6 91.0 41.5 113.95 42.65 123.1 43.15 132.25 L34.3 132.55 24.25 68.75 34.3 68.15 M3.25 74.9 Q5.6 77.45 6.85 83.2 9.4 95.6 19.2 134.05 L19.25 133.4 Q21.25 136.7 22.15 140.25 L21.6 140.5 21.0 154.1 21.45 154.2 Q8.0 190.1 16.3 227.3 12.4 233.35 9.15 239.75 2.9 252.0 15.5 259.7 L12.45 259.5 Q7.25 256.05 6.15 250.2 3.6 236.85 13.15 225.75 L11.55 219.4 Q5.75 194.15 14.1 169.65 20.1 152.15 16.1 134.5 9.35 104.95 1.25 75.95 L3.6 77.4 3.25 74.9 M-22.5 140.0 Q-15.05 116.45 -8.65 92.5 -7.0 86.25 -6.45 79.75 -5.7 70.55 2.05 74.0 -1.65 72.5 -3.45 76.2 L-3.95 77.35 -1.45 75.85 Q-8.0 110.65 -20.55 143.6 L-21.4 142.95 -21.5 140.5 -22.5 140.0 M33.4 53.7 Q51.15 62.55 40.5 62.55 L-38.65 62.55 Q-48.5 57.15 -46.55 54.5 L-43.85 53.8 33.4 53.7 M50.7 239.35 Q49.15 237.45 49.3 233.25 51.75 221.4 60.45 224.7 L61.35 225.3 60.8 225.3 Q51.7 225.15 50.9 235.85 50.65 238.75 53.25 239.85 L50.7 239.35 M13.05 51.05 L-13.55 51.05 -13.25 42.2 13.05 42.2 13.05 51.05 M60.95 190.65 Q59.55 183.6 64.55 180.0 64.95 179.7 65.5 179.55 66.9 179.55 67.85 180.45 65.25 180.6 64.3 182.9 60.05 193.05 68.05 197.15 L68.5 197.35 67.65 197.5 Q61.35 198.4 60.95 190.65 M61.3 179.75 Q62.6 172.85 67.4 176.2 68.75 177.1 69.75 178.5 65.85 176.0 62.15 178.85 L61.3 179.75 M44.95 157.95 Q45.5 202.5 36.65 223.5 L24.55 223.2 33.4 158.2 44.95 157.95 M55.55 153.2 Q40.5 154.4 22.8 152.9 L23.1 141.7 Q36.95 135.2 55.85 142.3 L55.55 153.2 M66.5 200.15 L70.05 197.8 69.0 202.05 66.5 200.15 M62.7 200.45 Q52.1 208.9 59.1 220.8 57.5 220.8 56.25 221.45 52.1 223.5 50.0 226.3 55.0 207.4 59.1 188.35 58.8 195.4 63.85 199.85 63.2 200.05 62.7 200.45 M66.8 203.5 L67.8 204.5 67.35 204.6 Q58.6 206.05 60.35 216.9 60.75 219.55 63.0 220.5 61.0 220.5 59.6 219.25 58.2 217.95 58.2 216.15 56.8 204.95 65.8 203.35 L66.8 203.5 M66.1 221.0 L63.85 227.9 61.45 222.3 66.1 221.0 M48.0 233.85 Q48.3 236.95 50.25 240.6 46.65 238.7 47.8 234.5 L48.0 233.85 M29.85 233.2 Q39.0 232.65 39.3 243.25 39.6 253.9 30.45 254.2 21.3 254.2 21.0 244.15 20.7 233.8 29.85 233.2 M21.9 -5.35 L-21.2 -5.65 -22.0 28.15 -21.8 -8.0 22.2 -8.0 22.1 7.35 21.9 -5.35 M-1.7 -267.3 Q9.55 -269.45 12.45 -258.9 12.55 -245.8 -0.95 -247.15 -10.05 -248.15 -10.0 -257.3 -9.95 -265.7 -1.7 -267.3 M-41.9 -240.4 Q-45.45 -237.75 -56.95 -238.35 L-41.9 -240.4 M-36.4 -198.7 L-36.75 -200.5 Q-24.7 -196.3 -9.7 -195.2 L-9.7 -189.15 Q-23.0 -191.15 -36.4 -198.7 M-9.7 -178.75 L-9.7 -173.9 Q-21.9 -176.15 -33.15 -184.55 -26.45 -182.2 -19.85 -180.8 -14.7 -179.5 -9.7 -178.75 M-54.2 -130.55 Q-42.1 -90.1 -39.25 -82.15 -37.55 -77.35 -38.1 -66.15 -37.0 -47.7 -45.95 -23.0 L-46.9 -23.35 Q-39.45 -49.4 -41.85 -76.25 -42.65 -85.5 -45.0 -94.45 L-54.2 -130.55 M-49.75 -67.0 Q-49.8 -94.0 -59.25 -119.6 -66.7 -139.8 -49.9 -151.7 L-51.6 -148.75 Q-55.1 -142.45 -55.75 -135.3 -55.95 -131.65 -54.7 -128.15 L-53.3 -123.7 -43.05 -75.05 Q-41.9 -66.5 -45.45 -41.7 L-51.65 -10.95 Q-55.8 -11.85 -59.5 -11.95 -50.8 -42.25 -49.85 -65.15 -47.6 -66.25 -47.8 -67.35 L-49.75 -67.0 M-33.6 -87.45 Q-23.1 -93.7 -18.6 -82.7 -16.2 -76.95 -21.35 -73.35 -30.1 -67.25 -35.4 -77.75 -38.15 -83.2 -33.6 -87.45 M-53.0 -8.85 L-51.95 -8.6 -53.1 -2.4 Q-74.55 -1.4 -78.65 19.3 -79.75 24.75 -78.35 29.85 -88.35 8.5 -60.95 -8.95 -57.25 -9.3 -53.0 -8.85 M-24.15 68.75 L-28.9 100.95 -34.2 132.55 -43.05 132.25 Q-41.6 109.5 -34.5 68.15 L-24.15 68.75 M-68.4 175.8 L-64.5 174.45 -60.5 180.95 Q-66.6 173.65 -71.1 181.25 -70.55 178.05 -68.4 175.8 M-48.45 226.7 L-46.95 234.95 Q-47.05 237.15 -47.85 238.65 L-49.25 240.3 -48.75 239.35 Q-46.25 233.8 -49.25 227.0 -52.2 219.65 -59.0 220.8 -54.9 216.4 -56.65 208.7 -58.15 201.35 -63.45 199.85 L-62.55 198.65 Q-58.7 194.85 -59.0 188.35 -54.6 211.35 -50.15 222.3 L-48.45 226.7 M-12.5 258.85 Q-8.4 255.15 -7.55 249.6 -6.7 244.0 -9.7 239.4 -17.7 227.15 -13.9 213.35 -9.15 196.0 -14.25 178.25 -19.05 161.6 -20.45 144.8 -12.3 169.6 -9.25 194.95 -8.75 198.95 -9.85 202.75 -14.05 217.1 -9.45 230.45 L-7.3 235.4 Q0.5 250.65 -12.5 258.85 M-63.25 180.3 L-62.1 181.0 Q-60.8 183.35 -60.8 188.35 L-60.9 191.0 Q-61.1 193.65 -62.45 195.95 -63.1 197.05 -63.85 197.65 -65.65 198.9 -68.15 197.65 L-66.9 197.55 Q-57.55 188.8 -67.3 180.7 L-66.55 180.3 Q-64.9 179.8 -63.25 180.3 M-33.3 158.2 L-24.45 223.2 -36.3 223.5 Q-39.9 215.8 -41.25 207.2 -45.05 182.95 -44.85 157.95 L-33.3 158.2 M-22.7 152.9 Q-40.4 154.4 -55.2 153.2 L-55.75 142.3 Q-36.85 135.2 -23.0 141.7 L-22.7 152.9 M-24.05 236.5 Q-17.0 245.9 -26.4 252.0 -32.75 256.05 -36.65 249.4 -42.4 239.55 -32.7 233.6 -27.3 232.2 -24.05 236.5 M-67.55 203.15 Q-60.5 199.55 -57.5 208.0 -55.2 214.5 -59.85 218.75 -61.1 219.4 -62.95 219.55 -60.4 218.8 -60.05 215.9 -58.6 204.65 -67.55 203.15 M-61.35 222.1 L-63.15 225.75 -64.95 222.1 -61.35 222.1 M-53.2 240.1 L-55.2 240.0 Q-51.1 239.25 -51.05 234.6 -51.0 224.55 -59.2 223.95 L-58.3 222.5 Q-53.1 222.35 -51.0 227.15 L-49.75 236.9 Q-50.8 238.75 -53.2 240.1" fill="#016a3a" fill-rule="evenodd" stroke="none"/>
    <path d="M65.2 -252.25 Q49.85 -262.95 47.9 -264.9 41.4 -279.1 27.2 -287.65 14.8 -295.05 0.65 -296.2 -30.1 -296.2 -48.95 -262.55 L-67.9 -247.8 -67.55 -248.3 Q-57.25 -258.8 -49.55 -270.9 -34.85 -294.05 -7.65 -298.1 18.4 -301.9 37.7 -284.6 40.45 -282.1 42.15 -278.85 50.55 -263.0 65.2 -252.25 M39.3 -173.9 L40.6 -177.55 39.9 -174.25 39.3 -173.9 M45.55 -201.8 L45.8 -204.4 46.2 -204.85 45.55 -201.8 M11.4 -249.9 Q1.8 -230.65 -11.75 -253.4 L-10.15 -251.3 Q-8.45 -247.85 -5.15 -246.35 L-5.1 -246.3 Q1.95 -241.25 8.35 -247.4 L11.4 -249.9 M-42.05 -234.7 L-38.9 -213.7 Q-43.9 -222.3 -45.35 -233.5 -43.8 -234.45 -42.05 -234.7 M-29.8 -203.15 Q-21.4 -199.6 -9.75 -197.3 -21.75 -197.25 -29.8 -203.15 M28.1 -199.35 Q35.1 -201.6 40.05 -205.95 L44.8 -235.9 46.75 -235.1 47.5 -233.35 Q46.85 -218.5 42.3 -204.7 42.0 -203.85 40.95 -203.35 34.35 -200.6 27.5 -199.2 L28.1 -199.35 M39.25 -200.8 L40.8 -201.4 38.15 -187.85 31.25 -185.3 Q35.55 -187.35 37.55 -190.1 L39.25 -200.8 M40.35 -162.4 Q60.0 -161.2 78.1 -153.35 80.65 -152.25 82.35 -149.75 91.7 -136.3 86.1 -120.75 77.25 -96.3 76.4 -70.4 76.35 -68.5 77.2 -66.7 88.3 -42.85 81.2 -17.3 L78.0 -5.65 76.05 -6.65 Q82.95 -25.6 80.95 -41.7 80.35 -48.2 75.35 -63.55 68.25 -77.4 73.0 -83.3 78.6 -106.05 82.45 -119.65 89.2 -144.75 73.85 -154.45 71.75 -156.05 40.35 -162.4 M36.15 -185.05 L37.25 -185.5 35.2 -176.6 Q30.1 -171.65 23.65 -169.3 28.65 -172.15 33.4 -176.9 L36.15 -185.05 M71.5 -130.85 Q76.5 -144.45 66.2 -149.45 83.6 -153.6 71.5 -130.85 M51.85 -7.1 L51.7 -7.7 Q73.15 -12.3 84.4 6.75 88.1 13.1 87.85 20.3 87.35 34.75 75.35 43.05 L74.5 42.45 Q87.1 33.15 86.95 17.5 86.9 12.95 84.8 9.15 74.1 -10.2 51.85 -7.1 M57.1 140.85 L57.05 137.55 Q62.65 121.3 60.0 82.05 58.95 68.8 51.35 65.2 L59.4 65.2 Q65.6 90.9 62.05 124.25 L59.4 143.15 Q59.1 147.9 62.05 156.15 L68.55 167.95 Q73.15 177.85 73.3 183.45 L73.0 183.0 Q73.55 175.95 62.35 160.0 58.7 155.55 57.6 146.6 L57.65 141.1 57.1 140.85 M-51.3 65.2 Q-60.5 74.85 -60.95 88.8 -61.8 115.0 -56.45 140.65 L-57.55 141.1 -57.15 146.75 Q-58.3 151.15 -61.1 157.05 -66.6 165.3 -69.65 171.65 -64.95 160.1 -60.55 148.5 -59.55 145.95 -59.95 143.25 -63.8 118.6 -62.9 93.8 -62.35 79.5 -59.2 65.5 L-51.3 65.2 M-46.55 54.5 Q-58.0 57.7 -46.3 63.15 L-57.55 63.15 -56.35 60.8 -50.45 53.7 -43.85 53.8 -46.55 54.5 M46.6 63.15 Q60.65 58.55 36.2 53.7 L50.25 53.7 57.9 63.15 46.6 63.15 M67.7 222.05 L69.1 218.45 Q74.05 223.35 78.2 228.75 83.65 235.8 88.5 243.2 92.05 248.7 87.25 252.15 L87.15 250.35 67.7 222.05 M88.9 290.9 L87.35 254.6 Q89.35 252.95 90.7 250.95 L91.0 288.45 Q90.7 289.4 88.9 290.9 M-36.75 -200.5 L-36.4 -198.7 -34.75 -190.65 Q-31.95 -188.85 -28.0 -187.25 -19.0 -183.0 -9.7 -181.2 L-20.35 -183.05 Q-28.45 -184.5 -36.3 -187.85 L-39.25 -201.4 -36.75 -200.5 M-14.35 -167.35 Q-21.65 -168.1 -26.85 -171.3 L-33.3 -176.6 -35.7 -185.5 -33.55 -184.7 -31.95 -176.95 Q-24.25 -170.6 -14.35 -167.35 M-37.25 -162.6 L-36.9 -162.6 -38.05 -161.85 -69.55 -156.35 Q-55.0 -160.3 -40.0 -162.8 L-37.25 -162.6 M-67.3 -146.5 Q-77.6 -141.5 -72.6 -127.9 -84.7 -150.65 -67.3 -146.5 M-75.45 -80.15 Q-82.5 -104.6 -86.9 -129.75 -90.55 -150.35 -70.5 -156.1 -89.7 -145.2 -83.1 -123.65 -76.5 -102.1 -75.45 -80.15 M-75.95 -7.6 L-78.2 -5.95 Q-90.15 -39.0 -75.3 -70.45 -75.6 -59.5 -78.3 -48.35 -83.3 -27.5 -75.95 -7.6 M-76.9 41.8 Q-93.95 26.0 -83.75 5.3 -79.65 -3.05 -70.95 -6.95 -62.35 -10.75 -53.0 -8.85 -57.25 -9.3 -60.95 -8.95 -79.9 -7.45 -85.6 13.25 -86.65 28.9 -76.9 41.8 M-69.85 219.4 L-68.15 220.8 -88.2 250.3 Q-89.7 248.3 -90.6 245.9 -81.85 232.4 -69.85 219.4 M-88.8 290.55 L-90.9 288.45 -90.9 250.95 -88.3 253.75 -88.8 290.55" fill="#f2f5d3" fill-rule="evenodd" stroke="none"/>
    <path d="M70.05 188.65 Q70.3 191.0 69.15 192.75 67.65 192.75 67.65 188.65 67.35 186.25 68.55 184.5 70.05 184.5 70.05 188.65 M65.3 216.4 Q64.7 214.05 65.3 211.95 65.9 209.9 67.35 208.4 68.55 208.7 67.65 212.85 66.5 216.7 65.3 216.4 M60.3 229.1 Q60.6 231.45 59.4 233.5 58.2 235.3 56.15 236.15 56.15 234.1 57.05 232.05 58.2 229.95 60.3 229.1 M-69.95 188.95 Q-69.95 186.55 -68.45 184.8 -67.3 186.55 -67.3 188.65 -67.6 191.0 -68.75 192.75 -69.95 192.75 -69.95 188.95 M-66.55 208.1 Q-64.2 211.35 -65.2 215.2 -68.95 211.95 -67.3 207.25 L-66.55 208.1 M-56.65 231.45 Q-56.35 233.5 -56.95 235.9 -58.7 234.4 -59.3 232.35 -59.9 229.95 -59.0 227.9 -57.25 229.1 -56.65 231.45" fill="#e0f3c6" fill-rule="evenodd" stroke="none"/>
    <path d="M-70.05 35.55 Q-74.7 30.0 -74.7 22.45 -74.7 13.95 -68.7 7.9 -62.65 1.9 -54.15 1.9 L-49.95 2.3 Q-45.4 3.2 -41.65 6.1 L-39.6 7.9 Q-33.55 13.95 -33.55 22.5 -33.55 31.0 -39.6 37.0 L-40.55 37.9 Q-46.25 43.05 -54.15 43.05 -62.65 43.05 -68.7 37.0 L-70.05 35.55" fill="#b7b700" fill-rule="evenodd" stroke="none"/>
    <path d="M-70.05 35.55 Q-74.7 30.0 -74.7 22.45 -74.7 13.95 -68.7 7.9 -62.65 1.9 -54.15 1.9 L-49.95 2.3 Q-45.4 3.2 -41.65 6.1 L-39.6 7.9 Q-33.55 13.95 -33.55 22.5 -33.55 31.0 -39.6 37.0 L-40.55 37.9 M-70.05 35.55 L-68.7 37.0 Q-62.65 43.05 -54.15 43.05 -46.25 43.05 -40.55 37.9" fill="none" stroke="#000000" stroke-linecap="round" stroke-linejoin="round" stroke-width="4.25"/>
  </g>
</svg>
