<?xml version="1.0" encoding="UTF-8" standalone="no"?>
<svg xmlns:xlink="http://www.w3.org/1999/xlink" height="395.05px" width="411.45px" xmlns="http://www.w3.org/2000/svg">
  <g transform="matrix(1.0, 0.0, 0.0, 1.0, 240.95, 207.8)">
    <path d="M-91.7 186.9 Q-123.6 185.05 -151.8 170.25 -172.4 159.4 -177.65 137.25 -176.85 134.75 -175.65 132.55 -166.95 115.6 -152.45 103.05 -150.85 104.85 -148.4 105.55 -139.1 108.1 -130.05 105.15 L-122.4 87.25 -132.4 85.25 -142.6 67.9 Q-143.6 66.2 -143.6 64.55 -144.05 53.1 -135.95 43.35 -133.65 40.55 -132.55 37.3 -129.2 27.05 -119.6 22.4 -119.2 18.5 -116.8 15.45 -112.8 10.1 -105.85 9.6 -104.45 5.75 -101.05 3.6 -96.4 0.65 -90.8 1.6 -89.55 -1.2 -87.05 -2.85 -80.5 -7.05 -73.0 -4.45 -61.55 -8.35 -49.9 -5.2 L-56.45 -18.3 Q-62.55 -17.55 -67.4 -19.65 -89.55 -29.25 -108.75 -43.35 L-111.6 -75.0 Q-111.75 -76.75 -112.8 -78.05 L-113.15 -77.7 Q-128.3 -56.8 -152.45 -63.85 -154.9 -76.35 -143.55 -81.65 -134.8 -85.65 -135.75 -94.05 L-153.05 -101.85 -153.7 -101.3 -151.55 -97.75 Q-158.25 -88.55 -168.65 -84.1 L-172.35 -87.8 Q-175.65 -86.5 -178.9 -85.15 L-186.2 -91.7 Q-185.8 -96.75 -187.9 -101.25 -188.8 -103.2 -190.85 -104.15 L-193.95 -103.7 Q-198.85 -116.4 -194.6 -130.25 -196.2 -131.1 -197.9 -131.6 -221.35 -138.05 -233.4 -116.85 L-236.05 -117.55 -239.85 -119.15 -240.95 -120.0 -240.45 -122.1 Q-238.75 -128.55 -235.3 -134.5 -234.15 -137.0 -233.15 -137.8 -220.8 -153.85 -200.35 -152.5 -194.45 -152.0 -189.05 -149.5 -177.65 -181.8 -149.2 -199.9 -136.9 -207.75 -122.25 -207.8 -109.85 -207.85 -97.85 -204.4 -95.15 -203.55 -93.65 -201.3 -89.45 -194.95 -89.45 -187.35 -89.4 -177.0 -93.65 -167.6 L-84.8 -156.5 -76.75 -142.95 -76.6 -139.0 Q-59.35 -140.65 -42.25 -137.5 L-34.85 -137.1 Q-16.6 -139.8 0.95 -133.9 17.0 -128.6 22.2 -113.05 22.9 -110.8 22.65 -108.25 20.85 -89.7 8.75 -75.15 15.3 -64.8 11.9 -52.35 6.9 -34.1 11.1 -16.5 14.15 -3.55 21.9 7.05 32.25 21.25 45.5 33.35 64.5 23.15 85.75 19.5 122.2 13.35 157.85 23.5 L167.5 26.65 170.1 27.85 Q171.3 44.3 168.7 60.45 166.0 76.9 160.7 92.65 154.75 110.35 142.05 123.95 144.3 119.85 150.35 103.05 L157.85 80.65 Q166.15 50.6 166.9 30.15 L166.9 29.9 165.3 30.55 Q162.5 56.65 155.45 81.85 L154.1 86.6 Q149.25 104.2 141.45 120.55 137.1 125.3 130.45 127.0 130.35 125.75 130.55 124.55 132.7 109.7 135.7 95.1 140.7 70.4 144.85 45.8 L142.65 48.9 Q139.35 54.55 138.55 62.35 L138.1 65.35 125.3 132.2 125.85 131.95 Q131.55 129.8 141.5 124.5 128.4 139.1 109.85 134.7 101.5 132.8 95.05 127.6 92.8 125.8 91.3 123.3 82.2 108.0 78.95 90.6 L53.35 79.95 Q48.65 92.5 36.05 89.65 3.65 82.4 -24.5 65.25 L-33.2 59.7 Q-55.6 66.65 -79.05 69.1 L-65.6 78.35 Q-65.8 86.75 -59.1 90.9 -54.0 93.95 -51.15 99.2 L-51.2 106.75 -51.85 111.2 Q-35.55 114.7 -41.15 130.95 -41.8 132.75 -43.4 133.75 L-48.85 136.95 Q-58.0 171.75 -90.45 186.95 L-91.7 186.9 M-98.95 -197.35 L-94.5 -199.25 Q-111.6 -206.55 -130.2 -204.35 -151.85 -201.85 -165.05 -183.8 -174.6 -170.8 -181.6 -156.15 -186.85 -145.25 -190.0 -133.4 -192.9 -122.6 -193.8 -111.45 L-193.45 -105.8 -192.25 -105.35 Q-183.4 -111.65 -177.7 -121.1 L-172.55 -129.6 Q-164.75 -142.2 -154.1 -153.25 -141.3 -166.4 -127.25 -178.25 -114.2 -189.4 -98.95 -197.35 M-211.4 -147.75 Q-216.1 -147.05 -221.5 -145.05 -235.1 -136.4 -238.8 -120.55 L-233.3 -119.45 Q-229.7 -127.2 -222.4 -131.6 -208.5 -140.0 -193.7 -133.5 L-191.5 -142.15 -190.1 -146.45 -193.8 -147.75 Q-202.7 -151.15 -211.4 -147.75 M-138.4 -165.65 L-136.3 -168.15 Q-152.45 -153.45 -165.75 -136.15 L-165.7 -134.6 Q-166.25 -123.05 -177.35 -120.15 L-187.05 -106.0 -186.45 -104.25 Q-184.95 -99.2 -182.85 -96.4 -171.2 -110.55 -160.85 -125.7 -155.95 -133.0 -152.15 -140.9 L-156.0 -131.65 Q-157.6 -128.7 -159.45 -125.85 -169.25 -110.95 -180.5 -96.8 L-181.2 -95.9 -183.4 -92.6 -177.7 -87.6 -174.5 -89.05 Q-163.2 -94.3 -154.65 -103.45 L-153.55 -104.55 -149.9 -103.7 -136.5 -96.95 -133.75 -97.7 -129.85 -97.95 -112.95 -93.6 -110.0 -92.4 -108.6 -91.8 Q-100.0 -103.8 -98.65 -118.2 -97.5 -130.1 -85.8 -135.8 L-85.8 -137.9 -98.0 -150.2 -103.95 -155.65 Q-116.55 -143.8 -132.45 -137.0 L-136.85 -134.95 Q-123.45 -143.75 -110.35 -152.75 -101.0 -159.25 -95.6 -168.9 -87.75 -183.05 -94.15 -197.85 -111.4 -190.3 -125.2 -177.9 -138.75 -165.65 -147.65 -149.65 L-151.1 -143.15 -149.6 -146.8 Q-145.75 -157.25 -138.4 -165.65 M-170.25 -87.9 L-168.5 -86.9 Q-162.05 -90.2 -153.55 -98.65 L-153.9 -99.15 -155.35 -100.45 -171.3 -89.2 -170.25 -87.9 M-42.85 -130.05 L-42.45 -129.75 -48.1 -131.95 Q-65.65 -141.45 -83.35 -133.15 -100.45 -125.2 -97.55 -107.05 L-96.95 -104.9 Q-95.1 -99.0 -90.65 -94.9 L-90.6 -94.75 -95.6 -99.7 -101.3 -90.65 -84.4 -90.85 -86.35 -92.75 Q-77.25 -89.95 -66.8 -91.7 L-67.3 -92.1 Q-48.3 -98.15 -27.7 -97.2 -23.2 -113.75 -7.45 -119.25 L-7.85 -118.95 Q-24.2 -110.75 -27.75 -92.25 L-30.9 -77.3 -30.35 -77.25 -21.3 -78.45 -19.35 -78.55 -8.7 -78.2 -2.35 -77.2 3.25 -75.7 Q18.05 -89.2 21.25 -109.05 22.6 -117.3 15.8 -122.3 6.25 -129.45 -5.2 -132.5 -13.4 -134.6 -21.9 -133.95 L-46.0 -132.4 -44.45 -131.25 -42.85 -130.05 M-84.65 -150.7 L-86.7 -140.95 -84.2 -136.55 -80.3 -137.9 -79.45 -145.85 Q-80.65 -149.95 -84.4 -152.5 L-84.55 -151.65 -84.65 -150.7 M-91.55 -158.45 Q-91.75 -161.05 -93.4 -162.85 L-94.35 -163.9 -94.9 -164.4 -99.55 -159.45 -103.2 -156.05 -100.15 -153.35 -92.95 -147.55 -92.75 -148.25 -91.5 -157.7 -91.55 -158.45 M-90.05 -157.1 L-92.0 -146.6 -87.45 -141.65 -85.6 -151.8 -85.45 -152.6 -85.5 -153.15 -85.55 -153.4 Q-85.95 -155.15 -87.05 -156.4 L-89.9 -159.4 -90.05 -157.1 M-159.55 -118.4 Q-155.15 -122.85 -150.0 -126.35 L-150.4 -126.05 -151.25 -125.4 -159.65 -118.3 -160.1 -117.85 -159.55 -118.4 M-99.15 -108.25 L-113.7 -80.7 -110.0 -79.85 -96.8 -101.85 -99.15 -108.25 M-82.15 -81.0 L-81.95 -89.75 -101.8 -89.45 -108.3 -79.55 Q-106.45 -65.5 -101.05 -49.7 -100.4 -47.7 -98.5 -46.65 -94.1 -44.25 -89.1 -43.65 L-85.65 -42.85 Q-82.75 -46.15 -82.65 -50.9 L-82.15 -81.0 M-112.65 -84.25 L-108.75 -91.2 Q-121.45 -95.9 -133.7 -95.55 L-133.2 -92.95 -133.2 -92.35 Q-134.05 -83.55 -142.25 -80.1 L-143.5 -79.7 Q-148.85 -78.4 -149.55 -72.75 L-150.65 -64.9 Q-125.9 -60.35 -113.3 -83.2 L-112.65 -84.25 M-105.85 -61.45 L-109.45 -77.85 -108.35 -68.15 -105.75 -45.75 -105.55 -44.1 Q-88.1 -31.45 -69.05 -20.55 L-67.65 -19.95 -54.9 -21.55 -47.6 -5.9 Q-40.7 -4.25 -34.3 -5.85 -23.9 -8.3 -14.0 -12.7 L4.5 -21.2 5.3 -21.65 5.0 -26.85 4.0 -26.45 -12.2 -19.45 Q-23.05 -14.95 -34.15 -11.3 L-11.85 -20.85 3.95 -27.75 4.55 -28.2 3.95 -28.25 -10.15 -27.45 -48.7 -28.4 -51.15 -28.7 -52.05 -28.85 -52.2 -33.45 -57.2 -26.85 -50.65 -26.15 Q-46.85 -19.3 -42.1 -13.1 -40.0 -10.3 -36.55 -10.55 -39.85 -9.6 -42.95 -10.7 -45.65 -11.8 -46.05 -14.5 -47.8 -26.3 -59.15 -26.15 L-58.65 -27.2 -52.2 -35.75 -52.4 -46.0 Q-57.2 -36.75 -64.85 -29.6 -66.5 -28.05 -68.7 -29.2 -77.65 -33.9 -77.15 -43.1 -76.15 -60.6 -72.25 -77.6 L-70.55 -86.25 -70.55 -86.35 -69.95 -89.2 -80.3 -89.6 -80.65 -89.6 -80.9 -80.4 Q-79.1 -62.05 -83.6 -44.05 -84.1 -42.25 -85.8 -42.25 -104.95 -42.25 -105.85 -61.45 M-82.8 5.55 Q-73.8 7.2 -72.75 -0.5 -72.7 -1.15 -72.8 -1.8 -77.85 -3.55 -83.05 -2.15 -90.3 2.0 -84.05 5.2 L-82.8 5.55 M-36.35 -92.2 L-32.3 -83.55 -31.05 -89.45 -36.35 -92.2 M-65.3 -29.9 Q-54.5 -39.75 -52.2 -53.0 -51.6 -56.5 -51.4 -60.15 L-49.75 -72.1 Q-42.25 -76.65 -33.4 -78.4 L-41.75 -94.05 Q-55.45 -93.85 -68.55 -89.6 L-76.2 -45.75 Q-77.4 -34.05 -65.45 -29.9 L-65.3 -29.9 M-45.55 -71.7 L-46.25 -71.5 -46.6 -71.1 -48.85 -53.7 Q-49.8 -35.25 -49.2 -31.85 -34.15 -29.9 4.25 -31.5 L5.15 -37.9 5.65 -41.4 6.95 -50.65 8.1 -63.25 8.4 -71.3 Q0.3 -76.35 -9.3 -77.3 -28.1 -78.35 -45.55 -71.7 M-69.95 -0.1 L-70.5 -0.2 Q-70.45 1.95 -71.5 3.5 L-69.85 1.85 -68.6 0.7 -69.95 -0.1 M-65.15 -2.45 L-69.1 -1.7 -67.15 0.5 -67.75 2.3 Q-69.1 5.45 -72.3 7.45 L-83.4 14.45 Q-89.65 19.55 -95.4 25.95 -98.85 29.6 -101.75 33.65 -108.8 43.3 -113.15 54.85 L-113.7 56.25 -114.0 57.15 -114.95 59.85 -115.1 60.0 Q-120.55 63.25 -126.9 64.2 -137.9 66.45 -135.45 54.75 -134.55 50.3 -133.8 45.65 -138.75 52.85 -141.6 61.1 L-130.25 82.25 Q-112.65 85.75 -98.4 96.45 -107.95 90.55 -118.3 86.85 L-126.25 106.25 -126.5 106.8 -125.7 107.65 Q-112.4 121.5 -93.8 119.75 L-81.45 118.3 Q-79.5 118.3 -77.8 119.45 -68.25 125.3 -59.9 132.45 L-60.2 131.2 Q-65.7 113.4 -80.2 103.05 -86.05 98.9 -90.2 92.95 L-68.2 112.35 -61.45 123.9 -58.45 133.75 -52.75 138.7 -52.45 138.9 -52.4 138.05 -52.2 133.45 Q-58.2 125.55 -55.65 116.35 -55.15 114.4 -55.4 113.05 L-58.2 113.6 -58.7 113.65 Q-73.65 110.1 -67.45 95.75 -66.35 93.2 -63.4 93.05 -65.95 86.25 -72.5 83.1 -74.0 81.95 -75.85 81.6 -80.1 80.0 -84.9 79.95 L-88.9 80.4 Q-83.5 76.35 -76.0 80.3 L-70.1 83.05 -69.05 83.65 Q-68.55 83.9 -68.05 84.2 L-67.7 80.65 -67.55 79.05 -77.2 73.65 -79.5 72.35 -89.15 67.0 -89.55 67.0 Q-96.2 71.9 -104.4 73.15 -109.55 72.85 -112.25 68.3 L-112.8 67.15 Q-110.85 61.85 -104.65 61.45 L-106.05 60.75 Q-88.6 66.85 -70.3 64.45 -51.95 61.8 -34.3 56.05 L-28.6 54.0 -41.0 21.55 -44.05 12.6 Q-45.1 3.7 -50.55 -2.05 -51.25 -2.75 -52.6 -2.85 L-65.15 -2.45 M-42.45 -1.8 L-41.9 -3.2 -44.25 -3.2 -42.45 -1.8 M-15.8 33.9 Q-24.95 24.25 -34.65 -2.5 L-37.1 -2.7 Q-27.6 23.55 -15.8 33.9 L-15.65 34.05 -15.8 33.9 M-39.6 -3.2 L-41.0 -0.75 -27.7 32.1 Q-25.15 31.5 -23.35 34.25 -22.7 35.3 -21.5 35.3 L-16.55 34.8 -21.85 29.3 Q-28.65 26.35 -30.9 17.95 -31.85 14.4 -33.35 11.0 -36.3 4.3 -38.0 -2.9 L-39.6 -3.2 M5.55 -28.85 Q7.85 -33.85 7.0 -37.0 5.55 -29.75 5.55 -28.85 M17.95 19.15 Q16.6 5.15 7.8 -5.5 L4.4 -4.4 -5.0 -0.15 Q-17.2 4.3 -26.6 11.85 -22.0 26.8 -9.0 35.25 -5.9 37.35 -2.35 37.45 16.7 37.75 17.95 19.15 M4.9 -19.2 L-32.3 -2.15 -28.25 9.2 9.3 -8.55 4.9 -19.2 M164.05 29.25 L165.55 29.0 Q150.8 24.5 135.6 23.05 L135.4 24.1 136.0 24.3 137.9 24.85 Q150.65 28.5 163.4 29.25 L164.05 29.25 M110.95 43.1 Q119.5 30.95 131.7 22.4 L128.05 21.85 Q118.45 20.4 110.4 24.4 L109.9 24.8 108.05 26.4 107.95 26.45 Q95.25 39.2 89.4 56.75 84.45 71.55 85.2 86.85 85.95 102.9 89.6 118.85 L91.45 100.15 Q93.95 82.05 100.1 64.95 104.3 53.3 110.95 43.1 M124.9 32.45 L134.0 24.65 134.35 22.9 130.25 26.05 Q121.55 32.8 116.1 38.45 L115.7 38.9 117.4 38.75 124.9 32.45 M135.35 25.8 L125.75 33.55 118.9 39.6 131.5 41.9 145.9 44.6 Q146.25 46.7 144.5 54.85 L131.2 125.75 131.75 125.45 139.85 121.15 Q142.35 116.35 147.55 99.85 157.45 68.75 160.5 55.4 164.2 37.45 163.9 30.7 L135.35 25.8 M142.55 45.4 L142.75 45.1 142.55 45.05 114.65 40.0 113.85 41.0 Q109.95 45.1 108.25 49.9 L105.2 58.0 Q103.8 61.2 102.55 64.7 96.1 79.8 93.65 96.1 L92.45 103.35 Q90.9 113.85 91.15 122.6 94.9 126.3 105.75 129.5 112.85 131.8 123.9 132.7 129.05 100.95 135.9 69.05 L141.55 47.2 142.55 45.4 M112.45 21.2 L112.85 20.75 Q101.85 19.8 91.25 22.8 L96.0 22.9 94.45 24.3 90.1 28.4 70.5 30.6 Q63.6 32.0 57.2 34.8 56.15 35.2 55.2 35.75 L44.4 41.85 44.0 60.85 44.05 62.25 Q44.35 64.45 43.2 66.25 40.2 70.9 35.5 73.45 32.1 71.1 32.05 66.8 31.9 50.85 42.35 38.85 L43.65 37.5 20.1 15.1 20.25 20.65 25.25 24.8 39.85 36.75 35.5 41.25 35.2 41.55 19.15 28.75 18.5 28.25 Q9.6 45.45 -8.9 38.75 -11.45 37.85 -14.0 36.4 -18.65 38.45 -23.75 37.15 -25.5 36.6 -26.6 35.15 L-20.95 55.6 -28.75 57.55 Q2.8 79.2 40.45 87.55 44.55 88.45 47.1 84.05 L51.7 76.75 Q66.5 80.9 80.8 86.7 84.4 57.1 101.8 32.15 106.2 25.8 112.45 21.2 M93.8 24.3 Q94.15 24.15 93.9 23.95 L93.7 23.95 Q74.55 24.05 57.35 31.9 50.75 34.75 45.05 38.6 L44.8 39.35 44.3 41.05 44.95 40.55 Q60.4 30.1 82.8 27.85 L89.6 27.55 93.8 24.3 M43.15 40.25 L43.2 39.75 41.9 41.0 Q33.45 52.05 32.15 65.95 L35.6 72.3 Q40.1 69.9 41.5 64.95 44.95 53.05 43.15 40.25 M20.45 21.75 L20.1 21.5 19.8 22.8 18.85 26.95 19.45 27.45 35.25 40.2 38.6 36.6 20.45 21.75 M-32.05 12.3 Q-30.2 21.85 -22.7 28.4 L-32.05 12.3 M-91.1 19.1 L-74.2 5.75 -74.8 6.0 Q-79.8 8.1 -85.2 6.6 L-85.8 6.4 Q-86.75 11.7 -91.0 13.7 L-91.3 13.85 -98.8 14.8 Q-99.15 25.3 -110.0 26.8 L-109.8 27.8 Q-109.15 34.6 -113.55 37.65 L-115.35 38.65 Q-117.3 39.45 -119.85 39.8 L-120.1 39.85 -119.95 39.85 Q-112.0 40.8 -112.8 49.9 L-112.05 48.2 Q-105.95 34.9 -95.95 24.05 L-91.1 19.1 M-70.5 85.25 L-70.35 85.45 -70.0 85.95 -68.0 92.55 -68.0 92.7 -70.5 97.9 -74.25 99.8 Q-81.15 101.85 -84.7 95.9 -82.85 98.0 -79.8 98.9 -74.05 100.75 -71.3 96.0 L-70.65 94.65 -70.3 94.25 -70.6 94.4 Q-67.55 83.25 -80.85 82.2 -83.45 82.4 -85.3 84.2 L-85.8 84.75 Q-86.9 85.95 -87.2 87.65 -86.85 81.95 -77.9 81.4 -73.45 81.95 -70.5 85.25 M-53.75 108.65 Q-51.0 96.95 -62.1 94.1 L-62.25 94.1 Q-71.35 95.6 -67.45 105.6 -65.0 111.9 -58.35 112.75 -56.45 112.75 -55.1 111.6 -53.75 110.4 -53.8 108.75 L-53.75 108.65 M-23.6 52.6 L-39.1 4.25 -45.65 0.5 Q-39.6 27.7 -27.5 53.8 L-23.6 52.6 M-97.5 13.35 Q-93.45 13.7 -90.2 11.35 -87.65 9.45 -89.45 6.75 -92.95 1.5 -100.05 6.0 -106.2 12.05 -97.7 13.35 L-97.5 13.35 M-112.7 15.05 L-113.15 15.45 Q-118.05 19.3 -115.5 23.95 -113.35 25.15 -110.8 25.1 -100.15 24.5 -101.25 15.0 -101.45 13.0 -103.55 12.6 -108.7 11.8 -112.7 15.05 M-124.2 36.95 Q-112.45 41.05 -112.2 29.6 -112.15 24.25 -117.55 25.15 -121.1 25.85 -123.85 28.45 -128.15 34.1 -124.2 36.95 M-120.5 39.85 L-121.25 39.75 -121.3 39.75 -121.55 39.75 -122.1 39.8 Q-124.85 39.35 -126.8 36.9 L-127.05 36.6 -130.2 40.4 Q-135.05 51.2 -132.9 63.05 L-131.05 63.15 Q-123.2 62.7 -116.2 58.95 L-115.1 56.05 -114.25 53.8 Q-116.3 58.75 -123.65 58.95 -136.35 56.55 -129.5 44.75 -127.05 40.45 -122.1 39.8 L-121.95 39.8 -120.5 39.85 M-123.9 57.45 Q-111.05 55.3 -115.8 43.95 -116.85 41.4 -119.7 41.15 -124.3 40.6 -128.0 43.55 -134.35 50.55 -129.1 55.0 L-128.8 55.2 -128.35 55.55 -128.1 55.75 -126.55 56.65 Q-125.3 57.35 -123.9 57.45 M-104.85 72.0 Q-97.5 70.7 -91.35 66.65 L-90.45 66.05 -101.5 62.7 Q-108.15 62.55 -111.9 67.35 L-108.9 70.15 Q-107.1 71.7 -104.85 72.0 M-91.45 82.95 L-91.45 83.0 Q-92.65 87.4 -91.25 91.35 -94.35 86.9 -91.45 82.95 M-53.5 140.05 Q-66.35 127.85 -81.75 118.85 -87.85 121.0 -94.4 121.4 -112.55 122.0 -126.0 109.75 L-127.05 109.05 -142.5 109.65 -149.0 107.95 -147.3 109.95 -145.55 112.05 -138.4 119.9 Q-135.1 123.25 -131.35 126.25 L-126.9 128.35 -115.3 133.25 Q-124.95 132.75 -133.4 126.8 -138.95 123.2 -142.5 118.7 -161.7 137.1 -169.5 148.15 -159.25 159.35 -154.95 162.75 L-154.15 163.35 Q-140.7 172.3 -124.85 176.1 L-98.55 182.65 Q-88.75 185.75 -80.5 178.15 -67.55 166.05 -57.9 151.0 L-59.5 149.85 Q-73.9 138.75 -89.6 129.55 -98.9 131.85 -108.25 132.9 L-89.25 128.5 Q-79.35 133.05 -70.6 139.7 L-58.7 148.65 -57.2 149.75 -53.05 140.6 -53.5 140.05 M-149.15 110.05 L-150.1 108.85 -151.75 106.95 Q-165.15 120.45 -174.65 137.15 L-173.25 141.25 -171.85 144.4 -170.4 147.1 Q-163.0 136.95 -143.35 117.45 L-148.25 111.25 -149.15 110.05 M-44.25 117.9 L-44.8 117.05 Q-47.1 113.7 -51.25 113.7 -58.95 119.8 -52.3 130.6 -51.25 132.3 -49.7 133.65 L-48.4 133.8 Q-38.55 128.3 -43.55 119.1 -43.85 118.35 -44.25 117.9" fill="#000000" fill-rule="evenodd" stroke="none"/>
    <path d="M142.05 123.95 L141.5 124.5 Q131.55 129.8 125.85 131.95 L138.85 65.35 142.65 48.9 144.85 45.8 Q140.7 70.4 135.7 95.1 132.7 109.7 130.55 124.55 130.35 125.75 130.45 127.0 137.0 126.15 140.8 121.55 L141.45 120.55 Q149.25 104.2 154.1 86.6 L155.45 81.85 159.35 68.6 Q164.45 49.9 165.8 30.55 L166.9 29.9 166.9 30.15 Q166.15 50.6 157.85 80.65 L150.35 103.05 Q144.3 119.85 142.05 123.95 M-51.15 99.2 Q-50.4 100.45 -50.1 101.95 -49.6 104.85 -51.2 106.75 L-51.15 99.2 M-193.2 -112.45 Q-189.0 -130.35 -181.75 -147.05 -174.95 -162.85 -162.85 -175.1 -150.4 -187.75 -133.7 -194.05 -116.75 -200.4 -98.95 -197.35 -114.2 -189.4 -127.25 -178.25 -141.3 -166.4 -154.1 -153.25 -164.75 -142.2 -172.55 -129.6 L-177.7 -121.1 Q-183.4 -111.65 -192.25 -105.35 L-192.35 -105.45 Q-193.95 -108.6 -193.2 -112.45 M-98.0 -150.2 L-85.8 -137.9 -85.8 -135.8 Q-97.5 -130.1 -98.65 -118.2 -100.0 -103.8 -108.6 -91.8 L-110.0 -92.4 -112.95 -93.6 Q-122.95 -97.5 -128.8 -97.95 L-129.85 -97.95 -133.75 -97.7 Q-141.5 -103.2 -149.9 -103.7 L-153.55 -104.55 -154.65 -103.45 Q-160.5 -97.55 -167.8 -93.5 -175.2 -89.55 -179.75 -95.0 L-179.8 -95.4 -179.8 -95.45 Q-168.05 -110.5 -157.65 -126.9 -147.8 -142.55 -138.45 -158.55 -132.5 -168.8 -123.8 -176.95 -111.5 -188.65 -96.05 -195.75 -95.45 -194.75 -95.1 -193.6 -89.55 -174.35 -106.5 -161.4 -120.8 -150.45 -135.6 -140.3 -149.1 -131.1 -159.55 -118.4 L-160.1 -117.85 -159.65 -118.3 -161.7 -114.45 -159.85 -117.0 -160.8 -115.3 -161.5 -114.1 -157.6 -118.2 Q-154.55 -120.45 -149.4 -123.0 L-117.05 -138.3 Q-103.85 -144.35 -98.0 -150.2 M-168.5 -86.9 L-169.6 -87.85 Q-164.7 -88.05 -153.9 -99.15 L-153.55 -98.65 Q-162.05 -90.2 -168.5 -86.9 M-48.1 -131.95 L-42.45 -129.75 -42.85 -130.05 -41.75 -129.75 -43.75 -131.15 Q-37.2 -130.6 -21.7 -131.7 -3.25 -133.2 11.8 -122.45 L5.85 -125.3 Q9.95 -95.5 -2.25 -77.3 L-8.7 -78.2 -19.35 -78.55 Q-19.45 -97.3 -5.1 -119.65 L-19.85 -109.5 -19.2 -110.3 -9.5 -117.7 -6.75 -119.3 -7.85 -118.95 -7.45 -119.25 -3.7 -123.35 Q-21.05 -113.5 -38.7 -104.6 L-40.1 -104.35 Q-55.95 -107.15 -70.95 -101.75 -84.55 -96.85 -90.1 -108.25 -91.25 -110.55 -89.9 -112.6 -81.1 -126.15 -65.75 -132.4 L-68.75 -132.4 -77.15 -131.45 -74.1 -132.6 Q-62.75 -135.65 -39.95 -127.45 L-48.1 -131.95 M-79.65 -145.4 L-81.45 -140.45 -85.05 -139.65 -86.0 -140.95 Q-85.05 -144.35 -84.05 -151.1 -81.2 -147.9 -79.65 -145.4 M-30.3 -77.45 L-21.3 -78.45 -30.35 -77.25 -30.3 -77.45 M-93.15 -150.9 L-96.7 -151.6 Q-95.0 -153.65 -94.15 -155.65 -93.45 -158.0 -93.65 -160.35 L-91.55 -158.45 -91.5 -157.7 -93.15 -150.9 M-90.8 -145.55 L-91.5 -146.25 Q-90.1 -150.85 -89.55 -156.65 L-85.75 -152.9 -88.2 -145.35 -90.8 -145.55 M-85.45 -152.6 L-85.6 -151.8 -85.5 -152.7 -85.45 -152.6 M-157.3 -118.5 L-157.6 -118.2 -160.8 -115.3 Q-159.65 -116.85 -157.3 -118.5 M-89.1 -43.65 L-98.35 -48.85 -102.35 -63.0 Q-91.25 -72.95 -93.0 -88.55 L-90.5 -88.45 -90.0 -88.7 -88.95 -88.45 Q-87.75 -83.9 -83.5 -81.7 L-82.15 -81.0 -82.65 -50.9 Q-82.75 -46.15 -85.65 -42.85 L-89.1 -43.65 M-133.0 -92.3 Q-121.45 -93.0 -111.3 -88.25 L-110.7 -87.85 -112.65 -84.25 -113.3 -83.2 Q-117.8 -77.2 -126.5 -71.45 -138.25 -63.85 -142.15 -66.85 -146.7 -70.65 -143.5 -79.7 L-142.25 -80.1 Q-134.05 -83.55 -133.2 -92.35 L-133.0 -92.3 M-107.35 -64.45 Q-106.6 -62.15 -105.85 -61.45 -104.95 -42.25 -85.8 -42.25 -84.1 -42.25 -83.6 -44.05 -79.1 -62.05 -80.9 -80.4 L-72.25 -77.6 Q-76.15 -60.6 -77.15 -43.1 -77.65 -33.9 -68.7 -29.2 -66.5 -28.05 -64.85 -29.6 -57.2 -36.75 -52.4 -46.0 L-52.2 -35.75 -58.65 -27.2 Q-62.7 -26.75 -68.0 -24.3 -71.05 -25.5 -74.5 -27.45 -104.75 -47.9 -105.0 -46.6 L-105.25 -46.2 -107.35 -64.45 M-82.8 5.55 Q-89.45 3.05 -83.35 -1.4 L-83.05 -2.15 Q-77.85 -3.55 -72.8 -1.8 -72.7 -1.15 -72.75 -0.5 -73.8 7.2 -82.8 5.55 M-70.55 -86.35 L-70.55 -86.25 -70.95 -86.3 -70.55 -86.35 M-65.3 -29.9 Q-76.75 -38.75 -72.85 -53.6 -71.35 -59.35 -70.25 -65.4 L-68.25 -76.75 Q-55.65 -72.65 -51.4 -60.15 -51.6 -56.5 -52.2 -53.0 -54.5 -39.75 -65.3 -29.9 M8.1 -63.25 L6.95 -50.65 Q-6.05 -42.8 -20.55 -46.1 -40.2 -50.65 -46.25 -69.95 L-46.2 -70.3 Q-31.8 -74.75 -16.6 -74.55 -0.95 -74.4 8.1 -63.25 M5.65 -41.4 L5.15 -37.9 -41.55 -37.7 -48.45 -37.85 -48.35 -40.05 5.65 -41.4 M-48.7 -28.4 L-48.65 -25.85 Q-50.45 -27.75 -53.1 -26.75 L-53.65 -26.95 -51.15 -28.7 -48.7 -28.4 M-10.15 -27.45 L3.95 -28.25 3.95 -27.75 -11.85 -20.85 -10.15 -27.45 M4.5 -21.2 L-14.0 -12.7 -12.3 -19.2 4.05 -26.2 4.5 -21.2 M-77.65 -1.3 Q-78.4 -2.0 -79.4 -2.0 -80.5 -2.0 -81.15 -1.3 -80.5 -0.55 -79.4 -0.55 -78.4 -0.55 -77.65 -1.3 M-67.75 2.3 L-66.65 0.5 -68.75 -1.65 -65.15 -2.45 -52.6 -2.85 -44.05 12.6 -41.0 21.55 Q-41.9 42.45 -62.05 49.6 -79.05 55.5 -97.05 56.2 -105.05 56.5 -113.0 56.15 L-112.6 54.85 Q-109.45 46.7 -105.0 39.5 -113.9 55.75 -110.35 53.8 -103.95 31.75 -66.45 4.25 L-73.4 8.4 -72.3 7.45 Q-69.1 5.45 -67.75 2.3 M4.6 -4.15 Q13.6 6.2 15.7 14.0 15.95 18.7 14.8 23.95 L15.2 23.45 Q13.25 27.75 7.7 30.7 12.75 28.15 14.95 25.55 L16.55 23.15 Q13.65 32.25 1.1 32.5 -17.4 32.95 -21.95 13.85 L-5.9 0.6 4.6 -4.15 M137.9 24.85 L136.0 24.3 136.1 24.05 157.4 28.05 137.9 24.85 M109.6 25.5 Q106.15 30.6 103.45 39.95 100.1 51.25 110.95 43.1 104.3 53.3 100.1 64.95 93.95 82.05 91.45 100.15 88.0 81.65 92.7 63.55 94.95 54.9 98.4 46.65 102.9 35.65 109.4 25.7 L109.6 25.5 M128.95 27.55 L124.9 32.45 117.4 38.75 116.65 38.6 Q121.45 33.6 128.95 27.55 M142.55 45.4 L142.55 45.05 142.75 45.1 142.55 45.4 M111.85 44.8 Q111.6 45.45 112.0 45.45 114.95 41.4 141.55 47.2 L135.9 69.05 137.95 57.4 Q131.9 88.45 119.6 114.15 114.75 122.25 109.7 123.45 99.3 122.25 92.9 104.5 L93.6 100.1 Q96.4 82.05 102.55 64.7 103.8 61.2 105.2 58.0 L111.85 44.8 M112.45 21.2 L111.9 21.4 112.85 20.75 112.45 21.2 M105.85 24.75 Q88.5 36.8 78.2 74.9 76.1 76.3 73.0 76.5 64.05 69.1 51.35 71.9 L51.35 73.5 Q47.0 68.6 44.6 63.55 L44.55 61.55 44.0 60.85 44.4 41.85 55.2 35.75 70.5 30.6 90.1 28.4 90.85 28.4 95.35 24.3 105.85 24.75 M41.75 37.65 Q24.15 58.3 33.85 78.6 16.95 81.2 2.35 69.5 L0.2 69.05 Q-10.2 59.3 -11.1 41.8 11.75 57.55 19.15 28.75 L35.2 41.55 35.5 41.25 35.9 41.55 40.35 36.75 34.45 31.9 41.75 37.65 M53.6 40.55 Q45.55 49.05 56.85 51.5 57.05 48.0 60.1 46.3 75.6 36.9 94.2 36.0 75.8 33.0 57.45 38.2 55.15 38.85 53.6 40.55 M15.2 40.85 Q21.55 48.5 33.25 48.5 34.1 43.75 37.95 41.9 L35.2 41.55 Q22.55 41.9 19.75 30.95 18.7 36.1 15.45 40.05 15.0 40.55 15.2 40.85 M-73.2 0.8 Q-78.15 5.2 -83.15 0.65 -83.7 0.1 -83.55 -0.8 -86.05 6.3 -77.15 4.35 -74.05 3.8 -73.2 0.8 M-77.2 73.65 L-67.55 79.05 -67.7 80.65 -73.3 76.75 Q-70.0 79.75 -69.3 82.6 L-69.05 83.65 -70.1 83.05 Q-72.45 81.25 -76.0 80.3 -83.5 76.35 -88.9 80.4 -89.65 80.6 -90.2 80.95 L-90.8 81.45 -89.95 81.3 -89.85 81.2 -89.75 81.25 -89.95 81.3 -91.45 82.95 Q-94.35 86.9 -91.25 91.35 L-90.2 92.95 Q-86.05 98.9 -80.2 103.05 -65.7 113.4 -60.2 131.2 L-68.05 123.5 Q-82.45 109.65 -94.2 115.95 -108.4 117.55 -114.6 111.95 L-116.65 111.75 Q-121.7 107.55 -120.95 100.9 L-120.3 100.0 Q-119.05 89.15 -103.35 94.0 -100.4 95.6 -97.0 97.55 -102.6 87.9 -119.9 82.0 -127.75 74.65 -126.9 64.4 L-124.6 63.95 Q-118.35 63.7 -115.1 60.0 L-114.95 59.85 Q-114.1 58.85 -113.5 57.55 -111.75 58.7 -106.05 60.75 L-104.65 61.45 Q-110.85 61.85 -112.8 67.15 L-112.25 68.3 Q-109.55 72.85 -104.4 73.15 L-103.95 73.2 Q-95.85 71.8 -89.15 67.0 L-79.5 72.35 -73.3 76.75 Q-74.9 75.2 -77.2 73.65 M-75.85 81.6 Q-74.0 81.95 -72.5 83.1 -71.4 83.95 -70.5 85.25 -73.45 81.95 -77.9 81.4 L-75.85 81.6 M-58.7 113.65 L-58.2 113.6 -56.2 113.45 -58.7 113.65 M-125.7 107.65 L-126.5 106.8 -126.25 106.25 -125.7 107.65 M-70.0 85.95 Q-66.65 89.3 -67.85 92.35 L-68.0 92.55 -70.0 85.95 M-79.8 98.9 L-81.0 98.2 Q-91.4 89.95 -80.85 82.2 -67.55 83.25 -70.6 94.4 L-71.95 94.45 Q-83.05 94.35 -81.25 82.9 -86.05 86.65 -83.6 91.65 -78.55 102.05 -70.65 94.65 L-71.3 96.0 Q-74.05 100.75 -79.8 98.9 M-76.05 90.0 Q-74.05 90.9 -73.6 89.05 -72.1 82.45 -78.55 84.55 -80.15 88.1 -76.05 90.0 M-53.75 108.65 Q-64.15 108.95 -64.0 98.2 L-63.85 97.35 Q-71.25 104.2 -61.4 109.95 -57.0 112.45 -53.8 108.75 -53.75 110.4 -55.1 111.6 -56.45 112.75 -58.35 112.75 -62.2 112.05 -64.75 108.95 -72.7 99.25 -62.25 94.1 L-62.1 94.1 Q-51.0 96.95 -53.75 108.65 M-57.6 97.2 Q-59.55 95.3 -61.15 97.3 -62.75 99.3 -60.3 100.3 -54.05 103.0 -57.6 97.2 M-89.95 6.9 Q-92.9 12.45 -98.85 9.05 L-99.9 7.8 Q-98.5 16.15 -91.1 10.0 -89.7 8.8 -89.95 6.9 M-100.05 6.0 Q-92.95 1.5 -89.45 6.75 -87.65 9.45 -90.2 11.35 -93.45 13.7 -97.5 13.35 -105.05 12.05 -100.05 6.0 M-97.7 6.9 Q-97.4 7.95 -95.4 7.65 -93.5 7.25 -93.8 6.0 -94.2 4.9 -95.9 5.5 -97.75 5.8 -97.7 6.9 M-113.15 20.6 Q-106.3 26.7 -102.3 18.7 -109.2 23.9 -113.2 16.3 L-113.75 18.0 Q-114.3 19.6 -113.15 20.6 M-112.7 15.05 Q-108.7 11.8 -103.55 12.6 -101.45 13.0 -101.25 15.0 -100.15 24.5 -110.8 25.1 L-114.9 23.95 Q-116.95 18.85 -112.7 15.05 M-118.85 29.65 Q-116.9 29.6 -116.9 28.4 -116.9 27.3 -118.85 27.35 -121.0 27.3 -121.0 28.4 -121.0 29.6 -118.85 29.65 M-105.55 15.1 Q-105.95 13.8 -108.0 14.35 -110.35 14.7 -110.0 15.95 -109.65 17.0 -107.5 16.7 -105.55 16.1 -105.55 15.1 M-114.85 34.4 Q-113.6 33.75 -113.25 32.25 L-112.85 30.4 Q-118.9 36.35 -123.7 29.55 -123.2 38.05 -114.85 34.4 M-123.85 28.45 Q-121.1 25.85 -117.55 25.15 -112.15 24.25 -112.2 29.6 -112.45 41.05 -124.2 36.95 -126.95 33.15 -123.8 29.05 L-123.85 28.45 M-128.0 43.55 Q-124.3 40.6 -119.7 41.15 -116.85 41.4 -115.8 43.95 -111.05 55.3 -123.9 57.45 -126.5 56.75 -128.1 55.75 L-128.35 55.55 -128.8 55.2 -129.1 55.0 Q-133.05 51.45 -128.35 44.4 L-128.0 43.55 M-128.45 47.9 Q-128.7 58.25 -118.65 54.3 -115.15 52.8 -116.0 48.8 -121.85 56.5 -128.05 48.7 L-128.45 47.9 M-122.75 43.85 Q-125.1 43.85 -125.1 45.1 -125.1 46.35 -122.75 46.35 -120.45 46.35 -120.45 45.1 -120.45 43.85 -122.75 43.85 M-126.0 109.75 Q-133.55 115.25 -145.55 112.05 L-147.3 109.95 -142.5 109.65 -127.05 109.05 -126.0 109.75 M-130.95 126.2 Q-122.55 124.6 -114.0 125.1 L-111.2 125.25 -111.6 125.0 Q-98.35 128.15 -86.25 122.2 -66.4 125.65 -54.3 141.45 L-58.55 148.4 -70.0 139.6 Q-78.9 132.5 -89.25 128.5 L-108.25 132.9 Q-98.9 131.85 -89.6 129.55 -73.9 138.75 -59.5 149.85 -77.3 176.95 -97.9 182.65 L-98.3 182.6 -124.15 176.1 Q-140.95 172.2 -154.85 162.4 -157.9 143.75 -142.0 131.3 -138.1 128.2 -133.4 126.8 -124.95 132.75 -115.3 133.25 L-126.9 128.35 -130.95 126.2 M-148.25 111.25 L-151.2 110.15 -149.15 110.05 -148.25 111.25 M-150.1 108.85 Q-170.1 126.0 -173.1 140.35 L-173.25 141.25 -174.65 137.15 Q-165.15 120.45 -151.75 106.95 L-150.1 108.85 M-51.25 113.7 Q-47.1 113.7 -44.8 117.05 L-44.25 117.9 Q-50.15 117.4 -45.7 122.65 -44.75 123.7 -43.8 122.35 -42.75 120.85 -43.55 119.1 -38.55 128.3 -48.4 133.8 -51.0 132.65 -52.5 129.85 -57.85 120.05 -51.25 113.7 M-51.7 126.55 Q-49.7 130.75 -44.8 130.4 -53.7 124.0 -48.05 114.9 -56.0 117.55 -51.7 126.55" fill="#6bbd46" fill-rule="evenodd" stroke="none"/>
    <path d="M-221.5 -145.05 L-211.4 -147.75 Q-199.0 -149.6 -191.5 -142.15 L-193.7 -133.5 Q-208.5 -140.0 -222.4 -131.6 -229.7 -127.2 -233.3 -119.45 L-238.8 -120.55 Q-235.1 -136.4 -221.5 -145.05 M-182.85 -96.4 Q-183.1 -99.9 -185.0 -102.75 -186.0 -104.2 -186.5 -106.0 L-176.8 -120.15 Q-171.8 -121.25 -168.55 -125.15 -164.6 -129.9 -165.0 -136.25 L-163.8 -137.95 Q-152.3 -152.85 -138.4 -165.65 -145.75 -157.25 -149.6 -146.8 L-151.1 -143.15 -152.15 -140.9 Q-155.95 -133.0 -160.85 -125.7 -171.2 -110.55 -182.85 -96.4 M-133.75 -97.7 L-136.5 -96.95 -149.9 -103.7 Q-141.5 -103.2 -133.75 -97.7 M-154.65 -103.45 Q-163.2 -94.3 -174.5 -89.05 L-177.7 -87.6 -183.4 -92.6 -181.2 -95.9 -180.95 -96.0 Q-180.45 -96.05 -180.1 -95.7 L-179.8 -95.45 -179.8 -95.4 -179.75 -95.0 Q-175.2 -89.55 -167.8 -93.5 -160.5 -97.55 -154.65 -103.45 M-169.6 -87.85 L-170.25 -87.9 -171.3 -89.2 -155.35 -100.45 -153.9 -99.15 Q-164.7 -88.05 -169.6 -87.85 M-77.15 -131.45 L-68.75 -132.4 -65.75 -132.4 Q-81.1 -126.15 -89.9 -112.6 -91.25 -110.55 -90.1 -108.25 -84.55 -96.85 -70.95 -101.75 -55.95 -107.15 -40.1 -104.35 L-38.7 -104.6 Q-21.05 -113.5 -3.7 -123.35 L-7.45 -119.25 Q-23.2 -113.75 -27.7 -97.2 -48.3 -98.15 -67.3 -92.1 L-66.8 -91.7 Q-77.25 -89.95 -86.35 -92.75 L-84.4 -90.85 -101.3 -90.65 -95.6 -99.7 -90.6 -94.75 -90.65 -94.9 Q-95.1 -99.0 -96.95 -104.9 L-97.5 -107.3 -96.7 -112.15 Q-93.45 -128.05 -77.15 -131.45 M-9.5 -117.7 L-19.2 -110.3 -19.85 -109.5 -5.1 -119.65 Q-19.45 -97.3 -19.35 -78.55 L-21.3 -78.45 -30.3 -77.45 -30.9 -77.3 -27.75 -92.25 Q-24.2 -110.75 -7.85 -118.95 L-9.5 -117.7 M-79.45 -145.85 L-80.3 -137.9 -84.2 -136.55 -86.7 -140.95 -84.65 -150.7 -86.0 -140.95 -85.05 -139.65 -81.45 -140.45 -79.65 -145.4 -79.45 -145.85 M-94.35 -163.9 Q-98.15 -158.25 -99.15 -158.9 L-99.55 -159.45 -94.9 -164.4 -94.35 -163.9 M-100.15 -153.35 L-100.2 -154.45 -98.25 -152.8 -98.65 -153.2 -92.95 -147.55 -100.15 -153.35 M-92.75 -148.25 L-93.15 -150.9 -91.5 -157.7 -92.75 -148.25 M-92.0 -146.6 L-90.8 -145.55 -88.2 -145.35 -85.75 -152.9 -85.55 -153.4 -85.5 -153.15 -85.5 -152.7 -85.6 -151.8 -87.45 -141.65 -92.0 -146.6 M-99.15 -108.25 L-96.8 -101.85 -110.0 -79.85 -113.7 -80.7 -99.15 -108.25 M-82.15 -81.0 L-83.5 -81.7 Q-87.75 -83.9 -88.95 -88.45 L-90.0 -88.7 -90.5 -88.45 -93.0 -88.55 Q-91.25 -72.95 -102.35 -63.0 L-98.35 -48.85 -89.1 -43.65 Q-94.1 -44.25 -98.5 -46.65 -100.4 -47.7 -101.05 -49.7 -106.45 -65.5 -108.3 -79.55 L-101.8 -89.45 -81.95 -89.75 -82.15 -81.0 M-112.65 -84.25 L-110.7 -87.85 -111.3 -88.25 Q-121.45 -93.0 -133.0 -92.3 L-133.2 -92.95 -133.7 -95.55 Q-121.45 -95.9 -108.75 -91.2 L-112.65 -84.25 M-143.5 -79.7 Q-146.7 -70.65 -142.15 -66.85 -138.25 -63.85 -126.5 -71.45 -117.8 -77.2 -113.3 -83.2 -125.9 -60.35 -150.65 -64.9 L-149.55 -72.75 Q-148.85 -78.4 -143.5 -79.7 M-107.35 -64.45 L-108.35 -68.15 -109.45 -77.85 -105.85 -61.45 Q-106.6 -62.15 -107.35 -64.45 M-105.75 -45.75 L-105.25 -46.2 -105.0 -46.6 Q-104.75 -47.9 -74.5 -27.45 -71.05 -25.5 -68.0 -24.3 -62.7 -26.75 -58.65 -27.2 L-59.15 -26.15 Q-47.8 -26.3 -46.05 -14.5 -45.65 -11.8 -42.95 -10.7 -39.85 -9.6 -36.55 -10.55 -40.0 -10.3 -42.1 -13.1 -46.85 -19.3 -50.65 -26.15 L-57.2 -26.85 -52.2 -33.45 -52.05 -28.85 -51.15 -28.7 -53.65 -26.95 -53.1 -26.75 Q-50.45 -27.75 -48.65 -25.85 L-48.7 -28.4 -10.15 -27.45 -11.85 -20.85 -34.15 -11.3 Q-23.05 -14.95 -12.2 -19.45 L-12.3 -19.2 -14.0 -12.7 Q-23.9 -8.3 -34.3 -5.85 -40.7 -4.25 -47.6 -5.9 L-54.9 -21.55 -67.65 -19.95 -69.05 -20.55 Q-88.1 -31.45 -105.55 -44.1 L-105.75 -45.75 M-72.25 -77.6 L-80.9 -80.4 -80.65 -89.6 -80.3 -89.6 -69.95 -89.2 -70.55 -86.35 -70.95 -86.3 -70.55 -86.25 -72.25 -77.6 M-51.4 -60.15 Q-55.65 -72.65 -68.25 -76.75 L-70.25 -65.4 Q-71.35 -59.35 -72.85 -53.6 -76.75 -38.75 -65.3 -29.9 L-65.45 -29.9 Q-77.4 -34.05 -76.2 -45.75 L-68.55 -89.6 Q-55.45 -93.85 -41.75 -94.05 L-33.4 -78.4 Q-42.25 -76.65 -49.75 -72.1 L-51.4 -60.15 M6.95 -50.65 L5.65 -41.4 -48.35 -40.05 -48.45 -37.85 -41.55 -37.7 5.15 -37.9 4.25 -31.5 Q-34.15 -29.9 -49.2 -31.85 -49.8 -35.25 -48.85 -53.7 L-46.6 -71.1 -46.55 -70.95 -46.35 -70.25 -46.25 -69.95 Q-40.2 -50.65 -20.55 -46.1 -6.05 -42.8 6.95 -50.65 M-69.85 1.85 Q-69.5 0.85 -69.95 -0.1 L-68.6 0.7 -69.85 1.85 M-113.0 56.15 Q-105.05 56.5 -97.05 56.2 -79.05 55.5 -62.05 49.6 -41.9 42.45 -41.0 21.55 L-28.6 54.0 -34.3 56.05 Q-51.95 61.8 -70.3 64.45 -88.6 66.85 -106.05 60.75 -111.75 58.7 -113.5 57.55 L-114.0 57.15 -113.7 56.25 -113.0 56.15 M-44.05 12.6 L-52.6 -2.85 Q-51.25 -2.75 -50.55 -2.05 -45.1 3.7 -44.05 12.6 M-42.45 -1.8 L-44.25 -3.2 -41.9 -3.2 -42.45 -1.8 M-15.8 33.9 Q-27.6 23.55 -37.1 -2.7 L-34.65 -2.5 Q-24.95 24.25 -15.8 33.9 M-39.6 -3.2 L-38.0 -2.9 Q-36.3 4.3 -33.35 11.0 -31.85 14.4 -30.9 17.95 -28.65 26.35 -21.85 29.3 L-16.55 34.8 -21.5 35.3 Q-22.7 35.3 -23.35 34.25 -25.15 31.5 -27.7 32.1 L-41.0 -0.75 -39.6 -3.2 M16.55 23.15 Q17.5 21.25 17.95 19.15 16.7 37.75 -2.35 37.45 -5.9 37.35 -9.0 35.25 -22.0 26.8 -26.6 11.85 -17.2 4.3 -5.0 -0.15 L-5.9 0.6 -21.95 13.85 Q-17.4 32.95 1.1 32.5 13.65 32.25 16.55 23.15 M4.9 -19.2 L9.3 -8.55 -28.25 9.2 -32.3 -2.15 4.9 -19.2 M91.45 100.15 L89.6 118.85 Q85.95 102.9 85.2 86.85 84.45 71.55 89.4 56.75 95.25 39.2 107.95 26.45 L107.8 26.7 108.05 26.4 109.9 24.8 109.4 25.7 Q102.9 35.65 98.4 46.65 94.95 54.9 92.7 63.55 88.0 81.65 91.45 100.15 M135.35 25.8 L163.9 30.7 Q164.2 37.45 160.5 55.4 157.45 68.75 147.55 99.85 142.35 116.35 139.85 121.15 L131.75 125.45 145.2 54.85 Q146.6 45.8 146.45 44.6 L128.35 41.2 119.85 39.3 135.35 25.8 M111.9 21.4 L112.45 21.2 Q106.2 25.8 101.8 32.15 84.4 57.1 80.8 86.7 66.5 80.9 51.7 76.75 L47.1 84.05 Q44.55 88.45 40.45 87.55 2.8 79.2 -28.75 57.55 L-20.95 55.6 -26.6 35.15 Q-25.5 36.6 -23.75 37.15 -18.65 38.45 -14.0 36.4 -11.45 37.85 -8.9 38.75 9.6 45.45 18.5 28.25 L19.15 28.75 Q11.75 57.55 -11.1 41.8 -10.2 59.3 0.2 69.05 L2.35 69.5 Q16.95 81.2 33.85 78.6 24.15 58.3 41.75 37.65 41.75 38.35 42.35 38.85 31.9 50.85 32.05 66.8 32.1 71.1 35.5 73.45 40.2 70.9 43.2 66.25 44.35 64.45 44.05 62.25 L44.6 63.55 Q47.0 68.6 51.35 73.5 L51.35 71.9 Q64.05 69.1 73.0 76.5 76.1 76.3 78.2 74.9 88.5 36.8 105.85 24.75 L107.0 24.85 111.9 21.4 M93.7 23.95 L93.0 24.3 93.8 24.3 89.6 27.55 82.8 27.85 Q60.4 30.1 44.95 40.55 L45.0 39.15 45.05 38.6 Q50.75 34.75 57.35 31.9 74.55 24.05 93.7 23.95 M92.9 104.5 Q99.3 122.25 109.7 123.45 114.75 122.25 119.6 114.15 131.9 88.45 137.95 57.4 L135.9 69.05 Q129.05 100.95 123.9 132.7 112.85 131.8 105.75 129.5 94.9 126.3 91.15 122.6 90.9 113.85 92.45 103.35 L92.9 104.5 M41.9 41.0 L41.6 41.9 Q42.3 41.0 43.15 40.25 44.95 53.05 41.5 64.95 40.1 69.9 35.6 72.3 L32.15 65.95 Q33.45 52.05 41.9 41.0 M19.8 22.8 L20.45 21.75 38.6 36.6 35.25 40.2 19.6 26.95 19.45 27.45 18.85 26.95 19.8 22.8 M-32.05 12.3 L-22.7 28.4 Q-30.2 21.85 -32.05 12.3 M-85.2 6.6 Q-79.8 8.1 -74.8 6.0 L-74.2 5.75 -91.1 19.1 -92.9 20.25 Q-94.05 21.15 -95.95 24.05 -105.95 34.9 -112.05 48.2 -112.1 40.6 -119.5 39.85 -117.6 39.65 -115.35 38.65 L-113.55 37.65 Q-107.0 33.5 -109.45 26.8 -104.35 26.3 -100.95 23.05 -97.25 19.55 -98.8 14.8 L-91.3 13.85 -91.0 13.7 -88.7 12.45 Q-85.2 10.05 -85.2 6.6 M-119.95 39.85 L-120.1 39.85 -119.85 39.8 -119.6 39.85 -119.95 39.85 M-73.2 0.8 Q-74.05 3.8 -77.15 4.35 -86.05 6.3 -83.55 -0.8 -83.7 0.1 -83.15 0.65 -78.15 5.2 -73.2 0.8 M-70.1 83.05 L-76.0 80.3 Q-72.45 81.25 -70.1 83.05 M-88.9 80.4 L-84.9 79.95 Q-80.1 80.0 -75.85 81.6 L-77.9 81.4 Q-86.85 81.95 -87.2 87.65 -86.9 85.95 -85.8 84.75 L-87.3 89.65 -87.1 90.9 Q-86.45 93.9 -84.7 95.9 -81.15 101.85 -74.25 99.8 L-70.7 98.45 -70.5 97.9 -68.0 92.7 -67.85 92.35 Q-66.65 89.3 -70.0 85.95 L-70.35 85.45 -70.5 85.25 Q-71.4 83.95 -72.5 83.1 -65.95 86.25 -63.4 93.05 -66.35 93.2 -67.45 95.75 -73.65 110.1 -58.7 113.65 L-56.2 113.45 -55.4 113.05 Q-55.15 114.4 -55.65 116.35 -58.2 125.55 -52.2 133.45 L-52.4 138.05 -52.75 138.7 -58.45 133.75 -61.45 123.9 -68.2 112.35 -90.2 92.95 -91.25 91.35 Q-92.65 87.4 -91.45 83.0 L-91.45 82.95 -89.95 81.3 -89.75 81.25 -89.85 81.2 -90.2 80.95 Q-89.65 80.6 -88.9 80.4 M-60.2 131.2 L-59.9 132.45 Q-68.25 125.3 -77.8 119.45 -79.5 118.3 -81.45 118.3 L-93.8 119.75 Q-112.4 121.5 -125.7 107.65 L-126.25 106.25 -118.3 86.85 Q-107.95 90.55 -98.4 96.45 -112.65 85.75 -130.25 82.25 L-141.6 61.1 Q-138.75 52.85 -133.8 45.65 -134.55 50.3 -135.45 54.75 -137.9 66.45 -126.9 64.2 L-126.9 64.4 Q-127.75 74.65 -119.9 82.0 -102.6 87.9 -97.0 97.55 -100.4 95.6 -103.35 94.0 -119.05 89.15 -120.3 100.0 L-120.95 100.9 Q-121.7 107.55 -116.65 111.75 L-114.6 111.95 Q-108.4 117.55 -94.2 115.95 -82.45 109.65 -68.05 123.5 L-60.2 131.2 M-70.6 94.4 L-70.3 94.25 -70.65 94.65 Q-78.55 102.05 -83.6 91.65 -86.05 86.65 -81.25 82.9 -83.05 94.35 -71.95 94.45 L-70.6 94.4 M-53.8 108.75 Q-57.0 112.45 -61.4 109.95 -71.25 104.2 -63.85 97.35 L-64.0 98.2 Q-64.15 108.95 -53.75 108.65 L-53.8 108.75 M-23.6 52.6 L-27.5 53.8 Q-39.6 27.7 -45.65 0.5 L-39.1 4.25 -23.6 52.6 M-89.95 6.9 Q-89.7 8.8 -91.1 10.0 -98.5 16.15 -99.9 7.8 L-98.85 9.05 Q-92.9 12.45 -89.95 6.9 M-113.15 20.6 Q-114.3 19.6 -113.75 18.0 L-113.2 16.3 Q-109.2 23.9 -102.3 18.7 -106.3 26.7 -113.15 20.6 M-114.85 34.4 Q-123.2 38.05 -123.7 29.55 -118.9 36.35 -112.85 30.4 L-113.25 32.25 Q-113.6 33.75 -114.85 34.4 M-121.3 39.75 L-121.25 39.75 -120.5 39.85 -121.5 39.8 -121.3 39.75 M-121.95 39.8 L-122.1 39.8 Q-127.05 40.45 -129.5 44.75 -136.35 56.55 -123.65 58.95 L-123.1 58.95 Q-117.65 58.8 -115.1 56.05 L-116.2 58.95 Q-123.2 62.7 -131.05 63.15 L-132.9 63.05 Q-135.05 51.2 -130.2 40.4 L-130.4 41.55 -126.8 36.9 Q-124.85 39.35 -122.1 39.8 L-121.55 39.75 -121.5 39.8 -121.95 39.8 M-128.45 47.9 L-128.05 48.7 Q-121.85 56.5 -116.0 48.8 -115.15 52.8 -118.65 54.3 -128.7 58.25 -128.45 47.9 M-101.5 62.7 L-90.45 66.05 -91.35 66.65 Q-97.5 70.7 -104.85 72.0 -109.2 70.95 -111.2 67.35 L-110.7 66.6 Q-106.65 62.85 -101.5 62.7 M-126.0 109.75 Q-112.55 122.0 -94.4 121.4 -87.85 121.0 -81.75 118.85 -66.35 127.85 -53.5 140.05 L-54.3 141.45 Q-66.4 125.65 -86.25 122.2 -98.35 128.15 -111.6 125.0 L-111.2 125.25 -114.0 125.1 Q-122.55 124.6 -130.95 126.2 L-131.35 126.25 Q-135.1 123.25 -138.4 119.9 L-145.55 112.05 Q-133.55 115.25 -126.0 109.75 M-154.15 163.35 L-154.95 162.75 Q-159.25 159.35 -169.5 148.15 -161.7 137.1 -142.5 118.7 -138.95 123.2 -133.4 126.8 -138.1 128.2 -142.0 131.3 -157.9 143.75 -154.85 162.4 L-154.15 163.35 M-142.5 109.65 L-147.3 109.95 -149.0 107.95 -142.5 109.65 M-149.15 110.05 L-151.2 110.15 -148.25 111.25 -143.35 117.45 Q-163.0 136.95 -170.4 147.1 L-171.85 144.4 -171.55 143.95 -173.1 140.35 Q-170.1 126.0 -150.1 108.85 L-149.15 110.05 M-51.7 126.55 Q-56.0 117.55 -48.05 114.9 -53.7 124.0 -44.8 130.4 -49.7 130.75 -51.7 126.55" fill="#016a3a" fill-rule="evenodd" stroke="none"/>
    <path d="M-84.8 -156.5 Q-79.45 -149.8 -77.65 -145.75 -76.85 -143.95 -76.75 -142.95 L-84.8 -156.5 M157.85 23.5 L168.1 25.95 167.5 26.65 157.85 23.5 M-90.45 186.95 L-90.95 187.25 -91.7 186.9 -90.45 186.95 M-193.8 -111.45 Q-192.9 -122.6 -190.0 -133.4 -186.85 -145.25 -181.6 -156.15 -174.6 -170.8 -165.05 -183.8 -151.85 -201.85 -130.2 -204.35 -111.6 -206.55 -94.5 -199.25 L-98.95 -197.35 Q-116.75 -200.4 -133.7 -194.05 -150.4 -187.75 -162.85 -175.1 -174.95 -162.85 -181.75 -147.05 -189.0 -130.35 -193.2 -112.45 L-193.8 -111.45 M-191.5 -142.15 Q-199.0 -149.6 -211.4 -147.75 -202.7 -151.15 -193.8 -147.75 L-190.1 -146.45 -191.5 -142.15 M-147.65 -149.65 Q-138.75 -165.65 -125.2 -177.9 -111.4 -190.3 -94.15 -197.85 -87.75 -183.05 -95.6 -168.9 -101.0 -159.25 -110.35 -152.75 -123.45 -143.75 -136.85 -134.95 L-132.45 -137.0 Q-116.55 -143.8 -103.95 -155.65 L-98.0 -150.2 Q-103.85 -144.35 -117.05 -138.3 L-149.4 -123.0 Q-154.55 -120.45 -157.6 -118.2 L-161.5 -114.1 -160.8 -115.3 -159.85 -117.0 -161.7 -114.45 -159.65 -118.3 -151.25 -125.4 -152.35 -124.15 -150.4 -126.05 -150.0 -126.35 Q-155.15 -122.85 -159.55 -118.4 -149.1 -131.1 -135.6 -140.3 -120.8 -150.45 -106.5 -161.4 -89.55 -174.35 -95.1 -193.6 -95.45 -194.75 -96.05 -195.75 -111.5 -188.65 -123.8 -176.95 -132.5 -168.8 -138.45 -158.55 -147.8 -142.55 -157.65 -126.9 -168.05 -110.5 -179.8 -95.45 L-180.1 -95.7 Q-180.45 -96.05 -180.95 -96.0 L-180.5 -96.8 Q-169.25 -110.95 -159.45 -125.85 -157.6 -128.7 -156.0 -131.65 L-147.65 -149.65 M-48.1 -131.95 L-39.95 -127.45 Q-62.75 -135.65 -74.1 -132.6 L-77.15 -131.45 Q-93.45 -128.05 -96.7 -112.15 L-97.5 -107.3 -97.55 -107.05 Q-100.45 -125.2 -83.35 -133.15 -65.65 -141.45 -48.1 -131.95 M-2.25 -77.3 Q9.95 -95.5 5.85 -125.3 L11.8 -122.45 Q-3.25 -133.2 -21.7 -131.7 -37.2 -130.6 -43.75 -131.15 L-44.45 -131.25 -46.0 -132.4 -21.9 -133.95 Q-13.4 -134.6 -5.2 -132.5 6.25 -129.45 15.8 -122.3 22.6 -117.3 21.25 -109.05 18.05 -89.2 3.25 -75.7 L-2.35 -77.2 -2.25 -77.3 M-79.45 -145.85 L-79.65 -145.4 Q-81.2 -147.9 -84.05 -151.1 L-84.55 -151.65 -84.4 -152.5 Q-80.65 -149.95 -79.45 -145.85 M-94.35 -163.9 L-93.4 -162.85 Q-91.75 -161.05 -91.55 -158.45 L-93.65 -160.35 Q-93.45 -158.0 -94.15 -155.65 -95.0 -153.65 -96.7 -151.6 L-93.15 -150.9 -92.75 -148.25 -92.95 -147.55 -98.65 -153.2 -98.25 -152.8 -100.2 -154.45 -100.15 -153.35 -103.2 -156.05 -99.55 -159.45 -99.15 -158.9 Q-98.15 -158.25 -94.35 -163.9 M-89.55 -156.65 L-90.05 -157.1 -89.9 -159.4 -87.05 -156.4 Q-85.95 -155.15 -85.55 -153.4 L-85.75 -152.9 -89.55 -156.65 M-85.5 -152.7 L-85.5 -153.15 -85.45 -152.6 -85.5 -152.7 M-157.3 -118.5 Q-159.65 -116.85 -160.8 -115.3 L-157.6 -118.2 -157.3 -118.5 M-45.55 -71.7 Q-28.1 -78.35 -9.3 -77.3 0.3 -76.35 8.4 -71.3 L8.1 -63.25 Q-0.95 -74.4 -16.6 -74.55 -31.8 -74.75 -46.2 -70.3 L-46.35 -70.25 -46.55 -70.95 -45.55 -71.7 M3.95 -28.25 L4.55 -28.2 3.95 -27.75 3.95 -28.25 M4.0 -26.45 L5.0 -26.85 5.3 -21.65 4.5 -21.2 4.05 -26.2 4.0 -26.45 M-77.65 -1.3 Q-78.4 -0.55 -79.4 -0.55 -80.5 -0.55 -81.15 -1.3 -80.5 -2.0 -79.4 -2.0 -78.4 -2.0 -77.65 -1.3 M-73.4 8.4 L-66.45 4.25 Q-103.95 31.75 -110.35 53.8 -113.9 55.75 -105.0 39.5 L-101.75 33.65 Q-98.85 29.6 -95.4 25.95 -89.65 19.55 -83.4 14.45 L-73.4 8.4 M4.4 -4.4 L7.8 -5.5 Q16.6 5.15 17.95 19.15 17.5 21.25 16.55 23.15 L14.95 25.55 Q12.75 28.15 7.7 30.7 13.25 27.75 15.2 23.45 L14.8 23.95 Q15.95 18.7 15.7 14.0 13.6 6.2 4.6 -4.15 L4.4 -4.4 M5.55 -28.85 Q5.55 -29.75 7.0 -37.0 7.85 -33.85 5.55 -28.85 M135.4 24.1 L135.6 23.05 Q150.8 24.5 165.55 29.0 L164.05 29.25 157.4 28.05 136.1 24.05 135.4 24.1 M110.4 24.4 Q118.45 20.4 128.05 21.85 L131.7 22.4 Q119.5 30.95 110.95 43.1 100.1 51.25 103.45 39.95 106.15 30.6 109.6 25.5 L110.4 24.4 M130.25 26.05 L134.35 22.9 134.0 24.65 124.9 32.45 128.95 27.55 130.25 26.05 M117.4 38.75 L115.7 38.9 116.1 38.45 116.65 38.6 117.4 38.75 M131.5 41.9 L118.9 39.6 125.75 33.55 119.85 39.3 128.35 41.2 131.5 41.9 M142.55 45.05 L142.55 45.4 141.55 47.2 Q114.95 41.4 112.0 45.45 111.6 45.45 111.85 44.8 112.15 43.75 113.85 41.0 L114.65 40.0 142.55 45.05 M112.85 20.75 L111.9 21.4 107.0 24.85 105.85 24.75 95.35 24.3 94.45 24.3 96.0 22.9 91.25 22.8 Q101.85 19.8 112.85 20.75 M42.35 38.85 Q41.75 38.35 41.75 37.65 L34.45 31.9 25.25 24.8 20.25 20.65 20.1 15.1 43.65 37.5 42.35 38.85 M93.8 24.3 L93.0 24.3 93.7 23.95 93.9 23.95 Q94.15 24.15 93.8 24.3 M45.05 38.6 L45.0 39.15 44.8 39.35 45.05 38.6 M53.6 40.55 Q55.15 38.85 57.45 38.2 75.8 33.0 94.2 36.0 75.6 36.9 60.1 46.3 57.05 48.0 56.85 51.5 45.55 49.05 53.6 40.55 M15.2 40.85 Q15.0 40.55 15.45 40.05 18.7 36.1 19.75 30.95 22.55 41.9 35.2 41.55 L37.95 41.9 Q34.1 43.75 33.25 48.5 21.55 48.5 15.2 40.85 M-91.1 19.1 L-95.95 24.05 Q-94.05 21.15 -92.9 20.25 L-91.1 19.1 M-79.5 72.35 L-77.2 73.65 Q-74.9 75.2 -73.3 76.75 L-79.5 72.35 M-67.7 80.65 L-68.05 84.2 Q-68.55 83.9 -69.05 83.65 L-69.3 82.6 Q-70.0 79.75 -73.3 76.75 L-67.7 80.65 M-52.4 138.05 L-52.45 138.9 -52.75 138.7 -52.4 138.05 M-76.05 90.0 Q-80.15 88.1 -78.55 84.55 -72.1 82.45 -73.6 89.05 -74.05 90.9 -76.05 90.0 M-57.6 97.2 Q-54.05 103.0 -60.3 100.3 -62.75 99.3 -61.15 97.3 -59.55 95.3 -57.6 97.2 M-97.7 6.9 Q-97.75 5.8 -95.9 5.5 -94.2 4.9 -93.8 6.0 -93.5 7.25 -95.4 7.65 -97.4 7.95 -97.7 6.9 M-105.55 15.1 Q-105.55 16.1 -107.5 16.7 -109.65 17.0 -110.0 15.95 -110.35 14.7 -108.0 14.35 -105.95 13.8 -105.55 15.1 M-118.85 29.65 Q-121.0 29.6 -121.0 28.4 -121.0 27.3 -118.85 27.35 -116.9 27.3 -116.9 28.4 -116.9 29.6 -118.85 29.65 M-122.75 43.85 Q-120.45 43.85 -120.45 45.1 -120.45 46.35 -122.75 46.35 -125.1 46.35 -125.1 45.1 -125.1 43.85 -122.75 43.85 M-54.3 141.45 L-53.5 140.05 -53.05 140.6 -57.2 149.75 -58.7 148.65 -58.55 148.4 -54.3 141.45 M-59.5 149.85 L-57.9 151.0 Q-67.55 166.05 -80.5 178.15 -88.75 185.75 -98.55 182.65 L-98.3 182.6 -97.9 182.65 Q-77.3 176.95 -59.5 149.85 M-44.25 117.9 Q-43.85 118.35 -43.55 119.1 -42.75 120.85 -43.8 122.35 -44.75 123.7 -45.7 122.65 -50.15 117.4 -44.25 117.9" fill="#f2f5d3" fill-rule="evenodd" stroke="none"/>
  </g>
</svg>
