<?xml version="1.0" encoding="UTF-8" standalone="no"?>
<svg xmlns:xlink="http://www.w3.org/1999/xlink" height="541.0px" width="506.3px" xmlns="http://www.w3.org/2000/svg">
  <g transform="matrix(1.0, 0.0, 0.0, 1.0, 0.0, 0.0)">
    <path d="M393.0 249.5 Q436.85 269.3 468.2 227.05 480.1 211.0 490.3 193.65 497.8 180.8 500.8 168.0 480.5 211.75 443.85 242.3 476.45 209.85 498.85 169.15 L498.35 168.8 Q478.25 165.55 458.4 159.85 447.75 156.65 440.15 148.65 L438.8 147.1 Q415.2 190.15 370.25 212.0 366.4 213.85 368.85 218.05 394.15 262.05 440.5 244.9 422.95 257.5 401.65 249.7 393.0 246.6 385.3 241.5 L378.0 235.45 375.8 233.35 Q351.35 210.55 384.1 196.7 L386.05 195.8 Q429.55 178.5 441.85 133.5 L443.1 127.5 Q428.6 172.3 386.85 194.05 L385.6 194.65 Q375.3 199.9 364.25 203.4 361.0 204.3 361.05 206.6 361.95 233.95 390.65 248.3 L393.0 249.5 M491.65 161.3 Q512.6 160.85 503.6 178.45 L466.7 231.05 Q458.55 246.35 444.2 255.05 425.75 266.3 406.05 259.55 400.25 257.6 395.85 260.35 370.8 275.7 347.65 259.55 L346.55 263.7 Q334.5 318.2 318.0 368.85 L316.35 373.55 316.25 373.85 316.2 373.95 316.1 373.9 315.85 373.7 Q313.1 407.95 308.25 442.35 306.9 451.8 312.2 459.75 323.65 477.1 316.4 490.5 L265.2 541.0 177.7 523.3 174.5 491.65 205.15 470.45 Q193.4 438.8 209.75 409.15 L188.1 403.15 Q135.5 430.95 111.6 487.0 L109.4 486.05 Q109.1 486.2 108.75 486.3 L107.5 485.7 19.1 459.25 15.55 457.8 0.0 362.3 Q12.95 351.65 29.65 346.85 L59.4 354.65 Q90.65 330.0 130.6 333.15 L133.7 326.25 Q136.75 320.0 143.1 316.65 L146.6 314.95 146.2 302.45 140.1 300.85 Q148.95 279.7 159.4 259.4 L159.45 258.65 Q152.85 224.35 116.45 234.25 L115.75 232.9 Q124.3 201.5 151.55 199.45 L150.1 193.85 150.8 192.55 Q170.75 144.25 216.65 143.85 L229.0 93.35 Q216.35 91.8 219.2 80.7 223.0 65.8 232.4 53.95 252.1 29.35 280.45 11.45 305.05 -4.1 333.15 1.45 378.3 10.15 397.85 52.75 404.7 61.1 409.7 70.65 420.55 91.35 412.15 113.05 418.3 111.95 424.45 111.8 462.05 110.75 443.75 145.9 464.75 161.85 491.65 161.3 M336.5 18.0 Q368.2 25.35 391.15 48.2 L388.7 44.1 Q374.65 20.15 349.6 8.1 L346.1 6.85 Q318.8 -2.85 292.95 10.15 283.0 15.0 274.65 22.2 L284.6 18.8 285.65 18.45 285.65 18.5 Q310.1 11.7 336.5 18.0 M391.85 51.6 L389.4 49.0 Q379.65 39.3 367.95 32.1 362.45 28.8 355.85 26.05 349.75 23.5 342.65 21.4 L329.9 18.2 Q321.55 16.65 312.95 16.65 309.95 16.6 307.05 16.7 L302.25 17.1 Q273.1 20.85 248.75 37.75 228.4 55.35 222.0 81.7 L221.95 82.05 227.7 76.25 Q247.2 56.45 269.8 47.8 283.55 42.7 297.35 41.75 308.55 41.0 319.75 43.0 L320.2 43.05 Q327.1 44.15 334.0 46.35 L347.55 51.75 Q353.95 54.8 359.4 58.15 L362.2 59.95 Q374.2 67.95 383.95 78.7 L394.5 93.3 405.0 114.9 408.95 114.05 409.65 110.55 Q415.1 85.35 401.2 64.05 L391.85 51.6 M343.3 165.55 L350.2 170.4 366.5 159.05 384.7 111.5 372.1 99.35 367.6 101.75 368.75 97.0 356.55 89.6 357.95 102.4 Q352.65 93.4 343.8 87.75 344.75 90.85 345.35 94.1 346.1 97.9 343.7 101.2 343.55 96.4 340.5 92.95 L339.6 92.25 Q332.2 89.15 330.15 97.3 L324.15 91.85 Q321.85 89.6 319.05 90.15 L318.1 92.5 315.4 89.35 Q314.65 88.5 313.75 87.95 309.15 85.7 307.35 90.25 307.1 85.05 310.15 80.4 L309.45 80.35 308.75 80.65 Q307.5 81.25 306.6 82.4 303.85 85.8 301.85 89.65 L299.7 75.9 299.4 77.3 Q297.65 82.95 292.55 85.9 296.6 78.45 293.65 70.65 L287.7 70.4 286.75 77.15 Q285.6 76.7 284.75 75.55 282.75 73.05 281.3 70.05 L276.05 70.15 274.05 72.0 274.25 70.05 260.4 71.0 245.95 134.6 262.85 136.75 263.55 136.85 Q291.55 140.1 317.05 152.1 299.4 136.45 275.8 135.95 295.15 133.35 314.7 133.85 342.65 134.6 330.4 158.2 L343.3 165.55 M303.65 92.1 Q307.65 90.55 309.45 92.1 L310.35 93.45 309.85 98.0 Q305.4 100.3 300.2 100.15 L300.85 100.4 Q303.1 104.9 302.15 110.4 295.0 117.35 286.1 112.1 L292.35 112.65 Q286.15 109.1 288.55 102.5 L285.7 103.05 Q282.65 103.6 280.9 101.3 L280.9 101.2 303.65 92.1 M329.95 98.9 L334.15 100.4 Q342.75 110.05 347.2 121.55 343.35 123.9 340.35 119.4 338.6 125.5 332.25 125.0 L337.8 127.9 Q327.7 127.2 325.0 117.6 326.5 111.0 333.15 110.4 328.15 106.1 326.7 99.8 L329.95 98.9 M332.55 78.0 L365.1 92.3 Q375.45 98.15 383.4 107.45 L385.9 110.3 391.75 112.2 391.3 108.1 Q347.9 70.4 290.65 66.05 273.7 65.1 256.95 67.45 L260.0 69.15 Q297.4 65.6 332.55 78.0 M383.35 95.85 Q370.55 80.3 352.65 71.05 312.85 50.6 269.85 61.25 L263.5 64.0 Q287.4 63.0 310.95 67.55 354.85 76.3 389.75 104.15 L383.35 95.85 M393.4 111.3 L393.35 111.2 393.4 111.35 393.7 112.7 392.15 115.85 378.95 151.35 396.15 124.2 397.4 122.25 Q395.35 114.45 393.4 111.3 M373.3 156.8 L375.3 156.2 391.1 113.75 386.25 112.3 385.55 114.1 368.75 158.2 373.3 156.8 M316.9 57.45 Q361.45 63.35 387.5 99.45 394.5 109.2 398.75 120.15 L403.55 115.5 Q390.15 82.15 360.05 62.6 321.95 37.8 277.6 49.55 243.05 58.5 220.7 86.55 L231.25 90.1 Q249.15 63.8 280.05 57.1 286.7 55.65 293.5 55.15 L316.9 57.45 M335.5 115.9 L334.25 113.9 328.95 115.05 Q329.55 118.2 330.3 118.7 332.2 119.95 335.15 117.85 336.2 117.05 335.5 115.9 M337.3 136.4 L338.4 136.35 Q348.0 136.5 341.2 144.45 343.65 138.65 337.3 136.4 M342.2 166.85 Q340.5 165.8 338.8 164.9 321.6 155.3 303.2 148.2 275.1 138.8 245.3 136.1 L237.75 135.35 238.3 131.3 253.25 71.3 253.75 69.45 Q242.7 76.95 234.85 87.7 L234.7 87.9 Q234.3 88.45 234.15 89.05 224.6 122.5 219.65 156.75 L221.15 157.25 222.85 157.8 229.65 156.0 249.7 155.3 250.5 155.4 250.95 155.45 Q275.15 158.15 297.95 166.8 L299.85 167.5 Q317.9 173.45 332.6 185.05 L334.3 187.1 337.7 185.75 Q341.85 177.65 348.85 171.55 L342.2 166.85 M291.55 171.65 Q309.3 181.7 329.7 184.7 L329.5 184.45 Q314.5 174.0 297.2 168.4 L292.6 166.7 Q262.05 154.4 229.65 157.6 L225.9 158.6 241.4 162.7 250.15 162.3 269.9 164.5 291.55 171.65 M331.55 190.5 L333.2 188.35 332.15 187.55 331.65 187.15 330.4 192.05 331.55 190.5 M336.3 188.7 L336.6 187.9 335.5 188.75 Q309.3 224.05 340.3 252.7 L341.7 253.55 Q335.7 248.5 332.35 241.55 331.7 240.25 331.5 238.8 349.6 268.4 383.3 259.45 L396.25 254.3 388.4 253.05 Q381.95 251.6 376.4 248.25 332.85 222.4 351.1 175.5 L354.4 169.4 Q339.35 180.85 334.1 197.25 L336.3 188.7 M330.0 186.45 L324.8 185.15 319.85 191.55 Q322.15 193.25 321.3 196.1 317.2 209.9 307.85 207.2 L299.2 218.5 299.4 219.45 Q299.9 223.7 296.7 226.7 L299.25 228.75 299.8 231.8 301.85 233.1 Q308.4 226.1 316.6 236.9 L330.0 186.45 M416.1 114.65 L402.4 117.7 Q371.5 156.35 357.65 201.4 357.5 178.75 374.75 158.15 L374.35 158.15 367.3 160.65 Q330.2 196.7 363.45 235.8 375.75 250.25 394.7 252.4 395.4 252.65 395.5 252.4 L394.8 252.1 Q365.7 240.45 358.75 211.05 L357.9 206.55 Q372.3 197.6 387.95 191.5 417.8 176.45 433.15 146.6 450.65 112.75 416.1 114.65 M341.35 266.0 L343.75 256.1 Q342.5 255.7 341.35 255.1 322.6 246.55 321.75 225.25 L321.7 224.35 321.55 224.7 320.9 227.1 316.6 244.6 310.5 265.45 292.05 334.55 317.25 363.45 338.4 278.15 341.35 266.0 M250.8 105.55 L258.65 70.2 255.75 68.6 239.3 134.0 244.3 134.45 250.8 105.55 M172.9 175.6 L174.15 173.55 Q177.35 168.4 181.95 165.05 186.0 162.45 190.8 160.55 L193.05 161.1 Q160.8 178.75 175.25 214.25 176.45 217.15 178.2 219.85 L178.25 219.8 182.55 208.8 183.35 208.45 207.0 153.85 217.85 156.25 218.9 151.15 219.35 149.0 Q211.7 147.1 204.05 150.35 L203.05 150.6 Q170.6 159.9 152.7 194.65 L152.9 195.3 Q155.2 200.65 159.65 204.45 L168.95 211.4 172.0 213.05 Q166.15 194.1 172.9 175.6 M226.4 164.25 L226.35 163.25 219.5 161.2 219.55 164.65 226.4 164.25 M230.2 161.55 L230.2 164.15 Q240.65 172.2 229.7 183.45 L229.3 196.85 Q236.85 213.45 236.7 235.05 L240.65 236.05 258.55 184.15 Q256.35 176.7 262.1 170.85 L265.6 170.35 230.2 161.55 M215.9 157.9 L207.55 156.15 186.8 204.8 Q192.75 203.9 198.8 204.5 202.05 204.65 201.85 207.95 L206.75 207.65 Q208.65 204.85 212.15 205.7 L212.55 204.2 213.35 203.65 213.7 200.3 215.8 197.45 215.2 184.0 214.7 183.8 Q206.05 173.25 215.85 164.6 L215.9 157.9 M219.35 183.8 L219.2 196.5 225.95 196.25 226.05 183.4 219.35 183.8 M215.65 168.5 L214.9 180.15 229.85 179.65 230.9 167.9 215.65 168.5 M299.65 106.35 L295.45 102.35 Q292.85 103.85 292.7 104.25 291.95 106.0 295.4 108.1 297.25 109.5 299.65 106.35 M277.8 172.95 L275.85 173.2 Q281.25 179.4 272.75 187.3 279.5 205.85 263.85 210.7 L253.6 239.0 257.4 239.9 282.35 216.05 283.1 216.5 Q284.9 213.55 288.2 212.7 L297.05 200.5 Q296.45 186.45 308.8 184.55 L310.75 181.6 277.8 172.95 M259.6 190.65 L258.1 194.7 258.75 195.0 258.6 196.6 257.65 196.4 256.7 198.75 258.5 199.2 258.6 198.55 Q258.8 203.6 261.45 207.65 274.7 202.15 270.45 187.35 L269.4 184.05 267.15 188.75 261.95 187.5 263.3 182.5 259.6 190.65 M270.95 175.15 L267.7 174.15 263.5 186.15 266.8 187.05 270.95 175.15 M271.05 184.4 Q272.2 183.8 272.85 182.65 274.3 180.35 274.5 177.45 L271.95 176.75 Q268.9 181.3 271.05 184.4 M263.1 174.55 L261.2 178.45 Q260.45 180.6 261.9 182.2 262.4 180.95 264.1 180.0 L265.75 175.15 263.1 174.55 M297.4 176.6 L298.1 176.65 Q271.35 163.0 246.95 163.9 L297.4 176.6 M317.05 189.8 L318.75 187.4 311.85 186.1 317.05 189.8 M318.05 195.15 L306.3 187.6 299.65 197.7 311.25 204.95 Q314.0 201.55 318.05 195.15 M162.85 209.25 Q159.55 206.9 156.95 204.35 L149.85 213.25 150.2 215.45 Q150.9 218.5 153.05 220.9 L156.75 224.0 Q159.1 225.5 162.2 226.5 L165.1 227.25 166.6 227.45 174.65 218.3 173.8 216.6 171.85 214.7 166.8 211.9 162.85 209.25 M151.3 221.35 Q148.55 217.85 148.25 213.4 L148.25 213.0 154.5 204.6 Q127.7 199.4 120.45 230.25 131.5 222.2 145.0 222.9 L153.0 225.35 Q156.65 227.2 160.1 230.5 163.1 233.3 164.95 236.05 166.5 238.35 167.3 240.6 L167.9 243.2 177.5 221.5 176.75 220.8 175.7 219.75 167.2 229.15 167.05 229.25 Q160.5 228.6 154.9 224.95 152.8 223.4 151.3 221.35 M135.5 229.4 L137.95 229.45 Q155.7 230.85 163.7 246.1 L164.75 250.2 165.95 242.0 Q161.05 229.3 147.9 225.2 L147.15 225.0 Q132.75 223.45 121.45 231.7 L135.5 229.4 M156.7 277.05 L160.4 276.9 162.75 266.85 160.85 266.85 156.7 277.05 M194.55 285.5 L194.4 281.85 193.15 282.0 Q191.1 281.7 190.55 279.65 L184.45 279.8 180.75 293.15 173.4 297.6 162.35 295.1 157.8 287.85 159.6 280.15 154.55 280.2 146.25 298.65 175.4 306.05 290.55 333.65 295.9 312.95 291.85 310.6 287.75 318.7 Q285.85 322.4 282.6 322.95 L299.25 287.75 280.4 283.4 265.1 319.6 Q261.0 313.75 270.7 298.85 L268.2 297.45 266.25 297.65 271.15 293.9 270.25 295.1 271.95 295.95 Q275.6 289.25 276.95 281.6 L275.1 279.8 274.15 281.5 275.3 283.3 Q273.3 293.45 263.8 297.35 L264.9 297.75 263.35 297.9 247.05 319.35 196.1 307.7 194.55 285.5 M111.25 374.8 L114.35 372.0 30.8 350.45 26.75 352.65 7.25 363.25 99.1 385.8 111.25 374.8 M285.15 339.8 L286.45 334.95 149.8 302.7 150.1 307.3 150.55 314.1 283.95 344.5 285.15 339.8 M139.7 326.35 L135.1 336.3 185.95 349.4 189.55 340.55 Q193.05 335.05 198.75 331.35 L195.1 329.6 Q167.7 317.0 139.7 326.35 M150.85 343.25 L133.9 339.9 Q97.3 332.85 67.45 356.45 L118.55 370.5 121.8 391.65 Q129.45 382.55 140.4 374.05 161.2 357.85 186.95 354.5 L185.65 352.3 150.85 343.25 M98.95 390.7 L98.45 387.8 6.65 365.3 20.75 453.2 106.95 476.65 98.95 390.7 M184.8 382.4 Q184.85 372.8 186.75 363.5 L188.15 357.3 187.7 356.85 Q146.3 362.75 121.85 397.1 L120.65 397.0 116.45 373.25 100.8 387.05 109.25 475.0 Q132.7 431.05 175.7 405.95 183.8 401.35 188.95 399.6 185.1 392.9 184.8 382.4 M90.0 395.95 L97.3 465.0 27.4 447.25 15.2 376.55 90.0 395.95 M288.25 242.35 L290.35 243.6 295.9 233.9 293.4 232.65 288.25 242.35 M298.75 229.1 L296.3 227.4 295.3 229.25 296.4 230.05 Q298.6 242.95 286.35 245.35 L285.55 246.75 Q290.25 248.2 293.6 243.3 L293.1 245.1 299.6 236.15 298.45 235.5 298.15 236.05 298.75 229.1 M288.6 217.2 L287.15 219.1 292.3 222.4 293.9 220.3 288.6 217.2 M285.15 218.8 L288.35 216.4 296.1 221.0 294.6 224.4 296.7 225.45 297.2 224.6 Q299.75 218.6 294.95 215.55 L296.75 216.6 304.95 205.4 299.8 202.3 291.4 213.45 294.2 215.1 Q292.5 214.2 290.05 213.55 285.6 213.3 283.1 217.25 L285.15 218.8 M313.75 239.05 L304.8 233.95 293.7 249.85 295.8 251.3 302.7 255.2 Q310.85 247.8 313.75 239.05 M257.2 208.1 L253.85 207.25 253.1 209.4 256.45 210.25 257.4 212.35 259.8 213.0 261.15 209.1 Q259.1 208.85 258.45 207.3 L257.2 208.1 M254.35 206.0 Q256.95 206.6 257.75 205.95 L258.25 200.8 256.3 200.3 254.35 206.0 M251.4 221.9 L248.95 221.25 247.05 226.5 249.5 227.15 251.5 225.9 254.95 226.65 255.6 224.6 252.2 223.75 251.4 221.9 M250.5 216.45 L253.05 217.2 255.05 215.9 258.45 216.75 259.15 214.45 255.9 213.7 254.85 211.65 252.5 211.15 250.5 216.45 M250.1 217.8 L249.35 219.95 252.7 220.8 253.7 222.9 256.0 223.45 257.9 218.0 255.55 217.3 253.45 218.65 250.1 217.8 M247.95 231.75 L245.5 231.1 243.95 235.7 246.8 236.5 Q247.6 235.5 249.05 235.8 L251.4 236.35 252.15 234.45 248.9 233.7 247.95 231.75 M251.9 227.35 L249.9 228.6 246.65 227.85 245.9 229.8 249.25 230.65 250.1 232.7 252.55 233.3 254.45 228.05 251.9 227.35 M281.1 237.2 Q274.5 243.6 277.2 230.4 279.6 227.9 282.8 228.7 287.3 229.8 284.75 233.0 L283.4 234.7 Q280.9 228.8 278.15 235.3 L278.25 235.65 Q279.1 237.8 281.1 237.2 M210.2 262.6 L210.4 267.6 Q239.0 243.5 258.0 273.25 259.25 275.2 259.85 277.6 279.65 254.5 292.75 227.25 L282.35 220.7 257.5 243.7 235.35 238.25 234.0 237.95 228.6 207.2 215.15 207.9 Q209.7 234.95 210.2 262.6 M225.85 247.5 L226.0 248.25 Q226.6 257.55 217.4 255.65 217.0 255.35 216.95 255.05 213.9 241.0 225.85 247.5 M282.2 252.0 L271.75 267.55 260.1 281.85 Q259.0 301.05 241.45 309.35 235.6 312.2 229.15 312.5 L246.25 316.2 Q269.95 287.8 285.65 254.25 L282.2 252.0 M259.15 261.4 Q252.05 258.85 265.55 255.3 267.8 256.95 267.3 259.8 266.75 263.2 264.35 262.65 L262.55 262.3 264.4 259.25 Q260.55 255.45 259.15 261.0 L259.15 261.4 M275.55 279.25 L277.75 282.35 278.7 280.1 Q292.9 271.15 303.8 284.05 L310.6 258.65 305.6 255.85 304.25 257.35 297.9 256.45 Q291.2 254.85 291.25 248.15 L285.2 247.35 284.15 249.05 290.0 252.8 275.55 279.25 M266.85 293.05 L268.05 293.75 274.0 284.95 272.75 284.2 266.85 293.05 M282.5 279.95 L281.05 281.95 287.8 283.65 288.5 281.1 282.5 279.95 M281.4 291.55 Q277.95 292.1 281.95 289.7 281.2 290.6 281.4 291.55 M284.6 288.2 L287.25 286.85 Q290.45 289.15 287.2 290.1 L287.0 290.15 284.6 288.2 M293.55 282.3 L290.15 281.55 289.1 283.85 292.45 284.65 293.55 282.3 M300.1 283.85 L294.9 282.7 293.85 284.95 299.85 286.45 Q300.9 284.35 300.1 283.85 M307.8 253.15 L310.3 254.5 312.6 246.25 307.8 253.15 M291.5 293.1 L293.55 288.8 296.25 289.65 294.2 294.05 291.5 293.1 M290.1 296.05 L292.9 296.75 291.05 300.95 288.4 300.35 290.1 296.05 M298.75 295.7 L300.4 296.75 303.05 286.4 298.75 295.7 M224.7 214.25 Q226.8 215.9 226.8 218.7 226.9 221.55 225.1 223.7 220.9 228.1 216.9 224.6 214.85 222.85 214.95 220.0 215.1 217.15 217.25 214.9 220.8 211.45 224.7 214.25 M206.9 224.6 L208.75 227.1 208.85 225.3 Q207.7 225.05 206.9 224.6 M218.25 220.25 Q218.55 222.0 220.1 222.4 221.8 222.75 223.0 221.2 224.8 218.65 222.4 217.15 220.95 216.25 219.55 217.45 218.1 218.65 218.25 220.25 M208.3 211.25 L206.1 222.2 208.9 222.0 210.8 211.2 208.3 211.25 M204.95 222.05 Q204.6 220.6 205.1 218.6 206.35 213.5 208.8 208.85 L205.3 211.55 201.55 211.55 200.95 222.4 203.0 222.15 203.45 220.05 204.95 222.05 M209.1 208.6 L211.8 208.1 211.95 206.4 209.1 208.6 M225.7 203.65 L225.7 200.85 219.2 200.8 219.0 203.8 225.7 203.65 M228.5 203.4 L231.4 203.3 Q223.5 189.95 214.4 202.85 214.05 203.4 214.05 204.15 L216.75 204.05 217.8 200.5 227.6 200.4 228.5 203.4 M208.3 230.25 L208.6 227.7 204.05 225.65 200.8 225.8 200.45 226.55 Q195.65 232.95 185.95 230.05 L185.45 229.75 Q183.75 228.5 183.85 226.25 L177.45 226.55 165.65 254.85 164.95 257.2 164.3 257.55 161.65 263.6 165.3 263.45 163.75 262.65 165.65 254.85 173.35 249.8 185.3 252.6 189.75 260.55 189.05 263.1 191.4 263.1 192.1 262.0 Q193.35 260.25 195.5 260.15 L200.05 230.75 208.3 230.25 M207.25 268.5 L207.95 233.85 202.7 234.15 201.1 242.4 Q197.6 262.0 197.55 281.75 L198.8 305.6 215.2 309.1 Q194.75 294.2 207.4 271.35 L207.25 268.5 M198.55 207.3 L187.9 207.95 187.15 226.9 197.6 226.25 198.55 207.3 M184.0 222.85 L184.35 213.15 180.55 222.7 184.0 222.85 M176.5 262.5 L185.35 264.6 186.4 261.2 183.15 255.4 180.25 254.75 173.95 253.25 168.3 256.95 167.6 260.4 176.5 262.5 M178.8 257.65 L182.2 258.5 Q183.65 258.8 181.95 261.65 L177.4 260.6 171.95 259.15 172.45 256.4 178.8 257.65 M190.3 267.3 L190.35 266.3 188.1 266.35 187.65 268.2 186.0 267.95 185.35 269.95 186.95 270.45 185.25 276.55 189.8 276.7 189.85 275.7 Q191.1 278.5 194.4 281.2 L194.55 279.55 Q193.75 279.25 193.55 278.75 189.15 269.2 195.2 262.85 L195.4 260.95 Q191.85 264.2 190.3 267.3 M194.95 266.15 L193.25 266.2 192.7 276.6 194.45 276.6 194.95 266.15 M170.6 274.65 L168.4 274.1 169.2 271.35 171.95 271.95 178.7 273.55 178.05 276.3 170.6 274.65 M172.75 270.25 L165.6 268.5 161.0 287.4 162.9 290.55 164.15 292.55 172.9 294.55 178.15 291.45 183.25 272.8 172.75 270.25 M165.1 286.05 L165.55 285.1 175.35 287.3 174.5 289.8 165.0 287.55 165.1 286.05 M166.85 282.35 L164.5 279.35 164.9 278.4 Q166.65 275.75 169.2 277.55 171.05 279.4 169.35 281.4 168.1 282.65 166.85 282.35 M177.9 279.5 Q180.25 280.8 178.45 283.35 176.9 285.15 174.9 283.8 172.9 282.45 173.95 280.4 175.35 278.1 177.9 279.5 M222.1 248.3 L220.0 248.15 Q217.75 249.0 218.2 251.25 218.85 253.5 220.95 253.05 222.7 252.75 223.1 251.05 223.55 249.2 222.1 248.3 M216.15 280.2 L217.65 278.85 Q228.7 271.35 232.2 282.85 L233.9 282.7 235.3 279.95 251.95 283.95 235.45 290.75 234.05 288.75 230.3 289.05 Q223.3 296.9 215.8 289.4 L209.8 287.55 Q209.0 280.6 216.15 280.2 M216.0 283.6 Q216.05 282.9 216.35 282.55 213.75 282.55 211.85 283.9 L212.85 284.45 Q213.6 283.95 216.0 283.6 M217.1 283.75 Q216.9 284.1 216.85 284.55 L229.8 284.2 Q224.9 272.05 217.1 283.75 M211.45 284.5 L211.7 286.0 Q220.95 288.4 230.7 286.6 L230.8 285.2 Q220.9 287.0 211.45 284.5 M225.85 290.05 Q227.35 289.35 228.3 287.85 L217.8 288.1 Q220.85 292.15 225.85 290.05 M233.15 286.5 L234.05 286.35 233.95 284.8 Q233.4 284.7 233.15 285.05 L233.15 286.5 M234.55 284.75 L234.5 286.3 235.5 286.65 236.3 288.1 246.3 284.5 236.4 282.4 Q235.3 284.45 234.55 284.75 M231.3 285.05 L231.4 286.65 232.5 286.5 232.5 284.95 231.3 285.05 M242.8 262.25 Q229.5 257.75 218.35 266.05 198.35 281.0 213.0 300.25 223.35 313.9 238.4 304.9 270.6 285.55 242.8 262.25 M215.55 347.95 L225.7 338.45 202.3 332.4 199.75 333.6 Q194.6 336.25 191.65 341.3 L187.8 351.15 Q189.0 353.2 188.9 355.15 188.25 368.15 187.0 381.8 187.05 386.25 187.75 390.0 188.9 396.4 192.4 400.3 L207.4 404.7 Q202.55 395.1 201.95 385.35 L201.9 383.9 Q202.0 363.5 215.55 347.95 M219.95 349.2 L217.4 352.2 Q204.95 366.9 206.05 386.0 206.85 397.6 213.9 407.75 L274.25 422.1 Q266.35 413.3 265.35 400.9 L265.25 397.95 Q264.75 379.5 275.75 365.05 L287.5 354.85 230.7 339.8 219.95 349.2 M298.3 299.2 L297.4 298.6 292.95 307.8 295.2 309.05 298.3 299.2 M287.7 307.8 L285.2 306.9 287.0 302.85 289.7 303.7 287.7 307.8 M314.55 367.6 L315.9 364.45 292.4 337.7 Q290.35 335.35 288.7 335.55 L287.15 340.8 286.2 345.75 293.4 351.4 298.25 351.7 Q307.65 354.7 311.85 364.0 L312.7 365.8 314.15 368.55 314.55 367.6 M280.4 305.75 Q277.6 306.85 275.7 305.2 273.1 302.95 275.3 300.0 276.55 298.1 278.7 297.55 280.65 297.0 282.25 298.0 284.3 299.25 283.8 301.8 283.3 304.5 280.4 305.75 M269.45 318.1 L271.2 316.9 Q278.3 315.15 280.6 320.6 L279.7 320.75 Q274.15 321.0 269.45 318.1 M282.45 315.65 Q274.8 316.65 272.15 312.2 278.35 310.25 283.6 314.85 L282.45 315.65 M278.95 323.3 Q269.0 323.9 265.65 320.3 L278.95 323.3 M308.7 387.3 Q316.15 356.5 287.85 358.1 253.75 387.6 281.05 423.05 271.4 455.8 283.85 487.65 L262.1 510.1 266.7 533.85 315.95 485.45 Q307.5 458.2 305.3 429.8 303.65 408.15 308.7 387.3 M286.25 349.6 L283.35 346.95 209.15 329.9 286.25 349.6 M277.05 429.7 L277.85 425.55 213.7 410.15 211.95 413.55 Q198.85 437.45 207.15 463.45 L208.9 472.1 279.85 485.65 280.7 484.0 280.4 483.3 Q270.45 456.95 277.05 429.7 M277.4 488.4 L278.05 487.65 206.15 474.7 Q196.75 481.6 187.3 488.45 L183.4 491.35 258.35 507.55 277.4 488.4 M262.75 535.35 L257.7 509.75 181.15 493.3 184.65 517.9 262.75 535.35" fill="#000000" fill-rule="evenodd" stroke="none"/>
    <path d="M443.85 242.3 Q480.5 211.75 500.8 168.0 497.8 180.8 490.3 193.65 480.1 211.0 468.2 227.05 436.85 269.3 393.0 249.5 390.65 246.75 385.3 241.5 393.0 246.6 401.65 249.7 422.95 257.5 440.5 244.9 L441.65 244.5 440.75 244.75 443.85 242.3 M386.85 194.05 Q428.6 172.3 443.1 127.5 L441.85 133.5 Q429.55 178.5 386.05 195.8 L386.85 194.05 M349.6 8.1 Q374.65 20.15 388.7 44.1 L391.15 48.2 Q368.2 25.35 336.5 18.0 334.85 11.85 343.85 9.25 L349.6 8.1 M285.65 18.45 L284.6 18.8 274.65 22.2 Q283.0 15.0 292.95 10.15 288.65 13.7 285.65 18.45 M347.55 51.75 L334.0 46.35 342.65 21.4 Q349.75 23.5 355.85 26.05 L347.55 51.75 M393.4 111.35 L393.35 111.2 393.4 111.3 393.4 111.35 M396.15 124.2 L378.95 151.35 392.15 115.85 396.15 124.2 M335.5 115.9 Q336.2 117.05 335.15 117.85 332.2 119.95 330.3 118.7 329.55 118.2 328.95 115.05 L334.25 113.9 335.5 115.9 M303.2 148.2 Q321.6 155.3 338.8 164.9 340.5 165.8 342.2 166.85 L332.6 185.05 Q317.9 173.45 299.85 167.5 L297.95 166.8 303.2 148.2 M250.5 155.4 L249.7 155.3 229.65 156.0 Q237.7 153.95 250.5 155.4 M221.15 157.25 L219.65 156.75 Q224.6 122.5 234.15 89.05 234.3 88.45 234.7 87.9 L221.15 157.25 M331.55 190.5 L330.4 192.05 331.65 187.15 332.15 187.55 331.55 190.5 M335.5 188.75 L336.6 187.9 336.3 188.7 335.5 188.75 M354.4 169.4 L351.1 175.5 Q328.35 221.8 371.6 249.15 379.3 254.0 388.4 253.05 L396.25 254.3 383.3 259.45 Q374.75 260.25 365.2 257.1 349.8 252.0 339.35 239.4 319.35 211.7 354.4 169.4 M330.0 186.45 L316.6 236.9 Q308.4 226.1 301.85 233.1 L299.8 231.8 299.25 228.75 296.7 226.7 Q299.9 223.7 299.4 219.45 L299.2 218.5 307.85 207.2 Q317.2 209.9 321.3 196.1 322.15 193.25 319.85 191.55 L324.8 185.15 330.0 186.45 M416.1 114.65 Q450.65 112.75 433.15 146.6 417.8 176.45 387.95 191.5 L388.4 189.05 Q396.2 149.55 416.1 114.65 M394.8 252.1 L395.5 252.4 Q395.4 252.65 394.7 252.4 375.75 250.25 363.45 235.8 330.2 196.7 367.3 160.65 338.9 202.95 371.05 237.9 380.75 248.45 394.7 252.4 L394.8 252.1 M338.4 278.15 L317.25 363.45 292.05 334.55 310.5 265.45 316.6 244.6 Q317.45 262.4 338.4 278.15 M181.95 165.05 Q164.5 176.1 160.65 199.0 L159.65 204.45 Q155.2 200.65 152.9 195.3 L152.7 194.65 Q170.6 159.9 203.05 150.6 197.9 152.35 197.6 159.65 194.95 159.95 193.05 161.1 L190.8 160.55 Q186.0 162.45 181.95 165.05 M178.2 219.85 L178.15 219.65 178.25 219.8 178.2 219.85 M177.7 217.5 Q170.65 186.15 196.0 167.55 197.65 166.35 199.45 165.3 179.05 208.75 177.7 217.5 M218.9 151.15 Q215.6 150.35 207.2 150.05 L204.05 150.35 Q211.7 147.1 219.35 149.0 L218.9 151.15 M299.65 106.35 Q297.25 109.5 295.4 108.1 291.95 106.0 292.7 104.25 292.85 103.85 295.45 102.35 L299.65 106.35 M317.05 189.8 L311.85 186.1 318.75 187.4 317.05 189.8 M153.05 220.9 Q150.9 218.5 150.2 215.45 L149.85 213.25 156.95 204.35 Q159.55 206.9 162.85 209.25 L153.05 220.9 M173.8 216.6 L174.65 218.3 166.6 227.45 165.1 227.25 173.8 216.6 M145.0 222.9 Q131.5 222.2 120.45 230.25 127.7 199.4 154.5 204.6 L148.25 213.0 148.25 213.4 Q148.55 217.85 151.3 221.35 L145.0 222.9 M176.75 220.8 L177.5 221.5 167.9 243.2 167.3 240.6 Q169.4 237.8 176.75 220.8 M194.55 285.5 L196.1 307.7 247.05 319.35 263.35 297.9 264.9 297.75 266.25 297.65 268.2 297.45 270.7 298.85 Q261.0 313.75 265.1 319.6 L264.9 320.1 265.65 320.3 Q269.0 323.9 278.95 323.3 L282.4 322.95 282.6 322.95 Q285.85 322.4 287.75 318.7 L291.85 310.6 295.9 312.95 290.55 333.65 175.4 306.05 194.55 285.5 M26.75 352.65 L30.8 350.45 114.35 372.0 111.25 374.8 26.75 352.65 M189.55 340.55 L185.95 349.4 135.1 336.3 139.7 326.35 189.55 340.55 M150.85 343.25 L185.65 352.3 186.95 354.5 Q161.2 357.85 140.4 374.05 129.45 382.55 121.8 391.65 122.15 390.15 122.7 389.45 122.3 357.65 150.85 343.25 M175.7 405.95 Q132.7 431.05 109.25 475.0 L100.8 387.05 116.45 373.25 120.65 397.0 121.85 397.1 Q146.3 362.75 187.7 356.85 L188.15 357.3 186.75 363.5 Q184.85 372.8 184.8 382.4 175.15 402.1 175.45 405.95 L175.7 405.95 M275.55 279.25 L290.0 252.8 284.15 249.05 285.2 247.35 291.25 248.15 Q291.2 254.85 297.9 256.45 L304.25 257.35 305.6 255.85 310.6 258.65 303.8 284.05 Q292.9 271.15 278.7 280.1 L277.75 282.35 275.55 279.25 M298.75 295.7 L303.05 286.4 300.4 296.75 298.75 295.7 M216.0 283.6 Q213.6 283.95 212.85 284.45 L211.85 283.9 Q213.75 282.55 216.35 282.55 216.05 282.9 216.0 283.6 M211.45 284.5 Q220.9 287.0 230.8 285.2 L230.7 286.6 Q220.95 288.4 211.7 286.0 L211.45 284.5 M231.3 285.05 L232.5 284.95 232.5 286.5 231.4 286.65 231.3 285.05 M234.55 284.75 Q235.3 284.45 236.4 282.4 L246.3 284.5 236.3 288.1 235.5 286.65 234.5 286.3 234.55 284.75 M233.15 286.5 L233.15 285.05 Q233.4 284.7 233.95 284.8 L234.05 286.35 233.15 286.5 M206.05 386.0 Q204.95 366.9 217.4 352.2 L219.95 349.2 275.75 365.05 Q264.75 379.5 265.25 397.95 L265.35 400.9 206.05 386.0 M308.7 387.3 Q303.65 408.15 305.3 429.8 307.5 458.2 315.95 485.45 L266.7 533.85 262.1 510.1 283.85 487.65 Q271.4 455.8 281.05 423.05 253.75 387.6 287.85 358.1 316.15 356.5 308.7 387.3 M207.15 463.45 Q224.45 425.8 277.0 429.65 L277.05 429.7 Q270.45 456.95 280.4 483.3 L280.7 484.0 279.85 485.65 208.9 472.1 207.15 463.45 M277.4 488.4 L258.35 507.55 183.4 491.35 187.3 488.45 Q214.1 494.3 277.4 488.4" fill="#ffffff" fill-rule="evenodd" stroke="none"/>
    <path d="M443.85 242.3 L440.75 244.75 Q434.75 246.35 425.85 244.85 411.25 242.3 408.3 233.5 404.2 221.05 458.4 159.85 478.25 165.55 498.35 168.8 L498.85 169.15 Q476.45 209.85 443.85 242.3 M385.3 241.5 Q390.65 246.75 393.0 249.5 L390.65 248.3 378.0 235.45 385.3 241.5 M385.6 194.65 L386.85 194.05 386.05 195.8 384.1 196.7 385.6 194.65 M336.5 18.0 Q310.1 11.7 285.65 18.5 L285.65 18.45 Q288.65 13.7 292.95 10.15 318.8 -2.85 346.1 6.85 L349.6 8.1 343.85 9.25 Q334.85 11.85 336.5 18.0 M263.55 136.85 L262.85 136.75 262.8 136.7 263.55 136.85 M383.35 95.85 L389.75 104.15 Q354.85 76.3 310.95 67.55 287.4 63.0 263.5 64.0 L269.85 61.25 Q286.25 57.85 322.5 63.75 355.65 69.2 383.35 95.85 M373.3 156.8 L368.75 158.2 385.55 114.1 373.3 156.8 M342.2 166.85 L348.85 171.55 Q341.85 177.65 337.7 185.75 L334.3 187.1 332.6 185.05 342.2 166.85 M297.95 166.8 Q275.15 158.15 250.95 155.45 L250.5 155.4 Q237.7 153.95 229.65 156.0 L222.85 157.8 221.15 157.25 234.7 87.9 234.85 87.7 234.3 90.65 Q246.85 74.25 253.25 71.3 L238.3 131.3 237.75 135.35 245.3 136.1 Q275.1 138.8 303.2 148.2 L297.95 166.8 M297.2 168.4 Q314.5 174.0 329.5 184.45 L329.7 184.7 Q309.3 181.7 291.55 171.65 295.7 169.5 297.2 168.4 M269.9 164.5 L250.15 162.3 Q258.45 161.65 269.9 164.5 M241.4 162.7 L225.9 158.6 229.65 157.6 241.4 162.7 M332.15 187.55 L333.2 188.35 331.55 190.5 332.15 187.55 M335.5 188.75 L336.3 188.7 334.1 197.25 Q339.35 180.85 354.4 169.4 319.35 211.7 339.35 239.4 349.8 252.0 365.2 257.1 374.75 260.25 383.3 259.45 349.6 268.4 331.5 238.8 331.7 240.25 332.35 241.55 335.7 248.5 341.7 253.55 L340.3 252.7 Q309.3 224.05 335.5 188.75 M351.1 175.5 Q332.85 222.4 376.4 248.25 381.95 251.6 388.4 253.05 379.3 254.0 371.6 249.15 328.35 221.8 351.1 175.5 M367.3 160.65 L374.35 158.15 374.75 158.15 Q357.5 178.75 357.65 201.4 371.5 156.35 402.4 117.7 L416.1 114.65 Q396.2 149.55 388.4 189.05 L387.95 191.5 Q372.3 197.6 357.9 206.55 L358.75 211.05 Q365.7 240.45 394.8 252.1 L394.7 252.4 Q380.75 248.45 371.05 237.9 338.9 202.95 367.3 160.65 M341.35 266.0 L338.4 278.15 Q317.45 262.4 316.6 244.6 L320.9 227.1 320.95 227.15 Q321.3 256.15 341.35 266.0 M321.55 224.7 L321.7 224.35 321.75 225.25 321.55 224.7 M181.95 165.05 Q177.35 168.4 174.15 173.55 L172.9 175.6 Q161.1 194.7 168.95 211.4 L159.65 204.45 160.65 199.0 Q164.5 176.1 181.95 165.05 M193.05 161.1 Q194.95 159.95 197.6 159.65 197.9 152.35 203.05 150.6 L204.05 150.35 207.2 150.05 Q215.6 150.35 218.9 151.15 L217.85 156.25 207.0 153.85 205.1 153.4 199.45 165.3 Q197.65 166.35 196.0 167.55 170.65 186.15 177.7 217.5 L177.6 218.8 178.15 219.65 178.2 219.85 Q176.45 217.15 175.25 214.25 160.8 178.75 193.05 161.1 M230.2 161.55 L265.6 170.35 262.1 170.85 Q256.35 176.7 258.55 184.15 L240.65 236.05 236.7 235.05 Q236.85 213.45 229.3 196.85 L229.7 183.45 Q240.65 172.2 230.2 164.15 L230.2 161.55 M215.9 157.9 L215.85 164.6 Q206.05 173.25 214.7 183.8 L215.2 184.0 215.8 197.45 213.7 200.3 213.35 203.65 212.55 204.2 212.15 205.7 Q208.65 204.85 206.75 207.65 L201.85 207.95 Q202.05 204.65 198.8 204.5 192.75 203.9 186.8 204.8 L207.55 156.15 215.9 157.9 M277.8 172.95 L310.75 181.6 308.8 184.55 Q296.45 186.45 297.05 200.5 L288.2 212.7 Q284.9 213.55 283.1 216.5 L282.35 216.05 257.4 239.9 253.6 239.0 263.85 210.7 Q279.5 205.85 272.75 187.3 281.25 179.4 275.85 173.2 L277.8 172.95 M258.75 195.0 L258.1 194.7 259.6 190.65 258.75 195.0 M162.85 209.25 L166.8 211.9 156.75 224.0 153.05 220.9 162.85 209.25 M171.85 214.7 L173.8 216.6 165.1 227.25 162.2 226.5 171.85 214.7 M145.0 222.9 L151.3 221.35 Q152.8 223.4 154.9 224.95 L153.0 225.35 145.0 222.9 M167.2 229.15 L175.7 219.75 176.75 220.8 Q169.4 237.8 167.3 240.6 166.5 238.35 164.95 236.05 L165.75 236.85 167.2 229.15 M135.5 229.4 L121.45 231.7 Q132.75 223.45 147.15 225.0 142.5 225.45 135.5 229.4 M165.95 242.0 L164.75 250.2 163.7 246.1 Q165.3 243.9 165.95 242.0 M175.4 306.05 L146.25 298.65 154.55 280.2 159.6 280.15 157.8 287.85 162.35 295.1 173.4 297.6 180.75 293.15 184.45 279.8 190.55 279.65 Q191.1 281.7 193.15 282.0 L194.4 281.85 194.55 285.5 175.4 306.05 M264.9 297.75 L263.8 297.35 Q273.3 293.45 275.3 283.3 L274.15 281.5 275.1 279.8 276.95 281.6 Q275.6 289.25 271.95 295.95 L270.25 295.1 271.15 293.9 266.25 297.65 264.9 297.75 M265.1 319.6 L280.4 283.4 299.25 287.75 282.6 322.95 282.4 322.95 278.95 323.3 265.65 320.3 264.9 320.1 265.1 319.6 M111.25 374.8 L99.1 385.8 7.25 363.25 26.75 352.65 111.25 374.8 M285.15 339.8 L283.95 344.5 150.55 314.1 150.1 307.3 285.15 339.8 M139.7 326.35 Q167.7 317.0 195.1 329.6 L198.75 331.35 Q193.05 335.05 189.55 340.55 L139.7 326.35 M121.8 391.65 L118.55 370.5 67.45 356.45 Q97.3 332.85 133.9 339.9 L150.85 343.25 Q122.3 357.65 122.7 389.45 122.15 390.15 121.8 391.65 M98.95 390.7 L106.95 476.65 20.75 453.2 6.65 365.3 98.45 387.8 98.95 390.7 M184.8 382.4 Q185.1 392.9 188.95 399.6 183.8 401.35 175.7 405.95 L175.45 405.95 Q175.15 402.1 184.8 382.4 M90.0 395.95 L15.2 376.55 27.4 447.25 97.3 465.0 90.0 395.95 M285.15 218.8 L283.1 217.25 Q285.6 213.3 290.05 213.55 292.5 214.2 294.2 215.1 L291.4 213.45 299.8 202.3 304.95 205.4 296.75 216.6 294.95 215.55 Q299.75 218.6 297.2 224.6 L296.7 225.45 294.6 224.4 296.1 221.0 288.35 216.4 285.15 218.8 M288.6 217.2 L293.9 220.3 292.3 222.4 287.15 219.1 288.6 217.2 M298.75 229.1 L298.15 236.05 298.45 235.5 299.6 236.15 293.1 245.1 293.6 243.3 Q290.25 248.2 285.55 246.75 L286.35 245.35 Q298.6 242.95 296.4 230.05 L295.3 229.25 296.3 227.4 298.75 229.1 M288.25 242.35 L293.4 232.65 295.9 233.9 290.35 243.6 288.25 242.35 M251.4 221.9 L252.2 223.75 255.6 224.6 254.95 226.65 251.5 225.9 249.5 227.15 247.05 226.5 248.95 221.25 251.4 221.9 M251.9 227.35 L254.45 228.05 252.55 233.3 250.1 232.7 249.25 230.65 245.9 229.8 246.65 227.85 249.9 228.6 251.9 227.35 M247.95 231.75 L248.9 233.7 252.15 234.45 251.4 236.35 249.05 235.8 Q247.6 235.5 246.8 236.5 L243.95 235.7 245.5 231.1 247.95 231.75 M281.1 237.2 Q279.1 237.8 278.25 235.65 L278.15 235.3 Q280.9 228.8 283.4 234.7 L281.1 237.2 M282.2 252.0 L285.65 254.25 Q269.95 287.8 246.25 316.2 L229.15 312.5 Q235.6 312.2 241.45 309.35 259.0 301.05 260.1 281.85 L271.75 267.55 282.2 252.0 M262.55 262.3 L260.25 262.5 Q259.4 262.05 259.15 261.4 L259.15 261.0 Q260.55 255.45 264.4 259.25 L262.55 262.3 M282.5 279.95 L288.5 281.1 287.8 283.65 281.05 281.95 282.5 279.95 M266.85 293.05 L272.75 284.2 274.0 284.95 268.05 293.75 266.85 293.05 M281.95 289.7 Q277.95 292.1 281.4 291.55 L283.25 293.45 Q286.25 293.05 287.0 290.15 L287.2 290.1 Q290.45 289.15 287.25 286.85 L284.6 288.2 281.95 289.7 M307.8 253.15 L312.6 246.25 310.3 254.5 307.8 253.15 M300.1 283.85 Q300.9 284.35 299.85 286.45 L293.85 284.95 294.9 282.7 300.1 283.85 M293.55 282.3 L292.45 284.65 289.1 283.85 290.15 281.55 293.55 282.3 M290.1 296.05 L288.4 300.35 291.05 300.95 292.9 296.75 290.1 296.05 M291.5 293.1 L294.2 294.05 296.25 289.65 293.55 288.8 291.5 293.1 M208.3 230.25 L200.05 230.75 195.5 260.15 Q193.35 260.25 192.1 262.0 L191.4 263.1 189.05 263.1 189.75 260.55 185.3 252.6 173.35 249.8 165.65 254.85 163.75 262.65 165.3 263.45 161.65 263.6 164.3 257.55 164.95 257.2 165.65 254.85 177.45 226.55 183.85 226.25 Q183.75 228.5 185.45 229.75 L185.95 230.05 Q195.65 232.95 200.45 226.55 L200.8 225.8 204.05 225.65 208.6 227.7 208.3 230.25 M207.25 268.5 L207.4 271.35 Q194.75 294.2 215.2 309.1 L198.8 305.6 197.55 281.75 207.25 268.5 M184.0 222.85 L180.55 222.7 184.35 213.15 184.0 222.85 M180.25 254.75 L178.8 257.65 172.45 256.4 171.95 259.15 177.4 260.6 176.5 262.5 167.6 260.4 168.3 256.95 173.95 253.25 180.25 254.75 M189.85 275.7 L189.8 276.7 185.25 276.55 186.95 270.45 185.35 269.95 186.0 267.95 187.65 268.2 188.1 266.35 190.35 266.3 190.3 267.3 189.85 275.7 M171.95 271.95 L169.2 271.35 168.4 274.1 170.6 274.65 169.2 277.55 Q166.65 275.75 164.9 278.4 L164.5 279.35 166.85 282.35 165.55 285.1 165.1 286.05 162.9 290.55 161.0 287.4 165.6 268.5 172.75 270.25 171.95 271.95 M191.65 341.3 L215.55 347.95 Q202.0 363.5 201.9 383.9 L201.95 385.35 187.0 381.8 Q188.25 368.15 188.9 355.15 189.0 353.2 187.8 351.15 L191.65 341.3 M219.95 349.2 L230.7 339.8 287.5 354.85 275.75 365.05 219.95 349.2 M265.35 400.9 Q266.35 413.3 274.25 422.1 L213.9 407.75 Q206.85 397.6 206.05 386.0 L265.35 400.9 M298.3 299.2 L295.2 309.05 292.95 307.8 297.4 298.6 298.3 299.2 M287.7 307.8 L289.7 303.7 287.0 302.85 285.2 306.9 287.7 307.8 M314.55 367.6 L314.15 368.55 312.7 365.8 314.55 367.6 M298.25 351.7 L293.4 351.4 286.2 345.75 287.15 340.8 298.25 351.7 M280.4 305.75 Q283.3 304.5 283.8 301.8 284.3 299.25 282.25 298.0 280.65 297.0 278.7 297.55 276.55 298.1 275.3 300.0 273.1 302.95 275.7 305.2 277.6 306.85 280.4 305.75 M269.45 318.1 Q274.15 321.0 279.7 320.75 L280.6 320.6 Q278.3 315.15 271.2 316.9 L269.45 318.1 M282.45 315.65 L283.6 314.85 Q278.35 310.25 272.15 312.2 274.8 316.65 282.45 315.65 M277.05 429.7 L277.0 429.65 Q224.45 425.8 207.15 463.45 198.85 437.45 211.95 413.55 L213.7 410.15 277.85 425.55 277.05 429.7 M187.3 488.45 Q196.75 481.6 206.15 474.7 L278.05 487.65 277.4 488.4 Q214.1 494.3 187.3 488.45 M262.75 535.35 L184.65 517.9 181.15 493.3 257.7 509.75 262.75 535.35" fill="#a7abac" fill-rule="evenodd" stroke="none"/>
    <path d="M367.95 32.1 Q379.65 39.3 389.4 49.0 L391.85 51.6 383.95 78.7 Q374.2 67.95 362.2 59.95 L359.4 58.15 Q366.85 36.15 367.95 32.1 M401.2 64.05 Q415.1 85.35 409.65 110.55 L408.95 114.05 405.0 114.9 394.5 93.3 401.2 64.05 M320.2 43.05 L319.75 43.0 Q308.55 41.0 297.35 41.75 305.9 20.8 307.05 16.7 309.95 16.6 312.95 16.65 321.55 16.65 329.9 18.2 L320.2 43.05 M227.7 76.25 L221.95 82.05 222.0 81.7 Q228.4 55.35 248.75 37.75 240.6 47.55 227.7 76.25" fill="#d19700" fill-rule="evenodd" stroke="none"/>
    <path d="M391.85 51.6 L401.2 64.05 394.5 93.3 383.95 78.7 391.85 51.6 M359.4 58.15 Q353.95 54.8 347.55 51.75 L355.85 26.05 Q362.45 28.8 367.95 32.1 366.85 36.15 359.4 58.15 M334.0 46.35 Q327.1 44.15 320.2 43.05 L329.9 18.2 342.65 21.4 334.0 46.35 M343.3 165.55 L330.4 158.2 Q342.65 134.6 314.7 133.85 295.15 133.35 275.8 135.95 299.4 136.45 317.05 152.1 291.55 140.1 263.55 136.85 L262.8 136.7 Q257.6 120.3 263.35 104.1 L264.35 101.45 264.9 101.1 Q265.45 98.85 266.4 96.65 268.4 92.1 272.0 88.7 L303.65 92.1 280.9 101.2 280.9 101.3 Q282.65 103.6 285.7 103.05 L288.55 102.5 Q286.15 109.1 292.35 112.65 L286.1 112.1 Q295.0 117.35 302.15 110.4 303.1 104.9 300.85 100.4 L300.2 100.15 Q305.4 100.3 309.85 98.0 L310.35 93.45 Q320.45 95.65 329.95 98.9 L326.7 99.8 Q328.15 106.1 333.15 110.4 326.5 111.0 325.0 117.6 327.7 127.2 337.8 127.9 L332.25 125.0 Q338.6 125.5 340.35 119.4 343.35 123.9 347.2 121.55 342.75 110.05 334.15 100.4 352.5 106.1 368.05 117.5 L368.05 121.0 Q367.35 149.6 343.3 165.55 M337.3 136.4 Q343.65 138.65 341.2 144.45 348.0 136.5 338.4 136.35 L337.3 136.4 M217.1 283.75 Q224.9 272.05 229.8 284.2 L216.85 284.55 Q216.9 284.1 217.1 283.75 M225.85 290.05 Q220.85 292.15 217.8 288.1 L228.3 287.85 Q227.35 289.35 225.85 290.05" fill="#ffe600" fill-rule="evenodd" stroke="none"/>
    <path d="M262.85 136.75 L245.95 134.6 260.4 71.0 274.25 70.05 274.05 72.0 276.05 70.15 281.3 70.05 Q282.75 73.05 284.75 75.55 285.6 76.7 286.75 77.15 L287.7 70.4 293.65 70.65 Q296.6 78.45 292.55 85.9 297.65 82.95 299.4 77.3 L299.7 75.9 301.85 89.65 Q303.85 85.8 306.6 82.4 307.5 81.25 308.75 80.65 L309.45 80.35 310.15 80.4 Q307.1 85.05 307.35 90.25 309.15 85.7 313.75 87.95 314.65 88.5 315.4 89.35 L318.1 92.5 319.05 90.15 Q321.85 89.6 324.15 91.85 L330.15 97.3 Q332.2 89.15 339.6 92.25 L340.5 92.95 Q343.55 96.4 343.7 101.2 346.1 97.9 345.35 94.1 344.75 90.85 343.8 87.75 352.65 93.4 357.95 102.4 L356.55 89.6 368.75 97.0 367.6 101.75 372.1 99.35 384.7 111.5 366.5 159.05 350.2 170.4 343.3 165.55 Q367.35 149.6 368.05 121.0 L368.05 117.5 Q352.5 106.1 334.15 100.4 L329.95 98.9 Q320.45 95.65 310.35 93.45 L309.45 92.1 Q307.65 90.55 303.65 92.1 L272.0 88.7 Q268.4 92.1 266.4 96.65 265.45 98.85 264.9 101.1 L264.35 101.45 263.35 104.1 Q257.6 120.3 262.8 136.7 L262.85 136.75 M365.1 92.3 L332.55 78.0 Q349.6 81.75 365.1 92.3 M318.05 195.15 Q314.0 201.55 311.25 204.95 L299.65 197.7 306.3 187.6 318.05 195.15 M313.75 239.05 Q310.85 247.8 302.7 255.2 L295.8 251.3 293.7 249.85 304.8 233.95 313.75 239.05 M283.4 234.7 L284.75 233.0 Q287.3 229.8 282.8 228.7 279.6 227.9 277.2 230.4 274.5 243.6 281.1 237.2 L283.4 234.7 M235.35 238.25 L257.5 243.7 282.35 220.7 292.75 227.25 Q279.65 254.5 259.85 277.6 259.25 275.2 258.0 273.25 239.0 243.5 210.4 267.6 L210.2 262.6 217.4 255.65 Q226.6 257.55 226.0 248.25 L225.85 247.5 235.35 238.25 M262.55 262.3 L264.35 262.65 Q266.75 263.2 267.3 259.8 267.8 256.95 265.55 255.3 252.05 258.85 259.15 261.4 259.4 262.05 260.25 262.5 L262.55 262.3 M281.4 291.55 Q281.2 290.6 281.95 289.7 L284.6 288.2 287.0 290.15 Q286.25 293.05 283.25 293.45 L281.4 291.55 M216.15 280.2 Q209.0 280.6 209.8 287.55 L215.8 289.4 Q223.3 296.9 230.3 289.05 L234.05 288.75 235.45 290.75 251.95 283.95 235.3 279.95 233.9 282.7 232.2 282.85 Q228.7 271.35 217.65 278.85 L216.15 280.2 M242.8 262.25 Q270.6 285.55 238.4 304.9 223.35 313.9 213.0 300.25 198.35 281.0 218.35 266.05 229.5 257.75 242.8 262.25" fill="#ff850d" fill-rule="evenodd" stroke="none"/>
    <path d="M440.75 244.75 L441.65 244.5 440.5 244.9 Q394.15 262.05 368.85 218.05 366.4 213.85 370.25 212.0 415.2 190.15 438.8 147.1 L440.15 148.65 Q447.75 156.65 458.4 159.85 404.2 221.05 408.3 233.5 411.25 242.3 425.85 244.85 434.75 246.35 440.75 244.75 M390.65 248.3 Q361.95 233.95 361.05 206.6 361.0 204.3 364.25 203.4 375.3 199.9 385.6 194.65 L384.1 196.7 Q351.35 210.55 375.8 233.35 L378.0 235.45 390.65 248.3 M365.1 92.3 Q349.6 81.75 332.55 78.0 297.4 65.6 260.0 69.15 L256.95 67.45 Q273.7 65.1 290.65 66.05 347.9 70.4 391.3 108.1 L391.75 112.2 385.9 110.3 383.4 107.45 Q375.45 98.15 365.1 92.3 M269.85 61.25 Q312.85 50.6 352.65 71.05 370.55 80.3 383.35 95.85 355.65 69.2 322.5 63.75 286.25 57.85 269.85 61.25 M393.4 111.35 L393.4 111.3 Q395.35 114.45 397.4 122.25 L396.15 124.2 392.15 115.85 393.7 112.7 393.4 111.35 M385.55 114.1 L386.25 112.3 391.1 113.75 375.3 156.2 373.3 156.8 385.55 114.1 M316.9 57.45 L293.5 55.15 Q304.95 54.5 316.9 57.45 M234.85 87.7 Q242.7 76.95 253.75 69.45 L253.25 71.3 Q246.85 74.25 234.3 90.65 L234.85 87.7 M297.2 168.4 Q295.7 169.5 291.55 171.65 L269.9 164.5 Q258.45 161.65 250.15 162.3 L241.4 162.7 229.65 157.6 Q262.05 154.4 292.6 166.7 L297.2 168.4 M321.75 225.25 Q322.6 246.55 341.35 255.1 342.5 255.7 343.75 256.1 L341.35 266.0 Q321.3 256.15 320.95 227.15 L320.9 227.1 321.55 224.7 321.75 225.25 M255.75 68.6 L258.65 70.2 250.8 105.55 255.75 68.6 M168.95 211.4 Q161.1 194.7 172.9 175.6 166.15 194.1 172.0 213.05 L168.95 211.4 M178.15 219.65 L177.6 218.8 177.7 217.5 Q179.05 208.75 199.45 165.3 L205.1 153.4 207.0 153.85 183.35 208.45 182.55 208.8 178.25 219.8 178.15 219.65 M226.4 164.25 L219.55 164.65 219.5 161.2 226.35 163.25 226.4 164.25 M219.35 183.8 L226.05 183.4 225.95 196.25 219.2 196.5 219.35 183.8 M258.75 195.0 L259.6 190.65 263.3 182.5 261.95 187.5 267.15 188.75 269.4 184.05 270.45 187.35 Q274.7 202.15 261.45 207.65 258.8 203.6 258.6 198.55 L258.5 199.2 256.7 198.75 257.65 196.4 258.6 196.6 258.75 195.0 M263.1 174.55 L265.75 175.15 264.1 180.0 Q262.4 180.95 261.9 182.2 260.45 180.6 261.2 178.45 L263.1 174.55 M271.05 184.4 Q268.9 181.3 271.95 176.75 L274.5 177.45 Q274.3 180.35 272.85 182.65 272.2 183.8 271.05 184.4 M270.95 175.15 L266.8 187.05 263.5 186.15 267.7 174.15 270.95 175.15 M297.4 176.6 L246.95 163.9 Q271.35 163.0 298.1 176.65 L297.4 176.6 M166.8 211.9 L171.85 214.7 162.2 226.5 Q159.1 225.5 156.75 224.0 L166.8 211.9 M154.9 224.95 Q160.5 228.6 167.05 229.25 L167.2 229.15 165.75 236.85 164.95 236.05 Q163.1 233.3 160.1 230.5 156.65 227.2 153.0 225.35 L154.9 224.95 M163.7 246.1 Q155.7 230.85 137.95 229.45 L135.5 229.4 Q142.5 225.45 147.15 225.0 L147.9 225.2 Q161.05 229.3 165.95 242.0 165.3 243.9 163.7 246.1 M150.1 307.3 L149.8 302.7 286.45 334.95 285.15 339.8 150.1 307.3 M254.35 206.0 L256.3 200.3 258.25 200.8 257.75 205.95 Q256.95 206.6 254.35 206.0 M257.2 208.1 L258.45 207.3 Q259.1 208.85 261.15 209.1 L259.8 213.0 257.4 212.35 256.45 210.25 253.1 209.4 253.85 207.25 257.2 208.1 M250.1 217.8 L253.45 218.65 255.55 217.3 257.9 218.0 256.0 223.45 253.7 222.9 252.7 220.8 249.35 219.95 250.1 217.8 M250.5 216.45 L252.5 211.15 254.85 211.65 255.9 213.7 259.15 214.45 258.45 216.75 255.05 215.9 253.05 217.2 250.5 216.45 M228.5 203.4 L227.6 200.4 217.8 200.5 216.75 204.05 214.05 204.15 Q214.05 203.4 214.4 202.85 223.5 189.95 231.4 203.3 L228.5 203.4 M225.7 203.65 L219.0 203.8 219.2 200.8 225.7 200.85 225.7 203.65 M209.1 208.6 L211.95 206.4 211.8 208.1 209.1 208.6 M204.95 222.05 L203.45 220.05 203.0 222.15 200.95 222.4 201.55 211.55 205.3 211.55 208.8 208.85 Q206.35 213.5 205.1 218.6 204.6 220.6 204.95 222.05 M208.3 211.25 L210.8 211.2 208.9 222.0 206.1 222.2 208.3 211.25 M218.25 220.25 Q218.1 218.65 219.55 217.45 220.95 216.25 222.4 217.15 224.8 218.65 223.0 221.2 221.8 222.75 220.1 222.4 218.55 222.0 218.25 220.25 M206.9 224.6 Q207.7 225.05 208.85 225.3 L208.75 227.1 206.9 224.6 M197.55 281.75 Q197.6 262.0 201.1 242.4 L202.7 234.15 207.95 233.85 207.25 268.5 197.55 281.75 M180.25 254.75 L183.15 255.4 186.4 261.2 185.35 264.6 176.5 262.5 177.4 260.6 181.95 261.65 Q183.65 258.8 182.2 258.5 L178.8 257.65 180.25 254.75 M190.3 267.3 Q191.85 264.2 195.4 260.95 L195.2 262.85 Q189.15 269.2 193.55 278.75 193.75 279.25 194.55 279.55 L194.4 281.2 Q191.1 278.5 189.85 275.7 L190.3 267.3 M194.95 266.15 L194.45 276.6 192.7 276.6 193.25 266.2 194.95 266.15 M170.6 274.65 L178.05 276.3 178.7 273.55 171.95 271.95 172.75 270.25 183.25 272.8 178.15 291.45 172.9 294.55 164.15 292.55 162.9 290.55 165.1 286.05 165.0 287.55 174.5 289.8 175.35 287.3 165.55 285.1 166.85 282.35 Q168.1 282.65 169.35 281.4 171.05 279.4 169.2 277.55 L170.6 274.65 M177.9 279.5 Q175.35 278.1 173.95 280.4 172.9 282.45 174.9 283.8 176.9 285.15 178.45 283.35 180.25 280.8 177.9 279.5 M222.1 248.3 Q223.55 249.2 223.1 251.05 222.7 252.75 220.95 253.05 218.85 253.5 218.2 251.25 217.75 249.0 220.0 248.15 L222.1 248.3 M191.65 341.3 Q194.6 336.25 199.75 333.6 L202.3 332.4 225.7 338.45 215.55 347.95 191.65 341.3 M201.95 385.35 Q202.55 395.1 207.4 404.7 L192.4 400.3 Q188.9 396.4 187.75 390.0 187.05 386.25 187.0 381.8 L201.95 385.35 M287.15 340.8 L288.7 335.55 Q290.35 335.35 292.4 337.7 L315.9 364.45 314.55 367.6 312.7 365.8 311.85 364.0 Q307.65 354.7 298.25 351.7 L287.15 340.8 M286.25 349.6 L209.15 329.9 283.35 346.95 286.25 349.6" fill="#525759" fill-rule="evenodd" stroke="none"/>
    <path d="M297.35 41.75 Q283.55 42.7 269.8 47.8 247.2 56.45 227.7 76.25 240.6 47.55 248.75 37.75 273.1 20.85 302.25 17.1 L307.05 16.7 Q305.9 20.8 297.35 41.75 M293.5 55.15 Q286.7 55.65 280.05 57.1 249.15 63.8 231.25 90.1 L220.7 86.55 Q243.05 58.5 277.6 49.55 321.95 37.8 360.05 62.6 390.15 82.15 403.55 115.5 L398.75 120.15 Q394.5 109.2 387.5 99.45 361.45 63.35 316.9 57.45 304.95 54.5 293.5 55.15 M215.65 168.5 L230.9 167.9 229.85 179.65 214.9 180.15 215.65 168.5 M235.35 238.25 L225.85 247.5 Q213.9 241.0 216.95 255.05 217.0 255.35 217.4 255.65 L210.2 262.6 Q209.7 234.95 215.15 207.9 L228.6 207.2 234.0 237.95 235.35 238.25 M224.7 214.25 Q220.8 211.45 217.25 214.9 215.1 217.15 214.95 220.0 214.85 222.85 216.9 224.6 220.9 228.1 225.1 223.7 226.9 221.55 226.8 218.7 226.8 215.9 224.7 214.25 M198.55 207.3 L197.6 226.25 187.15 226.9 187.9 207.95 198.55 207.3" fill="#a85b00" fill-rule="evenodd" stroke="none"/>
  </g>
</svg>
