<?xml version="1.0" encoding="UTF-8" standalone="no"?>
<svg xmlns:xlink="http://www.w3.org/1999/xlink" height="216.0px" width="138.0px" xmlns="http://www.w3.org/2000/svg">
  <g transform="matrix(1.0, 0.0, 0.0, 1.0, -23.5, 200.5)">
    <path d="M131.5 -156.5 Q120.15 -147.9 94.45 -142.85 82.8 -140.6 80.3 -139.75 75.1 -138.05 76.5 -135.5 77.9 -133.0 84.85 -129.9 85.75 -129.5 99.2 -124.2 119.2 -116.35 120.5 -109.5 122.4 -99.45 113.45 -90.0 103.5 -79.45 84.5 -75.5 L65.35 -71.85 Q55.1 -69.9 50.4 -68.25 44.05 -66.15 42.7 -63.3 41.2 -60.15 45.5 -55.5 49.2 -51.55 59.3 -45.9 L76.05 -36.7 Q84.6 -31.65 86.0 -28.2 87.8 -23.8 79.5 -20.5 61.45 -13.3 57.0 -10.1 52.45 -6.9 51.5 -0.5 50.7 4.85 43.5 10.7 L36.5 15.5 36.5 5.5 Q40.85 0.2 43.65 -6.55 49.2 -20.1 41.5 -27.5 30.3 -38.25 27.35 -51.55 23.85 -67.4 37.5 -73.5 L56.05 -80.95 Q68.7 -85.95 74.5 -89.35 92.2 -99.65 68.5 -106.5 38.4 -115.2 28.85 -123.7 17.8 -133.6 29.5 -146.5 40.6 -158.7 40.6 -171.05 40.6 -175.95 38.75 -179.7 37.05 -183.2 34.5 -184.5 30.5 -186.55 28.6 -192.25 27.65 -195.05 27.5 -197.5 L161.5 -200.5 Q159.3 -193.5 154.45 -184.5 144.8 -166.55 131.5 -156.5" fill="url(#gradient0)" fill-rule="evenodd" stroke="none"/>
  </g>
  <defs>
    <radialGradient cx="0" cy="0" gradientTransform="matrix(0.2524, 0.0, 0.0, 0.2524, 0.0, 0.0)" gradientUnits="userSpaceOnUse" id="gradient0" r="819.2" spreadMethod="reflect">
      <stop offset="0.0" stop-color="#ffffff"/>
      <stop offset="0.8784313725490196" stop-color="#ffffff" stop-opacity="0.0"/>
    </radialGradient>
  </defs>
</svg>
