<?xml version="1.0" encoding="UTF-8" standalone="no"?>
<svg xmlns:xlink="http://www.w3.org/1999/xlink" height="214.5px" width="276.6px" xmlns="http://www.w3.org/2000/svg">
  <g transform="matrix(1.0, 0.0, 0.0, 1.0, -251.5, -137.0)">
    <path d="M524.25 179.95 Q530.0 181.5 527.15 185.65 524.3 189.75 506.7 222.05 489.05 254.35 480.3 273.65 L460.7 315.9 Q449.85 338.85 445.8 343.5 440.35 349.75 431.1 350.95 426.9 351.5 402.0 351.5 379.5 351.5 370.1 350.65 358.3 349.6 351.3 346.25 344.65 343.1 337.55 335.45 334.65 332.35 320.75 315.5 307.7 299.65 304.35 295.25 294.8 282.55 291.0 273.5 288.95 268.55 281.9 256.45 L268.65 233.65 Q251.5 203.0 251.5 189.5 251.5 184.25 254.15 181.55 256.25 179.45 262.05 177.45 273.85 173.35 274.3 177.0 274.7 180.6 288.15 171.75 301.6 162.85 341.5 137.0 L387.45 147.6 448.7 161.8 485.1 170.85 512.05 177.2 Q518.5 178.4 524.25 179.95" fill="#171e26" fill-rule="evenodd" stroke="none"/>
  </g>
</svg>
