<?xml version="1.0" encoding="UTF-8" standalone="no"?>
<svg xmlns:xlink="http://www.w3.org/1999/xlink" height="194.8px" width="380.95px" xmlns="http://www.w3.org/2000/svg">
  <g transform="matrix(1.0, 0.0, 0.0, 1.0, 160.75, 156.2)">
    <path d="M106.1 -139.7 L122.0 -139.4 165.45 -138.6 156.8 -138.5 153.7 -138.5 126.1 -138.3 107.8 -138.15 94.65 -138.05 107.9 -136.05 Q117.7 -134.45 127.4 -133.75 L145.25 -133.15 145.85 -133.0 129.05 -133.4 30.2 -136.05 Q32.1 -134.25 33.6 -132.1 59.95 -93.65 61.6 -45.85 L61.75 -44.55 62.35 -35.1 Q63.9 -16.85 59.15 0.75 L58.0 4.4 54.35 12.25 69.6 9.3 Q114.45 -0.35 158.15 -14.55 188.35 -24.35 206.15 -49.4 L206.35 -49.75 Q220.1 -80.15 201.8 -108.6 231.85 -82.35 212.85 -46.75 205.0 -32.0 190.85 -22.7 153.2 2.2 109.55 13.9 80.8 21.5 51.45 22.3 45.35 22.45 39.9 19.75 22.55 10.85 15.95 -7.55 L3.95 -8.3 Q-2.55 34.95 -45.1 38.1 -85.55 41.35 -121.4 22.95 -125.6 20.85 -128.75 16.95 -135.8 8.0 -138.7 -3.1 L-154.35 -44.9 Q-160.2 -59.25 -160.75 -74.75 L-143.55 -80.0 -141.65 -82.4 Q-156.8 -117.7 -150.35 -155.75 -103.45 -158.0 -57.45 -149.35 -48.0 -147.55 -40.15 -142.15 -23.4 -130.6 -15.1 -111.85 L2.0 -114.0 Q0.05 -147.05 32.8 -146.4 50.35 -146.05 67.35 -142.1 L68.7 -140.4 106.1 -139.7 M51.2 -55.95 Q50.55 -41.2 46.85 -27.0 42.45 -9.9 23.5 -14.05 28.35 1.85 41.75 11.45 47.3 15.45 50.5 10.0 60.45 -7.15 59.8 -27.55 58.75 -60.75 50.4 -93.15 44.05 -117.6 25.95 -133.8 24.35 -135.2 22.5 -134.35 8.0 -127.5 8.75 -108.5 L32.4 -108.9 Q34.35 -107.65 35.7 -105.85 48.35 -88.75 49.9 -66.85 L51.2 -55.95 M40.9 -91.0 Q38.55 -100.45 29.85 -104.55 27.4 -105.65 24.55 -105.8 L-19.3 -102.85 -15.9 -83.25 -11.95 -60.65 -7.8 -37.75 -6.05 -28.4 -4.3 -19.4 -3.45 -15.15 -1.45 -15.3 39.8 -18.75 43.6 -25.5 Q46.35 -32.15 47.65 -41.95 L47.75 -43.0 Q48.9 -55.95 46.45 -68.8 44.6 -81.4 40.9 -91.0 M-22.8 -101.35 Q-32.35 -136.8 -70.15 -145.05 -78.05 -146.7 -86.35 -147.1 L-146.7 -152.3 Q-142.4 -105.5 -112.1 -72.1 -105.5 -64.75 -95.85 -62.65 -75.45 -58.45 -55.45 -53.1 -28.0 -45.95 -9.2 -24.65 L-22.8 -101.35 M-17.5 -28.75 Q-41.7 -49.85 -74.85 -55.35 -95.95 -58.6 -113.95 -68.4 -117.55 -70.35 -120.15 -73.95 -143.45 -106.5 -149.05 -146.25 -146.05 -100.55 -121.7 -62.55 -118.2 -57.15 -112.05 -56.0 -85.55 -50.75 -60.55 -40.4 -48.35 -35.3 -37.35 -27.85 L-36.1 -25.9 Q-23.35 0.25 -46.0 17.85 -80.75 28.7 -115.65 17.35 L-120.05 15.85 -123.05 11.5 -138.85 -21.8 Q-132.35 0.25 -121.15 19.85 -78.35 39.25 -33.45 26.3 L-28.05 24.65 Q-20.6 20.8 -15.3 14.4 3.3 -8.15 -17.5 -28.75 M-146.85 -72.5 L-153.35 -70.6 Q-140.7 -29.5 -120.35 8.35 L-117.7 13.25 Q-88.15 24.2 -58.55 17.95 -46.45 15.25 -38.9 5.25 -66.1 13.15 -91.95 1.1 -107.65 -6.1 -118.15 -20.35 -135.95 -44.55 -146.85 -72.5" fill="#000000" fill-rule="evenodd" stroke="none"/>
    <path d="M107.8 -138.15 L109.8 -136.45 127.4 -133.75 Q117.7 -134.45 107.9 -136.05 L94.65 -138.05 107.8 -138.15 M49.9 -66.85 Q48.35 -88.75 35.7 -105.85 34.35 -107.65 32.4 -108.9 L8.75 -108.5 Q8.0 -127.5 22.5 -134.35 24.35 -135.2 25.95 -133.8 44.05 -117.6 50.4 -93.15 58.75 -60.75 59.8 -27.55 60.45 -7.15 50.5 10.0 47.3 15.45 41.75 11.45 28.35 1.85 23.5 -14.05 42.45 -9.9 46.85 -27.0 50.55 -41.2 51.2 -55.95 51.25 -62.8 49.9 -66.85 M-15.9 -83.25 L-19.3 -102.85 24.55 -105.8 Q27.4 -105.65 29.85 -104.55 38.55 -100.45 40.9 -91.0 31.05 -90.35 -15.9 -83.25 M43.6 -25.5 L39.8 -18.75 -1.45 -15.3 Q-2.65 -17.4 -4.3 -19.4 L-6.05 -28.4 -5.05 -23.85 43.6 -25.5 M61.6 -45.85 Q59.95 -93.65 33.6 -132.1 32.1 -134.25 30.2 -136.05 L129.05 -133.4 Q167.1 -128.1 180.95 -94.7 181.7 -92.9 180.4 -90.9 155.1 -51.65 106.65 -47.1 84.05 -45.05 61.6 -45.85 M61.75 -44.55 Q62.45 -42.0 62.35 -35.1 L61.75 -44.55 M58.0 4.4 Q100.55 -3.1 142.2 -14.5 178.25 -24.5 206.15 -49.4 188.35 -24.35 158.15 -14.55 114.45 -0.35 69.6 9.3 L54.35 12.25 58.0 4.4 M-22.8 -101.35 L-9.2 -24.65 Q-28.0 -45.95 -55.45 -53.1 -75.45 -58.45 -95.85 -62.65 -105.5 -64.75 -112.1 -72.1 -142.4 -105.5 -146.7 -152.3 L-86.35 -147.1 Q-78.05 -146.7 -70.15 -145.05 -32.35 -136.8 -22.8 -101.35" fill="#ffffff" fill-rule="evenodd" stroke="none"/>
    <path d="M106.1 -139.7 L105.45 -140.25 113.15 -141.75 122.0 -139.4 106.1 -139.7 M156.8 -138.5 L159.4 -137.85 Q187.2 -132.05 201.8 -108.6 220.1 -80.15 206.35 -49.75 L206.15 -49.4 Q178.25 -24.5 142.2 -14.5 100.55 -3.1 58.0 4.4 L59.15 0.75 Q63.9 -16.85 62.35 -35.1 62.45 -42.0 61.75 -44.55 L61.6 -45.85 Q84.05 -45.05 106.65 -47.1 155.1 -51.65 180.4 -90.9 181.7 -92.9 180.95 -94.7 167.1 -128.1 129.05 -133.4 L145.85 -133.0 Q149.9 -136.15 153.7 -138.5 L156.8 -138.5 M127.4 -133.75 L109.8 -136.45 107.8 -138.15 126.1 -138.3 145.25 -133.15 127.4 -133.75 M40.9 -91.0 Q44.6 -81.4 46.45 -68.8 36.2 -68.05 -11.95 -60.65 L-15.9 -83.25 Q31.05 -90.35 40.9 -91.0 M47.65 -41.95 Q46.35 -32.15 43.6 -25.5 L-5.05 -23.85 -6.05 -28.4 -7.8 -37.75 47.65 -41.95 M-37.35 -27.85 Q-48.35 -35.3 -60.55 -40.4 -85.55 -50.75 -112.05 -56.0 -118.2 -57.15 -121.7 -62.55 -146.05 -100.55 -149.05 -146.25 -143.45 -106.5 -120.15 -73.95 -117.55 -70.35 -113.95 -68.4 -95.95 -58.6 -74.85 -55.35 -41.7 -49.85 -17.5 -28.75 L-37.35 -27.85 M-28.05 24.65 L-33.45 26.3 Q-78.35 39.25 -121.15 19.85 -132.35 0.25 -138.85 -21.8 L-123.05 11.5 -120.05 15.85 -115.65 17.35 Q-80.75 28.7 -46.0 17.85 L-28.05 24.65" fill="#a7abac" fill-rule="evenodd" stroke="none"/>
    <path d="M51.2 -55.95 L49.9 -66.85 Q51.25 -62.8 51.2 -55.95 M46.45 -68.8 Q48.9 -55.95 47.75 -43.0 L47.65 -41.95 -7.8 -37.75 -11.95 -60.65 Q36.2 -68.05 46.45 -68.8 M-1.45 -15.3 L-3.45 -15.15 -4.3 -19.4 Q-2.65 -17.4 -1.45 -15.3 M-17.5 -28.75 Q3.3 -8.15 -15.3 14.4 -20.6 20.8 -28.05 24.65 L-46.0 17.85 Q-23.35 0.25 -36.1 -25.9 L-37.35 -27.85 -17.5 -28.75 M-146.85 -72.5 Q-135.95 -44.55 -118.15 -20.35 -107.65 -6.1 -91.95 1.1 -66.1 13.15 -38.9 5.25 -46.45 15.25 -58.55 17.95 -88.15 24.2 -117.7 13.25 L-120.35 8.35 Q-140.7 -29.5 -153.35 -70.6 L-146.85 -72.5" fill="#525759" fill-rule="evenodd" stroke="none"/>
  </g>
</svg>
