<?xml version="1.0" encoding="UTF-8" standalone="no"?>
<svg xmlns:xlink="http://www.w3.org/1999/xlink" height="458.2px" width="289.3px" xmlns="http://www.w3.org/2000/svg">
  <g transform="matrix(1.0, 0.0, 0.0, 1.0, 144.35, 229.05)">
    <path d="M26.1 -224.65 Q45.9 -217.45 58.65 -200.85 71.9 -183.5 74.65 -161.75 75.85 -152.4 74.75 -143.2 L70.15 -139.95 Q62.65 -111.85 59.5 -82.95 72.85 -82.65 81.75 -72.5 102.8 -48.65 116.85 -20.05 125.95 -1.65 129.15 18.5 130.85 29.0 130.1 39.55 143.3 48.95 144.7 64.6 146.3 81.9 137.15 95.35 132.35 102.45 123.9 103.1 L121.8 103.05 122.4 78.55 126.55 75.6 Q116.05 64.95 101.2 68.6 95.65 69.95 91.1 73.25 L97.0 78.25 96.7 101.85 Q90.2 103.3 85.15 98.9 79.45 93.8 75.7 87.05 L75.75 168.9 89.05 169.8 89.35 205.2 74.55 229.15 2.55 228.85 1.95 106.3 -1.9 106.0 -2.2 228.85 -74.25 229.15 -88.7 205.8 -88.35 169.5 -75.7 168.6 -75.15 87.1 Q-78.15 94.4 -84.6 98.95 -88.95 101.95 -94.35 102.55 -96.05 102.5 -97.1 101.25 -103.4 84.5 -91.1 73.55 -102.6 64.1 -117.1 69.5 -122.2 71.5 -126.5 75.3 L-122.35 78.55 -121.35 102.65 Q-131.95 105.35 -138.45 93.85 -147.2 78.3 -142.95 60.8 -139.95 48.45 -130.35 39.85 -130.7 8.1 -116.6 -20.35 -101.75 -50.35 -79.8 -75.1 -72.35 -83.5 -61.5 -82.95 L-59.2 -82.65 -58.5 -86.45 Q-66.8 -112.15 -69.8 -139.05 L-75.7 -143.5 Q-77.6 -172.15 -61.4 -195.6 -47.0 -216.55 -22.95 -224.95 -6.25 -230.7 11.25 -228.35 18.85 -227.2 26.1 -224.65 M-33.75 -102.45 Q-8.3 -105.75 18.05 -105.3 39.4 -104.9 57.15 -94.2 60.9 -109.85 64.25 -125.75 68.55 -146.2 65.6 -167.0 62.45 -189.2 46.25 -204.5 30.1 -219.85 8.15 -222.4 -12.65 -224.95 -31.25 -215.15 L-38.65 -210.35 Q-57.55 -198.15 -63.45 -176.35 -68.65 -157.05 -65.15 -137.1 -61.4 -115.55 -57.1 -94.05 L-57.1 -93.9 -56.85 -94.15 -55.95 -96.55 -33.75 -102.45 M65.7 -178.35 L68.55 -144.0 Q70.65 -146.0 70.8 -149.1 71.6 -164.3 65.7 -178.35 M54.8 -83.3 L54.5 -85.05 46.25 -85.0 45.65 -85.0 16.35 -84.95 -52.1 -84.75 -53.9 -84.45 -54.7 -81.35 -73.95 35.45 72.8 35.45 54.8 -83.3 M54.55 -92.8 Q11.2 -109.9 -36.5 -99.95 -44.3 -98.45 -51.75 -95.3 -54.1 -94.3 -55.0 -91.85 -53.05 -85.65 -45.3 -86.2 L-47.35 -89.75 Q-6.35 -104.35 38.45 -95.5 44.3 -94.3 47.4 -89.75 L46.5 -86.8 54.45 -89.7 54.55 -92.8 M60.9 -78.15 L59.2 -77.55 59.65 -74.45 60.2 -71.25 64.9 -43.95 69.15 -14.75 Q71.15 -0.2 72.65 14.45 74.9 36.05 92.1 49.05 L104.75 50.8 Q130.45 48.8 126.85 24.15 123.75 2.9 113.35 -15.6 102.85 -34.35 92.65 -53.25 81.5 -73.9 60.9 -78.15 M96.5 -1.25 Q89.1 0.8 82.25 -2.65 L83.75 -2.35 Q90.0 -1.6 96.1 -3.15 100.6 -4.0 106.15 -5.6 102.25 -2.7 96.5 -1.25 M30.7 -89.0 L30.85 -93.6 Q-2.8 -98.3 -31.7 -93.3 L-31.7 -89.3 -31.7 -86.2 30.6 -86.8 30.7 -89.0 M89.45 48.85 L84.3 46.05 Q82.45 47.3 81.25 49.65 78.9 54.05 78.7 62.35 78.55 66.55 79.0 71.75 82.95 64.85 90.45 61.65 L95.85 60.75 Q69.85 71.9 86.2 92.8 L87.85 94.5 Q77.25 76.55 95.65 66.5 101.8 63.55 108.3 64.3 132.3 66.7 133.2 82.9 132.6 80.4 130.95 78.25 L126.25 81.8 125.65 98.05 Q130.2 96.7 132.35 91.3 L131.25 95.1 Q139.3 91.6 138.2 83.25 135.05 59.35 108.25 59.3 128.95 58.1 139.85 75.6 144.05 54.55 126.25 42.25 122.85 45.2 120.15 48.7 112.8 58.25 100.7 54.55 L92.4 50.5 89.45 48.85 M103.4 53.8 Q112.5 55.5 117.75 49.1 L104.3 52.2 95.25 51.4 Q98.55 53.5 103.4 53.8 M84.3 83.55 L84.4 84.65 Q85.45 92.55 91.9 96.9 86.55 90.95 84.3 83.55 M74.55 37.8 Q71.6 43.4 75.15 50.5 L77.55 42.25 76.05 39.55 74.55 37.8 M70.45 43.1 L70.45 36.6 -70.3 36.9 -70.25 43.1 -70.1 49.3 70.45 49.6 70.45 43.1 M20.85 52.25 L20.55 52.25 7.95 52.55 7.85 60.3 7.85 96.85 5.6 97.8 6.35 225.0 71.6 225.0 70.5 60.85 70.45 52.85 57.45 52.25 63.8 59.1 64.15 59.6 65.05 60.85 Q75.65 84.35 55.95 98.8 L53.25 100.45 58.5 95.6 Q44.05 107.45 26.6 99.8 L21.0 96.85 Q2.15 82.0 13.5 60.5 L19.15 54.2 19.35 54.05 Q21.15 52.55 20.85 52.25 M48.0 102.6 Q40.3 105.0 33.0 103.15 L48.0 102.6 M6.9 60.55 L6.95 52.55 -6.65 52.55 -6.65 60.55 -6.65 85.65 -6.65 96.25 -4.25 96.85 -4.25 101.6 4.3 101.6 4.3 96.85 6.4 96.5 6.75 85.65 6.9 60.55 M63.45 60.7 Q47.0 47.7 22.9 52.55 3.85 66.55 16.75 86.55 29.4 106.25 51.75 95.4 74.25 84.5 63.6 60.85 L63.45 60.7 M26.45 153.55 Q9.9 161.2 10.2 177.75 10.2 188.4 19.35 196.35 27.9 204.05 39.15 204.05 50.35 203.75 58.65 196.65 67.2 189.25 68.1 178.95 69.25 168.3 59.5 158.55 49.75 150.0 37.65 150.9 31.45 151.2 26.45 153.55 M17.6 158.25 Q24.65 151.2 35.9 150.0 54.5 148.5 63.95 162.1 71.35 172.45 68.35 185.15 65.7 196.35 56.85 202.55 42.4 212.0 26.15 205.2 7.25 196.65 9.3 175.1 10.2 165.95 17.6 158.25 M73.1 185.15 L83.75 173.05 73.1 173.05 73.1 185.15 M84.25 203.25 L84.6 174.2 73.1 186.6 73.4 222.05 84.25 203.25 M23.95 201.65 Q51.55 215.75 66.0 188.95 60.15 199.35 48.8 202.65 25.65 209.25 12.25 189.55 16.15 197.65 23.95 201.65 M-55.05 -196.95 L-62.4 -186.55 -64.7 -178.65 -55.05 -196.95 M-68.7 -144.65 L-65.0 -177.35 Q-74.7 -163.1 -68.95 -144.85 L-68.7 -144.65 M-94.35 -2.75 L-82.5 -2.65 Q-88.55 0.9 -95.45 -0.75 L-106.15 -5.6 -94.35 -2.75 M-65.65 -37.7 L-62.95 -54.6 -62.8 -55.55 -60.0 -78.05 -60.5 -78.1 Q-81.45 -72.55 -94.1 -51.95 -104.4 -35.15 -113.3 -17.4 -122.6 1.05 -126.45 21.35 -131.25 46.85 -105.85 50.85 L-105.15 50.95 -100.2 51.05 Q-90.55 50.9 -85.75 42.95 -74.6 24.5 -71.5 2.7 L-65.65 -37.7 M-77.5 42.8 L-74.85 47.55 -75.45 37.8 -77.5 42.8 M-63.4 59.6 Q-74.2 82.05 -51.8 94.7 -30.6 106.8 -17.15 85.95 -4.6 66.55 -23.45 52.25 L-55.25 52.35 -58.4 54.65 Q-61.35 56.9 -63.4 59.6 M-64.25 59.55 L-57.7 52.25 -69.5 52.85 -70.15 59.1 -71.6 225.0 -6.35 225.0 -5.15 98.05 -7.5 96.55 -7.75 60.55 -7.8 52.25 -16.05 52.25 -20.8 52.25 -18.0 55.1 Q-15.55 57.8 -13.75 60.55 -11.45 63.8 -10.55 67.7 -5.8 87.8 -21.05 97.85 -18.15 95.5 -15.8 92.15 -25.25 102.75 -39.4 102.75 -51.95 102.45 -61.2 93.7 -74.95 79.15 -64.25 59.55 M-78.75 66.25 Q-75.9 53.65 -84.85 46.65 L-94.2 51.4 -102.7 54.8 Q-116.85 56.55 -124.65 44.65 L-125.6 43.1 Q-141.75 53.95 -138.3 73.25 -123.0 54.7 -99.05 59.3 -84.9 61.35 -78.95 71.2 L-78.65 71.65 -78.75 66.25 M-53.55 100.05 Q-48.25 103.05 -42.05 103.65 L-33.05 103.25 Q-43.95 106.0 -53.55 100.05 M-98.65 60.2 Q-111.2 58.2 -123.0 62.15 -133.85 65.8 -137.2 76.05 -141.05 87.85 -131.25 95.1 -135.2 89.95 -133.8 84.15 -133.85 86.65 -133.0 89.45 -130.95 96.25 -125.6 98.05 L-126.5 81.8 -131.05 78.0 Q-120.2 59.3 -97.65 66.15 L-90.9 69.4 -83.35 81.8 -87.85 94.5 Q-85.65 92.0 -84.05 89.15 -71.75 67.25 -98.65 60.2 M-104.6 52.4 Q-112.3 52.3 -118.85 48.45 -117.05 53.15 -108.5 53.75 -105.8 53.95 -103.5 53.75 -99.0 53.35 -96.1 51.4 -100.5 52.45 -104.6 52.4 M-73.05 190.85 L-73.05 188.1 -84.3 174.2 -84.2 204.2 -73.05 222.05 -73.05 190.85 M-10.25 174.5 Q-16.35 151.1 -40.85 152.15 -59.25 152.8 -66.75 169.75 -57.55 146.2 -32.3 152.05 -13.6 156.2 -10.25 174.5 M-67.85 180.7 Q-61.05 204.4 -36.15 202.6 -19.95 201.35 -12.2 187.0 L-13.95 191.5 Q-23.75 205.7 -42.35 204.6 -56.55 203.45 -66.55 188.7 -62.5 197.3 -56.2 201.9 -67.4 195.4 -67.85 180.7 M-73.05 173.05 L-83.7 173.3 -73.05 185.15 -73.05 173.05" fill="#000000" fill-rule="evenodd" stroke="none"/>
    <path d="M16.4 -209.6 Q30.85 -207.55 40.9 -203.15 15.15 -225.85 -7.65 -221.8 L-3.1 -216.7 Q-13.1 -215.0 -21.15 -209.6 -3.7 -212.7 16.4 -209.6 M-31.25 -215.15 Q-12.65 -224.95 8.15 -222.4 30.1 -219.85 46.25 -204.5 62.45 -189.2 65.6 -167.0 68.55 -146.2 64.25 -125.75 60.9 -109.85 57.15 -94.2 39.4 -104.9 18.05 -105.3 -8.3 -105.75 -33.75 -102.45 -61.3 -122.55 -55.85 -156.6 -55.25 -168.7 -49.45 -181.0 -43.65 -202.75 -31.25 -215.15 M-56.85 -94.15 L-57.1 -93.9 -57.1 -94.05 -56.85 -94.15 M61.9 -149.4 Q53.3 -111.0 13.75 -108.95 45.35 -108.95 53.9 -104.8 L61.9 -149.4 M-51.5 -84.45 L-53.9 -84.45 -52.1 -84.75 -51.5 -84.45 M-54.7 -81.35 Q-13.2 -35.5 52.45 -83.55 54.35 -82.25 54.8 -83.3 L72.8 35.45 -73.95 35.45 -54.7 -81.35 M104.75 50.8 Q106.15 36.55 102.15 22.75 98.75 10.9 96.5 -1.25 102.25 -2.7 106.15 -5.6 100.6 -4.0 96.1 -3.15 88.75 -34.95 60.9 -78.15 81.5 -73.9 92.65 -53.25 102.85 -34.35 113.35 -15.6 123.75 2.9 126.85 24.15 130.45 48.8 104.75 50.8 M103.4 53.8 L104.3 52.2 117.75 49.1 Q112.5 55.5 103.4 53.8 M90.45 61.65 Q93.25 58.25 100.7 54.55 112.8 58.25 120.15 48.7 122.85 45.2 126.25 42.25 144.05 54.55 139.85 75.6 128.95 58.1 108.25 59.3 L95.85 60.75 90.45 61.65 M74.55 37.8 L76.05 39.55 77.55 42.25 75.15 50.5 Q71.6 43.4 74.55 37.8 M20.55 52.25 L20.85 52.25 19.35 54.05 19.15 54.2 20.55 52.25 M7.85 60.3 L13.5 60.5 Q2.15 82.0 21.0 96.85 L26.6 99.8 33.0 103.15 Q40.3 105.0 48.0 102.6 50.8 101.75 53.25 100.45 L55.95 98.8 Q75.65 84.35 65.05 60.85 L70.5 60.85 71.6 225.0 6.35 225.0 5.6 97.8 7.85 96.85 7.85 60.3 M63.8 59.1 L64.45 59.15 64.15 59.6 63.8 59.1 M73.1 185.15 L73.1 173.05 83.75 173.05 73.1 185.15 M17.6 158.25 Q10.2 165.95 9.3 175.1 7.25 196.65 26.15 205.2 42.4 212.0 56.85 202.55 65.7 196.35 68.35 185.15 71.35 172.45 63.95 162.1 54.5 148.5 35.9 150.0 24.65 151.2 17.6 158.25 M-95.45 -0.75 Q-105.6 18.55 -109.95 39.7 -111.5 47.25 -106.15 50.5 L-100.85 50.3 -100.2 51.05 -105.15 50.95 -106.15 50.5 -105.85 50.85 Q-131.25 46.85 -126.45 21.35 -122.6 1.05 -113.3 -17.4 -104.4 -35.15 -94.1 -51.95 -81.45 -72.55 -60.5 -78.1 -87.35 -29.45 -93.75 -3.85 L-94.35 -2.75 -106.15 -5.6 -95.45 -0.75 M-63.55 -53.25 L-60.0 -78.05 -62.8 -55.55 -63.55 -53.25 M-77.5 42.8 L-75.45 37.8 -74.85 47.55 -77.5 42.8 M-70.15 59.1 L-64.25 59.55 Q-74.95 79.15 -61.2 93.7 L-62.75 92.15 Q-58.55 97.15 -53.55 100.05 -43.95 106.0 -33.05 103.25 L-21.05 97.85 Q-5.8 87.8 -10.55 67.7 -11.45 63.8 -13.75 60.55 L-7.75 60.55 -7.5 96.55 -5.15 98.05 -6.35 225.0 -71.6 225.0 -70.15 59.1 M-18.0 55.1 L-20.8 52.25 -16.05 52.25 -19.6 52.55 -18.0 55.1 M-102.7 54.8 L-99.05 59.3 Q-123.0 54.7 -138.3 73.25 -141.75 53.95 -125.6 43.1 L-124.65 44.65 Q-116.85 56.55 -102.7 54.8 M-104.6 52.4 L-103.5 53.75 Q-105.8 53.95 -108.5 53.75 -117.05 53.15 -118.85 48.45 -112.3 52.3 -104.6 52.4 M-66.75 169.75 L-67.85 180.7 Q-67.4 195.4 -56.2 201.9 -49.1 207.0 -39.1 207.0 -19.3 207.0 -12.25 188.7 L-13.95 191.5 -12.2 187.0 -10.25 174.5 Q-13.6 156.2 -32.3 152.05 -57.55 146.2 -66.75 169.75 M-73.05 173.05 L-73.05 185.15 -83.7 173.3 -73.05 173.05" fill="#ffffff" fill-rule="evenodd" stroke="none"/>
    <path d="M16.4 -209.6 Q-3.7 -212.7 -21.15 -209.6 -13.1 -215.0 -3.1 -216.7 L-7.65 -221.8 Q15.15 -225.85 40.9 -203.15 30.85 -207.55 16.4 -209.6 M-31.25 -215.15 Q-43.65 -202.75 -49.45 -181.0 -55.25 -168.7 -55.85 -156.6 -61.3 -122.55 -33.75 -102.45 L-55.95 -96.55 -56.85 -94.15 -57.1 -94.05 Q-61.4 -115.55 -65.15 -137.1 -68.65 -157.05 -63.45 -176.35 -57.55 -198.15 -38.65 -210.35 L-31.25 -215.15 M61.9 -149.4 L53.9 -104.8 Q45.35 -108.95 13.75 -108.95 53.3 -111.0 61.9 -149.4 M46.25 -85.0 L54.5 -85.05 54.8 -83.3 Q54.35 -82.25 52.45 -83.55 -13.2 -35.5 -54.7 -81.35 L-53.9 -84.45 -51.5 -84.45 Q0.1 -60.05 46.25 -85.0 M45.65 -85.0 Q38.55 -83.85 16.35 -84.95 L45.65 -85.0 M59.65 -74.45 L59.2 -77.55 60.9 -78.15 Q88.75 -34.95 96.1 -3.15 90.0 -1.6 83.75 -2.35 L82.25 -2.65 Q89.1 0.8 96.5 -1.25 98.75 10.9 102.15 22.75 106.15 36.55 104.75 50.8 L92.1 49.05 Q93.65 48.7 94.1 45.85 83.9 31.2 64.9 -43.95 L60.2 -71.25 61.7 -68.45 59.65 -74.45 M89.45 48.85 L84.0 46.65 81.25 49.65 Q82.45 47.3 84.3 46.05 L89.45 48.85 M78.7 62.35 Q81.95 56.75 92.4 50.5 L100.7 54.55 Q93.25 58.25 90.45 61.65 82.95 64.85 79.0 71.75 78.55 66.55 78.7 62.35 M104.3 52.2 L103.4 53.8 Q98.55 53.5 95.25 51.4 L104.3 52.2 M95.65 66.5 L95.85 60.75 108.25 59.3 Q135.05 59.35 138.2 83.25 139.3 91.6 131.25 95.1 L132.35 91.3 Q130.2 96.7 125.65 98.05 L126.25 81.8 130.95 78.25 Q132.6 80.4 133.2 82.9 132.3 66.7 108.3 64.3 101.8 63.55 95.65 66.5 M-70.25 43.1 L70.45 43.1 70.45 49.6 -70.1 49.3 -70.25 43.1 M20.55 52.25 L19.15 54.2 13.5 60.5 7.85 60.3 7.95 52.55 20.55 52.25 M70.5 60.85 L65.05 60.85 64.15 59.6 64.45 59.15 63.8 59.1 57.45 52.25 70.45 52.85 70.5 60.85 M-6.65 60.55 L6.9 60.55 6.75 85.65 -6.65 85.65 -6.65 60.55 M4.3 96.85 L4.3 101.6 -4.25 101.6 -4.25 96.85 4.3 96.85 M63.6 60.85 L63.35 60.85 63.45 60.7 63.6 60.85 M73.1 186.6 L84.6 174.2 84.25 203.25 Q75.7 210.0 73.1 186.6 M-55.05 -196.95 L-64.7 -178.65 -62.4 -186.55 -55.05 -196.95 M-95.45 -0.75 Q-88.55 0.9 -82.5 -2.65 L-94.35 -2.75 -93.75 -3.85 Q-87.35 -29.45 -60.5 -78.1 L-60.0 -78.05 -63.55 -53.25 -62.95 -54.6 -65.65 -37.7 Q-81.6 23.2 -97.55 49.6 -98.15 50.5 -99.05 50.5 L-100.85 50.3 -106.15 50.5 Q-111.5 47.25 -109.95 39.7 -105.6 18.55 -95.45 -0.75 M-105.85 50.85 L-106.15 50.5 -105.15 50.95 -105.85 50.85 M-58.4 54.65 L-63.4 59.6 Q-61.35 56.9 -58.4 54.65 M-70.15 59.1 L-69.5 52.85 -57.7 52.25 -64.25 59.55 -70.15 59.1 M-13.75 60.55 Q-15.55 57.8 -18.0 55.1 L-19.6 52.55 -16.05 52.25 -7.8 52.25 -7.75 60.55 -13.75 60.55 M-94.2 51.4 Q-81.6 55.6 -78.95 66.15 L-78.75 66.25 -78.65 71.65 -78.95 71.2 Q-84.9 61.35 -99.05 59.3 L-102.7 54.8 -94.2 51.4 M-97.65 66.15 Q-120.2 59.3 -131.05 78.0 L-126.5 81.8 -125.6 98.05 Q-130.95 96.25 -133.0 89.45 -133.85 86.65 -133.8 84.15 -135.2 89.95 -131.25 95.1 -141.05 87.85 -137.2 76.05 -133.85 65.8 -123.0 62.15 -111.2 58.2 -98.65 60.2 L-97.65 66.15 M-83.35 81.8 L-90.9 69.4 Q-81.5 72.35 -83.35 81.8 M-103.5 53.75 L-104.6 52.4 Q-100.5 52.45 -96.1 51.4 -99.0 53.35 -103.5 53.75 M-84.2 204.2 L-84.3 174.2 -73.05 188.1 -73.05 190.85 Q-77.35 206.0 -84.2 204.2" fill="#a7abac" fill-rule="evenodd" stroke="none"/>
    <path d="M65.7 -178.35 Q71.6 -164.3 70.8 -149.1 70.65 -146.0 68.55 -144.0 L65.7 -178.35 M-68.7 -144.65 L-68.95 -144.85 Q-74.7 -163.1 -65.0 -177.35 L-68.7 -144.65" fill="#d19700" fill-rule="evenodd" stroke="none"/>
    <path d="M46.25 -85.0 Q0.1 -60.05 -51.5 -84.45 L-52.1 -84.75 16.35 -84.95 Q38.55 -83.85 45.65 -85.0 L46.25 -85.0 M54.55 -92.8 L54.45 -89.7 46.5 -86.8 47.4 -89.75 Q44.3 -94.3 38.45 -95.5 -6.35 -104.35 -47.35 -89.75 L-45.3 -86.2 Q-53.05 -85.65 -55.0 -91.85 -54.1 -94.3 -51.75 -95.3 -44.3 -98.45 -36.5 -99.95 11.2 -109.9 54.55 -92.8 M59.65 -74.45 L61.7 -68.45 60.2 -71.25 59.65 -74.45 M64.9 -43.95 Q83.9 31.2 94.1 45.85 93.65 48.7 92.1 49.05 74.9 36.05 72.65 14.45 71.15 -0.2 69.15 -14.75 L64.9 -43.95 M81.25 49.65 L84.0 46.65 89.45 48.85 92.4 50.5 Q81.95 56.75 78.7 62.35 78.9 54.05 81.25 49.65 M95.85 60.75 L95.65 66.5 Q77.25 76.55 87.85 94.5 L86.2 92.8 Q69.85 71.9 95.85 60.75 M84.3 83.55 Q86.55 90.95 91.9 96.9 85.45 92.55 84.4 84.65 L84.3 83.55 M-70.25 43.1 L-70.3 36.9 70.45 36.6 70.45 43.1 -70.25 43.1 M53.25 100.45 Q50.8 101.75 48.0 102.6 L33.0 103.15 26.6 99.8 Q44.05 107.45 58.5 95.6 L53.25 100.45 M-6.65 60.55 L-6.65 52.55 6.95 52.55 6.9 60.55 -6.65 60.55 M6.75 85.65 L6.4 96.5 4.3 96.85 -4.25 96.85 -6.65 96.25 -6.65 85.65 6.75 85.65 M73.1 186.6 Q75.7 210.0 84.25 203.25 L73.4 222.05 73.1 186.6 M23.95 201.65 Q16.15 197.65 12.25 189.55 25.65 209.25 48.8 202.65 60.15 199.35 66.0 188.95 51.55 215.75 23.95 201.65 M-100.85 50.3 L-99.05 50.5 Q-98.15 50.5 -97.55 49.6 -81.6 23.2 -65.65 -37.7 L-71.5 2.7 Q-74.6 24.5 -85.75 42.95 -90.55 50.9 -100.2 51.05 L-100.85 50.3 M-62.95 -54.6 L-63.55 -53.25 -62.8 -55.55 -62.95 -54.6 M-61.2 93.7 Q-51.95 102.45 -39.4 102.75 -25.25 102.75 -15.8 92.15 -18.15 95.5 -21.05 97.85 L-33.05 103.25 -42.05 103.65 Q-48.25 103.05 -53.55 100.05 -58.55 97.15 -62.75 92.15 L-61.2 93.7 M-78.75 66.25 L-78.95 66.15 Q-81.6 55.6 -94.2 51.4 L-84.85 46.65 Q-75.9 53.65 -78.75 66.25 M-97.65 66.15 L-98.65 60.2 Q-71.75 67.25 -84.05 89.15 -85.65 92.0 -87.85 94.5 L-83.35 81.8 Q-81.5 72.35 -90.9 69.4 L-97.65 66.15 M-84.2 204.2 Q-77.35 206.0 -73.05 190.85 L-73.05 222.05 -84.2 204.2 M-13.95 191.5 L-12.25 188.7 Q-19.3 207.0 -39.1 207.0 -49.1 207.0 -56.2 201.9 -62.5 197.3 -66.55 188.7 -56.55 203.45 -42.35 204.6 -23.75 205.7 -13.95 191.5" fill="#525759" fill-rule="evenodd" stroke="none"/>
    <path d="M30.7 -89.0 L30.6 -86.8 -31.7 -86.2 -31.7 -89.3 Q-20.7 -94.15 30.7 -89.0" fill="#ffe600" fill-rule="evenodd" stroke="none"/>
    <path d="M-31.7 -89.3 L-31.7 -93.3 Q-2.8 -98.3 30.85 -93.6 L30.7 -89.0 Q-20.7 -94.15 -31.7 -89.3" fill="#ff850d" fill-rule="evenodd" stroke="none"/>
  </g>
</svg>
