<?xml version="1.0" encoding="UTF-8" standalone="no"?>
<svg xmlns:xlink="http://www.w3.org/1999/xlink" height="315.0px" width="486.6px" xmlns="http://www.w3.org/2000/svg">
  <g transform="matrix(1.0, 0.0, 0.0, 1.0, -72.5, -2.5)">
    <path d="M491.55 29.75 Q507.9 21.55 520.05 15.9 561.45 -3.25 558.95 5.0 552.65 25.85 512.0 76.25 498.65 92.75 484.55 108.85 472.5 122.65 472.2 122.4 492.15 139.65 504.5 148.5 L478.5 155.5 552.5 199.5 552.5 251.5 383.5 143.5 361.5 41.5 208.5 58.5 157.5 205.5 129.5 215.5 160.5 309.5 136.5 317.5 108.5 217.5 72.5 36.5 Q178.45 25.25 438.5 26.5 434.3 35.15 435.55 34.9 436.6 34.65 443.55 29.85 463.1 18.8 478.95 36.0 478.85 36.15 491.55 29.75" fill="#27130c" fill-opacity="0.52156866" fill-rule="evenodd" stroke="none"/>
  </g>
</svg>
