<?xml version="1.0" encoding="UTF-8" standalone="no"?>
<svg xmlns:xlink="http://www.w3.org/1999/xlink" height="408.45px" width="277.3px" xmlns="http://www.w3.org/2000/svg">
  <g transform="matrix(1.0, 0.0, 0.0, 1.0, 121.1, 148.95)">
    <path d="M39.3 -131.95 L37.55 -132.5 Q32.75 -133.95 27.6 -134.8 L21.85 -135.55 20.45 -135.75 -2.25 -135.2 Q-12.8 -133.65 -22.6 -129.45 -25.05 -118.65 -35.65 -114.15 L-35.25 -108.8 Q-44.35 -123.55 -30.2 -134.15 -51.55 -125.2 -39.05 -105.25 L-40.05 -106.6 Q-47.85 -119.8 -42.05 -129.35 -58.05 -117.7 -59.2 -98.0 L-54.55 -101.3 Q-52.65 -102.7 -50.45 -102.5 -45.75 -102.5 -42.4 -98.0 -39.1 -93.55 -39.1 -87.25 L-44.2 -81.55 -42.75 -81.15 Q-31.55 -77.85 -21.8 -84.35 L-9.55 -98.55 Q-18.5 -95.05 -27.0 -97.95 -15.1 -94.95 -4.6 -103.75 -20.25 -96.15 -32.9 -106.0 L-31.2 -104.85 Q-17.15 -112.15 -1.55 -114.15 L21.25 -114.7 29.35 -113.85 39.7 -111.95 46.7 -110.05 68.05 -99.35 73.75 -94.35 83.55 -80.35 72.5 -108.7 66.85 -115.0 45.05 -129.85 39.3 -131.95 M15.0 -137.75 Q36.25 -136.35 52.55 -128.15 L50.55 -130.15 Q32.8 -147.65 7.8 -146.35 -6.95 -145.8 -19.25 -137.55 L-21.9 -135.65 -22.25 -131.45 Q-4.3 -138.8 15.0 -137.75 M60.55 -93.95 L68.8 -89.1 74.85 -82.0 78.95 -73.5 84.1 -74.0 Q47.1 -131.75 -23.7 -106.0 L-29.45 -103.85 Q8.8 -113.55 42.4 -101.9 20.25 -107.9 -2.6 -104.4 L-6.4 -100.05 -8.8 -97.3 -11.95 -93.6 Q7.75 -98.2 27.95 -97.1 47.3 -96.15 64.3 -87.1 L67.35 -42.5 29.3 -31.25 Q13.65 -29.75 -1.8 -30.9 -18.55 -31.55 -34.2 -37.45 L-36.55 -55.0 -39.6 -77.95 -44.55 -78.8 Q-40.15 -69.6 -38.8 -59.6 L-46.35 -53.2 -45.4 -49.25 -38.7 -30.9 -38.6 -30.6 -38.35 -30.0 Q-19.55 -13.65 5.45 -12.5 18.85 -12.35 32.35 -14.1 52.25 -17.45 68.9 -28.75 L69.35 -29.1 77.65 -71.9 74.45 -79.95 Q68.65 -88.45 60.55 -93.95 M45.95 -87.15 L45.4 -89.1 Q44.95 -89.3 44.7 -88.85 L44.4 -87.85 44.2 -87.45 41.45 -83.4 39.3 -80.9 39.2 -83.9 Q38.7 -86.65 36.65 -87.65 L34.15 -84.9 21.25 -79.85 19.85 -86.3 Q17.95 -89.0 13.85 -88.85 L14.7 -86.35 Q18.85 -75.95 11.45 -68.35 11.0 -67.85 10.4 -67.45 10.3 -77.5 4.8 -85.65 2.9 -87.95 0.45 -88.85 -0.25 -86.6 -1.55 -84.7 L-9.7 -78.7 -9.6 -82.9 Q-10.05 -86.8 -12.55 -88.85 L-14.2 -88.4 -16.3 -86.45 Q-18.25 -83.4 -18.25 -80.2 L-16.9 -74.9 -19.7 -77.05 -22.7 -82.25 -27.1 -64.5 -30.75 -68.7 -29.45 -55.65 Q-25.5 -54.4 -29.1 -52.45 L-26.65 -52.3 -26.65 -50.0 -28.9 -50.0 -27.55 -41.2 -24.6 -40.3 -20.6 -39.65 -8.8 -39.05 Q-7.65 -38.75 -7.05 -38.0 L-7.6 -37.55 11.15 -37.2 Q7.6 -37.45 3.8 -39.7 L22.45 -44.85 26.45 -42.65 Q27.7 -37.8 22.45 -42.2 17.7 -37.35 12.35 -37.15 L21.65 -37.0 Q21.55 -37.75 21.9 -38.2 22.25 -38.75 23.05 -38.95 L23.65 -37.1 34.05 -38.2 Q35.0 -39.0 35.95 -39.15 L36.0 -38.55 55.05 -42.95 60.1 -46.05 59.2 -46.15 Q58.55 -46.5 58.55 -47.15 L58.6 -47.85 58.9 -48.2 Q62.7 -50.35 55.3 -50.1 L55.35 -52.35 59.95 -52.75 55.75 -52.9 55.75 -55.2 59.75 -55.55 56.95 -55.75 57.1 -58.1 59.5 -58.6 58.3 -58.6 58.3 -60.85 59.4 -60.85 58.5 -72.45 56.65 -74.05 56.0 -69.15 50.1 -81.0 49.7 -82.6 48.85 -81.4 48.05 -79.9 47.5 -81.8 45.95 -87.15 M61.5 -87.0 Q24.7 -102.3 -13.95 -91.0 L-14.55 -90.7 Q10.2 -97.05 40.1 -91.55 49.55 -89.7 58.55 -86.0 L61.5 -87.0 M9.8 -32.15 L30.9 -33.95 Q49.25 -35.8 66.0 -43.5 L62.95 -85.65 59.2 -84.35 61.85 -43.5 55.65 -41.2 Q31.75 -34.25 6.7 -35.15 L-23.85 -38.65 -28.55 -39.85 -32.3 -38.2 -25.6 -36.2 9.8 -32.15 M2.8 -66.35 L-0.1 -67.0 Q-1.2 -66.15 -0.65 -64.8 -0.1 -63.5 1.25 -63.6 3.7 -63.85 2.8 -66.35 M4.65 -63.1 L-6.0 -59.95 -7.2 -67.4 -14.55 -69.6 -13.45 -74.2 Q2.75 -74.15 8.85 -64.45 3.1 -68.4 4.55 -63.9 L4.65 -63.1 M30.7 -65.55 Q30.7 -64.25 31.9 -63.7 33.25 -63.25 34.05 -64.25 34.9 -65.25 34.25 -66.45 33.45 -67.55 32.15 -67.35 30.7 -67.0 30.7 -65.55 M26.05 -68.1 Q21.6 -66.85 17.15 -67.65 27.8 -80.85 41.2 -73.65 L34.7 -69.1 Q40.5 -58.65 27.15 -60.6 25.7 -60.6 25.6 -62.45 25.4 -65.25 26.05 -68.1 M30.8 -38.55 Q29.7 -38.55 29.6 -39.65 29.45 -40.65 30.6 -40.85 31.9 -41.1 31.9 -39.85 32.0 -38.55 30.8 -38.55 M12.95 -10.95 L12.3 -10.95 12.7 -9.5 12.95 -10.95 M12.3 -6.2 L13.95 -6.2 13.5 -8.2 12.3 -8.3 12.3 -6.2 M13.05 -4.6 Q12.2 -2.4 12.15 0.1 L14.5 0.2 14.15 -4.9 Q13.2 -4.9 13.05 -4.6 M15.15 -1.0 L25.05 -1.0 25.05 -10.95 15.15 -10.95 15.15 -1.0 M68.95 -26.95 Q65.4 -24.7 68.85 -22.85 L64.55 -9.4 60.85 -9.4 56.4 1.3 57.6 4.0 56.55 8.15 59.2 9.15 60.95 11.7 62.95 12.1 65.45 9.65 78.35 13.65 Q80.3 22.3 78.05 -25.95 L77.85 -29.15 71.1 -29.15 70.7 -28.6 68.95 -26.95 M21.45 238.4 L17.6 234.25 Q20.8 194.85 15.8 155.7 L13.75 156.3 Q0.95 180.85 3.25 208.2 4.2 219.2 8.2 229.6 L-36.6 256.2 -96.65 232.4 -102.05 197.2 -82.3 198.6 Q-83.5 178.2 -76.45 159.15 -72.0 147.15 -63.95 137.35 -65.6 132.9 -65.35 128.3 -65.05 122.25 -62.8 116.8 -61.1 112.65 -58.55 109.0 L-59.0 99.5 -63.85 99.4 -55.7 16.0 Q-95.1 15.6 -119.45 -13.65 -121.4 -16.0 -121.05 -19.05 -115.2 -68.2 -74.9 -101.9 L-60.9 -100.2 Q-51.45 -139.8 -5.9 -147.65 45.1 -156.25 76.45 -108.6 87.6 -91.75 86.3 -71.1 L80.5 -70.75 74.15 -32.0 80.3 -31.75 80.9 -26.3 Q132.8 -17.0 152.05 30.3 156.2 40.45 156.2 51.5 156.3 103.95 124.05 92.95 123.3 92.3 122.65 92.4 121.25 92.6 120.0 93.55 122.1 98.9 121.25 104.7 120.85 107.6 119.55 110.15 115.6 117.7 107.4 120.4 L104.8 121.2 102.2 121.5 99.5 121.4 96.95 120.8 Q92.55 119.95 88.85 117.4 L92.0 142.1 Q96.2 177.55 99.8 213.3 L110.85 215.15 110.5 253.25 40.95 259.5 30.1 247.6 21.45 238.4 M55.25 -48.85 Q56.15 -48.9 56.3 -47.9 56.5 -46.8 55.4 -46.6 L55.15 -46.55 Q54.25 -46.55 54.0 -47.5 53.65 -48.6 54.75 -48.8 L55.25 -48.85 M52.45 -45.15 Q53.75 -45.4 53.9 -44.15 53.95 -42.95 52.9 -42.85 51.75 -42.75 51.55 -43.85 51.35 -44.95 52.45 -45.15 M47.75 -15.15 L26.2 -11.5 Q31.45 -4.1 24.9 0.65 L23.7 1.35 21.55 26.7 25.55 26.15 44.85 -1.25 49.15 -12.7 47.75 -15.15 M52.1 -11.7 L47.95 -1.25 53.65 0.1 57.85 -10.2 52.1 -11.7 M50.55 -15.45 L63.25 -11.95 66.25 -20.85 61.6 -22.3 Q55.0 -19.0 51.35 -17.7 L50.55 -15.45 M84.65 -22.9 L79.4 -23.75 80.8 14.8 106.85 37.6 118.55 29.65 119.65 29.35 Q103.4 38.95 99.45 56.9 L101.7 57.25 Q109.5 58.6 115.6 63.75 128.95 72.55 136.6 86.5 L138.4 89.9 Q174.15 5.85 84.65 -22.9 M82.0 19.4 L85.45 68.4 95.7 64.5 95.25 63.2 95.15 62.55 Q96.1 50.25 103.45 40.25 L82.0 19.4 M106.6 64.95 Q121.1 67.05 126.1 81.0 L126.7 82.8 122.55 89.45 Q128.95 95.6 137.25 93.85 129.95 64.35 98.45 59.25 L101.9 69.4 106.6 64.95 M124.9 84.85 L125.7 83.85 Q121.85 69.55 107.2 66.65 L102.9 70.8 107.35 75.9 109.65 79.0 Q102.25 69.05 90.8 68.0 L60.15 92.55 65.4 97.8 66.5 98.9 68.7 100.55 79.55 108.75 82.25 110.65 Q88.35 114.3 93.75 116.3 117.55 121.3 116.25 95.95 116.0 91.5 114.45 87.5 L116.8 92.35 124.9 84.85 M66.0 12.35 L60.8 27.05 70.2 29.35 75.6 14.8 66.0 12.35 M52.25 3.6 L46.8 2.25 Q50.6 0.65 54.4 4.15 L53.9 6.7 56.2 7.15 Q52.25 -5.5 41.65 3.4 L43.95 4.3 44.35 3.8 Q45.45 2.9 46.55 2.4 L45.8 4.05 51.45 5.6 52.25 3.6 M46.25 15.75 Q45.5 15.1 44.5 15.2 42.3 15.5 42.3 17.55 42.2 19.75 44.5 19.75 46.8 19.6 46.95 17.55 47.0 16.4 46.25 15.75 M46.4 22.15 L41.65 21.95 Q39.85 20.95 39.45 18.85 38.85 16.85 39.95 15.1 41.3 12.55 44.5 12.2 48.9 11.9 49.9 16.1 50.1 17.2 49.55 19.05 48.7 21.25 46.4 22.15 M55.55 26.05 L58.7 21.95 Q58.5 22.6 58.65 23.2 58.65 23.3 59.05 23.4 L60.85 14.75 56.45 9.1 Q59.55 13.25 57.4 18.1 L56.5 20.15 58.2 14.1 55.55 13.55 53.55 22.15 55.4 22.65 Q54.3 25.3 54.1 26.35 L52.35 26.7 51.9 28.25 58.2 30.0 53.2 53.5 56.0 55.7 Q64.1 44.2 79.3 51.0 L78.4 61.65 80.35 62.2 79.5 30.75 72.7 29.85 72.3 30.05 Q63.15 35.1 58.1 26.1 L55.55 26.05 M42.1 6.25 L26.5 29.45 3.7 29.65 Q0.85 26.7 -1.2 23.1 L-10.9 6.15 -23.15 9.35 Q-19.35 34.65 -9.1 58.0 10.6 32.85 35.55 51.9 37.55 53.45 38.75 55.7 49.05 33.55 53.2 9.35 L42.1 6.25 M51.15 31.0 L40.2 59.0 Q42.95 66.8 39.3 74.25 33.75 85.65 21.45 89.25 L37.9 88.6 Q50.3 61.5 55.0 32.1 L51.15 31.0 M76.75 27.25 L76.4 20.25 74.05 26.7 76.75 27.25 M19.45 0.75 L12.05 0.75 12.05 3.8 19.45 3.8 19.45 0.75 M19.25 8.5 L19.25 5.15 12.0 5.15 12.0 8.5 19.25 8.5 M11.95 9.6 L11.95 12.9 19.25 12.9 19.25 9.6 11.95 9.6 M19.0 14.0 L11.85 14.0 11.85 17.25 19.0 17.25 19.0 14.0 M18.95 18.3 L11.85 18.3 11.85 21.5 18.95 21.5 18.95 18.3 M11.75 22.5 L11.75 25.35 18.8 25.35 18.8 22.5 11.75 22.5 M-10.1 2.65 L5.1 26.8 8.95 26.8 9.4 -11.05 -15.55 -14.8 -17.3 -13.15 -12.05 -0.45 -16.85 -2.25 -20.8 -12.4 -26.8 -10.85 -22.95 -0.7 -20.95 -1.15 -25.3 2.25 -25.25 6.6 -22.8 6.05 -23.2 3.45 Q-22.4 3.25 -21.95 3.6 -21.1 4.2 -20.6 5.4 L-14.65 3.85 -15.5 1.7 -19.55 2.5 -13.75 1.0 Q-12.9 2.1 -11.75 2.6 L-10.1 2.65 M36.75 39.9 Q36.0 39.25 34.8 39.5 32.7 39.8 32.9 41.8 33.1 43.65 35.15 43.55 37.1 43.45 37.35 41.7 37.55 40.55 36.75 39.9 M40.3 41.25 Q40.2 44.45 37.1 45.75 34.0 47.1 31.7 45.35 29.05 43.1 30.25 40.15 31.45 37.05 34.9 36.7 38.45 36.25 39.9 39.15 L40.3 41.25 M28.55 63.85 L18.8 65.75 Q18.4 66.1 18.3 66.55 18.2 67.1 18.65 67.5 L20.65 68.75 28.55 63.85 M20.8 71.05 L18.8 69.6 15.7 70.6 15.0 71.65 Q11.15 76.95 4.7 74.9 L2.35 74.0 -4.75 72.55 -0.1 66.85 Q0.5 65.7 1.35 64.75 7.35 58.35 13.95 63.7 14.8 64.4 15.45 65.4 16.15 65.25 16.4 64.8 L17.25 62.55 32.8 62.75 20.8 71.05 M15.25 67.5 L15.7 68.6 16.8 68.3 16.25 67.05 15.25 67.5 M16.9 66.95 L17.25 68.05 18.1 67.85 17.7 66.65 Q17.35 66.75 16.9 66.95 M13.15 66.15 Q4.3 58.9 2.0 70.05 L13.6 66.95 13.15 66.15 M36.2 71.1 Q37.8 44.35 9.85 47.65 -3.45 50.95 -7.5 63.75 -9.45 69.95 -5.85 75.15 8.95 96.5 30.45 81.2 35.85 77.35 36.2 71.1 M76.75 52.2 L71.1 52.2 71.1 54.4 76.75 54.4 76.75 52.2 M74.5 61.25 L71.35 61.25 71.35 57.4 74.5 57.4 74.5 61.25 M70.0 52.4 L66.8 52.4 66.6 54.5 69.75 54.4 70.0 52.4 M65.35 52.4 L59.1 53.4 65.25 54.5 65.35 52.4 M62.05 60.0 Q60.9 62.2 63.05 62.75 65.25 63.65 66.25 61.35 66.65 60.1 66.0 59.35 65.25 58.55 64.15 58.7 62.5 58.9 62.05 60.0 M68.2 60.7 Q68.1 62.0 67.0 63.1 65.9 64.3 64.25 64.5 62.35 64.85 61.05 63.85 58.95 62.2 60.3 59.7 61.5 57.35 64.05 57.05 65.9 56.8 67.1 57.8 68.45 58.8 68.2 60.7 M70.6 63.55 L73.75 63.55 73.75 67.3 70.6 67.3 70.6 63.55 M63.05 74.0 Q61.25 74.25 60.05 73.25 58.7 72.25 58.85 70.35 59.15 67.25 62.95 66.75 66.8 66.4 67.0 69.5 67.1 71.25 65.8 72.6 64.55 73.75 63.05 74.0 M69.85 69.55 L72.8 69.55 72.8 73.15 69.85 73.15 69.85 69.55 M79.15 72.7 L79.15 64.4 76.85 72.15 79.15 72.7 M53.65 58.5 L53.35 59.0 53.65 58.55 Q55.0 64.55 48.75 69.15 48.25 69.5 48.05 70.25 L53.4 65.85 53.2 67.05 Q57.95 59.3 52.55 55.6 53.3 57.1 53.65 58.5 M52.0 69.4 L48.45 70.9 39.55 90.8 -9.8 92.65 -19.45 72.8 -29.2 73.15 -28.35 84.5 -34.05 89.6 -44.95 89.95 -51.3 85.15 -51.95 78.65 -58.1 80.1 -59.65 97.3 58.7 91.6 60.8 90.05 54.65 89.75 54.55 69.95 52.0 69.4 M76.15 77.45 L79.05 75.1 76.5 74.6 76.15 77.45 M66.35 85.55 L59.4 84.4 68.8 83.4 73.2 79.75 76.6 55.35 58.75 55.8 55.55 87.4 63.7 87.6 66.35 85.55 M-55.95 102.7 L-55.8 108.55 75.95 109.8 66.3 101.2 58.3 93.45 -56.0 99.3 -55.95 102.7 M79.4 131.85 L78.8 121.15 81.0 113.0 18.45 111.2 14.5 119.85 Q13.25 125.2 13.65 131.65 L16.6 147.1 83.35 146.85 79.4 131.85 M11.65 131.6 L11.55 127.95 11.75 123.9 12.4 119.7 15.7 111.2 -5.9 111.0 Q-9.75 114.45 -11.4 119.5 L-12.3 123.25 -12.7 127.05 -12.65 131.0 -8.65 143.15 Q-0.35 154.3 13.35 153.95 L14.95 153.8 13.4 143.75 Q11.95 137.7 11.65 131.6 M2.2 229.2 L3.6 228.0 Q-6.75 190.3 11.05 156.05 L11.05 155.8 Q3.55 155.55 -2.1 152.15 -7.85 148.75 -11.7 142.2 L-12.65 139.9 -13.35 140.6 Q-25.1 161.5 -26.05 185.6 -26.45 195.45 -24.8 205.1 L-46.85 205.45 -37.25 251.35 -2.3 231.8 2.2 229.2 M22.85 162.1 L28.05 192.35 30.4 212.2 51.3 213.1 94.9 214.6 Q95.7 210.05 95.35 205.8 92.85 177.05 84.0 149.5 L81.9 149.5 17.7 149.2 22.85 162.1 M82.55 114.35 Q77.0 129.5 85.0 144.9 91.2 129.9 84.9 115.05 L82.55 114.35 M58.5 253.5 L107.4 250.9 107.5 220.1 41.2 216.35 41.25 218.5 42.5 254.35 58.5 253.5 M39.3 225.65 L38.85 216.35 27.9 213.1 27.05 202.0 17.9 154.5 20.35 222.45 21.4 233.95 40.35 252.75 39.3 225.65 M-24.15 -135.3 Q-40.6 -130.6 -37.7 -114.15 -24.1 -120.45 -23.25 -135.1 L-24.15 -135.3 M-61.4 -96.1 L-72.5 -99.75 Q-116.35 -67.8 -111.6 -20.2 -111.3 -17.4 -107.45 -16.5 L-111.9 -15.6 -116.6 -16.9 Q-92.65 12.3 -53.05 13.1 L-51.1 -29.35 -63.45 -30.65 -69.2 -31.15 -79.25 -25.75 -82.5 -24.0 -40.15 -60.5 -40.5 -62.5 Q-43.95 -83.6 -61.4 -96.1 M-32.15 -67.8 L-33.7 -78.0 -37.95 -77.85 -36.35 -63.8 -33.2 -39.65 -29.2 -41.3 -32.15 -67.8 M-57.35 -95.0 L-46.2 -81.7 -40.05 -88.1 -43.2 -97.8 Q-43.65 -98.65 -44.55 -99.2 -52.7 -104.05 -59.15 -96.25 L-57.35 -95.0 M-47.9 -28.95 L-51.7 16.2 Q-51.65 15.7 -50.8 14.75 -42.4 5.4 -35.5 12.2 L-31.1 11.1 Q-29.65 8.3 -26.55 8.25 L-26.65 7.05 -25.8 6.8 Q-27.2 3.8 -25.8 0.95 L-30.1 -10.2 -30.7 -10.2 Q-41.95 -14.55 -36.15 -25.6 L-41.1 -31.0 -47.65 -31.7 -47.9 -28.95 M-46.1 -35.45 L-48.75 -47.9 -67.5 -33.8 -50.3 -32.9 Q-49.95 -35.95 -46.1 -35.45 M-2.75 -38.4 Q-3.85 -38.2 -4.3 -39.3 -4.6 -40.55 -3.5 -40.75 -2.2 -41.1 -1.95 -39.95 -1.65 -38.75 -2.75 -38.4 M-23.15 -44.05 Q-23.15 -42.65 -24.45 -42.85 -25.35 -42.95 -25.35 -43.95 -25.45 -44.95 -24.55 -45.15 -23.15 -45.5 -23.15 -44.05 M-26.65 -48.9 Q-25.6 -48.95 -25.45 -47.8 -25.45 -46.95 -26.35 -46.6 -27.9 -46.5 -27.9 -47.9 -27.7 -48.9 -26.65 -48.9 M-31.95 -12.95 L-19.15 -16.05 -32.85 -23.1 -34.95 -22.4 -31.95 -12.95 M-14.65 15.3 Q-16.75 15.75 -16.5 17.85 -16.4 19.95 -14.2 20.05 -11.15 20.05 -11.75 17.2 -12.25 14.85 -14.65 15.3 M-18.3 13.75 Q-17.0 12.45 -14.9 12.35 -11.25 11.9 -9.45 14.75 -8.6 15.95 -8.6 17.4 -8.35 20.95 -11.45 22.4 -14.65 23.9 -17.4 21.95 -19.85 20.25 -19.85 17.3 -19.85 15.3 -18.3 13.75 M-31.85 23.9 L-30.2 21.35 -23.15 26.1 -25.9 23.65 -24.45 22.05 -26.15 13.0 -28.45 13.65 -27.2 21.95 -29.15 13.75 -26.25 10.45 -30.4 10.9 -31.3 13.55 -34.5 15.1 -31.85 23.9 M-23.05 26.8 L-30.85 26.7 Q-31.4 29.15 -33.25 30.75 -39.85 36.45 -46.0 31.3 L-53.5 32.2 -56.7 65.65 -51.9 64.2 -54.4 57.35 -48.55 51.6 -37.05 51.4 -30.2 56.9 -30.1 59.0 -27.9 58.45 -25.15 55.35 -30.0 30.85 -22.6 28.8 -23.05 26.8 M-26.55 32.95 Q-21.9 63.2 -8.0 90.35 L7.85 89.8 Q-12.95 84.35 -10.9 63.5 L-10.55 61.55 Q-17.55 47.1 -21.85 31.65 L-26.55 32.95 M-4.8 47.2 Q-6.95 47.3 -8.6 45.9 -10.35 44.35 -10.2 42.05 -10.15 40.25 -8.8 38.9 -7.5 37.6 -5.5 37.5 -3.2 37.25 -1.5 38.5 0.25 39.8 0.35 41.8 0.55 44.2 -1.05 45.75 -2.6 47.2 -4.8 47.2 M-2.6 42.7 Q-2.3 40.0 -5.15 40.25 -6.95 40.45 -7.25 41.9 -7.7 44.2 -5.25 44.45 -2.85 44.75 -2.6 42.7 M-39.05 12.35 L-48.55 15.1 -43.2 30.45 -33.75 27.65 -39.05 12.35 M-47.45 27.55 L-50.2 19.95 -50.6 28.45 -47.45 27.55 M-47.5 56.8 L-36.95 56.8 -36.95 59.3 -47.5 59.3 -47.5 56.8 M-50.95 61.2 L-32.95 60.8 -33.2 58.0 -38.05 54.05 -47.1 54.25 -51.2 58.4 -50.95 61.2 M-46.1 69.45 L-35.95 69.45 -35.95 72.1 -46.1 72.1 -46.1 69.45 M-45.1 78.9 Q-47.0 78.75 -47.65 77.25 -48.45 74.9 -45.65 74.45 -44.25 74.25 -43.1 75.25 -41.9 76.1 -42.55 77.55 -43.1 78.85 -45.1 78.9 M-45.05 81.0 L-35.1 81.0 -35.1 83.35 -45.05 83.35 -45.05 81.0 M-52.25 76.1 L-53.4 67.5 -55.7 76.9 -52.25 76.1 M-43.8 87.6 L-35.3 87.25 -31.3 83.5 -32.4 67.85 -50.2 68.3 -48.55 84.2 -43.8 87.6 M-0.75 69.9 Q-1.0 69.55 -2.85 70.6 L-0.85 70.9 -0.75 70.9 Q0.0 70.75 -0.75 69.9 M-29.9 61.65 L-31.3 65.2 -29.3 70.6 -25.15 69.5 -27.9 61.2 -29.9 61.65 M-25.0 56.05 Q-28.3 61.8 -25.0 67.45 -23.2 70.55 -19.95 72.05 L-22.0 69.65 -25.7 60.2 -25.0 56.05 M-33.4 76.9 Q-33.75 78.5 -35.95 78.55 -38.15 78.4 -38.6 76.9 -39.3 74.65 -36.6 74.25 -35.3 74.0 -34.3 74.8 -33.2 75.55 -33.4 76.9 M-13.5 119.35 L-9.05 110.9 -56.9 110.35 -61.25 118.4 -63.1 129.65 Q-63.05 132.9 -62.0 136.25 L-13.3 138.0 Q-14.4 134.45 -14.7 130.95 L-13.5 119.35 M-15.7 140.1 L-62.45 138.45 Q-72.5 152.9 -76.35 170.35 -79.6 184.95 -78.2 199.8 L-56.55 201.2 -27.55 202.9 Q-30.2 183.35 -23.75 164.5 -18.8 150.0 -15.7 140.1 M-49.35 209.0 L-50.4 204.65 -98.65 201.6 -98.1 204.15 -93.2 231.05 -48.75 247.5 -40.15 250.5 -49.35 209.0" fill="#000000" fill-rule="evenodd" stroke="none"/>
    <path d="M-1.55 -114.15 Q-17.15 -112.15 -31.2 -104.85 L-32.9 -106.0 Q-34.5 -107.25 -35.25 -108.8 L-35.65 -114.15 Q-25.05 -118.65 -22.6 -129.45 -12.8 -133.65 -2.25 -135.2 L-1.55 -114.15 M60.55 -93.95 Q53.45 -98.75 44.65 -101.3 L42.4 -101.9 Q8.8 -113.55 -29.45 -103.85 L-23.7 -106.0 Q47.1 -131.75 84.1 -74.0 L78.95 -73.5 74.85 -82.0 Q72.3 -85.8 68.8 -89.1 L60.55 -93.95" fill="#a85b00" fill-rule="evenodd" stroke="none"/>
    <path d="M39.3 -131.95 L37.6 -132.3 37.55 -132.5 39.3 -131.95 M46.7 -110.05 Q46.75 -113.45 45.05 -129.85 L66.85 -115.0 68.05 -99.35 46.7 -110.05 M21.85 -135.55 L27.6 -134.8 27.6 -134.4 21.85 -135.55 M21.25 -114.7 L-1.55 -114.15 -2.25 -135.2 20.45 -135.75 21.25 -114.7 M72.5 -108.7 L83.55 -80.35 73.75 -94.35 72.5 -108.7" fill="#d19700" fill-rule="evenodd" stroke="none"/>
    <path d="M37.55 -132.5 L37.6 -132.3 39.7 -111.95 29.35 -113.85 27.6 -134.4 27.6 -134.8 Q32.75 -133.95 37.55 -132.5 M15.0 -137.75 Q3.35 -141.1 7.0 -145.6 L7.8 -146.35 Q32.8 -147.65 50.55 -130.15 L52.55 -128.15 Q36.25 -136.35 15.0 -137.75 M-32.9 -106.0 Q-20.25 -96.15 -4.6 -103.75 -15.1 -94.95 -27.0 -97.95 -18.5 -95.05 -9.55 -98.55 L-21.8 -84.35 Q-21.55 -84.8 -21.7 -85.2 -32.25 -81.65 -39.1 -87.25 -39.1 -93.55 -42.4 -98.0 -45.75 -102.5 -50.45 -102.5 -54.55 -114.25 -42.05 -129.35 -47.85 -119.8 -40.05 -106.6 L-39.05 -105.25 Q-51.55 -125.2 -30.2 -134.15 -44.35 -123.55 -35.25 -108.8 -34.5 -107.25 -32.9 -106.0 M-8.8 -97.3 Q39.7 -108.65 65.8 -87.55 73.45 -80.0 77.65 -71.9 L69.35 -29.1 68.9 -28.75 Q52.25 -17.45 32.35 -14.1 32.2 -17.15 29.3 -31.25 L67.35 -42.5 64.3 -87.1 Q47.3 -96.15 27.95 -97.1 7.75 -98.2 -11.95 -93.6 L-8.8 -97.3 M-38.7 -30.9 L-45.4 -49.25 -43.6 -50.4 Q-40.2 -35.4 -38.7 -30.9 M2.8 -66.35 Q3.7 -63.85 1.25 -63.6 -0.1 -63.5 -0.65 -64.8 -1.2 -66.15 -0.1 -67.0 L2.8 -66.35 M30.7 -65.55 Q30.7 -67.0 32.15 -67.35 33.45 -67.55 34.25 -66.45 34.9 -65.25 34.05 -64.25 33.25 -63.25 31.9 -63.7 30.7 -64.25 30.7 -65.55 M68.95 -26.95 L70.7 -28.6 71.1 -29.15 77.85 -29.15 78.05 -25.95 Q80.3 22.3 78.35 13.65 L65.45 9.65 62.95 12.1 60.95 11.7 59.2 9.15 56.55 8.15 57.6 4.0 56.4 1.3 60.85 -9.4 64.55 -9.4 68.85 -22.85 Q65.4 -24.7 68.95 -26.95 M47.75 -15.15 L49.15 -12.7 44.85 -1.25 25.55 26.15 21.55 26.7 23.7 1.35 24.9 0.65 Q31.45 -4.1 26.2 -11.5 L47.75 -15.15 M115.6 63.75 Q107.25 47.05 119.95 31.05 L121.65 28.85 Q84.05 17.0 84.65 -22.9 174.15 5.85 138.4 89.9 L136.6 86.5 Q128.95 72.55 115.6 63.75 M107.35 75.9 Q108.3 74.5 112.95 70.95 124.65 77.65 124.9 84.85 L116.8 92.35 114.45 87.5 Q116.0 91.5 116.25 95.95 117.55 121.3 93.75 116.3 112.45 116.4 109.7 96.4 107.15 78.0 90.8 68.0 102.25 69.05 109.65 79.0 L107.35 75.9 M68.7 100.55 L66.5 98.9 65.4 97.8 69.4 101.05 68.7 100.55 M54.1 26.35 L55.55 26.05 58.1 26.1 Q63.15 35.1 72.3 30.05 L72.7 29.85 79.5 30.75 80.35 62.2 78.4 61.65 79.3 51.0 Q64.1 44.2 56.0 55.7 L53.2 53.5 58.2 30.0 51.9 28.25 52.35 26.7 54.1 26.35 M28.55 63.85 L20.65 68.75 18.65 67.5 Q18.2 67.1 18.3 66.55 18.4 66.1 18.8 65.75 L28.55 63.85 M16.9 66.95 Q17.35 66.75 17.7 66.65 L18.1 67.85 17.25 68.05 16.9 66.95 M15.25 67.5 L16.25 67.05 16.8 68.3 15.7 68.6 15.25 67.5 M76.15 77.45 L76.5 74.6 79.05 75.1 76.15 77.45 M78.8 121.15 L79.4 131.85 13.65 131.65 Q13.25 125.2 14.5 119.85 L78.8 121.15 M-12.7 127.05 L-12.3 123.25 11.75 123.9 11.55 127.95 -12.7 127.05 M-2.3 231.8 L-37.25 251.35 -46.85 205.45 -24.8 205.1 Q-26.45 195.45 -26.05 185.6 -25.1 161.5 -13.35 140.6 L-3.5 157.0 Q-21.85 195.1 -2.3 231.8 M28.05 192.35 L22.85 162.1 Q25.9 169.85 28.05 192.35 M81.9 149.5 L84.0 149.5 Q92.85 177.05 95.35 205.8 95.7 210.05 94.9 214.6 L51.3 213.1 Q46.9 189.45 48.8 166.05 48.95 164.4 50.4 163.4 64.55 153.4 81.9 149.5 M82.55 114.35 L84.9 115.05 Q91.2 129.9 85.0 144.9 77.0 129.5 82.55 114.35 M107.5 220.1 L105.2 220.05 41.25 218.5 41.2 216.35 107.5 220.1 M-107.45 -16.5 Q-101.85 -59.25 -65.2 -92.3 L-61.4 -96.1 Q-43.95 -83.6 -40.5 -62.5 L-40.15 -60.5 -82.5 -24.0 -79.25 -25.75 -81.95 -23.85 -63.45 -30.65 -51.1 -29.35 -61.0 0.1 Q-88.2 -2.1 -111.9 -15.6 L-107.45 -16.5 M-57.35 -95.0 L-43.2 -97.8 -40.05 -88.1 -46.2 -81.7 -57.35 -95.0 M-41.1 -31.0 L-47.9 -28.95 -47.65 -31.7 -41.1 -31.0 M-23.05 26.8 L-22.6 28.8 -30.0 30.85 -25.15 55.35 -27.9 58.45 -30.1 59.0 -30.2 56.9 -37.05 51.4 -48.55 51.6 -54.4 57.35 -51.9 64.2 -56.7 65.65 -53.5 32.2 -46.0 31.3 Q-39.85 36.45 -33.25 30.75 -31.4 29.15 -30.85 26.7 L-23.05 26.8 M-0.75 69.9 Q0.0 70.75 -0.75 70.9 L-0.85 70.9 -2.85 70.6 Q-1.0 69.55 -0.75 69.9 M-61.25 118.4 L-13.5 119.35 -14.7 130.95 -63.1 129.65 -61.25 118.4 M-15.7 140.1 Q-18.8 150.0 -23.75 164.5 -30.2 183.35 -27.55 202.9 L-56.55 201.2 Q-80.95 161.65 -15.7 140.1 M-98.65 201.6 L-50.4 204.65 -49.35 209.0 -98.65 201.6" fill="#ffffff" fill-rule="evenodd" stroke="none"/>
    <path d="M7.8 -146.35 L7.0 -145.6 Q3.35 -141.1 15.0 -137.75 -4.3 -138.8 -22.25 -131.45 L-21.9 -135.65 -19.25 -137.55 Q-6.95 -145.8 7.8 -146.35 M-21.8 -84.35 Q-31.55 -77.85 -42.75 -81.15 L-44.2 -81.55 -39.1 -87.25 Q-32.25 -81.65 -21.7 -85.2 -21.55 -84.8 -21.8 -84.35 M-50.45 -102.5 Q-52.65 -102.7 -54.55 -101.3 L-59.2 -98.0 Q-58.05 -117.7 -42.05 -129.35 -54.55 -114.25 -50.45 -102.5 M-6.4 -100.05 Q23.05 -108.05 52.35 -97.15 67.2 -90.15 74.45 -79.95 L77.65 -71.9 Q73.45 -80.0 65.8 -87.55 39.7 -108.65 -8.8 -97.3 L-6.4 -100.05 M32.35 -14.1 Q18.85 -12.35 5.45 -12.5 -19.55 -13.65 -38.35 -30.0 L-38.6 -30.6 -38.7 -30.9 Q-40.2 -35.4 -43.6 -50.4 L-36.55 -55.0 -34.2 -37.45 Q-18.55 -31.55 -1.8 -30.9 13.65 -29.75 29.3 -31.25 32.2 -17.15 32.35 -14.1 M6.7 -35.15 Q31.75 -34.25 55.65 -41.2 L61.85 -43.5 59.2 -84.35 62.95 -85.65 66.0 -43.5 Q49.25 -35.8 30.9 -33.95 L9.8 -32.15 6.7 -35.15 M-25.6 -36.2 L-32.3 -38.2 -28.55 -39.85 -23.85 -38.65 Q-24.95 -37.95 -26.0 -37.3 L-25.6 -36.2 M52.1 -11.7 L57.85 -10.2 53.65 0.1 47.95 -1.25 52.1 -11.7 M115.6 63.75 Q109.5 58.6 101.7 57.25 L99.45 56.9 Q103.4 38.95 119.65 29.35 L118.55 29.65 106.85 37.6 80.8 14.8 79.4 -23.75 84.65 -22.9 Q84.05 17.0 121.65 28.85 L119.95 31.05 Q107.25 47.05 115.6 63.75 M107.35 75.9 L102.9 70.8 107.2 66.65 Q121.85 69.55 125.7 83.85 L124.9 84.85 Q124.65 77.65 112.95 70.95 108.3 74.5 107.35 75.9 M106.6 64.95 L101.9 69.4 98.45 59.25 Q129.95 64.35 137.25 93.85 128.95 95.6 122.55 89.45 L126.7 82.8 126.1 81.0 Q121.1 67.05 106.6 64.95 M93.75 116.3 Q88.35 114.3 82.25 110.65 L79.55 108.75 68.7 100.55 69.4 101.05 65.4 97.8 60.15 92.55 90.8 68.0 Q107.15 78.0 109.7 96.4 112.45 116.4 93.75 116.3 M52.25 3.6 L51.45 5.6 45.8 4.05 46.55 2.4 Q45.45 2.9 44.35 3.8 L43.95 4.3 41.65 3.4 Q52.25 -5.5 56.2 7.15 L53.9 6.7 54.4 4.15 Q50.6 0.65 46.8 2.25 L52.25 3.6 M46.25 15.75 Q47.0 16.4 46.95 17.55 46.8 19.6 44.5 19.75 42.2 19.75 42.3 17.55 42.3 15.5 44.5 15.2 45.5 15.1 46.25 15.75 M54.1 26.35 Q54.3 25.3 55.4 22.65 L53.55 22.15 55.55 13.55 58.2 14.1 56.5 20.15 57.4 18.1 Q59.55 13.25 56.45 9.1 L60.85 14.75 59.05 23.4 Q58.65 23.3 58.65 23.2 58.5 22.6 58.7 21.95 L55.55 26.05 54.1 26.35 M76.75 27.25 L74.05 26.7 76.4 20.25 76.75 27.25 M51.15 31.0 L55.0 32.1 Q50.3 61.5 37.9 88.6 L21.45 89.25 Q33.75 85.65 39.3 74.25 42.95 66.8 40.2 59.0 L51.15 31.0 M-12.05 -0.45 L-17.3 -13.15 -15.55 -14.8 9.4 -11.05 8.95 26.8 5.1 26.8 -10.1 2.65 -12.05 -0.45 M11.75 22.5 L18.8 22.5 18.8 25.35 11.75 25.35 11.75 22.5 M18.95 18.3 L18.95 21.5 11.85 21.5 11.85 18.3 18.95 18.3 M19.0 14.0 L19.0 17.25 11.85 17.25 11.85 14.0 19.0 14.0 M36.75 39.9 Q37.55 40.55 37.35 41.7 37.1 43.45 35.15 43.55 33.1 43.65 32.9 41.8 32.7 39.8 34.8 39.5 36.0 39.25 36.75 39.9 M76.75 52.2 L76.75 54.4 71.1 54.4 71.1 52.2 76.75 52.2 M74.5 61.25 L74.5 57.4 71.35 57.4 71.35 61.25 74.5 61.25 M65.35 52.4 L65.25 54.5 59.1 53.4 65.35 52.4 M70.0 52.4 L69.75 54.4 66.6 54.5 66.8 52.4 70.0 52.4 M69.85 69.55 L69.85 73.15 72.8 73.15 72.8 69.55 69.85 69.55 M63.05 74.0 Q64.55 73.75 65.8 72.6 67.1 71.25 67.0 69.5 66.8 66.4 62.95 66.75 59.15 67.25 58.85 70.35 58.7 72.25 60.05 73.25 61.25 74.25 63.05 74.0 M70.6 63.55 L70.6 67.3 73.75 67.3 73.75 63.55 70.6 63.55 M68.2 60.7 Q68.45 58.8 67.1 57.8 65.9 56.8 64.05 57.05 61.5 57.35 60.3 59.7 58.95 62.2 61.05 63.85 62.35 64.85 64.25 64.5 65.9 64.3 67.0 63.1 68.1 62.0 68.2 60.7 M52.0 69.4 L54.55 69.95 54.65 89.75 60.8 90.05 58.7 91.6 -59.65 97.3 -58.1 80.1 -51.95 78.65 -51.3 85.15 -44.95 89.95 -34.05 89.6 -28.35 84.5 -29.2 73.15 -19.45 72.8 -9.8 92.65 39.55 90.8 48.45 70.9 52.0 69.4 M53.65 58.5 Q53.3 57.1 52.55 55.6 57.95 59.3 53.2 67.05 L53.4 65.85 48.05 70.25 Q48.25 69.5 48.75 69.15 55.0 64.55 53.65 58.55 L53.35 59.0 53.65 58.5 M79.15 72.7 L76.85 72.15 79.15 64.4 79.15 72.7 M66.3 101.2 L75.95 109.8 -55.8 108.55 -55.95 102.7 66.3 101.2 M66.35 85.55 L63.7 87.6 55.55 87.4 58.75 55.8 76.6 55.35 73.2 79.75 68.8 83.4 59.4 84.4 66.35 85.55 M78.8 121.15 L14.5 119.85 18.45 111.2 81.0 113.0 78.8 121.15 M13.65 131.65 L79.4 131.85 83.35 146.85 16.6 147.1 13.65 131.65 M11.55 127.95 L11.65 131.6 -12.65 131.0 -12.7 127.05 11.55 127.95 M13.4 143.75 L14.95 153.8 13.35 153.95 Q-0.35 154.3 -8.65 143.15 L13.4 143.75 M-12.3 123.25 L-11.4 119.5 12.4 119.7 11.75 123.9 -12.3 123.25 M-2.1 152.15 L4.65 159.2 Q-9.35 194.0 2.2 229.2 L-2.3 231.8 Q-21.85 195.1 -3.5 157.0 L-13.35 140.6 -12.65 139.9 -11.7 142.2 Q-7.85 148.75 -2.1 152.15 M22.85 162.1 L17.7 149.2 81.9 149.5 Q64.55 153.4 50.4 163.4 48.95 164.4 48.8 166.05 46.9 189.45 51.3 213.1 L30.4 212.2 28.05 192.35 Q25.9 169.85 22.85 162.1 M105.2 220.05 Q82.9 247.95 58.5 253.5 L42.5 254.35 41.25 218.5 105.2 220.05 M27.05 202.0 L27.9 213.1 38.85 216.35 39.3 225.65 Q34.45 239.45 21.4 233.95 L20.35 222.45 Q25.7 213.05 27.05 202.0 M-107.45 -16.5 Q-111.3 -17.4 -111.6 -20.2 -116.35 -67.8 -72.5 -99.75 L-61.4 -96.1 -65.2 -92.3 Q-101.85 -59.25 -107.45 -16.5 M-79.25 -25.75 L-69.2 -31.15 -63.45 -30.65 -81.95 -23.85 -79.25 -25.75 M-51.1 -29.35 L-53.05 13.1 Q-92.65 12.3 -116.6 -16.9 L-111.9 -15.6 Q-88.2 -2.1 -61.0 0.1 L-51.1 -29.35 M-36.35 -63.8 Q-33.45 -63.65 -32.15 -67.8 L-29.2 -41.3 -33.2 -39.65 -36.35 -63.8 M-43.2 -97.8 L-57.35 -95.0 -59.15 -96.25 Q-52.7 -104.05 -44.55 -99.2 -43.65 -98.65 -43.2 -97.8 M-47.9 -28.95 L-41.1 -31.0 -36.15 -25.6 Q-41.95 -14.55 -30.7 -10.2 L-30.1 -10.2 -25.8 0.95 Q-27.2 3.8 -25.8 6.8 L-26.65 7.05 -26.55 8.25 Q-29.65 8.3 -31.1 11.1 L-35.5 12.2 Q-42.4 5.4 -50.8 14.75 -51.65 15.7 -51.7 16.2 L-47.9 -28.95 M-26.55 32.95 L-21.85 31.65 Q-17.55 47.1 -10.55 61.55 L-10.9 63.5 Q-12.95 84.35 7.85 89.8 L-8.0 90.35 Q-21.9 63.2 -26.55 32.95 M-2.6 42.7 Q-2.85 44.75 -5.25 44.45 -7.7 44.2 -7.25 41.9 -6.95 40.45 -5.15 40.25 -2.3 40.0 -2.6 42.7 M-47.5 56.8 L-47.5 59.3 -36.95 59.3 -36.95 56.8 -47.5 56.8 M-50.95 61.2 L-51.2 58.4 -47.1 54.25 -38.05 54.05 -33.2 58.0 -32.95 60.8 -50.95 61.2 M-45.05 81.0 L-45.05 83.35 -35.1 83.35 -35.1 81.0 -45.05 81.0 M-45.1 78.9 Q-43.1 78.85 -42.55 77.55 -41.9 76.1 -43.1 75.25 -44.25 74.25 -45.65 74.45 -48.45 74.9 -47.65 77.25 -47.0 78.75 -45.1 78.9 M-46.1 69.45 L-46.1 72.1 -35.95 72.1 -35.95 69.45 -46.1 69.45 M-43.8 87.6 L-48.55 84.2 -50.2 68.3 -32.4 67.85 -31.3 83.5 -35.3 87.25 -43.8 87.6 M-52.25 76.1 L-55.7 76.9 -53.4 67.5 -52.25 76.1 M-25.0 56.05 L-25.7 60.2 -22.0 69.65 -19.95 72.05 Q-23.2 70.55 -25.0 67.45 -28.3 61.8 -25.0 56.05 M-29.9 61.65 L-27.9 61.2 -25.15 69.5 -29.3 70.6 -31.3 65.2 -29.9 61.65 M-33.4 76.9 Q-33.2 75.55 -34.3 74.8 -35.3 74.0 -36.6 74.25 -39.3 74.65 -38.6 76.9 -38.15 78.4 -35.95 78.55 -33.75 78.5 -33.4 76.9 M-61.25 118.4 L-56.9 110.35 -9.05 110.9 -13.5 119.35 -61.25 118.4 M-14.7 130.95 Q-14.4 134.45 -13.3 138.0 L-62.0 136.25 Q-63.05 132.9 -63.1 129.65 L-14.7 130.95 M-56.55 201.2 L-78.2 199.8 Q-79.6 184.95 -76.35 170.35 -72.5 152.9 -62.45 138.45 L-15.7 140.1 Q-80.95 161.65 -56.55 201.2 M-98.65 201.6 L-49.35 209.0 -40.15 250.5 -48.75 247.5 Q-68.85 235.4 -98.1 204.15 L-98.65 201.6" fill="#a7abac" fill-rule="evenodd" stroke="none"/>
    <path d="M42.4 -101.9 L44.65 -101.3 Q53.45 -98.75 60.55 -93.95 68.65 -88.45 74.45 -79.95 67.2 -90.15 52.35 -97.15 23.05 -108.05 -6.4 -100.05 L-2.6 -104.4 Q20.25 -107.9 42.4 -101.9 M-45.4 -49.25 L-46.35 -53.2 -38.8 -59.6 Q-40.15 -69.6 -44.55 -78.8 L-39.6 -77.95 -36.55 -55.0 -43.6 -50.4 -45.4 -49.25 M61.5 -87.0 L58.55 -86.0 Q49.55 -89.7 40.1 -91.55 10.2 -97.05 -14.55 -90.7 L-13.95 -91.0 Q24.7 -102.3 61.5 -87.0 M6.7 -35.15 L9.8 -32.15 -25.6 -36.2 -26.0 -37.3 Q-24.95 -37.95 -23.85 -38.65 L6.7 -35.15 M15.15 -1.0 L15.15 -10.95 25.05 -10.95 25.05 -1.0 15.15 -1.0 M13.05 -4.6 Q13.2 -4.9 14.15 -4.9 L14.5 0.2 12.15 0.1 Q12.2 -2.4 13.05 -4.6 M12.3 -6.2 L12.3 -8.3 13.5 -8.2 13.95 -6.2 12.3 -6.2 M12.95 -10.95 L12.7 -9.5 12.3 -10.95 12.95 -10.95 M30.1 247.6 Q24.25 242.25 21.45 238.4 L30.1 247.6 M11.95 9.6 L19.25 9.6 19.25 12.9 11.95 12.9 11.95 9.6 M19.25 8.5 L12.0 8.5 12.0 5.15 19.25 5.15 19.25 8.5 M19.45 0.75 L19.45 3.8 12.05 3.8 12.05 0.75 19.45 0.75 M-12.05 -0.45 L-10.1 2.65 -11.75 2.6 Q-12.9 2.1 -13.75 1.0 L-19.55 2.5 -15.5 1.7 -14.65 3.85 -20.6 5.4 Q-21.1 4.2 -21.95 3.6 -22.4 3.25 -23.2 3.45 L-22.8 6.05 -25.25 6.6 -25.3 2.25 -20.95 -1.15 -22.95 -0.7 -26.8 -10.85 -20.8 -12.4 -16.85 -2.25 -12.05 -0.45 M66.3 101.2 L-55.95 102.7 -56.0 99.3 58.3 93.45 66.3 101.2 M11.65 131.6 Q11.95 137.7 13.4 143.75 L-8.65 143.15 -12.65 131.0 11.65 131.6 M-11.4 119.5 Q-9.75 114.45 -5.9 111.0 L15.7 111.2 12.4 119.7 -11.4 119.5 M-2.1 152.15 Q3.55 155.55 11.05 155.8 L11.05 156.05 Q-6.75 190.3 3.6 228.0 L2.2 229.2 Q-9.35 194.0 4.65 159.2 L-2.1 152.15 M105.2 220.05 L107.5 220.1 107.4 250.9 58.5 253.5 Q82.9 247.95 105.2 220.05 M27.05 202.0 Q25.7 213.05 20.35 222.45 L17.9 154.5 27.05 202.0 M21.4 233.95 Q34.45 239.45 39.3 225.65 L40.35 252.75 21.4 233.95 M-24.15 -135.3 L-23.25 -135.1 Q-24.1 -120.45 -37.7 -114.15 -40.6 -130.6 -24.15 -135.3 M-36.35 -63.8 L-37.95 -77.85 -33.7 -78.0 -32.15 -67.8 Q-33.45 -63.65 -36.35 -63.8 M-14.65 15.3 Q-12.25 14.85 -11.75 17.2 -11.15 20.05 -14.2 20.05 -16.4 19.95 -16.5 17.85 -16.75 15.75 -14.65 15.3 M-31.85 23.9 L-34.5 15.1 -31.3 13.55 -30.4 10.9 -26.25 10.45 -29.15 13.75 -27.2 21.95 -28.45 13.65 -26.15 13.0 -24.45 22.05 -25.9 23.65 -23.15 26.1 -30.2 21.35 -31.85 23.9 M-47.45 27.55 L-50.6 28.45 -50.2 19.95 -47.45 27.55 M-48.75 247.5 L-93.2 231.05 -98.1 204.15 Q-68.85 235.4 -48.75 247.5" fill="#525759" fill-rule="evenodd" stroke="none"/>
    <path d="M37.6 -132.3 L39.3 -131.95 45.05 -129.85 Q46.75 -113.45 46.7 -110.05 L39.7 -111.95 37.6 -132.3 M27.6 -134.4 L29.35 -113.85 21.25 -114.7 20.45 -135.75 21.85 -135.55 27.6 -134.4 M66.85 -115.0 L72.5 -108.7 73.75 -94.35 68.05 -99.35 66.85 -115.0 M44.2 -87.45 L44.4 -87.85 44.7 -88.85 Q44.95 -89.3 45.4 -89.1 L45.95 -87.15 44.2 -87.45 M47.5 -81.8 L48.05 -79.9 48.85 -81.4 50.1 -81.0 56.0 -69.15 55.35 -52.35 55.3 -50.1 55.25 -48.85 54.75 -48.8 Q53.65 -48.6 54.0 -47.5 54.25 -46.55 55.15 -46.55 L55.05 -42.95 36.0 -38.55 35.95 -39.15 Q35.0 -39.0 34.05 -38.2 L23.65 -37.1 23.05 -38.95 Q22.25 -38.75 21.9 -38.2 21.55 -37.75 21.65 -37.0 L12.35 -37.15 Q17.7 -37.35 22.45 -42.2 27.7 -37.8 26.45 -42.65 L22.45 -44.85 3.8 -39.7 Q7.6 -37.45 11.15 -37.2 L-7.6 -37.55 -7.05 -38.0 Q-7.65 -38.75 -8.8 -39.05 L-20.6 -39.65 -19.7 -77.05 -16.9 -74.9 -18.25 -80.2 -9.6 -82.9 -9.7 -78.7 -1.55 -84.7 4.8 -85.65 Q10.3 -77.5 10.4 -67.45 11.0 -67.85 11.45 -68.35 18.85 -75.95 14.7 -86.35 L19.85 -86.3 21.25 -79.85 34.15 -84.9 39.2 -83.9 39.3 -80.9 41.45 -83.4 47.5 -81.8 M4.65 -63.1 L4.55 -63.9 Q3.1 -68.4 8.85 -64.45 2.75 -74.15 -13.45 -74.2 L-14.55 -69.6 -7.2 -67.4 -6.0 -59.95 4.65 -63.1 M30.8 -38.55 Q32.0 -38.55 31.9 -39.85 31.9 -41.1 30.6 -40.85 29.45 -40.65 29.6 -39.65 29.7 -38.55 30.8 -38.55 M26.05 -68.1 Q25.4 -65.25 25.6 -62.45 25.7 -60.6 27.15 -60.6 40.5 -58.65 34.7 -69.1 L41.2 -73.65 Q27.8 -80.85 17.15 -67.65 21.6 -66.85 26.05 -68.1 M52.45 -45.15 Q51.35 -44.95 51.55 -43.85 51.75 -42.75 52.9 -42.85 53.95 -42.95 53.9 -44.15 53.75 -45.4 52.45 -45.15 M13.15 66.15 L13.6 66.95 2.0 70.05 Q4.3 58.9 13.15 66.15 M-2.75 -38.4 Q-1.65 -38.75 -1.95 -39.95 -2.2 -41.1 -3.5 -40.75 -4.6 -40.55 -4.3 -39.3 -3.85 -38.2 -2.75 -38.4" fill="#ffe600" fill-rule="evenodd" stroke="none"/>
    <path d="M44.2 -87.45 L45.95 -87.15 47.5 -81.8 41.45 -83.4 44.2 -87.45 M48.85 -81.4 L49.7 -82.6 50.1 -81.0 48.85 -81.4 M56.0 -69.15 L56.65 -74.05 58.5 -72.45 59.4 -60.85 58.3 -60.85 58.3 -58.6 59.5 -58.6 57.1 -58.1 56.95 -55.75 59.75 -55.55 55.75 -55.2 55.75 -52.9 59.95 -52.75 55.35 -52.35 56.0 -69.15 M55.3 -50.1 Q62.7 -50.35 58.9 -48.2 L58.6 -47.85 58.55 -47.15 Q58.55 -46.5 59.2 -46.15 L60.1 -46.05 55.05 -42.95 55.15 -46.55 55.4 -46.6 Q56.5 -46.8 56.3 -47.9 56.15 -48.9 55.25 -48.85 L55.3 -50.1 M-20.6 -39.65 L-24.6 -40.3 -27.55 -41.2 -28.9 -50.0 -26.65 -50.0 -26.65 -52.3 -29.1 -52.45 Q-25.5 -54.4 -29.45 -55.65 L-30.75 -68.7 -27.1 -64.5 -22.7 -82.25 -19.7 -77.05 -20.6 -39.65 M-18.25 -80.2 Q-18.25 -83.4 -16.3 -86.45 L-14.2 -88.4 -12.55 -88.85 Q-10.05 -86.8 -9.6 -82.9 L-18.25 -80.2 M-1.55 -84.7 Q-0.25 -86.6 0.45 -88.85 2.9 -87.95 4.8 -85.65 L-1.55 -84.7 M14.7 -86.35 L13.85 -88.85 Q17.95 -89.0 19.85 -86.3 L14.7 -86.35 M34.15 -84.9 L36.65 -87.65 Q38.7 -86.65 39.2 -83.9 L34.15 -84.9 M50.55 -15.45 L51.35 -17.7 Q55.0 -19.0 61.6 -22.3 L66.25 -20.85 63.25 -11.95 50.55 -15.45 M66.0 12.35 L75.6 14.8 70.2 29.35 60.8 27.05 66.0 12.35 M46.4 22.15 Q48.7 21.25 49.55 19.05 50.1 17.2 49.9 16.1 48.9 11.9 44.5 12.2 41.3 12.55 39.95 15.1 38.85 16.85 39.45 18.85 39.85 20.95 41.65 21.95 L46.4 22.15 M42.1 6.25 L53.2 9.35 Q49.05 33.55 38.75 55.7 37.55 53.45 35.55 51.9 10.6 32.85 -9.1 58.0 -19.35 34.65 -23.15 9.35 L-10.9 6.15 -1.2 23.1 Q0.85 26.7 3.7 29.65 L26.5 29.45 42.1 6.25 M40.3 41.25 L39.9 39.15 Q38.45 36.25 34.9 36.7 31.45 37.05 30.25 40.15 29.05 43.1 31.7 45.35 34.0 47.1 37.1 45.75 40.2 44.45 40.3 41.25 M20.8 71.05 L32.8 62.75 17.25 62.55 16.4 64.8 Q16.15 65.25 15.45 65.4 14.8 64.4 13.95 63.7 7.35 58.35 1.35 64.75 0.5 65.7 -0.1 66.85 L-4.75 72.55 2.35 74.0 4.7 74.9 Q11.15 76.95 15.0 71.65 L15.7 70.6 18.8 69.6 20.8 71.05 M36.2 71.1 Q35.85 77.35 30.45 81.2 8.95 96.5 -5.85 75.15 -9.45 69.95 -7.5 63.75 -3.45 50.95 9.85 47.65 37.8 44.35 36.2 71.1 M62.05 60.0 Q62.5 58.9 64.15 58.7 65.25 58.55 66.0 59.35 66.65 60.1 66.25 61.35 65.25 63.65 63.05 62.75 60.9 62.2 62.05 60.0 M-26.65 -48.9 Q-27.7 -48.9 -27.9 -47.9 -27.9 -46.5 -26.35 -46.6 -25.45 -46.95 -25.45 -47.8 -25.6 -48.95 -26.65 -48.9 M-23.15 -44.05 Q-23.15 -45.5 -24.55 -45.15 -25.45 -44.95 -25.35 -43.95 -25.35 -42.95 -24.45 -42.85 -23.15 -42.65 -23.15 -44.05 M-31.95 -12.95 L-34.95 -22.4 -32.85 -23.1 -19.15 -16.05 -31.95 -12.95 M-18.3 13.75 Q-19.85 15.3 -19.85 17.3 -19.85 20.25 -17.4 21.95 -14.65 23.9 -11.45 22.4 -8.35 20.95 -8.6 17.4 -8.6 15.95 -9.45 14.75 -11.25 11.9 -14.9 12.35 -17.0 12.45 -18.3 13.75 M-4.8 47.2 Q-2.6 47.2 -1.05 45.75 0.55 44.2 0.35 41.8 0.25 39.8 -1.5 38.5 -3.2 37.25 -5.5 37.5 -7.5 37.6 -8.8 38.9 -10.15 40.25 -10.2 42.05 -10.35 44.35 -8.6 45.9 -6.95 47.3 -4.8 47.2 M-39.05 12.35 L-33.75 27.65 -43.2 30.45 -48.55 15.1 -39.05 12.35" fill="#ff850d" fill-rule="evenodd" stroke="none"/>
  </g>
</svg>
