<?xml version="1.0" encoding="UTF-8" standalone="no"?>
<svg xmlns:xlink="http://www.w3.org/1999/xlink" height="239.15px" width="931.9px" xmlns="http://www.w3.org/2000/svg">
  <g transform="matrix(1.0, 0.0, 0.0, 1.0, 473.3, 108.5)">
    <path d="M-3.85 -26.3 L10.2 -46.85 41.95 -54.1 48.05 -49.75 32.5 -5.0 31.55 -2.3 47.35 49.85 Q20.55 44.7 -5.7 35.95 -8.45 35.0 -11.5 34.95 0.25 51.9 21.45 54.9 L29.3 55.75 -28.45 55.95 -30.45 57.8 -35.7 67.4 Q-41.0 73.75 -40.15 81.85 -39.9 84.15 -39.25 86.0 -45.35 75.15 -35.05 62.75 L-30.75 56.45 -31.4 50.95 -32.5 53.0 Q-39.9 71.7 -57.25 75.1 -38.55 69.25 -32.85 50.6 L-32.2 48.4 -43.8 48.85 Q-55.6 66.7 -77.65 63.6 -84.3 62.8 -91.05 64.8 -77.0 75.1 -60.0 75.5 -69.65 76.65 -78.75 73.8 -85.6 71.7 -91.35 67.45 L-88.45 87.8 -87.5 93.75 -31.7 93.45 -34.75 91.45 Q-31.9 93.15 -27.55 93.45 L81.1 92.55 Q90.6 83.55 101.5 76.5 115.95 67.3 131.65 59.4 138.8 55.7 142.2 48.45 151.75 27.9 135.15 11.05 L134.25 10.5 135.8 11.05 Q147.65 22.5 147.15 40.15 L147.25 43.55 149.0 43.55 147.85 -6.65 Q129.55 -2.1 113.7 7.95 L113.55 8.15 114.0 8.25 115.4 7.95 124.2 7.8 Q102.8 10.95 86.35 25.45 70.15 39.75 59.35 57.3 56.7 61.65 57.2 67.15 L56.65 65.4 57.2 55.75 57.2 55.65 55.45 55.6 41.0 55.7 Q49.45 55.05 57.7 52.8 58.3 52.65 58.65 51.8 L49.3 50.2 52.55 50.45 55.4 50.65 44.4 7.2 Q39.25 -3.95 45.35 -14.45 L46.8 -17.55 56.9 -47.1 76.35 -48.85 96.0 -19.25 104.7 11.05 110.6 7.55 108.0 -15.75 106.75 -23.1 Q111.2 -8.95 111.8 6.05 L133.7 -3.55 147.85 -8.4 137.15 -23.2 147.55 -14.3 138.65 -25.6 Q129.55 -36.3 118.6 -44.75 L117.6 -45.5 Q104.35 -59.75 87.3 -61.05 66.1 -61.4 45.25 -57.55 L20.95 -53.0 Q56.6 -66.05 95.25 -65.9 L106.15 -57.85 108.3 -56.25 125.0 -43.85 Q130.2 -40.1 133.55 -34.85 141.1 -23.0 151.95 -17.55 145.75 -40.75 140.8 -64.2 139.8 -69.05 140.55 -74.1 142.8 -89.75 154.95 -89.15 L156.7 -88.4 Q175.5 -77.7 182.0 -56.5 L184.25 -49.2 Q187.4 -49.15 189.65 -51.55 192.3 -54.35 194.4 -57.85 183.25 -66.35 181.3 -79.8 180.3 -86.75 184.75 -92.25 181.85 -103.4 192.4 -107.0 203.3 -110.85 213.4 -104.95 225.35 -111.7 238.65 -100.75 283.65 -63.9 305.8 -10.5 302.65 -52.15 317.5 -90.95 320.45 -98.7 324.1 -106.15 361.95 -112.6 396.15 -95.35 444.45 -70.9 455.55 -17.8 467.4 38.85 432.95 77.4 398.5 115.9 362.55 122.25 326.6 128.55 307.0 125.35 L-339.1 130.65 Q-370.1 118.45 -403.6 109.0 -412.9 107.1 -421.0 102.05 -457.5 79.05 -468.7 37.6 -484.25 -19.8 -447.1 -65.35 -417.95 -101.15 -372.15 -105.75 L-350.6 -106.45 -345.15 -106.15 Q-338.6 -105.25 -334.65 -103.2 -330.85 -101.4 -327.8 -98.15 L-315.75 -76.05 Q-300.95 -74.25 -288.45 -66.1 -270.3 -54.2 -258.3 -36.2 -253.75 -29.45 -250.2 -22.3 L-229.2 -18.45 Q-207.25 -32.15 -181.8 -35.85 L-164.0 -37.05 Q-162.65 -38.25 -161.2 -38.85 -155.9 -40.8 -150.35 -39.55 -147.05 -38.7 -144.2 -37.05 -120.15 -42.7 -104.85 -21.6 L-104.35 -10.8 -96.05 -11.35 Q-92.6 -22.4 -84.25 -29.95 -80.15 -33.7 -74.75 -35.35 L-64.75 -36.15 -62.9 -36.05 Q-48.95 -35.2 -39.1 -24.95 L-22.85 -25.55 Q-15.2 -34.25 -6.25 -40.2 -20.9 -26.8 -20.05 -8.65 L-21.6 -21.3 -40.85 -20.8 -40.3 -17.85 Q-38.5 3.65 -39.2 25.25 -39.35 29.65 -39.95 34.1 L-14.85 34.1 -19.25 -1.95 -19.2 -1.75 Q-15.7 16.0 -13.4 33.8 L-4.3 33.4 -0.7 33.2 -7.1 -8.3 -8.65 -18.75 -3.85 -26.3 M100.65 -32.4 L84.8 -52.05 89.05 -56.65 89.65 -56.95 90.25 -57.15 116.05 -41.4 122.9 -35.5 90.55 -55.35 86.1 -51.55 87.0 -50.5 Q99.2 -39.75 105.55 -25.9 L100.65 -32.4 M5.2 -36.8 L-5.5 -21.85 -7.1 -14.55 0.8 33.2 43.35 48.6 45.65 49.15 30.8 -1.4 46.55 -48.55 41.25 -52.4 11.4 -45.6 5.2 -36.8 M103.55 11.95 L94.7 -19.95 Q94.1 -21.4 89.65 -27.3 L76.1 -47.4 57.75 -45.9 57.05 -43.85 43.45 -4.6 43.35 -4.3 43.2 -3.8 43.0 -3.1 44.7 2.25 57.45 50.35 Q58.35 50.05 68.7 40.6 81.7 27.9 103.55 11.95 M179.65 -45.85 Q178.05 -68.2 161.35 -79.95 156.8 -83.15 151.85 -85.85 L148.1 -80.15 Q140.75 -60.55 148.7 -41.25 153.75 -28.95 154.65 -15.65 L154.9 -14.05 Q173.85 -17.85 180.8 -36.05 L181.4 -37.6 Q182.1 -40.1 181.8 -41.5 L180.5 -43.85 180.45 -43.95 180.0 -44.75 179.65 -45.85 M149.3 -13.15 L151.35 43.55 163.2 45.6 Q164.95 41.5 160.8 36.15 154.9 28.8 154.6 27.6 L153.15 -12.85 149.3 -13.15 M220.15 -58.9 L200.4 -104.65 197.75 -104.0 Q186.8 -103.25 188.85 -94.25 193.65 -82.6 197.25 -70.4 203.45 -49.55 182.95 -42.35 L179.6 -30.45 Q172.95 -16.75 154.6 -12.25 L155.75 17.7 Q154.9 38.5 174.65 43.55 L166.15 42.05 165.65 43.8 Q164.05 50.6 169.35 55.65 174.9 60.7 182.45 60.75 L188.85 60.4 182.65 43.85 Q203.5 41.75 223.45 35.5 L229.05 33.65 228.3 11.95 Q227.05 -14.35 222.3 -40.35 L221.65 -43.25 222.45 -41.15 226.75 -21.15 229.95 23.25 Q230.4 31.5 231.4 36.35 L231.7 37.65 233.15 41.8 Q234.4 44.2 236.95 47.7 240.55 52.65 246.75 59.8 257.45 71.6 263.8 75.0 L264.8 75.3 266.35 66.05 Q268.15 52.15 266.7 37.95 265.9 30.35 264.2 22.65 L262.0 13.85 Q256.0 -7.25 244.4 -22.9 L240.8 -27.65 230.8 -40.9 Q224.1 -50.5 220.15 -58.9 M258.65 -71.85 Q244.0 -93.8 221.95 -105.25 L221.8 -103.4 225.9 -90.15 225.95 -89.95 Q238.45 -73.0 245.3 -52.6 L258.9 -10.95 261.45 -1.7 265.2 17.5 268.8 50.5 266.55 75.15 Q281.65 63.45 292.15 47.6 304.25 29.35 303.4 7.35 302.55 -15.0 290.3 -33.65 279.35 -50.45 265.95 -64.25 L258.65 -71.85 M204.8 -104.65 Q215.65 -65.35 239.2 -31.6 249.9 -16.25 259.15 0.15 252.4 -27.3 241.45 -53.6 233.35 -57.0 229.95 -65.1 228.15 -69.5 228.4 -74.35 228.55 -77.0 229.35 -79.6 L218.1 -101.45 Q212.25 -100.0 206.9 -103.5 L204.8 -104.65 M193.9 -63.35 L196.25 -64.2 188.85 -88.75 Q188.5 -88.65 188.4 -88.4 182.85 -76.15 193.9 -63.35 M321.55 -94.7 Q314.65 -75.75 312.95 -55.65 L311.9 -44.3 Q310.75 -31.1 310.15 -8.1 L309.65 18.15 314.95 19.05 315.4 -8.1 315.85 -35.55 315.9 -38.4 315.95 -39.15 Q312.5 -67.85 324.95 -91.85 326.85 -95.5 330.65 -96.75 336.7 -84.65 338.5 -71.0 341.4 -49.25 342.05 -27.2 L342.65 5.5 Q342.7 27.3 342.1 49.1 341.45 71.0 332.5 90.55 L331.2 92.85 337.7 97.9 Q342.85 86.05 344.6 73.3 347.85 50.1 348.6 26.65 349.85 -3.4 347.55 -32.75 345.9 -52.7 342.9 -72.25 341.85 -79.25 339.85 -86.0 334.7 -102.65 330.3 -103.5 325.55 -104.3 321.55 -94.7 M429.5 -66.35 Q415.5 -82.65 396.35 -92.1 378.25 -101.15 358.15 -103.45 347.2 -104.4 336.4 -104.05 344.1 -89.55 346.7 -73.45 353.65 -29.95 353.8 14.1 353.95 49.1 346.3 83.1 344.1 92.95 339.75 102.0 L37.4 104.35 -352.65 106.75 Q-374.85 100.75 -381.8 77.15 -387.35 58.2 -390.0 38.6 -391.2 29.65 -391.8 20.4 -393.0 2.3 -392.15 -15.85 -391.2 -36.85 -386.95 -56.8 -383.75 -71.85 -376.85 -85.6 -371.7 -95.85 -363.3 -103.5 -428.2 -99.2 -458.75 -41.9 -470.1 -20.6 -470.2 3.65 -470.3 18.95 -466.45 34.1 L-461.45 46.75 -446.8 70.8 Q-435.3 89.05 -416.9 100.15 -398.45 111.35 -377.15 114.5 -363.9 116.85 -357.7 115.6 L-357.4 115.6 Q-354.6 118.55 -351.4 120.75 -345.85 124.45 -339.4 126.25 -330.1 129.05 -320.5 127.4 L-161.35 125.9 -57.7 125.35 308.15 122.1 Q327.3 123.85 350.7 117.6 L380.25 109.75 Q396.25 105.45 412.35 92.9 429.65 79.5 440.7 60.8 451.6 42.5 454.75 21.55 457.65 2.05 453.5 -17.25 449.15 -37.6 437.8 -55.1 433.9 -61.1 429.5 -66.35 M325.6 -90.55 L324.55 -87.45 Q319.3 -66.4 318.45 -44.6 L317.0 20.8 Q329.05 25.35 333.4 37.4 337.5 48.9 336.8 61.15 336.1 73.1 333.55 84.9 337.7 71.6 338.6 57.45 340.0 35.9 340.35 14.45 340.65 -6.25 340.0 -26.9 L338.75 -48.35 Q337.75 -69.6 331.95 -89.8 L329.4 -94.9 325.6 -90.55 M-335.4 -97.65 Q-333.5 -96.6 -332.0 -95.2 -329.7 -93.15 -326.95 -87.6 -325.4 -81.05 -321.0 -76.8 L-320.7 -76.55 Q-321.4 -84.25 -327.3 -92.0 -343.1 -111.2 -363.4 -97.65 -368.3 -94.35 -371.05 -89.0 -379.1 -74.3 -383.0 -58.0 L-384.0 -53.65 -385.8 -44.45 Q-388.7 -27.75 -389.2 -7.95 L-388.85 17.3 Q-387.95 38.55 -383.0 59.25 -377.9 80.5 -363.9 97.2 -355.4 107.35 -342.6 103.75 -333.15 101.15 -328.75 92.85 -331.95 94.05 -334.8 96.35 -343.4 103.45 -353.25 98.25 -361.5 93.8 -364.95 84.75 -379.95 45.7 -379.05 3.35 -379.45 -20.2 -376.25 -41.1 -373.5 -60.95 -366.65 -79.55 L-363.55 -87.25 Q-359.4 -95.95 -355.35 -98.45 -354.3 -99.15 -353.1 -99.65 -345.0 -101.9 -337.15 -98.45 L-335.4 -97.65 M-332.9 -91.1 Q-337.3 -98.75 -344.4 -99.05 -357.4 -99.35 -366.55 -69.85 -373.35 -48.3 -375.4 -18.15 -377.45 13.15 -373.05 36.75 -373.65 -23.5 -370.1 -44.75 -367.15 -62.45 -361.55 -64.8 -358.0 -66.3 -351.8 -65.4 L-340.85 -64.8 Q-339.7 -80.75 -326.7 -77.5 L-332.9 -91.1 M-336.95 -62.45 L-337.3 -60.95 -331.35 -59.1 Q-320.1 -56.7 -312.1 -48.15 L-310.75 -46.8 -303.85 -39.5 -295.1 -29.5 -291.55 -25.25 -294.65 -42.7 Q-295.15 -49.9 -294.0 -55.95 L-291.45 -64.3 -290.95 -65.4 Q-306.6 -73.1 -334.05 -73.1 L-334.55 -71.85 -335.1 -70.1 -336.95 -62.45 M-365.0 -47.55 Q-368.4 -29.95 -369.35 -12.1 -370.5 9.2 -370.55 30.45 -370.65 52.7 -364.5 73.5 L-360.05 87.25 -319.3 89.6 -316.9 81.15 Q-306.35 63.4 -306.8 42.95 -307.25 20.8 -316.35 0.4 -322.0 -12.3 -324.6 -26.05 -325.3 -29.75 -325.5 -32.9 -326.0 -39.45 -324.8 -45.7 -324.0 -50.2 -322.25 -54.5 -345.0 -63.65 -360.35 -60.7 -363.1 -55.95 -365.0 -47.55 M-256.55 -12.95 L-253.75 -18.15 Q-268.8 -48.55 -289.5 -65.4 L-289.75 -65.1 -290.35 -63.7 Q-291.35 -61.25 -292.0 -58.3 -293.4 -51.9 -292.95 -43.35 -292.85 -38.9 -292.15 -34.55 -289.9 -21.2 -283.3 -9.3 L-261.7 -3.4 -256.55 -12.95 M-323.15 -45.05 L-323.25 -43.3 -324.15 -42.25 Q-324.7 -35.35 -323.2 -26.8 -319.85 -9.5 -312.65 6.75 -304.4 25.3 -305.25 45.4 -306.1 64.4 -315.25 81.15 -317.1 85.9 -317.8 89.6 L-310.75 90.2 Q-310.05 86.65 -308.0 83.0 -302.6 74.45 -297.85 66.25 -289.05 51.15 -285.8 34.1 -282.8 18.1 -283.55 0.35 L-283.85 -4.9 Q-284.15 -7.75 -286.25 -12.15 -299.1 -37.2 -321.3 -53.8 L-323.15 -45.05 M-278.85 -6.35 L-282.75 -7.75 -283.0 -7.85 -283.0 -7.75 -282.95 -7.4 Q-281.1 19.6 -286.3 41.6 -291.2 62.25 -302.45 78.4 L-303.05 79.25 Q-282.85 71.5 -264.65 59.75 -253.3 52.45 -241.5 48.05 L-243.7 49.75 Q-230.15 49.7 -231.15 57.5 -232.9 50.45 -240.25 50.3 -245.85 49.6 -247.4 54.6 -252.7 71.4 -235.3 66.45 -249.75 73.85 -249.7 56.35 -249.7 54.35 -248.45 52.7 -271.55 67.35 -296.1 79.3 -282.45 77.7 -280.3 90.8 -240.8 92.5 -229.15 58.0 -227.85 54.15 -228.1 50.05 -225.1 56.55 -228.7 63.75 L-232.5 72.5 Q-230.7 72.3 -229.2 71.0 -219.9 63.0 -220.2 49.45 L-219.8 49.35 Q-205.7 46.05 -212.1 35.2 L-215.9 27.1 Q-210.5 11.9 -197.55 22.25 L-197.05 37.3 -197.05 39.4 -181.9 44.4 Q-157.15 51.9 -135.9 54.45 L-117.35 55.65 -117.05 55.65 -117.05 55.1 -117.45 14.1 -117.8 -15.1 -117.9 -29.1 -124.4 -29.95 -124.55 -28.85 Q-122.75 -18.05 -133.15 -15.55 -153.05 -11.05 -172.75 -5.6 L-204.85 3.95 Q-170.25 -10.8 -133.15 -17.25 -125.75 -18.45 -125.6 -26.15 L-127.5 -23.45 Q-135.65 -13.75 -144.5 -23.5 -154.55 -13.55 -162.8 -24.35 L-163.15 -23.2 Q-165.15 -15.8 -172.2 -16.4 -164.5 -17.55 -164.1 -25.65 -163.95 -28.85 -166.6 -30.3 -167.5 -32.8 -171.65 -32.9 L-171.7 -32.2 Q-181.35 -34.4 -180.1 -21.05 -183.45 -24.75 -180.8 -29.95 L-188.8 -29.4 Q-179.25 -21.65 -184.0 -15.75 -181.45 -24.65 -189.5 -27.45 -192.85 -28.7 -195.05 -26.5 -206.45 -15.0 -190.55 -11.1 -195.95 -9.75 -199.3 -14.5 -203.75 -20.75 -198.55 -26.7 -215.95 -22.85 -221.45 -6.35 -222.85 -2.1 -221.6 0.75 -225.25 -4.6 -218.5 -14.8 -212.3 -24.2 -201.2 -27.3 -220.2 -22.45 -233.65 -8.1 -231.1 1.6 -233.25 11.45 L-234.55 -0.15 -236.15 -0.15 -241.95 -0.2 -246.4 -0.35 Q-263.15 -1.2 -278.85 -6.35 M-255.0 -12.5 L-259.65 -2.8 Q-242.75 -0.8 -234.7 -1.6 L-234.25 -1.65 -234.3 -1.95 Q-236.55 -7.25 -233.05 -10.75 L-231.85 -11.65 -229.85 -14.25 -252.25 -17.85 -255.0 -12.5 M-215.95 -8.4 Q-217.75 -0.75 -210.65 1.6 -202.1 4.55 -200.0 -4.3 -197.65 -13.45 -206.2 -14.9 -214.2 -16.1 -215.95 -8.4 M-210.35 -15.8 Q-203.55 -17.55 -200.0 -12.55 -196.75 -7.55 -199.4 -2.2 -202.35 3.4 -208.0 3.4 -217.75 1.6 -217.15 -6.95 -217.15 -13.75 -210.35 -15.8 M-162.8 -29.1 L-162.2 -32.05 -165.75 -32.65 -162.8 -29.1 M-133.85 -35.6 Q-138.9 -36.15 -142.15 -32.9 -145.7 -29.4 -144.2 -24.35 -142.7 -20.8 -138.3 -19.65 -133.85 -18.45 -130.6 -20.8 -126.5 -23.75 -127.65 -29.1 -128.85 -34.7 -133.85 -35.6 M-148.35 -22.6 Q-140.2 -36.2 -157.15 -35.6 -167.55 -27.0 -154.9 -20.7 -150.75 -18.65 -148.35 -22.6 M-108.3 -6.65 L-108.5 -16.1 Q-108.1 -21.25 -112.0 -24.65 L-116.45 -28.5 -116.6 1.05 -116.45 12.6 -115.85 52.95 -115.85 54.75 -106.7 46.2 -107.0 36.7 -108.3 -6.65 M-75.95 -17.5 L-64.0 -19.8 Q-76.45 -17.05 -87.6 -11.0 L-89.2 -9.9 -93.15 -4.5 -94.45 -1.9 Q-96.85 6.85 -95.2 15.9 L-94.95 17.1 Q-90.55 27.7 -80.3 32.6 L-80.1 32.7 -89.3 28.55 Q-75.9 49.95 -51.95 42.4 -46.1 40.5 -42.6 35.3 L-65.0 35.5 -41.15 33.5 Q-38.5 10.8 -40.8 -11.95 L-40.85 -12.55 -40.85 -12.6 -41.55 -15.6 -42.35 -19.25 -43.85 -20.5 -47.75 -21.45 -48.95 -21.5 -50.3 -21.55 -43.2 -22.0 -45.1 -24.0 Q-54.85 -33.4 -68.0 -32.35 -82.1 -31.5 -88.45 -19.8 L-89.35 -18.05 Q-91.05 -14.45 -92.1 -9.95 L-92.25 -9.3 -91.95 -9.45 -75.95 -17.5 M-60.0 -20.55 L-58.25 -20.85 -59.75 -20.55 -60.0 -20.55 M-106.7 -6.65 L-105.5 25.55 -93.75 24.95 -94.45 23.05 Q-101.15 7.95 -94.0 -7.25 L-106.7 -6.65 M-1.8 51.15 Q-19.05 34.2 -39.4 44.05 L-39.55 44.15 Q-34.0 43.5 -28.35 48.0 -27.2 48.95 -26.85 50.7 L-26.7 52.4 -1.8 51.15 M-51.7 51.85 Q-48.95 48.65 -46.2 46.75 -63.75 52.25 -80.95 42.7 -89.65 37.8 -94.9 29.35 L-103.15 29.4 Q-100.2 47.65 -114.1 56.75 -120.8 61.05 -128.9 60.05 -165.7 56.15 -201.0 44.5 -205.75 42.95 -210.05 45.85 -214.05 48.5 -216.85 52.7 -216.2 69.95 -230.9 78.3 -250.8 89.45 -272.6 95.15 L-272.85 95.2 -272.6 95.2 -243.1 95.0 -91.95 94.05 -93.7 82.8 Q-100.85 81.25 -107.2 77.15 -108.85 76.1 -108.35 75.0 -99.95 56.4 -76.15 57.9 -64.1 63.3 -54.05 54.5 L-52.35 52.7 -51.7 51.85 M-219.95 75.95 Q-220.35 75.1 -220.4 74.25 -220.8 68.45 -211.65 65.4 -204.4 63.2 -196.8 62.25 -174.65 60.3 -154.3 68.25 -143.5 72.45 -153.25 78.0 -164.9 84.8 -178.7 86.15 -202.45 88.45 -219.95 75.95 M-150.1 73.45 Q-150.1 69.8 -160.1 67.25 -170.05 64.65 -184.2 64.65 -198.35 64.65 -208.35 67.25 -218.3 69.8 -218.3 73.45 -218.3 77.1 -208.35 79.7 -198.35 82.25 -184.2 82.25 -170.05 82.25 -160.1 79.7 -150.1 77.1 -150.1 73.45 M-104.05 77.25 L-94.6 80.15 -95.8 66.85 Q-109.0 67.5 -105.9 75.65 -105.45 76.95 -104.05 77.25 M-198.25 23.15 L-208.3 19.05 Q-218.4 25.85 -211.2 35.3 -209.5 37.5 -209.15 40.3 L-198.55 38.75 -198.25 23.15 M-234.05 14.25 Q-234.7 16.3 -235.65 18.3 -241.05 29.9 -250.15 39.1 L-263.45 50.2 -268.9 53.6 -266.65 51.75 -258.3 44.6 Q-243.65 31.5 -234.05 14.25 M-234.25 45.6 Q-231.4 44.9 -229.6 47.4 L-229.4 47.75 Q-231.65 46.15 -234.25 45.6 M-308.95 90.2 L-307.5 90.3 -303.7 82.9 Q-308.05 84.2 -308.7 88.45 L-308.95 90.2 M-314.85 93.45 L-324.3 93.15 -326.1 95.5 Q-324.05 95.8 -306.9 95.8 -308.65 93.45 -314.85 93.45 M-297.2 95.9 L-287.25 95.45 Q-275.0 87.25 -290.3 81.35 -293.65 80.1 -296.65 81.8 -312.05 90.7 -297.2 95.9 M-260.55 66.85 Q-281.45 68.95 -270.85 85.3 -269.1 87.95 -265.75 87.4 -247.05 83.55 -256.7 69.3 -258.0 67.35 -260.55 66.85 M-255.4 83.9 Q-269.85 94.6 -275.9 79.5 -278.05 74.2 -273.55 70.1 -256.2 58.0 -252.55 76.65 -251.65 81.15 -255.4 83.9 M-248.75 98.0 L-254.5 98.05 -306.9 98.4 -328.2 99.6 Q-332.25 100.3 -335.25 103.5 L334.6 99.5 326.2 93.45 -248.75 98.0 M-356.8 91.4 Q-347.9 105.2 -336.05 94.3 L-334.65 92.85 -356.8 91.4 M328.35 90.8 Q337.3 71.6 334.9 49.7 332.0 22.8 307.6 24.05 L307.35 20.4 307.3 20.2 307.25 20.4 Q304.25 33.9 297.4 45.8 286.55 64.5 269.45 77.1 264.45 80.75 259.2 76.65 251.9 70.95 245.0 64.8 L245.75 77.9 Q245.45 83.8 244.1 90.5 L257.35 90.55 272.85 90.6 328.35 90.8 M204.8 43.15 L204.5 41.55 185.05 43.85 Q186.25 52.4 190.95 60.65 L199.4 61.25 214.0 59.45 215.0 59.25 Q207.85 52.5 204.8 43.15 M237.85 55.85 L240.25 55.05 Q233.25 45.8 229.5 35.1 L206.0 41.5 206.2 42.9 Q209.0 54.3 219.3 59.8 223.15 60.4 229.9 58.3 L237.85 55.85 M181.8 90.8 L189.55 90.45 Q208.75 84.8 211.3 64.2 L208.5 64.75 Q199.7 66.55 190.95 64.5 189.9 78.85 181.8 90.8 M187.25 72.2 Q187.8 68.4 187.7 64.5 165.55 65.4 160.8 49.15 L149.0 47.7 Q143.4 65.4 122.15 69.55 L114.75 70.7 Q113.0 71.3 107.65 76.05 91.75 88.45 88.2 92.25 L100.75 92.15 179.4 91.4 Q185.7 82.35 187.25 72.2 M243.0 73.8 L242.9 67.45 Q242.3 60.4 240.25 59.8 221.35 64.2 215.15 63.05 214.85 66.05 213.95 68.9 212.0 74.85 207.2 79.85 L195.05 91.4 239.95 91.1 Q242.85 87.2 243.0 73.8" fill="#000000" fill-rule="evenodd" stroke="none"/>
    <path d="M32.5 -5.0 L48.05 -49.75 41.95 -54.1 10.2 -46.85 -3.85 -26.3 -3.35 -28.5 Q-11.75 -26.2 -11.25 -19.1 -14.45 -24.85 -17.8 -20.25 L-13.4 33.8 Q-15.7 16.0 -19.2 -1.75 L-19.25 -1.95 -20.05 -8.65 Q-20.9 -26.8 -6.25 -40.2 -2.65 -43.95 1.9 -47.25 L13.7 -51.1 85.8 -59.8 90.25 -57.15 89.65 -56.95 89.35 -57.15 89.05 -56.65 84.8 -52.05 100.65 -32.4 Q106.45 -23.5 107.4 -14.9 L108.0 -15.75 110.6 7.55 Q106.8 -18.75 105.9 -20.8 103.55 -27.6 97.95 -22.9 96.75 -21.1 104.7 11.05 L96.0 -19.25 76.35 -48.85 56.9 -47.1 46.8 -17.55 45.95 -18.75 Q38.7 -9.25 39.1 -2.25 L34.05 -5.8 32.5 -5.0 M-7.1 -8.3 L-0.7 33.2 -4.3 33.4 -2.15 32.9 -9.25 -12.3 -7.1 -8.3 M35.7 55.7 L41.0 55.7 55.45 55.6 54.1 56.05 35.7 55.7 M52.55 50.45 L52.45 50.35 Q49.6 47.25 39.95 1.65 41.25 4.7 44.4 7.2 L55.4 50.65 52.55 50.45 M27.45 -1.1 L29.85 -8.45 Q11.1 -3.7 -5.5 -21.85 L5.2 -36.8 13.15 -43.45 41.25 -50.35 44.65 -45.55 27.45 -1.1 M-7.1 -14.55 L28.4 4.35 Q40.9 45.25 43.35 48.6 L0.8 33.2 -7.1 -14.55 M57.05 -43.85 L73.65 -44.1 86.55 -26.55 Q67.6 -5.35 43.45 -4.6 L57.05 -43.85 M88.2 -24.25 L89.95 -21.7 Q91.15 -19.95 100.0 14.0 L103.55 11.95 Q81.7 27.9 68.7 40.6 58.35 50.05 57.45 50.35 L44.7 2.25 91.15 -13.15 89.95 -21.4 88.2 -24.25 M43.2 -3.8 L43.35 -4.3 Q44.15 -3.3 44.05 0.0 L43.2 -3.8 M148.1 -80.15 Q160.8 -85.85 168.8 -69.9 174.7 -58.1 179.65 -45.85 L180.0 -44.75 Q176.1 -23.6 154.65 -15.65 153.75 -28.95 148.7 -41.25 140.75 -60.55 148.1 -80.15 M181.8 -41.5 Q182.1 -40.1 181.4 -37.6 L181.8 -41.5 M87.0 -50.5 L90.65 -52.75 116.8 -33.8 Q118.85 -29.0 123.6 -22.3 130.65 -12.65 133.7 -3.55 L111.8 6.05 Q111.2 -8.95 106.75 -23.1 L105.55 -25.9 Q99.2 -39.75 87.0 -50.5 M118.6 -44.75 Q117.8 -44.45 117.2 -43.95 L117.6 -45.5 118.6 -44.75 M188.85 -94.25 Q190.2 -100.8 197.2 -102.5 L199.25 -103.1 Q206.9 -79.6 220.15 -58.9 224.1 -50.5 230.8 -40.9 L240.8 -27.65 Q250.0 -12.25 257.65 4.0 L258.45 4.2 262.0 13.85 264.2 22.65 266.7 37.95 Q268.15 52.15 266.35 66.05 L264.0 74.45 263.8 75.0 Q257.45 71.6 246.75 59.8 240.55 52.65 236.95 47.7 L236.85 47.55 Q234.3 42.95 231.7 37.65 L231.4 36.35 238.65 42.1 260.75 70.95 Q266.4 44.65 260.65 18.15 L262.45 21.65 260.85 15.75 261.35 17.75 260.05 15.2 262.0 31.65 Q262.5 36.4 260.0 40.45 250.5 55.75 237.95 40.85 233.65 33.0 233.45 27.6 232.35 -28.3 222.45 -41.15 L221.65 -43.25 222.3 -40.35 221.05 -41.2 Q220.5 8.6 220.9 25.15 211.55 39.65 168.2 35.6 165.0 35.0 155.75 17.7 L154.6 -12.25 Q173.9 -14.3 179.6 -30.45 L182.95 -42.35 Q203.45 -49.55 197.25 -70.4 193.65 -82.6 188.85 -94.25 M229.95 23.25 L226.75 -21.15 Q231.0 1.85 229.95 23.25 M182.65 43.85 L188.85 60.4 182.45 60.75 Q174.9 60.7 169.35 55.65 L168.8 48.85 180.05 43.85 182.65 43.85 M221.8 -103.4 Q232.45 -99.5 265.65 -62.75 L258.65 -71.85 265.95 -64.25 Q295.05 -29.5 283.95 11.9 283.2 12.45 282.35 12.65 266.65 16.75 261.45 -1.7 L258.9 -10.95 245.3 -52.6 Q238.45 -73.0 225.95 -89.95 284.5 -48.75 277.75 12.85 L280.1 -0.15 Q281.9 -14.05 279.5 -27.0 272.2 -67.75 225.9 -90.15 L221.8 -103.4 M268.8 50.5 L265.2 17.5 Q271.1 33.85 268.8 50.5 M-331.35 -59.1 L-337.3 -60.95 -336.95 -62.45 -331.35 -59.1 M-335.1 -70.1 L-334.55 -71.85 Q-327.1 -73.05 -310.45 -69.25 L-291.45 -64.3 -294.0 -55.95 -293.9 -58.9 Q-300.8 -65.2 -335.1 -70.1 M-294.65 -42.7 L-291.55 -25.25 -295.1 -29.5 Q-298.55 -34.1 -303.85 -39.5 L-310.75 -46.8 -294.65 -42.7 M-316.9 81.15 Q-341.9 80.8 -351.2 64.5 -358.0 52.4 -359.75 -5.45 L-360.45 -29.35 Q-343.25 -32.95 -324.6 -26.05 -322.0 -12.3 -316.35 0.4 -307.25 20.8 -306.8 42.95 -306.35 63.4 -316.9 81.15 M-290.35 -63.7 Q-274.45 -50.7 -261.15 -23.15 -263.65 -27.75 -267.65 -33.5 -278.4 -49.2 -292.0 -58.3 -291.35 -61.25 -290.35 -63.7 M-258.9 -18.25 L-256.55 -12.95 -261.7 -3.4 -283.3 -9.3 Q-289.9 -21.2 -292.15 -34.55 -292.85 -38.9 -292.95 -43.35 -269.8 -33.3 -257.6 -13.75 -257.95 -15.8 -258.9 -18.25 M-320.7 -44.1 L-323.25 -43.3 -323.15 -45.05 -320.7 -44.1 M-323.2 -26.8 Q-307.35 -26.7 -285.65 -6.35 L-283.85 -4.9 Q-287.7 -11.35 -301.6 -27.3 -311.55 -38.65 -317.05 -42.35 -305.7 -36.35 -294.2 -22.6 -289.85 -17.25 -286.25 -12.15 -284.15 -7.75 -283.85 -4.9 L-283.55 0.35 -285.8 34.1 Q-289.05 51.15 -297.85 66.25 -302.6 74.45 -308.0 83.0 L-307.5 80.75 -315.25 81.15 Q-306.1 64.4 -305.25 45.4 -304.4 25.3 -312.65 6.75 -319.85 -9.5 -323.2 -26.8 M-278.85 -6.35 L-282.7 -7.5 -282.75 -7.75 -278.85 -6.35 M-282.35 -6.45 L-281.5 -5.15 Q-264.7 5.55 -236.8 0.65 -242.4 21.2 -256.1 38.25 L-266.65 51.75 -268.9 53.6 -263.45 50.2 -262.6 49.75 Q-257.9 49.0 -250.15 39.1 -241.05 29.9 -235.65 18.3 -234.7 16.3 -234.05 14.25 L-233.25 11.45 Q-231.1 1.6 -233.65 -8.1 -220.2 -22.45 -201.2 -27.3 -212.3 -24.2 -218.5 -14.8 -225.25 -4.6 -221.6 0.75 -219.65 5.15 -211.05 5.95 L-210.05 6.35 -204.85 3.95 -172.75 -5.6 Q-153.05 -11.05 -133.15 -15.55 -122.75 -18.05 -124.55 -28.85 L-118.15 -26.7 -117.8 -15.1 -117.45 14.1 Q-133.9 29.35 -156.1 33.75 -176.4 37.55 -197.05 37.3 L-197.55 22.25 Q-210.5 11.9 -215.9 27.1 L-212.1 35.2 Q-220.75 37.05 -221.85 42.95 -224.45 55.85 -228.7 63.75 -225.1 56.55 -228.1 50.05 L-228.3 48.55 -229.4 47.75 -229.6 47.4 Q-231.4 44.9 -234.25 45.6 L-241.5 48.05 Q-253.3 52.45 -264.65 59.75 -282.85 71.5 -303.05 79.25 L-302.45 78.4 -298.35 77.2 Q-266.15 44.45 -282.35 -6.45 M-236.6 0.35 L-241.95 -0.2 -236.15 -0.15 -236.6 0.35 M-234.7 -1.6 Q-242.75 -0.8 -259.65 -2.8 L-255.0 -12.5 -231.85 -11.65 -233.05 -10.75 Q-236.55 -7.25 -234.3 -1.95 L-234.7 -1.6 M-190.55 -11.1 Q-206.45 -15.0 -195.05 -26.5 -192.85 -28.7 -189.5 -27.45 -181.45 -24.65 -184.0 -15.75 -187.3 -13.45 -190.55 -11.1 M-180.1 -21.05 Q-181.35 -34.4 -171.7 -32.2 L-166.35 -28.85 -166.6 -30.3 Q-163.95 -28.85 -164.1 -25.65 -164.5 -17.55 -172.2 -16.4 L-175.2 -17.0 Q-178.85 -18.25 -180.1 -21.05 M-117.05 55.1 L-117.05 55.65 -117.35 55.65 -117.05 55.1 M-235.3 66.45 Q-252.7 71.4 -247.4 54.6 -245.85 49.6 -240.25 50.3 -232.9 50.45 -231.15 57.5 L-235.3 66.45 M-215.95 -8.4 Q-214.2 -16.1 -206.2 -14.9 -197.65 -13.45 -200.0 -4.3 -202.1 4.55 -210.65 1.6 -217.75 -0.75 -215.95 -8.4 M-214.9 -5.0 L-215.65 -6.05 Q-210.05 7.05 -201.15 -3.35 -209.1 3.05 -214.9 -5.0 M-208.3 -13.45 L-207.75 -12.8 Q-205.4 -10.65 -202.35 -10.5 -204.55 -13.45 -208.3 -13.45 M-178.6 -27.45 L-178.75 -28.5 Q-179.3 -14.95 -166.65 -19.35 L-165.65 -20.85 Q-175.65 -16.2 -178.6 -27.45 M-162.8 -29.1 L-165.75 -32.65 -162.2 -32.05 -162.8 -29.1 M-188.8 -26.45 L-192.35 -26.7 Q-191.45 -24.95 -189.95 -24.35 -188.2 -23.5 -186.45 -23.75 -187.0 -25.55 -188.8 -26.45 M-199.15 -19.6 Q-195.45 -7.4 -185.25 -15.2 L-184.65 -17.0 Q-194.05 -9.7 -199.1 -20.8 L-199.15 -19.6 M-129.45 -28.8 Q-127.95 -30.25 -130.05 -32.65 -131.2 -34.1 -133.55 -34.1 -135.05 -32.65 -133.0 -30.25 -131.8 -28.8 -129.45 -28.8 M-133.85 -35.6 Q-128.85 -34.7 -127.65 -29.1 -126.5 -23.75 -130.6 -20.8 -133.85 -18.45 -138.3 -19.65 -142.7 -20.8 -144.2 -24.35 -145.7 -29.4 -142.15 -32.9 -138.9 -36.15 -133.85 -35.6 M-141.1 -30.65 Q-142.25 -17.85 -129.7 -22.35 -141.0 -20.05 -140.85 -32.05 L-141.1 -30.65 M-152.75 -34.4 Q-151.55 -30.85 -147.9 -30.3 L-147.6 -30.2 Q-147.65 -34.4 -152.75 -34.4 M-160.45 -31.75 L-160.6 -30.25 Q-157.3 -17.2 -148.4 -23.65 -159.75 -22.15 -160.45 -31.75 M-108.5 -16.1 L-108.3 -6.65 Q-113.4 7.5 -116.45 12.6 L-116.6 1.05 -108.5 -16.1 M-148.35 -22.6 Q-150.75 -18.65 -154.9 -20.7 -167.55 -27.0 -157.15 -35.6 -140.2 -36.2 -148.35 -22.6 M-107.0 36.7 L-106.7 46.2 -115.85 54.75 -115.85 52.95 -107.0 36.7 M-75.95 -17.5 L-86.05 -16.1 Q-88.6 -16.25 -89.35 -18.05 L-88.45 -19.8 Q-77.1 -28.35 -61.75 -25.9 L-44.4 -23.2 -49.05 -26.15 -45.1 -24.0 -43.2 -22.0 -50.3 -21.55 -51.85 -21.3 -56.4 -20.9 -59.75 -20.55 -58.25 -20.85 -60.0 -20.55 -64.0 -19.8 -75.95 -17.5 M-92.1 -9.95 L-91.95 -9.45 -92.25 -9.3 -92.1 -9.95 M-93.15 -4.5 L-89.2 -9.9 -87.0 -10.65 Q-90.4 -8.05 -93.15 -4.5 M-41.55 -15.6 L-40.85 -12.6 -42.3 -16.35 -41.55 -15.6 M-40.85 -12.55 L-40.8 -11.95 Q-47.0 30.5 -74.5 23.45 -89.4 19.85 -94.95 17.1 L-95.2 15.9 Q-96.85 6.85 -94.45 -1.9 -82.85 -12.85 -40.85 -12.55 M-47.75 -21.45 L-43.85 -20.5 -50.9 -21.0 -47.75 -21.45 M-21.6 -21.3 Q-26.0 -20.85 -40.3 -17.85 L-40.85 -20.8 -21.6 -21.3 M-60.0 75.5 L-57.25 75.1 Q-39.9 71.7 -32.5 53.0 L-31.7 57.7 -30.75 56.45 -35.05 62.75 -50.55 80.0 Q-67.7 98.95 -88.45 87.8 L-91.35 67.45 Q-85.6 71.7 -78.75 73.8 -69.65 76.65 -60.0 75.5 M135.15 11.05 L133.05 11.05 134.85 13.65 Q143.75 26.3 137.4 39.9 126.25 63.65 97.65 63.05 96.35 66.6 94.3 69.8 83.5 86.95 62.75 88.5 L23.5 91.75 Q2.65 93.05 -18.05 90.6 -45.8 87.85 -33.35 63.7 L-35.7 67.4 -30.45 57.8 -29.95 58.0 Q-19.0 53.9 56.6 66.0 52.4 62.5 53.35 58.1 53.65 62.5 56.6 65.7 L56.65 65.4 57.2 67.15 Q56.7 61.65 59.35 57.3 70.15 39.75 86.35 25.45 102.8 10.95 124.2 7.8 L115.4 7.95 120.8 5.9 Q132.95 3.0 136.8 8.0 L137.65 11.05 135.8 11.05 134.25 10.5 135.15 11.05 M-238.4 53.3 Q-239.0 51.5 -242.25 53.3 -245.2 55.05 -244.0 56.55 -243.4 58.3 -240.15 56.55 -237.5 54.75 -238.4 53.3 M-233.2 59.6 L-232.8 57.85 Q-238.6 69.0 -247.85 61.25 -237.7 72.75 -233.2 59.6 M-290.35 84.9 Q-290.35 83.1 -293.6 83.1 -296.85 83.1 -296.85 84.9 -296.85 86.95 -293.6 86.95 -290.35 86.95 -290.35 84.9 M-287.25 95.45 Q-283.15 92.55 -284.7 87.2 L-285.1 85.9 Q-288.3 100.0 -300.15 90.65 L-297.2 95.9 Q-312.05 90.7 -296.65 81.8 -293.65 80.1 -290.3 81.35 -275.0 87.25 -287.25 95.45 M-260.55 66.85 Q-258.0 67.35 -256.7 69.3 -247.05 83.55 -265.75 87.4 -269.1 87.95 -270.85 85.3 -281.45 68.95 -260.55 66.85 M-268.2 74.55 Q-267.05 76.3 -264.4 74.55 -261.15 73.05 -262.3 71.3 -262.9 69.25 -266.15 71.0 -268.8 72.5 -268.2 74.55 M-257.1 77.7 L-256.7 75.95 Q-262.3 87.55 -271.75 79.25 -261.95 91.2 -257.1 77.7 M190.95 60.65 L195.05 48.25 204.8 43.15 Q207.85 52.5 215.0 59.25 L214.0 59.45 213.1 58.9 199.4 61.25 190.95 60.65 M219.3 59.8 L216.35 46.5 224.6 40.3 Q230.15 50.45 237.7 55.25 L237.4 55.15 Q237.45 55.5 237.85 55.85 L229.9 58.3 Q223.15 60.4 219.3 59.8 M113.7 7.95 L114.0 8.25 113.55 8.15 113.7 7.95 M57.2 55.65 L57.2 55.75 57.2 55.65" fill="#6bbd46" fill-rule="evenodd" stroke="none"/>
    <path d="M311.9 -44.3 L315.3 -36.7 315.75 -37.9 315.95 -39.15 315.9 -38.4 315.75 -37.9 315.45 -36.4 315.85 -35.55 315.4 -8.1 310.15 -8.1 Q310.75 -31.1 311.9 -44.3 M342.05 -27.2 L347.55 -32.75 Q349.85 -3.4 348.6 26.65 L343.3 14.3 342.65 5.5 342.05 -27.2 M339.85 -86.0 L337.1 -84.6 Q333.55 -106.05 321.55 -94.7 325.55 -104.3 330.3 -103.5 334.7 -102.65 339.85 -86.0 M339.75 102.0 Q344.1 92.95 346.3 83.1 353.95 49.1 353.8 14.1 353.65 -29.95 346.7 -73.45 344.1 -89.55 336.4 -104.05 347.2 -104.4 358.15 -103.45 378.25 -101.15 396.35 -92.1 415.5 -82.65 429.5 -66.35 425.95 -69.15 421.9 -71.45 431.15 -64.0 437.8 -55.1 449.15 -37.6 453.5 -17.25 457.65 2.05 454.75 21.55 451.6 42.5 440.7 60.8 429.65 79.5 412.35 92.9 396.25 105.45 380.25 109.75 L350.7 117.6 Q327.3 123.85 308.15 122.1 L-57.7 125.35 -161.35 125.9 -320.5 127.4 Q-330.1 129.05 -339.4 126.25 -345.85 124.45 -351.4 120.75 -354.6 118.55 -357.4 115.6 -357.25 114.15 -353.7 113.2 L-346.6 112.85 -345.6 113.8 -334.95 116.2 Q334.75 111.45 335.9 112.65 338.4 109.65 349.8 103.05 355.8 103.0 366.95 100.55 389.35 95.8 407.4 83.1 434.75 64.05 443.35 33.4 L443.4 31.75 Q460.9 -38.1 418.95 -73.0 413.25 -75.8 406.5 -77.7 L404.7 -78.7 398.2 -81.4 Q442.5 29.25 371.35 84.85 365.15 90.05 357.85 94.6 L356.4 95.2 Q350.6 98.7 344.2 102.0 L344.75 99.95 339.75 102.0 M325.6 -90.55 Q329.15 -94.4 331.95 -89.8 337.75 -69.6 338.75 -48.35 L340.0 -26.9 339.45 -28.8 Q328.75 -65.95 318.45 -44.6 319.3 -66.4 324.55 -87.45 L325.6 -90.55 M-326.95 -87.6 Q-329.7 -93.15 -332.0 -95.2 -333.5 -96.6 -335.4 -97.65 -344.4 -107.2 -353.1 -99.65 -354.3 -99.15 -355.35 -98.45 -359.4 -95.95 -363.55 -87.25 -366.6 -86.15 -371.05 -89.0 -368.3 -94.35 -363.4 -97.65 -343.1 -111.2 -327.3 -92.0 L-326.95 -87.6 M-466.45 34.1 Q-470.3 18.95 -470.2 3.65 -470.1 -20.6 -458.75 -41.9 -428.2 -99.2 -363.3 -103.5 -371.7 -95.85 -376.85 -85.6 -383.75 -71.85 -386.95 -56.8 -391.2 -36.85 -392.15 -15.85 -393.0 2.3 -391.8 20.4 -391.2 29.65 -390.0 38.6 -387.35 58.2 -381.8 77.15 -374.85 100.75 -352.65 106.75 L-347.35 112.05 -353.7 113.2 Q-388.15 111.65 -391.65 45.0 L-393.7 34.05 Q-408.0 118.8 -466.45 34.1 M-384.0 -53.65 L-376.25 -41.1 Q-379.45 -20.2 -379.05 3.35 L-388.85 17.3 -389.2 -7.95 -385.8 -44.45 -384.0 -53.65 M-26.85 50.7 L-1.8 51.15 -26.7 52.4 -26.85 50.7 M-272.6 95.15 L-272.6 95.2 -272.85 95.2 -272.6 95.15 M-243.1 95.0 Q-228.8 92.4 -222.9 81.7 L-219.95 75.95 Q-202.45 88.45 -178.7 86.15 -164.9 84.8 -153.25 78.0 -143.5 72.45 -154.3 68.25 -174.65 60.3 -196.8 62.25 -204.4 63.2 -211.65 65.4 -207.7 61.3 -204.15 58.9 -201.1 56.8 -204.0 51.0 -201.85 50.1 -198.65 50.15 -179.45 62.0 -112.6 67.45 L-99.3 51.2 Q-103.75 40.6 -92.25 48.55 L-91.75 48.45 -86.05 53.0 Q-79.65 57.35 -69.65 56.45 L-76.15 57.9 Q-99.95 56.4 -108.35 75.0 -108.85 76.1 -107.2 77.15 -100.85 81.25 -93.7 82.8 L-91.95 94.05 -243.1 95.0 M-56.9 53.7 L-51.7 51.85 -52.35 52.7 -56.9 53.7 M-254.5 98.05 L-249.6 98.45 -248.75 98.0 326.2 93.45 334.6 99.5 -335.25 103.5 Q-332.25 100.3 -328.2 99.6 L-306.9 98.4 -254.5 98.05 M-461.45 46.75 Q-452.8 60.35 -440.05 73.95 -409.8 105.8 -377.15 114.5 -398.45 111.35 -416.9 100.15 -435.3 89.05 -446.8 70.8 L-461.45 46.75 M307.35 20.4 L307.25 20.4 307.3 20.2 307.35 20.4 M245.75 77.9 Q252.4 87.4 257.35 90.55 L244.1 90.5 Q245.45 83.8 245.75 77.9 M272.85 90.6 Q276.7 87.1 286.6 72.25 301.25 59.9 310.05 62.15 317.3 71.6 328.35 90.8 L272.85 90.6 M187.25 72.2 Q185.7 82.35 179.4 91.4 L100.75 92.15 Q106.1 85.0 119.2 80.75 134.7 75.8 148.4 57.25 L154.7 58.15 Q155.55 60.85 158.75 64.5 164.4 71.6 187.25 72.2 M213.95 68.9 Q221.35 70.15 228.75 68.95 L239.05 67.45 243.0 73.8 Q242.85 87.2 239.95 91.1 L195.05 91.4 207.2 79.85 Q212.0 74.85 213.95 68.9" fill="#ffffff" fill-rule="evenodd" stroke="none"/>
    <path d="M32.5 -5.0 L34.05 -5.8 39.1 -2.25 Q39.2 -0.2 39.95 1.65 49.6 47.25 52.45 50.35 L52.55 50.45 49.3 50.2 58.65 51.8 Q58.3 52.65 57.7 52.8 49.45 55.05 41.0 55.7 L35.7 55.7 29.3 55.75 21.45 54.9 Q0.25 51.9 -11.5 34.95 -8.45 35.0 -5.7 35.95 20.55 44.7 47.35 49.85 L31.55 -2.3 32.5 -5.0 M104.7 11.05 Q96.75 -21.1 97.95 -22.9 103.55 -27.6 105.9 -20.8 106.8 -18.75 110.6 7.55 L104.7 11.05 M89.05 -56.65 L89.35 -57.15 89.65 -56.95 89.05 -56.65 M-20.05 -8.65 L-19.25 -1.95 -14.85 34.1 -39.95 34.1 Q-39.35 29.65 -39.2 25.25 -38.5 3.65 -40.3 -17.85 -26.0 -20.85 -21.6 -21.3 L-20.05 -8.65 M-13.4 33.8 L-17.8 -20.25 Q-14.45 -24.85 -11.25 -19.1 -11.0 -16.1 -9.25 -12.3 L-2.15 32.9 -4.3 33.4 -13.4 33.8 M27.45 -1.1 L44.65 -45.55 41.25 -50.35 13.15 -43.45 5.2 -36.8 11.4 -45.6 41.25 -52.4 46.55 -48.55 30.8 -1.4 45.65 49.15 43.35 48.6 Q40.9 45.25 28.4 4.35 L27.45 -1.1 M57.05 -43.85 L57.75 -45.9 76.1 -47.4 89.65 -27.3 Q94.1 -21.4 94.7 -19.95 L103.55 11.95 100.0 14.0 Q91.15 -19.95 89.95 -21.7 L88.2 -24.25 86.55 -26.55 73.65 -44.1 57.05 -43.85 M180.0 -44.75 L180.45 -43.95 180.6 -43.55 180.5 -43.85 181.8 -41.5 181.4 -37.6 180.8 -36.05 Q173.85 -17.85 154.9 -14.05 L154.65 -15.65 Q176.1 -23.6 180.0 -44.75 M133.7 -3.55 Q130.65 -12.65 123.6 -22.3 118.85 -29.0 116.8 -33.8 L90.65 -52.75 87.0 -50.5 86.1 -51.55 90.55 -55.35 122.9 -35.5 116.05 -41.4 117.2 -43.95 Q117.8 -44.45 118.6 -44.75 129.55 -36.3 138.65 -25.6 L147.55 -14.3 137.15 -23.2 147.85 -8.4 133.7 -3.55 M149.3 -13.15 L153.15 -12.85 154.6 27.6 Q154.9 28.8 160.8 36.15 164.95 41.5 163.2 45.6 L151.35 43.55 149.3 -13.15 M266.35 66.05 L264.8 75.3 264.0 74.45 266.35 66.05 M236.95 47.7 Q234.4 44.2 233.15 41.8 L236.85 47.55 236.95 47.7 M222.3 -40.35 Q227.05 -14.35 228.3 11.95 L229.05 33.65 223.45 35.5 Q203.5 41.75 182.65 43.85 L180.05 43.85 168.8 48.85 169.35 55.65 Q164.05 50.6 165.65 43.8 L166.15 42.05 174.65 43.55 Q154.9 38.5 155.75 17.7 165.0 35.0 168.2 35.6 211.55 39.65 220.9 25.15 220.5 8.6 221.05 -41.2 L222.3 -40.35 M154.6 -12.25 Q172.95 -16.75 179.6 -30.45 173.9 -14.3 154.6 -12.25 M265.95 -64.25 Q279.35 -50.45 290.3 -33.65 302.55 -15.0 303.4 7.35 304.25 29.35 292.15 47.6 281.65 63.45 266.55 75.15 L268.8 50.5 Q271.1 33.85 265.2 17.5 L261.45 -1.7 Q266.65 16.75 282.35 12.65 283.2 12.45 283.95 11.9 295.05 -29.5 265.95 -64.25 M193.9 -63.35 Q182.85 -76.15 188.4 -88.4 188.5 -88.65 188.85 -88.75 L196.25 -64.2 193.9 -63.35 M204.8 -104.65 L206.9 -103.5 Q212.25 -100.0 218.1 -101.45 L229.35 -79.6 Q228.55 -77.0 228.4 -74.35 228.15 -69.5 229.95 -65.1 233.35 -57.0 241.45 -53.6 252.4 -27.3 259.15 0.15 249.9 -16.25 239.2 -31.6 215.65 -65.35 204.8 -104.65 M-336.95 -62.45 L-335.1 -70.1 Q-300.8 -65.2 -293.9 -58.9 L-294.0 -55.95 Q-295.15 -49.9 -294.65 -42.7 L-310.75 -46.8 -312.1 -48.15 Q-320.1 -56.7 -331.35 -59.1 L-336.95 -62.45 M-316.9 81.15 L-319.3 89.6 -360.05 87.25 -364.5 73.5 Q-370.65 52.7 -370.55 30.45 -370.5 9.2 -369.35 -12.1 -368.4 -29.95 -365.0 -47.55 L-360.2 -49.95 Q-342.0 -53.3 -324.8 -45.7 -326.0 -39.45 -325.5 -32.9 -325.3 -29.75 -324.6 -26.05 -343.25 -32.95 -360.45 -29.35 L-359.75 -5.45 Q-358.0 52.4 -351.2 64.5 -341.9 80.8 -316.9 81.15 M-261.15 -23.15 Q-259.8 -20.55 -258.9 -18.25 -257.95 -15.8 -257.6 -13.75 -269.8 -33.3 -292.95 -43.35 -293.4 -51.9 -292.0 -58.3 -278.4 -49.2 -267.65 -33.5 -263.65 -27.75 -261.15 -23.15 M-323.25 -43.3 L-320.7 -44.1 Q-319.2 -43.8 -317.05 -42.35 -311.55 -38.65 -301.6 -27.3 -287.7 -11.35 -283.85 -4.9 L-285.65 -6.35 Q-307.35 -26.7 -323.2 -26.8 -324.7 -35.35 -324.15 -42.25 L-323.25 -43.3 M-282.75 -7.75 L-282.7 -7.5 -283.0 -7.75 -283.0 -7.85 -282.75 -7.75 M-282.95 -7.4 L-282.35 -6.45 Q-266.15 44.45 -298.35 77.2 L-302.45 78.4 Q-291.2 62.25 -286.3 41.6 -281.1 19.6 -282.95 -7.4 M-236.8 0.65 L-235.75 0.45 -236.6 0.35 -236.15 -0.15 -234.55 -0.15 -233.25 11.45 -234.05 14.25 Q-243.65 31.5 -258.3 44.6 L-266.65 51.75 -256.1 38.25 Q-242.4 21.2 -236.8 0.65 M-234.3 -1.95 L-234.25 -1.65 -234.7 -1.6 -234.3 -1.95 M-221.6 0.75 Q-222.85 -2.1 -221.45 -6.35 -215.95 -22.85 -198.55 -26.7 -203.75 -20.75 -199.3 -14.5 -195.95 -9.75 -190.55 -11.1 -187.3 -13.45 -184.0 -15.75 -179.25 -21.65 -188.8 -29.4 L-180.8 -29.95 Q-183.45 -24.75 -180.1 -21.05 -178.85 -18.25 -175.2 -17.0 L-172.2 -16.4 Q-165.15 -15.8 -163.15 -23.2 L-162.8 -24.35 Q-154.55 -13.55 -144.5 -23.5 -135.65 -13.75 -127.5 -23.45 L-125.6 -26.15 Q-125.75 -18.45 -133.15 -17.25 -170.25 -10.8 -204.85 3.95 L-210.05 6.35 -211.05 5.95 Q-219.65 5.15 -221.6 0.75 M-117.45 14.1 L-117.05 55.1 -117.35 55.65 -135.9 54.45 -181.9 44.4 -197.05 39.4 -197.05 37.3 Q-176.4 37.55 -156.1 33.75 -133.9 29.35 -117.45 14.1 M-212.1 35.2 Q-205.7 46.05 -219.8 49.35 L-220.2 49.45 Q-219.9 63.0 -229.2 71.0 -230.7 72.3 -232.5 72.5 L-228.7 63.75 Q-224.45 55.85 -221.85 42.95 -220.75 37.05 -212.1 35.2 M-228.1 50.05 Q-227.85 54.15 -229.15 58.0 -240.8 92.5 -280.3 90.8 -282.45 77.7 -296.1 79.3 -271.55 67.35 -248.45 52.7 -249.7 54.35 -249.7 56.35 -249.75 73.85 -235.3 66.45 L-231.15 57.5 Q-230.15 49.7 -243.7 49.75 L-241.5 48.05 -234.25 45.6 Q-231.65 46.15 -229.4 47.75 L-228.3 48.55 -228.1 50.05 M-210.35 -15.8 Q-217.15 -13.75 -217.15 -6.95 -217.75 1.6 -208.0 3.4 -202.35 3.4 -199.4 -2.2 -196.75 -7.55 -200.0 -12.55 -203.55 -17.55 -210.35 -15.8 M-214.9 -5.0 Q-209.1 3.05 -201.15 -3.35 -210.05 7.05 -215.65 -6.05 L-214.9 -5.0 M-178.6 -27.45 Q-175.65 -16.2 -165.65 -20.85 L-166.65 -19.35 Q-179.3 -14.95 -178.75 -28.5 L-178.6 -27.45 M-199.15 -19.6 L-199.1 -20.8 Q-194.05 -9.7 -184.65 -17.0 L-185.25 -15.2 Q-195.45 -7.4 -199.15 -19.6 M-141.1 -30.65 L-140.85 -32.05 Q-141.0 -20.05 -129.7 -22.35 -142.25 -17.85 -141.1 -30.65 M-160.45 -31.75 Q-159.75 -22.15 -148.4 -23.65 -157.3 -17.2 -160.6 -30.25 L-160.45 -31.75 M-116.45 12.6 Q-113.4 7.5 -108.3 -6.65 L-107.0 36.7 -115.85 52.95 -116.45 12.6 M-89.35 -18.05 Q-88.6 -16.25 -86.05 -16.1 L-75.95 -17.5 -91.95 -9.45 -92.1 -9.95 Q-91.05 -14.45 -89.35 -18.05 M-56.4 -20.9 L-51.85 -21.3 -48.95 -21.5 -47.75 -21.45 -50.9 -21.0 -56.4 -20.9 M-106.7 -6.65 L-94.0 -7.25 Q-101.15 7.95 -94.45 23.05 L-93.75 24.95 -105.5 25.55 -106.7 -6.65 M-40.8 -11.95 Q-38.5 10.8 -41.15 33.5 L-65.0 35.5 -42.6 35.3 Q-46.1 40.5 -51.95 42.4 -75.9 49.95 -89.3 28.55 L-80.1 32.7 -80.3 32.6 Q-90.55 27.7 -94.95 17.1 -89.4 19.85 -74.5 23.45 -47.0 30.5 -40.8 -11.95 M-88.45 87.8 Q-67.7 98.95 -50.55 80.0 L-35.05 62.75 Q-45.35 75.15 -39.25 86.0 -39.9 84.15 -40.15 81.85 -41.0 73.75 -35.7 67.4 L-33.35 63.7 Q-45.8 87.85 -18.05 90.6 2.65 93.05 23.5 91.75 L62.75 88.5 Q83.5 86.95 94.3 69.8 96.35 66.6 97.65 63.05 126.25 63.65 137.4 39.9 143.75 26.3 134.85 13.65 L133.05 11.05 135.15 11.05 Q151.75 27.9 142.2 48.45 138.8 55.7 131.65 59.4 115.95 67.3 101.5 76.5 90.6 83.55 81.1 92.55 L-27.55 93.45 Q-31.9 93.15 -34.75 91.45 L-31.7 93.45 -87.5 93.75 -88.45 87.8 M135.8 11.05 L137.65 11.05 136.8 8.0 Q132.95 3.0 120.8 5.9 L115.4 7.95 114.0 8.25 113.7 7.95 Q129.55 -2.1 147.85 -6.65 L149.0 43.55 147.25 43.55 147.15 40.15 Q147.65 22.5 135.8 11.05 M56.65 65.4 L56.6 65.7 Q53.65 62.5 53.35 58.1 L54.1 56.05 55.45 55.6 57.2 55.65 57.2 55.75 56.65 65.4 M-198.25 23.15 L-198.55 38.75 -209.15 40.3 Q-209.5 37.5 -211.2 35.3 -218.4 25.85 -208.3 19.05 L-198.25 23.15 M-250.15 39.1 Q-257.9 49.0 -262.6 49.75 L-263.45 50.2 -250.15 39.1 M-233.2 59.6 Q-237.7 72.75 -247.85 61.25 -238.6 69.0 -232.8 57.85 L-233.2 59.6 M-315.25 81.15 L-307.5 80.75 -308.0 83.0 Q-310.05 86.65 -310.75 90.2 L-317.8 89.6 Q-317.1 85.9 -315.25 81.15 M-308.95 90.2 L-308.7 88.45 Q-308.05 84.2 -303.7 82.9 L-307.5 90.3 -308.95 90.2 M-297.2 95.9 L-300.15 90.65 Q-288.3 100.0 -285.1 85.9 L-284.7 87.2 Q-283.15 92.55 -287.25 95.45 L-297.2 95.9 M-255.4 83.9 Q-251.65 81.15 -252.55 76.65 -256.2 58.0 -273.55 70.1 -278.05 74.2 -275.9 79.5 -269.85 94.6 -255.4 83.9 M-257.1 77.7 Q-261.95 91.2 -271.75 79.25 -262.3 87.55 -256.7 75.95 L-257.1 77.7 M237.95 40.85 Q250.5 55.75 260.0 40.45 262.5 36.4 262.0 31.65 L260.05 15.2 261.35 17.75 260.85 15.75 262.45 21.65 260.65 18.15 Q266.4 44.65 260.75 70.95 L238.65 42.1 237.95 40.85 M190.95 60.65 Q186.25 52.4 185.05 43.85 L204.5 41.55 204.8 43.15 195.05 48.25 190.95 60.65 M219.3 59.8 Q209.0 54.3 206.2 42.9 L206.0 41.5 229.5 35.1 Q233.25 45.8 240.25 55.05 L237.85 55.85 Q237.45 55.5 237.4 55.15 L237.7 55.25 Q230.15 50.45 224.6 40.3 L216.35 46.5 219.3 59.8" fill="#016a3a" fill-rule="evenodd" stroke="none"/>
    <path d="M311.9 -44.3 L312.95 -55.65 Q314.65 -75.75 321.55 -94.7 333.55 -106.05 337.1 -84.6 L339.85 -86.0 Q341.85 -79.25 342.9 -72.25 345.9 -52.7 347.55 -32.75 L342.05 -27.2 Q341.4 -49.25 338.5 -71.0 336.7 -84.65 330.65 -96.75 326.85 -95.5 324.95 -91.85 312.5 -67.85 315.95 -39.15 L315.75 -37.9 315.3 -36.7 311.9 -44.3 M315.85 -35.55 L315.45 -36.4 315.75 -37.9 315.9 -38.4 315.85 -35.55 M310.15 -8.1 L315.4 -8.1 314.95 19.05 309.65 18.15 310.15 -8.1 M339.75 102.0 L344.75 99.95 344.2 102.0 Q350.6 98.7 356.4 95.2 L357.85 94.6 Q365.15 90.05 371.35 84.85 442.5 29.25 398.2 -81.4 L404.7 -78.7 406.5 -77.7 Q413.25 -75.8 418.95 -73.0 460.9 -38.1 443.4 31.75 L443.35 33.4 Q434.75 64.05 407.4 83.1 389.35 95.8 366.95 100.55 355.8 103.0 349.8 103.05 338.4 109.65 335.9 112.65 334.75 111.45 -334.95 116.2 L-345.6 113.8 -346.6 112.85 -353.7 113.2 Q-357.25 114.15 -357.4 115.6 L-357.7 115.6 Q-363.9 116.85 -377.15 114.5 -409.8 105.8 -440.05 73.95 -452.8 60.35 -461.45 46.75 L-466.45 34.1 Q-408.0 118.8 -393.7 34.05 L-391.65 45.0 Q-388.15 111.65 -353.7 113.2 L-347.35 112.05 -352.65 106.75 37.4 104.35 339.75 102.0 M437.8 -55.1 Q431.15 -64.0 421.9 -71.45 425.95 -69.15 429.5 -66.35 433.9 -61.1 437.8 -55.1 M331.95 -89.8 Q329.15 -94.4 325.6 -90.55 L329.4 -94.9 331.95 -89.8 M318.45 -44.6 Q328.75 -65.95 339.45 -28.8 L340.0 -26.9 Q340.65 -6.25 340.35 14.45 340.0 35.9 338.6 57.45 337.7 71.6 333.55 84.9 336.1 73.1 336.8 61.15 337.5 48.9 333.4 37.4 329.05 25.35 317.0 20.8 L318.45 -44.6 M-326.95 -87.6 L-327.3 -92.0 Q-321.4 -84.25 -320.7 -76.55 L-321.0 -76.8 Q-325.4 -81.05 -326.95 -87.6 M-371.05 -89.0 Q-366.6 -86.15 -363.55 -87.25 L-366.65 -79.55 Q-373.5 -60.95 -376.25 -41.1 L-384.0 -53.65 -383.0 -58.0 Q-379.1 -74.3 -371.05 -89.0 M-353.1 -99.65 Q-344.4 -107.2 -335.4 -97.65 L-337.15 -98.45 Q-345.0 -101.9 -353.1 -99.65 M-332.9 -91.1 L-326.7 -77.5 Q-339.7 -80.75 -340.85 -64.8 L-351.8 -65.4 Q-358.0 -66.3 -361.55 -64.8 -367.15 -62.45 -370.1 -44.75 -373.65 -23.5 -373.05 36.75 -377.45 13.15 -375.4 -18.15 -373.35 -48.3 -366.55 -69.85 -357.4 -99.35 -344.4 -99.05 -337.3 -98.75 -332.9 -91.1 M-385.8 -44.45 L-389.2 -7.95 Q-388.7 -27.75 -385.8 -44.45 M-388.85 17.3 L-379.05 3.35 Q-379.95 45.7 -364.95 84.75 -361.5 93.8 -353.25 98.25 -343.4 103.45 -334.8 96.35 -331.95 94.05 -328.75 92.85 -333.15 101.15 -342.6 103.75 -355.4 107.35 -363.9 97.2 -377.9 80.5 -383.0 59.25 -387.95 38.55 -388.85 17.3 M-135.9 54.45 Q-157.15 51.9 -181.9 44.4 L-135.9 54.45 M-26.85 50.7 Q-27.2 48.95 -28.35 48.0 -34.0 43.5 -39.55 44.15 L-39.4 44.05 Q-19.05 34.2 -1.8 51.15 L-26.85 50.7 M-272.6 95.15 Q-250.8 89.45 -230.9 78.3 -216.2 69.95 -216.85 52.7 -214.05 48.5 -210.05 45.85 -205.75 42.95 -201.0 44.5 -165.7 56.15 -128.9 60.05 -120.8 61.05 -114.1 56.75 -100.2 47.65 -103.15 29.4 L-94.9 29.35 Q-89.65 37.8 -80.95 42.7 -63.75 52.25 -46.2 46.75 -48.95 48.65 -51.7 51.85 L-56.9 53.7 -69.65 56.45 Q-79.65 57.35 -86.05 53.0 L-91.75 48.45 -92.25 48.55 Q-103.75 40.6 -99.3 51.2 L-112.6 67.45 Q-179.45 62.0 -198.65 50.15 -201.85 50.1 -204.0 51.0 -201.1 56.8 -204.15 58.9 -207.7 61.3 -211.65 65.4 -220.8 68.45 -220.4 74.25 -220.35 75.1 -219.95 75.95 L-222.9 81.7 Q-228.8 92.4 -243.1 95.0 L-272.6 95.2 -272.6 95.15 M-150.1 73.45 Q-150.1 77.1 -160.1 79.7 -170.05 82.25 -184.2 82.25 -198.35 82.25 -208.35 79.7 -218.3 77.1 -218.3 73.45 -218.3 69.8 -208.35 67.25 -198.35 64.65 -184.2 64.65 -170.05 64.65 -160.1 67.25 -150.1 69.8 -150.1 73.45 M-104.05 77.25 Q-105.45 76.95 -105.9 75.65 -109.0 67.5 -95.8 66.85 L-94.6 80.15 -104.05 77.25 M-314.85 93.45 Q-308.65 93.45 -306.9 95.8 -324.05 95.8 -326.1 95.5 L-324.3 93.15 -314.85 93.45 M-248.75 98.0 L-249.6 98.45 -254.5 98.05 -248.75 98.0 M-356.8 91.4 L-334.65 92.85 -336.05 94.3 Q-347.9 105.2 -356.8 91.4 M342.65 5.5 L343.3 14.3 348.6 26.65 Q347.85 50.1 344.6 73.3 342.85 86.05 337.7 97.9 L331.2 92.85 332.5 90.55 Q341.45 71.0 342.1 49.1 342.7 27.3 342.65 5.5 M307.35 20.4 L307.6 24.05 Q332.0 22.8 334.9 49.7 337.3 71.6 328.35 90.8 317.3 71.6 310.05 62.15 301.25 59.9 286.6 72.25 276.7 87.1 272.85 90.6 L257.35 90.55 Q252.4 87.4 245.75 77.9 L245.0 64.8 Q251.9 70.95 259.2 76.65 264.45 80.75 269.45 77.1 286.55 64.5 297.4 45.8 304.25 33.9 307.25 20.4 L307.35 20.4 M214.0 59.45 L199.4 61.25 213.1 58.9 214.0 59.45 M181.8 90.8 Q189.9 78.85 190.95 64.5 199.7 66.55 208.5 64.75 L211.3 64.2 Q208.75 84.8 189.55 90.45 L181.8 90.8 M100.75 92.15 L88.2 92.25 Q91.75 88.45 107.65 76.05 113.0 71.3 114.75 70.7 L122.15 69.55 Q143.4 65.4 149.0 47.7 L160.8 49.15 Q165.55 65.4 187.7 64.5 187.8 68.4 187.25 72.2 164.4 71.6 158.75 64.5 155.55 60.85 154.7 58.15 L148.4 57.25 Q134.7 75.8 119.2 80.75 106.1 85.0 100.75 92.15 M213.95 68.9 Q214.85 66.05 215.15 63.05 221.35 64.2 240.25 59.8 242.3 60.4 242.9 67.45 L243.0 73.8 239.05 67.45 228.75 68.95 Q221.35 70.15 213.95 68.9" fill="#c3baaa" fill-rule="evenodd" stroke="none"/>
    <path d="M39.1 -2.25 Q38.7 -9.25 45.95 -18.75 L46.8 -17.55 45.35 -14.45 Q39.25 -3.95 44.4 7.2 41.25 4.7 39.95 1.65 39.2 -0.2 39.1 -2.25 M108.0 -15.75 L107.4 -14.9 Q106.45 -23.5 100.65 -32.4 L105.55 -25.9 106.75 -23.1 108.0 -15.75 M90.25 -57.15 L85.8 -59.8 13.7 -51.1 1.9 -47.25 4.3 -50.05 20.95 -53.0 45.25 -57.55 Q66.1 -61.4 87.3 -61.05 104.35 -59.75 117.6 -45.5 L117.2 -43.95 116.05 -41.4 90.25 -57.15 M-11.25 -19.1 Q-11.75 -26.2 -3.35 -28.5 L-3.85 -26.3 -8.65 -18.75 -7.1 -8.3 -9.25 -12.3 Q-11.0 -16.1 -11.25 -19.1 M29.3 55.75 L35.7 55.7 54.1 56.05 53.35 58.1 Q52.4 62.5 56.6 66.0 -19.0 53.9 -29.95 58.0 L-30.45 57.8 -28.45 55.95 29.3 55.75 M-5.5 -21.85 Q11.1 -3.7 29.85 -8.45 L27.45 -1.1 28.4 4.35 -7.1 -14.55 -5.5 -21.85 M86.55 -26.55 L88.2 -24.25 89.95 -21.4 91.15 -13.15 44.7 2.25 43.0 -3.1 43.2 -3.8 44.05 0.0 Q44.15 -3.3 43.35 -4.3 L43.45 -4.6 Q67.6 -5.35 86.55 -26.55 M154.95 -89.15 Q156.35 -89.25 156.7 -88.45 L156.7 -88.4 154.95 -89.15 M148.1 -80.15 L151.85 -85.85 Q156.8 -83.15 161.35 -79.95 178.05 -68.2 179.65 -45.85 174.7 -58.1 168.8 -69.9 160.8 -85.85 148.1 -80.15 M180.45 -43.95 L180.5 -43.85 180.6 -43.55 180.45 -43.95 M188.85 -94.25 Q186.8 -103.25 197.75 -104.0 L200.4 -104.65 220.15 -58.9 Q206.9 -79.6 199.25 -103.1 L197.2 -102.5 Q190.2 -100.8 188.85 -94.25 M240.8 -27.65 L244.4 -22.9 Q256.0 -7.25 262.0 13.85 L258.45 4.2 257.65 4.0 Q250.0 -12.25 240.8 -27.65 M264.2 22.65 Q265.9 30.35 266.7 37.95 L264.2 22.65 M264.8 75.3 L263.8 75.0 264.0 74.45 264.8 75.3 M233.15 41.8 L231.7 37.65 Q234.3 42.95 236.85 47.55 L233.15 41.8 M231.4 36.35 Q230.4 31.5 229.95 23.25 231.0 1.85 226.75 -21.15 L222.45 -41.15 Q232.35 -28.3 233.45 27.6 233.65 33.0 237.95 40.85 L238.65 42.1 231.4 36.35 M221.8 -103.4 L221.95 -105.25 Q244.0 -93.8 258.65 -71.85 L265.65 -62.75 Q232.45 -99.5 221.8 -103.4 M225.95 -89.95 L225.9 -90.15 Q272.2 -67.75 279.5 -27.0 281.9 -14.05 280.1 -0.15 L277.75 12.85 Q284.5 -48.75 225.95 -89.95 M-334.55 -71.85 L-334.05 -73.1 Q-306.6 -73.1 -290.95 -65.4 L-291.45 -64.3 -310.45 -69.25 Q-327.1 -73.05 -334.55 -71.85 M-295.1 -29.5 L-303.85 -39.5 Q-298.55 -34.1 -295.1 -29.5 M-324.8 -45.7 Q-342.0 -53.3 -360.2 -49.95 L-365.0 -47.55 Q-363.1 -55.95 -360.35 -60.7 -345.0 -63.65 -322.25 -54.5 -324.0 -50.2 -324.8 -45.7 M-290.35 -63.7 L-289.75 -65.1 -289.5 -65.4 Q-268.8 -48.55 -253.75 -18.15 L-256.55 -12.95 -258.9 -18.25 Q-259.8 -20.55 -261.15 -23.15 -274.45 -50.7 -290.35 -63.7 M-320.7 -44.1 L-323.15 -45.05 -321.3 -53.8 Q-299.1 -37.2 -286.25 -12.15 -289.85 -17.25 -294.2 -22.6 -305.7 -36.35 -317.05 -42.35 -319.2 -43.8 -320.7 -44.1 M-282.7 -7.5 L-278.85 -6.35 Q-263.15 -1.2 -246.4 -0.35 L-241.95 -0.2 -236.6 0.35 -235.75 0.45 -236.8 0.65 Q-264.7 5.55 -281.5 -5.15 L-282.35 -6.45 -282.95 -7.4 -283.0 -7.75 -282.7 -7.5 M-255.0 -12.5 L-252.25 -17.85 -229.85 -14.25 -231.85 -11.65 -255.0 -12.5 M-171.7 -32.2 L-171.65 -32.9 Q-167.5 -32.8 -166.6 -30.3 L-166.35 -28.85 -171.7 -32.2 M-124.55 -28.85 L-124.4 -29.95 -117.9 -29.1 -117.8 -15.1 -118.15 -26.7 -124.55 -28.85 M-208.3 -13.45 Q-204.55 -13.45 -202.35 -10.5 -205.4 -10.65 -207.75 -12.8 L-208.3 -13.45 M-188.8 -26.45 Q-187.0 -25.55 -186.45 -23.75 -188.2 -23.5 -189.95 -24.35 -191.45 -24.95 -192.35 -26.7 L-188.8 -26.45 M-129.45 -28.8 Q-131.8 -28.8 -133.0 -30.25 -135.05 -32.65 -133.55 -34.1 -131.2 -34.1 -130.05 -32.65 -127.95 -30.25 -129.45 -28.8 M-152.75 -34.4 Q-147.65 -34.4 -147.6 -30.2 L-147.9 -30.3 Q-151.55 -30.85 -152.75 -34.4 M-108.5 -16.1 L-116.6 1.05 -116.45 -28.5 -112.0 -24.65 Q-108.1 -21.25 -108.5 -16.1 M-64.0 -19.8 L-60.0 -20.55 -59.75 -20.55 -56.4 -20.9 -50.9 -21.0 -43.85 -20.5 -42.35 -19.25 -41.55 -15.6 -42.3 -16.35 -40.85 -12.6 -40.85 -12.55 Q-82.85 -12.85 -94.45 -1.9 L-93.15 -4.5 Q-90.4 -8.05 -87.0 -10.65 L-89.2 -9.9 -87.6 -11.0 Q-76.45 -17.05 -64.0 -19.8 M-45.1 -24.0 L-49.05 -26.15 -44.4 -23.2 -61.75 -25.9 Q-77.1 -28.35 -88.45 -19.8 -82.1 -31.5 -68.0 -32.35 -54.85 -33.4 -45.1 -24.0 M-69.65 56.45 L-56.9 53.7 -52.35 52.7 -54.05 54.5 Q-64.1 63.3 -76.15 57.9 L-69.65 56.45 M-57.25 75.1 L-60.0 75.5 Q-77.0 75.1 -91.05 64.8 -84.3 62.8 -77.65 63.6 -55.6 66.7 -43.8 48.85 L-32.2 48.4 -32.85 50.6 Q-38.55 69.25 -57.25 75.1 M-30.75 56.45 L-31.7 57.7 -32.5 53.0 -31.4 50.95 -30.75 56.45 M-238.4 53.3 Q-237.5 54.75 -240.15 56.55 -243.4 58.3 -244.0 56.55 -245.2 55.05 -242.25 53.3 -239.0 51.5 -238.4 53.3 M-290.35 84.9 Q-290.35 86.95 -293.6 86.95 -296.85 86.95 -296.85 84.9 -296.85 83.1 -293.6 83.1 -290.35 83.1 -290.35 84.9 M-268.2 74.55 Q-268.8 72.5 -266.15 71.0 -262.9 69.25 -262.3 71.3 -261.15 73.05 -264.4 74.55 -267.05 76.3 -268.2 74.55" fill="#f2f5d3" fill-rule="evenodd" stroke="none"/>
  </g>
</svg>
