<?xml version="1.0" encoding="UTF-8" standalone="no"?>
<svg xmlns:xlink="http://www.w3.org/1999/xlink" height="234.0px" width="210.0px" xmlns="http://www.w3.org/2000/svg">
  <g transform="matrix(1.0, 0.0, 0.0, 1.0, -353.0, -49.0)">
    <path d="M498.0 183.0 L476.0 210.0 461.0 227.0 457.0 234.0 453.0 239.0 443.0 244.0 439.0 248.0 433.0 252.0 428.0 253.0 422.0 253.0 411.0 261.0 403.0 269.0 399.0 272.0 398.0 277.0 390.0 283.0 357.0 280.0 353.0 49.0 563.0 54.0 557.0 158.0 546.0 159.0 543.0 157.0 539.0 160.0 530.0 160.0 526.0 161.0 520.0 160.0 506.0 181.0 498.0 183.0" fill="#999966" fill-rule="evenodd" stroke="none"/>
  </g>
</svg>
