<?xml version="1.0" encoding="UTF-8" standalone="no"?>
<svg xmlns:xlink="http://www.w3.org/1999/xlink" height="299.75px" width="243.3px" xmlns="http://www.w3.org/2000/svg">
  <g transform="matrix(1.0, 0.0, 0.0, 1.0, 126.2, 171.35)">
    <path d="M44.65 73.7 L45.5 79.85 45.65 82.45 Q46.0 87.2 43.95 91.7 42.6 94.35 38.75 97.5 34.65 100.4 30.95 100.7 L28.55 106.15 24.05 113.45 22.15 115.55 Q15.4 123.05 6.25 123.4 L-1.05 122.7 -5.8 121.5 -7.15 120.9 -9.85 128.1 Q-9.95 128.25 -10.2 128.0 L-10.4 128.4 -33.05 125.45 -39.8 122.45 -41.45 126.85 Q-41.8 127.45 -43.0 127.3 L-65.2 123.3 -67.8 122.45 -80.0 114.25 -81.75 112.5 -81.3 110.2 -74.1 80.45 -72.55 76.3 -83.65 71.4 Q-87.0 70.05 -87.1 69.5 L-86.65 68.55 -85.8 63.2 -86.3 62.55 -87.1 61.95 -88.15 60.55 -89.0 60.5 -89.5 60.4 -92.7 59.8 Q-98.25 58.65 -102.0 54.0 -103.65 51.9 -104.75 46.65 L-105.15 42.1 Q-105.2 40.45 -104.5 37.7 L-103.35 33.8 -101.7 30.5 Q-99.05 26.0 -97.5 24.65 -94.75 22.05 -91.75 20.3 -90.45 19.5 -87.85 19.1 L-83.3 19.0 Q-84.5 14.7 -85.8 7.75 L-88.05 -3.7 -90.4 -15.15 -92.9 -26.35 -94.65 -24.7 -99.1 -24.3 Q-104.2 -24.7 -109.25 -27.55 -118.5 -32.65 -122.9 -40.55 -125.85 -45.8 -126.2 -50.65 -126.3 -51.7 -124.9 -53.65 L-121.2 -58.95 -121.45 -59.55 Q-122.6 -62.15 -120.4 -65.15 L-117.7 -69.05 Q-114.6 -73.4 -113.05 -74.3 L-110.7 -75.35 -109.4 -76.65 -106.2 -79.7 -102.3 -84.25 Q-100.85 -86.45 -94.8 -93.5 L-87.2 -102.6 Q-85.3 -104.75 -82.45 -106.3 L-79.4 -107.5 Q-78.3 -107.7 -75.95 -106.9 L-70.15 -112.8 -68.6 -114.4 -68.6 -115.95 Q-68.4 -119.1 -68.0 -120.65 -67.15 -124.2 -65.9 -125.4 -64.9 -126.55 -63.6 -126.45 -60.9 -126.35 -54.75 -124.95 -55.8 -126.7 -55.85 -128.95 -56.05 -130.85 -54.5 -132.55 L-52.05 -135.25 -41.35 -145.2 Q-38.95 -147.6 -37.0 -146.8 -36.95 -149.1 -35.1 -151.0 L-18.85 -168.35 -17.2 -169.8 -15.4 -171.0 -12.55 -171.35 -4.4 -170.25 Q7.5 -168.35 11.05 -167.15 L14.55 -165.9 17.1 -163.85 Q18.3 -164.9 21.8 -164.55 L36.75 -162.55 45.6 -160.05 Q50.6 -158.05 50.7 -153.9 L53.0 -110.95 56.85 -114.95 57.5 -115.2 58.05 -115.7 Q59.75 -117.2 63.55 -116.75 66.3 -116.4 69.35 -114.5 71.6 -113.05 73.75 -110.8 75.85 -108.8 77.4 -106.4 79.4 -103.45 80.0 -100.85 81.0 -96.4 79.75 -93.95 L78.95 -92.75 Q78.45 -91.7 76.1 -89.55 L71.7 -85.85 72.3 -84.55 72.8 -83.2 Q73.9 -80.25 74.65 -76.75 78.8 -74.85 80.35 -72.75 81.55 -71.05 81.3 -69.2 L80.8 -66.1 80.45 -65.15 76.8 -49.8 73.1 -34.45 71.95 -30.75 Q71.2 -27.95 70.65 -27.3 69.1 -25.25 63.85 -24.45 L61.5 -20.5 60.25 -18.9 Q59.25 -17.75 58.2 -17.35 L58.3 -15.8 65.2 -11.9 72.3 -8.1 79.15 -12.45 Q81.7 -13.6 83.45 -13.75 L88.4 -13.25 Q88.3 -15.05 89.5 -16.15 90.1 -16.8 92.7 -17.3 L111.6 -19.45 115.45 -19.35 Q116.25 -18.95 116.85 -16.4 117.45 -13.85 116.6 -5.55 115.95 0.95 114.4 4.05 L112.85 6.5 Q111.2 7.7 106.9 8.3 101.95 9.1 100.5 9.7 99.95 12.6 98.15 15.05 95.2 19.1 92.3 20.75 89.05 22.45 83.65 23.7 L70.65 26.0 Q61.25 27.75 57.0 26.55 L56.4 58.85 Q56.2 59.6 55.1 59.55 L53.45 59.2 50.25 59.0 48.35 72.15 47.8 72.6 46.6 72.7 45.8 72.6 45.1 72.65 Q44.85 72.45 44.7 72.8 44.55 73.2 44.65 73.7 M32.6 -109.15 L33.2 -108.6 Q41.95 -108.85 50.25 -105.75 L48.45 -153.95 Q48.4 -155.7 47.35 -156.8 46.45 -157.65 45.5 -157.95 L44.55 -158.35 Q35.95 -160.55 26.85 -161.75 L20.65 -162.65 19.85 -162.55 18.7 -162.45 Q17.8 -161.3 17.8 -159.95 L18.35 -112.15 32.6 -109.15 M0.7 -115.9 L17.3 -112.45 16.9 -136.2 16.8 -140.55 Q16.7 -148.45 16.75 -156.25 16.75 -158.5 16.2 -160.55 L14.95 -163.3 14.85 -163.45 14.8 -163.5 14.4 -163.7 Q4.1 -166.6 -6.05 -168.1 L-13.05 -169.05 -14.1 -169.05 -14.95 -168.05 -16.0 -124.85 Q-16.05 -122.9 -15.3 -121.0 -14.95 -120.05 -14.05 -119.55 L-11.05 -118.5 Q-5.3 -116.75 0.7 -115.9 M-5.3 -93.2 L1.3 -92.3 Q6.45 -98.0 12.95 -102.1 L17.1 -104.55 -0.55 -107.95 -22.3 -112.15 -23.0 -112.85 -23.1 -112.85 Q-23.15 -110.55 -24.4 -108.75 L-25.95 -106.9 -35.05 -97.4 -5.3 -93.2 M63.6 -95.45 L60.1 -98.75 Q55.65 -102.8 49.95 -104.85 L39.05 -107.3 Q31.35 -108.5 23.8 -106.1 L20.8 -105.05 8.9 -97.8 7.15 -96.6 Q1.55 -92.25 -1.05 -85.95 -2.55 -82.15 -3.15 -77.95 -4.35 -69.15 -4.65 -60.05 L-4.85 -43.45 17.05 -29.35 Q25.35 -23.9 34.8 -21.0 43.6 -18.35 52.75 -18.8 54.8 -18.8 56.7 -19.5 L58.3 -19.95 62.75 -26.3 61.95 -26.5 Q52.3 -27.15 43.1 -30.4 38.6 -31.95 34.3 -34.25 26.05 -38.55 18.6 -44.35 11.05 -50.2 4.7 -57.6 1.85 -61.0 0.25 -65.15 -2.55 -72.4 -1.4 -80.15 L-1.35 -80.25 Q0.3 -84.2 4.8 -84.15 14.35 -83.75 23.25 -80.1 L30.9 -77.3 Q40.15 -74.45 49.5 -72.35 58.45 -70.15 67.7 -69.1 L72.45 -68.8 73.0 -68.8 Q73.3 -79.85 67.95 -89.85 66.25 -93.05 63.6 -95.45 M29.15 -108.35 L30.9 -108.55 30.1 -108.7 -9.9 -117.15 Q-12.8 -117.15 -14.85 -118.75 -16.95 -120.35 -16.95 -122.6 L-16.35 -151.85 -16.15 -164.8 -16.1 -166.25 -16.3 -167.0 -32.65 -150.0 Q-34.7 -147.85 -34.45 -144.9 L-31.35 -136.35 -24.55 -118.8 -22.4 -113.3 18.7 -105.35 29.15 -108.35 M55.55 -110.8 L51.35 -105.7 57.05 -102.5 56.9 -102.9 57.6 -102.65 55.8 -105.85 55.55 -110.8 M70.9 -91.35 L67.35 -92.65 70.15 -87.45 74.45 -90.75 70.9 -91.35 M65.35 -95.15 L66.75 -94.15 65.5 -95.05 65.35 -95.15 M39.45 -64.1 L43.05 -62.95 44.05 -62.65 45.6 -62.2 45.65 -62.2 47.0 -61.85 47.45 -61.75 58.15 -59.65 59.5 -59.45 60.9 -59.35 65.1 -59.05 72.9 -59.9 74.05 -65.5 74.55 -67.85 Q65.0 -67.85 55.75 -69.65 47.1 -71.45 38.45 -73.8 30.5 -76.05 22.95 -79.0 14.9 -82.0 6.25 -83.15 L2.55 -82.7 2.1 -82.65 0.9 -82.05 0.15 -81.1 -0.3 -80.5 -0.6 -78.8 -0.6 -78.65 Q-0.65 -76.2 -0.3 -73.8 0.45 -68.95 2.2 -64.35 5.1 -56.6 11.75 -51.7 L9.85 -56.05 Q7.3 -61.35 8.85 -66.75 L9.1 -67.35 10.35 -68.7 13.6 -72.0 14.85 -72.6 27.2 -68.35 38.3 -64.5 39.45 -64.1 M46.15 -57.05 Q47.15 -57.65 48.35 -57.45 51.45 -57.05 51.45 -53.65 51.45 -51.6 49.9 -50.3 L49.65 -50.1 49.0 -49.7 48.9 -49.65 46.25 -49.7 Q44.1 -50.75 44.1 -53.3 L44.35 -54.75 46.1 -57.0 46.15 -57.05 M48.25 -56.5 L47.25 -56.4 46.65 -55.9 46.45 -55.4 46.45 -55.25 47.1 -53.7 47.15 -53.65 47.95 -53.5 48.1 -53.5 48.15 -53.5 48.3 -53.5 48.55 -53.5 49.3 -54.0 49.6 -54.75 49.65 -55.3 Q49.45 -56.3 48.25 -56.5 M42.45 -59.7 L42.35 -60.6 42.3 -61.55 42.3 -61.85 42.3 -61.95 43.4 -61.8 40.35 -62.75 39.2 -63.1 37.9 -63.55 36.75 -63.9 35.6 -64.25 34.45 -64.65 27.7 -66.9 26.9 -67.2 25.85 -67.55 18.7 -70.1 15.2 -71.4 13.95 -71.05 13.35 -70.7 13.3 -70.7 Q11.3 -69.15 10.35 -67.65 9.15 -65.45 9.35 -62.9 L9.5 -61.0 Q9.95 -58.8 11.4 -54.95 L12.7 -52.1 13.2 -51.1 13.5 -50.75 13.85 -50.35 15.1 -49.05 17.0 -47.05 17.55 -47.75 17.75 -48.7 17.8 -49.65 18.0 -52.1 17.65 -52.9 18.55 -53.75 19.05 -53.7 19.1 -53.65 19.15 -53.6 19.1 -52.35 19.05 -51.85 18.5 -49.0 18.0 -46.5 Q18.0 -46.25 19.2 -45.35 23.95 -41.65 28.8 -38.55 L28.9 -38.6 29.1 -38.6 29.4 -38.6 29.5 -38.6 29.7 -38.55 30.75 -38.25 30.9 -38.2 31.8 -38.0 34.2 -37.45 37.15 -36.8 40.55 -36.05 Q41.85 -35.9 41.85 -35.35 L41.85 -35.25 40.65 -35.1 37.0 -36.2 32.95 -37.2 31.65 -37.45 31.35 -37.5 30.6 -37.6 30.65 -37.55 30.85 -37.4 30.85 -37.35 30.9 -37.3 31.0 -37.25 31.55 -36.95 36.35 -34.85 36.3 -35.0 36.3 -35.15 36.25 -35.7 36.7 -35.1 37.2 -34.05 47.2 -30.8 49.75 -30.75 50.75 -30.75 Q55.85 -30.9 57.25 -32.65 57.15 -33.45 57.75 -36.4 L62.2 -58.15 59.15 -58.5 57.0 -58.75 56.85 -56.1 Q55.25 -57.9 50.75 -58.25 L42.9 -58.6 42.8 -58.6 42.75 -58.7 42.75 -58.75 42.45 -59.7 M32.85 -41.55 L37.2 -40.35 38.1 -40.15 38.75 -40.0 45.25 -39.1 46.7 -39.05 46.85 -39.05 47.8 -38.7 47.8 -38.55 46.25 -38.2 41.4 -38.45 37.8 -39.05 34.85 -39.75 32.6 -40.45 31.2 -40.9 31.0 -41.0 30.5 -41.15 30.05 -41.35 26.4 -42.95 Q23.95 -43.8 24.1 -44.6 L24.15 -44.8 24.65 -45.2 25.5 -45.35 27.35 -45.1 27.2 -44.75 27.0 -44.6 26.65 -44.15 29.9 -42.75 30.95 -42.25 32.05 -41.85 32.85 -41.55 M74.05 -69.05 L79.75 -69.85 79.25 -70.75 Q77.25 -73.15 73.85 -74.15 L74.2 -70.25 74.05 -69.1 74.05 -69.05 M66.3 -28.3 L68.85 -28.6 68.95 -29.05 69.15 -29.3 69.65 -30.4 Q76.0 -49.2 79.8 -68.7 L75.7 -67.85 75.2 -65.65 73.75 -59.3 63.25 -58.15 59.25 -38.45 Q63.0 -36.1 65.15 -32.45 66.5 -30.15 64.9 -28.15 L66.25 -28.25 66.3 -28.3 M26.8 -66.65 Q30.7 -64.85 33.85 -63.8 L34.05 -63.7 35.2 -63.4 36.25 -63.1 36.55 -63.0 36.8 -62.95 37.5 -62.8 37.65 -62.8 38.1 -62.7 38.25 -62.65 38.3 -62.65 Q37.35 -60.15 36.7 -59.65 L31.25 -61.35 27.25 -62.4 25.75 -62.55 23.6 -62.3 23.3 -62.25 22.65 -61.95 Q23.5 -65.4 24.65 -67.65 L26.8 -66.65 M27.95 -53.55 L27.85 -53.7 27.5 -54.15 26.95 -55.85 26.95 -55.95 26.95 -56.05 26.95 -56.15 26.95 -56.25 27.0 -56.8 Q27.15 -58.5 28.35 -59.55 L28.6 -59.75 Q29.65 -60.65 31.25 -60.4 L32.45 -59.95 33.8 -58.7 Q34.25 -57.85 34.25 -56.7 L34.25 -56.2 Q34.05 -54.45 33.05 -53.5 L32.55 -53.05 Q31.05 -52.0 29.3 -52.7 L29.2 -52.75 29.05 -52.8 27.95 -53.55 M29.3 -57.65 L29.35 -57.55 29.35 -57.5 29.4 -57.45 29.4 -57.4 Q29.7 -56.7 30.4 -56.5 L32.1 -56.85 32.45 -57.8 32.35 -58.4 Q32.0 -59.3 31.15 -59.45 L30.8 -59.45 Q30.05 -59.45 29.55 -58.95 L29.3 -58.5 29.3 -57.65 M17.1 -24.8 L24.75 -23.85 9.7 -32.65 6.75 -32.85 -5.6 -34.45 13.85 -24.9 17.1 -24.8 M20.4 -19.05 L17.7 -18.4 17.7 -13.25 22.55 -14.3 23.1 -14.45 23.1 -19.45 22.25 -19.45 20.4 -19.05 M19.2 -20.4 L21.65 -21.1 19.1 -21.6 19.2 -20.4 M17.7 -23.65 L14.85 -24.1 -9.6 51.5 53.95 57.4 54.3 46.85 52.65 45.95 Q52.4 48.25 51.5 50.5 L51.3 50.9 50.85 51.4 50.25 51.95 48.6 53.4 44.3 53.0 42.55 49.5 44.1 41.9 42.1 40.95 41.35 41.5 40.05 41.4 33.8 54.8 12.65 52.7 12.05 38.55 10.35 37.4 9.25 37.7 7.2 49.4 Q7.0 50.75 6.0 51.8 L-2.1 51.1 Q-2.8 50.05 -2.65 48.8 L-1.5 40.45 -3.9 41.05 -1.55 31.9 0.0 31.45 2.05 23.7 Q6.3 23.2 10.5 24.5 L11.0 27.95 12.45 26.8 13.85 11.6 16.7 10.8 16.7 9.95 14.95 9.2 14.0 10.75 8.45 12.15 7.7 10.55 4.65 11.15 7.2 2.15 7.7 1.9 Q7.7 0.4 9.05 -0.05 L10.2 -0.45 11.15 -0.7 12.0 -0.95 12.7 -1.1 Q13.4 -1.3 14.0 -0.85 L14.75 0.55 17.65 -1.4 18.6 -5.55 18.35 -11.65 17.1 -11.55 16.75 -12.6 Q16.6 -15.8 17.0 -18.9 17.1 -19.95 17.9 -20.2 L17.7 -23.65 M-48.55 34.1 L-36.4 34.55 -26.8 8.55 -34.0 9.95 Q-31.3 8.5 -28.45 7.85 L-27.15 7.65 -15.5 5.75 -6.25 3.6 Q1.6 0.5 3.45 -7.95 4.15 -11.1 3.95 -14.35 3.85 -15.95 3.35 -17.7 0.75 -25.3 -7.1 -26.6 -9.25 -26.8 -11.45 -26.65 -21.2 -25.35 -30.4 -21.3 -36.05 -18.9 -41.4 -15.85 L-47.05 -12.0 Q-48.95 -10.45 -49.85 -8.25 -56.25 7.95 -62.95 24.05 -60.3 28.75 -55.4 31.45 -52.2 33.3 -48.55 34.1 M-27.55 43.45 L-10.65 51.45 13.6 -23.85 -8.05 -34.45 -11.95 -27.65 -9.45 -27.7 -7.2 -27.55 -5.05 -27.15 Q0.55 -25.75 3.25 -20.65 5.55 -16.25 5.0 -11.05 4.45 -5.8 1.6 -1.35 0.0 1.15 -2.3 2.75 L-3.0 3.2 Q-10.95 6.95 -19.75 7.6 L-25.6 8.4 -35.55 35.35 -42.75 36.3 -27.55 43.45 M20.0 -2.7 L22.4 -3.3 22.4 -4.3 20.0 -3.8 20.0 -2.7 M18.85 -2.15 L19.05 -3.8 22.85 -4.45 23.15 -3.1 24.05 -3.35 Q24.15 -4.75 22.95 -5.35 21.9 -5.9 20.65 -5.9 18.9 -5.65 18.4 -4.05 L18.0 -2.0 18.85 -2.15 M17.55 -0.95 Q14.8 0.05 15.0 3.3 L15.2 7.95 Q15.25 9.1 16.15 9.5 L16.75 9.5 16.75 8.55 15.95 8.55 Q14.7 4.5 16.45 0.25 L17.45 -0.1 17.55 -0.95 M19.8 -6.05 L22.3 -6.5 22.05 -12.5 19.55 -12.0 19.8 -6.05 M36.85 -19.2 L35.7 -13.65 36.9 -13.45 37.9 -19.0 36.85 -19.2 M34.75 -15.55 L35.45 -16.5 36.15 -18.65 35.1 -18.75 34.6 -16.95 34.75 -15.55 M37.7 -14.95 L37.1 -12.8 35.2 -13.05 35.45 -15.3 31.25 -6.2 33.5 -4.1 Q34.6 -4.75 35.0 -6.0 L37.7 -13.85 37.7 -14.95 M38.3 -18.4 L38.45 -14.9 39.35 -18.25 38.3 -18.4 M22.9 -21.35 L23.5 -21.25 Q24.25 -20.7 24.35 -19.8 24.7 -16.6 23.75 -13.7 L23.25 -12.8 23.3 -11.55 27.95 -8.75 29.0 -2.5 30.95 -18.9 22.9 -23.05 22.9 -21.35 M36.35 -8.4 Q36.15 -8.4 36.05 -8.2 L35.9 -7.8 36.05 -7.35 Q36.15 -7.2 36.35 -7.2 L36.7 -7.35 36.8 -7.8 36.7 -8.2 36.35 -8.4 M35.9 -6.35 Q35.2 -5.3 34.8 -4.05 L35.9 -3.7 36.4 -6.5 35.9 -6.35 M32.8 -1.85 L35.65 -1.85 35.65 -3.6 32.8 -3.6 32.8 -1.85 M33.75 -0.7 L32.5 -0.85 32.35 0.25 33.55 0.45 34.0 1.3 34.95 1.45 35.45 -1.3 34.6 -1.4 33.75 -0.7 M36.6 12.9 L35.95 13.6 26.9 12.6 23.7 -1.7 18.75 -0.6 Q17.15 14.15 18.35 28.6 22.6 21.1 30.75 22.35 31.9 22.6 32.9 23.35 37.0 26.45 37.7 31.65 L41.5 23.0 48.1 3.2 43.95 0.8 36.6 12.9 M63.7 -28.15 L64.45 -29.3 Q65.05 -32.35 62.35 -34.45 L59.05 -37.15 Q58.7 -34.6 57.95 -32.2 57.75 -31.6 57.15 -31.25 55.45 -30.05 53.15 -29.9 L52.25 -29.85 51.0 -29.75 50.8 -29.75 49.8 -29.75 56.85 -27.95 61.2 -27.45 62.3 -27.5 62.45 -27.55 62.85 -27.75 63.7 -28.15 M59.5 -45.8 L55.25 -32.55 54.65 -33.35 55.9 -35.6 58.65 -46.85 59.5 -45.8 M51.7 -17.8 L40.55 -18.6 34.05 11.75 35.65 11.95 36.55 10.5 43.7 -2.1 Q44.4 -3.3 45.65 -3.8 L48.1 -9.35 47.95 -9.55 47.8 -10.0 47.8 -11.0 47.85 -11.6 Q48.55 -14.5 50.25 -17.2 L50.6 -17.5 51.45 -17.3 51.7 -17.8 M54.65 -15.45 L55.25 -16.75 52.75 -17.1 54.65 -15.45 M56.4 -12.85 L56.55 -16.75 55.8 -14.95 56.2 -12.95 53.4 -6.85 52.3 -7.1 49.9 -1.5 49.6 2.1 51.05 4.6 52.4 5.25 53.3 4.1 55.8 5.0 56.35 -10.7 56.4 -12.85 M45.5 -2.0 L48.65 -0.35 48.35 1.3 49.15 1.75 49.35 -1.7 45.25 -3.3 43.95 -1.2 44.55 -0.85 45.5 -2.0 M49.05 -2.45 L51.3 -7.7 49.2 -8.8 46.85 -3.55 49.05 -2.45 M46.1 -1.5 L45.5 -0.35 47.55 0.85 48.15 -0.35 46.1 -1.5 M57.55 -12.3 L57.35 -6.55 56.75 11.6 56.45 19.7 56.3 24.05 60.55 24.55 62.15 24.75 80.05 21.9 86.65 20.4 85.35 19.9 Q81.5 18.8 78.9 15.7 L78.15 14.85 Q72.55 6.2 76.0 -3.65 77.55 -7.95 81.4 -10.7 L72.55 -6.3 66.75 -3.2 70.75 -6.3 71.5 -6.85 57.6 -13.85 57.55 -12.3 M48.7 -10.95 L53.25 -8.45 55.15 -13.3 50.6 -15.8 48.7 -10.95 M95.2 -15.7 Q92.65 -15.6 91.25 -14.2 90.9 -13.8 90.85 -13.2 90.35 -8.5 91.6 -3.8 93.2 2.3 95.05 8.1 L98.25 7.7 Q103.2 7.85 105.15 3.6 107.55 -1.6 107.3 -7.35 107.1 -12.0 106.15 -16.75 L95.2 -15.7 M91.0 -2.35 L89.85 -7.8 Q87.0 -5.95 84.45 -3.8 83.75 -3.15 83.4 -2.25 L82.6 0.15 83.35 5.55 87.25 9.45 93.6 7.0 93.1 5.4 91.0 -2.35 M81.75 3.95 Q80.85 -0.6 83.4 -4.65 L83.7 -5.05 89.75 -8.9 89.7 -10.2 Q87.75 -11.9 85.2 -11.3 82.1 -10.5 80.05 -8.2 75.3 -3.0 75.65 3.95 75.9 8.9 78.3 13.2 81.2 18.35 87.1 19.2 L88.65 19.3 Q94.0 18.45 97.0 13.45 98.25 11.35 99.1 8.9 L99.4 8.7 94.45 9.05 93.95 7.95 87.4 10.45 Q83.95 9.05 82.25 5.3 L81.75 3.95 M53.6 5.55 L50.35 14.15 53.7 16.0 55.8 6.75 53.6 5.55 M50.75 6.4 L49.65 11.65 51.8 6.9 50.75 6.4 M50.1 6.15 L50.55 4.15 Q49.6 2.4 49.2 3.8 L49.65 4.1 Q50.15 5.05 50.1 6.15 M48.85 5.35 L47.4 10.45 48.25 10.9 49.55 5.7 48.85 5.35 M44.0 4.35 Q44.95 4.35 45.6 5.25 46.25 6.15 46.25 7.45 46.25 8.75 45.6 9.65 44.95 10.55 44.0 10.55 43.05 10.55 42.4 9.65 41.75 8.75 41.75 7.45 41.75 6.15 42.4 5.25 43.05 4.35 44.0 4.35 M44.75 6.5 Q44.45 6.1 44.05 6.1 43.65 6.1 43.35 6.5 43.05 6.9 43.05 7.45 43.05 8.0 43.35 8.4 L44.05 8.8 Q44.45 8.8 44.75 8.4 L45.05 7.45 44.75 6.5 M49.75 7.55 Q49.05 9.25 48.6 11.05 48.35 11.85 47.45 12.0 L46.8 11.95 46.55 12.7 48.65 12.3 49.8 7.5 49.75 7.55 M43.4 29.6 L47.15 16.85 45.5 15.8 42.15 24.4 Q40.75 28.25 39.0 31.9 37.5 34.9 37.2 38.6 L36.7 41.5 Q34.3 49.6 26.55 52.45 L33.4 53.15 43.4 29.6 M48.45 12.9 L46.35 13.15 46.0 14.25 48.6 15.75 44.35 30.35 45.25 32.5 45.9 32.85 46.2 31.55 49.4 28.35 53.8 28.85 54.85 31.1 55.1 16.3 53.95 17.6 49.65 15.55 49.25 14.8 49.4 13.4 48.45 12.9 M54.2 33.1 L53.0 30.45 49.55 30.0 47.2 32.3 46.85 34.15 53.9 34.85 54.2 33.1 M54.0 36.65 L54.65 37.25 54.65 36.55 54.0 36.65 M52.3 33.3 L50.75 33.6 49.25 33.3 Q48.6 33.0 48.6 32.6 48.6 32.2 49.25 31.9 L50.75 31.6 52.3 31.9 Q52.9 32.2 52.9 32.6 52.9 33.0 52.3 33.3 M44.4 31.25 L44.2 30.85 44.35 32.5 41.3 40.2 40.55 40.2 Q40.4 40.6 40.5 41.0 L40.7 41.2 Q41.65 41.15 42.1 40.25 L43.5 36.9 Q45.0 34.15 44.4 31.25 M45.2 34.45 L44.95 34.2 42.9 39.5 44.45 40.3 45.15 36.8 45.75 36.8 46.0 35.6 45.4 35.6 45.2 34.45 M43.55 33.45 Q42.35 36.1 41.4 38.85 L43.75 33.7 43.55 33.45 M46.55 42.75 Q47.05 42.75 47.4 43.2 L47.7 44.2 47.4 45.25 Q47.05 45.65 46.55 45.65 46.05 45.65 45.75 45.25 45.4 44.8 45.4 44.2 45.4 43.6 45.75 43.2 46.05 42.75 46.55 42.75 M47.05 40.6 Q47.05 40.2 47.7 39.9 L49.15 39.6 50.65 39.9 Q51.25 40.2 51.25 40.6 51.25 41.0 50.65 41.3 L49.15 41.6 47.7 41.3 Q47.05 41.0 47.05 40.6 M49.3 49.1 L45.5 48.75 45.75 47.2 49.55 47.6 49.3 49.1 M49.4 45.55 Q49.05 45.15 49.05 44.55 49.05 43.95 49.4 43.55 49.7 43.15 50.15 43.15 50.6 43.15 50.95 43.55 L51.25 44.55 50.95 45.55 Q50.6 45.95 50.15 45.95 49.7 45.95 49.4 45.55 M43.85 48.9 L45.05 51.5 48.45 51.85 50.75 49.6 52.95 39.25 46.0 38.55 43.85 48.9 M54.3 44.95 L54.55 38.95 53.0 44.35 54.3 44.95 M33.1 1.05 L32.25 0.85 31.65 3.55 32.9 3.5 33.4 2.95 34.6 3.1 34.75 2.1 33.65 1.9 33.1 1.05 M31.55 4.25 L31.4 5.25 32.6 5.35 33.05 6.3 34.0 6.4 34.5 3.7 33.55 3.65 32.8 4.3 31.55 4.25 M31.25 5.85 L30.7 8.55 31.85 8.6 32.45 7.95 33.75 8.1 33.9 7.0 32.7 6.9 32.15 5.95 31.25 5.85 M30.5 10.75 L33.55 10.75 33.55 8.95 30.5 8.95 30.5 10.75 M20.45 3.65 Q20.15 4.05 20.15 4.6 20.15 5.15 20.45 5.55 20.75 5.95 21.15 5.95 L21.85 5.55 22.15 4.6 21.85 3.65 Q21.55 3.25 21.15 3.25 20.75 3.25 20.45 3.65 M23.35 4.6 Q23.35 5.95 22.7 6.9 22.05 7.8 21.15 7.8 20.25 7.8 19.6 6.9 18.95 5.95 18.95 4.6 18.95 3.25 19.6 2.35 20.25 1.4 21.15 1.4 22.05 1.4 22.7 2.35 23.35 3.25 23.35 4.6 M23.3 17.55 Q23.95 18.45 23.95 19.7 23.95 20.95 23.3 21.85 22.65 22.75 21.75 22.75 20.85 22.75 20.2 21.85 19.55 20.95 19.55 19.7 19.55 18.45 20.2 17.55 20.85 16.65 21.75 16.65 22.65 16.65 23.3 17.55 M22.45 18.8 L21.75 18.4 Q21.35 18.4 21.1 18.8 20.8 19.15 20.8 19.7 20.8 20.25 21.1 20.65 21.35 21.0 21.75 21.0 22.15 21.0 22.45 20.65 L22.7 19.7 22.45 18.8 M37.15 20.8 Q36.85 21.15 36.85 21.7 36.85 22.25 37.15 22.65 37.45 23.0 37.85 23.0 38.25 23.0 38.55 22.65 L38.85 21.7 38.55 20.8 Q38.25 20.4 37.85 20.4 37.45 20.4 37.15 20.8 M37.7 18.75 Q38.6 18.75 39.25 19.65 39.85 20.5 39.85 21.75 39.85 23.0 39.25 23.9 38.6 24.75 37.7 24.75 36.8 24.75 36.2 23.9 35.55 23.0 35.55 21.75 35.55 20.5 36.2 19.65 36.8 18.75 37.7 18.75 M27.1 23.9 Q22.4 24.75 19.75 28.85 16.05 34.7 16.6 41.75 17.05 48.1 22.8 50.6 L27.55 50.5 Q31.4 48.8 33.75 44.85 37.3 38.95 36.3 32.0 35.6 27.1 31.45 24.65 29.45 23.45 27.1 23.9 M16.15 2.0 L15.9 7.15 16.85 7.0 17.3 1.75 16.15 2.0 M13.25 0.5 L8.8 1.45 8.9 10.65 13.3 9.6 13.25 0.5 M7.8 8.8 L7.7 4.9 6.5 9.1 7.8 8.8 M14.85 13.05 Q14.05 22.55 13.75 32.15 13.45 41.6 13.6 51.15 L20.85 51.95 19.4 50.8 17.5 48.65 Q15.95 46.45 15.55 43.6 14.55 36.7 16.8 30.0 L17.0 28.5 Q16.55 20.5 16.5 12.55 L14.85 13.05 M11.6 28.85 L12.35 28.15 12.35 27.2 Q10.05 29.75 10.5 33.55 L11.1 37.2 11.55 38.05 12.05 37.15 11.4 37.05 11.45 35.5 12.05 35.45 12.1 29.8 11.6 30.0 11.6 28.85 M10.2 32.25 L9.5 36.05 10.3 35.85 10.2 32.25 M19.85 33.55 L26.3 33.8 26.45 35.7 Q27.45 33.85 29.8 33.4 L30.9 33.45 Q33.2 34.4 32.85 37.05 L34.5 39.8 33.45 41.85 31.05 41.75 29.75 42.55 29.15 42.8 Q26.0 42.55 25.95 39.25 L24.75 38.45 23.7 39.3 20.05 33.9 19.85 33.55 M9.75 25.6 L7.0 25.6 7.0 27.3 9.75 27.3 9.75 25.6 M5.1 26.95 L6.75 26.95 6.75 25.4 5.1 25.4 5.1 26.95 M6.55 28.65 Q7.35 28.65 7.95 29.45 8.5 30.2 8.5 31.3 8.5 32.4 7.95 33.2 7.35 33.95 6.55 33.95 5.75 33.95 5.2 33.2 4.6 32.4 4.6 31.3 4.6 30.2 5.2 29.45 5.75 28.65 6.55 28.65 M6.55 29.85 Q6.1 29.85 5.8 30.25 5.45 30.65 5.45 31.25 5.45 31.85 5.8 32.25 6.1 32.65 6.55 32.65 7.0 32.65 7.35 32.25 L7.65 31.25 7.35 30.25 Q7.0 29.85 6.55 29.85 M3.4 26.7 L4.4 26.5 4.8 25.9 Q4.8 25.55 4.4 25.35 L3.4 25.1 2.4 25.35 Q2.0 25.55 2.0 25.9 L2.4 26.5 3.4 26.7 M2.15 29.9 Q2.15 29.3 2.4 28.9 2.6 28.45 2.95 28.45 3.3 28.45 3.55 28.9 L3.75 29.9 3.55 30.95 2.95 31.35 Q2.6 31.35 2.4 30.95 2.15 30.5 2.15 29.9 M2.25 32.7 L2.85 33.15 3.05 34.15 2.85 35.2 2.25 35.6 Q1.9 35.6 1.7 35.2 1.45 34.75 1.45 34.15 1.45 33.55 1.7 33.15 1.9 32.7 2.25 32.7 M6.9 36.05 Q7.45 36.8 7.45 37.85 7.45 38.9 6.9 39.65 6.35 40.4 5.55 40.4 4.75 40.4 4.2 39.65 3.65 38.9 3.65 37.85 3.65 36.8 4.2 36.05 4.75 35.3 5.55 35.3 6.35 35.3 6.9 36.05 M2.0 27.2 L-1.55 49.5 5.65 50.3 9.7 28.1 2.0 27.2 M2.4 38.3 L2.2 39.35 1.6 39.75 Q1.25 39.75 1.05 39.35 L0.8 38.3 Q0.8 37.7 1.05 37.3 1.25 36.85 1.6 36.85 1.95 36.85 2.2 37.3 L2.4 38.3 M4.3 48.55 L-0.05 47.75 0.35 46.9 4.65 47.95 4.3 48.55 M0.95 43.75 L5.25 44.7 5.3 44.8 0.6 44.85 Q0.0 43.95 0.95 43.75 M27.9 35.55 L27.25 36.8 31.45 39.05 32.0 36.45 Q31.35 33.6 28.75 34.85 28.25 35.05 27.9 35.55 M26.2 36.9 L25.75 37.5 26.2 37.85 26.4 36.95 26.2 36.9 M25.35 34.9 L21.35 34.3 24.05 37.75 25.1 37.15 25.45 36.4 25.35 34.9 M30.05 41.35 L30.35 41.2 27.0 38.95 Q26.95 41.9 30.05 41.35 M29.4 39.7 Q31.05 40.7 32.95 40.85 L33.65 40.0 Q29.75 39.75 26.7 37.25 25.9 38.4 27.5 38.85 28.5 39.1 29.4 39.7 M32.35 38.45 L33.1 39.65 Q34.1 39.25 32.35 38.3 L32.35 38.45 M43.25 74.25 L42.45 71.05 16.2 69.0 16.55 72.4 16.75 75.9 Q16.95 82.05 14.85 87.9 L14.35 89.2 10.3 94.8 34.15 96.6 35.85 95.7 37.35 94.7 40.0 92.5 43.8 81.5 43.9 80.55 Q43.95 78.5 43.6 76.4 L43.25 74.25 M15.65 72.35 L15.05 68.85 7.8 68.4 8.35 71.85 8.65 79.45 7.65 84.45 6.2 87.8 Q4.65 90.6 2.2 92.55 L0.45 93.85 -2.0 95.25 3.6 96.4 Q5.95 97.1 7.8 95.2 L12.7 90.05 13.4 88.75 14.65 85.5 15.75 80.0 15.65 72.35 M7.3 71.75 L6.5 68.2 -11.55 66.8 -16.8 63.5 -16.05 68.85 -16.0 71.95 Q-16.1 78.55 -19.8 83.75 L-20.55 84.75 -27.5 90.75 -1.1 93.55 1.0 92.3 4.95 88.0 Q8.05 82.4 7.6 75.95 L7.6 75.25 7.3 71.75 M9.5 95.65 L6.55 97.2 Q2.35 109.75 -10.3 112.75 L-14.95 113.2 -16.95 114.7 -0.75 119.75 Q9.2 121.5 17.4 115.9 23.8 111.5 27.45 104.7 29.2 101.35 30.35 98.0 L9.5 95.65 M-9.6 57.7 L-11.0 65.75 46.95 70.45 48.05 62.45 48.7 57.9 -8.65 52.65 -9.6 57.7 M-8.15 105.3 L-13.85 112.15 Q-5.2 112.25 0.35 105.75 3.55 102.05 5.35 97.55 L-2.95 96.1 -8.15 105.3 M-36.4 -144.3 L-37.85 -145.0 -39.1 -143.9 -51.7 -132.05 Q-52.95 -130.85 -53.15 -129.4 -53.3 -128.45 -53.1 -127.45 L-51.8 -124.25 Q-48.65 -128.0 -44.85 -131.1 L-43.45 -131.95 Q-39.95 -132.45 -36.6 -130.85 -32.6 -128.85 -29.65 -125.5 L-27.25 -122.85 -32.05 -135.6 Q-33.0 -140.3 -35.8 -143.9 L-36.4 -144.3 M-43.25 -113.7 Q-47.95 -118.7 -48.3 -125.5 L-48.25 -126.45 Q-50.5 -125.0 -51.9 -122.4 L-52.15 -122.0 Q-54.45 -120.8 -56.2 -119.35 L-53.65 -122.2 -53.1 -122.8 -63.9 -123.45 -64.05 -123.25 -64.25 -122.9 Q-66.95 -118.85 -67.4 -114.25 L-65.25 -115.75 Q-63.05 -116.85 -60.75 -116.5 L-59.25 -116.3 -59.95 -115.35 Q-64.6 -116.3 -66.7 -112.3 -67.35 -111.05 -67.6 -109.6 L-67.65 -109.4 Q-67.05 -99.4 -59.55 -92.5 -56.6 -89.8 -53.0 -87.75 -47.45 -84.7 -41.6 -86.1 -38.8 -86.65 -37.45 -89.0 -37.1 -89.7 -37.05 -90.45 -36.9 -92.55 -37.55 -94.6 -39.15 -92.25 -41.45 -90.45 -43.1 -89.1 -45.15 -89.2 -53.9 -90.45 -59.3 -97.8 L-62.25 -102.6 Q-64.55 -106.95 -62.45 -111.45 -61.6 -113.2 -60.35 -114.75 -62.0 -112.1 -62.5 -108.95 L-62.15 -105.8 -58.15 -98.15 Q-53.8 -92.5 -47.15 -90.65 L-46.2 -90.35 -42.4 -90.85 -29.05 -105.85 -32.15 -106.2 Q-38.2 -107.75 -42.35 -112.55 L-43.25 -113.7 M-76.4 -105.1 Q-80.25 -105.85 -82.95 -103.25 -84.95 -99.45 -83.75 -94.9 -80.3 -81.95 -69.75 -73.55 -65.45 -70.15 -60.5 -68.65 -57.35 -67.5 -54.05 -67.75 -49.55 -69.05 -47.5 -72.8 -46.55 -74.45 -46.95 -76.5 L-47.25 -78.2 -52.05 -73.45 Q-60.25 -72.25 -67.1 -77.5 -70.9 -80.4 -73.95 -84.1 -77.1 -88.0 -78.95 -92.6 -80.6 -96.8 -80.25 -101.3 L-76.4 -105.1 M-68.0 -102.85 L-69.0 -106.45 -68.6 -111.5 -77.7 -101.95 Q-79.65 -99.75 -78.7 -97.05 L-77.75 -93.4 -72.9 -85.15 Q-67.3 -78.0 -58.65 -75.1 L-57.75 -74.9 -56.85 -74.4 Q-54.8 -74.65 -53.2 -75.65 -47.3 -79.6 -41.85 -84.25 L-46.6 -84.3 Q-54.85 -85.75 -60.6 -91.9 L-63.3 -94.85 -68.0 -102.85 M-83.65 -89.1 L-85.4 -94.45 -85.9 -99.8 -108.3 -73.6 -110.3 -70.7 -110.7 -69.8 Q-111.25 -67.7 -110.85 -65.55 L-109.85 -61.9 -106.55 -55.6 Q-100.85 -47.1 -91.45 -42.9 -88.65 -41.7 -85.65 -41.05 L-81.15 -41.3 -80.2 -41.5 -73.45 -48.15 -53.9 -66.05 -58.4 -66.3 Q-67.2 -68.2 -73.65 -74.9 -77.05 -78.35 -79.8 -82.25 L-83.65 -89.1 M-77.8 -42.3 L-80.1 -39.85 Q-86.85 -38.5 -92.95 -41.8 -103.0 -47.1 -109.15 -56.7 -112.8 -62.4 -112.1 -68.9 -111.95 -70.15 -111.3 -71.35 L-110.6 -72.55 Q-114.65 -70.4 -114.8 -65.95 L-114.65 -64.35 Q-113.1 -56.35 -108.0 -49.75 -101.35 -41.15 -90.95 -37.6 L-86.55 -36.3 -82.85 -36.55 Q-78.25 -37.45 -77.4 -41.65 L-77.6 -42.35 -77.8 -42.3 M-114.25 -56.85 L-116.0 -61.65 -116.7 -65.25 Q-118.3 -63.9 -118.75 -61.5 L-118.85 -59.95 -118.75 -58.85 -117.2 -53.65 -115.65 -50.5 Q-110.6 -41.9 -102.45 -36.0 -97.7 -32.55 -91.8 -31.4 L-88.05 -31.65 Q-85.95 -32.6 -84.05 -34.05 L-83.9 -34.25 -88.95 -34.8 Q-95.7 -36.3 -101.05 -41.0 L-109.35 -48.9 -110.8 -50.75 -112.5 -53.6 -114.25 -56.85 M-119.7 -56.25 L-119.95 -57.2 -124.0 -50.35 -123.2 -47.55 Q-119.7 -38.1 -111.7 -32.15 -105.55 -27.55 -98.1 -26.35 L-93.85 -30.5 Q-101.75 -33.15 -107.95 -38.8 -114.6 -44.8 -118.45 -52.8 L-119.7 -56.25 M-94.65 -41.95 L-94.65 -41.8 Q-95.15 -42.35 -94.65 -41.95 M-79.15 -32.0 L-83.05 -33.6 -88.25 -29.45 -91.75 -30.0 -89.8 -21.4 -80.25 20.55 -71.4 24.85 Q-66.5 26.7 -62.6 29.65 -61.9 30.2 -60.7 30.2 L-59.25 30.25 -64.0 24.2 -49.75 -9.7 Q-48.85 -11.9 -46.85 -13.2 L-44.7 -14.85 -46.0 -16.95 -48.9 -18.65 -79.15 -32.0 M-34.65 -56.3 L-32.0 -55.65 -31.2 -59.95 Q-29.15 -61.75 -26.25 -61.75 -16.7 -61.85 -8.65 -56.55 L-7.55 -55.65 -8.4 -50.05 -5.8 -49.45 -4.6 -74.5 -9.6 -75.25 -40.15 -79.85 -44.6 -80.55 -46.2 -79.25 Q-45.85 -76.5 -46.2 -73.7 -46.65 -70.4 -49.3 -68.35 L-54.95 -63.65 -56.85 -61.7 -50.8 -60.25 -34.65 -56.3 M-16.8 -89.95 L-23.2 -91.15 -25.7 -78.65 -18.7 -77.6 -16.8 -89.95 M-24.7 -89.55 L-24.5 -90.65 -31.5 -85.65 -32.6 -79.7 -31.45 -79.5 -26.75 -78.8 -24.7 -89.55 M-32.45 -85.9 L-36.75 -87.3 -43.6 -81.3 -33.65 -79.75 -32.45 -85.9 M-32.9 -49.95 L-32.2 -54.5 -51.65 -59.35 -57.8 -60.8 -71.8 -47.8 -37.8 -36.05 -37.5 -37.15 -36.15 -42.95 Q-33.95 -44.65 -30.95 -44.1 L-26.8 -43.65 -25.75 -43.45 -18.0 -41.25 Q-14.4 -40.05 -12.7 -37.0 L-15.05 -27.3 -13.15 -27.55 -8.55 -35.8 7.95 -33.7 -5.7 -42.85 -5.8 -48.4 -8.65 -49.0 -9.6 -44.65 Q-12.15 -43.35 -15.4 -43.65 -25.35 -44.05 -32.9 -49.95 M-27.4 -56.25 L-30.55 -58.25 -32.1 -50.65 -29.25 -48.25 Q-20.65 -43.85 -11.3 -44.95 L-10.7 -45.15 -8.55 -53.75 Q-16.85 -52.05 -24.9 -55.3 L-27.4 -56.25 M-23.05 -60.45 L-23.25 -60.5 -29.2 -60.2 -30.25 -59.55 Q-27.3 -56.15 -22.55 -55.4 -15.65 -53.05 -8.65 -54.8 L-8.5 -54.95 Q-9.55 -56.9 -12.0 -57.8 -17.35 -59.85 -23.05 -60.45 M-44.35 -19.0 L-44.95 -16.8 -43.7 -15.45 -24.55 -24.35 -33.0 -26.3 Q-37.75 -27.5 -40.35 -31.4 L-40.9 -32.3 -44.35 -19.0 M-45.0 -20.8 L-81.05 -34.25 -45.65 -18.3 -45.0 -20.8 M-33.9 -30.55 Q-26.05 -26.15 -17.2 -26.9 L-16.1 -27.3 -13.95 -35.5 Q-21.35 -34.25 -28.45 -37.15 L-30.55 -37.95 -31.95 -38.6 -35.65 -41.15 -37.55 -33.45 -33.9 -30.55 M-26.25 -37.4 Q-20.6 -35.45 -14.7 -36.3 L-14.1 -36.5 Q-13.4 -37.55 -14.95 -38.5 -20.0 -41.35 -25.6 -42.55 -30.35 -44.0 -35.1 -42.55 L-35.3 -42.35 Q-31.65 -38.45 -26.25 -37.4 M-33.75 -29.35 L-38.4 -33.15 -38.05 -35.1 -39.8 -34.45 -40.05 -33.25 Q-37.9 -28.75 -33.15 -27.4 -27.9 -25.75 -22.3 -25.15 L-20.6 -25.75 Q-27.5 -26.45 -33.75 -29.35 M-10.65 57.45 L-9.8 52.55 -43.2 37.7 -38.45 44.7 Q-36.95 46.75 -36.65 49.15 L-28.95 49.95 Q-22.55 52.95 -18.4 58.85 L-18.1 59.1 -16.1 62.9 -12.0 65.0 -10.65 57.45 M-39.8 46.25 L-37.95 48.7 Q-37.9 47.95 -38.6 46.65 L-40.35 43.9 -43.95 39.75 -45.15 40.35 Q-51.75 42.1 -57.65 39.15 L-58.7 38.5 -61.25 36.1 -59.95 32.05 -59.7 31.3 Q-65.05 30.45 -68.3 34.55 -69.6 36.25 -69.85 38.2 -70.7 44.35 -68.35 49.9 L-64.6 58.0 Q-63.35 52.6 -60.55 47.65 -59.35 45.45 -57.1 44.2 L-55.1 43.45 -47.55 42.95 -43.9 43.9 -42.3 44.55 -39.8 46.25 M-1.15 38.7 L-0.25 33.2 -2.35 39.05 -1.15 38.7 M-84.0 61.2 Q-74.65 64.6 -67.75 57.35 L-66.7 56.25 Q-69.85 49.55 -70.95 42.25 -71.4 39.35 -70.6 36.55 -69.3 31.85 -64.45 30.5 -67.65 26.55 -72.65 26.15 L-74.35 26.1 Q-84.9 27.85 -89.6 37.65 -94.25 47.4 -89.0 56.55 -87.2 59.6 -84.0 61.2 M-45.4 39.35 L-44.7 39.15 -43.8 36.4 -43.75 35.9 -43.85 35.85 -45.25 35.7 -51.2 34.35 -58.25 30.95 -60.2 35.8 Q-57.15 39.25 -52.65 39.8 -50.2 40.15 -47.45 39.85 L-45.4 39.35 M-53.7 47.9 Q-48.2 46.35 -43.85 49.95 -42.4 51.15 -42.35 53.0 -42.2 59.35 -46.3 64.2 -47.55 65.7 -49.45 66.1 -43.25 65.65 -40.6 59.45 -39.3 56.35 -38.45 52.95 -37.5 49.25 -40.5 46.9 -44.4 43.85 -49.45 43.8 -56.1 43.05 -59.8 48.45 L-61.35 51.15 Q-63.05 54.75 -63.3 58.75 L-63.15 60.15 Q-60.7 53.2 -55.3 48.6 -54.6 48.05 -53.7 47.9 M-92.35 56.8 L-90.15 57.2 -91.65 52.85 Q-94.1 44.35 -89.95 36.35 -85.15 27.05 -74.9 25.15 L-79.7 21.7 Q-84.95 20.0 -89.95 22.6 -96.25 25.8 -99.45 32.1 -104.1 41.15 -99.9 50.3 -97.6 55.3 -92.35 56.8 M-48.95 58.95 Q-52.1 53.85 -58.2 53.8 L-56.9 55.85 -52.1 65.3 -47.3 63.8 Q-48.05 62.85 -48.35 60.7 -48.45 59.75 -48.95 58.95 M-59.1 54.2 L-62.9 61.45 -63.45 61.3 -64.35 60.25 -66.0 57.4 Q-70.3 61.7 -76.05 63.25 -80.0 64.2 -83.55 62.5 L-84.35 68.7 -60.1 79.7 -56.55 59.1 -59.1 54.2 M-50.1 67.15 L-52.95 66.05 -55.7 60.55 -59.25 80.45 Q-55.85 80.5 -53.05 79.1 L-51.95 78.6 -49.8 77.15 Q-50.95 73.95 -50.75 70.65 L-50.6 69.35 -50.1 67.15 M-29.05 50.95 L-29.95 50.6 -32.6 50.0 -36.75 50.2 Q-38.05 58.3 -43.3 64.55 -44.8 66.3 -46.95 66.75 -48.4 67.05 -49.2 67.55 -50.55 71.85 -49.2 76.15 L-48.8 77.35 Q-51.1 80.3 -54.8 81.05 -63.55 82.7 -71.35 78.2 L-78.35 112.1 -66.75 120.45 -63.25 107.5 -62.55 106.8 Q-57.4 110.05 -51.2 110.6 -46.15 111.0 -41.95 108.45 -34.8 104.2 -31.8 96.65 L-30.7 94.35 Q-29.8 92.75 -29.95 90.9 L-29.3 90.2 -29.25 90.2 Q-20.3 86.3 -17.85 76.65 -16.15 70.15 -17.6 63.45 -18.25 60.45 -20.15 58.0 -23.8 53.4 -29.05 50.95 M-28.8 91.6 Q-31.3 100.9 -38.6 107.4 -42.3 110.75 -47.3 111.4 -52.95 112.25 -58.3 110.1 -49.25 115.3 -38.95 117.2 L-33.7 118.25 Q-23.45 119.25 -15.8 112.45 -8.65 106.15 -4.95 97.5 L-3.55 94.35 -28.8 91.6 M-17.3 125.95 L-11.5 126.7 -8.5 118.75 -18.35 115.65 -20.0 116.45 -21.6 117.2 -24.8 118.2 -31.05 119.35 -32.35 124.0 -17.3 125.95 M-39.8 120.2 L-33.4 123.55 -32.1 119.45 -38.95 118.15 -39.8 120.2 M-62.4 109.05 L-62.45 109.2 -65.8 120.9 -48.0 124.4 -42.9 125.4 -40.05 117.95 Q-46.0 116.55 -51.9 114.25 -57.15 112.2 -61.85 109.2 L-62.35 108.9 -62.4 109.05" fill="#000000" fill-rule="evenodd" stroke="none"/>
    <path d="M19.85 -162.55 L20.65 -162.65 26.85 -161.75 Q35.95 -160.55 44.55 -158.35 L45.5 -157.95 Q46.45 -157.65 47.35 -156.8 48.4 -155.7 48.45 -153.95 L50.25 -105.75 Q41.95 -108.85 33.2 -108.6 L32.6 -109.15 33.0 -109.2 Q33.8 -117.45 33.3 -125.5 32.7 -134.45 30.15 -143.1 27.4 -152.35 21.75 -160.05 L19.85 -162.55 M-14.95 -168.05 L-14.1 -169.05 -13.05 -169.05 -6.05 -168.1 Q4.1 -166.6 14.4 -163.7 L14.8 -163.5 14.85 -163.45 14.95 -163.3 16.2 -160.55 Q16.75 -158.5 16.75 -156.25 16.7 -148.45 16.8 -140.55 L16.9 -136.2 17.3 -112.45 0.7 -115.9 Q1.75 -124.9 0.65 -133.85 -0.4 -142.4 -3.7 -150.25 -7.15 -158.4 -12.6 -165.2 L-14.95 -168.05 M30.1 -108.7 L30.9 -108.55 29.15 -108.35 30.1 -108.7 M-24.55 -118.8 L-31.35 -136.35 -16.35 -151.85 -16.95 -122.6 -24.55 -118.8" fill="#d19700" fill-rule="evenodd" stroke="none"/>
    <path d="M20.8 -105.05 Q29.05 -103.3 36.3 -98.95 41.8 -95.75 45.6 -90.5 51.5 -82.25 49.5 -72.35 40.15 -74.45 30.9 -77.3 L23.25 -80.1 Q14.35 -83.75 4.8 -84.15 0.3 -84.2 -1.35 -80.25 L-1.4 -80.2 -1.4 -80.15 Q-2.55 -72.4 0.25 -65.15 1.85 -61.0 4.7 -57.6 11.05 -50.2 18.6 -44.35 26.05 -38.55 34.3 -34.25 27.6 -28.6 18.45 -29.2 L17.05 -29.35 -4.85 -43.45 -4.65 -60.05 Q-4.35 -69.15 -3.15 -77.95 -2.55 -82.15 -1.05 -85.95 1.55 -92.25 7.15 -96.6 L8.9 -97.8 20.8 -105.05 M72.45 -68.8 Q72.25 -74.7 70.95 -80.55 69.15 -88.85 63.6 -95.45 66.25 -93.05 67.95 -89.85 73.3 -79.85 73.0 -68.8 L72.45 -68.8 M-34.45 -144.9 Q-34.7 -147.85 -32.65 -150.0 L-16.3 -167.0 -16.1 -166.25 -16.15 -164.8 -34.45 -144.9 M48.15 -53.5 L48.4 -53.5 48.3 -53.5 48.15 -53.5 M74.2 -69.65 L74.05 -69.05 74.05 -69.1 74.2 -69.65 M61.95 -26.5 L62.75 -26.3 58.3 -19.95 56.7 -19.5 61.95 -26.5 M17.7 -23.65 L17.9 -20.2 Q17.1 -19.95 17.0 -18.9 16.6 -15.8 16.75 -12.6 L17.1 -11.55 18.35 -11.65 18.6 -5.55 17.65 -1.4 14.75 0.55 14.0 -0.85 Q13.4 -1.3 12.7 -1.1 L12.0 -0.95 11.15 -0.7 10.2 -0.45 9.05 -0.05 Q7.7 0.4 7.7 1.9 L7.2 2.15 4.65 11.15 7.7 10.55 8.45 12.15 14.0 10.75 14.95 9.2 16.7 9.95 16.7 10.8 13.85 11.6 12.45 26.8 11.0 27.95 10.5 24.5 Q6.3 23.2 2.05 23.7 L0.0 31.45 -1.55 31.9 -3.9 41.05 -1.5 40.45 -2.65 48.8 Q-2.8 50.05 -2.1 51.1 L6.0 51.8 Q7.0 50.75 7.2 49.4 L9.25 37.7 10.35 37.4 12.05 38.55 12.65 52.7 33.8 54.8 40.05 41.4 41.35 41.5 42.1 40.95 44.1 41.9 42.55 49.5 44.3 53.0 48.6 53.4 50.25 51.95 50.85 51.4 51.3 50.9 51.5 50.5 Q52.4 48.25 52.65 45.95 L54.3 46.85 53.95 57.4 -9.6 51.5 14.85 -24.1 17.7 -23.65 M3.35 -17.7 Q2.1 -19.4 0.2 -20.1 -2.0 -20.8 -3.8 -18.85 -6.6 -15.65 -9.75 -12.75 -16.45 -6.35 -24.75 -2.0 -26.7 -1.0 -28.8 -0.45 -34.85 1.0 -38.8 5.8 -42.3 10.05 -44.1 15.4 -47.05 24.4 -48.55 34.1 -52.2 33.3 -55.4 31.45 -60.3 28.75 -62.95 24.05 -56.25 7.95 -49.85 -8.25 -48.95 -10.45 -47.05 -12.0 L-41.4 -15.85 Q-36.05 -18.9 -30.4 -21.3 -21.2 -25.35 -11.45 -26.65 -9.25 -26.8 -7.1 -26.6 0.75 -25.3 3.35 -17.7 M-2.3 2.75 Q0.0 1.15 1.6 -1.35 4.45 -5.8 5.0 -11.05 5.55 -16.25 3.25 -20.65 0.55 -25.75 -5.05 -27.15 L-7.2 -27.55 -9.45 -27.7 -11.95 -27.65 -8.05 -34.45 13.6 -23.85 -10.65 51.45 -27.55 43.45 -29.95 42.25 -28.4 42.95 Q-26.55 31.2 -19.55 21.15 -17.15 17.65 -13.75 15.25 -12.65 14.5 -11.35 14.0 -6.35 12.25 -2.85 8.25 -1.7 6.95 -1.65 5.25 -1.6 3.95 -2.3 2.75 M22.9 -21.35 L22.9 -23.05 30.95 -18.9 29.0 -2.5 27.95 -8.75 23.3 -11.55 23.25 -12.8 23.75 -13.7 Q24.7 -16.6 24.35 -19.8 24.25 -20.7 23.5 -21.25 L22.9 -21.35 M56.2 -12.95 L55.8 -14.95 56.55 -16.75 56.4 -12.85 56.2 -12.95 56.35 -10.7 55.8 5.0 53.3 4.1 52.4 5.25 51.05 4.6 49.6 2.1 49.9 -1.5 52.3 -7.1 53.4 -6.85 56.2 -12.95 M57.35 -6.55 L64.65 -2.7 64.6 -0.55 77.2 -6.3 72.55 -6.3 81.4 -10.7 Q77.55 -7.95 76.0 -3.65 72.55 6.2 78.15 14.85 71.5 16.85 64.65 16.95 62.1 17.0 60.25 15.4 58.35 13.75 56.75 11.6 L57.35 -6.55 M70.75 -6.3 L57.55 -12.3 57.6 -13.85 71.5 -6.85 70.75 -6.3 M98.25 7.7 Q95.3 3.3 95.3 -2.5 L95.2 -15.7 106.15 -16.75 Q107.1 -12.0 107.3 -7.35 107.55 -1.6 105.15 3.6 103.2 7.85 98.25 7.7 M82.6 0.15 L83.4 -2.25 Q83.75 -3.15 84.45 -3.8 87.0 -5.95 89.85 -7.8 L91.0 -2.35 82.6 0.15 M93.1 5.4 L93.6 7.0 87.25 9.45 93.25 6.15 93.1 5.4 M48.45 12.9 L49.4 13.4 49.25 14.8 49.65 15.55 53.95 17.6 55.1 16.3 54.85 31.1 53.8 28.85 49.4 28.35 46.2 31.55 45.9 32.85 45.25 32.5 44.35 30.35 48.6 15.75 46.0 14.25 46.35 13.15 48.45 12.9 M54.0 36.65 L54.65 36.55 54.65 37.25 54.0 36.65 M43.55 33.45 L43.75 33.7 41.4 38.85 Q42.35 36.1 43.55 33.45 M25.35 34.9 L25.45 36.4 25.1 37.15 24.05 37.75 21.35 34.3 25.35 34.9 M26.2 36.9 L26.4 36.95 26.2 37.85 25.75 37.5 26.2 36.9 M32.35 38.45 L32.35 38.3 Q34.1 39.25 33.1 39.65 L32.35 38.45 M29.4 39.7 Q28.5 39.1 27.5 38.85 25.9 38.4 26.7 37.25 29.75 39.75 33.65 40.0 L32.95 40.85 Q31.05 40.7 29.4 39.7 M43.6 76.4 Q43.95 78.5 43.9 80.55 L43.8 81.5 40.0 92.5 14.35 89.2 14.85 87.9 Q16.95 82.05 16.75 75.9 L43.1 77.7 43.6 76.4 M8.65 79.45 L15.75 80.0 14.65 85.5 7.65 84.45 8.65 79.45 M7.6 75.25 L7.6 75.95 Q8.05 82.4 4.95 88.0 L-20.55 84.75 -19.8 83.75 Q-16.1 78.55 -16.0 71.95 -14.35 72.9 -12.55 73.2 L7.6 75.25 M-0.75 119.75 L-16.95 114.7 -14.95 113.2 -10.3 112.75 Q2.35 109.75 6.55 97.2 L9.5 95.65 11.8 100.7 Q13.75 105.15 13.15 109.85 12.75 113.3 10.15 115.5 5.4 119.4 -0.75 119.75 M48.05 62.45 L46.95 70.45 -11.0 65.75 -9.6 57.7 48.05 62.45 M-53.1 -127.45 Q-53.3 -128.45 -53.15 -129.4 -52.95 -130.85 -51.7 -132.05 L-39.1 -143.9 -37.85 -145.0 -36.4 -144.3 -53.1 -127.45 M-53.65 -122.2 L-63.65 -122.45 -65.25 -115.75 -67.4 -114.25 Q-66.95 -118.85 -64.25 -122.9 L-64.05 -123.25 -63.9 -123.45 -53.1 -122.8 -53.65 -122.2 M-62.5 -108.95 L-48.45 -123.3 -47.75 -121.15 -62.15 -105.8 -62.5 -108.95 M-69.0 -106.45 L-68.0 -102.85 -77.75 -93.4 -78.7 -97.05 -69.0 -106.45 M-85.4 -94.45 L-83.65 -89.1 -109.85 -61.9 -110.85 -65.55 -85.4 -94.45 M-116.0 -61.65 L-114.25 -56.85 -117.2 -53.65 -118.75 -58.85 -116.0 -61.65 M-124.0 -50.35 L-119.7 -56.25 -118.45 -52.8 -123.2 -47.55 -124.0 -50.35 M-43.95 39.75 L-40.35 43.9 -38.6 46.65 Q-37.9 47.95 -37.95 48.7 L-39.8 46.25 -43.95 39.75 M-57.1 44.2 Q-59.35 45.45 -60.55 47.65 -63.35 52.6 -64.6 58.0 L-68.35 49.9 Q-70.7 44.35 -69.85 38.2 -69.6 36.25 -68.3 34.55 -65.05 30.45 -59.7 31.3 L-59.95 32.05 -61.2 32.0 -62.25 32.05 -63.0 32.55 Q-63.35 32.7 -63.65 33.0 L-63.6 33.5 Q-61.45 39.5 -57.1 44.2 M-45.4 39.35 L-44.6 35.85 -45.25 35.7 -43.85 35.85 -43.8 36.4 -44.7 39.15 -45.4 39.35 M-51.2 34.35 L-52.65 39.8 Q-57.15 39.25 -60.2 35.8 L-58.25 30.95 -51.2 34.35 M-49.2 67.55 Q-46.0 68.4 -42.8 68.3 -39.25 68.2 -36.25 66.3 L-33.85 64.15 Q-29.15 58.45 -29.05 50.95 -23.8 53.4 -20.15 58.0 -18.25 60.45 -17.6 63.45 -16.15 70.15 -17.85 76.65 -20.3 86.3 -29.25 90.2 L-29.3 90.2 -29.95 90.9 Q-29.8 92.75 -30.7 94.35 L-31.8 96.65 Q-34.8 104.2 -41.95 108.45 -46.15 111.0 -51.2 110.6 -57.4 110.05 -62.55 106.8 L-63.25 107.5 -66.75 120.45 -78.35 112.1 -71.35 78.2 Q-63.55 82.7 -54.8 81.05 -51.1 80.3 -48.8 77.35 L-49.2 76.15 Q-50.55 71.85 -49.2 67.55 M-28.8 91.6 Q-26.2 94.5 -24.15 98.0 -22.2 101.45 -22.3 105.55 -22.35 109.65 -25.15 112.5 -28.9 116.4 -33.7 118.25 L-38.95 117.2 Q-49.25 115.3 -58.3 110.1 -52.95 112.25 -47.3 111.4 -42.3 110.75 -38.6 107.4 -31.3 100.9 -28.8 91.6 M-31.05 119.35 L-28.2 119.85 Q-21.7 121.3 -17.3 125.95 L-32.35 124.0 -31.05 119.35 M-61.85 109.2 L-62.4 109.05 -62.35 108.9 -61.85 109.2 M-62.45 109.2 Q-57.9 111.95 -53.6 115.4 -49.1 119.05 -48.0 124.4 L-65.8 120.9 -62.45 109.2" fill="#ffffff" fill-rule="evenodd" stroke="none"/>
    <path d="M44.65 73.7 Q44.55 73.2 44.7 72.8 44.85 72.45 45.1 72.65 L44.65 73.7 M-0.55 -107.95 Q-1.6 -99.15 -8.95 -93.9 L-5.3 -93.2 -35.05 -97.4 -25.95 -106.9 -24.4 -108.75 Q-23.15 -110.55 -23.1 -112.85 L-23.0 -112.85 -22.3 -112.15 -0.55 -107.95 M20.8 -105.05 L23.8 -106.1 Q31.35 -108.5 39.05 -107.3 L49.95 -104.85 Q55.65 -102.8 60.1 -98.75 L63.6 -95.45 Q69.15 -88.85 70.95 -80.55 72.25 -74.7 72.45 -68.8 L67.7 -69.1 Q58.45 -70.15 49.5 -72.35 51.5 -82.25 45.6 -90.5 41.8 -95.75 36.3 -98.95 29.05 -103.3 20.8 -105.05 M70.9 -91.35 L74.45 -90.75 70.15 -87.45 67.35 -92.65 70.9 -91.35 M55.55 -110.8 L55.8 -105.85 57.6 -102.65 56.9 -102.9 57.05 -102.5 51.35 -105.7 55.55 -110.8 M34.3 -34.25 Q38.6 -31.95 43.1 -30.4 52.3 -27.15 61.95 -26.5 L56.7 -19.5 Q54.8 -18.8 52.75 -18.8 43.6 -18.35 34.8 -21.0 25.35 -23.9 17.05 -29.35 L18.45 -29.2 Q27.6 -28.6 34.3 -34.25 M6.75 -32.85 L7.6 -31.55 Q11.25 -26.75 17.1 -24.8 L13.85 -24.9 -5.6 -34.45 6.75 -32.85 M19.2 -20.4 L19.1 -21.6 21.65 -21.1 19.2 -20.4 M-48.55 34.1 Q-47.05 24.4 -44.1 15.4 -42.3 10.05 -38.8 5.8 -34.85 1.0 -28.8 -0.45 -26.7 -1.0 -24.75 -2.0 -16.45 -6.35 -9.75 -12.75 -6.6 -15.65 -3.8 -18.85 -2.0 -20.8 0.2 -20.1 2.1 -19.4 3.35 -17.7 3.85 -15.95 3.95 -14.35 4.15 -11.1 3.45 -7.95 1.6 0.5 -6.25 3.6 L-15.5 5.75 -27.15 7.65 -28.45 7.85 Q-31.3 8.5 -34.0 9.95 L-26.8 8.55 -36.4 34.55 -48.55 34.1 M-2.3 2.75 Q-1.6 3.95 -1.65 5.25 -1.7 6.95 -2.85 8.25 -6.35 12.25 -11.35 14.0 -12.65 14.5 -13.75 15.25 -17.15 17.65 -19.55 21.15 -26.55 31.2 -28.4 42.95 L-29.95 42.25 -40.45 37.35 -35.5 37.15 Q-30.75 29.85 -28.4 21.2 -27.0 16.1 -23.8 12.05 -23.0 11.0 -21.8 10.4 -15.8 7.3 -8.85 6.55 -5.25 5.95 -3.0 3.2 L-2.3 2.75 M19.8 -6.05 L19.55 -12.0 22.05 -12.5 22.3 -6.5 19.8 -6.05 M17.55 -0.95 L17.45 -0.1 16.45 0.25 Q14.7 4.5 15.95 8.55 L16.75 8.55 16.75 9.5 16.15 9.5 Q15.25 9.1 15.2 7.95 L15.0 3.3 Q14.8 0.05 17.55 -0.95 M18.85 -2.15 L18.0 -2.0 18.4 -4.05 Q18.9 -5.65 20.65 -5.9 21.9 -5.9 22.95 -5.35 24.15 -4.75 24.05 -3.35 L23.15 -3.1 22.85 -4.45 19.05 -3.8 18.85 -2.15 M20.0 -2.7 L20.0 -3.8 22.4 -4.3 22.4 -3.3 20.0 -2.7 M51.7 -17.8 L51.45 -17.3 50.6 -17.5 50.25 -17.2 Q48.55 -14.5 47.85 -11.6 L47.8 -11.0 47.8 -10.0 47.95 -9.55 48.1 -9.35 45.65 -3.8 Q44.4 -3.3 43.7 -2.1 L36.55 10.5 35.65 11.95 34.05 11.75 40.55 -18.6 51.7 -17.8 M56.2 -12.95 L56.4 -12.85 56.35 -10.7 56.2 -12.95 M57.35 -6.55 L57.55 -12.3 70.75 -6.3 66.75 -3.2 72.55 -6.3 77.2 -6.3 64.6 -0.55 64.65 -2.7 57.35 -6.55 M98.25 7.7 L95.05 8.1 Q93.2 2.3 91.6 -3.8 90.35 -8.5 90.85 -13.2 90.9 -13.8 91.25 -14.2 92.65 -15.6 95.2 -15.7 L95.3 -2.5 Q95.3 3.3 98.25 7.7 M82.6 0.15 L91.0 -2.35 93.1 5.4 93.25 6.15 87.25 9.45 83.35 5.55 82.6 0.15 M78.3 13.2 Q75.9 8.9 75.65 3.95 75.3 -3.0 80.05 -8.2 82.1 -10.5 85.2 -11.3 87.75 -11.9 89.7 -10.2 L89.75 -8.9 83.7 -5.05 83.4 -4.65 Q80.85 -0.6 81.75 3.95 L78.3 13.2 M87.4 10.45 L93.95 7.95 94.45 9.05 99.4 8.7 99.1 8.9 Q98.25 11.35 97.0 13.45 94.0 18.45 88.65 19.3 L87.4 10.45 M78.15 14.85 L78.9 15.7 Q81.5 18.8 85.35 19.9 L86.65 20.4 80.05 21.9 62.15 24.75 60.55 24.55 Q59.2 24.2 58.15 23.3 56.45 21.8 56.45 19.7 L56.75 11.6 Q58.35 13.75 60.25 15.4 62.1 17.0 64.65 16.95 71.5 16.85 78.15 14.85 M48.85 5.35 L49.55 5.7 48.25 10.9 47.4 10.45 48.85 5.35 M50.1 6.15 Q50.15 5.05 49.65 4.1 L49.2 3.8 Q49.6 2.4 50.55 4.15 L50.1 6.15 M50.75 6.4 L51.8 6.9 49.65 11.65 50.75 6.4 M49.75 7.55 L49.8 7.5 48.65 12.3 46.55 12.7 46.8 11.95 47.45 12.0 Q48.35 11.85 48.6 11.05 49.05 9.25 49.75 7.55 M42.15 24.4 L43.4 29.6 33.4 53.15 26.55 52.45 Q34.3 49.6 36.7 41.5 L37.2 38.6 Q37.5 34.9 39.0 31.9 40.75 28.25 42.15 24.4 M54.2 33.1 L53.9 34.85 46.85 34.15 47.2 32.3 49.55 30.0 53.0 30.45 54.2 33.1 M45.2 34.45 L45.4 35.6 46.0 35.6 45.75 36.8 45.15 36.8 44.45 40.3 42.9 39.5 44.95 34.2 45.2 34.45 M44.4 31.25 Q45.0 34.15 43.5 36.9 L42.1 40.25 Q41.65 41.15 40.7 41.2 L40.5 41.0 Q40.4 40.6 40.55 40.2 L41.3 40.2 44.35 32.5 44.2 30.85 44.4 31.25 M52.3 33.3 Q52.9 33.0 52.9 32.6 52.9 32.2 52.3 31.9 L50.75 31.6 49.25 31.9 Q48.6 32.2 48.6 32.6 48.6 33.0 49.25 33.3 L50.75 33.6 52.3 33.3 M54.3 44.95 L53.0 44.35 54.55 38.95 54.3 44.95 M43.85 48.9 L46.0 38.55 52.95 39.25 50.75 49.6 48.45 51.85 45.05 51.5 43.85 48.9 M49.4 45.55 Q49.7 45.95 50.15 45.95 50.6 45.95 50.95 45.55 L51.25 44.55 50.95 43.55 Q50.6 43.15 50.15 43.15 49.7 43.15 49.4 43.55 49.05 43.95 49.05 44.55 49.05 45.15 49.4 45.55 M49.3 49.1 L49.55 47.6 45.75 47.2 45.5 48.75 49.3 49.1 M47.05 40.6 Q47.05 41.0 47.7 41.3 L49.15 41.6 50.65 41.3 Q51.25 41.0 51.25 40.6 51.25 40.2 50.65 39.9 L49.15 39.6 47.7 39.9 Q47.05 40.2 47.05 40.6 M46.55 42.75 Q46.05 42.75 45.75 43.2 45.4 43.6 45.4 44.2 45.4 44.8 45.75 45.25 46.05 45.65 46.55 45.65 47.05 45.65 47.4 45.25 L47.7 44.2 47.4 43.2 Q47.05 42.75 46.55 42.75 M20.45 3.65 Q20.75 3.25 21.15 3.25 21.55 3.25 21.85 3.65 L22.15 4.6 21.85 5.55 21.15 5.95 Q20.75 5.95 20.45 5.55 20.15 5.15 20.15 4.6 20.15 4.05 20.45 3.65 M37.15 20.8 Q37.45 20.4 37.85 20.4 38.25 20.4 38.55 20.8 L38.85 21.7 38.55 22.65 Q38.25 23.0 37.85 23.0 37.45 23.0 37.15 22.65 36.85 22.25 36.85 21.7 36.85 21.15 37.15 20.8 M22.45 18.8 L22.7 19.7 22.45 20.65 Q22.15 21.0 21.75 21.0 21.35 21.0 21.1 20.65 20.8 20.25 20.8 19.7 20.8 19.15 21.1 18.8 21.35 18.4 21.75 18.4 L22.45 18.8 M16.15 2.0 L17.3 1.75 16.85 7.0 15.9 7.15 16.15 2.0 M10.2 32.25 L10.3 35.85 9.5 36.05 10.2 32.25 M11.6 28.85 L11.6 30.0 12.1 29.8 12.05 35.45 11.45 35.5 11.4 37.05 12.05 37.15 11.55 38.05 11.1 37.2 10.5 33.55 Q10.05 29.75 12.35 27.2 L12.35 28.15 11.6 28.85 M14.85 13.05 L16.5 12.55 Q16.55 20.5 17.0 28.5 L16.8 30.0 Q14.55 36.7 15.55 43.6 15.95 46.45 17.5 48.65 L19.4 50.8 20.85 51.95 13.6 51.15 Q13.45 41.6 13.75 32.15 14.05 22.55 14.85 13.05 M7.8 8.8 L6.5 9.1 7.7 4.9 7.8 8.8 M6.55 28.65 Q5.75 28.65 5.2 29.45 4.6 30.2 4.6 31.3 4.6 32.4 5.2 33.2 5.75 33.95 6.55 33.95 7.35 33.95 7.95 33.2 8.5 32.4 8.5 31.3 8.5 30.2 7.95 29.45 7.35 28.65 6.55 28.65 M5.1 26.95 L5.1 25.4 6.75 25.4 6.75 26.95 5.1 26.95 M9.75 25.6 L9.75 27.3 7.0 27.3 7.0 25.6 9.75 25.6 M3.4 26.7 L2.4 26.5 2.0 25.9 Q2.0 25.55 2.4 25.35 L3.4 25.1 4.4 25.35 Q4.8 25.55 4.8 25.9 L4.4 26.5 3.4 26.7 M0.95 43.75 Q0.0 43.95 0.6 44.85 L5.3 44.8 5.25 44.7 0.95 43.75 M4.3 48.55 L4.65 47.95 0.35 46.9 -0.05 47.75 4.3 48.55 M2.4 38.3 L2.2 37.3 Q1.95 36.85 1.6 36.85 1.25 36.85 1.05 37.3 0.8 37.7 0.8 38.3 L1.05 39.35 Q1.25 39.75 1.6 39.75 L2.2 39.35 2.4 38.3 M2.0 27.2 L9.7 28.1 5.65 50.3 -1.55 49.5 2.0 27.2 M6.9 36.05 Q6.35 35.3 5.55 35.3 4.75 35.3 4.2 36.05 3.65 36.8 3.65 37.85 3.65 38.9 4.2 39.65 4.75 40.4 5.55 40.4 6.35 40.4 6.9 39.65 7.45 38.9 7.45 37.85 7.45 36.8 6.9 36.05 M2.25 32.7 Q1.9 32.7 1.7 33.15 1.45 33.55 1.45 34.15 1.45 34.75 1.7 35.2 1.9 35.6 2.25 35.6 L2.85 35.2 3.05 34.15 2.85 33.15 2.25 32.7 M2.15 29.9 Q2.15 30.5 2.4 30.95 2.6 31.35 2.95 31.35 L3.55 30.95 3.75 29.9 3.55 28.9 Q3.3 28.45 2.95 28.45 2.6 28.45 2.4 28.9 2.15 29.3 2.15 29.9 M16.55 72.4 L43.25 74.25 43.6 76.4 43.1 77.7 16.75 75.9 16.55 72.4 M40.0 92.5 L37.35 94.7 35.85 95.7 34.15 96.6 10.3 94.8 14.35 89.2 40.0 92.5 M8.35 71.85 L15.65 72.35 15.75 80.0 8.65 79.45 8.35 71.85 M-16.05 68.85 L-11.55 70.05 7.3 71.75 7.6 75.25 -12.55 73.2 Q-14.35 72.9 -16.0 71.95 L-16.05 68.85 M4.95 88.0 L1.0 92.3 -1.1 93.55 -27.5 90.75 -20.55 84.75 4.95 88.0 M14.65 85.5 L13.4 88.75 6.2 87.8 7.65 84.45 14.65 85.5 M7.8 95.2 Q5.95 97.1 3.6 96.4 L-2.0 95.25 0.45 93.85 7.8 95.2 M-0.75 119.75 Q5.4 119.4 10.15 115.5 12.75 113.3 13.15 109.85 13.75 105.15 11.8 100.7 L9.5 95.65 30.35 98.0 Q29.2 101.35 27.45 104.7 23.8 111.5 17.4 115.9 9.2 121.5 -0.75 119.75 M-8.15 105.3 Q-0.7 104.85 4.05 99.2 L5.35 97.55 Q3.55 102.05 0.35 105.75 -5.2 112.25 -13.85 112.15 L-8.15 105.3 M-53.1 -127.45 L-36.4 -144.3 -35.8 -143.9 Q-33.0 -140.3 -32.05 -135.6 L-36.6 -130.85 Q-39.95 -132.45 -43.45 -131.95 L-44.85 -131.1 Q-48.65 -128.0 -51.8 -124.25 L-53.1 -127.45 M-53.65 -122.2 L-56.2 -119.35 Q-54.45 -120.8 -52.15 -122.0 L-51.9 -122.4 Q-50.5 -125.0 -48.25 -126.45 L-48.3 -125.5 Q-47.95 -118.7 -43.25 -113.7 L-58.15 -98.15 -62.15 -105.8 -47.75 -121.15 -48.45 -123.3 -62.5 -108.95 Q-62.0 -112.1 -60.35 -114.75 -61.6 -113.2 -62.45 -111.45 -64.55 -106.95 -62.25 -102.6 L-59.3 -97.8 Q-53.9 -90.45 -45.15 -89.2 -43.1 -89.1 -41.45 -90.45 -39.15 -92.25 -37.55 -94.6 -36.9 -92.55 -37.05 -90.45 -37.1 -89.7 -37.45 -89.0 -38.8 -86.65 -41.6 -86.1 -47.45 -84.7 -53.0 -87.75 -56.6 -89.8 -59.55 -92.5 -67.05 -99.4 -67.65 -109.4 L-67.6 -109.6 Q-67.35 -111.05 -66.7 -112.3 -64.6 -116.3 -59.95 -115.35 L-59.25 -116.3 -60.75 -116.5 Q-63.05 -116.85 -65.25 -115.75 L-63.65 -122.45 -53.65 -122.2 M-32.15 -106.2 L-29.05 -105.85 -42.4 -90.85 -46.2 -90.35 -32.15 -106.2 M-76.4 -105.1 L-80.25 -101.3 Q-80.6 -96.8 -78.95 -92.6 -77.1 -88.0 -73.95 -84.1 -70.9 -80.4 -67.1 -77.5 -60.25 -72.25 -52.05 -73.45 L-47.25 -78.2 -46.95 -76.5 Q-46.55 -74.45 -47.5 -72.8 -49.55 -69.05 -54.05 -67.75 -57.35 -67.5 -60.5 -68.65 -65.45 -70.15 -69.75 -73.55 -80.3 -81.95 -83.75 -94.9 -84.95 -99.45 -82.95 -103.25 -80.25 -105.85 -76.4 -105.1 M-69.0 -106.45 L-78.7 -97.05 Q-79.65 -99.75 -77.7 -101.95 L-68.6 -111.5 -69.0 -106.45 M-77.75 -93.4 L-68.0 -102.85 -63.3 -94.85 -72.9 -85.15 -77.75 -93.4 M-46.6 -84.3 L-41.85 -84.25 Q-47.3 -79.6 -53.2 -75.65 -54.8 -74.65 -56.85 -74.4 L-57.75 -74.9 -46.6 -84.3 M-85.4 -94.45 L-110.85 -65.55 Q-111.25 -67.7 -110.7 -69.8 L-110.3 -70.7 -108.3 -73.6 -85.9 -99.8 -85.4 -94.45 M-109.85 -61.9 L-83.65 -89.1 -79.8 -82.25 -106.55 -55.6 -109.85 -61.9 M-58.4 -66.3 L-53.9 -66.05 -73.45 -48.15 -80.2 -41.5 -81.15 -41.3 -85.65 -41.05 -58.4 -66.3 M-77.4 -41.65 Q-78.25 -37.45 -82.85 -36.55 L-86.55 -36.3 -90.95 -37.6 Q-101.35 -41.15 -108.0 -49.75 -113.1 -56.35 -114.65 -64.35 L-114.8 -65.95 Q-114.65 -70.4 -110.6 -72.55 L-111.3 -71.35 Q-111.95 -70.15 -112.1 -68.9 -112.8 -62.4 -109.15 -56.7 -103.0 -47.1 -92.95 -41.8 -86.85 -38.5 -80.1 -39.85 L-77.8 -42.3 -77.4 -41.65 M-116.0 -61.65 L-118.75 -58.85 -118.85 -59.95 -118.75 -61.5 Q-118.3 -63.9 -116.7 -65.25 L-116.0 -61.65 M-117.2 -53.65 L-114.25 -56.85 -112.5 -53.6 -115.65 -50.5 -117.2 -53.65 M-88.95 -34.8 L-83.9 -34.25 -84.05 -34.05 Q-85.95 -32.6 -88.05 -31.65 L-91.8 -31.4 -88.95 -34.8 M-124.0 -50.35 L-119.95 -57.2 -119.7 -56.25 -124.0 -50.35 M-118.45 -52.8 Q-114.6 -44.8 -107.95 -38.8 -101.75 -33.15 -93.85 -30.5 L-98.1 -26.35 Q-105.55 -27.55 -111.7 -32.15 -119.7 -38.1 -123.2 -47.55 L-118.45 -52.8 M-94.65 -41.95 Q-95.15 -42.35 -94.65 -41.8 L-94.65 -41.95 M-89.8 -21.4 L-79.15 -32.0 -48.9 -18.65 -55.3 -20.75 Q-57.35 -21.35 -59.0 -19.85 -61.5 -17.4 -62.7 -14.05 L-64.85 -7.5 Q-67.65 1.55 -69.4 10.9 -70.65 17.75 -71.4 24.85 L-80.25 20.55 -89.8 -21.4 M-9.6 -75.25 L-11.1 -74.8 -12.35 -73.9 Q-17.15 -69.45 -16.9 -62.55 -22.35 -64.05 -28.05 -64.6 -30.6 -64.8 -32.45 -63.3 L-34.65 -56.3 -50.8 -60.25 Q-46.2 -63.95 -43.0 -68.65 -42.4 -69.6 -42.25 -70.65 -41.75 -74.15 -43.25 -77.25 L-40.15 -79.85 -9.6 -75.25 M-16.8 -89.95 L-18.7 -77.6 -25.7 -78.65 -23.2 -91.15 -16.8 -89.95 M-31.45 -79.5 Q-29.85 -84.45 -26.1 -88.1 L-24.7 -89.55 -26.75 -78.8 -31.45 -79.5 M-51.65 -59.35 L-32.2 -54.5 -32.9 -49.95 -33.0 -50.0 Q-33.0 -49.2 -32.6 -48.55 -30.2 -44.8 -25.75 -43.45 L-26.8 -43.65 -30.95 -44.1 Q-33.95 -44.65 -36.15 -42.95 L-37.5 -37.15 -64.4 -46.65 -51.65 -59.35 M-29.25 -48.25 L-32.1 -50.65 -30.55 -58.25 -27.4 -56.25 -29.25 -48.25 M-23.05 -60.45 L-22.5 -59.9 Q-20.65 -57.75 -22.55 -55.4 -27.3 -56.15 -30.25 -59.55 L-29.2 -60.2 -23.25 -60.5 -23.05 -60.45 M-33.0 -26.3 L-44.35 -19.0 -40.9 -32.3 -40.35 -31.4 Q-37.75 -27.5 -33.0 -26.3 M-45.0 -20.8 L-45.65 -18.3 -81.05 -34.25 -45.0 -20.8 M-31.95 -38.6 L-33.9 -30.55 -37.55 -33.45 -35.65 -41.15 -31.95 -38.6 M-25.6 -42.55 L-24.9 -41.85 Q-22.85 -39.2 -26.25 -37.4 -31.65 -38.45 -35.3 -42.35 L-35.1 -42.55 Q-30.35 -44.0 -25.6 -42.55 M-33.75 -29.35 L-33.15 -27.4 Q-37.9 -28.75 -40.05 -33.25 L-39.8 -34.45 -38.05 -35.1 -38.4 -33.15 -33.75 -29.35 M-28.95 49.95 L-28.75 49.05 -10.65 57.45 -12.0 65.0 -16.1 62.9 -18.1 59.1 -18.4 58.85 Q-22.55 52.95 -28.95 49.95 M-43.95 39.75 L-39.8 46.25 -42.3 44.55 -45.15 40.35 -43.95 39.75 M-55.1 43.45 L-57.1 44.2 Q-61.45 39.5 -63.6 33.5 L-63.65 33.0 Q-63.35 32.7 -63.0 32.55 L-62.25 32.05 -61.2 32.0 -59.95 32.05 -61.25 36.1 -58.7 38.5 -55.1 43.45 M-1.15 38.7 L-2.35 39.05 -0.25 33.2 -1.15 38.7 M-45.25 35.7 L-44.6 35.85 -45.4 39.35 -47.45 39.85 Q-50.2 40.15 -52.65 39.8 L-51.2 34.35 -45.25 35.7 M-53.7 47.9 Q-54.6 48.05 -55.3 48.6 -60.7 53.2 -63.15 60.15 L-63.3 58.75 Q-63.05 54.75 -61.35 51.15 L-59.8 48.45 Q-56.1 43.05 -49.45 43.8 -44.4 43.85 -40.5 46.9 -37.5 49.25 -38.45 52.95 -39.3 56.35 -40.6 59.45 -43.25 65.65 -49.45 66.1 -47.55 65.7 -46.3 64.2 -42.2 59.35 -42.35 53.0 -42.4 51.15 -43.85 49.95 -48.2 46.35 -53.7 47.9 M-59.1 54.2 L-56.55 59.1 -60.1 79.7 -84.35 68.7 -83.55 62.5 Q-80.0 64.2 -76.05 63.25 -70.3 61.7 -66.0 57.4 L-64.35 60.25 -63.45 61.3 -62.9 61.45 -59.1 54.2 M-48.95 58.95 Q-48.45 59.75 -48.35 60.7 -48.05 62.85 -47.3 63.8 L-52.1 65.3 -56.9 55.85 -58.2 53.8 Q-52.1 53.85 -48.95 58.95 M-29.05 50.95 Q-29.15 58.45 -33.85 64.15 L-36.25 66.3 Q-39.25 68.2 -42.8 68.3 -46.0 68.4 -49.2 67.55 -48.4 67.05 -46.95 66.75 -44.8 66.3 -43.3 64.55 -38.05 58.3 -36.75 50.2 L-32.6 50.0 -29.95 50.6 -29.05 50.95 M-33.7 118.25 Q-28.9 116.4 -25.15 112.5 -22.35 109.65 -22.3 105.55 -22.2 101.45 -24.15 98.0 -26.2 94.5 -28.8 91.6 L-3.55 94.35 -4.95 97.5 Q-8.65 106.15 -15.8 112.45 -23.45 119.25 -33.7 118.25 M-31.05 119.35 L-24.8 118.2 -21.6 117.2 -20.0 116.45 -18.35 115.65 -8.5 118.75 -11.5 126.7 -17.3 125.95 Q-21.7 121.3 -28.2 119.85 L-31.05 119.35 M-39.8 120.2 L-38.95 118.15 -32.1 119.45 -33.4 123.55 -39.8 120.2 M-62.4 109.05 L-61.85 109.2 Q-57.15 112.2 -51.9 114.25 -46.0 116.55 -40.05 117.95 L-42.9 125.4 -48.0 124.4 Q-49.1 119.05 -53.6 115.4 -57.9 111.95 -62.45 109.2 L-62.4 109.05" fill="#a7abac" fill-rule="evenodd" stroke="none"/>
    <path d="M19.85 -162.55 L21.75 -160.05 Q27.4 -152.35 30.15 -143.1 32.7 -134.45 33.3 -125.5 33.8 -117.45 33.0 -109.2 L32.6 -109.15 18.35 -112.15 17.8 -159.95 Q17.8 -161.3 18.7 -162.45 L19.85 -162.55 M-14.95 -168.05 L-12.6 -165.2 Q-7.15 -158.4 -3.7 -150.25 -0.4 -142.4 0.65 -133.85 1.75 -124.9 0.7 -115.9 -5.3 -116.75 -11.05 -118.5 L-14.05 -119.55 Q-14.95 -120.05 -15.3 -121.0 -16.05 -122.9 -16.0 -124.85 L-14.95 -168.05 M-31.35 -136.35 L-34.45 -144.9 -16.15 -164.8 -16.35 -151.85 -31.35 -136.35 M31.0 -37.25 L30.9 -37.3 30.85 -37.35 31.0 -37.25 M29.5 -38.6 L29.4 -38.6 29.3 -38.65 29.35 -38.65 29.5 -38.6 M27.9 35.55 Q28.25 35.05 28.75 34.85 31.35 33.6 32.0 36.45 L31.45 39.05 27.25 36.8 27.9 35.55 M30.05 41.35 Q26.95 41.9 27.0 38.95 L30.35 41.2 30.05 41.35 M-74.35 26.1 L-76.9 26.85 Q-79.1 27.75 -80.7 29.4 -86.05 35.05 -87.85 42.7 -90.2 52.8 -84.0 61.2 -87.2 59.6 -89.0 56.55 -94.25 47.4 -89.6 37.65 -84.9 27.85 -74.35 26.1 M-92.35 56.8 Q-97.6 55.3 -99.9 50.3 -104.1 41.15 -99.45 32.1 -96.25 25.8 -89.95 22.6 -84.95 20.0 -79.7 21.7 L-83.25 22.2 Q-93.85 24.0 -97.1 34.1 -98.05 37.05 -98.6 40.1 -100.55 50.55 -92.35 56.8" fill="#ffe600" fill-rule="evenodd" stroke="none"/>
    <path d="M22.55 -14.3 L17.7 -13.25 17.7 -18.4 20.4 -19.05 22.55 -14.3 M41.5 23.0 L37.7 31.65 Q37.0 26.45 32.9 23.35 31.9 22.6 30.75 22.35 22.6 21.1 18.35 28.6 17.15 14.15 18.75 -0.6 L23.7 -1.7 26.9 12.6 35.95 13.6 36.6 12.9 37.9 14.3 Q41.6 17.9 41.5 23.0 M53.6 5.55 L55.8 6.75 53.7 16.0 50.35 14.15 53.6 5.55 M23.3 17.55 Q22.65 16.65 21.75 16.65 20.85 16.65 20.2 17.55 19.55 18.45 19.55 19.7 19.55 20.95 20.2 21.85 20.85 22.75 21.75 22.75 22.65 22.75 23.3 21.85 23.95 20.95 23.95 19.7 23.95 18.45 23.3 17.55 M23.35 4.6 Q23.35 3.25 22.7 2.35 22.05 1.4 21.15 1.4 20.25 1.4 19.6 2.35 18.95 3.25 18.95 4.6 18.95 5.95 19.6 6.9 20.25 7.8 21.15 7.8 22.05 7.8 22.7 6.9 23.35 5.95 23.35 4.6 M27.1 23.9 Q29.45 23.45 31.45 24.65 35.6 27.1 36.3 32.0 37.3 38.95 33.75 44.85 31.4 48.8 27.55 50.5 L22.8 50.6 Q17.05 48.1 16.6 41.75 16.05 34.7 19.75 28.85 22.4 24.75 27.1 23.9 M37.7 18.75 Q36.8 18.75 36.2 19.65 35.55 20.5 35.55 21.75 35.55 23.0 36.2 23.9 36.8 24.75 37.7 24.75 38.6 24.75 39.25 23.9 39.85 23.0 39.85 21.75 39.85 20.5 39.25 19.65 38.6 18.75 37.7 18.75 M13.25 0.5 L13.3 9.6 8.9 10.65 8.8 1.45 13.25 0.5 M19.85 33.55 L20.05 33.9 23.7 39.3 24.75 38.45 25.95 39.25 Q26.0 42.55 29.15 42.8 L29.75 42.55 31.05 41.75 33.45 41.85 34.5 39.8 32.85 37.05 Q33.2 34.4 30.9 33.45 L29.8 33.4 Q27.45 33.85 26.45 35.7 L26.3 33.8 19.85 33.55 M6.55 29.85 Q7.0 29.85 7.35 30.25 L7.65 31.25 7.35 32.25 Q7.0 32.65 6.55 32.65 6.1 32.65 5.8 32.25 5.45 31.85 5.45 31.25 5.45 30.65 5.8 30.25 6.1 29.85 6.55 29.85 M-74.35 26.1 L-72.65 26.15 Q-67.65 26.55 -64.45 30.5 -69.3 31.85 -70.6 36.55 -71.4 39.35 -70.95 42.25 -69.85 49.55 -66.7 56.25 L-67.75 57.35 Q-74.65 64.6 -84.0 61.2 -90.2 52.8 -87.85 42.7 -86.05 35.05 -80.7 29.4 -79.1 27.75 -76.9 26.85 L-74.35 26.1 M-79.7 21.7 L-74.9 25.15 Q-85.15 27.05 -89.95 36.35 -94.1 44.35 -91.65 52.85 L-90.15 57.2 -92.35 56.8 Q-100.55 50.55 -98.6 40.1 -98.05 37.05 -97.1 34.1 -93.85 24.0 -83.25 22.2 L-79.7 21.7" fill="#ff850d" fill-rule="evenodd" stroke="none"/>
    <path d="M-0.55 -107.95 L17.1 -104.55 12.95 -102.1 Q6.45 -98.0 1.3 -92.3 L-5.3 -93.2 -8.95 -93.9 Q-1.6 -99.15 -0.55 -107.95 M45.6 -62.2 L45.65 -62.2 45.6 -62.2 M17.1 -24.8 Q11.25 -26.75 7.6 -31.55 L6.75 -32.85 9.7 -32.65 24.75 -23.85 17.1 -24.8 M-29.95 42.25 L-27.55 43.45 -42.75 36.3 -35.55 35.35 -25.6 8.4 -19.75 7.6 Q-10.95 6.95 -3.0 3.2 -5.25 5.95 -8.85 6.55 -15.8 7.3 -21.8 10.4 -23.0 11.0 -23.8 12.05 -27.0 16.1 -28.4 21.2 -30.75 29.85 -35.5 37.15 L-40.45 37.35 -29.95 42.25 M38.3 -18.4 L39.35 -18.25 38.45 -14.9 38.3 -18.4 M37.7 -14.95 L37.7 -13.85 35.0 -6.0 Q34.6 -4.75 33.5 -4.1 L31.25 -6.2 35.45 -15.3 35.2 -13.05 37.1 -12.8 37.7 -14.95 M34.75 -15.55 L34.6 -16.95 35.1 -18.75 36.15 -18.65 35.45 -16.5 34.75 -15.55 M36.85 -19.2 L37.9 -19.0 36.9 -13.45 35.7 -13.65 36.85 -19.2 M33.75 -0.7 L34.6 -1.4 35.45 -1.3 34.95 1.45 34.0 1.3 33.55 0.45 32.35 0.25 32.5 -0.85 33.75 -0.7 M32.8 -1.85 L32.8 -3.6 35.65 -3.6 35.65 -1.85 32.8 -1.85 M35.9 -6.35 L36.4 -6.5 35.9 -3.7 34.8 -4.05 Q35.2 -5.3 35.9 -6.35 M36.35 -8.4 L36.7 -8.2 36.8 -7.8 36.7 -7.35 36.35 -7.2 Q36.15 -7.2 36.05 -7.35 L35.9 -7.8 36.05 -8.2 Q36.15 -8.4 36.35 -8.4 M62.85 -27.75 L62.45 -27.55 62.3 -27.5 62.85 -27.75 M54.65 -15.45 L52.75 -17.1 55.25 -16.75 54.65 -15.45 M46.1 -1.5 L48.15 -0.35 47.55 0.85 45.5 -0.35 46.1 -1.5 M49.05 -2.45 L46.85 -3.55 49.2 -8.8 51.3 -7.7 49.05 -2.45 M45.5 -2.0 L44.55 -0.85 43.95 -1.2 45.25 -3.3 49.35 -1.7 49.15 1.75 48.35 1.3 48.65 -0.35 45.5 -2.0 M78.3 13.2 L81.75 3.95 82.25 5.3 Q83.95 9.05 87.4 10.45 L88.65 19.3 87.1 19.2 Q81.2 18.35 78.3 13.2 M60.55 24.55 L56.3 24.05 56.45 19.7 Q56.45 21.8 58.15 23.3 59.2 24.2 60.55 24.55 M44.75 6.5 L45.05 7.45 44.75 8.4 Q44.45 8.8 44.05 8.8 L43.35 8.4 Q43.05 8.0 43.05 7.45 43.05 6.9 43.35 6.5 43.65 6.1 44.05 6.1 44.45 6.1 44.75 6.5 M42.15 24.4 L45.5 15.8 47.15 16.85 43.4 29.6 42.15 24.4 M30.5 10.75 L30.5 8.95 33.55 8.95 33.55 10.75 30.5 10.75 M31.25 5.85 L32.15 5.95 32.7 6.9 33.9 7.0 33.75 8.1 32.45 7.95 31.85 8.6 30.7 8.55 31.25 5.85 M31.55 4.25 L32.8 4.3 33.55 3.65 34.5 3.7 34.0 6.4 33.05 6.3 32.6 5.35 31.4 5.25 31.55 4.25 M33.1 1.05 L33.65 1.9 34.75 2.1 34.6 3.1 33.4 2.95 32.9 3.5 31.65 3.55 32.25 0.85 33.1 1.05 M16.55 72.4 L16.2 69.0 42.45 71.05 43.25 74.25 16.55 72.4 M15.65 72.35 L8.35 71.85 7.8 68.4 15.05 68.85 15.65 72.35 M-16.05 68.85 L-16.8 63.5 -11.55 66.8 6.5 68.2 7.3 71.75 -11.55 70.05 -16.05 68.85 M13.4 88.75 L12.7 90.05 7.8 95.2 0.45 93.85 2.2 92.55 Q4.65 90.6 6.2 87.8 L13.4 88.75 M-9.6 57.7 L-8.65 52.65 48.7 57.9 48.05 62.45 -9.6 57.7 M5.35 97.55 L4.05 99.2 Q-0.7 104.85 -8.15 105.3 L-2.95 96.1 5.35 97.55 M-32.05 -135.6 L-27.25 -122.85 -29.65 -125.5 Q-32.6 -128.85 -36.6 -130.85 L-32.05 -135.6 M-58.15 -98.15 L-43.25 -113.7 -42.35 -112.55 Q-38.2 -107.75 -32.15 -106.2 L-46.2 -90.35 -47.15 -90.65 Q-53.8 -92.5 -58.15 -98.15 M-63.3 -94.85 L-60.6 -91.9 Q-54.85 -85.75 -46.6 -84.3 L-57.75 -74.9 -58.65 -75.1 Q-67.3 -78.0 -72.9 -85.15 L-63.3 -94.85 M-79.8 -82.25 Q-77.05 -78.35 -73.65 -74.9 -67.2 -68.2 -58.4 -66.3 L-85.65 -41.05 Q-88.65 -41.7 -91.45 -42.9 -100.85 -47.1 -106.55 -55.6 L-79.8 -82.25 M-77.4 -41.65 L-77.8 -42.3 -77.6 -42.35 -77.4 -41.65 M-112.5 -53.6 L-110.8 -50.75 -109.35 -48.9 -101.05 -41.0 Q-95.7 -36.3 -88.95 -34.8 L-91.8 -31.4 Q-97.7 -32.55 -102.45 -36.0 -110.6 -41.9 -115.65 -50.5 L-112.5 -53.6 M-89.8 -21.4 L-91.75 -30.0 -88.25 -29.45 -83.05 -33.6 -79.15 -32.0 -89.8 -21.4 M-48.9 -18.65 L-46.0 -16.95 -44.7 -14.85 -46.85 -13.2 Q-48.85 -11.9 -49.75 -9.7 L-64.0 24.2 -59.25 30.25 -60.7 30.2 Q-61.9 30.2 -62.6 29.65 -66.5 26.7 -71.4 24.85 -70.65 17.75 -69.4 10.9 -67.65 1.55 -64.85 -7.5 L-62.7 -14.05 Q-61.5 -17.4 -59.0 -19.85 -57.35 -21.35 -55.3 -20.75 L-48.9 -18.65 M-9.6 -75.25 L-4.6 -74.5 -5.8 -49.45 -8.4 -50.05 -7.55 -55.65 -8.65 -56.55 Q-16.7 -61.85 -26.25 -61.75 -29.15 -61.75 -31.2 -59.95 L-32.0 -55.65 -34.65 -56.3 -32.45 -63.3 Q-30.6 -64.8 -28.05 -64.6 -22.35 -64.05 -16.9 -62.55 -17.15 -69.45 -12.35 -73.9 L-11.1 -74.8 -9.6 -75.25 M-50.8 -60.25 L-56.85 -61.7 -54.95 -63.65 -49.3 -68.35 Q-46.65 -70.4 -46.2 -73.7 -45.85 -76.5 -46.2 -79.25 L-44.6 -80.55 -40.15 -79.85 -43.25 -77.25 Q-41.75 -74.15 -42.25 -70.65 -42.4 -69.6 -43.0 -68.65 -46.2 -63.95 -50.8 -60.25 M-24.7 -89.55 L-26.1 -88.1 Q-29.85 -84.45 -31.45 -79.5 L-32.6 -79.7 -31.5 -85.65 -24.5 -90.65 -24.7 -89.55 M-32.45 -85.9 L-33.65 -79.75 -43.6 -81.3 -36.75 -87.3 -32.45 -85.9 M-51.65 -59.35 L-64.4 -46.65 -37.5 -37.15 -37.8 -36.05 -71.8 -47.8 -57.8 -60.8 -51.65 -59.35 M-25.75 -43.45 Q-30.2 -44.8 -32.6 -48.55 -33.0 -49.2 -33.0 -50.0 L-32.9 -49.95 Q-25.35 -44.05 -15.4 -43.65 -12.15 -43.35 -9.6 -44.65 L-8.65 -49.0 -5.8 -48.4 -5.7 -42.85 7.95 -33.7 -8.55 -35.8 -13.15 -27.55 -15.05 -27.3 -12.7 -37.0 Q-14.4 -40.05 -18.0 -41.25 L-25.75 -43.45 M-29.25 -48.25 L-27.4 -56.25 -24.9 -55.3 Q-16.85 -52.05 -8.55 -53.75 L-10.7 -45.15 -11.3 -44.95 Q-20.65 -43.85 -29.25 -48.25 M-22.55 -55.4 Q-20.65 -57.75 -22.5 -59.9 L-23.05 -60.45 Q-17.35 -59.85 -12.0 -57.8 -9.55 -56.9 -8.5 -54.95 L-8.65 -54.8 Q-15.65 -53.05 -22.55 -55.4 M-33.0 -26.3 L-24.55 -24.35 -43.7 -15.45 -44.95 -16.8 -44.35 -19.0 -33.0 -26.3 M-31.95 -38.6 L-30.55 -37.95 -28.45 -37.15 Q-21.35 -34.25 -13.95 -35.5 L-16.1 -27.3 -17.2 -26.9 Q-26.05 -26.15 -33.9 -30.55 L-31.95 -38.6 M-25.6 -42.55 Q-20.0 -41.35 -14.95 -38.5 -13.4 -37.55 -14.1 -36.5 L-14.7 -36.3 Q-20.6 -35.45 -26.25 -37.4 -22.85 -39.2 -24.9 -41.85 L-25.6 -42.55 M-33.15 -27.4 L-33.75 -29.35 Q-27.5 -26.45 -20.6 -25.75 L-22.3 -25.15 Q-27.9 -25.75 -33.15 -27.4 M-28.95 49.95 L-36.65 49.15 Q-36.95 46.75 -38.45 44.7 L-43.2 37.7 -9.8 52.55 -10.65 57.45 -28.75 49.05 -28.95 49.95 M-42.3 44.55 L-43.9 43.9 -47.55 42.95 -55.1 43.45 -58.7 38.5 -57.65 39.15 Q-51.75 42.1 -45.15 40.35 L-42.3 44.55 M-43.8 36.4 L-43.85 35.85 -43.75 35.9 -43.8 36.4 M-50.1 67.15 L-50.6 69.35 -50.75 70.65 Q-50.95 73.95 -49.8 77.15 L-51.95 78.6 -53.05 79.1 Q-55.85 80.5 -59.25 80.45 L-55.7 60.55 -52.95 66.05 -50.1 67.15" fill="#525759" fill-rule="evenodd" stroke="none"/>
    <path d="M30.1 -108.7 L29.15 -108.35 18.7 -105.35 -22.4 -113.3 -24.55 -118.8 -16.95 -122.6 Q-16.95 -120.35 -14.85 -118.75 -12.8 -117.15 -9.9 -117.15 L30.1 -108.7 M22.55 -14.3 L20.4 -19.05 22.25 -19.45 23.1 -19.45 23.1 -14.45 22.55 -14.3 M41.5 23.0 Q41.6 17.9 37.9 14.3 L36.6 12.9 43.95 0.8 48.1 3.2 41.5 23.0 M48.7 -10.95 L50.6 -15.8 55.15 -13.3 53.25 -8.45 48.7 -10.95 M44.0 4.35 Q43.05 4.35 42.4 5.25 41.75 6.15 41.75 7.45 41.75 8.75 42.4 9.65 43.05 10.55 44.0 10.55 44.95 10.55 45.6 9.65 46.25 8.75 46.25 7.45 46.25 6.15 45.6 5.25 44.95 4.35 44.0 4.35" fill="#a75b10" fill-rule="evenodd" stroke="none"/>
    <path d="M47.0 -61.85 L45.65 -62.2 47.0 -61.85 M58.15 -59.65 L59.5 -59.45 58.15 -59.65 M6.25 -83.15 L2.55 -82.7 6.25 -83.15 M8.85 -66.75 L9.1 -67.4 9.1 -67.35 8.85 -66.75 M48.25 -56.5 L46.65 -55.9 47.25 -56.4 48.25 -56.5 M48.4 -53.5 L48.55 -53.5 48.3 -53.5 48.4 -53.5 M37.2 -34.05 L36.7 -35.1 36.75 -35.35 37.2 -34.05 M40.65 -35.1 L41.85 -35.25 41.7 -35.1 Q41.05 -34.85 40.65 -35.1 M29.4 -38.6 L29.1 -38.6 29.3 -38.65 29.4 -38.6 M17.75 -48.7 L17.55 -47.75 17.7 -48.65 17.75 -48.7 M74.2 -70.25 L74.2 -69.65 74.05 -69.1 74.2 -70.25 M-1.35 -80.25 L-1.4 -80.15 -1.4 -80.2 -1.35 -80.25 M63.5 -28.15 L63.7 -28.15 62.85 -27.75 63.5 -28.15 M50.8 -29.75 L51.0 -29.75 51.05 -29.75 50.85 -29.75 50.8 -29.75" fill="#403e2f" fill-rule="evenodd" stroke="none"/>
    <path d="M45.65 -62.2 L57.25 -67.85 23.95 -77.55 19.9 -78.95 Q15.6 -80.7 10.9 -81.05 L9.1 -67.4 8.85 -66.75 Q7.3 -61.35 9.85 -56.05 L11.75 -51.7 Q5.1 -56.6 2.2 -64.35 0.45 -68.95 -0.3 -73.8 -0.65 -76.2 -0.6 -78.65 L-0.6 -78.8 -0.3 -80.5 0.15 -81.1 0.9 -82.05 2.1 -82.65 2.55 -82.7 6.25 -83.15 Q14.9 -82.0 22.95 -79.0 30.5 -76.05 38.45 -73.8 47.1 -71.45 55.75 -69.65 65.0 -67.85 74.55 -67.85 L74.05 -65.5 61.85 -66.2 59.5 -59.45 58.15 -59.65 47.45 -61.75 47.0 -61.85 45.65 -62.2 M51.05 -29.75 L63.5 -28.15 62.85 -27.75 62.3 -27.5 61.2 -27.45 56.85 -27.95 50.85 -29.75 51.05 -29.75" fill="#6b6b53" fill-rule="evenodd" stroke="none"/>
    <path d="M46.65 -55.9 L48.25 -56.5 Q49.45 -56.3 49.65 -55.3 L49.6 -54.75 49.3 -54.0 48.55 -53.5 48.4 -53.5 48.15 -53.5 48.1 -53.5 47.95 -53.5 47.15 -53.65 47.1 -53.7 46.45 -55.25 46.45 -55.4 46.65 -55.9 M74.2 -70.25 L73.85 -74.15 Q77.25 -73.15 79.25 -70.75 L79.75 -69.85 74.05 -69.05 74.2 -69.65 74.2 -70.25 M75.2 -65.65 L75.7 -67.85 79.8 -68.7 Q76.0 -49.2 69.65 -30.4 L69.15 -29.3 68.95 -29.05 68.85 -28.6 66.3 -28.3 76.7 -65.95 75.2 -65.65" fill="#fff8bc" fill-rule="evenodd" stroke="none"/>
    <path d="M46.15 -57.05 L46.1 -57.0 44.35 -54.75 44.1 -53.3 Q44.1 -50.75 46.25 -49.7 L48.9 -49.65 49.0 -49.7 49.65 -50.1 49.9 -50.3 Q51.45 -51.6 51.45 -53.65 51.45 -57.05 48.35 -57.45 47.15 -57.65 46.15 -57.05 M42.9 -58.6 L50.75 -58.25 Q55.25 -57.9 56.85 -56.1 L57.0 -58.75 59.15 -58.5 49.75 -30.75 47.2 -30.8 37.2 -34.05 36.75 -35.35 37.0 -36.2 40.65 -35.1 Q41.05 -34.85 41.7 -35.1 L41.85 -35.25 41.85 -35.35 Q41.85 -35.9 40.55 -36.05 L37.15 -36.8 37.8 -39.05 41.4 -38.45 46.25 -38.2 47.8 -38.55 47.8 -38.7 46.85 -39.05 46.7 -39.05 45.25 -39.1 38.75 -40.0 38.1 -40.15 42.9 -58.6 M36.35 -34.85 L31.55 -36.95 31.65 -37.35 36.35 -34.85 M29.1 -38.6 L28.9 -38.6 28.8 -38.55 Q23.95 -41.65 19.2 -45.35 18.0 -46.25 18.0 -46.5 L18.5 -49.0 23.1 -51.25 21.55 -44.95 Q24.35 -41.7 29.3 -38.65 L29.1 -38.6 M17.55 -47.75 L17.0 -47.05 15.1 -49.05 Q16.3 -48.25 17.7 -48.65 L17.55 -47.75" fill="#ffe500" fill-rule="evenodd" stroke="none"/>
    <path d="M44.05 -62.65 L46.1 -70.6 28.95 -75.7 27.2 -68.35 14.85 -72.6 13.6 -72.0 10.35 -68.7 9.1 -67.4 10.9 -81.05 Q15.6 -80.7 19.9 -78.95 L23.95 -77.55 57.25 -67.85 45.65 -62.2 44.05 -62.65" fill="#96957e" fill-rule="evenodd" stroke="none"/>
    <path d="M44.05 -62.65 L45.65 -62.2 45.6 -62.2 44.05 -62.65 M9.1 -67.4 L10.35 -68.7 9.1 -67.35 9.1 -67.4 M17.8 -49.65 L17.75 -48.7 17.7 -48.65 17.8 -49.65 M9.5 -61.0 L9.35 -62.9 Q9.15 -65.45 10.35 -67.65 L9.5 -61.0 M25.85 -67.55 L26.9 -67.2 26.9 -67.15 25.85 -67.55" fill="#7d7a67" fill-rule="evenodd" stroke="none"/>
    <path d="M42.35 -60.6 L42.45 -59.7 42.3 -60.6 42.35 -60.6 M36.7 -35.1 L36.25 -35.7 36.75 -35.35 36.7 -35.1 M31.65 -37.45 L32.95 -37.2 31.65 -37.4 31.65 -37.45 M34.2 -37.45 L31.8 -38.0 31.85 -38.05 34.2 -37.45 M29.7 -38.55 L29.5 -38.6 29.35 -38.65 29.75 -38.65 29.7 -38.55 M30.5 -41.15 L30.05 -41.35 30.5 -41.15 M29.9 -42.75 L30.95 -42.25 29.9 -42.75" fill="#a4a28f" fill-rule="evenodd" stroke="none"/>
    <path d="M42.3 -60.6 L42.45 -59.7 42.75 -58.75 42.75 -58.7 42.8 -58.6 42.9 -58.6 38.1 -40.15 37.2 -40.35 32.85 -41.55 37.8 -58.4 42.3 -60.6 M36.25 -35.7 L36.3 -35.15 36.3 -35.0 36.35 -34.85 31.65 -37.35 31.65 -37.4 32.95 -37.2 37.0 -36.2 36.75 -35.35 36.25 -35.7 M37.15 -36.8 L34.2 -37.45 31.85 -38.05 32.6 -40.45 34.85 -39.75 37.8 -39.05 37.15 -36.8 M34.25 -56.7 L35.9 -57.45 30.95 -42.25 29.9 -42.75 26.65 -44.15 27.0 -44.6 27.2 -44.75 27.35 -45.1 25.5 -45.35 24.65 -45.2 24.15 -44.8 24.1 -44.6 Q23.95 -43.8 26.4 -42.95 L30.05 -41.35 30.5 -41.15 29.75 -38.65 29.35 -38.65 29.3 -38.65 Q24.35 -41.7 21.55 -44.95 L23.1 -51.25 27.95 -53.55 29.05 -52.8 29.2 -52.75 29.3 -52.7 Q31.05 -52.0 32.55 -53.05 L33.05 -53.5 Q34.05 -54.45 34.25 -56.2 L34.25 -56.7" fill="#fff382" fill-rule="evenodd" stroke="none"/>
    <path d="M56.85 -27.95 L49.8 -29.75 50.8 -29.75 50.85 -29.75 56.85 -27.95" fill="#bdbb8f" fill-rule="evenodd" stroke="none"/>
    <path d="M18.5 -49.0 L19.05 -51.85 19.1 -52.35 19.15 -53.6 19.1 -53.65 19.05 -53.7 18.55 -53.75 17.65 -52.9 18.0 -52.1 17.8 -49.65 17.7 -48.65 Q16.3 -48.25 15.1 -49.05 L13.85 -50.35 13.5 -50.75 13.2 -51.1 12.7 -52.1 11.4 -54.95 Q9.95 -58.8 9.5 -61.0 L10.35 -67.65 Q11.3 -69.15 13.3 -70.7 L13.35 -70.7 13.95 -71.05 15.2 -71.4 18.7 -70.1 25.85 -67.55 26.9 -67.15 26.8 -66.65 24.65 -67.65 Q23.5 -65.4 22.65 -61.95 L23.3 -62.25 23.6 -62.3 25.75 -62.55 23.1 -51.25 18.5 -49.0" fill="#ffed4f" fill-rule="evenodd" stroke="none"/>
    <path d="M30.9 -38.2 L30.75 -38.25 29.75 -38.65 30.5 -41.15 31.0 -41.0 31.2 -40.9 32.6 -40.45 31.85 -38.05 30.9 -38.2 M37.8 -58.4 L32.85 -41.55 32.05 -41.85 30.95 -42.25 35.9 -57.45 37.8 -58.4 M31.4 -37.45 L31.65 -37.4 31.65 -37.35 31.4 -37.45" fill="#fffce2" fill-rule="evenodd" stroke="none"/>
    <path d="M31.35 -37.5 L31.65 -37.45 31.65 -37.4 31.4 -37.45 31.35 -37.5 M31.8 -38.0 L30.9 -38.2 31.85 -38.05 31.8 -38.0 M30.75 -38.25 L29.7 -38.55 29.75 -38.65 30.75 -38.25 M30.95 -42.25 L32.05 -41.85 30.95 -42.25 M31.0 -41.0 L30.5 -41.15 31.0 -41.0" fill="#eae9e3" fill-rule="evenodd" stroke="none"/>
    <path d="M31.55 -36.95 L31.0 -37.25 30.85 -37.35 30.85 -37.4 30.65 -37.55 30.6 -37.6 31.35 -37.5 31.4 -37.45 31.65 -37.35 31.55 -36.95" fill="#fff9c2" fill-rule="evenodd" stroke="none"/>
    <path d="M39.45 -64.1 L41.25 -70.15 40.55 -71.55 38.3 -64.5 27.2 -68.35 28.95 -75.7 46.1 -70.6 44.05 -62.65 43.05 -62.95 39.45 -64.1" fill="#cbcbbb" fill-rule="evenodd" stroke="none"/>
    <path d="M38.3 -64.5 L40.55 -71.55 41.25 -70.15 39.45 -64.1 38.3 -64.5" fill="#f3f3ef" fill-rule="evenodd" stroke="none"/>
    <path d="M27.7 -66.9 L34.45 -64.65 35.15 -64.4 35.45 -64.3 35.5 -64.3 35.55 -64.25 35.6 -64.25 36.75 -63.9 37.9 -63.5 37.65 -62.8 37.5 -62.8 36.8 -62.95 36.55 -63.0 36.25 -63.1 35.2 -63.4 34.05 -63.7 33.85 -63.8 Q30.7 -64.85 26.8 -66.65 L26.9 -67.15 27.7 -66.9 M40.35 -62.75 L43.4 -61.8 42.3 -61.95 42.3 -61.85 42.3 -61.55 42.3 -60.6 37.8 -58.4 39.2 -63.1 40.35 -62.75 M36.7 -59.65 L35.9 -57.45 34.25 -56.7 Q34.25 -57.85 33.8 -58.7 L32.45 -59.95 31.25 -60.4 Q29.65 -60.65 28.6 -59.75 L28.35 -59.55 Q27.15 -58.5 27.0 -56.8 L26.95 -56.25 26.95 -56.15 26.95 -56.05 26.95 -55.95 26.95 -55.85 27.5 -54.15 27.85 -53.7 27.95 -53.55 23.1 -51.25 25.75 -62.55 27.25 -62.4 31.25 -61.35 36.7 -59.65" fill="#fff7a9" fill-rule="evenodd" stroke="none"/>
    <path d="M43.05 -62.95 L44.05 -62.65 43.05 -62.95 M42.35 -60.6 L42.3 -60.6 42.3 -61.55 42.35 -60.6 M39.2 -63.1 L40.35 -62.75 39.2 -63.1" fill="#c1bfb0" fill-rule="evenodd" stroke="none"/>
    <path d="M60.9 -59.35 L59.5 -59.45 60.9 -59.35 M63.5 -28.15 L64.45 -29.3 63.7 -28.15 63.5 -28.15 M52.25 -29.85 L51.05 -29.75 51.0 -29.75 52.25 -29.85" fill="#4c4b3e" fill-rule="evenodd" stroke="none"/>
    <path d="M66.3 -28.3 L66.25 -28.25 64.9 -28.15 Q66.5 -30.15 65.15 -32.45 63.0 -36.1 59.25 -38.45 L63.25 -58.15 73.75 -59.3 75.2 -65.65 76.7 -65.95 66.3 -28.3" fill="#d9d6b1" fill-rule="evenodd" stroke="none"/>
    <path d="M59.5 -59.45 L61.85 -66.2 74.05 -65.5 72.9 -59.9 65.1 -59.05 60.9 -59.35 59.5 -59.45 M64.45 -29.3 L63.5 -28.15 51.05 -29.75 52.25 -29.85 53.15 -29.9 Q55.45 -30.05 57.15 -31.25 57.75 -31.6 57.95 -32.2 58.7 -34.6 59.05 -37.15 L62.35 -34.45 Q65.05 -32.35 64.45 -29.3" fill="#777763" fill-rule="evenodd" stroke="none"/>
    <path d="M59.15 -58.5 L62.2 -58.15 57.75 -36.4 Q57.15 -33.45 57.25 -32.65 55.85 -30.9 50.75 -30.75 L49.75 -30.75 59.15 -58.5 M59.5 -45.8 L58.65 -46.85 55.9 -35.6 54.65 -33.35 55.25 -32.55 59.5 -45.8" fill="#d9ca37" fill-rule="evenodd" stroke="none"/>
    <path d="M37.65 -62.8 L37.9 -63.5 39.2 -63.1 37.8 -58.4 35.9 -57.45 36.7 -59.65 Q37.35 -60.15 38.3 -62.65 L38.25 -62.65 38.1 -62.7 37.65 -62.8" fill="#fffdeb" fill-rule="evenodd" stroke="none"/>
    <path d="M37.9 -63.55 L39.2 -63.1 37.9 -63.5 37.9 -63.55" fill="#f1f0ec" fill-rule="evenodd" stroke="none"/>
    <path d="M29.3 -57.65 L29.3 -58.5 29.55 -58.95 Q30.05 -59.45 30.8 -59.45 L31.15 -59.45 Q32.0 -59.3 32.35 -58.4 L32.45 -57.8 32.1 -56.85 30.4 -56.5 Q29.7 -56.7 29.4 -57.4 L29.4 -57.45 29.35 -57.5 29.35 -57.55 29.3 -57.65" fill="#fffde9" fill-rule="evenodd" stroke="none"/>
  </g>
</svg>
