<?xml version="1.0" encoding="UTF-8" standalone="no"?>
<svg xmlns:xlink="http://www.w3.org/1999/xlink" height="1205.95px" width="736.6px" xmlns="http://www.w3.org/2000/svg">
  <g transform="matrix(1.0, 0.0, 0.0, 1.0, 50.65, 423.65)">
    <path d="M279.2 -412.15 Q300.25 -417.05 321.75 -416.9 343.3 -416.75 363.5 -409.4 382.8 -402.35 399.4 -390.55 L403.65 -387.25 Q380.5 -395.75 352.3 -399.55 L324.35 -400.8 Q303.95 -400.9 288.2 -396.3 L272.55 -392.25 Q268.4 -399.85 276.4 -409.4 L279.2 -412.15 M193.75 -357.05 Q187.25 -352.7 181.35 -348.0 189.05 -359.05 198.5 -368.45 195.7 -363.1 193.75 -357.05 M310.05 -355.6 L302.6 -394.95 332.65 -397.45 Q339.35 -364.65 341.15 -358.5 326.35 -358.2 310.05 -355.6 M435.3 -294.75 Q417.45 -305.65 397.35 -311.05 376.35 -316.6 354.7 -317.95 333.4 -319.5 312.25 -316.7 292.6 -314.15 273.35 -309.3 253.0 -304.25 234.25 -295.2 216.0 -286.45 198.35 -276.5 221.15 -299.9 273.75 -315.5 332.95 -329.75 379.4 -320.85 414.55 -310.55 435.2 -294.9 L435.3 -294.75 M483.65 -235.2 L478.7 -177.35 453.6 -188.25 452.9 -187.75 Q425.8 -175.3 397.0 -163.5 L396.2 -163.3 Q362.25 -163.5 328.7 -157.25 323.8 -172.8 327.35 -191.7 347.35 -192.8 367.35 -191.2 L410.0 -187.3 444.55 -184.25 440.65 -289.0 483.65 -235.2 M190.2 -86.7 L187.75 -79.85 159.8 -187.4 160.95 -189.75 163.7 -202.05 190.2 -86.7 M144.8 -234.4 L145.75 -228.15 143.1 -214.1 Q142.95 -224.55 144.8 -234.4 M268.75 -259.7 Q268.75 -264.75 274.05 -264.75 279.4 -264.75 279.4 -259.7 279.4 -254.7 274.05 -254.7 268.75 -254.7 268.75 -259.7 M157.15 -53.05 L153.6 -48.6 155.35 -58.35 157.15 -53.05 M149.75 -28.8 L152.0 -41.15 153.6 -38.6 160.15 -19.15 149.15 30.2 138.75 36.1 Q147.9 -8.9 149.75 -28.8 M35.55 180.6 Q17.05 191.9 2.1 207.6 -12.0 222.5 -19.1 241.7 L-20.6 246.1 Q-26.55 207.35 -20.8 168.6 -16.55 140.05 -6.55 112.9 -2.2 101.05 3.7 89.8 11.55 74.85 22.2 61.6 52.15 24.2 90.85 -4.15 108.65 -17.15 128.15 -28.5 20.45 67.65 35.55 180.6 M333.05 -131.75 L377.1 -149.9 374.45 -142.2 373.1 -141.65 Q353.4 -127.75 352.55 -99.7 352.45 -95.9 355.65 -93.75 L343.45 -56.55 333.1 -42.7 331.35 -42.1 288.25 36.15 279.1 38.5 281.3 -2.9 293.25 -22.6 333.05 -131.75 M366.7 -358.1 L379.8 -357.1 374.5 -356.15 366.9 -357.2 366.7 -358.1 M390.25 -352.8 L390.45 -353.85 392.75 -352.15 390.25 -352.8 M362.05 -268.0 Q362.05 -263.25 356.75 -263.25 351.4 -263.25 351.4 -268.0 351.4 -273.0 356.75 -273.0 362.05 -273.0 362.05 -268.0 M184.05 187.0 Q189.8 205.05 198.75 226.9 L323.35 214.5 Q333.7 194.4 348.75 151.6 355.25 152.75 361.15 146.3 L369.15 147.15 363.55 195.9 Q362.95 202.4 363.25 204.15 365.3 210.05 375.05 209.15 L422.0 204.45 Q434.7 201.2 437.05 184.35 L442.05 154.25 457.7 154.25 Q460.7 153.95 460.7 147.75 L460.7 131.8 460.1 129.45 460.1 111.75 448.85 110.55 452.7 86.05 Q453.9 80.15 453.0 77.5 451.25 72.45 444.15 72.45 L395.7 81.6 Q385.95 83.7 384.2 84.55 374.15 89.6 374.15 103.15 373.55 103.15 373.25 101.7 370.6 97.85 365.6 97.85 375.95 60.05 382.15 23.75 L362.95 22.85 364.4 17.85 Q370.9 18.15 375.35 14.3 L378.0 12.25 381.85 11.95 Q380.65 14.9 381.85 17.55 383.0 20.5 385.95 21.1 387.15 21.4 399.85 21.4 L413.15 21.1 Q420.8 21.1 424.65 18.45 428.8 15.2 430.55 10.15 L453.6 9.55 452.4 -37.1 448.85 -37.1 Q451.5 -45.35 444.45 -47.1 L430.55 -46.55 416.1 -45.95 Q407.55 -45.35 404.0 -42.7 399.55 -39.15 397.8 -33.85 L391.0 -33.55 Q389.5 -37.65 386.55 -39.45 L377.7 -39.75 380.35 -46.85 Q382.15 -52.75 380.65 -56.3 L377.4 -60.1 391.6 -96.15 Q398.95 -95.55 404.55 -101.15 406.95 -103.8 410.5 -113.55 L417.25 -133.65 Q420.8 -143.4 416.1 -146.05 L411.35 -146.35 419.65 -167.6 449.15 -179.4 449.45 -179.4 460.4 106.7 Q460.7 117.65 465.4 200.9 L170.55 230.95 170.15 230.95 184.05 187.0 M484.9 -162.55 Q467.75 -152.4 461.6 -133.1 456.8 -118.2 457.1 -102.35 L453.6 -179.1 484.9 -162.55 M467.3 -135.8 Q476.6 -158.05 498.7 -156.1 519.55 -154.05 535.05 -138.15 549.0 -123.95 563.8 -110.05 L598.85 -76.95 Q614.4 -61.9 628.3 -45.35 641.1 -30.0 644.8 -9.95 L649.0 12.35 Q652.85 32.05 655.4 51.85 658.1 72.9 659.95 94.0 L663.35 134.2 Q664.45 147.55 664.25 159.4 637.35 145.15 606.55 143.6 L595.4 142.55 599.45 142.15 Q606.25 63.0 593.85 27.9 588.25 12.25 573.2 -17.6 555.45 -52.75 537.75 -80.5 488.7 -157.0 467.3 -135.8 M391.9 -24.5 L394.55 -24.7 384.8 3.05 382.7 3.05 382.75 3.0 Q389.5 -6.25 391.55 -19.65 391.95 -22.2 391.9 -24.5 M566.55 177.4 L566.4 179.65 Q548.35 182.0 535.95 200.9 535.4 201.2 535.1 200.0 L470.15 200.3 457.15 -99.4 458.45 -93.3 Q455.9 -22.3 510.6 24.05 522.7 38.8 525.05 95.2 526.8 144.8 523.55 151.3 522.7 152.75 525.05 157.2 527.4 162.5 532.45 166.95 545.7 179.05 566.55 177.4 M579.65 181.4 L569.05 179.65 570.9 157.45 581.7 153.35 579.65 181.4 M639.4 162.55 L641.7 166.45 637.1 194.7 639.4 162.55 M602.45 187.6 L600.4 187.15 599.35 186.5 602.5 187.3 602.45 187.6 M317.4 278.3 L512.05 260.85 510.6 279.75 513.25 284.15 Q519.45 319.2 542.2 347.15 L317.25 355.65 Q310.15 336.2 310.5 315.35 310.85 296.25 317.4 278.3 M580.85 276.35 L586.95 270.95 585.6 294.8 580.85 276.35 M605.9 249.2 Q607.05 228.15 601.9 207.55 599.2 196.7 591.7 188.7 618.2 194.65 644.9 201.8 648.9 202.75 651.9 205.5 L653.0 206.75 Q664.05 222.35 664.6 241.65 L607.7 246.55 605.9 249.2 M665.1 277.8 Q658.7 287.5 648.15 293.7 629.3 304.85 609.45 314.1 603.55 316.85 598.75 316.95 L598.95 307.95 Q606.5 309.7 637.55 293.3 658.1 282.4 665.1 277.8 M131.6 132.15 L125.55 133.3 117.0 144.5 128.2 85.15 131.75 83.4 Q132.85 87.6 136.4 87.8 L131.6 132.15 M216.5 168.7 Q239.05 165.8 258.7 153.95 L259.9 157.2 Q239.9 168.8 217.65 171.4 L216.5 168.7 M217.35 166.6 L225.35 160.75 219.45 167.25 217.35 166.6 M269.65 143.35 L294.75 138.6 273.75 155.15 270.5 152.75 268.15 153.05 267.25 150.1 Q267.25 149.55 267.85 148.95 L269.05 147.75 269.65 143.35 M264.3 151.3 L265.8 150.4 267.0 153.65 265.5 154.55 264.3 151.3 M262.55 151.9 Q263.45 152.5 264.0 154.85 L261.05 156.3 260.2 153.35 Q260.75 152.75 262.55 151.9 M113.0 170.65 L114.6 156.9 114.9 163.4 117.55 163.15 117.55 164.55 113.55 166.65 113.0 170.65 M37.05 261.55 L31.65 273.25 16.5 258.95 18.2 243.6 37.05 261.55 M236.7 285.55 Q231.45 305.35 231.45 325.8 231.45 342.45 234.45 358.8 L106.3 363.55 106.2 354.65 Q159.65 339.4 192.35 289.55 L236.7 285.55 M64.25 321.7 Q41.45 313.15 27.2 292.75 L49.25 246.0 Q52.85 239.7 56.65 233.9 68.55 215.65 83.9 200.0 96.7 186.95 112.55 178.15 L143.4 204.6 Q64.7 284.5 64.25 321.7 M178.8 258.25 L181.15 263.0 181.15 263.05 178.8 258.25 M138.55 303.55 L136.6 305.15 125.85 311.85 120.25 314.55 Q128.8 309.85 138.55 303.55 M246.55 383.6 Q239.6 398.1 233.65 412.95 227.4 428.6 222.1 444.6 230.75 408.55 246.55 383.6 M124.25 582.85 L33.1 577.1 Q32.35 562.3 32.1 547.55 31.8 532.35 32.35 517.15 32.65 509.5 33.9 501.9 37.2 481.4 42.8 461.7 48.6 441.25 56.45 421.35 64.85 400.1 76.45 380.6 81.2 372.6 90.3 371.3 176.35 442.4 124.25 582.85 M260.25 374.35 L257.55 371.55 259.9 371.0 260.25 374.35 M257.55 371.55 Q192.65 552.25 274.25 700.0 L174.55 755.1 141.5 596.25 216.4 595.35 216.65 595.3 Q214.8 581.15 213.3 566.95 212.65 561.15 212.65 555.25 L212.7 552.35 212.7 549.55 212.7 546.9 Q212.65 536.65 213.85 526.35 L216.5 501.9 Q221.8 450.6 240.05 402.6 246.45 385.75 257.55 371.55 M-35.9 590.6 L-37.45 577.35 128.8 593.9 132.9 610.4 -35.9 590.6 M536.2 624.75 L415.2 620.2 Q407.55 620.2 406.95 617.25 L407.55 615.15 Q406.65 613.7 406.65 608.4 L404.55 588.0 Q399.25 539.3 394.25 508.0 385.1 448.95 374.45 422.65 L369.75 412.6 374.6 412.4 Q523.25 436.75 536.2 624.75 M392.9 553.7 L399.55 623.45 436.35 633.7 442.3 759.7 378.3 696.25 381.25 679.25 381.2 679.05 Q397.3 628.35 392.9 553.7 M446.25 646.85 L445.9 634.05 648.55 640.05 673.45 640.15 675.05 652.0 446.25 646.85" fill="#ffffff" fill-rule="evenodd" stroke="none"/>
    <path d="M324.35 -400.8 L352.3 -399.55 Q380.5 -395.75 403.65 -387.25 L399.4 -390.55 Q382.8 -402.35 363.5 -409.4 343.3 -416.75 321.75 -416.9 300.25 -417.05 279.2 -412.15 267.55 -409.45 255.75 -405.0 221.85 -391.75 198.5 -368.45 189.05 -359.05 181.35 -348.0 187.25 -352.7 193.75 -357.05 225.75 -378.55 272.55 -392.25 L288.2 -396.3 Q306.1 -400.15 324.35 -400.8 M630.0 503.45 Q643.85 562.55 648.2 623.15 L685.95 629.65 684.8 761.6 444.45 782.3 364.1 695.85 Q374.45 559.7 357.9 424.15 L351.7 425.3 350.9 426.25 Q342.4 439.85 337.35 455.75 328.4 483.75 322.0 512.35 308.9 571.0 318.75 630.05 323.0 655.65 331.65 679.85 L176.6 771.95 -24.45 691.95 -30.95 689.0 -50.65 568.7 18.35 572.65 Q17.55 546.6 20.0 520.4 22.65 492.2 29.35 464.75 37.35 431.75 54.35 401.8 L56.35 398.35 60.25 391.45 Q67.75 378.1 75.6 368.55 L93.65 364.8 93.65 337.6 81.35 338.35 74.6 337.05 Q60.55 333.3 48.35 325.1 33.05 314.8 25.15 298.95 11.35 302.7 -2.6 299.2 -12.05 297.0 -17.4 289.15 -44.6 249.25 -37.95 198.2 -33.55 164.4 -23.2 132.15 -19.2 119.75 -14.15 107.6 -5.6 86.85 6.95 68.3 8.55 65.9 10.3 63.6 16.6 55.45 23.4 47.8 75.05 -10.25 144.45 -47.1 146.0 -54.55 149.7 -60.8 158.75 -75.95 177.65 -79.35 L153.3 -185.9 141.65 -186.45 126.4 -274.8 Q130.6 -291.15 139.7 -305.05 L140.0 -305.55 Q170.55 -349.95 210.5 -385.65 233.9 -406.45 263.5 -416.05 275.7 -419.9 288.7 -422.0 331.85 -428.75 370.05 -408.3 409.75 -386.95 448.95 -364.35 466.4 -354.3 477.35 -338.3 L477.7 -337.6 Q488.15 -312.15 492.15 -284.2 494.9 -264.95 505.25 -243.75 L489.6 -235.5 482.25 -174.95 Q507.65 -168.05 528.1 -151.85 587.65 -104.65 638.1 -47.95 645.05 -40.15 647.7 -29.55 L648.85 -25.0 Q661.7 23.2 667.3 72.45 L668.2 80.3 Q669.35 89.85 671.15 99.5 677.4 133.55 671.8 166.05 L669.75 166.65 Q662.45 177.4 647.9 178.15 L647.0 195.3 Q659.2 199.1 664.45 210.7 667.45 217.35 668.95 224.65 673.15 245.65 672.35 267.05 L672.1 271.65 Q671.9 275.3 669.65 278.05 644.65 308.2 607.0 320.9 L604.85 322.65 590.6 324.35 Q592.95 341.0 595.55 357.65 597.95 373.0 598.4 389.0 598.9 406.45 606.9 422.4 L630.0 503.45 M310.05 -355.6 Q326.35 -358.2 341.15 -358.5 L366.9 -357.2 374.5 -356.15 Q382.6 -354.8 390.25 -352.8 L392.75 -352.15 Q443.65 -337.05 475.9 -294.45 484.45 -283.2 491.35 -271.0 L491.5 -271.0 Q482.8 -301.05 471.95 -330.4 469.35 -337.45 463.5 -342.85 448.55 -356.55 431.55 -367.3 413.8 -378.55 394.35 -386.2 376.55 -393.15 357.6 -395.85 345.3 -397.55 332.65 -397.45 L302.6 -394.95 Q289.0 -392.9 275.2 -389.1 L263.1 -385.45 243.05 -378.05 234.5 -374.9 Q219.55 -368.4 206.75 -360.7 180.45 -345.05 162.45 -324.95 145.15 -306.55 137.25 -286.75 L135.1 -280.45 Q134.1 -277.35 134.4 -274.3 137.75 -241.15 142.35 -208.05 L143.1 -214.1 145.75 -228.15 Q156.35 -274.05 191.7 -305.5 217.55 -328.2 253.65 -341.35 268.7 -346.9 285.55 -350.7 L310.05 -355.6 M198.35 -276.5 Q216.0 -286.45 234.25 -295.2 253.0 -304.25 273.35 -309.3 292.6 -314.15 312.25 -316.7 333.4 -319.5 354.7 -317.95 376.35 -316.6 397.35 -311.05 417.45 -305.65 435.3 -294.75 L440.65 -289.0 444.55 -184.25 410.0 -187.3 367.35 -191.2 Q347.35 -192.8 327.35 -191.7 L313.9 -189.8 Q293.05 -186.65 273.3 -179.45 254.45 -172.45 237.85 -161.55 217.0 -147.75 200.4 -144.25 L200.15 -144.9 180.0 -255.35 Q171.7 -241.5 167.0 -226.0 161.6 -208.3 160.95 -189.75 L159.8 -187.4 187.75 -79.85 190.2 -86.7 Q195.65 -102.65 209.8 -112.25 226.9 -123.8 245.8 -132.25 L248.5 -133.45 Q284.6 -149.1 328.7 -157.25 362.25 -163.5 396.2 -163.3 L397.0 -163.5 Q425.8 -175.3 452.9 -187.75 L453.6 -188.25 478.7 -177.35 483.65 -235.2 470.0 -260.6 Q455.0 -283.3 434.4 -300.15 400.15 -328.2 353.8 -332.65 331.35 -334.7 301.5 -329.4 232.4 -317.0 194.0 -274.35 L190.5 -270.05 198.35 -276.5 M333.1 -336.8 L360.2 -335.8 377.25 -332.7 405.45 -322.6 426.4 -310.3 Q444.1 -298.0 458.3 -281.7 470.85 -267.25 480.1 -250.65 L485.4 -240.4 498.75 -246.15 Q491.95 -264.0 481.85 -280.1 470.75 -297.8 455.7 -312.15 442.45 -324.75 426.65 -334.05 406.5 -345.85 383.6 -350.75 348.45 -358.15 312.95 -352.55 292.55 -349.5 272.85 -343.85 257.4 -339.45 242.7 -333.1 230.9 -327.95 219.75 -321.4 206.3 -313.4 194.6 -303.1 181.05 -291.2 170.85 -276.35 160.3 -261.0 153.85 -243.3 144.8 -218.3 145.6 -191.5 L157.45 -191.5 Q157.95 -202.5 160.1 -213.05 164.15 -233.3 173.95 -251.55 183.6 -269.55 197.9 -283.75 212.7 -298.45 230.85 -308.45 248.05 -317.95 266.35 -324.25 297.6 -335.0 333.1 -336.8 M234.75 -286.95 L237.75 -288.35 Q282.65 -309.3 329.85 -309.3 355.2 -309.3 380.55 -304.15 L429.95 -288.65 435.6 -290.15 Q432.35 -292.35 428.95 -294.15 L426.5 -295.45 Q416.0 -300.9 404.75 -304.6 381.55 -312.45 357.15 -314.25 308.45 -316.5 261.75 -302.8 231.55 -294.05 205.05 -276.8 193.95 -269.6 185.6 -259.4 L234.75 -286.95 M257.0 -272.3 L229.2 -265.6 230.65 -281.0 193.45 -257.65 210.3 -151.95 222.15 -159.0 Q266.85 -184.6 306.25 -192.4 320.7 -195.35 336.95 -195.95 L369.75 -194.45 Q392.45 -193.6 416.35 -190.9 L432.65 -188.85 427.9 -285.1 422.9 -287.75 Q405.45 -295.15 380.95 -300.45 387.15 -289.55 389.2 -282.75 379.1 -287.0 358.0 -283.15 L322.75 -276.3 318.0 -283.55 316.6 -286.6 Q330.45 -287.75 348.2 -292.5 369.75 -298.4 376.8 -301.35 331.65 -308.45 301.5 -304.0 269.05 -299.0 240.4 -285.4 279.95 -282.15 298.25 -284.5 L298.0 -281.45 295.5 -273.45 257.0 -272.3 M189.9 -255.55 L184.3 -255.3 202.9 -147.2 207.15 -150.55 189.9 -255.55 M287.35 -255.9 Q287.35 -251.15 285.0 -247.9 279.65 -240.5 268.75 -240.8 257.8 -241.1 254.0 -249.7 251.35 -255.6 255.45 -262.35 260.2 -268.6 268.75 -269.45 278.8 -270.65 284.4 -263.85 287.05 -260.6 287.35 -255.9 M217.75 -231.9 L219.75 -225.15 Q220.4 -199.05 227.85 -176.1 220.1 -176.65 220.15 -186.3 220.2 -208.95 211.45 -228.1 L213.25 -230.8 217.75 -231.9 M268.75 -259.7 Q268.75 -254.7 274.05 -254.7 279.4 -254.7 279.4 -259.7 279.4 -264.75 274.05 -264.75 268.75 -264.75 268.75 -259.7 M264.5 -199.65 L269.65 -201.25 Q321.5 -201.05 370.05 -218.95 L368.1 -222.85 382.7 -220.15 382.3 -219.15 Q381.7 -218.15 380.75 -217.75 365.8 -211.25 350.3 -206.45 306.4 -193.1 264.5 -199.65 M152.0 -41.15 L149.75 -28.8 138.75 36.1 149.15 30.2 154.2 34.95 162.75 29.95 172.1 19.75 173.35 16.65 173.9 2.45 166.1 -20.0 160.15 -19.15 153.6 -38.6 152.4 -43.3 152.0 -41.15 M157.15 -53.05 L155.35 -58.35 153.6 -48.6 157.15 -53.05 M147.7 -37.35 L148.7 -42.3 128.15 -28.5 Q108.65 -17.15 90.85 -4.15 52.15 24.2 22.2 61.6 11.55 74.85 3.7 89.8 -2.2 101.05 -6.55 112.9 -16.55 140.05 -20.8 168.6 -26.55 207.35 -20.6 246.1 L-19.1 241.7 Q-12.0 222.5 2.1 207.6 17.05 191.9 35.55 180.6 50.2 171.65 63.55 166.95 78.05 161.65 90.95 160.75 L110.2 161.95 147.7 -37.35 M262.75 -122.05 L267.65 -123.9 320.15 -140.0 324.75 -141.05 333.45 -142.55 Q363.45 -146.8 390.4 -160.8 L329.4 -153.9 309.2 -149.6 Q289.8 -144.9 270.9 -139.0 251.15 -132.9 232.95 -122.95 L225.25 -118.8 Q209.5 -110.8 198.0 -97.8 L191.95 -86.4 190.8 -77.55 211.75 -86.1 Q217.7 -98.55 229.55 -105.6 245.7 -115.2 262.75 -122.05 M274.05 -103.8 L265.8 -100.55 264.9 -73.7 272.9 -76.65 274.05 -103.8 M333.05 -131.75 L302.0 -119.0 289.85 -113.4 Q295.1 -101.25 289.6 -89.0 288.4 -86.3 286.75 -83.75 306.7 -62.45 295.4 -42.0 290.9 -33.8 282.65 -28.8 L281.3 -2.9 279.1 38.5 288.25 36.15 331.35 -42.1 333.1 -42.7 343.45 -56.55 355.65 -93.75 Q352.45 -95.9 352.55 -99.7 353.4 -127.75 373.1 -141.65 L374.45 -142.2 377.1 -149.9 333.05 -131.75 M312.15 -135.1 L275.25 -123.6 Q248.95 -114.75 232.7 -105.6 L227.1 -101.75 Q225.95 -101.15 225.35 -100.55 216.5 -92.9 214.1 -87.3 L351.15 -144.55 312.15 -135.1 M283.8 -104.4 L277.3 -102.05 276.7 -90.8 278.5 -88.75 279.65 -86.1 Q287.05 -89.65 283.8 -104.4 M191.05 -71.95 L195.2 -59.25 Q202.05 -46.35 192.85 -36.8 L199.95 -13.45 205.45 -11.95 209.1 -2.85 238.65 48.55 248.1 46.5 251.95 -71.5 250.55 -72.95 Q250.1 -73.4 249.95 -73.95 246.65 -85.8 250.45 -97.9 219.7 -85.2 190.0 -72.25 L191.05 -71.95 M162.15 -61.6 L163.65 -57.15 175.45 -67.2 162.15 -61.6 M162.85 -28.25 L163.35 -26.15 191.4 -44.15 186.6 -64.5 178.2 -59.35 158.6 -46.25 162.85 -28.25 M197.6 -5.2 L201.25 -3.8 Q204.7 2.45 207.1 -6.05 L206.2 -7.4 Q197.35 -15.2 186.65 -5.2 171.05 1.05 175.15 15.75 L179.35 11.65 179.15 5.85 197.6 -5.2 M173.65 -24.7 L180.15 -3.15 192.85 -11.1 186.05 -32.95 173.65 -24.7 M268.15 -5.8 L264.3 -1.05 256.65 1.3 256.35 6.05 264.3 3.95 267.85 6.6 273.75 5.15 274.05 -7.55 268.15 -5.8 M256.65 -1.65 L262.55 -3.15 266.4 -8.15 274.65 -10.5 274.95 -15.55 266.4 -13.15 262.85 -15.8 257.25 -14.35 256.65 -1.65 M261.35 -48.6 Q259.6 -48.0 258.7 -47.4 L258.4 -42.1 262.25 -43.3 261.35 -48.6 M264.7 -26.7 L264.7 -40.35 258.1 -40.35 258.1 -26.7 264.7 -26.7 M274.35 -28.05 L267.85 -28.5 265.5 -25.55 257.55 -22.9 257.55 -17.9 265.5 -20.25 268.6 -17.65 274.95 -19.35 274.35 -28.05 M258.7 -50.95 L261.05 -51.55 259.3 -61.3 258.7 -50.95 M262.25 -96.75 L256.05 -94.35 256.75 -79.3 Q257.55 -79.0 257.75 -79.3 264.75 -87.0 262.25 -96.75 M276.7 -85.5 L275.35 -74.45 262.3 -69.55 261.6 -79.15 Q261.0 -76.65 260.95 -74.25 260.55 -49.8 271.0 -30.75 L271.8 -30.75 Q298.85 -37.5 288.25 -58.35 L276.7 -85.5 M365.6 -272.1 Q371.2 -265.9 367.95 -258.55 362.95 -248.2 349.05 -250.25 334.9 -252.35 334.3 -263.85 334.0 -266.5 335.2 -269.15 338.45 -277.15 349.05 -278.0 359.7 -279.2 365.6 -272.1 M362.05 -268.0 Q362.05 -273.0 356.75 -273.0 351.4 -273.0 351.4 -268.0 351.4 -263.25 356.75 -263.25 362.05 -263.25 362.05 -268.0 M436.75 -286.9 L431.45 -285.4 436.15 -188.55 441.2 -187.65 436.75 -286.9 M419.2 -204.55 L414.9 -202.55 Q415.4 -228.6 406.25 -253.1 L414.0 -250.85 Q412.95 -248.65 413.15 -246.6 415.3 -227.4 419.95 -208.6 L419.2 -204.55 M170.55 230.95 L465.4 200.9 Q460.7 117.65 460.4 106.7 L449.45 -179.4 449.15 -179.4 419.65 -167.6 411.35 -146.35 416.1 -146.05 Q420.8 -143.4 417.25 -133.65 L410.5 -113.55 Q406.95 -103.8 404.55 -101.15 398.95 -95.55 391.6 -96.15 L377.4 -60.1 380.65 -56.3 Q382.15 -52.75 380.35 -46.85 L377.7 -39.75 386.55 -39.45 Q389.5 -37.65 391.0 -33.55 L397.8 -33.85 Q399.55 -39.15 404.0 -42.7 407.55 -45.35 416.1 -45.95 L430.55 -46.55 444.45 -47.1 Q451.5 -45.35 448.85 -37.1 L452.4 -37.1 453.6 9.55 430.55 10.15 Q428.8 15.2 424.65 18.45 420.8 21.1 413.15 21.1 L399.85 21.4 Q387.15 21.4 385.95 21.1 383.0 20.5 381.85 17.55 380.65 14.9 381.85 11.95 L378.0 12.25 375.35 14.3 Q370.9 18.15 364.4 17.85 L362.95 22.85 382.15 23.75 Q375.95 60.05 365.6 97.85 370.6 97.85 373.25 101.7 373.55 103.15 374.15 103.15 374.15 89.6 384.2 84.55 385.95 83.7 395.7 81.6 L444.15 72.45 Q451.25 72.45 453.0 77.5 453.9 80.15 452.7 86.05 L448.85 110.55 460.1 111.75 460.1 129.45 460.7 131.8 460.7 147.75 Q460.7 153.95 457.7 154.25 L442.05 154.25 437.05 184.35 Q434.7 201.2 422.0 204.45 L375.05 209.15 Q365.3 210.05 363.25 204.15 362.95 202.4 363.55 195.9 L369.15 147.15 361.15 146.3 Q355.25 152.75 348.75 151.6 333.7 194.4 323.35 214.5 L198.75 226.9 Q189.8 205.05 184.05 187.0 L179.6 177.75 171.3 175.5 160.4 180.25 160.2 219.45 168.25 231.15 169.7 231.0 169.75 231.0 170.55 230.95 M484.9 -162.55 L453.6 -179.1 457.1 -102.35 Q456.8 -118.2 461.6 -133.1 467.75 -152.4 484.9 -162.55 M467.3 -135.8 L464.55 -127.6 Q458.0 -107.65 462.9 -87.1 467.15 -69.25 477.3 -53.8 488.8 -36.2 502.65 -20.5 516.95 -4.3 531.75 11.5 542.9 23.3 547.7 38.2 553.95 57.75 550.25 78.95 544.6 111.1 540.6 143.55 L540.1 147.45 Q556.7 139.4 595.35 142.55 L595.4 142.55 606.55 143.6 Q637.35 145.15 664.25 159.4 664.45 147.55 663.35 134.2 L659.95 94.0 Q658.1 72.9 655.4 51.85 652.85 32.05 649.0 12.35 L644.8 -9.95 Q641.1 -30.0 628.3 -45.35 614.4 -61.9 598.85 -76.95 L563.8 -110.05 Q549.0 -123.95 535.05 -138.15 519.55 -154.05 498.7 -156.1 476.6 -158.05 467.3 -135.8 M383.75 -143.8 L401.9 -145.15 404.55 -152.85 383.75 -143.8 M370.3 -132.15 L361.15 -102.65 399.25 -105.9 409.6 -136.3 370.3 -132.15 M337.85 -6.95 Q334.9 -4.0 335.2 -0.45 335.75 3.35 339.3 3.95 342.85 4.25 345.8 1.0 349.05 -1.95 348.75 -5.8 348.75 -10.5 343.75 -9.9 340.5 -9.6 337.85 -6.95 M346.1 -42.4 L362.35 -43.0 365.0 -49.5 348.45 -48.3 346.1 -42.4 M378.6 -50.75 Q379.65 -59.6 370.3 -59.5 344.0 -63.5 334.3 -40.9 L340.5 -40.35 347.2 -49.95 370.7 -50.7 370.05 -42.1 377.1 -42.7 Q378.15 -46.7 378.6 -50.75 M382.4 -95.0 L365.3 -93.8 352.6 -59.8 369.45 -61.3 382.4 -95.0 M332.85 -3.0 Q348.2 -31.5 357.35 -6.1 354.5 6.0 342.75 9.35 323.2 15.0 332.85 -3.0 M391.9 -24.5 Q391.7 -32.7 385.7 -37.65 L377.2 -37.65 377.55 -33.1 383.75 -32.0 383.9 -31.6 Q385.65 -12.9 376.95 5.65 373.95 12.1 366.9 12.05 L365.0 16.05 Q367.8 15.75 370.0 14.45 377.65 9.9 382.75 3.0 L382.7 3.05 384.8 3.05 394.55 -24.7 391.9 -24.5 M382.25 -23.55 L374.45 -23.5 368.25 3.65 375.35 3.35 382.25 -23.55 M203.45 134.4 L203.6 134.9 204.1 136.25 Q220.3 101.4 254.85 89.9 265.5 86.35 275.55 86.35 307.7 86.05 323.1 111.45 354.1 40.3 367.65 -33.55 L334.9 -32.95 Q312.45 9.55 303.3 25.2 294.45 39.7 291.2 43.25 L236.75 56.7 235.1 57.1 Q230.65 52.95 226.5 45.3 L204.65 6.05 179.0 21.4 Q183.9 81.4 203.45 134.4 M224.85 84.45 L225.4 85.65 Q229.55 100.25 215.4 106.5 211.7 107.75 210.25 105.1 196.3 79.5 224.85 84.45 M566.55 177.4 L567.0 169.9 Q555.15 165.75 543.05 162.9 536.8 161.3 537.35 155.0 540.7 115.1 546.1 75.45 547.3 66.65 547.95 57.65 549.6 35.1 533.85 18.15 519.3 2.55 505.3 -13.5 L498.65 -21.05 Q485.05 -36.8 473.7 -54.35 462.05 -72.4 458.45 -93.3 L457.15 -99.4 470.15 200.3 535.1 200.0 Q535.4 201.2 535.95 200.9 548.35 182.0 566.4 179.65 L566.55 177.4 M440.0 -37.4 L407.1 -35.9 389.8 12.8 421.15 12.3 440.0 -37.4 M539.2 153.05 Q539.35 154.6 540.55 155.5 552.15 164.7 567.0 167.55 L568.6 155.95 Q571.2 154.25 574.15 153.05 590.9 146.5 608.6 146.85 642.85 147.55 643.75 173.75 652.55 173.45 660.35 169.4 663.4 167.75 664.4 164.9 652.25 150.9 631.0 147.95 609.95 145.15 588.7 143.6 566.45 142.15 545.15 148.05 L539.2 153.05 M581.7 153.35 L570.9 157.45 569.05 179.65 579.65 181.4 579.95 181.55 600.4 187.15 602.45 187.6 622.85 191.95 627.35 192.8 637.1 194.7 641.7 166.45 639.4 162.55 628.9 156.7 624.2 155.4 605.6 152.25 Q591.65 150.8 581.7 153.35 M404.0 94.3 L404.35 87.95 385.95 91.9 383.0 98.15 404.0 94.3 M360.6 31.7 L360.3 32.0 Q345.2 81.0 329.3 114.7 L326.9 120.0 328.1 123.85 Q329.85 131.5 329.85 136.25 330.15 159.25 316.6 179.35 301.25 202.1 274.05 213.0 L318.95 208.3 Q354.95 127.1 372.1 32.0 L360.6 31.7 M419.65 84.85 L409.0 87.2 408.1 93.7 418.75 91.65 419.65 84.85 M424.05 84.25 L423.2 90.75 443.25 87.2 Q445.05 81.0 440.6 81.0 L424.05 84.25 M434.1 1.0 L443.25 0.7 442.65 -21.15 434.1 1.0 M568.15 182.6 Q561.65 182.65 555.85 185.65 546.4 190.6 540.3 199.5 532.5 210.85 527.65 224.1 517.6 251.65 515.9 280.9 L523.2 255.7 Q526.9 243.0 531.95 230.5 L532.55 229.15 Q537.8 217.05 547.5 208.3 553.65 202.8 561.9 201.15 579.15 198.1 585.15 213.3 604.5 262.55 590.9 316.35 L595.45 316.45 595.55 315.5 Q596.05 299.2 599.4 283.15 602.7 267.1 603.35 250.6 604.25 228.75 598.7 207.7 592.5 184.2 568.15 182.6 M406.05 117.65 L407.25 114.7 Q409.0 107.6 401.9 108.2 393.95 108.2 392.45 115.0 391.3 121.2 397.5 121.75 L399.05 121.7 Q381.3 130.5 392.45 107.0 398.9 101.55 406.5 104.45 419.1 109.25 406.9 117.1 L406.05 117.65 M417.85 197.95 Q421.3 197.45 422.85 194.5 432.9 175.55 433.2 153.05 L442.35 91.05 382.7 102.0 371.9 201.75 374.45 202.35 Q401.5 200.75 417.85 197.95 M421.4 131.85 L421.4 119.6 431.6 119.6 431.6 131.85 421.4 131.85 M418.8 139.35 L428.7 139.35 428.7 151.3 418.8 151.3 418.8 139.35 M434.45 99.45 L434.45 112.15 424.5 112.15 424.5 99.45 434.45 99.45 M451.25 119.4 L447.4 119.1 444.0 143.45 452.05 142.7 451.25 119.4 M384.8 177.85 L395.7 172.85 Q416.55 161.9 424.35 173.45 L384.8 177.85 M383.05 191.7 L387.45 188.2 416.95 186.05 418.7 189.1 418.45 189.4 Q398.7 199.65 383.05 191.7 M354.1 138.0 L357.65 138.3 366.8 112.3 362.35 112.05 354.1 138.0 M386.85 139.2 Q391.6 134.45 398.35 133.6 404.3 133.3 407.25 136.55 410.5 140.35 408.7 145.7 407.25 150.7 402.2 154.25 396.9 157.5 391.3 157.2 384.8 156.6 383.0 151.6 380.95 145.1 386.85 139.2 M367.75 105.65 Q368.95 106.75 368.95 108.55 369.05 135.35 350.85 146.3 L351.3 150.1 Q361.4 147.65 367.2 139.15 L368.4 137.2 370.75 132.95 Q383.4 108.1 365.3 99.65 L364.1 103.25 367.75 105.65 M459.65 214.15 L459.2 204.45 170.1 233.95 175.9 243.55 185.45 259.2 460.4 230.45 459.65 214.15 M462.75 206.2 Q463.05 204.75 462.45 204.45 462.45 205.9 462.75 206.2 M528.8 213.6 L533.8 204.1 534.15 202.9 465.7 203.85 465.0 216.0 464.2 230.15 515.9 224.8 527.1 216.85 528.8 213.6 M327.55 260.75 L317.4 278.3 Q310.85 296.25 310.5 315.35 310.15 336.2 317.25 355.65 L325.4 371.05 Q332.6 384.7 344.65 394.2 L361.75 406.7 585.85 399.05 572.65 383.4 542.2 347.15 Q519.45 319.2 513.25 284.15 L510.6 279.75 512.05 260.85 514.85 240.15 525.1 220.95 513.65 234.25 336.95 251.1 327.55 260.75 M590.8 258.05 L591.05 254.5 584.85 256.45 Q555.45 264.3 525.0 259.4 L519.45 280.4 Q534.7 282.75 552.0 278.25 573.75 272.45 590.8 258.05 M572.0 275.6 L567.0 277.95 559.6 280.45 558.0 280.9 Q538.65 286.45 518.45 286.1 519.25 297.25 524.3 308.7 L525.4 311.0 Q550.55 358.7 590.3 393.4 592.45 379.45 589.75 365.55 588.5 359.15 587.95 352.65 584.45 313.05 572.0 275.6 M580.85 276.35 L585.6 294.8 586.95 270.95 580.85 276.35 M605.9 249.2 Q605.4 271.45 601.0 294.4 L600.0 300.3 598.95 307.95 598.75 316.95 Q603.55 316.85 609.45 314.1 629.3 304.85 648.15 293.7 658.7 287.5 665.1 277.8 L664.6 241.65 Q664.05 222.35 653.0 206.75 L651.9 205.5 Q648.9 202.75 644.9 201.8 618.2 194.65 591.7 188.7 599.2 196.7 601.9 207.55 607.05 228.15 605.9 249.2 M515.0 260.25 L520.3 234.55 Q515.0 243.4 515.0 260.25 M255.75 21.4 L261.35 19.9 265.2 15.2 273.45 12.8 273.45 7.8 265.1 10.0 262.15 7.6 256.05 9.25 255.75 21.4 M315.4 65.95 Q308.9 66.55 308.0 72.45 306.55 78.35 312.15 78.35 315.4 78.35 318.05 75.4 320.7 72.45 320.15 69.2 319.55 65.35 315.4 65.95 M254.85 42.35 L261.65 40.85 264.3 37.6 272.3 35.55 272.6 30.85 264.3 32.9 260.75 30.25 255.15 31.7 254.85 42.35 M272.9 15.75 L267.25 17.25 263.15 22.25 255.45 24.35 255.15 29.05 263.15 27.0 Q264.0 27.3 264.9 28.15 265.8 29.35 266.4 29.65 L272.6 27.9 272.9 15.75 M312.75 81.4 Q287.7 72.1 316.6 58.0 332.9 58.6 325.8 74.85 321.5 84.7 312.75 81.4 M172.8 31.7 L168.05 34.65 169.85 55.65 174.85 52.95 172.8 31.7 M184.3 10.15 L197.0 2.5 195.2 -2.25 182.8 5.45 184.3 10.15 M193.2 48.15 Q180.9 45.05 189.75 35.5 211.8 11.85 205.55 42.95 201.05 50.0 193.2 48.15 M191.7 36.45 Q190.5 40.85 194.35 42.05 197.3 43.25 199.95 40.3 202.6 37.6 202.0 34.1 201.4 29.95 197.3 30.55 L194.95 31.1 Q192.85 32.6 191.7 36.45 M172.2 22.55 Q169.8 23.85 168.8 25.85 160.0 43.8 168.2 62.25 L177.2 62.15 175.55 59.15 170.4 59.45 170.1 59.2 Q159.6 37.6 172.2 22.55 M131.6 132.15 L147.4 129.15 159.8 140.1 160.1 145.4 163.9 143.6 170.4 134.15 163.05 76.9 178.4 68.05 177.5 63.9 167.45 64.2 161.8 68.95 161.55 70.15 Q154.65 85.3 136.4 87.8 132.85 87.6 131.75 83.4 L128.2 85.15 117.0 144.5 125.55 133.3 131.6 132.15 M199.2 142.85 L179.55 74.8 170.25 80.1 Q170.1 91.55 171.75 103.3 174.15 120.7 177.75 138.1 182.0 158.55 188.4 178.45 L203.2 220.4 240.7 216.25 235.05 215.0 Q212.8 209.45 203.1 188.65 193.4 167.85 200.35 146.05 L199.2 142.85 M215.6 88.7 Q208.8 89.3 209.4 95.5 209.4 100.5 214.1 99.9 219.15 99.35 219.75 93.7 220.9 88.1 215.6 88.7 M164.2 58.9 L162.15 37.9 155.95 41.45 160.1 60.65 164.2 58.9 M237.15 107.8 Q220.0 119.5 210.9 137.85 201.25 157.3 206.9 178.15 213.15 201.2 235.85 207.8 256.95 213.75 277.0 204.5 296.4 195.6 308.55 178.3 321.6 159.75 320.0 137.25 318.4 114.65 298.95 103.2 280.3 92.15 258.7 97.85 247.0 101.15 237.15 107.8 M172.8 146.3 L169.85 147.75 174.85 167.85 177.8 166.05 172.8 146.3 M169.55 137.4 L165.4 145.7 165.65 155.05 165.7 157.9 163.65 150.4 160.1 151.9 160.1 155.75 156.85 156.3 156.85 161.05 160.1 160.45 160.4 173.75 168.95 169.9 168.95 169.85 Q172.4 175.0 179.5 175.65 L179.55 172.25 175.1 172.25 Q161.05 153.8 171.3 139.5 L169.55 137.4 M231.85 171.1 Q235.1 173.45 240.7 172.85 250.75 171.95 255.15 161.65 L231.85 171.1 M217.35 166.6 L219.45 167.25 225.35 160.75 217.35 166.6 M216.5 168.7 L217.65 171.4 Q239.9 168.8 259.9 157.2 L258.7 153.95 Q239.05 165.8 216.5 168.7 M215.3 176.1 L214.45 174.9 Q208.75 166.65 216.8 160.75 L223.55 156.6 Q239.45 126.5 260.75 147.75 L264.3 146.3 265.5 139.2 308.25 132.5 273.75 161.65 268.75 158.4 260.75 162.2 Q250.65 184.6 228.3 174.9 L215.3 176.1 M262.55 151.9 Q260.75 152.75 260.2 153.35 L261.05 156.3 264.0 154.85 Q263.45 152.5 262.55 151.9 M264.3 151.3 L265.5 154.55 267.0 153.65 265.8 150.4 264.3 151.3 M269.65 143.35 L269.05 147.75 267.85 148.95 Q267.25 149.55 267.25 150.1 L268.15 153.05 270.5 152.75 273.75 155.15 294.75 138.6 269.65 143.35 M255.5 151.35 Q255.3 150.75 254.9 150.5 232.8 134.55 227.7 164.3 L255.5 151.35 M136.9 78.65 L137.65 81.6 156.05 70.6 148.2 37.15 145.9 38.4 137.15 43.9 132.95 63.55 136.9 78.65 M87.3 188.95 L107.55 176.7 109.6 165.45 Q93.45 163.45 77.65 167.6 56.3 173.3 37.55 184.85 1.7 206.25 -14.95 244.05 -20.35 256.3 -17.5 269.25 -14.7 282.0 -2.7 287.0 10.2 292.25 23.95 290.95 L29.3 276.55 13.2 260.0 Q11.85 245.15 19.45 232.05 30.1 213.65 48.5 202.65 64.95 190.65 84.75 187.35 L85.1 187.5 Q85.85 187.85 87.3 188.95 M131.5 138.5 L127.9 139.2 119.95 150.1 120.2 156.6 125.9 155.6 154.2 150.7 154.2 143.9 144.75 135.95 131.5 138.5 M127.35 151.3 L127.0 145.7 129.3 145.25 146.3 142.25 146.5 147.75 127.35 151.3 M113.0 170.65 L113.55 166.65 117.55 164.55 117.55 163.15 114.9 163.4 114.6 156.9 113.0 170.65 M56.3 228.25 L86.15 192.55 81.85 190.85 Q75.65 193.05 69.6 195.65 53.55 202.55 39.95 213.3 L38.45 214.5 Q22.9 227.2 18.2 243.6 L16.5 258.95 31.65 273.25 37.05 261.55 Q45.65 243.8 56.3 228.25 M127.65 180.55 L127.6 175.2 147.3 173.5 147.35 177.2 127.65 180.55 M124.75 171.7 L122.0 179.65 124.1 181.5 155.15 212.95 154.6 168.15 124.75 171.7 M242.9 268.5 L247.2 259.95 187.25 265.85 160.95 290.95 161.0 291.1 161.55 291.2 161.6 291.25 161.5 291.4 160.95 291.85 156.15 295.55 Q133.8 314.15 106.95 325.2 L106.2 354.65 106.3 363.55 106.35 366.85 234.2 363.0 234.45 358.8 Q231.45 342.45 231.45 325.8 231.45 305.35 236.7 285.55 239.2 276.5 242.9 268.5 M148.0 194.4 L145.9 191.15 143.85 188.8 Q142.65 189.4 141.8 188.8 142.35 184.05 147.1 184.05 152.1 184.35 151.5 189.7 151.25 192.95 148.0 194.4 M143.4 204.6 L112.55 178.15 Q96.7 186.95 83.9 200.0 68.55 215.65 56.65 233.9 52.85 239.7 49.25 246.0 L27.2 292.75 Q41.45 313.15 64.25 321.7 L66.95 322.85 Q84.6 329.75 102.35 323.15 L120.25 314.55 125.85 311.85 136.6 305.15 138.55 303.55 175.6 272.2 Q177.9 272.2 179.55 269.5 181.15 266.8 181.15 263.0 L178.8 258.25 176.5 253.65 143.4 204.6 M246.55 383.6 L253.7 370.7 96.35 371.85 90.3 371.3 Q81.2 372.6 76.45 380.6 64.85 400.1 56.45 421.35 48.6 441.25 42.8 461.7 37.2 481.4 33.9 501.9 32.65 509.5 32.35 517.15 31.8 532.35 32.1 547.55 32.35 562.3 33.1 577.1 L124.25 582.85 208.2 587.4 Q207.3 581.8 205.1 576.8 199.15 563.4 203.65 543.5 208.35 522.75 210.8 501.5 211.75 493.25 213.0 485.0 216.0 464.5 222.1 444.6 227.4 428.6 233.65 412.95 239.6 398.1 246.55 383.6 M323.3 261.15 L331.0 251.85 256.05 259.05 250.4 267.8 Q241.3 285.4 240.55 305.2 239.55 330.95 240.35 356.75 L240.6 358.7 241.3 362.4 264.6 363.3 265.85 366.55 Q273.25 386.4 290.05 399.4 317.05 420.3 350.85 417.65 L357.65 409.05 Q340.35 397.85 327.15 381.95 317.2 369.9 312.45 354.8 310.55 348.95 309.6 342.85 306.45 322.1 308.85 301.1 311.35 279.45 323.3 261.15 M259.9 371.0 L257.55 371.55 Q246.45 385.75 240.05 402.6 221.8 450.6 216.5 501.9 L213.85 526.35 Q212.65 536.65 212.7 546.9 L212.7 549.55 212.7 552.35 212.65 555.25 Q212.65 561.15 213.3 566.95 214.8 581.15 216.65 595.3 L216.4 595.35 141.5 596.25 174.55 755.1 274.25 700.0 316.5 674.55 Q313.5 667.2 311.7 658.95 307.75 640.9 305.7 622.6 303.4 602.55 302.35 582.0 301.25 560.05 304.5 538.75 306.6 524.9 309.0 511.15 L309.9 506.55 Q312.45 494.75 316.4 483.25 320.65 471.05 325.25 458.95 332.0 441.15 341.4 424.7 331.55 424.5 321.95 422.45 300.6 417.65 283.45 403.45 267.55 390.15 259.9 371.0 M-35.9 590.6 L-18.85 684.85 Q71.4 722.25 164.5 751.9 L134.4 620.4 132.9 610.4 128.8 593.9 -37.45 577.35 -35.9 590.6 M122.6 617.8 Q124.65 617.25 124.35 618.4 122.9 618.1 122.6 617.8 M605.65 443.45 Q601.35 421.15 588.15 402.65 L587.8 402.3 402.45 411.05 374.6 412.4 369.75 412.6 374.45 422.65 Q385.1 448.95 394.25 508.0 399.25 539.3 404.55 588.0 L406.65 608.4 Q406.65 613.7 407.55 615.15 L406.95 617.25 Q407.55 620.2 415.2 620.2 L536.2 624.75 631.0 628.2 Q633.25 610.45 630.95 592.6 L625.7 553.75 Q620.7 519.35 614.95 485.1 611.4 464.05 605.65 443.45 M382.55 482.8 L378.95 464.3 Q374.35 441.6 365.25 420.35 L365.0 420.0 372.1 514.3 Q373.55 533.85 374.45 553.5 375.2 570.85 375.1 588.3 L374.7 622.55 Q374.0 656.85 372.1 690.15 L378.3 696.25 442.3 759.7 436.35 633.7 399.55 623.45 392.9 553.7 Q387.4 510.15 382.55 482.8 M675.05 652.0 L673.45 640.15 648.55 640.05 445.9 634.05 446.25 646.85 450.35 765.15 674.75 753.35 675.05 652.0" fill="#000000" fill-rule="evenodd" stroke="none"/>
    <path d="M272.55 -392.25 Q225.75 -378.55 193.75 -357.05 195.7 -363.1 198.5 -368.45 221.85 -391.75 255.75 -405.0 267.55 -409.45 279.2 -412.15 L276.4 -409.4 Q268.4 -399.85 272.55 -392.25 M630.0 503.45 L606.9 422.4 Q620.65 451.05 630.0 503.45 M198.35 -276.5 L190.5 -270.05 194.0 -274.35 Q226.6 -301.4 258.25 -315.2 300.25 -329.85 340.2 -329.5 L348.05 -329.25 369.2 -327.05 Q382.5 -324.9 393.35 -321.15 438.1 -305.4 469.95 -260.6 L470.0 -260.6 483.65 -235.2 440.65 -289.0 435.3 -294.75 435.2 -294.9 Q414.55 -310.55 379.4 -320.85 332.95 -329.75 273.75 -315.5 221.15 -299.9 198.35 -276.5 M328.7 -157.25 Q284.6 -149.1 248.5 -133.45 L245.8 -132.25 Q226.9 -123.8 209.8 -112.25 195.65 -102.65 190.2 -86.7 L163.7 -202.05 160.95 -189.75 Q161.6 -208.3 167.0 -226.0 171.7 -241.5 180.0 -255.35 L200.15 -144.9 200.4 -144.25 Q217.0 -147.75 237.85 -161.55 254.45 -172.45 273.3 -179.45 293.05 -186.65 313.9 -189.8 L327.35 -191.7 Q323.8 -172.8 328.7 -157.25 M234.75 -286.95 L185.6 -259.4 Q193.95 -269.6 205.05 -276.8 231.55 -294.05 261.75 -302.8 308.45 -316.5 357.15 -314.25 381.55 -312.45 404.75 -304.6 416.0 -300.9 426.5 -295.45 L428.95 -294.15 Q432.35 -292.35 435.6 -290.15 L429.95 -288.65 380.55 -304.15 Q304.0 -326.1 234.75 -286.95 M189.9 -255.55 L207.15 -150.55 202.9 -147.2 184.3 -255.3 189.9 -255.55 M152.0 -41.15 L152.4 -43.3 153.6 -38.6 152.0 -41.15 M160.15 -19.15 L166.1 -20.0 173.9 2.45 173.35 16.65 172.1 19.75 162.75 29.95 154.2 34.95 149.15 30.2 160.15 -19.15 M138.75 36.1 L149.75 -28.8 Q147.9 -8.9 138.75 36.1 M128.15 -28.5 L148.7 -42.3 147.7 -37.35 Q74.75 81.3 90.95 160.75 78.05 161.65 63.55 166.95 50.2 171.65 35.55 180.6 20.45 67.65 128.15 -28.5 M262.75 -122.05 Q245.7 -115.2 229.55 -105.6 217.7 -98.55 211.75 -86.1 L190.8 -77.55 191.95 -86.4 211.75 -86.1 Q209.6 -102.5 262.75 -122.05 M198.0 -97.8 Q209.5 -110.8 225.25 -118.8 L232.95 -122.95 198.0 -97.8 M329.4 -153.9 L390.4 -160.8 Q363.45 -146.8 333.45 -142.55 L324.75 -141.05 320.15 -140.0 331.65 -143.1 329.4 -153.9 M281.3 -2.9 L282.65 -28.8 Q290.9 -33.8 295.4 -42.0 306.7 -62.45 286.75 -83.75 288.4 -86.3 289.6 -89.0 295.1 -101.25 289.85 -113.4 L302.0 -119.0 333.05 -131.75 293.25 -22.6 281.3 -2.9 M162.15 -61.6 L175.45 -67.2 163.65 -57.15 162.15 -61.6 M191.05 -71.95 L190.0 -72.25 Q219.7 -85.2 250.45 -97.9 246.65 -85.8 249.95 -73.95 250.1 -73.4 250.55 -72.95 L251.95 -71.5 248.1 46.5 238.65 48.55 209.1 -2.85 205.45 -11.95 199.95 -13.45 192.85 -36.8 Q202.05 -46.35 195.2 -59.25 L191.05 -71.95 M436.75 -286.9 L441.2 -187.65 436.15 -188.55 431.45 -285.4 436.75 -286.9 M169.75 231.0 L169.7 231.0 168.25 231.15 160.2 219.45 160.4 180.25 171.3 175.5 179.6 177.75 184.05 187.0 170.15 230.95 169.75 231.0 M595.4 142.55 L595.35 142.55 Q556.7 139.4 540.1 147.45 L540.6 143.55 Q544.6 111.1 550.25 78.95 553.95 57.75 547.7 38.2 542.9 23.3 531.75 11.5 516.95 -4.3 502.65 -20.5 488.8 -36.2 477.3 -53.8 467.15 -69.25 462.9 -87.1 458.0 -107.65 464.55 -127.6 L467.3 -135.8 Q488.7 -157.0 537.75 -80.5 555.45 -52.75 573.2 -17.6 588.25 12.25 593.85 27.9 606.25 63.0 599.45 142.15 L595.4 142.55 M383.75 -143.8 L404.55 -152.85 401.9 -145.15 383.75 -143.8 M382.4 -95.0 L369.45 -61.3 352.6 -59.8 365.3 -93.8 382.4 -95.0 M378.6 -50.75 Q378.15 -46.7 377.1 -42.7 L370.05 -42.1 370.7 -50.7 347.2 -49.95 340.5 -40.35 334.3 -40.9 Q344.0 -63.5 370.3 -59.5 379.65 -59.6 378.6 -50.75 M346.1 -42.4 L348.45 -48.3 365.0 -49.5 362.35 -43.0 346.1 -42.4 M337.85 -6.95 Q340.5 -9.6 343.75 -9.9 348.75 -10.5 348.75 -5.8 349.05 -1.95 345.8 1.0 342.85 4.25 339.3 3.95 335.75 3.35 335.2 -0.45 334.9 -4.0 337.85 -6.95 M382.75 3.0 Q377.65 9.9 370.0 14.45 367.8 15.75 365.0 16.05 L366.9 12.05 Q373.95 12.1 376.95 5.65 385.65 -12.9 383.9 -31.6 L383.75 -32.0 377.55 -33.1 377.2 -37.65 385.7 -37.65 Q391.7 -32.7 391.9 -24.5 391.95 -22.2 391.55 -19.65 389.5 -6.25 382.75 3.0 M382.25 -23.55 L375.35 3.35 368.25 3.65 374.45 -23.5 382.25 -23.55 M539.2 153.05 L545.15 148.05 Q566.45 142.15 588.7 143.6 609.95 145.15 631.0 147.95 652.25 150.9 664.4 164.9 663.4 167.75 660.35 169.4 652.55 173.45 643.75 173.75 642.85 147.55 608.6 146.85 590.9 146.5 574.15 153.05 571.2 154.25 568.6 155.95 L567.0 167.55 Q552.15 164.7 540.55 155.5 539.35 154.6 539.2 153.05 M581.7 153.35 Q591.65 150.8 605.6 152.25 L602.5 187.3 599.35 186.5 600.4 187.15 579.95 181.55 579.65 181.4 581.7 153.35 M624.2 155.4 L628.9 156.7 627.35 192.8 622.85 191.95 624.2 155.4 M568.15 182.6 Q592.5 184.2 598.7 207.7 604.25 228.75 603.35 250.6 602.7 267.1 599.4 283.15 596.05 299.2 595.55 315.5 L595.45 316.45 590.9 316.35 Q604.5 262.55 585.15 213.3 579.15 198.1 561.9 201.15 553.65 202.8 547.5 208.3 537.8 217.05 532.55 229.15 L531.95 230.5 Q526.9 243.0 523.2 255.7 L515.9 280.9 Q517.6 251.65 527.65 224.1 532.5 210.85 540.3 199.5 546.4 190.6 555.85 185.65 561.65 182.65 568.15 182.6 M434.1 1.0 L442.65 -21.15 443.25 0.7 434.1 1.0 M424.05 84.25 L440.6 81.0 Q445.05 81.0 443.25 87.2 L423.2 90.75 424.05 84.25 M419.65 84.85 L418.75 91.65 408.1 93.7 409.0 87.2 419.65 84.85 M360.6 31.7 L372.1 32.0 Q354.95 127.1 318.95 208.3 L274.05 213.0 Q301.25 202.1 316.6 179.35 330.15 159.25 329.85 136.25 329.85 131.5 328.1 123.85 L326.9 120.0 329.3 114.7 Q345.2 81.0 360.3 32.0 L360.6 31.7 M404.0 94.3 L383.0 98.15 385.95 91.9 404.35 87.95 404.0 94.3 M406.05 117.65 L406.9 117.1 Q419.1 109.25 406.5 104.45 398.9 101.55 392.45 107.0 381.3 130.5 399.05 121.7 403.9 121.2 406.05 117.65 M367.75 105.65 L364.1 103.25 365.3 99.65 Q383.4 108.1 370.75 132.95 L368.4 137.2 367.2 139.15 Q361.4 147.65 351.3 150.1 L350.85 146.3 Q369.05 135.35 368.95 108.55 368.95 106.75 367.75 105.65 M386.85 139.2 Q380.95 145.1 383.0 151.6 384.8 156.6 391.3 157.2 396.9 157.5 402.2 154.25 407.25 150.7 408.7 145.7 410.5 140.35 407.25 136.55 404.3 133.3 398.35 133.6 391.6 134.45 386.85 139.2 M354.1 138.0 L362.35 112.05 366.8 112.3 357.65 138.3 354.1 138.0 M383.05 191.7 Q398.7 199.65 418.45 189.4 L418.7 189.1 416.95 186.05 387.45 188.2 383.05 191.7 M384.8 177.85 L424.35 173.45 Q416.55 161.9 395.7 172.85 L384.8 177.85 M451.25 119.4 L452.05 142.7 444.0 143.45 447.4 119.1 451.25 119.4 M434.45 99.45 L424.5 99.45 424.5 112.15 434.45 112.15 434.45 99.45 M418.8 139.35 L418.8 151.3 428.7 151.3 428.7 139.35 418.8 139.35 M421.4 131.85 L431.6 131.85 431.6 119.6 421.4 119.6 421.4 131.85 M417.85 197.95 Q401.5 200.75 374.45 202.35 L371.9 201.75 382.7 102.0 442.35 91.05 433.2 153.05 Q432.9 175.55 422.85 194.5 421.3 197.45 417.85 197.95 M459.65 214.15 L460.4 230.45 185.45 259.2 175.9 243.55 459.65 214.15 M528.8 213.6 L527.1 216.85 515.9 224.8 464.2 230.15 465.0 216.0 528.8 213.6 M327.55 260.75 L444.05 250.15 Q457.2 249.3 470.25 247.35 492.6 244.3 514.85 240.15 L512.05 260.85 317.4 278.3 327.55 260.75 M344.65 394.2 Q332.6 384.7 325.4 371.05 L317.25 355.65 542.2 347.15 572.65 383.4 344.65 394.2 M572.0 275.6 Q584.45 313.05 587.95 352.65 588.5 359.15 589.75 365.55 592.45 379.45 590.3 393.4 550.55 358.7 525.4 311.0 L524.3 308.7 Q519.25 297.25 518.45 286.1 538.65 286.45 558.0 280.9 L559.6 280.45 567.0 277.95 572.0 275.6 M598.95 307.95 L600.0 300.3 601.0 294.4 Q605.4 271.45 605.9 249.2 L607.7 246.55 664.6 241.65 665.1 277.8 Q658.1 282.4 637.55 293.3 606.5 309.7 598.95 307.95 M265.1 10.0 L273.45 7.8 273.45 12.8 265.2 15.2 261.35 19.9 255.75 21.4 265.1 10.0 M272.9 15.75 L272.6 27.9 266.4 29.65 Q265.8 29.35 264.9 28.15 264.0 27.3 263.15 27.0 L255.15 29.05 255.45 24.35 263.15 22.25 267.25 17.25 272.9 15.75 M254.85 42.35 L255.15 31.7 260.75 30.25 264.3 32.9 272.6 30.85 272.3 35.55 264.3 37.6 261.65 40.85 254.85 42.35 M315.4 65.95 Q319.55 65.35 320.15 69.2 320.7 72.45 318.05 75.4 315.4 78.35 312.15 78.35 306.55 78.35 308.0 72.45 308.9 66.55 315.4 65.95 M136.4 87.8 Q154.65 85.3 161.55 70.15 L161.8 68.95 167.45 64.2 177.5 63.9 178.4 68.05 163.05 76.9 170.4 134.15 163.9 143.6 160.1 145.4 159.8 140.1 147.4 129.15 131.6 132.15 136.4 87.8 M199.2 142.85 L200.35 146.05 Q193.4 167.85 203.1 188.65 212.8 209.45 235.05 215.0 L240.7 216.25 203.2 220.4 188.4 178.45 199.2 142.85 M87.3 188.95 Q85.85 187.85 85.1 187.5 L86.25 187.05 87.3 188.95 M48.5 202.65 Q30.1 213.65 19.45 232.05 11.85 245.15 13.2 260.0 L29.3 276.55 23.95 290.95 Q10.2 292.25 -2.7 287.0 -14.7 282.0 -17.5 269.25 -20.35 256.3 -14.95 244.05 1.7 206.25 37.55 184.85 39.35 188.1 48.5 202.65 M125.9 155.6 L120.2 156.6 119.95 150.1 127.9 139.2 131.5 138.5 129.3 145.25 127.0 145.7 127.35 151.3 125.9 155.6 M56.3 228.25 Q45.65 243.8 37.05 261.55 L18.2 243.6 Q22.9 227.2 38.45 214.5 L39.95 213.3 56.3 228.25 M124.1 181.5 L122.0 179.65 124.75 171.7 124.1 181.5 M242.9 268.5 Q239.2 276.5 236.7 285.55 L192.35 289.55 Q197.75 281.3 202.6 272.15 L242.9 268.5 M234.45 358.8 L234.2 363.0 106.35 366.85 106.3 363.55 234.45 358.8 M143.4 204.6 L176.5 253.65 178.8 258.25 181.15 263.05 175.6 272.2 138.55 303.55 Q128.8 309.85 120.25 314.55 L102.35 323.15 Q84.6 329.75 66.95 322.85 L64.25 321.7 Q64.7 284.5 143.4 204.6 M90.3 371.3 L96.35 371.85 253.7 370.7 246.55 383.6 Q230.75 408.55 222.1 444.6 216.0 464.5 213.0 485.0 211.75 493.25 210.8 501.5 208.35 522.75 203.65 543.5 199.15 563.4 205.1 576.8 207.3 581.8 208.2 587.4 L124.25 582.85 Q176.35 442.4 90.3 371.3 M323.3 261.15 Q311.35 279.45 308.85 301.1 306.45 322.1 309.6 342.85 310.55 348.95 312.45 354.8 L240.6 358.7 240.35 356.75 Q239.55 330.95 240.55 305.2 241.3 285.4 250.4 267.8 L323.3 261.15 M257.55 371.55 L260.25 374.35 Q267.15 441.55 309.0 511.15 306.6 524.9 304.5 538.75 301.25 560.05 302.35 582.0 303.4 602.55 305.7 622.6 307.75 640.9 311.7 658.95 313.5 667.2 316.5 674.55 L274.25 700.0 Q192.65 552.25 257.55 371.55 M122.6 617.8 Q122.9 618.1 124.35 618.4 124.65 617.25 122.6 617.8 M132.9 610.4 L134.4 620.4 164.5 751.9 Q71.4 722.25 -18.85 684.85 L-35.9 590.6 132.9 610.4 M605.65 443.45 Q611.4 464.05 614.95 485.1 620.7 519.35 625.7 553.75 L630.95 592.6 Q633.25 610.45 631.0 628.2 L536.2 624.75 Q523.25 436.75 374.6 412.4 L402.45 411.05 Q561.8 414.85 605.65 443.45 M382.55 482.8 Q387.4 510.15 392.9 553.7 397.3 628.35 381.2 679.05 L381.25 679.25 378.3 696.25 372.1 690.15 Q374.0 656.85 374.7 622.55 L375.1 588.3 Q375.2 570.85 374.45 553.5 373.55 533.85 372.1 514.3 379.55 496.3 382.55 482.8 M675.05 652.0 L674.75 753.35 450.35 765.15 446.25 646.85 675.05 652.0" fill="#a7abac" fill-rule="evenodd" stroke="none"/>
    <path d="M243.05 -378.05 L253.65 -341.35 Q217.55 -328.2 191.7 -305.5 156.35 -274.05 145.75 -228.15 L144.8 -234.4 137.25 -286.75 Q145.15 -306.55 162.45 -324.95 180.45 -345.05 206.75 -360.7 219.55 -368.4 234.5 -374.9 L243.05 -378.05 M266.35 -324.25 Q248.05 -317.95 230.85 -308.45 212.7 -298.45 197.9 -283.75 183.6 -269.55 173.95 -251.55 164.15 -233.3 160.1 -213.05 157.95 -202.5 157.45 -191.5 L145.6 -191.5 Q144.8 -218.3 153.85 -243.3 160.3 -261.0 170.85 -276.35 181.05 -291.2 194.6 -303.1 206.3 -313.4 219.75 -321.4 230.9 -327.95 242.7 -333.1 257.4 -339.45 272.85 -343.85 292.55 -349.5 312.95 -352.55 348.45 -358.15 383.6 -350.75 406.5 -345.85 426.65 -334.05 442.45 -324.75 455.7 -312.15 470.75 -297.8 481.85 -280.1 491.95 -264.0 498.75 -246.15 L485.4 -240.4 480.1 -250.65 Q470.85 -267.25 458.3 -281.7 444.1 -298.0 426.4 -310.3 L405.45 -322.6 377.25 -332.7 360.2 -335.8 333.1 -336.8 Q292.65 -336.45 266.35 -324.25 M178.2 -59.35 L186.6 -64.5 191.4 -44.15 163.35 -26.15 162.85 -28.25 178.2 -59.35 M203.45 134.4 Q183.9 81.4 179.0 21.4 L204.65 6.05 226.5 45.3 Q230.65 52.95 235.1 57.1 L236.75 56.7 224.85 84.45 Q196.3 79.5 210.25 105.1 211.7 107.75 215.4 106.5 L203.45 134.4 M191.7 36.45 Q192.85 32.6 194.95 31.1 L197.3 30.55 Q201.4 29.95 202.0 34.1 202.6 37.6 199.95 40.3 197.3 43.25 194.35 42.05 190.5 40.85 191.7 36.45 M193.2 48.15 Q201.05 50.0 205.55 42.95 211.8 11.85 189.75 35.5 180.9 45.05 193.2 48.15 M215.6 88.7 Q220.9 88.1 219.75 93.7 219.15 99.35 214.1 99.9 209.4 100.5 209.4 95.5 208.8 89.3 215.6 88.7 M145.9 38.4 L148.2 37.15 156.05 70.6 137.65 81.6 136.9 78.65 145.9 38.4" fill="#a85b00" fill-rule="evenodd" stroke="none"/>
    <path d="M324.35 -400.8 Q306.1 -400.15 288.2 -396.3 303.95 -400.9 324.35 -400.8 M302.6 -394.95 L310.05 -355.6 285.55 -350.7 275.2 -389.1 Q289.0 -392.9 302.6 -394.95 M341.15 -358.5 Q339.35 -364.65 332.65 -397.45 345.3 -397.55 357.6 -395.85 L366.7 -358.1 366.9 -357.2 341.15 -358.5 M257.0 -272.3 L295.5 -273.45 298.0 -281.45 318.0 -283.55 322.75 -276.3 358.0 -283.15 Q388.85 -280.55 420.45 -271.0 423.05 -228.55 419.95 -208.6 415.3 -227.4 413.15 -246.6 412.95 -248.65 414.0 -250.85 L406.25 -253.1 Q415.4 -228.6 414.9 -202.55 L419.2 -204.55 Q417.5 -196.55 414.6 -193.3 415.3 -191.95 416.35 -190.9 392.45 -193.6 369.75 -194.45 L336.95 -195.95 Q320.7 -195.35 306.25 -192.4 266.85 -184.6 222.15 -159.0 208.35 -178.6 206.2 -251.35 231.3 -264.45 257.0 -272.3 M217.75 -231.9 L213.25 -230.8 211.45 -228.1 Q220.2 -208.95 220.15 -186.3 220.1 -176.65 227.85 -176.1 220.4 -199.05 219.75 -225.15 L217.75 -231.9 M287.35 -255.9 Q287.05 -260.6 284.4 -263.85 278.8 -270.65 268.75 -269.45 260.2 -268.6 255.45 -262.35 251.35 -255.6 254.0 -249.7 257.8 -241.1 268.75 -240.8 279.65 -240.5 285.0 -247.9 287.35 -251.15 287.35 -255.9 M264.5 -199.65 Q306.4 -193.1 350.3 -206.45 365.8 -211.25 380.75 -217.75 381.7 -218.15 382.3 -219.15 L382.7 -220.15 368.1 -222.85 370.05 -218.95 Q321.5 -201.05 269.65 -201.25 L264.5 -199.65 M365.6 -272.1 Q359.7 -279.2 349.05 -278.0 338.45 -277.15 335.2 -269.15 334.0 -266.5 334.3 -263.85 334.9 -252.35 349.05 -250.25 362.95 -248.2 367.95 -258.55 371.2 -265.9 365.6 -272.1 M231.85 171.1 L255.15 161.65 Q250.75 171.95 240.7 172.85 235.1 173.45 231.85 171.1 M255.5 151.35 L227.7 164.3 Q232.8 134.55 254.9 150.5 255.3 150.75 255.5 151.35" fill="#ffe600" fill-rule="evenodd" stroke="none"/>
    <path d="M380.55 -304.15 Q355.2 -309.3 329.85 -309.3 282.65 -309.3 237.75 -288.35 L234.75 -286.95 Q304.0 -326.1 380.55 -304.15 M222.15 -159.0 L210.3 -151.95 193.45 -257.65 230.65 -281.0 229.2 -265.6 257.0 -272.3 Q231.3 -264.45 206.2 -251.35 208.35 -178.6 222.15 -159.0 M298.0 -281.45 L298.25 -284.5 Q279.95 -282.15 240.4 -285.4 269.05 -299.0 301.5 -304.0 331.65 -308.45 376.8 -301.35 369.75 -298.4 348.2 -292.5 330.45 -287.75 316.6 -286.6 L318.0 -283.55 298.0 -281.45 M358.0 -283.15 Q379.1 -287.0 389.2 -282.75 387.15 -289.55 380.95 -300.45 405.45 -295.15 422.9 -287.75 L427.9 -285.1 432.65 -188.85 416.35 -190.9 Q415.3 -191.95 414.6 -193.3 417.5 -196.55 419.2 -204.55 L419.95 -208.6 Q423.05 -228.55 420.45 -271.0 388.85 -280.55 358.0 -283.15 M162.85 -28.25 L158.6 -46.25 178.2 -59.35 162.85 -28.25 M370.3 -132.15 L409.6 -136.3 399.25 -105.9 361.15 -102.65 370.3 -132.15 M332.85 -3.0 Q323.2 15.0 342.75 9.35 354.5 6.0 357.35 -6.1 348.2 -31.5 332.85 -3.0 M236.75 56.7 L291.2 43.25 Q294.45 39.7 303.3 25.2 312.45 9.55 334.9 -32.95 L367.65 -33.55 Q354.1 40.3 323.1 111.45 307.7 86.05 275.55 86.35 265.5 86.35 254.85 89.9 220.3 101.4 204.1 136.25 L203.6 134.9 203.45 134.4 215.4 106.5 Q229.55 100.25 225.4 85.65 L224.85 84.45 236.75 56.7 M440.0 -37.4 L421.15 12.3 389.8 12.8 407.1 -35.9 440.0 -37.4 M399.05 121.7 L397.5 121.75 Q391.3 121.2 392.45 115.0 393.95 108.2 401.9 108.2 409.0 107.6 407.25 114.7 L406.05 117.65 Q403.9 121.2 399.05 121.7 M312.75 81.4 Q321.5 84.7 325.8 74.85 332.9 58.6 316.6 58.0 287.7 72.1 312.75 81.4 M237.15 107.8 Q247.0 101.15 258.7 97.85 280.3 92.15 298.95 103.2 318.4 114.65 320.0 137.25 321.6 159.75 308.55 178.3 296.4 195.6 277.0 204.5 256.95 213.75 235.85 207.8 213.15 201.2 206.9 178.15 201.25 157.3 210.9 137.85 220.0 119.5 237.15 107.8 M215.3 176.1 L228.3 174.9 Q250.65 184.6 260.75 162.2 L268.75 158.4 273.75 161.65 308.25 132.5 265.5 139.2 264.3 146.3 260.75 147.75 Q239.45 126.5 223.55 156.6 L216.8 160.75 Q208.75 166.65 214.45 174.9 L215.3 176.1 M136.9 78.65 L132.95 63.55 137.15 43.9 145.9 38.4 136.9 78.65" fill="#ff850d" fill-rule="evenodd" stroke="none"/>
    <path d="M194.0 -274.35 Q232.4 -317.0 301.5 -329.4 331.35 -334.7 353.8 -332.65 400.15 -328.2 434.4 -300.15 455.0 -283.3 470.0 -260.6 L469.95 -260.6 Q438.1 -305.4 393.35 -321.15 382.5 -324.9 369.2 -327.05 L348.05 -329.25 340.2 -329.5 Q300.25 -329.85 258.25 -315.2 226.6 -301.4 194.0 -274.35 M333.1 -336.8 Q297.6 -335.0 266.35 -324.25 292.65 -336.45 333.1 -336.8 M147.7 -37.35 L110.2 161.95 90.95 160.75 Q74.75 81.3 147.7 -37.35 M274.05 -103.8 L272.9 -76.65 264.9 -73.7 265.8 -100.55 274.05 -103.8 M320.15 -140.0 L267.65 -123.9 262.75 -122.05 Q209.6 -102.5 211.75 -86.1 L191.95 -86.4 198.0 -97.8 232.95 -122.95 Q251.15 -132.9 270.9 -139.0 289.8 -144.9 309.2 -149.6 L329.4 -153.9 331.65 -143.1 320.15 -140.0 M283.8 -104.4 Q287.05 -89.65 279.65 -86.1 L278.5 -88.75 276.7 -90.8 277.3 -102.05 283.8 -104.4 M312.15 -135.1 L351.15 -144.55 214.1 -87.3 Q216.5 -92.9 225.35 -100.55 225.95 -101.15 227.1 -101.75 L232.7 -105.6 Q248.95 -114.75 275.25 -123.6 L312.15 -135.1 M173.65 -24.7 L186.05 -32.95 192.85 -11.1 180.15 -3.15 173.65 -24.7 M197.6 -5.2 L179.15 5.85 179.35 11.65 175.15 15.75 Q171.05 1.05 186.65 -5.2 197.35 -15.2 206.2 -7.4 L207.1 -6.05 Q204.7 2.45 201.25 -3.8 L197.6 -5.2 M276.7 -85.5 L288.25 -58.35 Q298.85 -37.5 271.8 -30.75 L271.0 -30.75 Q260.55 -49.8 260.95 -74.25 261.0 -76.65 261.6 -79.15 L262.3 -69.55 275.35 -74.45 276.7 -85.5 M262.25 -96.75 Q264.75 -87.0 257.75 -79.3 257.55 -79.0 256.75 -79.3 L256.05 -94.35 262.25 -96.75 M258.7 -50.95 L259.3 -61.3 261.05 -51.55 258.7 -50.95 M274.35 -28.05 L274.95 -19.35 268.6 -17.65 265.5 -20.25 257.55 -17.9 257.55 -22.9 265.5 -25.55 267.85 -28.5 274.35 -28.05 M264.7 -26.7 L258.1 -26.7 258.1 -40.35 264.7 -40.35 264.7 -26.7 M261.35 -48.6 L262.25 -43.3 258.4 -42.1 258.7 -47.4 Q259.6 -48.0 261.35 -48.6 M256.65 -1.65 L257.25 -14.35 262.85 -15.8 266.4 -13.15 274.95 -15.55 274.65 -10.5 266.4 -8.15 262.55 -3.15 256.65 -1.65 M268.15 -5.8 L274.05 -7.55 273.75 5.15 267.85 6.6 264.3 3.95 256.35 6.05 256.65 1.3 264.3 -1.05 268.15 -5.8 M170.55 230.95 L169.75 231.0 170.15 230.95 170.55 230.95 M458.45 -93.3 Q462.05 -72.4 473.7 -54.35 485.05 -36.8 498.65 -21.05 L505.3 -13.5 Q519.3 2.55 533.85 18.15 549.6 35.1 547.95 57.65 547.3 66.65 546.1 75.45 540.7 115.1 537.35 155.0 536.8 161.3 543.05 162.9 555.15 165.75 567.0 169.9 L566.55 177.4 Q545.7 179.05 532.45 166.95 527.4 162.5 525.05 157.2 522.7 152.75 523.55 151.3 526.8 144.8 525.05 95.2 522.7 38.8 510.6 24.05 455.9 -22.3 458.45 -93.3 M605.6 152.25 L624.2 155.4 622.85 191.95 602.45 187.6 602.5 187.3 605.6 152.25 M628.9 156.7 L639.4 162.55 637.1 194.7 627.35 192.8 628.9 156.7 M462.75 206.2 Q462.45 205.9 462.45 204.45 463.05 204.75 462.75 206.2 M175.9 243.55 L170.1 233.95 459.2 204.45 459.65 214.15 175.9 243.55 M465.0 216.0 L465.7 203.85 534.15 202.9 533.8 204.1 528.8 213.6 465.0 216.0 M514.85 240.15 Q492.6 244.3 470.25 247.35 457.2 249.3 444.05 250.15 L327.55 260.75 336.95 251.1 513.65 234.25 525.1 220.95 514.85 240.15 M590.8 258.05 Q573.75 272.45 552.0 278.25 534.7 282.75 519.45 280.4 L525.0 259.4 Q555.45 264.3 584.85 256.45 L591.05 254.5 590.8 258.05 M572.65 383.4 L585.85 399.05 361.75 406.7 344.65 394.2 572.65 383.4 M515.0 260.25 Q515.0 243.4 520.3 234.55 L515.0 260.25 M255.75 21.4 L256.05 9.25 262.15 7.6 265.1 10.0 255.75 21.4 M184.3 10.15 L182.8 5.45 195.2 -2.25 197.0 2.5 184.3 10.15 M172.8 31.7 L174.85 52.95 169.85 55.65 168.05 34.65 172.8 31.7 M172.2 22.55 Q159.6 37.6 170.1 59.2 L170.4 59.45 175.55 59.15 177.2 62.15 168.2 62.25 Q160.0 43.8 168.8 25.85 169.8 23.85 172.2 22.55 M188.4 178.45 Q182.0 158.55 177.75 138.1 174.15 120.7 171.75 103.3 170.1 91.55 170.25 80.1 L179.55 74.8 199.2 142.85 188.4 178.45 M164.2 58.9 L160.1 60.65 155.95 41.45 162.15 37.9 164.2 58.9 M169.55 137.4 L171.3 139.5 Q161.05 153.8 175.1 172.25 L179.55 172.25 179.5 175.65 Q172.4 175.0 168.95 169.85 L168.95 169.9 160.4 173.75 160.1 160.45 156.85 161.05 156.85 156.3 160.1 155.75 160.1 151.9 163.65 150.4 165.7 157.9 165.65 155.05 165.4 145.7 169.55 137.4 M172.8 146.3 L177.8 166.05 174.85 167.85 169.85 147.75 172.8 146.3 M37.55 184.85 Q56.3 173.3 77.65 167.6 93.45 163.45 109.6 165.45 L107.55 176.7 87.3 188.95 86.25 187.05 85.1 187.5 84.75 187.35 Q64.95 190.65 48.5 202.65 39.35 188.1 37.55 184.85 M131.5 138.5 L144.75 135.95 154.2 143.9 154.2 150.7 125.9 155.6 127.35 151.3 146.5 147.75 146.3 142.25 129.3 145.25 131.5 138.5 M39.95 213.3 Q53.55 202.55 69.6 195.65 75.65 193.05 81.85 190.85 L86.15 192.55 56.3 228.25 39.95 213.3 M127.65 180.55 L147.35 177.2 147.3 173.5 127.6 175.2 127.65 180.55 M124.75 171.7 L154.6 168.15 155.15 212.95 124.1 181.5 124.75 171.7 M148.0 194.4 Q151.25 192.95 151.5 189.7 152.1 184.35 147.1 184.05 142.35 184.05 141.8 188.8 142.65 189.4 143.85 188.8 L145.9 191.15 148.0 194.4 M106.2 354.65 L106.95 325.2 Q133.8 314.15 156.15 295.55 L160.95 291.85 161.5 291.4 161.6 291.25 161.55 291.2 161.0 291.1 160.95 290.95 187.25 265.85 247.2 259.95 242.9 268.5 202.6 272.15 Q197.75 281.3 192.35 289.55 159.65 339.4 106.2 354.65 M181.15 263.0 Q181.15 266.8 179.55 269.5 177.9 272.2 175.6 272.2 L181.15 263.05 181.15 263.0 M250.4 267.8 L256.05 259.05 331.0 251.85 323.3 261.15 250.4 267.8 M312.45 354.8 Q317.2 369.9 327.15 381.95 340.35 397.85 357.65 409.05 L350.85 417.65 Q317.05 420.3 290.05 399.4 273.25 386.4 265.85 366.55 L264.6 363.3 241.3 362.4 240.6 358.7 312.45 354.8 M260.25 374.35 L259.9 371.0 Q267.55 390.15 283.45 403.45 300.6 417.65 321.95 422.45 331.55 424.5 341.4 424.7 332.0 441.15 325.25 458.95 320.65 471.05 316.4 483.25 312.45 494.75 309.9 506.55 L309.0 511.15 Q267.15 441.55 260.25 374.35 M402.45 411.05 L587.8 402.3 588.15 402.65 Q601.35 421.15 605.65 443.45 561.8 414.85 402.45 411.05 M372.1 514.3 L365.0 420.0 365.25 420.35 Q374.35 441.6 378.95 464.3 L382.55 482.8 Q379.55 496.3 372.1 514.3" fill="#525759" fill-rule="evenodd" stroke="none"/>
    <path d="M275.2 -389.1 L285.55 -350.7 Q268.7 -346.9 253.65 -341.35 L243.05 -378.05 263.1 -385.45 275.2 -389.1 M137.25 -286.75 L144.8 -234.4 Q142.95 -224.55 143.1 -214.1 L142.35 -208.05 Q137.75 -241.15 134.4 -274.3 134.1 -277.35 135.1 -280.45 L137.25 -286.75 M357.6 -395.85 Q376.55 -393.15 394.35 -386.2 413.8 -378.55 431.55 -367.3 448.55 -356.55 463.5 -342.85 469.35 -337.45 471.95 -330.4 482.8 -301.05 491.5 -271.0 L491.35 -271.0 Q484.45 -283.2 475.9 -294.45 443.65 -337.05 392.75 -352.15 L390.45 -353.85 390.25 -352.8 Q382.6 -354.8 374.5 -356.15 L379.8 -357.1 366.7 -358.1 357.6 -395.85" fill="#d19700" fill-rule="evenodd" stroke="none"/>
  </g>
</svg>
