<?xml version="1.0" encoding="UTF-8" standalone="no"?>
<svg xmlns:xlink="http://www.w3.org/1999/xlink" height="195.25px" width="168.75px" xmlns="http://www.w3.org/2000/svg">
  <g transform="matrix(1.0, 0.0, 0.0, 1.0, 83.75, 99.65)">
    <path d="M44.05 -82.7 Q40.75 -76.1 40.75 -73.75 40.75 -73.05 42.75 -70.45 45.05 -67.5 47.0 -66.7 L48.2 -71.0 Q49.2 -75.2 50.6 -78.05 55.15 -87.5 65.75 -87.5 77.3 -87.5 82.25 -79.4 85.0 -74.85 85.0 -70.0 85.0 -42.95 65.15 -33.55 61.2 -31.65 59.0 -25.9 58.0 -23.2 56.15 -14.6 54.55 -7.45 52.75 -4.45 50.1 0.0 45.15 0.0 33.3 0.0 17.2 -30.45 9.1 -45.7 3.4 -61.25 3.4 -73.7 8.75 -83.45 17.65 -99.65 38.75 -99.65 44.9 -99.65 46.7 -95.75 47.3 -94.55 47.35 -93.0 L47.3 -91.55 Q47.3 -89.3 44.05 -82.7 M31.3 -86.0 L31.55 -86.55 30.3 -86.55 31.3 -86.0 M-32.5 25.0 Q0.6 45.9 0.6 46.4 0.6 48.2 -2.8 55.9 -6.5 64.4 -11.25 72.65 -24.45 95.6 -33.1 95.6 -58.9 95.6 -73.4 80.65 -78.55 75.35 -81.45 68.95 -83.75 63.9 -83.75 60.75 -83.75 48.1 -49.5 25.3 -47.95 25.3 -42.65 26.85 -37.35 28.4 -35.75 28.4 L-34.6 26.7 Q-33.65 25.0 -32.5 25.0" fill="#cc0000" fill-rule="evenodd" stroke="none"/>
  </g>
</svg>
