<?xml version="1.0" encoding="UTF-8" standalone="no"?>
<svg xmlns:xlink="http://www.w3.org/1999/xlink" height="331.85px" width="686.9px" xmlns="http://www.w3.org/2000/svg">
  <g transform="matrix(1.0, 0.0, 0.0, 1.0, 267.75, 67.1)">
    <path d="M95.35 -3.2 L130.15 -3.15 144.8 -2.0 158.6 -0.85 Q158.15 -0.55 106.85 0.7 L56.1 -0.2 7.5 -1.7 83.7 -2.55 83.7 -3.15 95.35 -3.2 M225.6 -54.9 L352.2 -54.9 Q356.25 -54.9 358.7 -51.55 360.7 -48.85 360.7 -46.1 360.7 -42.65 357.85 -40.1 356.15 -38.65 353.95 -38.35 352.2 -38.05 288.85 -38.05 L-194.15 -40.65 Q-205.1 -40.75 -208.5 -43.15 -210.0 -44.25 -210.0 -46.55 L-210.5 -48.7 Q-210.75 -49.8 -209.8 -50.35 -207.45 -51.75 -191.9 -52.35 -170.0 -53.25 1.05 -54.6 L225.6 -54.6 225.6 -54.9 M273.15 -20.55 L-86.05 -20.55 Q-166.75 -21.55 -179.55 -22.3 -186.9 -22.75 -187.9 -23.65 -188.3 -23.95 -188.15 -24.6 L-187.85 -25.85 -188.05 -26.7 Q-188.1 -27.25 -187.55 -27.6 -186.05 -28.55 -178.55 -29.1 -159.0 -30.65 -86.05 -30.45 L273.15 -30.45 Q330.0 -29.85 332.8 -29.3 335.55 -28.75 338.0 -25.55 332.5 -19.65 322.05 -19.65 319.75 -20.25 273.15 -20.55 M337.85 34.15 L337.0 33.75 Q334.9 32.75 333.7 32.75 326.7 32.25 168.2 31.85 L166.8 31.6 Q166.8 31.3 169.55 30.5 L172.7 29.3 Q173.75 28.05 255.75 27.85 L269.55 27.85 282.5 27.85 Q346.4 28.0 352.2 28.75 L355.05 28.7 Q356.95 28.95 356.95 30.75 L357.25 31.6 Q357.25 33.4 355.65 33.65 L352.2 33.9 337.85 34.15 M48.2 31.6 L44.75 31.6 -16.05 33.05 -74.85 33.6 -109.95 33.55 Q-150.0 32.95 -203.5 32.45 -206.4 31.6 -206.4 30.75 L-194.15 29.6 Q-174.0 28.5 4.65 28.15 L14.0 28.15 40.65 28.2 Q42.3 28.35 43.65 29.1 L48.2 31.6 M375.5 134.55 Q359.55 135.7 107.55 135.7 91.9 135.7 63.0 136.35 33.65 137.05 21.35 137.05 -23.5 137.1 -42.5 130.65 -25.45 130.65 37.7 128.8 100.9 126.9 107.55 126.9 376.95 128.35 386.3 128.9 386.3 129.5 387.15 131.35 384.45 135.9 382.35 135.6 379.1 134.35 375.5 134.55 M340.1 107.15 Q340.9 107.65 340.9 108.55 L340.7 110.25 Q340.7 113.85 337.75 114.7 L322.6 115.55 -154.2 114.1 Q-173.7 114.0 -194.35 113.1 L-267.2 110.4 Q-267.75 111.95 -267.75 109.1 -267.75 107.45 -191.35 106.4 -123.85 105.5 131.4 103.5 L198.85 103.5 Q304.15 103.55 327.3 105.1 338.0 105.75 340.1 107.15 M154.65 182.8 Q213.0 183.45 219.15 183.65 L232.35 184.75 Q233.25 185.1 233.25 185.7 L233.05 187.0 Q233.05 189.3 231.25 189.8 L221.1 190.6 Q206.3 191.3 137.3 191.75 L69.05 192.05 Q-55.9 190.9 -67.55 190.0 -80.45 189.25 -86.65 186.55 L-70.75 185.1 -64.85 183.9 Q-51.7 182.7 49.9 182.1 L88.3 182.1 92.6 182.15 Q95.25 182.85 134.75 183.25 L154.65 182.8 M334.25 221.05 Q299.25 221.75 265.9 222.95 L238.35 223.95 Q200.05 223.95 189.75 223.05 L170.4 220.2 226.75 217.6 250.0 217.6 Q277.8 218.8 333.95 219.9 L334.25 221.05 M155.2 51.75 L165.05 51.75 Q262.0 52.6 273.9 56.05 L267.6 56.8 254.8 58.1 Q222.1 59.8 99.95 59.8 43.5 59.8 -24.25 57.6 -86.05 55.6 -90.25 54.3 L-59.3 53.45 -26.05 52.65 -12.0 52.45 -10.45 52.45 Q31.3 52.45 64.1 52.05 L155.2 51.75 M104.65 87.35 Q105.55 87.65 105.35 88.15 L104.95 89.1 Q106.55 90.45 105.15 91.05 102.75 92.0 87.4 92.6 49.0 94.0 -111.25 94.0 -186.1 92.85 -195.2 92.1 -195.75 92.25 -195.75 89.4 L-195.7 87.65 -195.2 86.8 -142.0 84.8 -80.3 84.8 Q56.55 84.9 88.75 86.05 102.3 86.5 104.65 87.35 M117.2 162.05 Q121.2 162.5 121.2 163.55 121.2 168.45 -21.65 168.45 -182.95 167.45 -208.55 166.75 -213.3 166.75 -218.05 164.45 -216.15 163.05 -215.15 162.8 -212.15 161.95 -202.45 161.4 -179.4 160.15 -93.1 159.25 L49.9 159.25 91.15 160.7 117.2 162.05 M20.8 255.5 Q-84.7 254.65 -88.35 254.25 -98.25 253.35 -102.9 250.25 L-102.45 247.8 -93.1 248.1 -46.5 247.15 Q14.25 246.15 92.9 245.8 L162.75 245.8 Q198.6 245.6 208.5 247.7 212.0 248.45 212.55 249.6 212.85 250.2 212.5 251.25 212.5 253.95 209.6 255.15 208.2 255.7 127.85 256.3 L20.8 255.5 M-205.25 233.0 L-143.15 231.0 -112.0 231.6 -70.7 233.3 -71.25 235.0 -143.15 236.3 Q-185.1 237.05 -194.05 237.0 -200.7 237.0 -203.0 236.15 -205.25 235.35 -205.25 233.0" fill="#bacb98" fill-rule="evenodd" stroke="none"/>
    <path d="M83.7 -3.15 Q57.55 -2.85 22.6 -2.85 -33.9 -3.15 -89.65 -3.6 -200.8 -4.5 -205.95 -5.15 -209.8 -5.6 -210.55 -6.3 -211.55 -7.85 -213.45 -9.75 -211.95 -11.65 -210.65 -12.3 -208.2 -13.45 -202.35 -13.65 -163.25 -14.9 -5.85 -15.65 L51.05 -15.65 Q91.5 -15.2 121.55 -14.35 L142.9 -13.65 Q159.8 -13.2 160.45 -11.8 L160.65 -10.7 Q161.05 -10.3 162.6 -10.05 L165.35 -9.75 165.65 -8.9 Q163.9 -7.8 161.95 -7.15 158.35 -5.95 148.15 -5.15 L95.35 -3.2 83.7 -3.15 M168.2 31.85 Q326.7 32.25 333.7 32.75 334.9 32.75 337.0 33.75 L337.85 34.15 Q339.15 34.8 339.7 35.35 L340.7 37.05 Q339.8 38.2 337.15 38.2 L44.75 40.35 Q-16.05 38.8 -137.55 37.95 -138.1 38.95 -138.1 36.05 -138.1 34.2 -137.55 33.9 L-136.1 33.9 -109.95 33.55 -74.85 33.6 -16.05 33.05 44.75 31.6 48.2 31.6 168.2 31.85 M92.6 182.15 L92.45 182.1 91.7 181.8 Q91.45 181.7 91.45 179.95 91.45 176.1 163.95 177.0 200.25 177.45 237.2 178.65 281.55 178.65 294.6 176.95 L302.6 175.75 317.45 175.2 Q318.95 175.2 327.45 177.1 337.9 179.45 341.85 181.7 L342.45 182.4 317.45 184.0 250.0 181.7 Q217.05 181.5 173.5 182.35 L154.65 182.8 134.75 183.25 Q95.25 182.85 92.6 182.15 M-26.05 52.65 Q-136.6 53.0 -160.9 52.7 L-189.0 51.4 Q-197.4 50.45 -205.25 47.85 -198.1 43.55 -47.7 42.65 L26.75 42.65 Q142.3 42.3 192.8 44.6 L224.35 46.35 256.9 47.55 Q211.85 48.3 196.55 49.35 L181.15 50.9 155.2 51.75 64.1 52.05 Q31.3 52.45 -10.45 52.45 L-12.0 52.45 -26.05 52.65 M-192.05 218.55 Q-179.65 217.05 -137.95 217.05 L-92.15 217.35 Q-46.65 217.75 -37.35 218.2 L-35.35 218.25 Q-34.6 218.6 -34.6 220.5 -34.6 222.5 -35.25 223.05 -35.75 223.5 -37.35 223.5 -46.65 224.05 -92.15 224.4 L-137.95 224.65 -196.9 222.2 Q-197.5 221.35 -197.5 220.5 -197.2 220.35 -197.0 219.7 -196.05 219.05 -192.05 218.55" fill="#dce4c9" fill-rule="evenodd" stroke="none"/>
    <path d="M121.55 -14.35 Q122.85 -17.4 174.95 -18.2 211.3 -18.8 343.6 -18.8 346.55 -18.8 347.9 -17.1 348.75 -16.0 348.75 -14.95 349.9 -13.5 349.85 -12.85 349.7 -11.65 343.65 -11.0 327.5 -9.2 252.9 -9.2 241.9 -9.2 190.75 -9.75 L162.6 -10.05 Q161.05 -10.3 160.65 -10.7 L160.45 -11.8 Q159.8 -13.2 142.9 -13.65 L121.55 -14.35 M95.35 -67.1 Q229.15 -66.35 308.1 -66.25 L328.5 -65.4 340.0 -63.65 Q224.25 -60.65 73.2 -60.65 L-43.85 -61.1 Q-161.3 -61.65 -174.5 -62.1 -179.1 -62.1 -185.55 -64.5 L-174.5 -65.65 Q-147.65 -66.8 51.05 -67.1 L95.35 -67.1 M203.05 11.3 L322.0 10.9 327.85 10.9 Q330.25 10.9 332.15 12.2 333.9 13.35 333.9 14.65 333.9 17.3 331.65 18.3 329.75 19.1 324.85 19.1 L145.85 18.7 Q-69.7 18.05 -154.2 16.8 -154.8 17.65 -154.8 14.8 L-154.2 13.5 Q-59.45 12.3 203.05 11.3 M334.25 86.9 Q335.65 86.5 338.7 84.45 340.8 83.05 342.2 83.7 344.2 84.65 347.0 89.7 346.1 90.8 345.1 91.15 L338.0 92.15 Q326.8 92.85 283.0 92.85 L177.8 91.1 Q165.95 90.75 158.7 88.8 L239.45 85.95 326.7 85.95 Q330.95 87.8 334.25 86.9 M31.25 67.55 L33.65 67.55 Q317.15 71.7 330.5 71.15 L330.8 71.4 Q331.1 71.7 331.1 73.45 331.1 76.25 223.4 77.95 L116.05 77.95 Q51.4 78.6 -32.6 78.6 L-200.05 76.3 Q-202.15 76.3 -206.45 75.1 -211.35 73.75 -212.3 72.3 L-212.3 70.55 Q-207.45 69.05 -98.85 67.55 L31.25 67.55 M418.55 234.2 Q419.15 234.6 419.15 237.15 419.15 238.9 416.2 239.7 411.75 241.0 398.2 241.75 366.45 243.5 262.2 243.5 25.55 242.35 -24.25 241.2 L-36.15 240.35 -44.95 239.2 Q-47.0 237.75 -47.25 236.9 -42.4 234.8 -15.5 233.7 39.85 231.45 197.65 230.7 L326.7 230.7 Q403.1 232.25 409.8 232.7 417.1 233.15 418.55 234.2 M214.5 141.15 Q214.8 141.45 214.8 143.15 214.8 145.2 164.25 146.2 90.95 147.6 -105.9 147.6 L-197.75 147.3 Q-198.25 147.3 -202.35 144.15 L-202.65 142.3 Q-200.3 139.95 -179.8 139.3 -166.3 138.85 -121.0 138.25 L-90.65 138.25 Q175.25 139.55 214.2 140.85 L214.5 141.15 M92.55 258.3 Q92.9 258.6 92.9 260.3 92.9 263.2 92.2 262.75 L-26.85 264.75 -179.95 262.9 -202.1 261.85 Q-204.0 261.45 -204.45 260.75 -204.65 260.5 -204.65 259.45 -204.65 256.8 -203.2 256.35 L-191.3 255.7 26.75 256.0 92.2 258.0 92.55 258.3 M-170.9 -1.4 L-118.55 -1.4 -88.65 -0.15 Q-85.65 0.15 -84.8 0.7 -84.2 1.1 -84.2 2.15 -84.2 2.85 -83.4 3.95 -83.4 4.75 -87.15 5.15 -95.65 6.0 -144.75 6.0 -212.75 5.15 -213.9 4.85 -216.05 4.4 -217.35 3.15 -215.8 2.25 -216.3 1.0 -216.7 0.05 -215.2 -0.25 -211.3 -1.05 -170.9 -1.4" fill="#445128" fill-rule="evenodd" stroke="none"/>
    <path d="M145.85 18.7 Q81.2 19.65 -64.65 19.65 -165.7 19.65 -187.25 18.25 -198.0 17.55 -200.45 16.1 -201.4 15.5 -201.55 14.55 L-201.5 12.65 Q-201.5 10.15 -199.9 9.5 -197.75 8.6 -189.05 8.45 L-126.35 8.2 -131.5 8.3 Q129.8 8.5 170.95 9.3 L201.75 10.9 203.05 11.3 Q-59.45 12.3 -154.2 13.5 L-154.8 14.8 Q-154.8 17.65 -154.2 16.8 -69.7 18.05 145.85 18.7 M223.4 77.95 Q331.1 76.25 331.1 73.45 331.1 71.7 330.8 71.4 L330.5 71.15 Q317.15 71.7 33.65 67.55 L31.25 67.55 Q72.95 66.7 229.05 65.65 L346.45 65.65 Q375.3 63.95 384.5 67.55 389.1 69.4 388.0 71.85 388.0 75.15 384.3 77.15 383.25 77.6 287.7 78.45 254.0 78.45 223.4 77.95 M373.25 155.95 Q374.35 156.9 374.35 159.1 374.35 161.05 373.0 162.0 370.9 163.5 364.5 164.45 348.95 166.75 299.9 166.75 L233.25 166.2 Q167.55 165.5 161.05 164.7 157.1 164.15 154.8 161.95 153.15 160.45 153.15 159.55 L153.0 157.65 Q153.05 156.65 153.9 156.05 156.1 154.45 166.7 153.6 190.15 151.75 291.85 151.65 L308.1 151.65 Q352.85 151.55 365.9 153.6 371.55 154.5 373.25 155.95 M337.7 205.85 Q337.7 209.45 334.85 210.7 332.9 211.6 328.35 211.6 L294.15 213.3 Q276.75 213.6 17.85 214.45 L-193.6 213.3 Q-194.85 213.05 -196.85 211.75 -198.8 210.45 -198.9 210.45 -217.65 204.2 -220.1 207.0 L-220.15 207.05 -220.6 204.7 -220.9 202.65 Q-220.9 201.5 -219.5 200.75 -215.7 198.7 -197.75 197.55 -153.45 194.6 17.85 194.6 294.15 195.6 312.7 196.35 L330.25 197.9 Q334.15 198.55 336.3 202.0 337.7 204.3 337.7 205.85 M-142.0 57.25 Q-138.7 58.75 -138.7 61.65 -138.7 65.25 -144.35 66.85 -150.45 68.55 -165.3 68.55 -240.45 69.25 -254.7 66.4 -257.85 65.75 -257.85 61.65 -257.85 58.85 -257.6 58.6 -256.4 57.2 -249.85 56.45 -235.3 54.8 -169.9 54.6 L-160.55 54.6 Q-146.95 55.05 -142.0 57.25 M-96.55 114.7 Q-81.3 114.95 -80.55 115.8 -80.2 116.15 -79.6 117.5 -78.3 118.95 -74.15 120.6 L-73.85 120.4 Q-73.55 120.5 -73.55 122.3 -73.55 129.2 -125.6 129.2 -147.25 129.6 -168.65 128.9 -211.4 127.55 -211.4 122.15 -211.4 119.7 -210.9 119.0 -209.85 117.5 -205.4 116.65 -194.85 114.6 -154.65 114.7 L-96.55 114.7" fill="#7b934a" fill-rule="evenodd" stroke="none"/>
  </g>
</svg>
