<?xml version="1.0" encoding="UTF-8" standalone="no"?>
<svg xmlns:xlink="http://www.w3.org/1999/xlink" height="326.8px" width="661.5px" xmlns="http://www.w3.org/2000/svg">
  <g transform="matrix(1.0, 0.0, 0.0, 1.0, 263.35, 69.1)">
    <path d="M33.6 -68.3 Q69.9 -67.7 85.35 -67.1 21.95 -66.25 -191.75 -64.8 -197.35 -64.8 -197.55 -66.55 L-197.6 -67.65 Q-197.75 -67.9 -198.25 -67.95 L-174.35 -69.1 0.0 -69.1 Q2.05 -68.85 33.6 -68.3 M-72.85 -17.05 L-120.15 -14.6 Q-136.9 -13.35 -163.85 -13.35 -190.3 -13.35 -195.2 -14.2 -196.55 -14.4 -198.8 -16.5 -198.15 -17.25 -197.6 -19.15 -197.3 -20.25 -195.55 -20.6 -192.0 -21.4 -163.85 -21.4 L-118.95 -19.7 -74.7 -17.5 -63.25 -17.35 -72.85 -17.05 M298.7 -9.2 L330.15 -9.2 Q335.35 -10.25 339.8 -4.6 338.6 -3.85 338.7 -2.7 338.85 -1.65 338.15 -1.25 335.7 0.0 314.35 0.0 124.3 -1.0 -55.75 -2.3 L-80.1 -3.2 -100.45 -5.15 Q36.05 -11.3 131.45 -10.35 L207.85 -9.2 Q254.35 -8.6 298.7 -9.2 M398.15 -43.8 L339.5 -41.5 -15.05 -41.5 -123.0 -41.9 Q-176.6 -42.05 -181.25 -42.65 L-194.6 -42.3 Q-206.95 -42.6 -212.15 -47.0 L-195.5 -47.25 Q-117.4 -46.1 -15.05 -46.7 L339.5 -46.7 Q386.05 -45.75 398.15 -43.8 M93.8 13.05 Q163.8 14.2 223.5 16.2 L223.8 17.65 159.25 20.85 Q100.1 22.55 -15.65 22.55 -86.9 22.55 -126.15 21.25 L-193.2 18.5 Q-194.05 19.1 -194.05 16.2 -194.05 14.5 -187.8 13.85 L-186.3 13.75 -165.6 13.1 Q-108.8 13.0 -52.15 12.05 L20.8 12.05 93.8 13.05 M246.35 57.25 L231.05 55.55 Q217.9 53.1 209.85 52.9 L231.0 51.15 Q242.3 49.65 253.4 49.3 L266.2 49.0 Q322.35 49.0 336.1 51.2 338.6 51.6 340.55 52.45 341.35 52.8 344.6 52.5 342.5 52.75 341.45 53.75 340.25 54.9 336.6 55.55 L325.1 56.65 317.9 55.6 Q304.75 54.2 280.65 55.3 L246.35 57.25 M337.35 161.95 Q337.65 162.05 337.65 163.85 337.65 166.95 332.75 168.15 327.95 169.3 315.65 169.3 L244.25 169.05 Q216.5 168.3 208.7 164.45 244.55 160.9 286.65 160.6 304.65 160.5 321.4 160.8 L319.1 160.7 Q334.8 160.7 337.05 162.15 L337.35 161.95 M31.9 202.65 L-16.2 201.95 Q-17.4 201.95 -18.9 201.0 -20.25 200.15 -20.25 199.65 -18.8 199.95 35.5 199.65 L245.2 198.8 311.65 198.8 Q328.75 199.1 330.45 200.8 329.9 202.4 326.7 202.8 L300.95 203.2 Q277.95 202.35 217.35 201.95 L131.35 201.95 94.9 202.6 31.9 202.65 M346.4 243.05 Q346.4 245.25 346.1 245.9 345.55 247.15 343.3 247.8 338.35 249.25 317.95 249.25 265.7 249.25 252.85 248.1 L246.05 247.05 Q242.95 246.2 240.0 245.85 214.85 243.0 -24.25 244.65 L-24.85 243.8 Q174.3 242.25 226.5 240.85 L256.35 239.85 Q272.8 239.3 302.3 238.9 L333.6 238.9 345.55 240.05 346.0 240.8 Q346.4 241.4 346.4 243.05 M235.45 122.6 Q235.75 122.9 235.75 124.6 235.75 128.05 147.6 128.05 L23.1 126.6 Q16.2 126.25 13.9 124.05 L13.35 123.15 Q35.65 120.05 64.85 120.1 81.75 120.1 118.55 120.6 L176.65 120.6 Q199.65 121.05 235.15 122.3 L235.45 122.6 M321.85 145.2 Q326.8 146.15 333.05 147.9 316.25 148.45 -94.7 150.5 -214.0 150.35 -224.35 149.35 -229.6 148.8 -235.55 149.15 L-245.05 149.9 Q-255.65 150.65 -263.35 147.05 -257.2 140.15 -232.2 140.8 L-189.45 142.3 0.0 142.3 Q77.4 143.45 298.7 143.45 312.8 143.45 321.85 145.2 M74.35 48.9 L75.5 49.9 Q76.3 50.55 77.75 51.0 75.8 51.65 75.15 52.6 74.65 53.4 73.1 53.65 68.85 54.3 35.35 54.3 -38.25 54.3 -55.05 53.9 -76.85 53.35 -79.6 51.0 -78.85 50.35 -74.85 49.7 L-67.4 49.0 4.6 47.85 66.25 47.85 Q72.85 47.95 74.35 48.9 M39.95 106.95 Q39.95 110.75 -55.55 112.55 L-135.95 113.8 -90.7 114.1 Q-165.9 114.75 -188.7 113.0 -199.3 112.2 -203.1 110.65 -205.95 109.5 -205.95 107.2 -205.95 104.8 -204.85 103.95 -202.85 102.45 -195.35 101.6 -178.2 99.6 -113.85 99.6 L6.9 99.6 Q30.9 100.95 36.7 102.7 39.2 103.4 39.75 104.55 39.95 104.95 39.95 106.95 M-197.9 246.65 L-199.35 244.95 Q-199.35 242.6 -198.2 241.75 L-162.15 240.9 Q-53.45 241.9 -42.95 242.35 -38.55 242.35 -29.6 244.35 -38.3 243.85 -44.1 245.5 -69.0 247.35 -163.3 247.35 -196.35 247.35 -197.9 246.65 M-215.05 216.2 Q-213.6 214.05 -201.1 213.9 L-105.2 213.0 -39.2 215.6 -38.8 216.45 Q-40.65 217.9 -105.2 219.35 L-211.6 217.9 Q-214.45 217.05 -215.05 216.2" fill="#445128" fill-rule="evenodd" stroke="none"/>
    <path d="M47.55 -31.3 Q-117.4 -32.45 -125.45 -33.35 L-127.2 -34.5 Q-127.2 -36.05 -122.0 -36.9 -118.75 -37.5 -15.05 -38.35 L110.4 -38.35 Q122.6 -37.95 256.3 -34.5 189.2 -33.45 139.2 -32.0 116.25 -31.3 47.55 -31.3 M232.7 -56.4 Q288.1 -56.9 306.8 -56.6 331.75 -56.15 333.9 -54.05 L334.2 -53.15 Q334.2 -51.35 331.45 -51.1 L327.85 -51.15 298.95 -51.6 Q274.4 -51.9 274.4 -50.15 209.15 -50.0 181.85 -50.35 L188.55 -50.6 219.8 -52.4 279.55 -54.3 Q279.3 -54.9 279.3 -55.45 252.1 -55.85 232.7 -56.4 M187.7 11.7 L187.7 11.75 Q146.05 12.1 93.8 13.05 L20.8 12.05 -52.15 12.05 Q-108.8 13.0 -165.6 13.1 L-186.3 13.75 -196.35 13.5 Q-199.25 13.5 -200.2 11.75 -200.2 9.7 -196.35 9.45 -190.35 8.95 -10.35 8.3 L37.05 8.3 59.2 9.45 Q104.05 10.35 157.6 10.55 L187.7 11.7 M327.55 85.15 L309.2 86.5 79.05 86.5 Q51.95 85.75 42.4 83.65 51.85 81.55 79.05 80.75 L309.2 80.75 330.45 82.2 329.35 84.05 Q328.85 84.8 327.55 85.15 M146.75 184.95 Q154.25 186.0 159.85 187.45 149.9 188.3 22.55 190.0 L-15.05 189.75 -18.4 189.05 Q-20.95 188.35 -21.95 187.7 -18.35 183.25 -12.75 183.25 25.65 181.55 61.85 181.2 76.35 181.05 89.05 181.25 107.05 184.4 140.8 184.85 L146.75 184.95 M327.4 254.15 L303.35 255.55 Q231.25 257.7 -25.0 257.7 -190.6 256.45 -196.35 256.0 L-212.4 255.0 Q-222.65 254.3 -224.35 253.4 L-206.35 251.75 -200.0 250.5 Q-188.55 249.4 -99.9 248.95 L49.85 248.95 Q177.2 249.2 195.85 249.4 295.05 250.3 330.75 253.7 L328.3 253.75 Q328.2 253.95 327.4 254.15 M296.7 29.9 L296.1 31.6 182.4 33.35 20.8 31.3 Q17.95 30.45 17.95 29.6 45.45 26.95 88.6 27.5 139.25 28.1 163.85 26.85 L201.1 26.85 Q249.95 27.25 273.1 28.15 L285.05 28.7 Q296.15 29.35 296.7 29.9 M303.95 78.55 L241.75 76.3 227.8 76.0 -66.1 76.0 Q-73.7 75.65 -84.9 76.45 L-103.4 77.85 Q-125.45 78.95 -140.0 72.55 L-66.1 70.25 241.75 70.0 Q249.45 70.0 277.85 70.65 L333.35 72.55 Q331.05 76.4 323.35 77.75 L303.95 78.55 M-66.55 172.25 Q39.8 174.3 92.1 174.65 L92.4 175.8 -24.2 177.85 Q-120.0 179.5 -144.75 179.5 L-204.8 177.8 -205.7 176.35 Q-205.0 175.75 -204.9 174.3 -204.85 173.3 -203.0 172.85 L-172.9 171.45 -133.4 171.55 -112.65 171.7 -66.55 172.25 M136.0 232.75 Q166.95 231.65 184.25 238.6 L174.8 239.4 159.55 240.35 Q123.4 241.5 -26.7 241.5 L-192.9 240.6 Q-204.3 240.25 -206.55 238.6 -206.25 237.6 -205.55 237.2 -204.45 236.55 -198.9 236.15 -185.8 235.3 -125.45 235.0 L72.0 235.0 Q87.15 235.25 106.55 234.3 L136.0 232.75" fill="#dce4c9" fill-rule="evenodd" stroke="none"/>
    <path d="M-74.7 -17.5 L-77.15 -17.95 -68.55 -18.25 -63.25 -18.8 Q-61.6 -19.55 -57.4 -19.95 -40.15 -21.55 38.35 -21.1 L110.4 -21.1 Q124.15 -20.85 127.05 -19.5 128.95 -18.65 129.95 -15.95 127.65 -12.9 125.75 -12.35 124.45 -11.9 74.3 -11.2 L-58.65 -12.05 Q-60.35 -12.05 -64.95 -13.65 -66.3 -14.0 -69.85 -15.85 -71.2 -16.55 -72.85 -17.05 L-63.25 -17.35 -74.7 -17.5 M136.25 107.65 Q111.6 106.6 108.95 104.9 L111.05 102.9 Q112.9 102.05 119.75 101.6 133.3 100.7 202.25 99.9 L331.3 99.9 Q339.6 99.7 343.85 104.65 342.4 107.2 340.65 107.8 L324.5 108.45 Q302.45 107.7 230.1 107.2 L188.3 107.2 Q157.75 107.35 136.25 107.65 M344.7 227.5 Q342.75 228.25 336.95 228.95 332.45 229.55 249.25 230.7 100.85 230.7 59.4 228.55 L42.05 226.9 33.35 225.8 33.35 224.35 Q39.0 223.2 61.3 222.25 104.65 220.4 218.5 220.2 L280.15 220.2 Q333.55 220.4 340.7 221.75 342.75 222.15 343.15 223.3 343.6 224.5 347.0 225.25 346.35 226.85 344.7 227.5 M255.15 39.65 L198.65 41.6 180.25 43.2 Q147.3 44.7 -114.55 44.7 -193.75 42.8 -195.2 42.4 -200.5 41.0 -203.1 39.2 L-202.25 36.45 Q-201.5 34.85 -199.05 34.75 L-168.95 34.45 -170.9 34.5 Q157.15 34.4 171.4 35.65 173.25 35.8 172.5 36.25 171.75 36.65 175.05 36.9 185.9 37.65 254.85 38.2 L255.15 39.65 M4.4 163.0 Q-15.85 164.7 -96.45 164.7 L-197.5 163.55 Q-202.3 163.2 -203.65 161.85 -203.95 163.0 -203.95 160.1 -203.95 158.65 -203.35 158.3 -202.15 157.55 -197.35 157.15 -188.4 156.45 -144.15 155.95 L-48.7 155.95 Q0.85 156.9 7.65 157.6 L42.4 160.7 17.35 161.7 4.4 163.0" fill="#7b934a" fill-rule="evenodd" stroke="none"/>
    <path d="M181.85 -50.35 Q133.0 -48.7 -33.05 -48.7 L-186.0 -50.15 Q-191.35 -50.15 -194.8 -51.65 L-198.2 -53.75 Q-197.9 -55.5 -197.35 -56.45 -196.3 -58.2 -192.9 -58.65 -183.15 -59.95 -66.1 -60.35 L0.0 -60.35 Q141.6 -60.1 185.2 -58.4 L218.65 -56.9 232.7 -56.4 Q252.1 -55.85 279.3 -55.45 279.3 -54.9 279.55 -54.3 L219.8 -52.4 188.55 -50.6 181.85 -50.35 M182.25 -18.25 L182.1 -18.05 Q181.95 -18.15 181.95 -19.95 181.95 -21.3 182.6 -21.75 183.85 -22.55 188.4 -23.05 198.6 -24.1 238.3 -24.4 L287.05 -24.4 315.05 -22.95 331.9 -21.4 Q331.9 -20.35 333.05 -18.25 L328.7 -17.85 320.5 -16.75 Q303.35 -15.05 262.6 -15.05 L188.0 -16.2 Q182.85 -17.6 182.25 -18.25 M157.6 10.55 L129.5 8.6 227.85 6.3 Q302.7 4.6 330.15 4.6 333.6 7.5 333.6 8.15 L333.45 11.2 Q332.95 12.3 330.45 12.8 326.5 13.5 301.15 13.5 256.1 13.5 204.9 12.2 L187.7 11.7 157.6 10.55 M325.1 56.65 Q336.25 58.8 343.25 63.5 L343.25 64.2 Q343.15 64.7 341.45 65.05 L315.6 66.7 Q256.9 68.55 56.9 68.55 -183.55 67.4 -189.45 66.8 -195.65 66.35 -199.05 64.4 -195.7 61.45 -189.45 60.95 -177.65 60.05 -55.75 59.2 L169.75 59.2 Q197.8 59.65 231.35 58.0 L246.35 57.25 280.65 55.3 Q304.75 54.2 317.9 55.6 L325.1 56.65 M324.5 108.45 L333.6 108.95 Q338.0 109.6 343.55 111.8 335.9 113.95 331.3 114.4 325.55 115.0 209.15 115.85 98.0 115.85 86.05 114.75 L83.45 114.25 83.5 113.65 Q83.45 112.9 74.3 112.4 71.4 111.8 71.4 110.95 L82.3 110.1 87.5 109.05 Q96.6 108.15 136.25 107.65 157.75 107.35 188.3 107.2 L230.1 107.2 Q302.45 107.7 324.5 108.45 M89.05 181.25 Q81.95 180.0 77.3 178.35 146.55 173.5 285.3 173.5 340.65 173.75 342.4 174.05 L345.25 175.5 346.25 176.4 Q346.7 177.1 346.7 178.95 346.7 179.95 347.65 181.5 347.85 182.7 344.15 183.25 335.5 184.55 285.3 184.55 182.35 185.25 146.75 184.95 L140.8 184.85 Q107.05 184.4 89.05 181.25 M300.95 203.2 L304.2 203.3 335.05 205.7 Q335.05 206.25 335.9 208.15 332.6 212.5 327.7 211.5 323.35 209.55 323.15 209.55 L174.35 211.85 Q43.8 211.85 -81.3 210.0 -196.05 208.3 -196.05 207.0 -196.05 203.95 -103.55 203.4 -29.5 203.2 31.9 202.65 L94.9 202.6 131.35 201.95 217.35 201.95 Q277.95 202.35 300.95 203.2 M-172.9 171.45 L-196.35 171.05 Q-199.7 170.6 -201.35 169.15 L-200.2 167.6 Q-199.1 166.45 -197.5 166.15 -191.55 165.05 -44.1 164.7 L-5.75 164.7 176.95 167.6 177.1 167.1 177.2 168.75 117.45 170.8 Q49.05 172.2 -25.0 172.2 -47.25 172.1 -66.55 172.25 L-112.65 171.7 -133.4 171.55 -172.9 171.45 M34.85 96.8 Q-28.75 99.0 -134.8 99.0 L-206.25 96.7 Q-207.1 96.85 -207.1 94.0 -207.1 91.35 -199.5 90.4 -188.25 89.0 -153.35 89.1 L-116.25 89.1 Q-27.5 89.45 33.6 91.5 L116.7 94.4 Q103.15 94.45 34.85 96.8 M45.95 139.1 Q-6.3 140.85 -62.8 140.85 L-186.0 139.15 Q-197.25 138.8 -201.65 136.55 -199.6 134.75 -196.05 134.0 -191.85 133.1 -181.8 132.65 -170.45 132.1 -96.45 131.1 L-29.0 131.1 Q59.45 131.95 82.65 133.7 106.45 135.45 183.1 136.25 109.3 136.95 45.95 139.1 M-41.5 192.4 L-29.95 189.9 Q-16.35 187.6 -7.75 196.75 L-32.15 197.75 -56.2 199.45 Q-92.95 201.65 -158.7 201.65 L-205.4 199.95 -206.9 199.0 Q-207.4 198.3 -207.4 196.35 -207.8 194.6 -207.55 193.95 -207.1 192.9 -203.7 192.35 -196.1 191.15 -158.7 191.15 -64.8 191.75 -53.45 193.2 -48.45 193.8 -41.5 192.4" fill="#bacb98" fill-rule="evenodd" stroke="none"/>
  </g>
</svg>
