<?xml version="1.0" encoding="UTF-8" standalone="no"?>
<svg xmlns:xlink="http://www.w3.org/1999/xlink" height="320.2px" width="615.95px" xmlns="http://www.w3.org/2000/svg">
  <g transform="matrix(1.0, 0.0, 0.0, 1.0, 224.95, 63.35)">
    <path d="M80.5 -47.85 L79.9 -46.1 62.65 -44.7 -160.4 -44.7 -186.75 -45.75 Q-208.8 -46.85 -206.25 -48.15 L-160.4 -50.6 62.65 -50.6 Q63.35 -50.25 71.8 -49.25 L80.5 -47.85 M67.4 -4.6 Q142.4 -3.7 285.9 -3.7 342.5 -3.7 344.7 -2.55 347.35 -1.45 347.85 0.0 342.95 0.7 58.05 2.3 25.85 2.3 -13.75 0.7 -50.05 -0.8 -51.75 -1.7 L48.7 -4.6 67.4 -4.6 M106.65 -19.65 Q122.7 -21.0 196.35 -21.95 L268.5 -21.95 Q326.75 -21.05 333.2 -20.7 L339.7 -19.85 343.55 -18.25 Q340.35 -15.05 232.4 -15.05 162.3 -15.05 134.2 -16.25 L106.65 -18.25 106.65 -19.65 M-30.3 22.2 Q-29.9 22.2 -29.9 24.0 -29.9 25.65 -30.05 25.6 -30.35 25.5 -30.45 25.7 L-132.5 27.6 Q-208.15 26.3 -209.55 26.0 L-215.75 25.15 -224.95 23.7 -208.25 22.05 -180.1 21.1 -84.8 21.1 -30.75 22.55 -30.3 22.2 M-62.95 38.5 L-133.1 39.65 -214.45 37.35 Q-212.65 37.2 -211.7 36.6 -210.75 36.0 -206.85 35.65 -193.5 34.5 -133.1 34.5 L-96.95 35.3 -62.35 36.8 -62.95 38.5 M-70.85 78.45 L-70.55 79.35 Q-128.55 81.3 -139.85 80.9 -154.5 80.45 -202.25 81.65 -205.1 81.05 -205.7 80.05 -194.5 74.7 -157.35 75.15 -114.25 76.7 -97.6 76.6 L-75.45 76.6 Q-72.05 77.05 -70.85 78.45 M-93.85 92.55 Q-94.35 94.15 -96.45 94.7 L-144.55 93.9 Q-190.45 93.25 -191.7 94.9 L-207.05 94.7 Q-215.6 94.5 -217.9 93.55 -214.2 89.7 -212.75 89.7 L-184.85 90.95 -96.45 91.1 Q-94.7 91.7 -93.85 92.55 M-149.1 142.55 Q-170.95 141.95 -201.1 141.7 -121.0 139.6 -108.2 139.45 -69.05 138.95 113.85 138.55 L160.4 138.55 Q171.9 138.9 195.25 138.05 215.95 138.0 229.55 142.0 L208.2 143.65 Q180.75 145.0 137.1 145.0 -46.85 145.0 -109.65 143.65 L-149.1 142.55 M341.95 182.75 Q336.15 184.95 327.95 185.85 317.05 187.0 294.4 186.35 L241.55 184.45 Q201.65 183.1 163.85 183.1 L-10.05 181.8 Q-10.55 182.7 -10.6 180.65 L-10.6 179.95 -10.05 178.65 113.85 177.2 213.9 177.2 Q223.2 177.5 340.65 177.8 346.2 178.15 347.85 179.8 345.3 181.5 341.95 182.75 M-184.6 42.5 Q-170.25 41.3 -69.7 40.95 L56.9 40.95 Q195.5 41.55 230.4 42.25 260.85 42.85 272.65 44.95 274.35 45.6 272.6 46.05 L250.25 47.6 Q192.7 49.55 -6.45 49.55 -167.3 48.55 -178.95 47.85 L-190.7 46.85 -197.05 46.7 Q-193.25 45.8 -191.5 44.15 -190.25 42.95 -184.6 42.5 M-195.2 209.3 L-192.15 207.95 Q-190.15 207.15 -184.15 206.7 -167.25 205.4 -101.6 205.4 -25.55 206.55 -5.15 207.1 -5.15 207.7 -4.0 209.55 L-6.5 210.85 -16.6 211.95 Q-35.85 213.0 -101.6 213.0 -187.15 211.6 -192.9 211.0 L-195.2 209.3 M-69.1 219.05 Q-60.2 218.3 101.05 217.35 L282.45 217.35 299.2 217.95 Q311.05 218.45 328.15 218.75 L328.45 219.9 Q318.55 220.5 191.75 222.05 -16.2 221.65 -66.1 220.8 -69.1 219.9 -69.1 219.05 M-70.9 251.35 Q-61.4 250.2 21.95 249.95 L139.4 249.95 Q329.2 251.75 331.9 252.55 268.15 255.8 182.1 256.65 158.9 256.85 80.6 256.85 -60.35 256.45 -72.0 255.4 L-91.1 252.85 -74.5 252.2 Q-73.4 251.65 -70.9 251.35 M340.25 86.3 Q340.65 86.45 340.65 88.25 340.65 88.85 340.95 89.75 340.75 90.35 338.35 90.6 333.55 91.1 304.0 91.1 41.8 89.95 9.75 88.55 11.0 86.7 109.25 86.5 189.45 86.25 297.55 85.35 L310.5 85.35 339.8 86.5 340.25 86.3" fill="#445128" fill-rule="evenodd" stroke="none"/>
    <path d="M323.7 -26.45 Q321.45 -25.7 321.75 -25.0 322.0 -24.4 321.7 -24.3 320.8 -24.15 292.95 -24.15 L94.15 -24.15 Q19.35 -24.15 -31.1 -22.6 -81.5 -21.1 -139.4 -21.1 -182.05 -21.1 -192.0 -23.0 -195.75 -23.75 -196.0 -24.9 -196.15 -25.6 -195.6 -27.0 -195.6 -29.4 -191.9 -30.4 L-178.95 -31.9 -139.4 -32.2 Q-90.8 -32.2 -41.4 -31.15 L46.0 -29.0 Q166.0 -26.15 323.4 -27.3 L323.7 -26.45 M-124.5 101.8 Q-123.05 100.9 -113.35 100.5 -87.35 99.4 61.5 99.0 L174.35 99.0 258.4 100.8 Q296.8 101.75 302.55 103.05 300.45 104.55 296.6 105.2 L274.7 106.65 Q240.2 107.8 117.85 107.8 L-1.1 106.8 Q-119.3 105.7 -126.6 105.05 -126.6 104.9 -129.5 103.5 -126.7 103.1 -124.5 101.8 M-110.4 123.75 Q10.75 126.0 18.5 126.6 18.5 126.9 21.4 128.05 -2.2 132.75 -41.2 132.75 -64.45 132.75 -120.85 131.8 L-198.5 129.95 Q-198.5 129.55 -199.55 128.75 L-200.8 127.5 Q-195.6 126.9 -196.0 126.1 L-196.4 125.55 Q-196.5 125.25 -195.55 125.1 -190.8 124.2 -131.35 123.75 L-110.4 123.75 M63.05 198.0 L75.45 197.5 125.45 197.2 Q135.8 197.3 145.05 197.55 L186.65 197.75 218.75 198.8 226.1 201.35 Q219.55 201.8 219.35 202.55 L219.25 203.15 217.1 203.7 Q207.6 204.8 125.45 204.8 65.8 204.8 59.05 203.65 57.45 203.35 57.6 202.45 57.7 201.6 53.45 201.1 56.75 199.1 57.85 198.8 L63.05 198.0 M-18.45 166.15 L2.85 167.3 5.15 168.75 -37.2 171.45 Q-58.2 171.45 -103.75 169.85 -147.3 168.3 -166.15 168.45 -66.05 165.6 -37.2 165.6 L-18.45 166.15 M336.5 35.9 Q336.5 36.9 337.1 38.35 336.85 39.45 332.55 39.95 322.95 41.1 270.25 41.1 193.85 41.1 156.25 39.7 L115.1 36.9 75.6 34.85 Q57.15 34.55 25.8 34.6 47.25 33.85 52.35 33.85 63.25 34.2 94.7 34.2 121.45 34.2 150.55 32.6 180.85 30.9 225.5 30.75 L315.1 30.75 Q328.9 31.05 333.3 32.35 336.5 33.3 336.5 35.9 M337.65 214.15 Q334.7 214.8 335.05 215.5 335.5 216.3 335.25 216.4 333.3 217.05 301.0 217.05 255.3 217.05 246.4 216.85 218.55 216.2 208.7 213.3 L271.95 211.0 301.0 210.7 332.75 212.15 Q337.2 213.35 337.65 214.15 M89.95 232.4 Q89.4 231.55 89.4 230.7 115.0 229.55 211.6 228.7 L234.85 228.7 289.8 230.65 334.2 232.7 Q328.4 235.6 278.85 236.25 L223.2 236.3 Q110.4 234.6 99.0 234.6 96.3 234.6 89.95 232.4" fill="#dce4c9" fill-rule="evenodd" stroke="none"/>
    <path d="M17.95 -57.75 L-3.0 -55.9 -12.3 -54.35 Q-28.7 -52.9 -133.65 -52.9 L-202.25 -54.3 Q-203.45 -54.3 -205.05 -55.1 -206.9 -56.0 -207.7 -57.2 -205.5 -61.55 -197.55 -62.35 L-169.6 -63.35 -97.6 -63.35 Q-29.65 -62.6 -18.5 -61.6 L-9.05 -60.6 17.65 -59.2 Q17.65 -58.35 17.95 -57.75 M37.9 -15.95 Q41.2 -16.1 48.25 -18.0 54.7 -19.75 57.7 -19.6 62.45 -19.35 65.25 -15.35 L64.8 -13.65 32.4 -12.55 23.3 -11.25 Q10.15 -9.75 -85.35 -9.75 -164.65 -9.75 -186.35 -10.85 -196.6 -11.35 -200.65 -12.3 -203.2 -12.9 -205.4 -14.5 -202.4 -17.6 -187.1 -18.55 L-135.95 -20.25 -34.75 -20.25 Q26.4 -19.65 27.6 -18.8 31.95 -15.65 37.9 -15.95 M97.0 -42.95 Q97.0 -44.5 97.3 -44.95 97.95 -45.95 100.75 -46.55 L132.5 -47.85 296.4 -47.85 338.5 -45.25 Q338.5 -44.55 340.1 -42.95 340.15 -41.8 338.95 -41.2 336.85 -40.25 327.75 -39.65 303.7 -38.05 214.45 -38.05 114.4 -37.95 99.0 -39.5 97.0 -39.7 97.0 -42.95 M-43.95 11.45 Q-45.0 10.7 -35.75 10.25 0.95 8.6 217.9 8.6 383.95 9.45 389.85 10.05 389.85 10.35 390.45 10.3 391.0 10.6 391.0 12.35 391.0 15.2 390.1 15.05 388.25 15.35 217.9 16.8 L-35.9 14.65 Q-47.1 13.65 -52.9 12.05 L-43.95 11.45 M-10.6 180.65 Q-10.55 182.7 -10.05 181.8 L163.85 183.1 Q201.65 183.1 241.55 184.45 L294.4 186.35 Q317.05 187.0 327.95 185.85 336.15 184.95 341.95 182.75 L342.95 183.55 Q345.85 186.0 345.85 189.75 345.85 194.75 341.25 196.35 339.45 196.9 186.65 197.75 L145.05 197.55 Q135.8 197.3 125.45 197.2 L75.45 197.5 63.05 198.0 -14.5 198.2 -189.45 197.05 -199.05 195.6 Q-203.65 194.65 -203.65 189.45 -203.65 187.25 -202.95 186.25 -201.75 184.45 -197.95 183.35 -188.35 180.5 -158.1 180.65 L-10.6 180.65 M-43.35 152.85 Q58.1 153.95 181.25 153.95 L308.05 151.65 Q333.4 151.65 339.25 153.35 341.4 154.0 341.55 155.05 L341.25 156.8 Q341.25 158.8 340.85 159.4 340.15 160.5 337.4 161.05 L308.05 162.15 Q267.05 160.7 237.15 160.4 186.0 159.95 -123.15 160.7 L-209.3 159.85 Q-211.0 159.75 -213.1 158.8 -215.15 157.85 -215.6 157.1 -212.5 154.6 -210.5 153.65 -207.6 152.35 -202.5 151.75 -193.5 150.75 -158.15 151.2 L-43.35 152.85 M-8.05 60.95 Q232.85 61.7 285.2 62.95 L285.6 65.25 Q285.6 66.35 285.3 66.65 284.75 67.2 282.6 67.45 279.35 67.75 259.15 67.95 173.2 69.0 -58.65 69.1 L-138.25 68.95 Q-190.5 68.35 -208.55 65.65 -206.2 63.4 -202.3 62.6 L-188.3 61.55 Q-151.5 61.55 -109.25 60.95 L-8.05 60.95 M-217.25 117.95 Q-215.4 117.0 -200.3 116.4 -159.2 114.8 3.45 115.0 L275.55 115.0 282.55 114.5 296.8 113.9 Q318.1 113.85 326.7 119.7 324.4 120.15 317.55 122.25 314.3 123.3 304.1 123.65 284.9 124.3 139.4 124.3 -176.65 123.75 -215.6 122.3 -216.45 122.45 -216.45 119.6 -218.35 118.55 -217.25 117.95 M-212.15 231.25 Q-194.65 225.05 -136.55 225.1 -64.5 226.4 -29.6 226.4 42.95 226.4 59.05 228.25 L68.3 229.9 Q73.5 230.95 83.05 231.55 73.6 231.9 68.6 232.8 L59.2 234.35 Q41.85 236.3 -29.6 236.3 -136.15 236.3 -208.15 233.0 -211.3 232.15 -212.15 231.25" fill="#bacb98" fill-rule="evenodd" stroke="none"/>
  </g>
</svg>
