<?xml version="1.0" encoding="UTF-8" standalone="no"?>
<svg xmlns:xlink="http://www.w3.org/1999/xlink" height="471.3px" width="212.85px" xmlns="http://www.w3.org/2000/svg">
  <g transform="matrix(1.0, 0.0, 0.0, 1.0, -129.5, -17.25)">
    <path d="M338.1 214.2 Q330.2 188.3 302.9 166.55 L298.2 164.8 Q270.1 175.65 278.25 199.2 274.05 188.1 275.35 175.9 284.75 158.0 304.55 164.55 305.6 164.8 306.65 165.2 L305.8 158.4 265.05 157.8 273.6 274.75 284.8 271.8 285.0 266.1 296.8 229.25 292.4 222.35 296.35 226.95 Q297.45 228.15 298.35 229.6 L286.9 264.1 Q302.05 263.1 314.3 272.05 320.85 276.3 325.05 282.1 L327.35 285.65 Q343.2 255.6 341.0 229.4 342.4 239.75 342.35 250.4 342.15 276.25 325.65 296.5 L323.55 454.2 263.45 488.55 204.2 471.95 201.8 467.65 198.25 469.95 153.0 457.1 151.95 416.75 175.0 407.6 Q179.9 369.75 172.3 332.35 170.6 323.8 168.2 315.2 L159.7 316.75 145.75 302.8 143.5 309.7 142.55 304.25 148.65 282.4 141.65 276.45 142.35 269.45 Q149.95 265.6 160.5 270.6 167.5 287.35 151.35 298.95 160.55 294.0 164.85 284.6 L165.9 281.8 165.6 285.4 156.75 296.5 148.2 301.2 159.6 313.1 166.75 310.7 169.95 308.4 173.0 294.95 177.4 286.2 172.35 285.45 172.05 285.45 Q175.05 274.9 169.35 269.75 L169.0 269.15 Q165.8 265.4 166.9 268.5 L166.2 277.75 Q165.8 274.7 163.35 272.35 151.65 261.0 142.85 266.0 165.95 244.35 184.7 166.1 L183.05 162.95 Q180.75 158.6 179.7 153.6 178.65 148.4 179.85 143.25 L189.15 137.45 185.6 95.5 174.15 95.15 172.3 71.3 Q162.25 61.15 168.9 56.8 L174.35 63.1 Q183.85 53.9 198.05 54.65 209.75 55.3 220.9 59.15 241.45 65.95 259.05 78.5 268.1 84.95 277.5 93.35 L278.3 94.05 277.8 93.2 Q268.65 80.9 255.95 72.55 224.7 52.0 188.8 46.5 L191.3 45.3 196.8 46.5 196.95 46.5 198.15 46.8 208.35 49.45 218.95 52.8 240.8 62.1 Q255.5 69.65 266.95 79.65 L279.45 92.45 294.1 74.15 285.2 59.9 295.75 73.65 278.0 95.5 269.5 87.9 268.6 91.15 265.05 132.4 Q237.95 143.35 208.9 147.3 L183.55 148.05 Q183.05 161.55 194.7 162.0 213.4 163.2 231.8 160.1 L225.4 163.4 224.9 168.45 225.0 173.75 227.2 185.55 223.4 190.0 223.1 212.75 225.15 212.75 Q230.45 200.05 236.6 187.75 241.0 179.0 240.15 168.7 240.45 166.3 241.1 163.15 L242.0 158.3 Q288.0 134.6 304.8 112.15 301.75 129.15 298.05 145.95 297.15 149.95 297.45 154.2 L309.15 155.2 Q330.45 183.45 338.1 214.2 M243.8 25.95 L246.05 25.5 Q261.15 33.7 273.05 45.75 278.65 51.4 283.6 57.8 L263.8 38.0 244.15 26.1 243.8 25.95 M249.45 24.85 Q285.3 22.3 296.45 46.25 307.6 70.15 308.4 73.2 298.8 48.1 247.3 25.25 L249.45 24.85 M255.05 80.85 L257.9 79.65 Q241.65 66.9 221.9 60.95 204.45 55.55 187.3 59.9 L182.4 61.3 179.1 65.05 Q173.2 76.85 177.1 89.45 177.45 90.7 177.95 91.95 L255.05 80.85 M208.7 139.6 Q195.15 141.15 182.95 146.6 204.3 148.4 225.45 143.4 244.25 139.05 262.4 132.45 L267.7 86.65 263.55 83.4 261.2 129.15 Q239.2 137.9 215.8 139.0 L208.8 139.55 255.7 128.9 259.7 127.4 261.1 81.9 229.7 88.65 215.55 97.0 212.2 99.65 Q211.45 99.65 210.6 97.7 207.45 92.75 214.25 90.2 L196.4 93.4 201.5 95.8 200.75 98.65 199.5 101.4 195.95 99.75 196.15 100.2 Q200.05 109.55 192.65 111.75 L194.7 140.65 215.7 137.8 208.7 139.6 M190.35 96.4 Q190.45 97.75 191.2 98.55 L193.35 98.65 190.35 96.4 M216.05 96.9 L220.8 96.1 Q226.4 103.0 220.5 109.45 L220.15 109.7 Q210.7 107.05 216.05 96.9 M220.45 99.95 Q219.85 96.7 217.8 97.6 216.6 98.15 216.9 100.25 216.9 102.6 218.4 102.9 220.75 103.2 220.45 99.95 M194.45 102.9 Q194.45 100.55 192.7 100.25 191.5 100.8 191.5 102.9 191.5 104.95 192.7 105.55 194.75 105.55 194.45 102.9 M189.15 164.1 L189.0 165.0 188.85 165.8 182.95 200.35 195.05 196.2 193.6 180.85 191.5 180.85 190.0 167.05 189.75 165.35 189.25 164.1 189.15 164.0 189.15 164.1 M192.95 169.3 L192.65 169.45 190.6 170.5 192.1 178.2 199.65 173.45 199.45 172.3 198.55 168.3 198.0 166.65 196.1 167.65 192.95 169.3 M214.85 169.8 L214.25 163.7 200.05 164.6 200.65 168.8 201.4 174.05 200.35 178.2 214.4 212.95 215.7 175.3 214.85 169.8 M198.6 179.35 L198.6 178.9 Q193.45 181.0 198.6 179.35 M196.85 194.15 L201.8 189.85 196.7 190.0 196.85 194.15 M198.9 193.55 L198.8 193.25 Q198.0 192.85 198.9 193.55 M248.55 165.3 L242.9 163.7 242.15 168.0 241.4 172.3 249.4 174.95 251.45 166.1 248.55 165.3 M222.35 168.95 L222.5 169.3 222.8 168.9 221.65 163.4 222.35 168.95 M221.65 173.15 L218.1 173.15 221.8 187.65 225.35 185.45 221.65 170.2 221.65 173.15 M218.95 169.45 L218.95 172.0 220.85 169.2 220.1 162.7 218.95 169.45 M217.8 182.6 L217.65 181.1 Q217.3 182.6 217.8 182.6 M217.55 183.9 L217.55 188.2 219.0 188.2 219.0 183.9 217.55 183.9 M217.95 188.75 L217.95 191.9 221.15 191.9 221.15 188.75 217.95 188.75 M218.0 196.9 L218.0 200.25 221.45 200.25 221.45 196.9 218.0 196.9 M218.1 192.6 L217.5 196.8 221.65 193.55 218.1 192.6 M240.25 183.5 Q239.35 185.55 239.95 185.25 240.8 183.2 240.25 183.5 M238.75 189.7 L238.75 190.6 Q239.35 189.7 238.75 189.7 M237.25 187.4 Q234.85 192.75 237.9 188.45 L244.15 192.75 245.35 190.35 242.9 187.65 237.25 187.4 M235.8 193.25 L226.05 215.4 211.8 214.55 204.2 194.4 197.1 197.65 205.1 241.05 Q211.65 223.7 226.25 231.9 231.3 234.85 233.75 240.2 L242.9 195.9 235.8 193.25 M252.05 163.1 L252.15 163.25 249.7 177.9 247.6 177.6 245.55 194.8 248.45 197.5 252.6 196.1 259.15 198.85 260.3 216.55 257.0 215.95 254.9 216.95 246.1 213.7 242.9 214.45 246.15 216.25 242.9 238.7 245.0 238.85 245.9 236.6 259.7 236.0 259.7 247.25 262.1 248.75 261.8 261.75 258.25 260.25 256.45 274.15 272.4 274.75 261.85 157.8 253.2 157.8 252.05 163.1 M291.8 151.4 L291.6 146.6 256.75 156.35 267.45 156.35 291.9 155.45 291.8 151.4 M170.5 255.45 L156.05 255.45 156.05 260.85 171.75 260.85 171.75 255.85 176.15 229.85 158.75 253.45 Q162.3 252.95 170.5 255.45 M159.6 282.4 Q149.6 288.3 146.65 298.95 155.2 295.4 161.1 282.4 L159.6 282.4 M243.2 212.55 Q250.2 204.4 244.95 195.9 248.15 205.15 243.0 212.55 L243.2 212.55 M257.65 200.9 L251.45 198.55 247.9 213.0 254.1 215.1 257.65 200.9 M247.0 239.9 L250.85 239.9 250.85 237.8 247.0 238.1 Q246.45 239.9 247.0 239.9 M242.6 239.9 L243.75 241.95 243.15 245.1 244.35 240.5 Q243.2 239.3 242.6 239.9 M250.85 244.3 Q249.1 244.05 248.5 245.8 248.2 247.55 249.7 248.15 250.85 248.15 251.45 246.7 251.75 245.8 250.85 244.3 M252.9 246.1 Q252.65 250.5 249.4 249.95 246.7 249.65 247.0 246.1 247.6 242.85 249.95 242.25 253.2 241.95 252.9 246.1 M258.55 238.0 L254.7 238.0 254.7 239.9 258.55 239.9 258.55 238.0 M253.8 238.1 Q251.15 236.95 251.75 239.9 L253.8 239.9 253.8 238.1 M256.75 247.0 L254.4 246.7 Q254.4 241.35 257.05 242.85 L256.75 247.0 M246.7 241.05 L244.35 272.1 255.3 272.35 258.25 241.35 246.7 241.05 M255.9 254.95 L255.6 258.8 253.8 258.8 Q252.65 253.45 255.9 254.95 M254.4 249.05 L256.75 249.05 255.1 253.0 254.4 249.05 M252.05 255.55 Q251.75 259.65 248.8 259.1 246.45 258.8 246.45 255.55 246.7 252.3 249.4 252.0 252.35 251.7 252.05 255.55 M260.6 290.95 L261.65 288.9 258.1 290.75 255.6 300.45 257.05 297.75 Q256.25 300.0 255.85 302.45 255.65 303.5 255.6 304.55 L270.65 323.45 Q271.55 310.1 281.85 301.8 L295.7 292.65 287.15 279.95 293.75 282.3 Q295.75 287.4 296.0 292.05 299.7 283.45 293.45 281.85 289.65 277.15 282.3 278.25 L285.25 279.3 Q278.55 277.6 268.3 284.0 265.05 286.0 262.65 288.5 261.55 289.65 260.6 290.95 M256.5 292.9 L257.35 290.4 231.1 289.2 229.2 292.15 Q227.55 295.2 226.7 299.1 L227.4 323.55 Q228.45 327.7 230.25 331.0 L231.55 333.15 245.1 334.4 287.65 338.75 285.85 337.65 283.7 335.75 278.45 328.05 272.5 319.65 271.05 326.15 254.1 304.85 254.05 300.95 Q254.2 299.9 254.5 298.8 L256.5 292.9 M269.75 277.4 L270.95 276.6 173.8 271.85 173.55 277.45 173.2 284.5 186.05 285.25 177.0 289.25 Q175.25 291.9 174.05 295.45 L173.2 318.7 176.95 326.25 217.5 331.8 216.4 329.75 Q214.75 326.4 213.7 322.3 L212.5 298.1 Q213.2 294.4 214.5 291.35 214.95 288.75 214.65 286.8 L258.25 289.2 Q260.9 285.0 264.9 281.35 L265.65 280.7 Q267.55 279.0 269.75 277.4 M243.75 254.65 L240.1 255.95 234.6 273.25 243.2 273.25 243.75 254.65 M315.6 288.8 L315.8 292.15 323.9 291.0 325.35 288.25 Q309.85 256.8 284.95 270.1 306.1 269.6 312.75 280.2 L294.65 272.1 315.6 288.8 M319.6 333.15 L319.95 295.2 316.8 294.0 319.55 305.25 317.55 314.05 317.4 314.3 Q306.55 333.75 289.1 336.65 L293.65 339.4 293.4 429.15 263.55 441.25 263.55 482.0 318.45 450.1 319.6 333.15 M236.1 203.3 Q235.2 206.25 237.55 205.95 238.75 205.95 238.75 202.7 236.7 200.6 236.1 203.3 M234.05 203.85 Q234.3 198.85 237.55 198.85 241.1 198.55 240.8 203.85 240.25 209.2 237.0 208.9 233.75 208.9 234.05 203.85 M221.05 201.2 L217.2 201.2 217.2 204.0 221.05 204.0 221.05 201.2 M221.2 204.8 L217.95 204.8 217.95 208.0 221.2 208.0 221.2 204.8 M217.2 209.2 L217.2 211.8 220.8 211.8 220.8 209.2 217.2 209.2 M208.35 239.0 Q205.7 243.75 205.4 247.85 203.9 264.1 214.85 268.55 221.9 271.5 227.55 265.85 232.25 260.55 233.15 252.6 233.75 244.05 229.6 237.8 225.15 230.75 217.8 231.9 212.2 232.5 208.35 239.0 M207.45 231.6 Q204.5 231.9 204.2 227.8 203.9 223.65 206.55 222.75 210.1 221.6 210.4 226.3 210.7 231.35 207.45 231.6 M208.05 225.4 Q206.25 224.25 206.0 226.9 205.7 229.55 207.75 228.95 210.1 228.4 208.05 225.4 M231.65 228.65 Q232.85 228.65 232.85 226.6 232.85 224.55 230.8 224.85 227.85 228.65 231.65 228.65 M228.1 226.6 Q228.4 221.6 232.55 222.2 234.9 223.35 234.6 227.2 234.3 231.35 231.65 231.35 228.1 231.6 228.1 226.6 M241.85 246.65 Q241.9 244.15 241.8 246.7 L241.85 246.65 M234.6 243.75 Q237.9 256.25 230.0 266.3 227.95 268.9 225.0 270.7 L233.15 271.8 Q242.7 243.7 242.3 217.4 L234.6 243.75 M228.7 248.45 L222.5 254.35 Q221.9 253.2 221.05 253.2 220.15 253.75 219.55 253.75 219.25 257.0 216.3 257.9 213.35 258.8 211.3 256.45 207.45 257.6 207.15 254.05 206.85 250.25 210.1 249.65 210.4 245.2 214.55 244.9 218.65 244.3 219.55 248.75 220.15 248.45 220.15 246.1 L230.2 246.4 228.7 248.45 M194.05 199.0 Q195.55 197.6 194.3 198.55 194.1 198.7 194.05 199.0 M195.95 208.6 Q196.25 205.35 195.65 208.9 L195.95 208.6 M198.9 205.35 Q198.6 200.6 201.55 200.05 205.1 199.15 205.4 204.45 205.4 209.5 202.45 209.8 198.9 210.05 198.9 205.35 M202.15 206.8 Q203.3 206.8 203.3 205.05 L202.45 203.0 Q200.65 202.7 200.65 204.75 200.65 206.8 202.15 206.8 M182.95 203.3 L185.6 216.25 191.2 213.9 188.25 200.6 182.95 203.3 M171.3 270.35 L203.9 271.8 199.2 254.95 194.35 253.75 193.85 264.4 190.35 268.55 183.8 267.55 180.9 258.2 177.35 259.1 Q172.2 247.45 180.25 246.1 L180.9 245.8 179.7 239.6 182.95 234.85 190.15 236.2 193.25 241.45 195.95 238.1 193.3 216.55 197.35 214.35 193.15 213.0 192.1 216.0 185.25 218.3 179.7 217.75 170.9 270.05 170.85 270.3 171.3 270.35 M197.4 217.45 L196.25 218.35 Q196.35 244.25 205.4 270.9 L213.0 270.4 Q207.3 266.55 206.1 259.85 202.25 238.5 197.4 217.45 M183.55 239.3 L189.15 239.3 Q189.45 241.35 189.15 241.65 L183.55 241.35 183.55 239.3 M188.85 237.25 L183.85 236.95 Q181.2 241.35 181.75 242.85 L191.2 243.15 Q191.5 242.25 188.85 237.25 M192.7 247.0 L193.0 245.8 Q192.4 245.5 192.1 245.8 192.1 247.0 192.7 247.0 M197.75 252.7 L197.9 253.85 Q199.95 254.05 197.75 252.7 M189.75 252.9 L184.15 252.6 Q183.25 250.5 185.6 250.25 L189.75 250.5 Q190.05 252.3 189.75 252.9 M183.25 256.45 Q183.55 253.75 185.3 254.95 186.2 256.15 186.2 257.0 185.9 258.5 184.7 258.8 183.25 259.1 183.25 256.45 M190.6 254.95 Q193.0 257.3 190.05 258.8 187.65 258.8 188.25 256.15 188.85 253.45 190.6 254.95 M182.35 249.35 L182.95 263.2 185.3 266.45 190.05 266.45 192.1 263.5 191.2 249.35 182.35 249.35 M190.05 260.85 L190.35 262.9 184.7 262.9 Q184.15 260.85 186.2 260.55 L190.05 260.85 M170.55 263.2 Q163.45 260.25 159.6 261.15 L169.95 267.35 170.55 263.2 M220.75 251.4 Q221.05 250.25 220.15 250.25 L220.75 251.4 M222.5 252.0 L226.95 247.55 221.65 247.85 Q220.45 250.8 222.5 252.0 M219.55 250.55 Q219.45 250.7 219.5 250.85 219.9 252.55 219.55 250.55 M209.8 252.0 Q209.85 253.65 210.4 251.1 209.8 251.55 209.8 252.0 M218.1 250.25 Q217.8 245.8 213.95 247.0 210.1 247.85 211.3 252.6 L218.1 250.25 M227.6 292.05 L229.0 288.9 217.95 288.85 216.55 291.45 213.35 304.3 Q213.1 308.05 213.5 312.35 L215.3 322.4 215.25 322.4 215.3 322.45 Q216.35 326.45 217.95 329.9 L219.0 331.95 219.45 332.75 221.65 336.15 232.25 337.35 230.5 333.9 230.1 333.0 229.1 330.9 224.05 313.0 224.4 304.55 227.6 292.05 M224.85 339.5 L225.15 417.65 201.25 428.25 201.25 465.15 204.8 463.7 204.8 428.85 228.7 417.95 229.0 340.55 229.0 338.5 225.45 337.9 Q224.4 338.3 224.85 339.5 M230.2 344.15 L230.2 348.9 230.2 351.8 230.2 418.25 292.2 427.95 292.2 357.65 292.2 350.5 292.2 340.85 233.95 336.4 229.9 339.55 230.2 344.15 M223.7 343.7 L221.8 337.45 179.05 330.55 178.85 339.2 178.85 346.95 179.1 409.95 223.4 417.05 223.65 351.2 223.7 343.7 M312.85 315.45 Q321.9 293.45 302.8 281.25 304.4 311.6 273.9 318.75 278.6 324.8 284.75 328.55 302.9 339.5 312.85 315.45 M279.75 314.7 Q291.45 309.35 294.55 296.6 L277.45 307.2 277.15 315.75 279.75 314.7 M275.05 310.45 L272.1 317.25 275.35 316.35 275.05 310.45 M259.7 482.2 L262.1 482.9 261.8 441.25 206.25 429.85 206.55 466.95 208.6 467.55 259.7 482.2 M290.4 428.85 L229.3 419.4 208.35 428.85 263.55 439.8 290.4 428.85 M196.85 464.3 L199.8 465.15 199.8 428.25 156.6 419.45 158.45 453.4 196.85 464.3 M220.75 417.95 L159.35 418.5 200.35 426.8 220.75 417.95" fill="#000000" fill-rule="evenodd" stroke="none"/>
    <path d="M338.1 214.2 Q340.35 221.65 341.0 229.4 343.2 255.6 327.35 285.65 L325.05 282.1 326.1 279.6 Q349.1 217.8 302.9 166.55 330.2 188.3 338.1 214.2 M295.75 73.65 Q295.75 84.5 291.4 92.2 287.05 99.9 280.9 99.9 L268.6 91.15 269.5 87.9 278.0 95.5 295.75 73.65 M257.9 79.65 Q217.5 53.25 187.3 59.9 204.45 55.55 221.9 60.95 241.65 66.9 257.9 79.65 M198.05 54.65 Q223.0 52.0 259.15 78.4 L259.05 78.5 Q241.45 65.95 220.9 59.15 209.75 55.3 198.05 54.65 M277.5 93.35 L277.8 93.2 278.3 94.05 277.5 93.35 M165.6 285.4 L165.9 281.8 166.2 277.75 166.9 268.5 169.35 269.75 Q175.05 274.9 172.05 285.45 L172.35 285.45 177.4 286.2 173.0 294.95 165.6 285.4 M268.3 284.0 Q278.55 277.6 285.25 279.3 L282.3 278.25 Q289.65 277.15 293.45 281.85 L293.75 282.3 287.15 279.95 295.7 292.65 281.85 301.8 Q281.15 290.6 271.4 285.45 269.95 284.65 268.3 284.0 M256.5 292.9 L256.1 293.45 229.2 292.15 231.1 289.2 257.35 290.4 256.5 292.9 M265.65 280.7 L264.9 281.35 173.55 277.45 173.8 271.85 270.95 276.6 270.55 276.8 Q266.9 278.3 265.65 280.7 M214.65 286.8 Q214.95 288.75 214.5 291.35 L177.0 289.25 186.05 285.25 214.65 286.8 M319.55 305.25 L316.8 294.0 319.95 295.2 319.6 333.15 Q308.25 349.3 289.9 337.05 L289.1 336.65 Q306.55 333.75 317.4 314.3 L317.55 314.05 Q319.5 309.7 319.55 305.25 M216.55 291.45 L217.95 288.85 229.0 288.9 227.6 292.05 216.55 291.45 M230.5 333.9 L232.25 337.35 221.65 336.15 219.45 332.75 230.5 333.9 M215.3 322.45 L215.25 322.4 215.3 322.4 217.35 322.6 215.3 322.45 M224.85 339.5 L229.0 340.55 228.7 417.95 204.8 428.85 204.8 463.7 201.25 465.15 201.25 428.25 225.15 417.65 224.85 339.5 M230.2 344.15 L230.5 344.1 230.5 344.35 230.2 348.9 230.2 344.15 M279.75 314.7 L277.15 315.75 277.45 307.2 294.55 296.6 Q291.45 309.35 279.75 314.7" fill="#525759" fill-rule="evenodd" stroke="none"/>
    <path d="M302.9 166.55 Q349.1 217.8 326.1 279.6 L325.05 282.1 Q320.85 276.3 314.3 272.05 315.3 269.8 315.9 267.5 330.2 212.05 298.2 164.8 L302.9 166.55 M142.55 304.25 L129.8 291.55 139.2 274.35 141.65 276.45 148.65 282.4 142.55 304.25 M246.05 25.5 Q243.4 24.05 240.65 22.75 L247.3 25.25 Q298.8 48.1 308.4 73.2 308.75 85.5 306.6 100.9 277.5 143.6 227.7 158.4 269.5 143.7 282.6 102.4 L280.9 99.9 Q287.05 99.9 291.4 92.2 295.75 84.5 295.75 73.65 L285.2 59.9 284.35 58.55 283.6 57.8 Q278.65 51.4 273.05 45.75 261.15 33.7 246.05 25.5 M257.9 79.65 L255.05 80.85 Q208.45 53.9 179.1 65.05 L182.4 61.3 187.3 59.9 Q217.5 53.25 257.9 79.65 M189.75 165.35 L190.0 167.05 188.85 165.8 189.0 165.0 189.75 165.35 M192.65 169.45 L192.95 169.3 199.45 172.3 199.65 173.45 Q195.8 171.95 192.65 169.45 M200.65 168.8 Q207.55 170.2 214.85 169.8 L215.7 175.3 Q207.7 176.0 201.4 174.05 L200.65 168.8 M196.85 194.15 L196.7 190.0 201.8 189.85 196.85 194.15 M224.9 168.45 Q232.75 166.8 241.1 163.15 240.45 166.3 240.15 168.7 232.05 172.05 225.0 173.75 L224.9 168.45 M222.8 168.9 L222.5 169.3 222.35 168.95 222.8 168.9 M220.85 169.2 L218.95 172.0 218.95 169.45 220.85 169.2 M221.65 173.15 L221.65 170.2 225.35 185.45 221.8 187.65 218.1 173.15 221.65 173.15 M218.1 192.6 L221.65 193.55 217.5 196.8 218.1 192.6 M218.0 196.9 L221.45 196.9 221.45 200.25 218.0 200.25 218.0 196.9 M217.95 188.75 L221.15 188.75 221.15 191.9 217.95 191.9 217.95 188.75 M217.55 183.9 L219.0 183.9 219.0 188.2 217.55 188.2 217.55 183.9 M217.8 182.6 Q217.3 182.6 217.65 181.1 L217.8 182.6 M237.25 187.4 L242.9 187.65 245.35 190.35 244.15 192.75 237.9 188.45 Q234.85 192.75 237.25 187.4 M252.05 163.1 L253.2 157.8 261.85 157.8 252.15 163.1 252.05 163.1 M285.0 266.1 L284.4 270.85 281.55 270.9 294.25 230.15 292.1 228.25 Q267.25 206.2 275.35 175.9 274.05 188.1 278.25 199.2 L292.4 222.35 296.8 229.25 285.0 266.1 M171.75 255.85 L171.75 260.85 156.05 260.85 156.05 255.45 170.5 255.45 171.75 255.85 M156.75 296.5 L165.6 285.4 173.0 294.95 169.95 308.4 166.75 310.7 Q167.55 305.7 162.55 301.0 L156.75 296.5 M243.2 212.55 L243.0 212.55 Q248.15 205.15 244.95 195.9 250.2 204.4 243.2 212.55 M247.0 238.1 L250.85 237.8 250.85 239.9 247.0 239.9 247.0 238.1 M244.35 240.5 L243.15 245.1 243.75 241.95 242.6 239.9 Q243.75 240.5 244.35 240.5 M252.05 255.55 Q252.35 251.7 249.4 252.0 246.7 252.3 246.45 255.55 246.45 258.8 248.8 259.1 251.75 259.65 252.05 255.55 M254.4 249.05 L255.1 253.0 256.75 249.05 254.4 249.05 M255.9 254.95 Q252.65 253.45 253.8 258.8 L255.6 258.8 255.9 254.95 M246.7 241.05 L258.25 241.35 255.3 272.35 244.35 272.1 246.7 241.05 M256.75 247.0 L257.05 242.85 Q254.4 241.35 254.4 246.7 L256.75 247.0 M253.8 238.1 L253.8 239.9 251.75 239.9 Q251.15 236.95 253.8 238.1 M258.55 238.0 L258.55 239.9 254.7 239.9 254.7 238.0 258.55 238.0 M252.9 246.1 Q253.2 241.95 249.95 242.25 247.6 242.85 247.0 246.1 246.7 249.65 249.4 249.95 252.65 250.5 252.9 246.1 M260.6 290.95 Q261.55 289.65 262.65 288.5 265.05 286.0 268.3 284.0 269.95 284.65 271.4 285.45 281.15 290.6 281.85 301.8 271.55 310.1 270.65 323.45 L255.6 304.55 Q255.65 303.5 255.85 302.45 256.25 300.0 257.05 297.75 L260.6 290.95 M229.2 292.15 L256.1 293.45 Q254.65 296.6 254.5 298.8 254.2 299.9 254.05 300.95 L226.7 299.1 Q227.55 295.2 229.2 292.15 M269.75 277.4 Q267.55 279.0 265.65 280.7 266.9 278.3 270.55 276.8 L269.75 277.4 M264.9 281.35 Q260.9 285.0 258.25 289.2 L214.65 286.8 186.05 285.25 173.2 284.5 173.55 277.45 264.9 281.35 M214.5 291.35 Q213.2 294.4 212.5 298.1 L174.05 295.45 Q175.25 291.9 177.0 289.25 L214.5 291.35 M213.7 322.3 Q214.75 326.4 216.4 329.75 L176.95 326.25 173.2 318.7 213.7 322.3 M307.25 287.45 Q315.25 292.15 314.85 300.9 313.75 327.05 291.55 331.4 L294.95 329.2 Q316.95 314.95 306.05 295.1 L307.25 287.45 M312.75 280.2 Q306.1 269.6 284.95 270.1 309.85 256.8 325.35 288.25 L323.9 291.0 315.8 292.15 315.6 288.8 Q315.05 283.8 312.75 280.2 M236.1 203.3 Q236.7 200.6 238.75 202.7 238.75 205.95 237.55 205.95 235.2 206.25 236.1 203.3 M217.2 209.2 L220.8 209.2 220.8 211.8 217.2 211.8 217.2 209.2 M221.2 204.8 L221.2 208.0 217.95 208.0 217.95 204.8 221.2 204.8 M221.05 201.2 L221.05 204.0 217.2 204.0 217.2 201.2 221.05 201.2 M231.65 228.65 Q227.85 228.65 230.8 224.85 232.85 224.55 232.85 226.6 232.85 228.65 231.65 228.65 M208.05 225.4 Q210.1 228.4 207.75 228.95 205.7 229.55 206.0 226.9 206.25 224.25 208.05 225.4 M234.6 243.75 L242.3 217.4 Q242.7 243.7 233.15 271.8 L225.0 270.7 Q227.95 268.9 230.0 266.3 237.9 256.25 234.6 243.75 M194.05 199.0 Q194.1 198.7 194.3 198.55 195.55 197.6 194.05 199.0 M202.15 206.8 Q200.65 206.8 200.65 204.75 200.65 202.7 202.45 203.0 L203.3 205.05 Q203.3 206.8 202.15 206.8 M170.9 270.05 L171.3 270.35 170.85 270.3 170.9 270.05 M196.25 218.35 Q197.4 218.05 197.4 217.45 202.25 238.5 206.1 259.85 207.3 266.55 213.0 270.4 L205.4 270.9 Q196.35 244.25 196.25 218.35 M193.0 245.8 L192.7 247.0 Q192.7 245.8 192.25 245.8 L193.0 245.8 M188.85 237.25 Q191.5 242.25 191.2 243.15 L181.75 242.85 Q181.2 241.35 183.85 236.95 L188.85 237.25 M183.55 239.3 L183.55 241.35 189.15 241.65 Q189.45 241.35 189.15 239.3 L183.55 239.3 M190.05 260.85 L186.2 260.55 Q184.15 260.85 184.7 262.9 L190.35 262.9 190.05 260.85 M182.35 249.35 L191.2 249.35 192.1 263.5 190.05 266.45 185.3 266.45 182.95 263.2 182.35 249.35 M190.6 254.95 Q188.85 253.45 188.25 256.15 187.65 258.8 190.05 258.8 193.0 257.3 190.6 254.95 M183.25 256.45 Q183.25 259.1 184.7 258.8 185.9 258.5 186.2 257.0 186.2 256.15 185.3 254.95 183.55 253.75 183.25 256.45 M189.75 252.9 Q190.05 252.3 189.75 250.5 L185.6 250.25 Q183.25 250.5 184.15 252.6 L189.75 252.9 M197.75 252.7 Q199.95 254.05 197.9 253.85 L197.75 252.7 M169.35 269.75 L166.9 268.5 Q165.8 265.4 169.0 269.15 L169.35 269.75 M216.55 291.45 L227.6 292.05 224.4 304.55 213.35 304.3 216.55 291.45 M224.05 313.0 L229.1 330.9 217.95 329.9 Q216.35 326.45 215.3 322.45 L217.35 322.6 215.3 322.4 213.5 312.35 224.05 313.0 M230.1 333.0 L230.5 333.9 219.45 332.75 219.0 331.95 230.1 333.0 M230.25 331.0 Q228.45 327.7 227.4 323.55 L278.45 328.05 283.7 335.75 230.25 331.0 M230.2 348.9 L230.5 344.35 292.2 350.5 292.2 357.65 230.2 351.8 230.2 348.9 M178.85 339.2 L223.7 343.7 223.65 351.2 178.85 346.95 178.85 339.2 M285.85 337.65 L287.65 338.75 245.1 334.4 285.85 337.65 M208.6 467.55 L208.05 433.0 259.4 443.6 259.7 482.2 208.6 467.55 M158.45 453.4 L158.15 422.65 196.85 430.05 196.85 464.3 158.45 453.4" fill="#a7abac" fill-rule="evenodd" stroke="none"/>
    <path d="M189.9 45.0 L174.4 41.95 Q186.7 27.55 204.8 20.45 213.9 16.85 223.55 18.95 202.6 24.5 191.1 42.9 L189.9 45.0 M244.15 26.1 L263.8 38.0 240.8 62.1 218.95 52.8 Q233.3 31.85 244.15 26.1 M284.35 58.55 L285.2 59.9 294.1 74.15 279.45 92.45 266.95 79.65 269.6 81.05 284.35 58.55" fill="#d19700" fill-rule="evenodd" stroke="none"/>
    <path d="M168.9 56.8 Q167.7 53.55 167.6 48.85 L171.55 44.75 188.8 46.5 Q224.7 52.0 255.95 72.55 268.65 80.9 277.8 93.2 L277.5 93.35 Q268.1 84.95 259.05 78.5 L259.15 78.4 Q223.0 52.0 198.05 54.65 183.85 53.9 174.35 63.1 L168.9 56.8 M263.8 38.0 L283.6 57.8 284.35 58.55 269.6 81.05 266.95 79.65 Q255.5 69.65 240.8 62.1 L263.8 38.0 M192.95 169.3 L196.1 167.65 198.55 168.3 199.45 172.3 192.95 169.3 M242.15 168.0 L242.9 163.7 248.55 165.3 Q245.25 167.05 242.15 168.0 M252.15 163.25 L252.05 163.1 252.15 163.1 252.35 163.1 252.15 163.25" fill="#a85b00" fill-rule="evenodd" stroke="none"/>
    <path d="M142.35 269.45 L130.4 284.75 142.85 266.0 Q151.65 261.0 163.35 272.35 165.8 274.7 166.2 277.75 L165.9 281.8 164.85 284.6 Q160.55 294.0 151.35 298.95 167.5 287.35 160.5 270.6 149.95 265.6 142.35 269.45 M227.55 20.0 L235.1 22.4 208.35 49.45 198.15 46.8 197.6 46.3 Q197.3 46.2 196.95 46.5 L196.8 46.5 227.55 20.0 M240.65 22.75 L226.95 17.25 249.45 24.85 247.3 25.25 240.65 22.75 M306.6 100.9 L304.8 112.15 Q288.0 134.6 242.0 158.3 L231.8 160.1 Q213.4 163.2 194.7 162.0 183.05 161.55 183.55 148.05 L208.9 147.3 Q237.95 143.35 265.05 132.4 L268.6 91.15 280.9 99.9 282.6 102.4 Q269.5 143.7 227.7 158.4 277.5 143.6 306.6 100.9 M179.1 65.05 Q208.45 53.9 255.05 80.85 L177.95 91.95 Q177.45 90.7 177.1 89.45 173.2 76.85 179.1 65.05 M208.8 139.55 L215.8 139.0 Q239.2 137.9 261.2 129.15 L263.55 83.4 267.7 86.65 262.4 132.45 Q244.25 139.05 225.45 143.4 204.3 148.4 182.95 146.6 195.15 141.15 208.7 139.6 L208.8 139.55 M194.45 102.9 Q194.75 105.55 192.7 105.55 191.5 104.95 191.5 102.9 191.5 100.8 192.7 100.25 194.45 100.55 194.45 102.9 M220.45 99.95 Q220.75 103.2 218.4 102.9 216.9 102.6 216.9 100.25 216.6 98.15 217.8 97.6 219.85 96.7 220.45 99.95 M189.15 164.1 L189.15 164.0 189.25 164.1 189.15 164.1 M190.0 167.05 L191.5 180.85 193.6 180.85 195.05 196.2 182.95 200.35 188.85 165.8 190.0 167.05 M215.7 175.3 L214.4 212.95 200.35 178.2 201.4 174.05 Q207.7 176.0 215.7 175.3 M198.6 179.35 Q193.45 181.0 198.6 178.9 L198.6 179.35 M240.15 168.7 Q241.0 179.0 236.6 187.75 230.45 200.05 225.15 212.75 L223.1 212.75 223.4 190.0 227.2 185.55 225.0 173.75 Q232.05 172.05 240.15 168.7 M261.85 157.8 L272.4 274.75 256.45 274.15 258.25 260.25 261.8 261.75 262.1 248.75 259.7 247.25 259.7 236.0 245.9 236.6 245.0 238.85 242.9 238.7 246.15 216.25 242.9 214.45 246.1 213.7 254.9 216.95 257.0 215.95 260.3 216.55 259.15 198.85 252.6 196.1 248.45 197.5 245.55 194.8 247.6 177.6 249.7 177.9 252.15 163.25 252.35 163.1 252.15 163.1 261.85 157.8 M285.0 266.1 L284.8 271.8 273.6 274.75 265.05 157.8 305.8 158.4 306.65 165.2 Q305.6 164.8 304.55 164.55 284.75 158.0 275.35 175.9 267.25 206.2 292.1 228.25 L294.25 230.15 281.55 270.9 284.4 270.85 285.0 266.1 M278.25 199.2 Q270.1 175.65 298.2 164.8 330.2 212.05 315.9 267.5 315.3 269.8 314.3 272.05 302.05 263.1 286.9 264.1 L298.35 229.6 Q297.45 228.15 296.35 226.95 L292.4 222.35 278.25 199.2 M171.75 255.85 L170.5 255.45 Q162.3 252.95 158.75 253.45 L176.15 229.85 171.75 255.85 M159.6 282.4 L161.1 282.4 Q155.2 295.4 146.65 298.95 149.6 288.3 159.6 282.4 M166.75 310.7 L159.6 313.1 148.2 301.2 156.75 296.5 162.55 301.0 Q167.55 305.7 166.75 310.7 M129.5 356.5 L144.25 342.95 131.55 356.2 129.5 356.5 M257.05 297.75 L255.6 300.45 258.1 290.75 261.65 288.9 260.6 290.95 257.05 297.75 M293.45 281.85 Q299.7 283.45 296.0 292.05 295.75 287.4 293.75 282.3 L293.45 281.85 M256.1 293.45 L256.5 292.9 254.5 298.8 Q254.65 296.6 256.1 293.45 M212.5 298.1 L213.7 322.3 173.2 318.7 174.05 295.45 212.5 298.1 M216.4 329.75 L217.5 331.8 176.95 326.25 216.4 329.75 M243.75 254.65 L243.2 273.25 234.6 273.25 240.1 255.95 243.75 254.65 M307.25 287.45 L306.05 295.1 Q316.95 314.95 294.95 329.2 L291.55 331.4 Q313.75 327.05 314.85 300.9 315.25 292.15 307.25 287.45 M312.75 280.2 Q315.05 283.8 315.6 288.8 L294.65 272.1 312.75 280.2 M319.55 305.25 Q319.5 309.7 317.55 314.05 L319.55 305.25 M289.1 336.65 L289.9 337.05 Q308.25 349.3 319.6 333.15 L318.45 450.1 263.55 482.0 263.55 441.25 293.4 429.15 293.65 339.4 289.1 336.65 M241.85 246.65 L241.8 246.7 Q241.9 244.15 241.85 246.65 M195.95 208.6 L195.65 208.9 Q196.25 205.35 195.95 208.6 M170.9 270.05 L179.7 217.75 185.25 218.3 192.1 216.0 193.15 213.0 197.35 214.35 193.3 216.55 195.95 238.1 193.25 241.45 190.15 236.2 182.95 234.85 179.7 239.6 180.9 245.8 180.25 246.1 Q172.2 247.45 177.35 259.1 L180.9 258.2 183.8 267.55 190.35 268.55 193.85 264.4 194.35 253.75 199.2 254.95 203.9 271.8 171.3 270.35 170.9 270.05 M170.55 263.2 L169.95 267.35 159.6 261.15 Q163.45 260.25 170.55 263.2 M209.8 252.0 Q209.8 251.55 210.4 251.1 209.85 253.65 209.8 252.0 M219.55 250.55 Q219.9 252.55 219.5 250.85 219.45 250.7 219.55 250.55 M222.5 252.0 Q220.45 250.8 221.65 247.85 L226.95 247.55 222.5 252.0 M220.75 251.4 L220.15 250.25 Q221.05 250.25 220.75 251.4 M224.4 304.55 L224.05 313.0 213.5 312.35 Q213.1 308.05 213.35 304.3 L224.4 304.55 M229.1 330.9 L230.1 333.0 219.0 331.95 217.95 329.9 229.1 330.9 M227.4 323.55 L226.7 299.1 254.05 300.95 254.1 304.85 271.05 326.15 272.5 319.65 278.45 328.05 227.4 323.55 M245.1 334.4 L231.55 333.15 230.25 331.0 283.7 335.75 285.85 337.65 245.1 334.4 M229.0 340.55 L224.85 339.5 Q224.4 338.3 225.45 337.9 L229.0 338.5 229.0 340.55 M230.5 344.35 L230.5 344.1 230.2 344.15 229.9 339.55 233.95 336.4 292.2 340.85 292.2 350.5 230.5 344.35 M178.85 339.2 L179.05 330.55 221.8 337.45 223.7 343.7 178.85 339.2 M223.65 351.2 L223.4 417.05 179.1 409.95 178.85 346.95 223.65 351.2 M230.2 351.8 L292.2 357.65 292.2 427.95 230.2 418.25 230.2 351.8 M312.85 315.45 Q302.9 339.5 284.75 328.55 278.6 324.8 273.9 318.75 304.4 311.6 302.8 281.25 321.9 293.45 312.85 315.45 M275.05 310.45 L275.35 316.35 272.1 317.25 275.05 310.45 M208.6 467.55 L206.55 466.95 206.25 429.85 261.8 441.25 262.1 482.9 259.7 482.2 259.4 443.6 208.05 433.0 208.6 467.55 M158.45 453.4 L156.6 419.45 199.8 428.25 199.8 465.15 196.85 464.3 196.85 430.05 158.15 422.65 158.45 453.4 M290.4 428.85 L263.55 439.8 208.35 428.85 229.3 419.4 290.4 428.85 M220.75 417.95 L200.35 426.8 159.35 418.5 220.75 417.95" fill="#ffffff" fill-rule="evenodd" stroke="none"/>
    <path d="M191.3 45.3 L189.9 45.0 191.1 42.9 Q202.6 24.5 223.55 18.95 L227.55 20.0 196.8 46.5 191.3 45.3 M235.1 22.4 L243.8 25.95 244.15 26.1 Q233.3 31.85 218.95 52.8 L208.35 49.45 235.1 22.4 M198.15 46.8 L196.95 46.5 Q197.3 46.2 197.6 46.3 L198.15 46.8 M208.8 139.55 L208.7 139.6 215.7 137.8 194.7 140.65 192.65 111.75 Q200.05 109.55 196.15 100.2 L195.95 99.75 199.5 101.4 200.75 98.65 210.6 97.7 Q211.45 99.65 212.2 99.65 L215.55 97.0 216.05 96.9 Q210.7 107.05 220.15 109.7 L220.5 109.45 Q226.4 103.0 220.8 96.1 L260.0 85.9 255.7 128.9 208.8 139.55 M267.45 156.35 L291.8 151.4 291.9 155.45 267.45 156.35 M218.1 250.25 L211.3 252.6 Q210.1 247.85 213.95 247.0 217.8 245.8 218.1 250.25" fill="#ffe600" fill-rule="evenodd" stroke="none"/>
    <path d="M200.75 98.65 L201.5 95.8 196.4 93.4 214.25 90.2 Q207.45 92.75 210.6 97.7 L200.75 98.65 M215.55 97.0 L229.7 88.65 261.1 81.9 259.7 127.4 255.7 128.9 260.0 85.9 220.8 96.1 216.05 96.9 215.55 97.0 M190.35 96.4 L193.35 98.65 191.2 98.55 Q190.45 97.75 190.35 96.4 M199.65 173.45 L192.1 178.2 190.6 170.5 192.65 169.45 Q195.8 171.95 199.65 173.45 M248.55 165.3 L251.45 166.1 249.4 174.95 241.4 172.3 242.15 168.0 Q245.25 167.05 248.55 165.3 M235.8 193.25 L242.9 195.9 233.75 240.2 Q231.3 234.85 226.25 231.9 211.65 223.7 205.1 241.05 L197.1 197.65 204.2 194.4 211.8 214.55 226.05 215.4 235.8 193.25 M267.45 156.35 L256.75 156.35 291.6 146.6 291.8 151.4 267.45 156.35 M257.65 200.9 L254.1 215.1 247.9 213.0 251.45 198.55 257.65 200.9 M250.85 244.3 Q251.75 245.8 251.45 246.7 250.85 248.15 249.7 248.15 248.2 247.55 248.5 245.8 249.1 244.05 250.85 244.3 M234.05 203.85 Q233.75 208.9 237.0 208.9 240.25 209.2 240.8 203.85 241.1 198.55 237.55 198.85 234.3 198.85 234.05 203.85 M207.45 231.6 Q210.7 231.35 210.4 226.3 210.1 221.6 206.55 222.75 203.9 223.65 204.2 227.8 204.5 231.9 207.45 231.6 M208.35 239.0 Q212.2 232.5 217.8 231.9 225.15 230.75 229.6 237.8 233.75 244.05 233.15 252.6 232.25 260.55 227.55 265.85 221.9 271.5 214.85 268.55 203.9 264.1 205.4 247.85 205.7 243.75 208.35 239.0 M228.1 226.6 Q228.1 231.6 231.65 231.35 234.3 231.35 234.6 227.2 234.9 223.35 232.55 222.2 228.4 221.6 228.1 226.6 M230.2 246.4 L220.15 246.1 Q220.15 248.45 219.55 248.75 218.65 244.3 214.55 244.9 210.4 245.2 210.1 249.65 206.85 250.25 207.15 254.05 207.45 257.6 211.3 256.45 213.35 258.8 216.3 257.9 219.25 257.0 219.55 253.75 220.15 253.75 221.05 253.2 221.9 253.2 222.5 254.35 L228.7 248.45 Q230.5 247.0 230.2 246.4 M198.9 205.35 Q198.9 210.05 202.45 209.8 205.4 209.5 205.4 204.45 205.1 199.15 201.55 200.05 198.6 200.6 198.9 205.35 M182.95 203.3 L188.25 200.6 191.2 213.9 185.6 216.25 182.95 203.3" fill="#ff850d" fill-rule="evenodd" stroke="none"/>
    <path d="M189.0 165.0 L189.15 164.1 189.25 164.1 189.75 165.35 189.0 165.0 M196.1 167.65 L198.0 166.65 198.55 168.3 196.1 167.65 M200.65 168.8 L200.05 164.6 214.25 163.7 214.85 169.8 Q207.55 170.2 200.65 168.8 M242.0 158.3 L241.1 163.15 Q232.75 166.8 224.9 168.45 L225.4 163.4 231.8 160.1 242.0 158.3 M222.8 168.9 L222.35 168.95 221.65 163.4 222.8 168.9 M220.85 169.2 L218.95 169.45 220.1 162.7 220.85 169.2" fill="#59595e" fill-rule="evenodd" stroke="none"/>
  </g>
</svg>
