<?xml version="1.0" encoding="UTF-8" standalone="no"?>
<svg xmlns:xlink="http://www.w3.org/1999/xlink" height="544.6px" width="439.55px" xmlns="http://www.w3.org/2000/svg">
  <g transform="matrix(1.0, 0.0, 0.0, 1.0, 224.75, 246.5)">
    <path d="M21.25 -244.05 L17.55 -244.35 Q-11.35 -246.65 -32.95 -227.4 -41.3 -220.15 -47.5 -211.05 L-38.75 -216.9 -37.85 -217.5 -37.85 -217.45 Q-16.0 -230.35 11.15 -231.1 43.65 -232.2 71.75 -216.05 L68.35 -219.4 Q48.55 -238.9 21.25 -244.05 M18.0 -229.4 L4.8 -229.2 Q-3.65 -228.55 -11.95 -226.3 L-17.65 -224.75 -22.15 -223.1 Q-49.35 -211.95 -68.5 -189.3 -83.6 -167.05 -82.95 -139.95 L-82.9 -139.6 -78.9 -146.7 Q-65.15 -170.85 -45.55 -185.05 -33.6 -193.55 -20.55 -198.0 -9.9 -201.65 1.45 -202.6 L1.9 -202.7 Q8.85 -203.4 16.05 -203.05 L30.55 -201.35 Q37.5 -200.05 43.65 -198.25 L46.85 -197.25 Q60.5 -192.6 72.7 -184.75 L86.65 -173.35 102.4 -155.25 106.0 -157.05 105.75 -160.65 Q104.5 -186.4 85.55 -203.4 L73.3 -213.0 70.3 -214.85 Q58.35 -221.7 45.15 -225.65 39.0 -227.4 31.95 -228.35 L18.0 -229.4 M3.65 -246.2 Q49.5 -249.5 79.4 -213.4 88.2 -207.15 95.5 -199.2 111.3 -182.0 108.85 -158.85 114.5 -161.55 120.4 -163.25 156.45 -174.0 147.85 -135.3 172.25 -125.35 198.1 -132.85 218.2 -138.7 214.1 -119.35 L192.05 -59.0 Q188.15 -42.15 176.55 -30.0 161.6 -14.35 140.85 -15.8 134.75 -16.2 131.2 -12.35 110.95 8.95 84.45 -0.65 L84.45 3.65 Q86.9 59.4 84.1 112.6 L83.7 117.55 83.7 117.85 83.65 118.0 83.55 117.95 83.25 117.85 Q89.45 151.6 93.7 186.1 94.8 195.55 102.0 201.9 117.55 215.7 114.05 230.5 L77.65 292.55 -11.45 298.1 -22.75 268.35 1.4 239.95 Q-18.15 212.4 -10.05 179.55 L-32.5 179.35 Q-76.15 219.8 -84.7 280.15 L-87.05 279.8 -87.65 280.2 -89.0 279.95 -181.2 277.25 -185.05 276.8 -224.75 188.55 Q-215.05 174.9 -200.15 165.95 L-169.35 165.8 Q-145.55 133.9 -106.15 126.6 L-104.95 119.15 Q-103.65 112.3 -98.35 107.45 L-95.4 104.9 -99.05 92.9 -105.35 92.95 Q-102.3 70.2 -97.45 47.9 L-97.6 47.2 Q-112.85 15.75 -145.45 34.75 L-146.45 33.6 Q-146.35 1.05 -120.55 -7.95 L-123.4 -13.0 Q-123.15 -13.65 -123.05 -14.45 -116.3 -66.25 -72.05 -78.5 L-73.2 -130.5 Q-85.8 -128.7 -85.9 -140.15 -86.1 -155.55 -80.1 -169.45 -67.45 -198.3 -44.7 -222.9 -24.95 -244.3 3.65 -246.2 M90.25 -155.7 L90.9 -154.45 90.25 -151.0 86.65 -113.3 96.25 -143.95 96.95 -146.15 Q92.95 -153.2 90.25 -155.75 L90.2 -155.8 90.25 -155.7 M82.65 -106.55 L84.4 -107.65 88.7 -152.75 83.6 -152.9 83.4 -150.95 78.6 -104.0 82.65 -106.55 M58.0 -166.75 Q69.5 -163.75 79.6 -156.85 L82.75 -154.75 88.9 -154.4 87.4 -158.25 Q35.7 -183.45 -20.7 -172.8 -37.3 -169.35 -52.9 -162.75 L-49.5 -161.9 Q-14.3 -175.0 22.85 -172.15 L58.0 -166.75 M2.4 -187.95 Q47.0 -193.75 81.5 -165.6 90.75 -158.0 97.7 -148.55 L101.15 -154.25 Q79.55 -183.05 45.45 -194.1 2.2 -208.2 -37.55 -185.4 -68.65 -167.8 -82.95 -134.9 L-71.85 -134.2 Q-61.4 -164.25 -33.25 -178.7 -27.2 -181.85 -20.8 -184.1 L2.4 -187.95 M113.05 -158.35 L100.6 -151.85 Q80.75 -106.5 79.05 -59.4 73.05 -81.25 84.4 -105.6 L84.0 -105.5 77.85 -101.3 Q51.3 -56.85 93.55 -27.7 109.15 -16.95 128.0 -19.75 128.75 -19.7 128.8 -19.95 L128.05 -20.1 Q96.95 -23.8 82.6 -50.4 L80.65 -54.5 Q92.2 -66.9 105.75 -76.85 130.7 -99.1 137.8 -131.9 145.9 -169.15 113.05 -158.35 M165.6 -125.65 Q154.5 -125.95 145.1 -131.7 L143.4 -132.85 Q131.7 -85.2 93.95 -52.45 90.7 -49.65 94.2 -46.25 130.0 -10.3 170.3 -38.85 156.65 -22.15 134.05 -24.15 124.9 -24.95 116.1 -27.85 L107.5 -31.8 104.85 -33.25 Q75.35 -48.95 103.35 -70.8 L105.0 -72.2 Q142.55 -100.15 142.8 -146.8 L142.45 -152.9 Q140.05 -105.9 105.35 -74.1 L104.3 -73.15 Q95.7 -65.45 85.95 -59.2 83.05 -57.5 83.7 -55.3 91.6 -29.1 123.05 -22.7 L125.6 -22.1 Q173.1 -14.35 192.45 -63.25 199.8 -81.85 205.2 -101.25 209.1 -115.6 208.7 -128.75 200.4 -81.25 172.9 -42.2 196.0 -82.0 207.1 -127.1 L206.5 -127.3 Q186.25 -125.25 165.6 -125.65 M55.9 -90.35 L63.85 -87.45 76.65 -102.6 81.9 -153.25 66.6 -161.75 62.85 -158.25 62.75 -163.15 49.05 -167.1 53.7 -155.1 Q46.25 -162.45 36.25 -165.6 L39.4 -159.9 Q41.1 -156.4 39.65 -152.6 38.25 -157.2 34.4 -159.75 L33.35 -160.2 Q25.4 -161.3 25.55 -152.85 L18.35 -156.55 Q15.5 -158.15 12.95 -156.9 L12.65 -154.35 9.25 -156.7 7.3 -157.65 Q2.25 -158.65 1.7 -153.75 0.1 -158.75 1.85 -164.0 L1.15 -163.85 0.55 -163.4 Q-0.5 -162.5 -1.05 -161.15 -2.85 -157.15 -3.75 -152.9 L-9.4 -165.65 -9.35 -164.2 Q-9.55 -158.3 -13.7 -154.15 -11.75 -162.4 -16.6 -169.15 L-22.4 -167.85 -21.6 -161.1 Q-22.85 -161.25 -23.95 -162.1 -26.55 -164.0 -28.7 -166.55 L-33.75 -165.1 -35.2 -162.75 -35.5 -164.7 -48.65 -160.2 -46.15 -95.05 -29.25 -97.35 -28.55 -97.45 Q-0.65 -101.55 27.1 -96.55 6.0 -107.1 -16.95 -101.45 1.05 -109.0 20.1 -113.55 47.25 -120.1 41.55 -94.1 L55.9 -90.35 M-1.4 -151.0 Q2.05 -153.55 4.2 -152.5 L5.4 -151.45 6.1 -146.9 Q2.4 -143.55 -2.65 -142.35 L-1.95 -142.3 Q1.35 -138.55 1.9 -132.95 -3.25 -124.4 -13.15 -127.15 L-7.0 -128.25 Q-13.9 -130.1 -13.3 -137.05 L-15.9 -135.8 Q-18.7 -134.5 -21.0 -136.25 L-21.0 -136.35 Q-11.45 -143.35 -1.4 -151.0 M25.75 -151.25 L30.2 -150.9 Q41.0 -143.8 48.3 -133.85 45.15 -130.6 41.1 -134.15 41.0 -127.8 34.75 -126.65 L40.85 -125.3 Q30.9 -123.35 25.85 -131.9 25.55 -138.7 31.85 -141.0 25.9 -143.85 22.85 -149.55 L25.75 -151.25 M35.55 -136.25 L33.8 -137.9 29.0 -135.4 Q30.35 -132.5 31.25 -132.2 33.4 -131.5 35.7 -134.3 36.5 -135.35 35.55 -136.25 M48.4 -110.15 Q49.25 -116.4 42.55 -116.95 L43.6 -117.25 Q52.9 -119.6 48.4 -110.15 M76.55 -168.0 Q60.15 -179.75 40.5 -184.05 -3.25 -193.5 -42.05 -172.1 L-47.45 -167.75 Q-24.65 -174.95 -0.7 -176.6 43.95 -179.55 84.9 -161.65 L76.55 -168.0 M66.0 -82.75 L67.65 -89.5 Q56.05 -74.55 55.25 -57.35 L55.15 -66.2 55.25 -67.0 54.35 -65.9 Q38.2 -25.05 75.55 -5.4 76.2 -5.0 77.15 -4.9 70.05 -8.25 65.0 -14.1 64.05 -15.2 63.45 -16.5 88.6 7.35 118.85 -10.0 L130.05 -18.3 122.1 -17.5 Q115.5 -17.25 109.3 -19.0 60.5 -32.7 66.0 -82.75 M55.2 -88.8 L51.4 -89.8 Q32.3 -94.65 12.65 -96.7 -16.9 -98.55 -46.35 -93.4 L-53.85 -92.2 -54.35 -96.25 -55.45 -158.1 -55.45 -160.0 Q-64.2 -149.9 -69.0 -137.45 L-69.1 -137.25 -69.3 -136.0 Q-69.9 -101.2 -65.8 -66.85 L-64.25 -66.75 -62.45 -66.65 -56.35 -70.15 Q-48.4 -73.95 -37.15 -76.0 L-36.4 -76.15 -35.9 -76.2 Q-11.85 -79.85 12.4 -77.4 L14.45 -77.2 Q33.4 -76.15 50.6 -68.75 L52.8 -67.2 55.75 -69.35 Q57.65 -78.25 62.85 -85.95 L55.2 -88.8 M51.0 -63.2 L52.05 -65.7 50.8 -66.2 50.25 -66.45 50.3 -61.4 51.0 -63.2 M7.45 -71.05 Q27.25 -65.95 47.75 -68.3 L47.5 -68.5 Q30.25 -74.75 12.1 -75.65 L7.25 -76.1 Q-25.45 -80.1 -55.95 -68.6 L-59.3 -66.65 -43.25 -66.75 -34.95 -69.4 -15.3 -72.35 7.45 -71.05 M48.5 -66.7 L43.1 -66.6 40.0 -59.15 Q42.65 -58.1 42.55 -55.15 42.15 -40.75 32.45 -40.95 L27.0 -27.75 27.45 -26.9 Q29.05 -22.95 26.75 -19.2 L29.7 -17.9 31.05 -15.1 33.35 -14.35 Q37.85 -22.85 48.6 -14.5 L48.5 -66.7 M14.45 -67.8 L15.15 -67.9 Q-14.25 -74.2 -37.6 -67.0 L14.45 -67.8 M27.5 -63.05 L28.65 -66.4 -5.45 -66.25 -7.25 -65.5 Q-0.45 -60.9 -6.6 -51.05 4.7 -34.9 -9.15 -26.15 L-11.7 3.85 -7.8 3.7 10.1 -25.8 10.95 -25.55 Q11.9 -28.85 14.9 -30.55 L20.3 -44.6 Q16.05 -58.05 27.5 -63.05 M39.2 -55.2 L25.9 -59.45 22.05 -48.0 35.15 -44.0 Q36.9 -48.0 39.2 -55.2 M37.85 -62.85 L30.85 -62.35 36.85 -60.1 37.85 -62.85 M29.2 -41.9 L23.4 -43.6 18.2 -30.65 21.3 -29.75 16.9 -30.2 Q12.55 -29.3 11.15 -24.8 L13.55 -23.85 16.0 -27.0 24.65 -24.55 24.1 -20.9 26.4 -20.4 26.65 -21.35 Q27.55 -27.85 22.15 -29.5 L24.15 -28.95 29.2 -41.9 M14.35 -5.05 Q9.65 2.85 8.85 -10.6 10.5 -13.65 13.8 -13.7 18.45 -13.8 16.8 -10.05 L15.9 -8.05 Q12.0 -13.1 11.05 -6.1 11.05 -5.9 11.2 -5.8 12.6 -3.95 14.35 -5.05 M24.95 -1.25 L27.8 -12.05 25.1 -12.6 22.6 -1.9 24.95 -1.25 M26.05 -16.4 L27.3 -15.9 Q32.75 -4.0 21.55 1.5 L21.15 3.05 Q26.05 3.2 28.05 -2.35 L28.0 -0.5 31.95 -10.85 30.7 -11.15 30.55 -10.55 29.35 -17.4 26.5 -18.45 26.05 -16.4 M21.35 -22.2 L22.35 -24.65 16.45 -26.3 15.55 -24.05 21.35 -22.2 M-47.55 37.85 L-46.05 42.65 Q-24.65 11.95 1.4 35.8 3.1 37.3 4.3 39.5 17.45 12.05 23.05 -17.65 L11.3 -21.3 -6.75 7.35 -29.55 7.85 -30.9 7.9 -44.1 -20.4 -56.9 -16.25 Q-55.2 11.25 -47.55 37.85 M-36.35 19.2 Q-36.1 19.5 -36.0 19.9 -33.0 28.7 -42.4 29.25 L-42.95 28.8 Q-49.55 16.05 -36.35 19.2 M50.2 -27.6 L50.2 -25.1 50.55 -7.1 50.1 14.65 50.15 86.15 81.95 107.55 80.3 19.7 80.0 7.2 79.8 -3.0 77.2 -3.35 Q56.85 -6.75 50.55 -27.1 L50.25 -27.95 50.2 -27.6 M46.4 -11.7 L36.45 -14.3 29.8 3.95 32.25 4.8 39.9 6.75 Q45.85 -2.5 46.4 -11.7 M42.85 6.65 L41.95 8.45 35.6 9.2 Q28.7 9.4 27.0 2.9 L20.95 3.7 20.4 5.65 27.0 7.75 19.9 37.05 22.85 39.45 23.15 37.05 Q34.55 24.7 48.45 34.35 L48.4 8.05 42.85 6.65 M44.3 3.45 L47.05 4.15 47.15 -4.45 44.3 3.45 M48.45 47.5 L48.3 36.8 46.55 46.9 48.45 47.5 M42.6 41.7 L41.75 46.5 38.9 46.3 39.75 41.6 42.6 41.7 M45.25 37.7 Q45.7 35.4 44.8 35.1 L39.5 35.35 39.05 37.8 45.25 37.7 M-0.6 24.0 Q-8.1 23.4 4.05 16.5 6.6 17.5 6.9 20.4 7.25 23.8 4.8 23.9 L2.95 24.05 3.95 20.6 Q-0.75 17.9 -0.65 23.65 L-0.6 24.0 M15.65 57.2 L19.45 52.3 18.9 53.7 20.75 54.1 Q22.5 46.65 21.85 38.95 L19.6 37.7 19.15 39.55 20.7 41.0 Q21.4 51.3 13.25 57.55 L14.4 57.65 12.95 58.2 2.75 83.15 -49.5 85.05 -56.75 64.0 -57.8 60.55 -59.0 61.0 Q-61.05 61.25 -62.1 59.4 L-67.95 61.15 -68.05 75.0 -74.0 81.2 -85.35 81.65 -91.6 75.8 -91.85 67.9 -96.75 69.25 -99.95 89.25 -69.9 88.8 48.45 85.7 48.3 64.3 43.75 63.1 41.9 72.0 Q41.0 76.0 38.0 77.4 L45.0 39.1 25.65 39.8 20.25 78.7 Q14.75 74.1 20.3 57.2 L17.5 56.5 15.65 57.2 M38.1 35.3 L34.6 35.45 34.2 37.95 37.6 37.85 38.1 35.3 M13.2 26.7 L5.65 43.55 Q9.55 62.35 -5.25 74.95 -10.15 79.2 -16.3 81.15 L1.15 80.3 Q16.7 46.75 23.2 10.25 L19.25 9.0 13.2 26.7 M19.9 42.95 L18.5 42.55 15.05 52.6 16.4 53.0 19.9 42.95 M28.75 45.45 Q28.3 46.5 28.75 47.35 25.55 48.8 28.75 45.45 M33.75 44.6 L30.95 43.35 33.15 41.35 Q36.85 42.7 33.95 44.5 L33.75 44.6 M36.9 69.35 L36.0 70.4 Q28.85 73.35 25.15 69.75 30.6 66.25 36.9 69.35 M40.5 54.0 L37.75 54.1 38.3 49.5 41.2 49.45 40.5 54.0 M37.05 56.85 L39.9 57.0 39.0 61.45 36.4 61.25 37.05 56.85 M31.2 53.4 Q33.5 54.05 33.7 56.65 33.9 59.4 31.45 61.35 29.0 63.15 26.75 62.05 23.65 60.55 25.05 57.15 25.75 54.95 27.7 53.9 29.4 52.85 31.2 53.4 M32.85 38.1 L32.9 35.45 26.8 35.9 25.9 38.2 32.85 38.1 M20.95 79.2 L34.55 78.7 Q25.15 81.85 20.95 79.2 M35.5 75.65 L34.65 76.05 Q29.35 77.7 24.05 76.15 L25.45 74.5 Q31.85 71.0 35.5 75.65 M47.05 50.4 L46.0 50.05 44.1 60.1 46.6 60.75 47.05 50.4 M80.45 112.25 L80.95 108.9 51.3 89.15 Q48.7 87.4 47.15 88.0 L47.0 93.5 47.4 98.5 55.8 102.1 60.55 101.1 Q70.4 101.6 76.9 109.5 L78.15 111.0 80.3 113.3 80.45 112.25 M44.85 93.05 L44.85 88.0 -95.5 92.25 -94.05 96.6 -91.8 103.05 44.9 97.9 44.85 93.05 M48.45 102.2 L44.95 100.4 -31.15 103.15 48.45 102.2 M42.3 119.85 L51.0 106.95 -7.75 107.1 -15.7 118.95 -17.4 122.55 Q-25.6 139.95 -19.6 158.1 -15.85 169.1 -6.4 177.1 L55.6 175.35 Q45.7 168.85 41.55 157.15 L40.65 154.35 Q35.4 136.65 42.3 119.85 M79.9 132.8 Q79.1 101.15 52.2 110.0 26.9 147.3 62.45 174.5 61.6 208.65 81.85 236.2 L66.65 263.5 77.25 285.25 112.3 225.75 Q97.05 201.6 87.6 174.75 80.4 154.25 79.9 132.8 M60.25 181.95 L60.0 177.75 -5.95 179.5 -6.75 183.2 Q-13.25 209.7 1.45 232.65 L5.45 240.55 77.45 235.3 77.85 233.45 77.4 232.85 Q60.95 209.95 60.25 181.95 M75.8 238.55 L76.25 237.7 3.45 243.8 -11.2 261.95 -14.2 265.75 62.35 262.0 75.8 238.55 M73.8 287.7 L62.3 264.3 -15.9 268.2 -6.15 291.05 73.8 287.7 M-48.95 -124.35 L-50.55 -160.5 -53.75 -161.3 -52.7 -93.9 -47.75 -94.75 -48.95 -124.35 M-6.65 -139.0 Q-8.8 -136.9 -8.85 -136.45 -9.1 -134.6 -5.2 -133.45 -3.1 -132.55 -1.55 -136.2 L-6.65 -139.0 M-100.1 -49.05 Q-96.85 -52.6 -92.7 -55.7 L-90.4 -55.75 Q-116.95 -30.35 -93.8 0.2 L-89.55 4.85 -89.45 4.8 -88.15 -6.95 -87.5 -7.5 -78.75 -66.35 -67.65 -66.85 -68.0 -72.05 -68.1 -74.25 Q-76.0 -74.1 -82.55 -69.0 L-83.45 -68.45 Q-112.4 -51.1 -120.65 -12.9 L-120.3 -12.3 Q-116.7 -7.75 -111.4 -5.25 L-100.65 -0.95 -97.25 -0.1 Q-107.85 -16.9 -106.1 -36.5 L-105.4 -38.85 Q-103.65 -44.65 -100.1 -49.05 M-107.1 -1.45 Q-110.9 -2.85 -114.05 -4.6 L-118.6 5.8 -117.7 7.85 Q-116.25 10.6 -113.55 12.35 L-109.2 14.4 Q-106.5 15.25 -103.25 15.4 L-100.25 15.4 -98.75 15.2 -93.35 4.25 -94.6 2.85 -96.95 1.5 -102.6 0.1 Q-104.95 -0.6 -107.1 -1.45 M-21.15 -50.45 Q-25.2 -57.05 -21.15 -64.2 L-17.9 -65.6 -54.35 -64.9 -53.7 -62.4 Q-41.55 -57.35 -49.2 -43.65 L-46.1 -30.6 Q-34.55 -16.5 -29.05 4.4 L-25.0 4.35 -21.15 -50.45 M-18.15 -40.0 L-17.85 -38.4 -18.85 -38.35 -19.15 -35.85 -17.3 -35.9 -17.35 -36.55 Q-15.9 -31.75 -12.25 -28.5 -0.9 -37.25 -8.8 -50.4 L-10.7 -53.35 -11.65 -48.2 -17.0 -48.1 -16.95 -53.25 -18.45 -44.4 -18.85 -40.1 -18.15 -40.0 M-9.0 -53.45 Q-8.05 -54.3 -7.7 -55.6 -6.9 -58.2 -7.45 -61.05 L-10.1 -61.05 Q-11.9 -55.9 -9.0 -53.45 M-19.2 -60.9 L-20.05 -56.6 Q-20.25 -54.35 -18.4 -53.2 -18.25 -54.55 -16.85 -55.9 L-16.5 -61.0 -19.2 -60.9 M-11.5 -62.35 L-14.9 -62.45 -15.85 -49.8 -12.4 -49.75 -11.5 -62.35 M-67.45 -58.25 L-69.15 -64.75 -77.65 -64.3 -85.1 -11.9 Q-79.6 -14.35 -73.6 -15.3 -70.4 -16.0 -69.75 -12.75 L-65.1 -14.35 Q-64.0 -17.55 -60.4 -17.6 L-60.4 -19.15 -59.75 -19.9 -60.3 -23.2 -59.0 -26.5 -63.05 -39.35 -63.6 -39.4 Q-74.7 -47.4 -67.45 -58.25 M-64.8 -62.5 L-63.85 -59.15 -57.35 -61.35 -57.65 -62.3 -64.8 -62.5 M-52.05 -58.95 L-66.6 -54.45 -64.35 -43.0 -50.0 -47.35 -52.05 -58.95 M-58.95 -20.95 Q-59.15 -20.35 -58.95 -19.6 L-56.35 -20.4 -56.25 -24.1 -46.8 -26.7 -45.2 -24.05 -42.4 -24.9 Q-53.5 -35.75 -58.95 -20.95 M-60.1 -15.2 L-60.4 -16.9 -62.55 -14.0 -60.1 -15.2 M-54.85 -24.15 L-54.25 -21.2 -47.8 -23.1 -48.55 -25.8 -54.85 -24.15 M-62.65 -11.25 L-61.95 -0.1 -59.3 -1.0 -60.25 -11.95 -62.65 -11.25 M-65.5 -10.2 L-69.1 -9.2 -66.85 1.4 -64.95 0.65 -65.05 -1.5 -63.1 0.05 Q-63.8 -1.25 -63.85 -3.3 -63.95 -8.55 -62.8 -13.7 L-65.5 -10.2 M-52.7 -42.75 L-59.1 -40.6 -55.95 -28.3 -49.5 -30.3 -52.7 -42.75 M-53.95 -4.5 Q-54.55 -7.3 -53.05 -10.05 -50.55 -14.3 -46.05 -12.6 -43.6 -11.55 -42.85 -8.85 -42.05 -6.1 -43.2 -3.55 -46.15 1.75 -50.9 -0.6 -53.35 -1.75 -53.95 -4.5 M-20.6 -15.75 L-20.75 -13.45 -17.3 -13.5 -15.8 -11.75 -13.45 -11.8 -13.0 -17.55 -15.45 -17.65 -17.15 -15.8 -20.6 -15.75 M-16.25 -26.95 L-19.7 -26.9 -19.85 -24.65 -16.4 -24.7 -14.95 -22.9 -12.45 -22.9 -12.15 -27.0 Q-14.2 -26.75 -15.25 -28.05 L-16.25 -26.95 M-17.1 -34.25 L-19.15 -34.25 -19.55 -28.25 Q-16.9 -28.35 -16.25 -29.15 L-17.1 -34.25 M-48.4 -3.55 Q-46.65 -3.65 -45.9 -5.45 -44.8 -8.4 -47.5 -9.2 -49.15 -9.7 -50.2 -8.15 -51.3 -6.65 -50.7 -5.15 -50.0 -3.55 -48.4 -3.55 M-20.8 -12.1 L-21.3 -6.55 -18.75 -6.55 -17.15 -8.3 -13.6 -8.45 -13.5 -10.6 -17.0 -10.55 -18.25 -12.1 -20.8 -12.1 M-21.3 -5.15 L-21.55 -3.05 -18.1 -3.1 -16.75 -1.35 -14.2 -1.4 -13.75 -6.95 -16.4 -7.0 -18.0 -5.25 -21.3 -5.15 M-12.8 -18.9 L-12.7 -21.3 -16.05 -21.2 -17.6 -22.9 -20.0 -22.8 -20.55 -17.15 -17.9 -17.1 -16.3 -18.85 -12.8 -18.9 M-17.65 -0.05 L-19.05 -1.7 -21.6 -1.7 -21.9 3.15 -18.95 3.2 Q-18.45 2.0 -16.95 1.9 L-14.55 1.85 -14.3 -0.2 -17.65 -0.05 M-73.1 -12.55 L-83.2 -9.15 -79.05 9.35 -69.1 6.0 -73.1 -12.55 M-38.05 23.35 Q-38.1 21.45 -39.75 20.95 -40.85 20.55 -41.8 21.35 -43.75 22.75 -42.75 24.85 -41.55 26.85 -39.6 25.85 -38.0 25.1 -38.05 23.35 M-16.15 29.1 Q-30.15 28.15 -38.75 39.1 -54.25 58.7 -35.1 73.5 -21.55 84.0 -9.35 71.4 16.75 44.4 -16.15 29.1 M-18.8 48.1 L-1.7 47.7 -15.85 58.5 -17.75 56.95 -21.25 58.2 Q-26.0 67.6 -35.2 62.3 L-41.45 62.05 Q-44.05 55.55 -37.25 53.3 L-36.15 51.65 Q-27.4 41.5 -21.05 51.75 L-19.45 51.15 -18.8 48.1 M-58.5 2.2 L-60.55 2.0 -58.1 3.95 -58.5 2.2 M-57.75 7.1 L-58.1 4.55 -63.05 3.75 -66.15 4.75 -66.3 5.55 Q-69.3 12.95 -79.4 12.7 L-79.95 12.55 Q-81.9 11.75 -82.4 9.55 L-88.5 11.5 -92.6 41.9 -92.65 44.35 -93.2 44.85 -94.15 51.4 -90.7 50.3 -92.4 49.95 -92.6 41.9 -86.45 35.05 -74.15 34.65 -67.8 41.15 -67.85 43.8 -65.55 43.2 -65.15 41.95 Q-64.4 39.95 -62.35 39.3 L-65.6 9.7 -57.75 7.1 M-48.9 44.3 L-57.15 10.65 -62.15 12.3 -61.55 20.7 Q-59.9 40.55 -54.8 59.6 L-47.4 82.35 -30.65 81.5 Q-54.3 72.35 -47.95 47.05 L-48.9 44.3 M-80.15 46.45 L-71.0 46.2 -70.9 42.65 -75.5 37.9 -78.55 38.0 -84.95 38.2 -89.45 43.25 -89.25 46.75 -80.15 46.45 M-79.15 41.2 L-75.65 41.15 Q-74.15 41.05 -75.05 44.25 L-79.75 44.4 -85.35 44.45 -85.6 41.65 -79.15 41.2 M-63.8 55.75 Q-61.9 58.15 -58.0 59.9 L-58.25 58.3 Q-59.15 58.2 -59.45 57.75 -66.15 49.65 -61.95 42.0 L-62.25 40.1 Q-64.85 44.15 -65.55 47.55 L-65.75 46.55 -67.9 47.2 -67.85 49.1 -69.5 49.3 -69.65 51.4 -67.95 51.45 -68.0 57.8 -63.6 56.75 -63.8 55.75 M-61.35 45.25 L-62.95 45.7 -60.8 55.9 -59.1 55.45 -61.35 45.25 M-82.1 56.75 L-75.15 56.6 -75.05 59.4 -82.65 59.7 -84.95 59.8 -84.85 56.9 -82.1 56.75 M-83.3 62.9 Q-81.0 64.2 -82.15 66.6 -83.05 68.1 -84.3 68.15 L-87.35 65.85 -87.2 64.85 Q-86.2 61.8 -83.3 62.9 M-84.85 71.15 L-74.8 70.75 -75.0 73.35 -84.75 73.65 -85.05 72.2 -84.85 71.15 M-86.0 77.1 L-84.25 78.7 -75.3 78.35 -71.0 74.0 -70.95 54.7 -81.75 54.9 -89.1 55.1 -88.65 74.55 -86.0 77.1 M-74.35 62.55 Q-71.75 63.15 -72.85 66.1 -73.9 68.25 -76.15 67.45 -78.45 66.65 -77.95 64.45 -77.2 61.85 -74.35 62.55 M-21.5 55.75 L-21.8 54.35 Q-30.9 58.65 -40.65 58.7 L-40.05 60.05 Q-30.5 60.0 -21.5 55.75 M-18.3 52.95 L-17.95 54.45 -16.85 54.55 -15.7 55.75 -7.0 49.65 -17.1 50.2 Q-17.65 52.45 -18.3 52.95 M-18.85 53.15 Q-19.4 53.2 -19.55 53.6 L-19.2 55.0 -18.35 54.65 -18.85 53.15 M-19.8 55.15 L-20.2 53.7 -21.35 54.1 -20.85 55.6 -19.8 55.15 M-25.3 60.3 Q-24.05 59.25 -23.5 57.55 L-33.6 60.5 Q-29.6 63.6 -25.3 60.3 M-36.45 55.55 Q-38.95 56.2 -40.45 58.0 L-39.3 58.3 Q-38.75 57.6 -36.5 56.65 -36.65 55.95 -36.45 55.55 M-35.4 56.5 L-35.45 57.35 -23.0 53.65 Q-30.9 43.2 -35.4 56.5 M-94.7 27.7 L-93.4 30.05 -89.75 6.6 -90.65 6.1 -91.95 5.4 -97.75 16.7 -97.85 16.8 Q-104.35 17.85 -110.7 15.8 -113.15 14.85 -115.1 13.25 -118.7 10.6 -120.1 6.35 L-120.2 6.0 -116.35 -3.75 Q-143.6 -1.85 -142.6 29.85 -134.0 19.2 -120.8 16.4 L-112.45 16.7 Q-108.45 17.5 -104.25 19.8 -100.65 21.75 -98.1 23.95 -96.05 25.75 -94.7 27.7 M-86.5 7.0 L-83.15 6.25 -85.3 -3.2 -86.5 7.0 M-95.65 29.4 Q-103.65 18.4 -117.4 17.85 L-118.15 17.85 Q-132.5 20.1 -141.25 31.0 L-128.3 25.1 -125.9 24.55 Q-108.4 21.3 -96.75 33.95 L-94.65 37.65 -95.65 29.4 M-92.25 54.25 L-94.1 54.75 -95.45 65.65 -91.95 64.55 -92.25 54.25 M-84.0 131.1 L-101.25 132.25 Q-138.45 134.9 -161.15 165.45 L-108.15 165.8 -99.55 185.35 Q-94.5 174.6 -86.1 163.6 -70.25 142.55 -46.2 132.65 L-48.05 130.85 -84.0 131.1 M-99.15 117.65 L-101.0 128.5 -48.5 128.0 -47.3 118.45 Q-45.35 112.25 -40.8 107.25 L-44.8 106.5 Q-74.5 101.4 -99.15 117.65 M-121.85 190.4 L-123.05 187.7 -217.55 189.75 -181.2 271.0 -91.85 271.35 -121.85 190.4 M-114.1 171.85 L-111.8 168.35 -198.1 169.15 -201.45 172.3 -217.5 187.6 -122.95 185.6 -114.1 171.85 M-41.05 160.15 Q-43.5 150.85 -44.05 141.4 L-44.3 135.05 -44.85 134.7 Q-83.35 151.1 -98.05 190.65 L-99.25 190.85 -109.45 169.0 -121.0 186.4 -90.05 269.15 Q-78.8 220.65 -43.75 185.25 -37.15 178.7 -32.6 175.7 -38.05 170.2 -41.05 160.15 M-20.3 118.9 L-12.95 107.1 -37.1 107.35 -39.25 109.15 Q-43.55 113.0 -45.1 118.7 L-46.25 129.2 Q-44.6 130.85 -44.15 132.75 -41.45 145.5 -39.1 159.0 -37.9 163.3 -36.25 166.75 -33.5 172.6 -29.1 175.45 L-13.45 175.85 Q-20.65 167.8 -23.75 158.55 L-24.15 157.15 Q-29.35 137.4 -20.3 118.9 M-206.4 198.4 L-129.1 197.8 -104.2 262.6 -176.3 263.55 -206.4 198.4" fill="#000000" fill-rule="evenodd" stroke="none"/>
    <path d="M4.8 -229.2 L18.0 -229.4 16.05 -203.05 Q8.85 -203.4 1.9 -202.7 L4.8 -229.2 M31.95 -228.35 Q39.0 -227.4 45.15 -225.65 45.15 -221.45 43.65 -198.25 37.5 -200.05 30.55 -201.35 L31.95 -228.35 M73.3 -213.0 L85.55 -203.4 Q86.7 -176.3 86.65 -173.35 L72.7 -184.75 73.3 -213.0 M55.9 -90.35 L41.55 -94.1 Q47.25 -120.1 20.1 -113.55 1.05 -109.0 -16.95 -101.45 6.0 -107.1 27.1 -96.55 -0.65 -101.55 -28.55 -97.45 L-29.3 -97.35 Q-38.6 -111.85 -37.2 -129.0 L-36.95 -131.8 -36.5 -132.3 Q-36.55 -134.6 -36.2 -137.0 -35.45 -141.9 -32.85 -146.1 L-1.4 -151.0 Q-11.45 -143.35 -21.0 -136.35 L-21.0 -136.25 Q-18.7 -134.5 -15.9 -135.8 L-13.3 -137.05 Q-13.9 -130.1 -7.0 -128.25 L-13.15 -127.15 Q-3.25 -124.4 1.9 -132.95 1.35 -138.55 -1.95 -142.3 L-2.65 -142.35 Q2.4 -143.55 6.1 -146.9 L5.4 -151.45 Q15.75 -151.95 25.75 -151.25 L22.85 -149.55 Q25.9 -143.85 31.85 -141.0 25.55 -138.7 25.85 -131.9 30.9 -123.35 40.85 -125.3 L34.75 -126.65 Q41.0 -127.8 41.1 -134.15 45.15 -130.6 48.3 -133.85 41.0 -143.8 30.2 -150.9 49.4 -150.15 67.4 -143.15 L68.3 -139.75 Q75.0 -111.95 55.9 -90.35 M48.4 -110.15 Q52.9 -119.6 43.6 -117.25 L42.55 -116.95 Q49.25 -116.4 48.4 -110.15 M-25.3 60.3 Q-29.6 63.6 -33.6 60.5 L-23.5 57.55 Q-24.05 59.25 -25.3 60.3 M-35.4 56.5 Q-30.9 43.2 -23.0 53.65 L-35.45 57.35 -35.4 56.5" fill="#ffe600" fill-rule="evenodd" stroke="none"/>
    <path d="M21.25 -244.05 L16.0 -241.45 Q7.95 -236.6 11.15 -231.1 -16.0 -230.35 -37.85 -217.45 L-37.85 -217.5 Q-36.2 -222.85 -32.95 -227.4 -11.35 -246.65 17.55 -244.35 L21.25 -244.05 M82.65 -106.55 L78.6 -104.0 83.4 -150.95 82.65 -106.55 M77.85 -101.3 L84.0 -105.5 84.4 -105.6 Q73.05 -81.25 79.05 -59.4 80.75 -106.5 100.6 -151.85 L113.05 -158.35 Q102.85 -119.5 105.55 -79.3 L105.75 -76.85 Q92.2 -66.9 80.65 -54.5 L82.6 -50.4 Q96.95 -23.8 128.05 -20.1 128.2 -19.85 128.0 -19.75 113.55 -19.95 101.45 -27.65 61.35 -53.1 77.85 -101.3 M165.6 -125.65 Q186.25 -125.25 206.5 -127.3 L207.1 -127.1 Q196.0 -82.0 172.9 -42.2 L170.5 -39.05 Q165.15 -35.95 156.15 -35.1 141.4 -33.8 136.3 -41.5 129.1 -52.5 165.6 -125.65 M125.6 -22.1 L123.05 -22.7 107.5 -31.8 116.1 -27.85 Q122.65 -24.15 125.6 -22.1 M104.3 -73.15 L105.35 -74.1 105.0 -72.2 103.35 -70.8 104.3 -73.15 M-28.55 -97.45 L-29.25 -97.35 -29.3 -97.35 -28.55 -97.45 M-42.05 -172.1 Q-27.1 -179.6 9.45 -183.3 42.9 -186.6 76.55 -168.0 L84.9 -161.65 Q43.95 -179.55 -0.7 -176.6 -24.65 -174.95 -47.45 -167.75 L-42.05 -172.1 M67.65 -89.5 Q44.7 -39.55 71.2 -18.0 84.55 -8.5 100.75 -7.55 110.8 -7.0 118.85 -10.0 88.6 7.35 63.45 -16.5 64.05 -15.2 65.0 -14.1 70.05 -8.25 77.15 -4.9 76.2 -5.0 75.55 -5.4 38.2 -25.05 54.35 -65.9 L55.15 -66.2 55.25 -57.35 Q56.05 -74.55 67.65 -89.5 M122.1 -17.5 Q113.55 -14.25 104.9 -16.9 56.0 -32.15 66.0 -82.75 60.5 -32.7 109.3 -19.0 115.5 -17.25 122.1 -17.5 M55.2 -88.8 L62.85 -85.95 Q57.65 -78.25 55.75 -69.35 L52.8 -67.2 50.6 -68.75 55.2 -88.8 M12.4 -77.4 Q-11.85 -79.85 -35.9 -76.2 L-36.4 -76.15 -37.15 -76.0 Q-49.35 -74.1 -56.35 -70.15 L-62.45 -66.65 -64.25 -66.75 -69.1 -137.25 -69.0 -137.45 -68.75 -134.45 Q-60.9 -153.55 -55.45 -158.1 L-54.35 -96.25 -53.85 -92.2 -46.35 -93.4 Q-16.9 -98.55 12.65 -96.7 L12.4 -77.4 M51.0 -63.2 L50.8 -66.2 52.05 -65.7 51.0 -63.2 M12.1 -75.65 Q30.25 -74.75 47.5 -68.5 L47.75 -68.3 Q27.25 -65.95 7.45 -71.05 10.95 -74.2 12.1 -75.65 M-15.3 -72.35 L-34.95 -69.4 Q-27.05 -72.15 -15.3 -72.35 M-43.25 -66.75 L-59.3 -66.65 -55.95 -68.6 -43.25 -66.75 M27.5 -63.05 Q16.05 -58.05 20.3 -44.6 L14.9 -30.55 Q11.9 -28.85 10.95 -25.55 L10.1 -25.8 -7.8 3.7 -11.7 3.85 -9.15 -26.15 Q4.7 -34.9 -6.6 -51.05 -0.45 -60.9 -7.25 -65.5 L-5.45 -66.25 28.65 -66.4 27.5 -63.05 M29.2 -41.9 L24.15 -28.95 22.15 -29.5 Q27.55 -27.85 26.65 -21.35 L26.4 -20.4 24.1 -20.9 24.65 -24.55 16.0 -27.0 13.55 -23.85 11.15 -24.8 Q12.55 -29.3 16.9 -30.2 L21.3 -29.75 18.2 -30.65 23.4 -43.6 29.2 -41.9 M15.9 -8.05 L14.35 -5.05 Q12.6 -3.95 11.2 -5.8 11.05 -5.9 11.05 -6.1 12.0 -13.1 15.9 -8.05 M21.35 -22.2 L15.55 -24.05 16.45 -26.3 22.35 -24.65 21.35 -22.2 M26.05 -16.4 L26.5 -18.45 29.35 -17.4 30.55 -10.55 30.7 -11.15 31.95 -10.85 28.0 -0.5 28.05 -2.35 Q26.05 3.2 21.15 3.05 L21.55 1.5 Q32.75 -4.0 27.3 -15.9 L26.05 -16.4 M24.95 -1.25 L22.6 -1.9 25.1 -12.6 27.8 -12.05 24.95 -1.25 M50.2 -27.6 L50.25 -27.95 50.55 -27.1 50.2 -27.6 M80.0 7.2 L80.3 19.7 Q56.0 9.9 50.55 -7.1 L50.2 -25.1 50.25 -25.05 Q58.1 2.85 80.0 7.2 M44.3 3.45 L47.15 -4.45 47.05 4.15 44.3 3.45 M45.25 37.7 L39.05 37.8 39.5 35.35 44.8 35.1 Q45.7 35.4 45.25 37.7 M42.6 41.7 L39.75 41.6 38.9 46.3 41.75 46.5 42.6 41.7 M-0.6 24.0 L-0.65 23.65 Q-0.75 17.9 3.95 20.6 L2.95 24.05 Q2.05 25.0 0.8 24.8 -0.15 24.6 -0.6 24.0 M14.4 57.65 L13.25 57.55 Q21.4 51.3 20.7 41.0 L19.15 39.55 19.6 37.7 21.85 38.95 Q22.5 46.65 20.75 54.1 L18.9 53.7 19.45 52.3 15.65 57.2 14.4 57.65 M20.25 78.7 L25.65 39.8 45.0 39.1 38.0 77.4 37.85 77.45 34.55 78.7 20.95 79.2 20.2 79.25 20.25 78.7 M-69.9 88.8 L-99.95 89.25 -96.75 69.25 -91.85 67.9 -91.6 75.8 -85.35 81.65 -74.0 81.2 -68.05 75.0 -67.95 61.15 -62.1 59.4 Q-61.05 61.25 -59.0 61.0 L-57.8 60.55 -56.75 64.0 -69.9 88.8 M19.9 42.95 L16.4 53.0 15.05 52.6 18.5 42.55 19.9 42.95 M13.2 26.7 L19.25 9.0 23.2 10.25 Q16.7 46.75 1.15 80.3 L-16.3 81.15 Q-10.15 79.2 -5.25 74.95 9.55 62.35 5.65 43.55 L13.2 26.7 M38.1 35.3 L37.6 37.85 34.2 37.95 34.6 35.45 38.1 35.3 M28.75 45.45 Q25.55 48.8 28.75 47.35 L31.0 48.75 Q33.8 47.6 33.75 44.6 L33.95 44.5 Q36.85 42.7 33.15 41.35 L30.95 43.35 28.75 45.45 M32.85 38.1 L25.9 38.2 26.8 35.9 32.9 35.45 32.85 38.1 M31.2 53.4 Q29.4 52.85 27.7 53.9 25.75 54.95 25.05 57.15 23.65 60.55 26.75 62.05 29.0 63.15 31.45 61.35 33.9 59.4 33.7 56.65 33.5 54.05 31.2 53.4 M37.05 56.85 L36.4 61.25 39.0 61.45 39.9 57.0 37.05 56.85 M40.5 54.0 L41.2 49.45 38.3 49.5 37.75 54.1 40.5 54.0 M36.9 69.35 Q30.6 66.25 25.15 69.75 28.85 73.35 36.0 70.4 L36.9 69.35 M35.5 75.65 Q31.85 71.0 25.45 74.5 L24.05 76.15 Q29.35 77.7 34.65 76.05 L35.5 75.65 M47.05 50.4 L46.6 60.75 44.1 60.1 46.0 50.05 47.05 50.4 M80.45 112.25 L80.3 113.3 78.15 111.0 80.45 112.25 M60.55 101.1 L55.8 102.1 47.4 98.5 47.0 93.5 60.55 101.1 M-94.05 96.6 L44.85 93.05 44.9 97.9 -91.8 103.05 -94.05 96.6 M-15.7 118.95 L-7.75 107.1 51.0 106.95 42.3 119.85 -15.7 118.95 M41.55 157.15 Q45.7 168.85 55.6 175.35 L-6.4 177.1 Q-15.85 169.1 -19.6 158.1 L41.55 157.15 M1.45 232.65 Q-13.25 209.7 -6.75 183.2 L-5.95 179.5 60.0 177.75 60.25 181.95 Q8.45 191.8 1.45 232.65 M-11.2 261.95 L3.45 243.8 76.25 237.7 75.8 238.55 Q16.2 260.65 -11.2 261.95 M73.8 287.7 L-6.15 291.05 -15.9 268.2 62.3 264.3 73.8 287.7 M-90.4 -55.75 Q-88.85 -57.35 -86.35 -58.3 -87.95 -65.45 -83.45 -68.45 L-82.55 -69.0 Q-81.3 -69.7 -79.55 -70.1 -71.4 -72.0 -68.0 -72.05 L-67.65 -66.85 -78.75 -66.35 -80.7 -66.3 -83.1 -53.35 -85.85 -50.3 Q-105.55 -25.75 -90.6 2.7 L-90.35 4.0 -89.65 4.65 -89.55 4.85 -93.8 0.2 Q-116.95 -30.35 -90.4 -55.75 M-111.4 -5.25 L-111.85 -10.75 Q-114.1 -33.85 -100.1 -49.05 -103.65 -44.65 -105.4 -38.85 L-106.1 -36.5 Q-112.55 -15.0 -100.65 -0.95 L-111.4 -5.25 M-107.1 -1.45 Q-104.95 -0.6 -102.6 0.1 L-109.2 14.4 -113.55 12.35 -107.1 -1.45 M-96.95 1.5 L-94.6 2.85 -100.25 15.4 -103.25 15.4 -96.95 1.5 M-21.15 -50.45 L-25.0 4.35 -29.05 4.4 Q-34.55 -16.5 -46.1 -30.6 L-49.2 -43.65 Q-41.55 -57.35 -53.7 -62.4 L-54.35 -64.9 -17.9 -65.6 -21.15 -64.2 Q-25.2 -57.05 -21.15 -50.45 M-18.15 -40.0 L-18.85 -40.1 -18.45 -44.4 -18.15 -40.0 M-67.45 -58.25 Q-74.7 -47.4 -63.6 -39.4 L-63.05 -39.35 -59.0 -26.5 -60.3 -23.2 -59.75 -19.9 -60.4 -19.15 -60.4 -17.6 Q-64.0 -17.55 -65.1 -14.35 L-69.75 -12.75 Q-70.4 -16.0 -73.6 -15.3 -79.6 -14.35 -85.1 -11.9 L-77.65 -64.3 -69.15 -64.75 -67.45 -58.25 M-21.3 -5.15 L-18.0 -5.25 -16.4 -7.0 -13.75 -6.95 -14.2 -1.4 -16.75 -1.35 -18.1 -3.1 -21.55 -3.05 -21.3 -5.15 M-20.8 -12.1 L-18.25 -12.1 -17.0 -10.55 -13.5 -10.6 -13.6 -8.45 -17.15 -8.3 -18.75 -6.55 -21.3 -6.55 -20.8 -12.1 M-17.65 -0.05 L-14.3 -0.2 -14.55 1.85 -16.95 1.9 Q-18.45 2.0 -18.95 3.2 L-21.9 3.15 -21.6 -1.7 -19.05 -1.7 -17.65 -0.05 M-57.75 7.1 L-65.6 9.7 -62.35 39.3 Q-64.4 39.95 -65.15 41.95 L-65.55 43.2 -67.85 43.8 -67.8 41.15 -74.15 34.65 -86.45 35.05 -92.6 41.9 -92.4 49.95 -90.7 50.3 -94.15 51.4 -93.2 44.85 -92.65 44.35 -92.6 41.9 -88.5 11.5 -82.4 9.55 Q-81.9 11.75 -79.95 12.55 L-79.4 12.7 Q-69.3 12.95 -66.3 5.55 L-66.15 4.75 -63.05 3.75 -58.1 4.55 -57.75 7.1 M-48.9 44.3 L-47.95 47.05 Q-54.3 72.35 -30.65 81.5 L-47.4 82.35 -54.8 59.6 -48.9 44.3 M-80.15 46.45 L-89.25 46.75 -89.45 43.25 -84.95 38.2 -78.55 38.0 -79.15 41.2 -85.6 41.65 -85.35 44.45 -79.75 44.4 -80.15 46.45 M-63.8 55.75 L-63.6 56.75 -68.0 57.8 -67.95 51.45 -69.65 51.4 -69.5 49.3 -67.85 49.1 -67.9 47.2 -65.75 46.55 -65.55 47.55 -63.8 55.75 M-82.1 56.75 L-84.85 56.9 -84.95 59.8 -82.65 59.7 -83.3 62.9 Q-86.2 61.8 -87.2 64.85 L-87.35 65.85 -84.3 68.15 -84.85 71.15 -85.05 72.2 -86.0 77.1 -88.65 74.55 -89.1 55.1 -81.75 54.9 -82.1 56.75 M-94.7 27.7 Q-96.05 25.75 -98.1 23.95 L-97.15 24.5 -97.75 16.7 -91.95 5.4 -90.65 6.1 Q-93.35 24.45 -94.7 27.7 M-112.45 16.7 L-120.8 16.4 -115.1 13.25 Q-113.15 14.85 -110.7 15.8 L-112.45 16.7 M-86.5 7.0 L-85.3 -3.2 -83.15 6.25 -86.5 7.0 M-95.65 29.4 L-94.65 37.65 -96.75 33.95 Q-95.75 31.4 -95.65 29.4 M-128.3 25.1 L-141.25 31.0 Q-132.5 20.1 -118.15 17.85 -122.55 19.5 -128.3 25.1 M-99.55 185.35 L-108.15 165.8 -161.15 165.45 Q-138.45 134.9 -101.25 132.25 L-84.0 131.1 Q-107.85 152.4 -99.2 183.05 -99.6 183.85 -99.55 185.35 M-99.15 117.65 Q-74.5 101.4 -44.8 106.5 L-40.8 107.25 Q-45.35 112.25 -47.3 118.45 L-99.15 117.65 M-121.85 190.4 L-91.85 271.35 -181.2 271.0 -217.55 189.75 -123.05 187.7 -121.85 190.4 M-114.1 171.85 L-122.95 185.6 -217.5 187.6 -201.45 172.3 -114.1 171.85 M-41.05 160.15 Q-38.05 170.2 -32.6 175.7 -37.15 178.7 -43.75 185.25 L-44.0 185.3 Q-45.3 181.65 -41.05 160.15 M-20.3 118.9 Q-29.35 137.4 -24.15 157.15 L-23.75 158.55 -39.1 159.0 Q-41.45 145.5 -44.15 132.75 -44.6 130.85 -46.25 129.2 L-45.1 118.7 -20.3 118.9 M-206.4 198.4 L-176.3 263.55 -104.2 262.6 -129.1 197.8 -206.4 198.4" fill="#a7abac" fill-rule="evenodd" stroke="none"/>
    <path d="M11.15 -231.1 Q7.95 -236.6 16.0 -241.45 L21.25 -244.05 Q48.55 -238.9 68.35 -219.4 L71.75 -216.05 Q43.65 -232.2 11.15 -231.1 M-32.95 -227.4 Q-36.2 -222.85 -37.85 -217.5 L-38.75 -216.9 -47.5 -211.05 Q-41.3 -220.15 -32.95 -227.4 M18.0 -229.4 L31.95 -228.35 30.55 -201.35 16.05 -203.05 18.0 -229.4 M90.25 -155.75 L90.25 -155.7 90.2 -155.8 90.25 -155.75 M90.25 -151.0 L96.25 -143.95 86.65 -113.3 90.25 -151.0 M113.05 -158.35 Q145.9 -169.15 137.8 -131.9 130.7 -99.1 105.75 -76.85 L105.55 -79.3 Q102.85 -119.5 113.05 -158.35 M128.05 -20.1 L128.8 -19.95 Q128.75 -19.7 128.0 -19.75 109.15 -16.95 93.55 -27.7 51.3 -56.85 77.85 -101.3 61.35 -53.1 101.45 -27.65 113.55 -19.95 128.0 -19.75 128.2 -19.85 128.05 -20.1 M172.9 -42.2 Q200.4 -81.25 208.7 -128.75 209.1 -115.6 205.2 -101.25 199.8 -81.85 192.45 -63.25 173.1 -14.35 125.6 -22.1 122.65 -24.15 116.1 -27.85 124.9 -24.95 134.05 -24.15 156.65 -22.15 170.3 -38.85 L171.35 -39.55 170.5 -39.05 172.9 -42.2 M105.35 -74.1 Q140.05 -105.9 142.45 -152.9 L142.8 -146.8 Q142.55 -100.15 105.0 -72.2 L105.35 -74.1 M35.55 -136.25 Q36.5 -135.35 35.7 -134.3 33.4 -131.5 31.25 -132.2 30.35 -132.5 29.0 -135.4 L33.8 -137.9 35.55 -136.25 M67.65 -89.5 L66.0 -82.75 Q56.0 -32.15 104.9 -16.9 113.55 -14.25 122.1 -17.5 L130.05 -18.3 118.85 -10.0 Q110.8 -7.0 100.75 -7.55 84.55 -8.5 71.2 -18.0 44.7 -39.55 67.65 -89.5 M12.65 -96.7 Q32.3 -94.65 51.4 -89.8 L55.2 -88.8 50.6 -68.75 Q33.4 -76.15 14.45 -77.2 L12.4 -77.4 12.65 -96.7 M-37.15 -76.0 Q-48.4 -73.95 -56.35 -70.15 -49.35 -74.1 -37.15 -76.0 M-64.25 -66.75 L-65.8 -66.85 Q-69.9 -101.2 -69.3 -136.0 L-69.1 -137.25 -64.25 -66.75 M50.8 -66.2 L51.0 -63.2 50.3 -61.4 50.25 -66.45 50.8 -66.2 M54.35 -65.9 L55.25 -67.0 55.15 -66.2 54.35 -65.9 M48.5 -66.7 L48.6 -14.5 Q37.85 -22.85 33.35 -14.35 L31.05 -15.1 29.7 -17.9 26.75 -19.2 Q29.05 -22.95 27.45 -26.9 L27.0 -27.75 32.45 -40.95 Q42.15 -40.75 42.55 -55.15 42.65 -58.1 40.0 -59.15 L43.1 -66.6 48.5 -66.7 M37.85 -62.85 L36.85 -60.1 30.85 -62.35 37.85 -62.85 M80.3 19.7 L81.95 107.55 50.15 86.15 50.1 14.65 50.55 -7.1 Q56.0 9.9 80.3 19.7 M42.85 6.65 L48.4 8.05 48.45 34.35 Q34.55 24.7 23.15 37.05 L22.85 39.45 19.9 37.05 27.0 7.75 20.4 5.65 20.95 3.7 27.0 2.9 Q28.7 9.4 35.6 9.2 L41.95 8.45 42.85 6.65 M48.45 47.5 L46.55 46.9 48.3 36.8 48.45 47.5 M15.65 57.2 L17.5 56.5 20.3 57.2 Q14.75 74.1 20.25 78.7 L20.2 79.25 20.95 79.2 Q25.15 81.85 34.55 78.7 L37.85 77.45 38.0 77.4 Q41.0 76.0 41.9 72.0 L43.75 63.1 48.3 64.3 48.45 85.7 -69.9 88.8 -56.75 64.0 -49.5 85.05 2.75 83.15 12.95 58.2 14.4 57.65 15.65 57.2 M42.3 119.85 Q35.4 136.65 40.65 154.35 L41.55 157.15 -19.6 158.1 Q-25.6 139.95 -17.4 122.55 L-15.7 118.95 42.3 119.85 M79.9 132.8 Q80.4 154.25 87.6 174.75 97.05 201.6 112.3 225.75 L77.25 285.25 66.65 263.5 81.85 236.2 Q61.6 208.65 62.45 174.5 26.9 147.3 52.2 110.0 79.1 101.15 79.9 132.8 M1.45 232.65 Q8.45 191.8 60.25 181.95 60.95 209.95 77.4 232.85 L77.85 233.45 77.45 235.3 5.45 240.55 1.45 232.65 M75.8 238.55 L62.35 262.0 -14.2 265.75 -11.2 261.95 Q16.2 260.65 75.8 238.55 M-6.65 -139.0 L-1.55 -136.2 Q-3.1 -132.55 -5.2 -133.45 -9.1 -134.6 -8.85 -136.45 -8.8 -136.9 -6.65 -139.0 M-90.4 -55.75 L-92.7 -55.7 Q-96.85 -52.6 -100.1 -49.05 -114.1 -33.85 -111.85 -10.75 L-111.4 -5.25 Q-116.7 -7.75 -120.3 -12.3 L-120.65 -12.9 Q-112.4 -51.1 -83.45 -68.45 -87.95 -65.45 -86.35 -58.3 -88.85 -57.35 -90.4 -55.75 M-90.6 2.7 Q-105.55 -25.75 -85.85 -50.3 L-83.1 -53.35 Q-91.55 -6.1 -90.6 2.7 M-68.0 -72.05 Q-71.4 -72.0 -79.55 -70.1 -81.3 -69.7 -82.55 -69.0 -76.0 -74.1 -68.1 -74.25 L-68.0 -72.05 M-113.55 12.35 Q-116.25 10.6 -117.7 7.85 L-118.6 5.8 -114.05 -4.6 Q-110.9 -2.85 -107.1 -1.45 L-113.55 12.35 M-94.6 2.85 L-93.35 4.25 -98.75 15.2 -100.25 15.4 -94.6 2.85 M-19.8 55.15 L-20.85 55.6 -21.35 54.1 -20.2 53.7 -19.8 55.15 M-18.85 53.15 L-18.35 54.65 -19.2 55.0 -19.55 53.6 Q-19.4 53.2 -18.85 53.15 M-18.3 52.95 Q-17.65 52.45 -17.1 50.2 L-7.0 49.65 -15.7 55.75 -16.85 54.55 -17.95 54.45 -18.3 52.95 M-21.5 55.75 Q-30.5 60.0 -40.05 60.05 L-40.65 58.7 Q-30.9 58.65 -21.8 54.35 L-21.5 55.75 M-36.45 55.55 Q-36.65 55.95 -36.5 56.65 -38.75 57.6 -39.3 58.3 L-40.45 58.0 Q-38.95 56.2 -36.45 55.55 M-89.45 4.8 L-89.55 4.85 -89.65 4.65 -89.45 4.8 M-90.65 6.1 L-89.75 6.6 -93.4 30.05 -94.7 27.7 Q-93.35 24.45 -90.65 6.1 M-120.8 16.4 Q-134.0 19.2 -142.6 29.85 -143.6 -1.85 -116.35 -3.75 L-120.2 6.0 -120.1 6.35 Q-118.7 10.6 -115.1 13.25 L-120.8 16.4 M-84.0 131.1 L-48.05 130.85 -46.2 132.65 Q-70.25 142.55 -86.1 163.6 -94.5 174.6 -99.55 185.35 -99.6 183.85 -99.2 183.05 -107.85 152.4 -84.0 131.1 M-47.3 118.45 L-48.5 128.0 -101.0 128.5 -99.15 117.65 -47.3 118.45 M-201.45 172.3 L-198.1 169.15 -111.8 168.35 -114.1 171.85 -201.45 172.3 M-43.75 185.25 Q-78.8 220.65 -90.05 269.15 L-121.0 186.4 -109.45 169.0 -99.25 190.85 -98.05 190.65 Q-83.35 151.1 -44.85 134.7 L-44.3 135.05 -44.05 141.4 Q-43.5 150.85 -41.05 160.15 -45.3 181.65 -44.0 185.3 L-43.75 185.25" fill="#ffffff" fill-rule="evenodd" stroke="none"/>
    <path d="M45.15 -225.65 Q58.35 -221.7 70.3 -214.85 L73.3 -213.0 72.7 -184.75 Q60.5 -192.6 46.85 -197.25 L43.65 -198.25 Q45.15 -221.45 45.15 -225.65 M85.55 -203.4 Q104.5 -186.4 105.75 -160.65 L106.0 -157.05 102.4 -155.25 86.65 -173.35 Q86.7 -176.3 85.55 -203.4 M1.9 -202.7 L1.45 -202.6 Q-9.9 -201.65 -20.55 -198.0 -17.7 -220.5 -17.65 -224.75 L-11.95 -226.3 Q-3.65 -228.55 4.8 -229.2 L1.9 -202.7 M-78.9 -146.7 L-82.9 -139.6 -82.95 -139.95 Q-83.6 -167.05 -68.5 -189.3 -73.85 -177.75 -78.9 -146.7" fill="#d19700" fill-rule="evenodd" stroke="none"/>
    <path d="M90.25 -155.7 L90.25 -155.75 Q92.95 -153.2 96.95 -146.15 L96.25 -143.95 90.25 -151.0 90.9 -154.45 90.25 -155.7 M83.4 -150.95 L83.6 -152.9 88.7 -152.75 84.4 -107.65 82.65 -106.55 83.4 -150.95 M22.85 -172.15 Q-14.3 -175.0 -49.5 -161.9 L-52.9 -162.75 Q-37.3 -169.35 -20.7 -172.8 35.7 -183.45 87.4 -158.25 L88.9 -154.4 82.75 -154.75 79.6 -156.85 Q69.5 -163.75 58.0 -166.75 40.3 -172.9 22.85 -172.15 M2.4 -187.95 L-20.8 -184.1 Q-9.9 -187.7 2.4 -187.95 M170.3 -38.85 Q130.0 -10.3 94.2 -46.25 90.7 -49.65 93.95 -52.45 131.7 -85.2 143.4 -132.85 L145.1 -131.7 Q154.5 -125.95 165.6 -125.65 129.1 -52.5 136.3 -41.5 141.4 -33.8 156.15 -35.1 165.15 -35.95 170.5 -39.05 L171.35 -39.55 170.3 -38.85 M123.05 -22.7 Q91.6 -29.1 83.7 -55.3 83.05 -57.5 85.95 -59.2 95.7 -65.45 104.3 -73.15 L103.35 -70.8 Q75.35 -48.95 104.85 -33.25 L107.5 -31.8 123.05 -22.7 M-42.05 -172.1 Q-3.25 -193.5 40.5 -184.05 60.15 -179.75 76.55 -168.0 42.9 -186.6 9.45 -183.3 -27.1 -179.6 -42.05 -172.1 M-69.0 -137.45 Q-64.2 -149.9 -55.45 -160.0 L-55.45 -158.1 Q-60.9 -153.55 -68.75 -134.45 L-69.0 -137.45 M7.45 -71.05 L-15.3 -72.35 Q-27.05 -72.15 -34.95 -69.4 L-43.25 -66.75 -55.95 -68.6 Q-25.45 -80.1 7.25 -76.1 L12.1 -75.65 Q10.95 -74.2 7.45 -71.05 M14.45 -67.8 L-37.6 -67.0 Q-14.25 -74.2 15.15 -67.9 L14.45 -67.8 M50.2 -25.1 L50.2 -27.6 50.55 -27.1 Q56.85 -6.75 77.2 -3.35 L79.8 -3.0 80.0 7.2 Q58.1 2.85 50.25 -25.05 L50.2 -25.1 M47.0 93.5 L47.15 88.0 Q48.7 87.4 51.3 89.15 L80.95 108.9 80.45 112.25 78.15 111.0 76.9 109.5 Q70.4 101.6 60.55 101.1 L47.0 93.5 M-94.05 96.6 L-95.5 92.25 44.85 88.0 44.85 93.05 -94.05 96.6 M48.45 102.2 L-31.15 103.15 44.95 100.4 48.45 102.2 M-53.75 -161.3 L-50.55 -160.5 -48.95 -124.35 -53.75 -161.3 M-106.1 -36.5 Q-107.85 -16.9 -97.25 -0.1 L-100.65 -0.95 Q-112.55 -15.0 -106.1 -36.5 M-90.6 2.7 Q-91.55 -6.1 -83.1 -53.35 L-80.7 -66.3 -78.75 -66.35 -87.5 -7.5 -88.15 -6.95 -89.45 4.8 -89.65 4.65 -90.35 4.0 -90.6 2.7 M-102.6 0.1 L-96.95 1.5 -103.25 15.4 Q-106.5 15.25 -109.2 14.4 L-102.6 0.1 M-11.5 -62.35 L-12.4 -49.75 -15.85 -49.8 -14.9 -62.45 -11.5 -62.35 M-19.2 -60.9 L-16.5 -61.0 -16.85 -55.9 Q-18.25 -54.55 -18.4 -53.2 -20.25 -54.35 -20.05 -56.6 L-19.2 -60.9 M-9.0 -53.45 Q-11.9 -55.9 -10.1 -61.05 L-7.45 -61.05 Q-6.9 -58.2 -7.7 -55.6 -8.05 -54.3 -9.0 -53.45 M-18.45 -44.4 L-16.95 -53.25 -17.0 -48.1 -11.65 -48.2 -10.7 -53.35 -8.8 -50.4 Q-0.9 -37.25 -12.25 -28.5 -15.9 -31.75 -17.35 -36.55 L-17.3 -35.9 -19.15 -35.85 -18.85 -38.35 -17.85 -38.4 -18.15 -40.0 -18.45 -44.4 M-64.8 -62.5 L-57.65 -62.3 -57.35 -61.35 -63.85 -59.15 -64.8 -62.5 M-52.7 -42.75 L-49.5 -30.3 -55.95 -28.3 -59.1 -40.6 -52.7 -42.75 M-65.5 -10.2 L-62.8 -13.7 Q-63.95 -8.55 -63.85 -3.3 -63.8 -1.25 -63.1 0.05 L-65.05 -1.5 -64.95 0.65 -66.85 1.4 -69.1 -9.2 -65.5 -10.2 M-62.65 -11.25 L-60.25 -11.95 -59.3 -1.0 -61.95 -0.1 -62.65 -11.25 M-54.85 -24.15 L-48.55 -25.8 -47.8 -23.1 -54.25 -21.2 -54.85 -24.15 M-60.1 -15.2 L-62.55 -14.0 -60.4 -16.9 -60.1 -15.2 M-58.95 -20.95 Q-53.5 -35.75 -42.4 -24.9 L-45.2 -24.05 -46.8 -26.7 -56.25 -24.1 -56.35 -20.4 -58.95 -19.6 Q-59.15 -20.35 -58.95 -20.95 M-48.4 -3.55 Q-50.0 -3.55 -50.7 -5.15 -51.3 -6.65 -50.2 -8.15 -49.15 -9.7 -47.5 -9.2 -44.8 -8.4 -45.9 -5.45 -46.65 -3.65 -48.4 -3.55 M-17.1 -34.25 L-16.25 -29.15 Q-16.9 -28.35 -19.55 -28.25 L-19.15 -34.25 -17.1 -34.25 M-16.25 -26.95 L-15.25 -28.05 Q-14.2 -26.75 -12.15 -27.0 L-12.45 -22.9 -14.95 -22.9 -16.4 -24.7 -19.85 -24.65 -19.7 -26.9 -16.25 -26.95 M-20.6 -15.75 L-17.15 -15.8 -15.45 -17.65 -13.0 -17.55 -13.45 -11.8 -15.8 -11.75 -17.3 -13.5 -20.75 -13.45 -20.6 -15.75 M-12.8 -18.9 L-16.3 -18.85 -17.9 -17.1 -20.55 -17.15 -20.0 -22.8 -17.6 -22.9 -16.05 -21.2 -12.7 -21.3 -12.8 -18.9 M-38.05 23.35 Q-38.0 25.1 -39.6 25.85 -41.55 26.85 -42.75 24.85 -43.75 22.75 -41.8 21.35 -40.85 20.55 -39.75 20.95 -38.1 21.45 -38.05 23.35 M-58.5 2.2 L-58.1 3.95 -60.55 2.0 -58.5 2.2 M-54.8 59.6 Q-59.9 40.55 -61.55 20.7 L-62.15 12.3 -57.15 10.65 -48.9 44.3 -54.8 59.6 M-78.55 38.0 L-75.5 37.9 -70.9 42.65 -71.0 46.2 -80.15 46.45 -79.75 44.4 -75.05 44.25 Q-74.15 41.05 -75.65 41.15 L-79.15 41.2 -78.55 38.0 M-65.55 47.55 Q-64.85 44.15 -62.25 40.1 L-61.95 42.0 Q-66.15 49.65 -59.45 57.75 -59.15 58.2 -58.25 58.3 L-58.0 59.9 Q-61.9 58.15 -63.8 55.75 L-65.55 47.55 M-61.35 45.25 L-59.1 55.45 -60.8 55.9 -62.95 45.7 -61.35 45.25 M-82.65 59.7 L-75.05 59.4 -75.15 56.6 -82.1 56.75 -81.75 54.9 -70.95 54.7 -71.0 74.0 -75.3 78.35 -84.25 78.7 -86.0 77.1 -85.05 72.2 -84.75 73.65 -75.0 73.35 -74.8 70.75 -84.85 71.15 -84.3 68.15 Q-83.05 68.1 -82.15 66.6 -81.0 64.2 -83.3 62.9 L-82.65 59.7 M-74.35 62.55 Q-77.2 61.85 -77.95 64.45 -78.45 66.65 -76.15 67.45 -73.9 68.25 -72.85 66.1 -71.75 63.15 -74.35 62.55 M-98.1 23.95 Q-100.65 21.75 -104.25 19.8 -108.45 17.5 -112.45 16.7 L-110.7 15.8 Q-104.35 17.85 -97.85 16.8 L-97.75 16.7 -97.15 24.5 -98.1 23.95 M-118.15 17.85 L-117.4 17.85 Q-103.65 18.4 -95.65 29.4 -95.75 31.4 -96.75 33.95 -108.4 21.3 -125.9 24.55 L-128.3 25.1 Q-122.55 19.5 -118.15 17.85 M-45.1 118.7 Q-43.55 113.0 -39.25 109.15 L-37.1 107.35 -12.95 107.1 -20.3 118.9 -45.1 118.7 M-23.75 158.55 Q-20.65 167.8 -13.45 175.85 L-29.1 175.45 Q-33.5 172.6 -36.25 166.75 -37.9 163.3 -39.1 159.0 L-23.75 158.55" fill="#525759" fill-rule="evenodd" stroke="none"/>
    <path d="M-20.55 -198.0 Q-33.6 -193.55 -45.55 -185.05 -65.15 -170.85 -78.9 -146.7 -73.85 -177.75 -68.5 -189.3 -49.35 -211.95 -22.15 -223.1 L-17.65 -224.75 Q-17.7 -220.5 -20.55 -198.0 M-20.8 -184.1 Q-27.2 -181.85 -33.25 -178.7 -61.4 -164.25 -71.85 -134.2 L-82.95 -134.9 Q-68.65 -167.8 -37.55 -185.4 2.2 -208.2 45.45 -194.1 79.55 -183.05 101.15 -154.25 L97.7 -148.55 Q90.75 -158.0 81.5 -165.6 47.0 -193.75 2.4 -187.95 -9.9 -187.7 -20.8 -184.1 M-47.55 37.85 Q-55.2 11.25 -56.9 -16.25 L-44.1 -20.4 -30.9 7.9 -29.55 7.85 -36.35 19.2 Q-49.55 16.05 -42.95 28.8 L-42.4 29.25 -47.55 37.85 M-52.05 -58.95 L-50.0 -47.35 -64.35 -43.0 -66.6 -54.45 -52.05 -58.95 M-53.95 -4.5 Q-53.35 -1.75 -50.9 -0.6 -46.15 1.75 -43.2 -3.55 -42.05 -6.1 -42.85 -8.85 -43.6 -11.55 -46.05 -12.6 -50.55 -14.3 -53.05 -10.05 -54.55 -7.3 -53.95 -4.5 M-73.1 -12.55 L-69.1 6.0 -79.05 9.35 -83.2 -9.15 -73.1 -12.55" fill="#a85b00" fill-rule="evenodd" stroke="none"/>
    <path d="M58.0 -166.75 L22.85 -172.15 Q40.3 -172.9 58.0 -166.75 M-29.25 -97.35 L-46.15 -95.05 -48.65 -160.2 -35.5 -164.7 -35.2 -162.75 -33.75 -165.1 -28.7 -166.55 Q-26.55 -164.0 -23.95 -162.1 -22.85 -161.25 -21.6 -161.1 L-22.4 -167.85 -16.6 -169.15 Q-11.75 -162.4 -13.7 -154.15 -9.55 -158.3 -9.35 -164.2 L-9.4 -165.65 -3.75 -152.9 Q-2.85 -157.15 -1.05 -161.15 -0.5 -162.5 0.55 -163.4 L1.15 -163.85 1.85 -164.0 Q0.1 -158.75 1.7 -153.75 2.25 -158.65 7.3 -157.65 L9.25 -156.7 12.65 -154.35 12.95 -156.9 Q15.5 -158.15 18.35 -156.55 L25.55 -152.85 Q25.4 -161.3 33.35 -160.2 L34.4 -159.75 Q38.25 -157.2 39.65 -152.6 41.1 -156.4 39.4 -159.9 L36.25 -165.6 Q46.25 -162.45 53.7 -155.1 L49.05 -167.1 62.75 -163.15 62.85 -158.25 66.6 -161.75 81.9 -153.25 76.65 -102.6 63.85 -87.45 55.9 -90.35 Q75.0 -111.95 68.3 -139.75 L67.4 -143.15 Q49.4 -150.15 30.2 -150.9 L25.75 -151.25 Q15.75 -151.95 5.4 -151.45 L4.2 -152.5 Q2.05 -153.55 -1.4 -151.0 L-32.85 -146.1 Q-35.45 -141.9 -36.2 -137.0 -36.55 -134.6 -36.5 -132.3 L-36.95 -131.8 -37.2 -129.0 Q-38.6 -111.85 -29.3 -97.35 L-29.25 -97.35 M39.2 -55.2 Q36.9 -48.0 35.15 -44.0 L22.05 -48.0 25.9 -59.45 39.2 -55.2 M14.35 -5.05 L15.9 -8.05 16.8 -10.05 Q18.45 -13.8 13.8 -13.7 10.5 -13.65 8.85 -10.6 9.65 2.85 14.35 -5.05 M-29.55 7.85 L-6.75 7.35 11.3 -21.3 23.05 -17.65 Q17.45 12.05 4.3 39.5 3.1 37.3 1.4 35.8 -24.65 11.95 -46.05 42.65 L-47.55 37.85 -42.4 29.25 Q-33.0 28.7 -36.0 19.9 -36.1 19.5 -36.35 19.2 L-29.55 7.85 M46.4 -11.7 Q45.85 -2.5 39.9 6.75 L32.25 4.8 29.8 3.95 36.45 -14.3 46.4 -11.7 M2.95 24.05 L4.8 23.9 Q7.25 23.8 6.9 20.4 6.6 17.5 4.05 16.5 -8.1 23.4 -0.6 24.0 -0.15 24.6 0.8 24.8 2.05 25.0 2.95 24.05 M28.75 47.35 Q28.3 46.5 28.75 45.45 L30.95 43.35 33.75 44.6 Q33.8 47.6 31.0 48.75 L28.75 47.35 M-18.8 48.1 L-19.45 51.15 -21.05 51.75 Q-27.4 41.5 -36.15 51.65 L-37.25 53.3 Q-44.05 55.55 -41.45 62.05 L-35.2 62.3 Q-26.0 67.6 -21.25 58.2 L-17.75 56.95 -15.85 58.5 -1.7 47.7 -18.8 48.1 M-16.15 29.1 Q16.75 44.4 -9.35 71.4 -21.55 84.0 -35.1 73.5 -54.25 58.7 -38.75 39.1 -30.15 28.15 -16.15 29.1" fill="#ff850d" fill-rule="evenodd" stroke="none"/>
  </g>
</svg>
