<?xml version="1.0" encoding="UTF-8" standalone="no"?>
<svg xmlns:xlink="http://www.w3.org/1999/xlink" height="294.0px" width="367.0px" xmlns="http://www.w3.org/2000/svg">
  <g transform="matrix(1.0, 0.0, 0.0, 1.0, -15.0, -94.0)">
    <path d="M381.45 220.5 L381.5 220.5 381.45 220.55 381.45 220.5" fill="#333333" fill-rule="evenodd" stroke="none"/>
    <path d="M381.45 220.55 L374.9 347.95 211.15 360.65 211.1 360.65 212.35 359.65 213.55 358.65 365.5 233.7 381.0 220.25 381.5 219.85 381.45 220.5 381.45 220.55 M212.35 359.65 L211.15 360.65 212.35 359.65" fill="#202020" fill-rule="evenodd" stroke="none"/>
    <path d="M211.15 360.65 L178.5 387.5 15.5 377.5 33.5 132.5 109.5 94.5 138.5 108.5 381.0 220.25 365.5 233.7 213.55 358.65 212.35 359.65 211.1 360.65 211.15 360.65 M138.5 108.5 Q119.95 100.0 119.1 100.4 118.25 100.8 89.85 116.35 L53.75 136.0 Q54.2 142.8 51.35 164.1 48.45 185.35 49.1 187.05 49.75 188.7 50.25 191.5 51.45 194.25 55.0 194.25 62.6 194.25 74.4 182.15 80.1 176.05 82.55 173.8 86.55 170.0 88.75 170.0 90.0 170.0 92.9 171.25 95.75 172.5 97.0 172.5 100.85 172.5 103.25 167.6 L105.25 161.75 Q105.85 160.2 114.05 155.6 L124.75 149.75 Q128.8 147.25 140.9 138.4 151.6 130.6 154.05 128.05 L156.5 128.5 Q159.35 128.5 161.05 126.75 162.5 125.15 162.5 123.0 151.05 114.8 138.5 108.5 M47.8 190.7 L46.5 191.5 47.8 190.7 M128.0 238.75 L121.8 239.1 Q120.15 239.15 112.75 233.35 L103.3 225.7 Q99.4 222.9 86.6 215.1 75.3 208.2 72.05 206.95 71.85 205.3 71.5 204.5 70.4 201.85 68.15 200.95 L64.15 201.05 Q60.95 214.75 59.9 228.75 59.15 249.15 59.85 249.8 L85.8 270.7 117.7 296.5 Q124.85 299.95 152.75 312.55 180.65 325.15 180.5 307.3 L180.45 307.3 Q187.05 305.15 196.15 295.8 201.85 289.7 204.3 287.45 208.3 283.65 210.5 283.65 211.75 283.65 214.65 284.9 217.5 286.15 218.75 286.15 222.6 286.15 225.0 281.25 L227.0 275.4 Q227.6 273.85 235.8 269.25 L246.5 263.4 262.65 252.05 Q273.35 244.25 275.8 241.7 L278.25 242.15 Q281.1 242.15 282.8 240.4 284.25 238.8 284.25 236.65 272.8 228.45 260.25 222.15 241.7 213.65 240.85 214.05 240.0 214.45 211.6 230.0 L175.5 249.65 Q171.25 253.45 160.95 263.75 157.3 261.75 152.45 259.8 L141.6 255.45 Q136.55 253.2 135.75 251.2 135.25 250.05 135.3 246.9 135.35 243.75 134.9 242.6 133.4 239.05 128.0 238.75" fill="#6c6c6c" fill-rule="evenodd" stroke="none"/>
    <path d="M138.5 108.5 Q151.05 114.8 162.5 123.0 162.5 125.15 161.05 126.75 159.35 128.5 156.5 128.5 L154.05 128.05 Q151.6 130.6 140.9 138.4 128.8 147.25 124.75 149.75 L114.05 155.6 Q105.85 160.2 105.25 161.75 L103.25 167.6 Q100.85 172.5 97.0 172.5 95.75 172.5 92.9 171.25 90.0 170.0 88.75 170.0 86.55 170.0 82.55 173.8 80.1 176.05 74.4 182.15 62.6 194.25 55.0 194.25 51.45 194.25 50.25 191.5 49.75 188.7 49.1 187.05 48.45 185.35 51.35 164.1 54.2 142.8 53.75 136.0 L89.85 116.35 Q118.25 100.8 119.1 100.4 119.95 100.0 138.5 108.5 M128.0 238.75 Q133.4 239.05 134.9 242.6 135.35 243.75 135.3 246.9 135.25 250.05 135.75 251.2 136.55 253.2 141.6 255.45 L152.45 259.8 Q157.3 261.75 160.95 263.75 171.25 253.45 175.5 249.65 L211.6 230.0 Q240.0 214.45 240.85 214.05 241.7 213.65 260.25 222.15 272.8 228.45 284.25 236.65 284.25 238.8 282.8 240.4 281.1 242.15 278.25 242.15 L275.8 241.7 Q273.35 244.25 262.65 252.05 L246.5 263.4 235.8 269.25 Q227.6 273.85 227.0 275.4 L225.0 281.25 Q222.6 286.15 218.75 286.15 217.5 286.15 214.65 284.9 211.75 283.65 210.5 283.65 208.3 283.65 204.3 287.45 201.85 289.7 196.15 295.8 187.05 305.15 180.45 307.3 L180.5 307.3 Q180.65 325.15 152.75 312.55 124.85 299.95 117.7 296.5 L85.8 270.7 59.85 249.8 Q59.15 249.15 59.9 228.75 60.95 214.75 64.15 201.05 L68.15 200.95 Q70.4 201.85 71.5 204.5 71.85 205.3 72.05 206.95 75.3 208.2 86.6 215.1 99.4 222.9 103.3 225.7 L112.75 233.35 Q120.15 239.15 121.8 239.1 L128.0 238.75" fill="#3c3c3c" fill-rule="evenodd" stroke="none"/>
    <path d="M381.45 220.5 L381.5 220.5 381.45 220.55 374.9 347.95 211.15 360.65 178.5 387.5 15.5 377.5 33.5 132.5 109.5 94.5 138.5 108.5 381.0 220.25 381.5 219.85 381.45 220.5 381.45 220.55 M211.15 360.65 L211.1 360.65 212.35 359.65 213.55 358.65 365.5 233.7 381.0 220.25 M211.15 360.65 L212.35 359.65" fill="none" stroke="#000000" stroke-linecap="round" stroke-linejoin="round" stroke-width="1.0"/>
    <path d="M46.5 191.5 L47.8 190.7" fill="none" stroke="#ffffff" stroke-linecap="round" stroke-linejoin="round" stroke-opacity="0.0" stroke-width="1.0"/>
  </g>
</svg>
