<?xml version="1.0" encoding="UTF-8" standalone="no"?>
<svg xmlns:xlink="http://www.w3.org/1999/xlink" height="460.4px" width="288.75px" xmlns="http://www.w3.org/2000/svg">
  <g transform="matrix(1.0, 0.0, 0.0, 1.0, 144.0, 230.05)">
    <path d="M11.8 -216.55 L11.85 -216.0 4.3 -217.15 11.8 -216.55 M35.35 -210.15 Q64.2 -194.25 70.35 -161.5 L68.75 -163.7 Q56.2 -179.85 36.95 -187.0 36.2 -190.85 35.35 -210.15 M-0.7 -217.15 L2.15 -194.85 3.7 -194.55 -0.8 -194.85 Q-4.4 -194.85 -17.15 -192.6 L-19.3 -215.2 Q-12.45 -216.5 -5.25 -217.0 L-0.7 -217.15 M-54.5 -195.35 L-56.45 -176.25 Q-63.75 -170.65 -69.3 -163.25 -64.6 -184.25 -55.15 -194.85 L-54.5 -195.35" fill="#d19700" fill-rule="evenodd" stroke="none"/>
    <path d="M11.8 -216.55 L4.3 -217.15 -0.7 -217.15 -5.25 -217.0 Q-12.45 -216.5 -19.3 -215.2 -37.4 -211.25 -50.1 -199.0 L-54.5 -195.35 -55.15 -194.85 Q-64.6 -184.25 -69.3 -163.25 -63.75 -170.65 -56.45 -176.25 L-52.3 -179.05 Q-36.15 -189.55 -17.15 -192.6 -4.4 -194.85 -0.8 -194.85 L3.7 -194.55 26.0 -190.35 26.25 -190.25 Q31.9 -188.8 36.95 -187.0 56.2 -179.85 68.75 -163.7 L70.35 -161.5 Q64.2 -194.25 35.35 -210.15 30.25 -212.6 23.75 -214.2 L11.8 -216.55 M52.05 -154.7 L57.3 -156.6 59.15 -157.35 Q35.7 -177.6 3.35 -177.7 L-1.7 -178.0 Q-12.45 -177.2 -23.0 -175.3 -37.4 -172.5 -47.55 -166.7 -54.35 -162.85 -59.25 -157.65 L-58.05 -157.15 Q-31.8 -146.3 -3.4 -145.8 25.15 -145.25 52.05 -154.7 M66.0 -145.15 L65.9 -146.35 Q65.7 -150.6 62.7 -153.2 L62.6 -150.5 62.2 -144.45 Q60.7 -124.4 55.6 -104.5 27.55 -86.2 -0.2 -86.2 -23.85 -86.2 -44.8 -97.1 -55.7 -103.0 -56.3 -104.2 L-57.8 -109.5 Q-62.0 -126.45 -63.0 -150.85 L-63.05 -152.75 Q-64.4 -150.45 -65.3 -147.85 -66.15 -144.45 -66.0 -139.85 -64.7 -115.65 -54.35 -94.85 L-52.45 -85.9 Q-48.85 -83.8 -45.15 -82.05 -43.2 -80.7 -40.7 -79.75 -14.1 -69.3 14.25 -72.4 36.6 -74.9 56.2 -85.9 63.05 -112.55 65.65 -139.85 L66.0 -145.15 M61.15 -152.4 Q61.2 -155.35 60.9 -156.15 60.5 -156.35 58.35 -155.55 L56.2 -154.7 Q56.2 -139.35 51.75 -122.2 50.55 -115.8 49.5 -113.25 30.05 -99.35 5.2 -97.55 -24.85 -95.3 -50.1 -111.0 -50.7 -112.2 -52.45 -120.75 -55.7 -136.4 -55.4 -154.7 L-57.4 -155.75 -58.75 -156.45 -59.85 -157.05 -60.1 -155.05 -60.8 -154.15 -60.15 -154.3 Q-62.8 -129.7 -55.25 -104.8 -30.0 -88.25 0.1 -88.15 30.1 -88.1 54.15 -105.4 56.9 -119.65 59.05 -133.95 60.4 -143.15 61.15 -152.4 M24.0 -141.85 Q31.4 -138.05 26.8 -130.95 25.0 -128.2 21.55 -129.0 10.45 -131.0 17.05 -140.7 16.4 -140.6 16.0 -140.05 L14.7 -139.25 11.6 -139.65 11.2 -140.0 9.55 -141.4 7.75 -144.05 -4.65 -143.75 -6.95 -139.45 Q-7.55 -138.35 -9.1 -138.1 L-10.75 -138.0 -13.3 -139.55 Q-10.2 -133.45 -15.9 -129.8 -17.6 -128.7 -19.35 -129.15 -29.75 -132.05 -24.35 -141.45 -22.85 -142.5 -20.3 -142.9 L-19.95 -142.95 Q-28.65 -146.75 -36.5 -147.0 L-36.25 -148.8 Q-47.45 -151.45 -54.55 -154.7 -54.55 -134.9 -49.2 -111.6 L-46.0 -109.8 Q-21.65 -96.55 5.9 -100.7 9.4 -101.3 12.95 -100.05 L45.25 -111.4 48.2 -113.05 Q54.15 -133.1 55.3 -154.1 L39.65 -149.4 39.95 -146.45 38.35 -146.75 Q32.0 -147.2 26.1 -145.15 23.1 -144.1 19.35 -142.0 L20.45 -142.3 24.0 -141.85 M22.25 -135.2 Q24.3 -135.8 23.7 -138.45 23.1 -140.8 21.35 -140.8 17.8 -140.5 18.7 -137.55 19.6 -134.3 22.25 -135.2 M13.15 -108.35 L12.05 -108.55 2.45 -109.55 1.2 -109.6 -4.45 -109.45 Q-9.0 -109.6 -11.15 -108.7 L-11.25 -108.65 -12.25 -108.5 -14.3 -108.1 -15.45 -107.85 -15.8 -107.75 -16.05 -107.7 -15.6 -106.75 -15.35 -106.1 -16.65 -106.2 -16.9 -106.25 -16.95 -106.25 -17.8 -106.4 -18.5 -106.75 -18.55 -106.8 -19.05 -107.45 -16.75 -108.4 -16.25 -108.6 Q-7.65 -111.8 1.1 -111.5 L9.85 -110.35 11.75 -109.9 14.95 -108.9 15.0 -108.9 15.1 -108.85 16.75 -108.25 17.9 -107.8 19.25 -107.25 21.25 -106.35 18.75 -107.1 16.8 -107.6 15.75 -107.8 14.35 -108.1 13.2 -108.35 13.15 -108.35 M39.95 -110.7 Q41.15 -115.4 39.65 -130.2 41.15 -132.25 42.6 -131.05 40.85 -127.25 41.45 -120.15 42.0 -111.3 39.95 -110.7 M-92.05 81.75 L-92.7 80.95 Q-113.7 69.75 -126.85 88.25 -129.4 91.8 -127.6 95.75 -123.3 105.2 -123.2 115.5 -123.2 118.75 -126.15 117.2 -135.45 112.15 -139.65 102.2 -148.7 80.7 -138.9 60.65 -135.55 53.7 -128.95 49.65 -132.7 19.45 -119.05 -8.5 -101.7 -44.05 -75.3 -73.05 -74.05 -74.45 -72.25 -75.2 -66.25 -77.65 -59.55 -77.05 L-57.8 -81.75 Q-67.4 -107.6 -69.9 -135.8 L-74.9 -139.65 Q-79.05 -173.0 -58.3 -199.35 -51.5 -208.0 -42.85 -214.75 -7.9 -241.95 31.8 -220.8 48.9 -211.6 60.55 -195.75 78.1 -171.95 75.55 -142.25 75.15 -137.8 70.35 -135.8 67.55 -110.6 60.1 -86.75 59.15 -83.8 57.1 -81.15 L58.55 -77.35 Q78.8 -77.7 89.1 -59.5 96.25 -46.85 104.5 -34.9 124.2 -6.4 129.55 27.55 131.35 38.85 128.85 49.65 151.25 67.25 142.05 94.6 139.2 103.05 134.95 110.7 130.6 118.55 123.35 117.05 121.75 116.55 122.0 114.7 123.6 102.95 128.25 92.15 121.55 75.4 103.3 76.7 96.4 77.2 91.35 82.1 96.45 89.7 100.0 97.1 100.5 98.15 100.4 99.5 99.55 109.85 95.45 118.75 90.5 118.6 86.55 115.2 80.05 109.65 75.4 102.5 L75.7 170.7 91.65 185.45 Q93.25 207.9 91.05 230.35 L12.2 230.35 10.0 230.35 8.05 230.3 2.85 229.9 Q2.2 229.8 1.85 229.4 L1.55 214.7 1.55 116.65 1.55 110.15 1.55 109.3 -1.4 109.3 -1.4 110.15 -1.4 116.65 -1.7 215.0 Q-1.7 228.6 -2.25 229.45 -3.15 230.35 -12.9 230.35 L-91.45 230.35 Q-92.05 228.6 -92.05 219.45 L-92.05 196.7 Q-92.05 186.35 -91.75 185.45 L-75.8 171.0 -75.8 118.45 Q-75.8 104.55 -75.2 101.9 L-74.6 101.4 -74.3 101.15 -71.35 99.25 -55.55 99.1 -8.2 98.95 -8.2 96.9 -8.2 86.25 -8.2 63.5 -8.2 52.3 -71.65 52.6 -71.85 63.5 -72.3 86.25 -72.5 96.9 -72.55 98.65 -72.85 98.95 -74.3 100.3 -74.6 100.5 -75.8 101.3 Q-80.75 113.3 -92.95 118.25 L-94.25 118.35 Q-100.5 108.0 -100.9 95.7 -95.35 89.9 -92.0 82.6 L-91.75 82.1 -92.05 81.75 M65.25 -152.3 Q67.9 -146.75 68.2 -140.65 L68.8 -141.1 70.95 -142.0 Q68.5 -174.05 37.9 -185.45 10.4 -195.8 -18.5 -190.9 -47.7 -185.75 -65.75 -163.45 -75.3 -151.7 -68.1 -140.25 -63.95 -165.2 -38.4 -172.9 -28.3 -176.05 -18.0 -177.6 9.4 -182.25 35.5 -173.65 53.6 -167.55 65.25 -152.3 M52.15 -79.05 L49.7 -79.4 47.45 -74.6 Q52.0 -63.9 42.15 -59.05 L41.7 -59.05 37.9 -48.4 Q39.95 -45.5 38.6 -42.3 L38.2 -41.6 Q41.8 -40.85 44.1 -37.75 L47.05 -40.4 Q53.4 -40.15 58.55 -37.45 L60.35 -19.75 54.15 -21.25 Q46.9 -16.1 40.25 -23.65 40.0 -23.85 39.95 -24.2 L34.35 -22.7 40.25 -20.35 Q39.05 -9.0 36.1 1.8 L38.75 3.0 Q39.1 0.0 41.95 -0.3 50.2 -1.3 58.5 -0.65 61.05 -0.6 60.8 2.15 L60.05 10.05 63.0 10.95 63.0 23.35 58.55 22.2 57.1 33.7 Q55.3 35.15 55.6 35.45 L73.5 35.45 54.4 -78.8 52.15 -79.05 M44.35 -75.05 L44.95 -77.05 44.5 -76.5 44.35 -75.05 M95.6 29.9 Q110.95 24.45 124.15 33.9 L124.85 34.2 125.3 34.0 Q117.2 -12.45 88.65 -50.95 85.8 -54.8 83.1 -59.1 77.65 -67.8 68.0 -70.75 62.55 -72.45 56.8 -72.0 L56.9 -71.5 58.25 -63.4 68.0 -5.85 77.5 -10.15 79.8 -11.2 77.85 -9.35 Q73.45 -6.25 68.3 -4.7 71.1 20.45 79.45 44.2 L79.75 43.0 Q80.6 40.15 82.6 37.75 L86.6 34.15 Q87.4 33.55 88.35 33.05 90.2 31.95 92.4 31.05 L95.6 29.9 M34.7 -64.0 L44.1 -61.7 46.75 -70.85 44.95 -71.3 34.65 -73.8 32.0 -64.65 34.6 -64.0 34.7 -64.0 M30.2 -60.85 Q29.0 -67.75 31.7 -74.4 20.05 -71.2 8.05 -70.55 L6.3 -66.4 7.4 -64.85 Q12.0 -58.65 11.25 -51.1 10.1 -48.95 7.9 -48.0 L6.0 -47.2 6.3 -23.6 9.85 -23.6 Q22.6 -41.2 30.2 -60.85 M8.95 -53.0 Q7.35 -61.2 2.45 -68.2 L2.45 -64.35 -2.85 -64.65 0.5 -52.0 Q3.4 -46.6 8.65 -51.65 L8.95 -53.0 M4.8 -69.95 L3.05 -69.95 3.65 -68.75 Q4.8 -69.35 4.8 -69.95 M1.25 -65.8 L1.0 -70.25 -1.7 -70.55 -1.7 -65.8 1.25 -65.8 M29.05 -33.95 Q27.25 -34.8 26.05 -34.2 L25.2 -31.85 Q25.5 -29.5 28.15 -30.7 30.5 -31.55 29.05 -33.95 M36.1 -43.1 L37.9 -42.8 Q39.95 -48.1 32.55 -49.6 24.9 -51.35 24.3 -46.05 L26.35 -45.45 Q25.5 -48.7 30.8 -48.1 36.1 -47.2 36.4 -45.45 L36.1 -43.1 M37.9 -40.7 L37.9 -39.25 Q39.3 -39.3 39.6 -38.15 42.25 -28.25 34.95 -24.75 L35.3 -24.0 Q38.2 -23.15 39.7 -26.0 44.95 -35.85 37.9 -40.7 M34.95 -40.4 L24.6 -43.1 18.1 -31.55 Q13.95 -24.5 10.7 -20.95 L-9.65 -20.65 Q-12.9 -24.2 -17.05 -31.25 L-24.1 -42.5 -34.15 -39.25 Q-30.05 -16.8 -20.0 5.05 -11.15 -10.3 6.3 -7.35 16.65 -5.6 23.1 3.55 32.25 -19.45 34.95 -40.4 M28.45 -27.75 Q22.55 -25.95 21.95 -31.85 21.35 -37.75 27.55 -37.75 31.4 -37.75 32.0 -34.8 34.05 -29.2 28.45 -27.75 M3.65 -25.05 L3.65 -26.55 -2.55 -28.0 -2.55 -24.2 3.65 -25.05 M3.65 -33.35 L3.65 -34.8 Q2.0 -34.1 0.3 -34.85 L-2.85 -36.0 -2.55 -31.85 3.65 -33.35 M3.65 -31.85 Q2.05 -32.1 0.85 -31.1 -0.65 -29.95 -2.55 -30.7 L-2.55 -28.9 3.65 -28.0 3.65 -31.85 M3.35 -43.1 L0.7 -43.1 Q-1.1 -44.85 -2.85 -44.25 L-2.85 -40.15 Q-1.7 -39.85 0.1 -40.7 1.85 -41.9 3.35 -41.3 L3.35 -43.1 M3.35 -40.15 Q1.85 -40.4 0.4 -39.25 -1.1 -38.05 -2.85 -38.65 -3.15 -38.05 -2.85 -37.15 L0.1 -37.15 Q1.0 -35.1 3.65 -36.3 L3.35 -40.15 M0.4 -45.15 Q1.85 -44.25 3.35 -44.55 L3.35 -47.8 -2.85 -47.8 -2.85 -45.75 Q-1.1 -46.35 0.4 -45.15 M19.6 -5.0 Q15.15 -4.4 14.55 -8.85 13.95 -13.25 18.4 -14.15 23.7 -15.05 24.0 -10.0 24.3 -5.3 19.6 -5.0 M37.3 -18.3 L33.45 -19.45 Q30.15 -5.7 24.3 7.1 29.0 21.75 16.45 30.5 13.15 32.8 9.25 34.3 L23.1 34.0 Q33.9 8.8 37.3 -18.3 M18.4 -10.9 Q15.45 -8.85 18.4 -7.65 21.35 -7.35 21.35 -9.7 21.05 -12.65 18.4 -10.9 M56.5 -35.4 L47.05 -37.75 42.6 -23.3 51.75 -21.25 56.5 -35.4 M96.0 30.8 L94.15 31.4 Q80.5 35.65 81.05 49.1 81.55 50.9 82.75 52.6 85.7 55.85 86.6 55.55 L88.95 52.9 88.75 50.4 88.75 49.65 Q89.55 44.8 94.05 42.05 108.6 33.75 117.55 46.0 L118.5 47.85 123.2 49.65 Q129.15 37.05 115.05 31.3 105.7 27.45 96.0 30.8 M91.9 44.95 L90.95 45.6 90.55 46.7 Q89.85 48.85 90.45 51.7 96.25 47.6 103.05 46.55 109.9 45.8 116.7 47.3 L116.35 46.3 Q110.45 36.8 100.2 40.2 L91.9 44.95 M102.85 56.95 L103.15 57.3 Q97.6 60.3 99.05 66.0 100.15 70.25 103.5 72.45 L103.75 72.4 Q119.85 71.7 129.0 85.8 L132.35 92.15 Q137.7 83.65 134.8 74.15 133.9 71.3 132.35 68.85 140.2 80.1 133.55 92.75 147.8 72.85 129.15 56.6 111.5 41.3 91.0 53.1 L90.6 53.35 Q74.35 70.15 88.4 89.05 91.5 93.15 96.05 95.7 79.5 81.85 92.0 64.4 L92.3 64.0 97.95 58.85 Q100.45 57.7 102.85 56.95 M132.55 69.4 L131.6 67.85 132.35 68.85 132.55 69.4 M121.9 58.85 Q114.85 55.3 105.05 56.4 114.15 54.35 121.9 58.85 M134.15 94.25 L130.9 96.9 127.65 110.45 Q135.95 102.4 137.4 90.4 L134.15 94.25 M47.35 3.0 Q47.35 1.5 47.65 0.9 L43.8 1.2 Q41.45 1.2 41.45 3.0 L47.35 3.0 M55.6 9.5 L52.95 9.5 53.5 5.95 Q54.75 5.05 56.2 5.95 L55.6 9.5 M51.75 2.7 L51.75 0.9 48.8 0.9 48.5 3.0 51.75 2.7 M58.25 2.7 L58.25 1.2 Q52.35 1.2 52.95 3.0 L58.25 2.7 M46.75 10.65 Q48.8 10.35 48.5 8.6 48.2 7.1 46.45 7.1 44.1 7.4 44.4 9.8 44.95 11.25 46.75 10.65 M45.55 15.1 Q53.0 17.85 45.55 21.3 39.85 20.85 43.1 15.85 44.0 14.45 45.55 15.1 M48.65 6.1 Q52.2 7.75 48.55 10.65 42.6 15.35 42.9 7.7 45.1 4.5 48.65 6.1 M59.75 12.45 Q59.45 13.6 60.05 13.6 L60.05 13.3 Q60.1 14.75 60.35 14.2 60.35 13.3 60.6 13.0 L59.75 12.45 M57.95 4.15 L41.45 4.15 39.35 33.7 54.15 33.7 57.95 4.15 M55.3 15.4 L52.35 15.1 Q51.75 9.8 55.6 11.55 L55.3 15.4 M52.35 17.15 L55.0 17.45 54.4 21.0 51.75 20.7 52.35 17.15 M43.2 30.15 L48.2 30.15 52.35 30.75 Q52.05 31.9 48.2 31.9 L42.3 31.65 Q42.0 30.75 43.2 30.15 M50.0 27.5 Q44.7 28.1 42.6 27.5 42.6 26.6 43.2 26.0 L52.65 26.3 Q52.95 27.5 50.0 27.5 M69.75 44.9 L69.75 37.25 -70.8 37.25 -71.05 44.9 -71.05 51.1 69.75 51.1 69.75 44.9 M35.75 6.6 L36.5 6.7 35.25 6.25 34.95 8.3 35.75 6.6 M38.5 4.45 Q36.4 2.4 35.8 3.3 37.9 5.95 37.6 7.4 L34.95 15.4 32.0 17.45 Q34.05 18.05 35.25 16.0 35.8 15.1 38.5 4.45 M13.65 11.55 Q13.95 10.95 13.4 10.95 L5.4 11.55 Q5.7 12.45 5.1 12.75 4.5 13.3 4.5 13.9 L7.2 15.4 13.65 11.55 M34.65 17.45 Q32.85 18.65 31.4 18.35 L24.9 35.75 38.75 35.75 Q36.7 35.7 36.7 30.45 L37.9 17.15 Q36.4 16.55 34.65 17.45 M7.2 17.75 L5.4 16.55 Q-0.65 23.3 -8.35 20.3 L-9.05 19.8 Q-16.25 22.1 -14.0 15.1 -13.5 13.6 -11.7 13.3 -6.7 5.2 1.2 11.0 L2.45 12.45 3.65 9.8 18.4 9.5 7.2 17.75 M3.05 13.9 L2.45 13.9 2.45 15.4 3.35 15.1 Q3.05 14.5 3.05 13.9 M4.5 14.8 L4.45 14.25 Q4.35 13.6 3.95 13.6 3.65 14.8 4.5 14.8 M2.15 15.4 Q1.85 14.2 1.0 14.5 -8.45 17.45 -13.5 17.45 -13.2 19.2 -9.65 18.35 L2.15 15.4 M2.95 32.0 Q19.85 31.5 22.55 14.8 18.45 -6.75 -3.35 -2.5 -20.35 0.7 -16.4 17.5 -12.95 32.45 2.95 32.0 M6.35 71.8 L6.45 64.45 6.6 52.3 -7.0 52.3 -7.0 64.7 -7.0 71.8 -7.0 83.0 -7.0 87.2 -7.0 96.9 -7.0 98.65 -5.9 98.95 Q-3.75 100.05 -3.75 104.85 L3.65 104.85 Q2.75 101.9 3.95 99.55 5.7 99.55 6.0 98.95 L6.05 96.9 6.15 87.45 6.2 83.0 6.35 71.8 M70.85 63.5 L70.65 52.6 7.6 52.6 7.75 63.5 7.75 86.25 7.75 96.9 7.75 98.95 71.55 98.95 71.5 96.9 71.3 86.25 70.85 63.5 M74.2 45.2 L75.1 73.25 81.6 57.6 74.2 45.2 M71.55 116.65 L71.55 110.15 71.55 100.45 5.3 101.05 5.75 110.15 5.75 116.65 6.0 172.75 71.55 172.75 71.55 116.65 M5.8 174.25 L5.7 186.65 86.1 186.7 71.55 173.95 5.8 174.25 M81.0 102.2 Q83.95 108.4 93.1 113.4 L95.75 98.05 Q81.0 88.05 79.8 72.4 74.2 89.2 81.0 102.2 M83.95 225.9 L87.5 225.9 87.5 187.85 5.8 188.15 5.7 225.9 9.2 225.9 83.95 225.9 M-22.9 -217.55 Q-30.7 -214.75 -37.7 -209.95 -3.55 -226.35 32.25 -213.15 5.45 -227.75 -22.9 -217.55 M-16.8 -140.25 Q-17.45 -141.95 -20.6 -141.1 L-21.1 -140.85 Q-22.45 -140.05 -21.7 -138.85 -17.8 -132.55 -16.8 -140.25 M-38.3 -130.5 Q-36.5 -132.25 -35.65 -129.6 -36.5 -113.65 -35.65 -110.4 -38.0 -111.0 -37.1 -117.5 -36.5 -125.45 -38.3 -130.5 M-58.15 -68.25 L-57.5 -72.0 Q-72.9 -74.4 -81.2 -60.85 L-82.6 -58.75 -105.9 -22.7 Q-115.0 -8.65 -119.7 7.35 -123.75 21.3 -125.7 35.75 -114.85 26.2 -100.25 28.8 -95.0 29.7 -90.25 32.2 L-90.0 32.35 Q-82.25 36.75 -79.05 43.75 -73.15 25.45 -69.0 -5.0 -73.9 -6.5 -76.5 -8.35 L-78.45 -10.35 -75.85 -9.15 Q-70.65 -6.65 -68.7 -6.15 L-59.5 -60.05 -58.15 -68.25 M-39.9 -74.4 L-39.2 -74.95 -43.9 -74.7 -39.9 -74.4 M-36.45 -61.95 L-31.5 -63.45 -34.45 -72.3 -46.15 -68.5 -45.5 -66.5 -43.3 -59.9 -39.6 -61.0 -36.45 -61.95 M-5.9 -47.9 L-6.4 -66.1 Q-8.2 -67.3 -8.75 -70.85 L-31.8 -74.1 -29.15 -67.0 Q-27.95 -62.25 -30.3 -60.2 L-27.35 -52.85 -26.5 -50.75 Q-22.05 -48.4 -22.05 -44.55 L-12.0 -28.3 Q-8.2 -22.4 -5.25 -23.3 L-5.9 -47.9 M-36.2 -58.3 L-33.3 -59.05 -31.5 -55.5 -33.3 -59.6 -36.65 -58.6 -36.2 -58.3 M-4.35 -68.45 Q-4.35 -69.3 -3.5 -70.45 L-5.8 -70.3 Q-5.7 -69.0 -4.35 -68.45 M-48.4 -69.6 Q-48.3 -71.4 -47.45 -72.0 -49.5 -77.05 -49.8 -78.5 L-45.95 -78.8 -54.85 -78.5 -54.95 -77.75 -69.55 7.6 -74.3 35.15 -73.6 35.15 -19.4 35.75 -27.65 18.35 -31.05 18.05 -32.7 17.45 -36.5 18.35 -35.35 28.4 -39.75 32.8 -48.65 32.8 -54.55 28.4 -55.4 23.05 -61.05 23.95 -61.05 11.55 -56.0 10.35 -57.7 9.8 -58.65 4.15 -53.95 -0.85 Q-48.45 -0.6 -43.2 0.75 -39.15 1.7 -38.0 5.95 L-37.15 5.9 -33.85 2.4 -39.2 -19.45 -32.7 -21.8 -33.3 -23.0 -40.05 -23.3 -40.35 -20.65 Q-47.05 -14.75 -54.25 -19.45 L-60.15 -18.55 -58.2 -35.55 -53.4 -37.5 Q-48.6 -39.3 -44.5 -36.6 -42.4 -36.55 -40.85 -38.25 -39.35 -39.75 -37.4 -40.4 L-37.4 -41.45 -36.8 -41.6 -37.5 -44.25 Q-37.8 -46.0 -37.1 -47.8 L-41.6 -57.2 -41.9 -57.3 Q-48.9 -61.25 -48.4 -69.6 M-1.4 -53.4 Q-3.15 -53.7 -3.15 -51.95 L-3.15 -48.7 Q-0.5 -48.7 -0.5 -49.6 L-1.4 -53.4 M-2.25 -56.65 L-3.45 -56.35 -3.15 -54.6 -2.25 -54.6 Q-2.55 -55.8 -2.25 -56.65 M-3.45 -60.5 L-3.45 -58.75 Q-3.45 -57.85 -2.85 -57.85 -2.85 -59.05 -3.45 -60.5 M-44.8 -73.5 Q-44.5 -72.9 -41.85 -73.8 L-43.3 -73.5 -44.8 -73.5 M-47.75 -36.3 L-56.0 -33.65 -51.3 -19.75 -42.75 -22.1 -47.75 -36.3 M-24.1 -45.45 Q-23.25 -45.75 -22.95 -46.05 -23.85 -49.85 -29.15 -49.3 -33.55 -48.7 -36.5 -46.35 -37.4 -41.3 -34.75 -42.2 -35.35 -43.4 -35.05 -44.55 L-29.45 -47.2 Q-25.3 -48.1 -24.1 -45.45 M-27.35 -44.85 Q-27.95 -46.6 -28.25 -46.05 L-27.65 -44.85 -32.4 -43.1 -27.35 -44.85 M-37.1 -39.25 Q-39.4 -39.2 -39.75 -37.15 -41.45 -27.2 -34.55 -24.7 -43.15 -30.65 -37.1 -39.25 M-25.0 -36.9 Q-20.9 -34.8 -20.9 -31.25 -20.9 -26.85 -25.6 -26.85 -30.05 -26.55 -31.2 -30.4 -33.0 -37.45 -25.0 -36.9 M-18.8 -9.1 Q-19.1 -6.45 -16.45 -7.05 -13.8 -7.65 -14.95 -9.7 -15.85 -10.9 -16.75 -10.6 -18.5 -10.6 -18.8 -9.1 M-32.1 -18.55 L-35.95 -17.4 Q-30.7 9.85 -17.35 34.3 L-4.35 34.0 Q-20.1 30.2 -21.25 14.5 -21.45 11.55 -22.3 9.0 -26.65 -4.7 -32.1 -18.55 M-24.7 -32.75 Q-26.5 -34.8 -27.95 -32.75 -28.25 -29.5 -25.0 -29.5 -22.65 -30.7 -24.7 -32.75 M-12.0 -8.25 Q-12.3 -3.8 -17.05 -4.4 -21.75 -5.0 -21.75 -9.4 -21.75 -12.95 -17.35 -13.55 -11.15 -13.55 -12.0 -8.25 M-10.55 15.1 Q-13.2 15.7 -13.5 16.85 -10.85 16.85 -10.55 15.1 M-5.8 10.35 Q-11.15 11.25 -9.65 16.25 L0.4 13.9 Q-0.2 9.5 -5.8 10.35 M-7.6 18.65 Q-5.8 20.4 -2.85 19.5 0.4 18.65 0.1 16.85 L-7.6 18.65 M-34.45 5.65 L-33.85 4.75 Q-33.0 4.45 -33.3 3.55 -33.55 3.3 -34.15 3.3 -35.95 5.95 -34.15 10.35 L-31.2 17.15 -28.55 17.75 Q-31.8 16.55 -34.45 5.65 M-30.3 13.0 L-30.05 14.2 Q-30.6 14.2 -30.6 14.5 -30.3 14.8 -29.75 14.5 -30.05 13.3 -30.3 13.0 M-37.4 8.3 Q-37.4 9.5 -37.1 9.5 L-37.1 8.6 -36.65 8.45 -37.4 8.3 M-41.25 25.15 Q-40.65 26.3 -40.95 27.2 L-49.2 27.2 -49.5 25.15 -41.25 25.15 M-50.4 19.2 Q-47.45 18.65 -47.45 21.3 -47.45 25.15 -51.0 22.45 -54.25 20.1 -50.4 19.2 M-43.3 22.45 Q-46.85 20.4 -43.0 19.2 -39.75 18.35 -39.75 21.3 -39.75 24.85 -43.3 22.45 M-50.7 17.45 L-51.3 15.4 -42.75 14.8 -42.4 17.35 -50.7 17.45 M-52.45 1.5 L-56.0 5.05 -55.4 7.4 -40.35 7.4 Q-40.5 6.35 -41.0 5.45 -44.35 -0.85 -52.45 1.5 M-43.9 3.85 Q-43.6 5.05 -43.6 5.95 L-52.75 6.25 -53.05 3.85 -43.9 3.85 M-37.9 27.3 L-39.5 13.9 -54.55 13.9 -52.45 27.5 -47.75 30.75 -40.95 30.75 -37.9 27.3 M-76.4 70.0 L-76.7 50.5 Q-74.9 48.15 -75.5 47.3 -78.45 55.25 -82.0 57.3 -80.5 59.7 -76.4 70.0 M-78.45 78.6 L-80.25 72.95 Q-81.7 89.85 -96.4 98.6 L-94.1 114.0 -92.0 112.7 Q-73.05 100.65 -78.45 78.6 M-115.7 43.3 Q-116.7 44.95 -116.85 47.3 -106.85 44.85 -98.9 47.45 -94.25 49.05 -90.55 52.0 L-90.35 50.2 Q-90.1 44.55 -95.4 42.15 L-96.95 41.2 -97.0 41.2 -97.3 41.1 -102.35 39.9 Q-108.6 39.0 -112.15 40.4 -107.5 38.0 -100.85 39.45 -95.9 39.45 -92.35 42.85 -88.85 46.2 -88.85 51.0 L-89.1 53.2 -86.45 55.55 Q-82.5 51.65 -81.3 48.45 -81.1 47.75 -81.2 47.15 -83.6 31.95 -100.35 29.95 -105.25 29.2 -110.1 30.0 -128.95 32.35 -123.35 49.65 L-118.9 47.85 -115.7 43.3 M-122.2 58.8 Q-126.5 60.95 -129.85 64.7 -131.95 66.95 -133.35 69.45 L-123.2 59.8 -120.7 58.2 Q-127.55 65.8 -121.8 73.45 L-120.15 75.25 Q-105.75 68.05 -92.55 76.6 L-91.15 77.7 -88.8 79.15 Q-88.3 69.85 -92.7 63.8 L-93.1 63.25 Q-105.75 51.2 -122.2 58.8 M-133.8 68.35 L-127.5 61.4 -125.3 59.9 Q-108.4 49.25 -93.45 61.5 -92.45 62.45 -91.6 63.55 -82.35 79.0 -93.5 94.25 -83.5 87.35 -81.8 75.15 -80.75 67.55 -84.85 61.35 -97.1 42.95 -119.1 49.4 -126.9 51.6 -132.3 57.65 -147.65 74.9 -133.65 92.45 L-134.6 90.95 Q-141.8 79.3 -133.8 68.35 M-130.4 97.75 Q-135.75 93.65 -138.1 89.8 -134.55 107.5 -126.9 111.65 L-130.4 97.75 M-83.45 183.7 Q-86.7 186.05 -86.45 186.95 L-6.1 186.95 -6.1 173.95 -71.95 173.95 -83.45 183.7 M-6.1 110.15 L-5.25 101.6 -15.35 100.5 -21.15 100.45 -71.35 100.45 -71.65 110.15 -71.65 116.65 -71.65 172.75 -6.1 172.75 -6.1 116.65 -6.1 110.15 M-9.95 225.9 L-6.1 225.9 -6.1 187.85 -87.8 188.15 -87.9 225.9 -84.35 225.9 -9.95 225.9 M10.15 -99.75 Q-0.8 -100.35 -6.7 -98.9 L10.15 -99.75" fill="#000000" fill-rule="evenodd" stroke="none"/>
    <path d="M11.85 -216.0 L11.8 -216.55 23.75 -214.2 Q25.4 -192.0 26.25 -190.25 L26.0 -190.35 Q23.05 -191.75 13.65 -193.95 L11.85 -216.0 M-58.05 -157.15 Q-42.8 -171.55 1.55 -171.55 20.75 -170.05 31.7 -166.2 43.05 -162.05 52.05 -154.7 25.15 -145.25 -3.4 -145.8 -31.8 -146.3 -58.05 -157.15 M65.65 -139.85 Q63.05 -112.55 56.2 -85.9 36.6 -74.9 14.25 -72.4 -14.1 -69.3 -40.7 -79.75 -43.2 -80.7 -45.15 -82.05 -1.15 -60.95 54.7 -87.1 55.3 -87.95 55.6 -98.9 8.05 -64.35 -55.15 -98.6 L-54.35 -94.85 Q-64.7 -115.65 -66.0 -139.85 -65.7 -145.95 -63.0 -150.85 -62.0 -126.45 -57.8 -109.5 L-56.3 -104.2 Q-55.7 -103.0 -44.8 -97.1 -23.85 -86.2 -0.2 -86.2 27.55 -86.2 55.6 -104.5 60.7 -124.4 62.2 -144.45 L65.65 -139.85 M54.15 -105.4 Q30.1 -88.1 0.1 -88.15 -30.0 -88.25 -55.25 -104.8 -55.05 -106.05 -50.1 -111.0 -24.85 -95.3 5.2 -97.55 30.05 -99.35 49.5 -113.25 L54.15 -105.4 M-60.15 -154.3 L-60.8 -154.15 -60.1 -155.05 -58.75 -156.45 -57.4 -155.75 -57.7 -154.9 -60.15 -154.3 M22.25 -135.2 Q19.6 -134.3 18.7 -137.55 17.8 -140.5 21.35 -140.8 23.1 -140.8 23.7 -138.45 24.3 -135.8 22.25 -135.2 M-72.55 98.65 L-72.5 96.9 -8.2 96.9 -8.2 98.95 -55.55 99.1 -72.55 98.95 -72.55 98.65 M-72.3 86.25 L-71.85 63.5 -8.2 63.5 -8.2 86.25 -72.3 86.25 M56.65 -147.35 L56.6 -146.9 56.2 -147.6 56.65 -147.35 M52.15 -79.05 L54.4 -78.8 73.5 35.45 55.6 35.45 57.1 33.7 58.55 22.2 63.0 23.35 63.0 10.95 60.05 10.05 60.8 2.15 Q61.05 -0.6 58.5 -0.65 50.2 -1.3 41.95 -0.3 39.1 0.0 38.75 3.0 L36.1 1.8 Q39.05 -9.0 40.25 -20.35 L34.35 -22.7 39.95 -24.2 Q40.0 -23.85 40.25 -23.65 46.9 -16.1 54.15 -21.25 L60.35 -19.75 58.55 -37.45 Q53.4 -40.15 47.05 -40.4 L44.1 -37.75 Q41.8 -40.85 38.2 -41.6 L38.6 -42.3 Q39.95 -45.5 37.9 -48.4 L41.7 -59.05 42.15 -59.05 Q52.0 -63.9 47.45 -74.6 L52.15 -79.05 M56.9 -71.5 L56.8 -72.0 Q62.55 -72.45 68.0 -70.75 77.65 -67.8 83.1 -59.1 85.8 -54.8 88.65 -50.95 117.2 -12.45 125.3 34.0 L124.85 34.2 124.15 33.9 Q110.95 24.45 95.6 29.9 L95.45 29.6 96.05 28.4 Q95.0 20.7 93.3 13.15 87.8 -10.8 82.45 -34.9 77.05 -59.4 56.9 -71.5 M86.6 34.15 L82.6 37.75 82.9 37.05 Q84.8 35.0 87.8 33.3 L86.6 34.15 M30.2 -60.85 Q22.6 -41.2 9.85 -23.6 L6.3 -23.6 6.0 -47.2 7.9 -48.0 Q10.1 -48.95 11.25 -51.1 20.45 -54.35 30.2 -60.85 M90.55 46.7 L90.95 45.6 91.9 44.95 Q91.05 45.75 90.55 46.7 M100.2 40.2 Q110.45 36.8 116.35 46.3 L116.7 47.3 Q109.9 45.8 103.05 46.55 L100.2 40.2 M102.85 56.95 Q100.45 57.7 97.95 58.85 L92.3 64.0 92.0 64.4 Q79.5 81.85 96.05 95.7 91.5 93.15 88.4 89.05 74.35 70.15 90.6 53.35 L90.75 53.5 91.0 53.1 Q111.5 41.3 129.15 56.6 147.8 72.85 133.55 92.75 140.2 80.1 132.35 68.85 L131.6 67.85 Q127.65 61.8 121.9 58.85 114.15 54.35 105.05 56.4 L102.85 56.95 M134.15 94.25 L137.4 90.4 Q135.95 102.4 127.65 110.45 L130.9 96.9 134.15 94.25 M59.75 12.45 L60.6 13.0 Q60.35 13.3 60.35 14.2 L60.05 13.3 60.05 13.6 59.75 12.45 M35.25 6.25 L35.75 6.6 34.95 8.3 35.25 6.25 M34.65 17.45 Q36.4 16.55 37.9 17.15 L36.7 30.45 Q36.7 35.7 38.75 35.75 L24.9 35.75 31.4 18.35 Q32.85 18.65 34.65 17.45 M13.65 11.55 L7.2 15.4 4.5 13.9 Q4.5 13.3 5.1 12.75 5.7 12.45 5.4 11.55 L13.4 10.95 Q13.95 10.95 13.65 11.55 M3.05 13.9 Q3.05 14.5 3.35 15.1 L2.45 15.4 2.45 13.9 3.05 13.9 M4.5 14.8 Q3.65 14.8 3.95 13.6 4.35 13.6 4.45 14.25 L4.5 14.8 M2.15 15.4 L-9.65 18.35 Q-13.2 19.2 -13.5 17.45 -8.45 17.45 1.0 14.5 1.85 14.2 2.15 15.4 M6.35 71.8 L6.2 83.0 -7.0 83.0 -7.0 71.8 6.35 71.8 M6.05 96.9 L6.0 98.95 -5.9 98.95 -7.0 98.65 -7.0 96.9 6.05 96.9 M70.85 63.5 L71.3 86.25 7.75 86.25 7.75 63.5 70.85 63.5 M71.5 96.9 L71.55 98.95 7.75 98.95 7.75 96.9 71.5 96.9 M74.2 45.2 L81.6 57.6 75.1 73.25 74.2 45.2 M71.55 116.65 L71.55 172.75 6.0 172.75 5.75 116.65 71.55 116.65 M5.8 174.25 L71.55 173.95 86.1 186.7 5.7 186.65 5.8 174.25 M81.0 102.2 Q74.2 89.2 79.8 72.4 81.0 88.05 95.75 98.05 L93.1 113.4 Q83.95 108.4 81.0 102.2 M9.2 225.9 L5.7 225.9 5.8 188.15 87.5 187.85 87.5 225.9 83.95 225.9 83.65 191.65 8.35 192.25 9.2 225.9 M-22.9 -217.55 Q5.45 -227.75 32.25 -213.15 -3.55 -226.35 -37.7 -209.95 -30.7 -214.75 -22.9 -217.55 M-16.8 -140.25 Q-17.8 -132.55 -21.7 -138.85 -22.45 -140.05 -21.1 -140.85 L-16.8 -140.25 M-100.25 28.8 Q-114.85 26.2 -125.7 35.75 -123.75 21.3 -119.7 7.35 -115.0 -8.65 -105.9 -22.7 L-82.6 -58.75 -81.2 -60.85 Q-72.9 -74.4 -57.5 -72.0 L-58.15 -68.25 Q-76.4 -54.3 -79.55 -30.5 -80.9 -20.5 -85.05 -11.65 -94.35 8.0 -100.25 28.8 M-5.9 -47.9 L-5.25 -23.3 Q-8.2 -22.4 -12.0 -28.3 L-22.05 -44.55 Q-22.05 -48.4 -26.5 -50.75 L-27.35 -52.85 Q-17.0 -47.8 -5.9 -47.9 M-48.4 -69.6 Q-48.9 -61.25 -41.9 -57.3 L-41.6 -57.2 -37.1 -47.8 Q-37.8 -46.0 -37.5 -44.25 L-36.8 -41.6 -37.4 -41.45 -37.4 -40.4 Q-39.35 -39.75 -40.85 -38.25 -42.4 -36.55 -44.5 -36.6 -48.6 -39.3 -53.4 -37.5 L-58.2 -35.55 -60.15 -18.55 -54.25 -19.45 Q-47.05 -14.75 -40.35 -20.65 L-40.05 -23.3 -33.3 -23.0 -32.7 -21.8 -39.2 -19.45 -33.85 2.4 -37.15 5.9 -38.0 5.95 Q-39.15 1.7 -43.2 0.75 -48.45 -0.6 -53.95 -0.85 L-58.65 4.15 -57.7 9.8 -56.0 10.35 -61.05 11.55 -61.05 23.95 -55.4 23.05 -54.55 28.4 -48.65 32.8 -39.75 32.8 -35.35 28.4 -36.5 18.35 -32.7 17.45 -31.05 18.05 -27.65 18.35 -19.4 35.75 -73.6 35.15 -69.55 7.6 -54.95 -77.75 Q-51.75 -73.35 -48.4 -69.6 M-27.65 -44.85 L-27.85 -45.5 -27.35 -44.85 -32.4 -43.1 -27.65 -44.85 M-10.55 15.1 Q-10.85 16.85 -13.5 16.85 -13.2 15.7 -10.55 15.1 M-37.4 8.3 L-36.65 8.45 -37.1 8.6 -37.1 9.5 Q-37.4 9.5 -37.4 8.3 M-30.3 13.0 Q-30.05 13.3 -29.75 14.5 -30.3 14.8 -30.6 14.5 -30.6 14.2 -30.05 14.2 L-30.3 13.0 M-76.4 70.0 Q-80.5 59.7 -82.0 57.3 -78.45 55.25 -75.5 47.3 -74.9 48.15 -76.7 50.5 L-76.4 70.0 M-98.9 47.45 Q-106.85 44.85 -116.85 47.3 -116.7 44.95 -115.7 43.3 L-115.15 42.5 Q-113.8 41.2 -112.15 40.4 -108.6 39.0 -102.35 39.9 L-97.3 41.1 -97.35 41.1 -97.0 41.2 -96.95 41.2 -95.4 42.15 -97.35 41.1 -98.9 47.45 M-133.8 68.35 Q-141.8 79.3 -134.6 90.95 L-133.65 92.45 Q-147.65 74.9 -132.3 57.65 -126.9 51.6 -119.1 49.4 -97.1 42.95 -84.85 61.35 -80.75 67.55 -81.8 75.15 -83.5 87.35 -93.5 94.25 -82.35 79.0 -91.6 63.55 -92.55 61.9 -93.8 60.55 L-93.45 61.5 Q-108.4 49.25 -125.3 59.9 L-127.5 61.4 Q-131.85 64.5 -133.8 68.35 M-130.4 97.75 L-126.9 111.65 Q-134.55 107.5 -138.1 89.8 -135.75 93.65 -130.4 97.75 M-83.45 183.7 L-71.95 173.95 -6.1 173.95 -6.1 186.95 -86.45 186.95 Q-86.7 186.05 -83.45 183.7 M-6.1 116.65 L-6.1 172.75 -71.65 172.75 -71.65 116.65 -6.1 116.65 M-84.35 225.9 L-87.9 225.9 -87.8 188.15 -6.1 187.85 -6.1 225.9 -9.95 225.9 -9.95 191.65 -84.9 191.65 -84.35 225.9 M10.15 -99.75 L-6.7 -98.9 Q-0.8 -100.35 10.15 -99.75" fill="#ffffff" fill-rule="evenodd" stroke="none"/>
    <path d="M4.3 -217.15 L11.85 -216.0 13.65 -193.95 Q23.05 -191.75 26.0 -190.35 L3.7 -194.55 2.15 -194.85 -0.7 -217.15 4.3 -217.15 M26.25 -190.25 Q25.4 -192.0 23.75 -214.2 30.25 -212.6 35.35 -210.15 36.2 -190.85 36.95 -187.0 31.9 -188.8 26.25 -190.25 M16.0 -140.05 Q16.4 -140.6 17.05 -140.7 10.45 -131.0 21.55 -129.0 25.0 -128.2 26.8 -130.95 31.4 -138.05 24.0 -141.85 38.1 -144.55 52.75 -150.1 53.4 -145.25 45.25 -111.4 L12.95 -100.05 Q9.4 -101.3 5.9 -100.7 -21.65 -96.55 -46.0 -109.8 L-45.7 -109.8 Q-51.05 -121.15 -52.6 -150.4 -38.85 -144.15 -24.35 -141.45 -29.75 -132.05 -19.35 -129.15 -17.6 -128.7 -15.9 -129.8 -10.2 -133.45 -13.3 -139.55 L-10.75 -138.0 -9.1 -138.1 Q-7.55 -138.35 -6.95 -139.45 L11.2 -140.0 11.6 -139.65 14.7 -139.25 Q15.4 -139.3 15.9 -139.95 L16.0 -140.05 M1.2 -109.6 L2.45 -109.55 12.05 -108.55 13.15 -108.35 13.2 -108.35 14.35 -108.1 14.45 -108.0 Q14.8 -107.4 15.75 -107.8 L16.8 -107.6 18.75 -107.1 21.25 -106.35 19.25 -107.25 17.9 -107.8 16.75 -108.25 Q17.4 -108.6 15.1 -108.85 L15.0 -108.9 14.95 -108.9 11.75 -109.9 9.85 -110.35 7.9 -110.95 1.1 -111.5 Q-7.65 -111.8 -16.25 -108.6 L-16.75 -108.4 -19.05 -107.45 -18.55 -106.8 -18.8 -106.85 -18.5 -106.75 -17.8 -106.4 -16.95 -106.25 -17.35 -105.75 -16.7 -106.2 -16.65 -106.2 -15.35 -106.1 -15.6 -106.75 -16.05 -107.7 -15.8 -107.75 -15.45 -107.85 -14.3 -108.1 -12.25 -108.5 -11.25 -108.65 -11.15 -108.7 Q-9.0 -109.6 -4.45 -109.45 L0.55 -109.4 1.2 -109.6 M-15.6 -106.75 L-15.4 -106.85 -15.6 -106.75 M17.95 -110.9 Q17.9 -111.6 17.5 -111.6 L17.95 -110.85 17.95 -110.9 M39.95 -110.7 Q42.0 -111.3 41.45 -120.15 40.85 -127.25 42.6 -131.05 41.15 -132.25 39.65 -130.2 41.15 -115.4 39.95 -110.7 M-38.3 -130.5 Q-36.5 -125.45 -37.1 -117.5 -38.0 -111.0 -35.65 -110.4 -36.5 -113.65 -35.65 -129.6 -36.5 -132.25 -38.3 -130.5 M-7.6 18.65 L0.1 16.85 Q0.4 18.65 -2.85 19.5 -5.8 20.4 -7.6 18.65 M-5.8 10.35 Q-0.2 9.5 0.4 13.9 L-9.65 16.25 Q-11.15 11.25 -5.8 10.35" fill="#ffe600" fill-rule="evenodd" stroke="none"/>
    <path d="M57.3 -156.6 Q36.15 -172.75 9.6 -174.95 -19.95 -177.4 -47.55 -166.7 -37.4 -172.5 -23.0 -175.3 L3.25 -177.7 3.35 -177.7 Q35.7 -177.6 59.15 -157.35 L57.3 -156.6 M62.6 -150.5 L62.7 -153.2 Q65.7 -150.6 65.9 -146.35 L66.0 -145.15 62.6 -150.5 M58.35 -155.55 Q60.5 -156.35 60.9 -156.15 61.2 -155.35 61.15 -152.4 L58.35 -155.55 M-92.05 81.75 L-91.75 82.1 -92.0 82.6 -92.05 81.75 M-74.3 100.3 L-72.85 98.95 -72.55 98.95 -55.55 99.1 -71.35 99.25 -74.3 101.15 -74.3 100.3 M-1.4 110.15 L-1.4 109.3 1.55 109.3 1.55 110.15 -1.4 110.15 M68.8 -141.1 L68.2 -140.65 Q67.9 -146.75 65.25 -152.3 69.2 -146.4 68.8 -141.1 M82.6 37.75 Q80.6 40.15 79.75 43.0 L79.45 44.2 Q71.1 20.45 68.3 -4.7 73.45 -6.25 77.85 -9.35 86.8 11.65 84.4 34.25 L82.9 37.05 82.6 37.75 M77.5 -10.15 L68.0 -5.85 58.25 -63.4 Q71.7 -40.4 76.25 -12.95 L77.5 -10.15 M1.25 -65.8 L-1.7 -65.8 -1.7 -70.55 1.0 -70.25 1.25 -65.8 M4.8 -69.95 Q4.8 -69.35 3.65 -68.75 L3.05 -69.95 4.8 -69.95 M0.5 -52.0 L-2.85 -64.65 2.45 -64.35 2.45 -68.2 Q7.35 -61.2 8.95 -53.0 L0.5 -52.0 M-71.05 44.9 L-70.8 37.25 69.75 37.25 69.75 44.9 -71.05 44.9 M6.15 87.45 L6.05 96.9 -7.0 96.9 -7.0 87.2 6.15 87.45 M6.0 98.95 Q5.7 99.55 3.95 99.55 2.75 101.9 3.65 104.85 L-3.75 104.85 Q-3.75 100.05 -5.9 98.95 L6.0 98.95 M-7.0 64.7 L-7.0 52.3 6.6 52.3 6.45 64.45 -7.0 64.7 M5.75 110.15 L5.3 101.05 71.55 100.45 71.55 110.15 5.75 110.15 M-59.5 -60.05 L-68.7 -6.15 Q-70.65 -6.65 -75.85 -9.15 -70.55 -32.9 -61.25 -55.7 L-59.5 -60.05 M-76.5 -8.35 Q-73.9 -6.5 -69.0 -5.0 -73.15 25.45 -79.05 43.75 -82.25 36.75 -90.0 32.35 -80.3 13.85 -76.8 -7.65 L-76.5 -8.35 M-4.35 -68.45 Q-5.7 -69.0 -5.8 -70.3 L-3.5 -70.45 Q-4.35 -69.3 -4.35 -68.45 M-100.35 29.95 Q-83.6 31.95 -81.2 47.15 -81.1 47.75 -81.3 48.45 -87.05 50.05 -88.85 51.0 -88.85 46.2 -92.35 42.85 -95.9 39.45 -100.85 39.45 L-100.35 29.95 M-97.3 41.1 L-97.0 41.2 -97.35 41.1 -97.3 41.1 M-123.2 59.8 L-133.35 69.45 Q-131.95 66.95 -129.85 64.7 -126.5 60.95 -122.2 58.8 L-123.2 59.8 M-92.7 63.8 Q-88.3 69.85 -88.8 79.15 L-91.15 77.7 -92.55 76.6 -92.65 75.9 Q-90.7 70.85 -92.7 63.8 M-127.5 61.4 L-133.8 68.35 Q-131.85 64.5 -127.5 61.4 M-91.6 63.55 Q-92.45 62.45 -93.45 61.5 L-93.8 60.55 Q-92.55 61.9 -91.6 63.55 M-71.65 110.15 L-71.35 100.45 -21.15 100.45 -15.35 100.5 -5.25 101.6 -6.1 110.15 -71.65 110.15" fill="#525759" fill-rule="evenodd" stroke="none"/>
    <path d="M57.3 -156.6 L52.05 -154.7 Q43.05 -162.05 31.7 -166.2 20.75 -170.05 1.55 -171.55 -42.8 -171.55 -58.05 -157.15 L-59.25 -157.65 Q-54.35 -162.85 -47.55 -166.7 -19.95 -177.4 9.6 -174.95 36.15 -172.75 57.3 -156.6 M66.0 -145.15 L65.65 -139.85 62.2 -144.45 62.6 -150.5 66.0 -145.15 M-45.15 -82.05 Q-48.85 -83.8 -52.45 -85.9 L-54.35 -94.85 -55.15 -98.6 Q8.05 -64.35 55.6 -98.9 55.3 -87.95 54.7 -87.1 -1.15 -60.95 -45.15 -82.05 M-66.0 -139.85 Q-66.15 -144.45 -65.3 -147.85 -64.4 -150.45 -63.05 -152.75 L-63.0 -150.85 Q-65.7 -145.95 -66.0 -139.85 M61.15 -152.4 Q60.4 -143.15 59.05 -133.95 56.9 -119.65 54.15 -105.4 L49.5 -113.25 Q50.55 -115.8 51.75 -122.2 56.2 -139.35 56.2 -154.7 L58.35 -155.55 61.15 -152.4 M-55.25 -104.8 Q-62.8 -129.7 -60.15 -154.3 L-57.7 -154.9 -57.4 -155.75 -55.4 -154.7 Q-55.7 -136.4 -52.45 -120.75 -50.7 -112.2 -50.1 -111.0 -55.05 -106.05 -55.25 -104.8 M-60.1 -155.05 L-59.85 -157.05 -58.75 -156.45 -60.1 -155.05 M3.35 -177.7 L3.25 -177.7 -23.0 -175.3 Q-12.45 -177.2 -1.7 -178.0 L3.35 -177.7 M-74.6 100.5 L-74.3 100.3 -74.3 101.15 -74.6 101.4 -74.6 100.5 M-72.85 98.95 L-72.55 98.65 -72.55 98.95 -72.85 98.95 M-72.5 96.9 L-72.3 86.25 -8.2 86.25 -8.2 96.9 -72.5 96.9 M-71.85 63.5 L-71.65 52.6 -8.2 52.3 -8.2 63.5 -71.85 63.5 M-1.4 116.65 L-1.4 110.15 1.55 110.15 1.55 116.65 -1.4 116.65 M56.65 -147.35 L56.2 -147.6 56.6 -146.9 56.65 -147.35 M47.45 -74.6 L49.7 -79.4 52.15 -79.05 47.45 -74.6 M44.35 -75.05 L44.5 -76.5 44.95 -77.05 44.35 -75.05 M92.4 31.05 Q90.2 31.95 88.35 33.05 L87.8 33.3 Q84.8 35.0 82.9 37.05 L84.4 34.25 Q86.8 11.65 77.85 -9.35 L79.8 -11.2 77.5 -10.15 76.25 -12.95 Q71.7 -40.4 58.25 -63.4 L56.9 -71.5 Q77.05 -59.4 82.45 -34.9 87.8 -10.8 93.3 13.15 95.0 20.7 96.05 28.4 L95.45 29.6 92.4 31.05 M34.7 -64.0 L34.6 -64.0 34.95 -64.15 34.7 -64.0 M11.25 -51.1 Q12.0 -58.65 7.4 -64.85 L6.3 -66.4 8.05 -70.55 Q20.05 -71.2 31.7 -74.4 29.0 -67.75 30.2 -60.85 20.45 -54.35 11.25 -51.1 M8.95 -53.0 L8.65 -51.65 Q3.4 -46.6 0.5 -52.0 L8.95 -53.0 M37.9 -40.7 Q44.95 -35.85 39.7 -26.0 38.2 -23.15 35.3 -24.0 L34.95 -24.75 Q42.25 -28.25 39.6 -38.15 39.3 -39.3 37.9 -39.25 L37.9 -40.7 M36.1 -43.1 L36.4 -45.45 Q36.1 -47.2 30.8 -48.1 25.5 -48.7 26.35 -45.45 L24.3 -46.05 Q24.9 -51.35 32.55 -49.6 39.95 -48.1 37.9 -42.8 L36.1 -43.1 M29.05 -33.95 Q30.5 -31.55 28.15 -30.7 25.5 -29.5 25.2 -31.85 L26.05 -34.2 Q27.25 -34.8 29.05 -33.95 M0.4 -45.15 Q-1.1 -46.35 -2.85 -45.75 L-2.85 -47.8 3.35 -47.8 3.35 -44.55 Q1.85 -44.25 0.4 -45.15 M3.35 -40.15 L3.65 -36.3 Q1.0 -35.1 0.1 -37.15 L-2.85 -37.15 Q-3.15 -38.05 -2.85 -38.65 -1.1 -38.05 0.4 -39.25 1.85 -40.4 3.35 -40.15 M3.35 -43.1 L3.35 -41.3 Q1.85 -41.9 0.1 -40.7 -1.7 -39.85 -2.85 -40.15 L-2.85 -44.25 Q-1.1 -44.85 0.7 -43.1 L3.35 -43.1 M3.65 -31.85 L3.65 -28.0 -2.55 -28.9 -2.55 -30.7 Q-0.65 -29.95 0.85 -31.1 2.05 -32.1 3.65 -31.85 M3.65 -33.35 L-2.55 -31.85 -2.85 -36.0 0.3 -34.85 Q2.0 -34.1 3.65 -34.8 L3.65 -33.35 M3.65 -25.05 L-2.55 -24.2 -2.55 -28.0 3.65 -26.55 3.65 -25.05 M18.4 -10.9 Q21.05 -12.65 21.35 -9.7 21.35 -7.35 18.4 -7.65 15.45 -8.85 18.4 -10.9 M37.3 -18.3 Q33.9 8.8 23.1 34.0 L9.25 34.3 Q13.15 32.8 16.45 30.5 29.0 21.75 24.3 7.1 30.15 -5.7 33.45 -19.45 L37.3 -18.3 M96.0 30.8 Q105.7 27.45 115.05 31.3 129.15 37.05 123.2 49.65 L118.5 47.85 117.55 46.0 Q108.6 33.75 94.05 42.05 96.4 40.3 99.9 39.0 L96.0 30.8 M88.75 50.4 L88.95 52.9 86.6 55.55 Q85.7 55.85 82.75 52.6 81.55 50.9 81.05 49.1 L88.75 50.4 M91.9 44.95 L100.2 40.2 103.05 46.55 Q96.25 47.6 90.45 51.7 89.85 48.85 90.55 46.7 91.05 45.75 91.9 44.95 M129.0 85.8 Q119.85 71.7 103.75 72.4 L103.5 72.45 Q100.15 70.25 99.05 66.0 97.6 60.3 103.15 57.3 L102.85 56.95 105.05 56.4 Q114.85 55.3 121.9 58.85 127.65 61.8 131.6 67.85 L132.55 69.4 Q135.6 78.2 129.0 85.8 M90.6 53.35 L91.0 53.1 90.75 53.5 90.6 53.35 M58.25 2.7 L52.95 3.0 Q52.35 1.2 58.25 1.2 L58.25 2.7 M51.75 2.7 L48.5 3.0 48.8 0.9 51.75 0.9 51.75 2.7 M55.6 9.5 L56.2 5.95 Q54.75 5.05 53.5 5.95 L52.95 9.5 55.6 9.5 M47.35 3.0 L41.45 3.0 Q41.45 1.2 43.8 1.2 L47.65 0.9 Q47.35 1.5 47.35 3.0 M48.65 6.1 Q45.1 4.5 42.9 7.7 42.6 15.35 48.55 10.65 52.2 7.75 48.65 6.1 M45.55 15.1 Q44.0 14.45 43.1 15.85 39.85 20.85 45.55 21.3 53.0 17.85 45.55 15.1 M52.35 17.15 L51.75 20.7 54.4 21.0 55.0 17.45 52.35 17.15 M55.3 15.4 L55.6 11.55 Q51.75 9.8 52.35 15.1 L55.3 15.4 M57.95 4.15 L54.15 33.7 39.35 33.7 41.45 4.15 57.95 4.15 M50.0 27.5 Q52.95 27.5 52.65 26.3 L43.2 26.0 Q42.6 26.6 42.6 27.5 44.7 28.1 50.0 27.5 M43.2 30.15 Q42.0 30.75 42.3 31.65 L48.2 31.9 Q52.05 31.9 52.35 30.75 L48.2 30.15 43.2 30.15 M69.75 44.9 L69.75 51.1 -71.05 51.1 -71.05 44.9 69.75 44.9 M38.5 4.45 Q35.8 15.1 35.25 16.0 34.05 18.05 32.0 17.45 L34.95 15.4 37.6 7.4 Q37.9 5.95 35.8 3.3 36.4 2.4 38.5 4.45 M6.45 64.45 L6.35 71.8 -7.0 71.8 -7.0 64.7 6.45 64.45 M6.2 83.0 L6.15 87.45 -7.0 87.2 -7.0 83.0 6.2 83.0 M7.75 63.5 L7.6 52.6 70.65 52.6 70.85 63.5 7.75 63.5 M71.3 86.25 L71.5 96.9 7.75 96.9 7.75 86.25 71.3 86.25 M71.55 110.15 L71.55 116.65 5.75 116.65 5.75 110.15 71.55 110.15 M9.2 225.9 L8.35 192.25 83.65 191.65 83.95 225.9 9.2 225.9 M-58.15 -68.25 L-59.5 -60.05 -61.25 -55.7 Q-70.55 -32.9 -75.85 -9.15 L-78.45 -10.35 -76.5 -8.35 -76.8 -7.65 Q-80.3 13.85 -90.0 32.35 L-90.25 32.2 Q-95.0 29.7 -100.25 28.8 -94.35 8.0 -85.05 -11.65 -80.9 -20.5 -79.55 -30.5 -76.4 -54.3 -58.15 -68.25 M-39.9 -74.4 L-43.9 -74.7 -39.2 -74.95 -39.9 -74.4 M-36.45 -61.95 L-39.6 -61.0 Q-42.6 -63.5 -45.5 -66.5 L-46.15 -68.5 -36.45 -61.95 M-36.2 -58.3 L-36.65 -58.6 -33.3 -59.6 -31.5 -55.5 -33.3 -59.05 -36.2 -58.3 M-27.35 -52.85 L-30.3 -60.2 Q-27.95 -62.25 -29.15 -67.0 L-31.8 -74.1 -8.75 -70.85 Q-8.2 -67.3 -6.4 -66.1 L-5.9 -47.9 Q-17.0 -47.8 -27.35 -52.85 M-3.45 -60.5 Q-2.85 -59.05 -2.85 -57.85 -3.45 -57.85 -3.45 -58.75 L-3.45 -60.5 M-2.25 -56.65 Q-2.55 -55.8 -2.25 -54.6 L-3.15 -54.6 -3.45 -56.35 -2.25 -56.65 M-1.4 -53.4 L-0.5 -49.6 Q-0.5 -48.7 -3.15 -48.7 L-3.15 -51.95 Q-3.15 -53.7 -1.4 -53.4 M-54.95 -77.75 L-54.85 -78.5 -45.95 -78.8 -49.8 -78.5 Q-49.5 -77.05 -47.45 -72.0 -48.3 -71.4 -48.4 -69.6 -51.75 -73.35 -54.95 -77.75 M-44.8 -73.5 L-43.3 -73.5 -41.85 -73.8 Q-44.5 -72.9 -44.8 -73.5 M-24.1 -45.45 Q-25.3 -48.1 -29.45 -47.2 L-35.05 -44.55 Q-35.35 -43.4 -34.75 -42.2 -37.4 -41.3 -36.5 -46.35 -33.55 -48.7 -29.15 -49.3 -23.85 -49.85 -22.95 -46.05 -23.25 -45.75 -24.1 -45.45 M-37.1 -39.25 Q-43.15 -30.65 -34.55 -24.7 -41.45 -27.2 -39.75 -37.15 -39.4 -39.2 -37.1 -39.25 M-24.7 -32.75 Q-22.65 -30.7 -25.0 -29.5 -28.25 -29.5 -27.95 -32.75 -26.5 -34.8 -24.7 -32.75 M-32.1 -18.55 Q-26.65 -4.7 -22.3 9.0 -21.45 11.55 -21.25 14.5 -20.1 30.2 -4.35 34.0 L-17.35 34.3 Q-30.7 9.85 -35.95 -17.4 L-32.1 -18.55 M-18.8 -9.1 Q-18.5 -10.6 -16.75 -10.6 -15.85 -10.9 -14.95 -9.7 -13.8 -7.65 -16.45 -7.05 -19.1 -6.45 -18.8 -9.1 M-34.45 5.65 Q-31.8 16.55 -28.55 17.75 L-31.2 17.15 -34.15 10.35 Q-35.95 5.95 -34.15 3.3 -33.55 3.3 -33.3 3.55 -33.0 4.45 -33.85 4.75 L-34.45 5.65 M-37.9 27.3 L-40.95 30.75 -47.75 30.75 -52.45 27.5 -54.55 13.9 -39.5 13.9 -37.9 27.3 M-43.9 3.85 L-53.05 3.85 -52.75 6.25 -43.6 5.95 Q-43.6 5.05 -43.9 3.85 M-52.45 1.5 Q-44.35 -0.85 -41.0 5.45 -40.5 6.35 -40.35 7.4 L-55.4 7.4 -56.0 5.05 -52.45 1.5 M-50.7 17.45 L-42.4 17.35 -42.75 14.8 -51.3 15.4 -50.7 17.45 M-43.3 22.45 Q-39.75 24.85 -39.75 21.3 -39.75 18.35 -43.0 19.2 -46.85 20.4 -43.3 22.45 M-50.4 19.2 Q-54.25 20.1 -51.0 22.45 -47.45 25.15 -47.45 21.3 -47.45 18.65 -50.4 19.2 M-41.25 25.15 L-49.5 25.15 -49.2 27.2 -40.95 27.2 Q-40.65 26.3 -41.25 25.15 M-78.45 78.6 Q-73.05 100.65 -92.0 112.7 L-94.1 114.0 -96.4 98.6 Q-81.7 89.85 -80.25 72.95 L-78.45 78.6 M-115.7 43.3 L-118.9 47.85 -123.35 49.65 Q-128.95 32.35 -110.1 30.0 -105.25 29.2 -100.35 29.95 L-100.85 39.45 Q-107.5 38.0 -112.15 40.4 -113.8 41.2 -115.15 42.5 L-115.7 43.3 M-81.3 48.45 Q-82.5 51.65 -86.45 55.55 L-89.1 53.2 -88.85 51.0 Q-87.05 50.05 -81.3 48.45 M-95.4 42.15 Q-90.1 44.55 -90.35 50.2 L-90.55 52.0 Q-94.25 49.05 -98.9 47.45 L-97.35 41.1 -95.4 42.15 M-123.2 59.8 L-122.2 58.8 Q-105.75 51.2 -93.1 63.25 L-92.7 63.8 Q-90.7 70.85 -92.65 75.9 L-92.55 76.6 Q-105.75 68.05 -120.15 75.25 L-121.8 73.45 Q-127.55 65.8 -120.7 58.2 L-123.2 59.8 M-6.1 110.15 L-6.1 116.65 -71.65 116.65 -71.65 110.15 -6.1 110.15 M-84.35 225.9 L-84.9 191.65 -9.95 191.65 -9.95 225.9 -84.35 225.9" fill="#a7abac" fill-rule="evenodd" stroke="none"/>
    <path d="M24.0 -141.85 L20.45 -142.3 19.35 -142.0 Q23.1 -144.1 26.1 -145.15 32.0 -147.2 38.35 -146.75 L39.95 -146.45 39.65 -149.4 55.3 -154.1 Q54.15 -133.1 48.2 -113.05 L45.25 -111.4 Q53.4 -145.25 52.75 -150.1 38.1 -144.55 24.0 -141.85 M-46.0 -109.8 L-49.2 -111.6 Q-54.55 -134.9 -54.55 -154.7 -47.45 -151.45 -36.25 -148.8 L-36.5 -147.0 Q-28.65 -146.75 -19.95 -142.95 L-20.3 -142.9 Q-22.85 -142.5 -24.35 -141.45 -38.85 -144.15 -52.6 -150.4 -51.05 -121.15 -45.7 -109.8 L-46.0 -109.8 M-6.95 -139.45 L-4.65 -143.75 7.75 -144.05 9.55 -141.4 11.2 -140.0 -6.95 -139.45 M14.7 -139.25 L16.0 -140.05 15.9 -139.95 Q15.4 -139.3 14.7 -139.25 M44.95 -71.3 L46.75 -70.85 44.1 -61.7 34.7 -64.0 34.95 -64.15 Q38.8 -66.2 44.95 -71.3 M28.45 -27.75 Q34.05 -29.2 32.0 -34.8 31.4 -37.75 27.55 -37.75 21.35 -37.75 21.95 -31.85 22.55 -25.95 28.45 -27.75 M34.95 -40.4 Q32.25 -19.45 23.1 3.55 16.65 -5.6 6.3 -7.35 -11.15 -10.3 -20.0 5.05 -30.05 -16.8 -34.15 -39.25 L-24.1 -42.5 -17.05 -31.25 Q-12.9 -24.2 -9.65 -20.65 L10.7 -20.95 Q13.95 -24.5 18.1 -31.55 L24.6 -43.1 34.95 -40.4 M19.6 -5.0 Q24.3 -5.3 24.0 -10.0 23.7 -15.05 18.4 -14.15 13.95 -13.25 14.55 -8.85 15.15 -4.4 19.6 -5.0 M56.5 -35.4 L51.75 -21.25 42.6 -23.3 47.05 -37.75 56.5 -35.4 M46.75 10.65 Q44.95 11.25 44.4 9.8 44.1 7.4 46.45 7.1 48.2 7.1 48.5 8.6 48.8 10.35 46.75 10.65 M7.2 17.75 L18.4 9.5 3.65 9.8 2.45 12.45 1.2 11.0 Q-6.7 5.2 -11.7 13.3 -13.5 13.6 -14.0 15.1 -16.25 22.1 -9.05 19.8 L-8.35 20.3 Q-0.65 23.3 5.4 16.55 L7.2 17.75 M2.95 32.0 Q-12.95 32.45 -16.4 17.5 -20.35 0.7 -3.35 -2.5 18.45 -6.75 22.55 14.8 19.85 31.5 2.95 32.0 M-21.1 -140.85 L-20.6 -141.1 Q-17.45 -141.95 -16.8 -140.25 L-21.1 -140.85 M-39.6 -61.0 L-43.3 -59.9 -45.5 -66.5 Q-42.6 -63.5 -39.6 -61.0 M-47.75 -36.3 L-42.75 -22.1 -51.3 -19.75 -56.0 -33.65 -47.75 -36.3 M-25.0 -36.9 Q-33.0 -37.45 -31.2 -30.4 -30.05 -26.55 -25.6 -26.85 -20.9 -26.85 -20.9 -31.25 -20.9 -34.8 -25.0 -36.9 M-12.0 -8.25 Q-11.15 -13.55 -17.35 -13.55 -21.75 -12.95 -21.75 -9.4 -21.75 -5.0 -17.05 -4.4 -12.3 -3.8 -12.0 -8.25" fill="#ff850d" fill-rule="evenodd" stroke="none"/>
    <path d="M-19.3 -215.2 L-17.15 -192.6 Q-36.15 -189.55 -52.3 -179.05 L-56.45 -176.25 -54.5 -195.35 -50.1 -199.0 Q-37.4 -211.25 -19.3 -215.2 M65.25 -152.3 Q53.6 -167.55 35.5 -173.65 9.4 -182.25 -18.0 -177.6 -28.3 -176.05 -38.4 -172.9 -63.95 -165.2 -68.1 -140.25 -75.3 -151.7 -65.75 -163.45 -47.7 -185.75 -18.5 -190.9 10.4 -195.8 37.9 -185.45 68.5 -174.05 70.95 -142.0 L68.8 -141.1 Q69.2 -146.4 65.25 -152.3 M34.6 -64.0 L32.0 -64.65 34.65 -73.8 44.95 -71.3 Q38.8 -66.2 34.95 -64.15 L34.6 -64.0 M-46.15 -68.5 L-34.45 -72.3 -31.5 -63.45 -36.45 -61.95 -46.15 -68.5" fill="#a85b00" fill-rule="evenodd" stroke="none"/>
    <path d="M95.6 29.9 L92.4 31.05 95.45 29.6 95.6 29.9 M88.35 33.05 Q87.4 33.55 86.6 34.15 L87.8 33.3 88.35 33.05 M81.05 49.1 Q80.5 35.65 94.15 31.4 L96.0 30.8 99.9 39.0 Q96.4 40.3 94.05 42.05 89.55 44.8 88.75 49.65 L88.75 50.4 81.05 49.1 M132.35 68.85 Q133.9 71.3 134.8 74.15 137.7 83.65 132.35 92.15 L129.0 85.8 Q135.6 78.2 132.55 69.4 L132.35 68.85" fill="#59595e" fill-rule="evenodd" stroke="none"/>
  </g>
</svg>
