<?xml version="1.0" encoding="UTF-8" standalone="no"?>
<svg xmlns:xlink="http://www.w3.org/1999/xlink" height="611.7px" width="191.75px" xmlns="http://www.w3.org/2000/svg">
  <g transform="matrix(1.0, 0.0, 0.0, 1.0, -242.1, 84.3)">
    <path d="M251.85 65.7 Q269.85 45.15 301.5 51.05 280.8 25.6 284.0 -11.9 L276.25 -12.65 Q258.15 -13.1 264.85 -26.65 271.0 -38.95 278.85 -50.6 290.25 -67.35 308.25 -77.0 314.3 -80.2 320.55 -82.0 333.75 -85.8 347.95 -83.35 L353.95 -82.0 Q370.4 -77.25 380.3 -62.35 392.4 -44.15 410.25 -30.4 L411.65 -28.9 Q413.85 -26.0 412.1 -22.85 405.55 -11.15 389.45 -12.0 L377.8 45.3 372.05 50.45 Q378.7 52.1 385.6 51.95 407.6 51.45 423.1 63.95 L425.85 67.65 Q435.4 89.95 426.7 114.25 421.4 129.0 416.95 144.05 432.8 172.55 424.35 204.05 L421.65 214.3 Q430.7 223.95 431.2 237.3 431.95 257.55 414.15 267.45 L413.15 267.7 405.15 260.1 Q408.0 254.7 409.55 249.0 416.2 225.05 390.85 222.15 L388.0 221.85 382.5 203.5 381.5 225.25 Q364.3 241.25 379.75 257.7 L380.1 258.25 380.4 258.7 380.25 262.9 356.4 263.9 356.1 268.95 391.55 268.35 403.35 282.2 Q405.0 293.55 405.45 305.1 L405.65 313.95 Q405.75 339.5 400.4 364.6 L418.7 387.9 Q421.3 413.0 415.2 437.55 440.05 466.35 431.8 505.0 426.35 512.8 418.0 517.95 399.15 529.8 376.9 526.8 355.45 524.15 339.25 510.05 L338.1 509.0 336.4 510.65 Q331.85 514.8 326.8 517.85 320.15 521.75 312.7 523.95 271.45 536.3 243.9 504.55 236.3 466.2 260.7 437.8 255.3 413.15 257.2 387.9 L275.5 364.9 Q270.5 339.6 270.6 313.95 270.6 298.15 272.55 282.2 L284.65 268.35 319.8 268.95 319.8 263.9 295.6 262.45 295.55 261.75 Q295.45 259.55 296.9 257.85 311.55 240.8 294.7 225.25 L293.25 202.5 288.25 221.85 283.4 223.3 Q252.4 232.1 271.1 260.1 L262.8 267.75 Q260.8 267.9 259.3 266.65 252.9 261.45 249.5 254.25 239.45 232.6 254.55 214.6 241.6 178.25 258.95 144.35 L246.7 107.25 Q239.15 84.45 251.55 66.1 L251.85 65.7 M270.85 -19.6 L273.0 -19.0 274.65 -18.8 Q287.15 -18.5 296.7 -10.25 L291.5 -12.5 289.75 -13.05 290.2 -9.7 296.85 24.0 301.2 3.2 373.55 3.5 376.25 22.9 376.35 23.1 Q380.9 10.5 382.75 -9.2 L383.3 -13.35 376.05 -10.35 379.6 -12.45 Q383.05 -14.55 386.8 -15.9 394.5 -18.55 402.55 -19.55 L407.75 -21.95 407.75 -22.4 Q400.75 -40.05 385.6 -43.95 L385.05 -43.1 Q378.25 -27.85 367.15 -17.0 359.55 -13.1 351.0 -11.55 329.1 -7.75 308.15 -15.0 L304.25 -17.0 303.4 -17.55 288.75 -42.0 286.15 -45.2 Q264.8 -37.15 265.75 -21.0 L270.85 -19.6 M312.45 -32.95 Q315.6 -31.9 318.9 -31.15 340.85 -26.5 361.3 -33.45 L362.0 -33.95 Q370.6 -43.95 383.8 -46.55 L385.95 -46.7 Q371.2 -81.55 331.9 -79.2 300.9 -77.1 287.0 -47.3 L290.4 -46.7 293.05 -45.9 Q304.65 -41.95 312.45 -32.95 M319.85 -29.3 L309.85 -31.7 304.85 -29.7 294.1 -44.05 289.5 -45.0 288.5 -45.2 289.2 -44.35 Q293.4 -39.45 295.7 -33.5 304.35 -10.95 330.8 -11.2 350.05 -11.4 364.9 -22.7 375.75 -30.95 383.25 -44.15 L380.65 -44.35 Q378.2 -32.5 368.3 -30.15 L363.9 -31.65 346.95 -28.05 319.85 -29.3 M383.5 57.5 L367.15 55.55 391.9 79.75 397.3 83.1 397.65 84.05 397.75 84.25 397.55 93.7 401.9 89.7 401.9 89.75 398.05 97.4 402.0 121.05 404.2 128.65 403.9 130.15 Q403.2 132.6 401.25 133.95 L400.7 134.9 Q400.55 139.6 398.65 153.2 402.2 154.35 405.45 152.0 L410.15 147.9 405.45 153.5 Q402.55 156.4 398.15 155.3 L397.4 158.4 387.1 196.6 389.8 208.7 392.45 208.2 Q403.85 206.4 413.4 212.25 L416.0 213.5 Q417.9 214.8 418.8 211.15 423.55 192.4 420.5 173.45 418.2 159.05 412.3 145.95 L411.95 145.15 412.45 143.2 Q417.6 123.2 424.0 103.45 429.4 86.6 419.75 73.45 407.25 56.5 383.5 57.5 M375.75 25.7 L372.05 27.7 371.9 32.25 366.85 37.3 Q370.1 33.65 370.3 28.9 L313.85 29.15 Q308.75 29.1 303.65 29.2 304.25 31.55 305.65 33.25 319.55 49.75 343.5 45.05 L362.7 40.55 364.4 39.5 365.65 38.5 359.4 44.7 Q353.5 46.75 344.9 47.2 321.0 48.2 310.25 41.85 L307.55 39.8 Q301.95 35.45 301.5 28.0 L298.25 25.05 297.3 26.7 296.2 28.6 299.7 42.75 301.45 44.15 Q314.95 54.1 332.05 54.9 353.85 56.55 371.3 44.6 L373.05 43.15 375.75 25.7 M366.45 26.25 Q373.25 25.65 372.65 23.85 L300.3 23.85 Q301.2 26.25 305.05 26.5 L366.45 26.25 M384.85 83.65 L383.2 84.15 382.45 84.45 371.45 88.0 Q362.15 73.65 346.3 68.4 L345.3 63.85 344.6 60.2 331.45 60.6 331.0 64.05 329.55 68.85 Q313.85 74.3 304.5 87.9 L289.15 82.75 Q284.75 81.25 283.8 81.45 L280.8 84.1 Q279.05 86.45 280.55 88.55 L303.25 99.75 303.85 104.45 304.25 112.65 296.85 115.55 Q287.3 115.55 280.55 119.3 273.75 123.0 273.75 128.3 L275.65 131.6 276.05 131.55 Q295.15 122.65 315.4 126.6 317.85 128.75 318.65 133.55 L317.6 162.15 314.75 176.55 306.45 184.15 291.75 196.3 297.95 199.25 Q309.9 190.5 320.05 179.85 L321.05 178.75 Q324.0 175.9 324.15 172.05 325.1 145.75 323.25 120.3 319.1 116.95 316.5 112.4 311.4 103.45 315.25 95.55 314.8 97.75 314.8 100.2 314.8 109.8 321.6 116.6 328.4 123.4 338.05 123.4 347.7 123.4 354.5 116.6 361.3 109.8 361.3 100.2 361.3 90.6 354.5 83.8 347.7 77.0 338.05 77.0 L336.75 77.05 Q351.6 72.8 362.7 95.5 L363.2 97.4 Q364.0 104.8 360.55 111.15 357.25 117.35 351.7 121.6 L352.1 174.65 378.25 199.25 384.45 196.3 368.8 183.85 Q361.0 176.5 359.95 174.45 L358.2 159.25 358.55 128.85 Q360.7 125.7 367.4 125.3 L376.4 126.75 Q372.15 126.7 368.05 127.8 364.2 128.8 360.4 130.8 357.1 152.0 361.75 173.85 L374.55 185.8 374.8 186.0 385.95 194.55 393.8 165.55 Q397.85 150.6 398.6 135.1 398.6 134.4 398.3 134.2 392.15 130.15 386.15 128.3 L394.15 129.55 400.4 131.65 400.5 131.65 400.8 131.4 Q405.55 122.0 394.15 118.95 L371.65 112.25 373.45 99.5 394.8 89.2 Q396.95 87.8 395.55 85.55 394.2 83.35 392.45 81.45 L384.85 83.65 M364.95 57.45 L346.4 60.2 346.8 63.6 347.25 67.25 Q351.9 68.4 356.0 70.65 365.95 76.05 371.45 86.15 L380.45 83.1 381.8 82.65 388.9 80.25 Q378.7 63.55 364.95 57.45 M329.25 63.85 L329.55 60.2 Q319.85 59.4 313.7 57.5 L310.9 57.55 310.0 57.95 Q296.35 64.9 287.3 80.25 L296.4 83.45 297.6 83.9 304.75 86.15 Q314.8 70.5 328.95 67.25 L329.25 63.85 M389.7 115.95 L391.55 116.5 Q396.1 117.75 398.65 118.95 398.15 103.85 395.55 95.15 L394.2 91.5 Q376.8 99.45 374.7 100.95 L374.45 103.3 373.55 111.55 389.7 115.95 M363.35 54.75 L366.3 51.35 359.95 51.15 Q333.35 60.05 309.35 52.45 314.65 57.3 322.2 58.3 343.35 61.55 363.35 54.75 M349.6 122.5 Q338.1 127.8 326.6 122.5 L326.6 172.7 349.6 172.7 349.6 122.5 M377.3 205.05 L377.4 200.75 349.7 174.7 326.6 174.45 299.0 200.9 299.45 222.3 301.55 225.25 Q314.7 243.1 303.2 259.5 L313.3 259.5 313.3 215.2 304.05 209.35 304.8 197.35 371.65 197.55 372.35 209.3 362.9 215.5 362.9 259.5 373.5 259.05 Q360.1 239.3 376.95 221.45 L377.3 205.05 M424.65 234.95 L424.6 234.7 Q424.05 231.65 423.15 228.95 L418.1 219.45 Q410.0 209.7 393.2 210.75 L390.35 211.35 391.55 217.55 Q401.4 216.75 407.75 224.15 423.55 242.55 412.55 261.3 428.3 254.25 424.65 234.95 M370.6 208.7 L370.6 198.95 305.9 198.95 305.65 208.7 313.6 212.85 Q313.6 211.65 313.9 209.6 L362.3 209.9 362.6 212.85 370.6 208.7 M358.8 239.2 L358.8 217.55 358.8 215.2 317.45 215.2 317.45 259.2 Q338.1 260.1 358.8 259.2 L358.8 239.2 M351.7 270.4 L351.7 261.55 324.8 261.55 324.5 270.4 351.7 270.4 M335.45 295.75 L340.75 294.05 341.2 294.4 341.7 295.3 Q341.9 295.8 341.7 296.3 L341.25 296.75 340.9 296.75 Q339.9 301.95 341.55 313.95 L341.6 314.55 Q344.45 335.5 347.65 356.2 350.95 377.65 366.6 386.6 L365.85 386.55 Q360.05 386.45 356.1 380.55 348.05 388.05 348.35 398.1 349.05 419.4 352.6 439.9 L357.5 442.15 Q368.4 446.6 382.1 447.55 387.15 447.85 391.45 447.5 L396.1 446.85 Q402.9 445.5 407.45 442.05 L410.15 439.6 414.0 389.7 396.95 368.9 397.85 370.8 Q404.75 383.85 396.05 383.25 397.55 382.95 398.65 381.7 400.4 379.95 398.95 377.3 399.25 380.45 394.3 383.05 391.6 382.5 387.9 381.1 383.8 379.55 380.35 377.35 L379.8 376.7 378.7 370.6 Q366.65 364.55 370.05 352.85 L365.25 348.95 Q367.55 364.6 377.65 375.5 365.95 366.65 362.85 349.75 359.55 331.95 359.3 313.95 L359.25 307.7 Q359.4 297.3 368.4 296.85 L370.0 296.75 Q368.4 297.4 367.1 298.9 364.85 301.45 364.85 305.05 364.85 308.65 367.1 311.25 369.35 313.8 372.5 313.8 375.65 313.8 377.9 311.25 L378.9 309.85 379.2 309.7 379.4 309.4 379.1 309.55 Q380.15 307.55 380.15 305.05 380.15 301.45 377.9 298.9 376.95 297.8 375.9 297.2 387.55 299.5 389.75 313.95 390.5 318.95 390.15 325.45 389.0 345.5 395.15 364.7 L395.2 365.0 395.25 365.1 395.4 365.5 Q400.9 340.3 400.45 313.95 400.15 299.15 398.05 284.0 L393.3 284.0 383.0 284.0 325.2 284.0 282.15 284.0 278.15 284.0 Q275.95 299.25 275.65 313.95 275.1 340.6 280.8 365.5 L282.05 361.85 Q285.45 349.6 286.35 336.9 287.2 324.7 291.15 313.95 292.15 311.1 293.4 308.4 L292.95 313.95 Q290.1 345.5 281.25 370.8 L290.75 367.9 290.15 361.8 291.05 360.1 290.85 361.7 Q290.85 364.7 292.95 366.8 295.05 368.9 298.05 368.9 300.85 368.9 302.9 367.1 299.9 370.35 295.9 370.8 297.05 372.85 296.2 375.8 L293.5 379.65 Q293.5 380.25 293.8 379.65 307.1 370.2 310.35 348.95 307.7 352.2 305.35 353.1 308.9 357.5 305.05 364.0 L304.65 364.75 Q305.25 363.35 305.25 361.7 305.25 358.7 303.15 356.6 301.05 354.5 298.05 354.5 295.15 354.5 293.1 356.45 L297.4 351.95 Q289.7 342.1 300.9 335.05 L300.7 335.0 Q289.85 328.2 298.65 317.35 L298.85 317.1 300.3 315.3 Q298.75 314.9 297.55 313.95 295.1 312.0 294.25 307.7 L294.1 306.95 296.0 303.25 Q295.85 304.1 295.85 305.1 295.85 308.8 298.15 311.4 300.15 313.65 302.85 313.95 L303.7 314.0 304.6 313.95 Q307.25 313.65 309.25 311.4 311.55 308.8 311.55 305.1 311.55 301.4 309.25 298.8 306.95 296.2 303.7 296.2 301.4 296.2 299.6 297.5 307.2 287.35 311.45 301.25 L313.0 306.85 Q312.1 310.2 308.95 313.95 L308.3 314.7 Q314.5 316.45 313.3 325.05 312.1 333.0 306.8 334.8 310.65 335.95 312.1 341.25 315.1 326.6 314.4 313.95 L314.4 313.85 314.45 313.95 Q316.8 328.6 314.65 343.8 311.45 366.4 295.1 381.45 L287.45 385.1 Q281.55 386.65 277.3 384.4 271.65 381.45 276.1 373.75 L279.0 369.25 Q263.35 379.6 262.5 395.95 261.3 418.15 265.75 439.9 L279.6 446.8 284.0 447.45 314.15 443.8 316.05 443.15 318.75 442.15 323.65 439.9 Q325.85 423.35 329.3 407.05 332.05 394.1 323.0 385.1 L322.35 384.3 320.1 381.3 319.5 380.55 319.05 381.1 Q316.15 384.75 312.45 386.15 318.1 382.9 320.85 375.35 325.1 363.85 327.65 351.85 331.65 333.05 334.15 313.95 L336.05 296.4 335.2 296.35 334.0 296.2 335.45 295.75 M411.05 398.55 Q402.8 393.65 393.45 390.75 L400.3 391.65 Q404.95 392.3 409.15 395.25 411.25 396.9 411.05 398.55 M382.5 273.05 L379.5 273.05 299.85 273.3 294.85 273.2 287.0 273.05 279.95 282.2 281.7 282.5 287.5 282.5 386.55 282.5 392.85 282.5 396.55 282.5 389.05 273.25 382.5 273.05 M360.85 258.9 L360.85 211.35 315.45 211.65 315.55 236.3 315.95 213.7 359.95 213.7 360.85 258.9 M367.65 314.7 L366.85 313.95 Q362.85 310.0 362.3 304.35 361.8 309.3 361.65 313.95 361.1 329.1 363.8 341.25 364.4 337.45 369.1 334.5 363.5 333.3 362.6 325.05 361.75 316.75 367.65 314.7 M382.0 304.4 L381.9 305.45 Q382.3 311.1 378.2 313.95 L375.6 315.3 Q386.95 326.95 375.3 335.05 L377.45 336.05 377.55 336.1 Q380.05 337.95 381.05 340.8 383.6 348.2 377.7 352.5 387.9 358.15 385.35 368.45 L390.5 369.05 395.45 370.9 Q389.95 358.35 387.4 344.9 384.55 330.15 382.9 313.95 L382.0 304.4 M366.65 320.75 Q367.5 319.15 369.7 317.95 368.7 318.25 367.65 318.85 364.85 320.65 364.25 322.8 L365.85 328.4 Q366.55 329.95 368.0 331.1 371.8 334.1 372.9 331.3 L372.95 331.1 373.1 330.7 374.35 326.5 375.3 326.2 Q377.95 325.35 376.8 322.1 376.25 320.55 375.35 320.0 375.0 314.1 366.65 320.75 M375.0 330.35 L374.95 330.4 375.05 330.35 375.0 330.35 M374.2 336.5 L371.75 336.25 Q364.4 336.85 366.45 344.8 368.5 352.8 375.6 351.3 379.15 350.8 380.1 347.5 L380.35 346.3 Q380.9 342.45 378.25 339.2 376.35 337.1 374.2 336.5 M338.1 322.1 Q336.95 331.5 335.4 341.0 332.15 360.5 324.5 378.5 L329.25 384.4 Q331.4 387.1 331.9 390.5 335.7 415.1 328.35 439.6 L337.8 461.75 Q342.2 452.0 340.3 443.7 331.8 406.3 351.4 378.2 349.5 373.9 348.15 369.3 341.3 346.15 338.1 322.1 M293.5 389.6 Q280.1 392.4 267.4 396.75 L265.2 397.45 265.55 397.0 Q272.0 390.25 281.35 390.3 L283.5 390.05 289.2 389.85 292.65 389.7 293.5 389.6 M385.95 369.9 Q381.2 370.8 381.2 374.05 381.2 379.05 388.3 381.15 395.7 383.5 397.15 378.2 397.85 375.95 396.75 374.15 395.95 372.8 394.2 371.7 390.2 369.35 386.2 369.9 L385.95 369.9 M376.9 368.3 L383.95 367.0 Q385.55 352.4 371.85 355.9 371.65 356.3 371.6 356.75 370.8 362.0 374.0 365.85 L374.2 366.1 375.45 367.4 376.9 368.3 M296.45 57.15 Q286.45 59.1 276.35 59.8 249.2 61.65 252.15 88.2 255.35 117.15 264.1 144.7 258.45 158.95 255.9 174.0 251.6 199.1 262.45 211.8 271.4 206.05 284.3 208.3 L286.45 208.7 289.1 196.3 Q283.8 181.85 278.15 155.25 273.75 156.45 270.5 153.5 L266.3 148.25 266.25 148.15 266.05 147.9 266.25 148.1 266.55 148.3 271.25 151.05 271.3 150.7 276.6 153.4 275.5 134.25 275.1 133.75 272.7 128.05 271.8 125.85 273.8 121.9 275.5 119.55 277.85 97.85 274.65 91.5 Q273.15 89.0 273.15 88.55 L274.6 90.15 278.75 94.75 279.65 90.6 Q277.5 87.65 278.8 84.2 L280.05 81.95 285.55 79.65 Q295.35 64.05 309.25 55.4 L296.45 57.15 M301.75 102.7 L301.5 100.65 Q293.65 96.3 282.2 91.7 L280.95 93.6 280.75 94.2 277.85 118.95 287.9 115.7 289.6 115.25 302.65 111.55 301.75 102.7 M304.3 183.6 L305.6 182.5 Q309.55 179.35 311.45 175.0 319.65 155.9 317.25 133.45 L316.8 132.4 315.2 131.1 314.15 130.3 Q299.4 120.05 277.85 133.4 L277.4 134.75 277.55 136.3 290.25 194.55 304.3 183.6 M263.25 261.55 L265.2 259.95 Q259.55 253.3 259.6 243.95 259.8 219.3 284.65 217.55 L284.45 211.0 280.35 210.7 280.65 210.65 272.05 210.9 Q247.65 218.7 251.1 243.75 253.0 257.75 263.25 261.55 M309.4 318.55 Q307.15 316.0 304.0 316.0 300.85 316.0 298.6 318.55 296.35 321.1 296.35 324.7 296.35 328.3 298.6 330.85 300.85 333.4 304.0 333.4 307.15 333.4 309.4 330.85 311.65 328.3 311.65 324.7 311.65 321.1 309.4 318.55 M279.8 373.05 Q278.35 374.75 278.45 377.3 278.75 383.2 286.75 381.45 294.7 379.35 294.7 374.05 294.7 369.35 289.3 369.65 L289.25 369.65 287.0 369.9 Q281.8 370.6 279.8 373.05 M302.95 336.25 L301.85 336.4 Q299.15 336.95 297.65 338.9 295.3 341.55 295.9 346.0 296.0 346.9 296.25 347.65 297.2 350.6 300.3 351.3 308.0 352.8 309.45 344.25 310.95 335.35 302.95 336.25 M277.3 382.0 Q279.35 383.8 282.0 382.9 277.0 382.0 276.7 377.3 275.5 380.25 277.3 382.0 M279.15 448.7 Q270.1 446.75 264.9 441.35 254.85 453.2 249.25 465.85 255.35 476.55 265.1 481.55 273.65 485.95 284.95 485.95 L293.6 485.35 300.9 483.95 Q320.9 480.15 332.8 464.6 L333.05 464.1 323.65 441.65 313.9 445.85 297.8 449.3 279.15 448.7 M264.25 483.45 L249.25 469.4 249.05 503.15 262.0 514.55 Q265.3 516.55 269.0 518.05 L270.5 518.65 Q286.2 524.45 302.4 520.85 309.85 519.7 316.75 516.45 L322.45 513.8 Q328.8 510.75 333.4 505.75 L333.1 467.35 329.85 470.9 Q317.3 483.05 299.9 486.1 292.35 487.7 284.95 487.7 276.25 487.7 269.3 485.45 L264.25 483.45 M423.2 471.85 Q425.4 469.1 427.0 465.85 420.8 452.9 411.05 441.35 L408.35 443.75 Q403.6 447.25 396.7 448.7 L376.9 449.1 Q370.55 448.3 364.85 446.65 360.5 445.4 356.55 443.7 L356.25 443.55 352.3 441.65 342.85 463.5 Q351.7 479.55 377.55 484.15 L385.35 485.3 Q398.25 486.45 408.95 482.1 L412.35 480.55 Q418.85 477.2 423.2 471.85 M412.05 515.7 L426.95 502.8 427.0 469.1 410.6 483.8 405.4 485.8 378.55 486.55 Q356.8 483.35 342.8 467.2 L342.8 506.5 343.15 506.9 Q357.85 518.85 376.7 521.35 L376.8 521.4 377.45 521.5 404.85 518.9 Q408.65 517.55 412.05 515.7" fill="#000000" fill-rule="evenodd" stroke="none"/>
    <path d="M270.85 -19.6 Q265.6 -21.4 267.85 -24.85 267.85 -28.0 288.75 -42.0 L303.4 -17.55 302.4 -18.05 304.25 -17.0 308.15 -15.0 Q328.4 -1.0 349.65 -8.35 359.85 -11.85 369.1 -17.75 L367.15 -17.0 Q378.25 -27.85 385.05 -43.1 L385.6 -43.95 Q397.85 -34.35 404.5 -21.35 L402.55 -19.55 Q394.5 -18.55 386.8 -15.9 383.05 -14.55 379.6 -12.45 L375.3 -10.1 Q377.05 -6.35 382.35 -8.9 L380.9 -7.75 Q378.35 10.7 376.25 22.9 L373.55 3.5 301.2 3.2 296.85 24.0 291.5 -8.5 Q301.5 -6.8 298.25 -9.2 L296.7 -10.25 Q287.15 -18.5 274.65 -18.8 L273.0 -19.0 270.85 -19.6 M312.45 -32.95 Q304.65 -41.95 293.05 -45.9 L290.4 -46.7 Q298.25 -58.6 310.5 -65.6 329.65 -76.5 350.75 -70.65 371.4 -64.9 383.8 -46.55 370.6 -43.95 362.0 -33.95 L361.3 -33.45 312.45 -32.95 M383.5 57.5 Q396.4 60.85 408.6 65.95 428.35 74.2 421.8 97.7 416.15 117.85 413.0 138.4 L412.45 143.2 411.95 145.15 412.3 145.95 Q411.85 157.95 415.65 170.3 422.1 191.25 414.0 211.95 L416.0 213.5 413.4 212.25 Q403.85 206.4 392.45 208.2 L391.25 193.05 410.15 147.9 405.25 150.7 403.8 134.3 403.9 130.15 404.2 128.65 402.0 121.05 403.9 122.95 Q403.7 106.7 401.9 89.75 L401.9 89.7 Q401.9 86.95 400.55 85.05 399.2 83.1 397.3 83.1 L391.9 79.75 367.15 55.55 383.5 57.5 M366.45 -51.15 Q332.8 -42.85 310.05 -51.4 332.2 -31.95 366.45 -51.15 M370.3 28.9 Q370.1 33.65 366.85 37.3 L371.9 32.25 372.05 27.7 375.75 25.7 Q373.15 40.15 371.3 44.6 353.85 56.55 332.05 54.9 314.95 54.1 301.45 44.15 299.9 41.05 297.3 26.7 L298.25 25.05 301.5 28.0 Q301.95 35.45 307.55 39.8 L310.25 41.85 308.3 41.0 Q334.3 62.3 359.4 44.7 L365.65 38.5 364.4 39.5 362.7 40.55 343.5 45.05 Q319.55 49.75 305.65 33.25 304.25 31.55 303.65 29.2 308.75 29.1 313.85 29.15 L328.6 29.8 Q349.55 31.7 370.3 28.9 M345.3 63.85 L346.3 68.4 Q362.15 73.65 371.45 88.0 L382.45 84.45 383.2 84.15 384.85 83.65 Q396.7 80.5 394.8 89.1 L394.8 89.2 373.45 99.5 371.65 112.25 394.15 118.95 Q404.25 124.25 400.5 131.65 L400.4 131.65 394.15 129.55 386.15 128.3 376.4 126.75 367.4 125.3 365.85 125.15 Q359.75 124.75 358.55 128.85 L358.2 159.25 Q356.4 169.2 358.5 174.15 360.75 178.75 368.8 183.85 L384.45 196.3 378.25 199.25 352.1 174.65 351.7 121.6 Q357.25 117.35 360.55 111.15 364.0 104.8 363.2 97.4 L362.7 95.5 Q351.6 72.8 336.75 77.05 328.2 79.45 318.4 90.8 316.4 93.1 315.25 95.55 311.4 103.45 316.5 112.4 319.1 116.95 323.25 120.3 325.1 145.75 324.15 172.05 324.0 175.9 321.05 178.75 L320.05 179.85 Q309.9 190.5 297.95 199.25 L291.75 196.3 306.45 184.15 314.75 176.55 Q312.45 181.0 305.65 184.8 315.65 179.75 317.75 175.95 319.5 172.4 318.05 159.4 L317.6 162.15 318.65 133.55 Q319.15 128.5 315.4 126.6 295.15 122.65 276.05 131.55 L275.65 131.6 273.75 128.3 275.45 130.85 Q271.2 123.3 285.25 119.55 292.55 117.4 296.85 115.55 L304.25 112.65 303.85 104.45 Q305.05 104.75 303.25 99.75 L280.55 88.55 Q280.7 81.9 289.15 82.75 L304.5 87.9 Q313.85 74.3 329.55 68.85 L331.0 64.05 Q338.2 64.85 345.3 63.85 M346.8 63.6 Q352.15 62.7 357.45 60.75 375.9 69.6 380.45 83.1 L371.45 86.15 Q365.95 76.05 356.0 70.65 351.9 68.4 347.25 67.25 L346.8 63.6 M364.55 57.65 L364.95 57.45 Q378.7 63.55 388.9 80.25 L381.8 82.65 Q372.7 65.9 364.55 57.65 M329.25 63.85 L328.95 67.25 Q314.8 70.5 304.75 86.15 L297.6 83.9 Q301.95 70.45 319.25 61.55 324.25 63.1 329.25 63.85 M296.4 83.45 L287.3 80.25 Q296.35 64.9 310.0 57.95 L312.6 59.1 Q304.65 67.5 296.4 83.45 M385.8 97.05 L386.5 98.1 Q391.95 106.45 389.7 115.95 L373.55 111.55 374.45 103.3 Q378.7 99.2 385.8 97.05 M391.55 116.5 L391.55 95.7 395.55 95.15 Q398.15 103.85 398.65 118.95 396.1 117.75 391.55 116.5 M368.05 127.8 Q374.6 127.2 385.15 130.3 389.5 157.75 374.55 185.8 L361.75 173.85 Q357.1 152.0 360.4 130.8 364.2 128.8 368.05 127.8 M395.25 133.75 L398.6 135.1 Q397.85 150.6 393.8 165.55 L385.95 194.55 374.8 186.0 376.2 186.25 Q390.0 159.75 395.25 133.75 M377.3 205.05 L376.95 221.45 Q360.1 239.3 373.5 259.05 354.9 245.4 373.85 222.3 L377.3 205.05 M303.2 259.5 Q314.7 243.1 301.55 225.25 L299.45 222.3 299.0 200.9 300.9 220.5 Q321.4 246.0 303.2 259.5 M412.55 261.3 Q423.55 242.55 407.75 224.15 401.4 216.75 391.55 217.55 L390.35 211.35 393.2 210.75 Q410.0 209.7 418.1 219.45 L423.15 228.95 Q424.05 231.65 424.6 234.7 L424.65 234.95 Q426.5 249.95 412.55 261.3 M358.8 239.2 L358.8 259.2 Q338.1 260.1 317.45 259.2 L317.45 215.2 358.8 215.2 358.8 217.55 318.05 217.55 317.75 239.1 Q333.7 224.3 358.8 239.2 M357.5 442.15 Q349.0 414.8 357.05 391.4 357.7 392.0 358.5 392.35 373.7 398.05 390.9 393.95 L396.3 402.1 Q395.25 431.95 391.45 447.5 387.15 447.85 382.1 447.55 368.4 446.6 357.5 442.15 M396.8 394.1 L411.05 398.55 Q411.9 396.9 409.15 395.25 404.95 392.3 400.3 391.65 L393.45 390.75 369.75 388.2 367.6 386.6 Q352.15 374.5 349.35 353.3 346.75 333.7 347.75 313.95 L347.75 313.3 Q348.55 298.0 338.05 289.9 L335.45 295.75 334.0 296.2 335.2 296.35 Q331.65 304.8 329.25 313.95 326.15 325.5 324.8 338.1 322.25 361.85 311.75 383.45 L310.1 386.75 310.0 386.95 303.4 388.55 293.5 389.6 292.65 389.7 289.45 389.45 295.1 381.45 Q311.45 366.4 314.65 343.8 316.8 328.6 314.45 313.95 L314.4 313.85 Q314.1 308.95 313.3 304.35 L313.0 306.85 311.45 301.25 Q307.2 287.35 299.6 297.5 301.4 296.2 303.7 296.2 306.95 296.2 309.25 298.8 311.55 301.4 311.55 305.1 311.55 308.8 309.25 311.4 307.25 313.65 304.6 313.95 L303.7 314.0 302.85 313.95 Q300.15 313.65 298.15 311.4 295.85 308.8 295.85 305.1 295.85 304.1 296.0 303.25 L294.1 306.95 294.25 307.7 293.95 307.25 293.55 306.45 293.4 308.4 Q292.15 311.1 291.15 313.95 287.2 324.7 286.35 336.9 285.45 349.6 282.05 361.85 276.7 336.25 277.65 313.95 278.3 298.15 282.15 284.0 L325.2 284.0 Q370.25 284.85 383.0 284.0 L393.3 284.0 Q397.05 296.9 397.9 313.95 398.9 335.85 395.1 364.6 L395.15 364.7 Q389.0 345.5 390.15 325.45 390.5 318.95 389.75 313.95 387.55 299.5 375.9 297.2 376.95 297.8 377.9 298.9 380.15 301.45 380.15 305.05 380.15 307.55 379.1 309.55 366.55 314.55 367.6 300.35 363.85 316.2 378.9 309.85 L377.9 311.25 Q375.65 313.8 372.5 313.8 369.35 313.8 367.1 311.25 364.85 308.65 364.85 305.05 364.85 301.45 367.1 298.9 368.4 297.4 370.0 296.75 L368.4 296.85 Q359.4 297.3 359.25 307.7 L359.3 313.95 Q359.55 331.95 362.85 349.75 365.95 366.65 377.65 375.5 379.85 377.9 382.5 380.1 L380.35 377.35 Q383.8 379.55 387.9 381.1 391.6 382.5 394.3 383.05 L393.9 383.2 396.05 383.25 Q404.75 383.85 397.85 370.8 L412.2 390.9 407.45 442.05 Q402.9 445.5 396.1 446.85 L396.05 446.4 399.25 397.35 396.8 394.1 M319.05 381.1 L319.5 380.55 320.1 381.3 319.05 381.1 M322.35 384.3 L323.0 385.1 322.8 385.15 322.35 384.3 M318.75 442.15 L316.05 443.15 314.15 443.8 284.0 447.45 Q280.75 431.7 280.55 402.1 L285.9 394.5 Q303.75 398.25 319.45 392.25 L320.55 391.75 Q327.25 400.6 323.5 416.0 320.15 429.9 318.75 442.15 M279.6 446.8 L265.75 439.9 Q261.3 418.15 262.5 395.95 263.35 379.6 279.0 369.25 L276.1 373.75 Q271.65 381.45 277.3 384.4 281.55 386.65 287.45 385.1 L283.65 389.85 281.35 390.3 Q272.0 390.25 265.55 397.0 L265.2 397.45 267.4 396.75 266.05 398.25 279.55 395.0 277.85 397.1 279.6 446.4 279.6 446.8 M298.85 317.1 L298.65 317.35 298.4 317.35 298.85 317.1 M293.1 356.45 Q295.15 354.5 298.05 354.5 301.05 354.5 303.15 356.6 305.25 358.7 305.25 361.7 305.25 363.35 304.65 364.75 L303.15 366.8 302.9 367.1 Q300.85 368.9 298.05 368.9 295.05 368.9 292.95 366.8 290.85 364.7 290.85 361.7 L291.05 360.1 290.15 361.8 Q290.0 359.55 292.35 357.2 L292.65 356.95 292.7 356.9 292.95 356.6 293.1 356.45 M379.5 273.05 L382.5 273.05 Q384.45 280.35 392.8 282.4 L392.85 282.5 386.55 282.5 Q380.15 279.55 379.5 273.05 M287.5 282.5 L281.7 282.5 284.05 281.65 Q291.35 279.25 294.85 273.2 L299.85 273.3 Q302.15 276.9 287.5 282.5 M375.0 300.25 Q372.35 301.1 373.25 304.65 374.45 308.2 377.4 307.0 380.35 305.85 379.15 302.6 377.7 299.05 375.0 300.25 M365.85 328.4 Q368.65 332.5 372.9 331.3 371.8 334.1 368.0 331.1 366.55 329.95 365.85 328.4 M373.1 330.7 Q369.95 330.7 367.65 327.1 365.25 323.4 366.65 320.75 375.0 314.1 375.35 320.0 374.35 319.4 372.95 320.0 370.0 321.2 371.45 324.15 372.4 326.75 374.35 326.5 L373.1 330.7 M375.0 330.35 L375.05 330.35 374.95 330.4 375.0 330.35 M374.2 336.5 Q376.35 337.1 378.25 339.2 380.9 342.45 380.35 346.3 L380.1 347.5 Q379.15 350.8 375.6 351.3 368.5 352.8 366.45 344.8 364.4 336.85 371.75 336.25 L374.2 336.5 M379.15 341.25 Q377.95 338.3 375.9 339.2 373.25 340.4 374.45 343.05 375.6 346.3 377.7 345.1 380.05 343.95 379.15 341.25 M385.95 369.9 L386.2 369.9 Q390.2 369.35 394.2 371.7 395.95 372.8 396.75 374.15 397.85 375.95 397.15 378.2 395.7 383.5 388.3 381.15 381.2 379.05 381.2 374.05 381.2 370.8 385.95 369.9 M374.0 365.85 Q370.8 362.0 371.6 356.75 371.65 356.3 371.85 355.9 385.55 352.4 383.95 367.0 L376.9 368.3 381.1 367.25 380.95 366.95 379.55 367.2 Q372.05 364.75 375.2 357.75 370.85 361.8 374.0 365.85 M381.5 359.6 Q379.75 357.2 378.25 358.4 376.8 360.15 377.95 362.25 379.45 364.3 381.2 363.1 383.3 361.95 381.5 359.6 M391.85 371.7 Q389.2 370.8 388.3 372.55 387.1 374.35 389.8 375.5 392.45 377.3 393.6 374.95 394.2 372.55 391.85 371.7 M385.25 374.1 Q386.75 385.95 396.0 377.3 388.65 383.05 385.25 374.1 M372.4 337.55 Q363.55 348.45 376.15 349.15 366.75 345.8 372.4 337.55 M266.25 148.1 Q267.6 127.1 258.1 106.9 247.5 84.4 264.85 69.5 272.45 63.0 282.9 60.7 289.9 59.15 296.45 57.15 L309.25 55.4 Q295.35 64.05 285.55 79.65 L280.05 81.95 Q279.3 82.55 279.0 83.45 277.2 83.45 275.9 85.4 274.6 87.35 274.6 90.15 L273.15 88.55 Q273.15 89.0 274.65 91.5 273.1 107.6 272.8 123.0 L273.8 121.9 271.8 125.85 272.7 128.05 272.7 134.6 271.3 150.7 271.25 151.05 266.55 148.3 266.25 148.1 M262.45 211.8 Q255.45 192.75 257.8 172.5 259.3 159.5 266.15 148.35 L276.9 169.5 Q286.4 188.55 284.3 208.3 271.4 206.05 262.45 211.8 M266.2 148.2 L266.25 148.15 266.3 148.25 266.2 148.2 M301.75 102.7 L302.65 111.55 289.6 115.25 Q288.0 109.25 291.15 101.8 292.05 99.9 293.1 98.4 298.7 100.6 301.75 102.7 M287.9 115.7 L277.85 118.95 280.75 94.2 287.9 96.5 287.9 115.7 M285.9 132.8 Q291.05 157.95 304.3 183.6 L290.25 194.55 277.55 136.3 Q281.95 134.3 285.9 132.8 M305.6 182.5 Q291.9 155.85 295.65 129.7 308.2 126.5 314.15 130.3 L315.2 131.1 Q316.4 132.05 317.25 133.45 319.65 155.9 311.45 175.0 309.55 179.35 305.6 182.5 M280.35 210.7 L284.45 211.0 284.65 217.55 Q259.8 219.3 259.6 243.95 259.55 253.3 265.2 259.95 L263.25 261.55 Q245.3 244.8 258.0 223.35 265.4 210.9 280.35 210.7 M306.8 299.05 L305.9 298.55 Q311.35 309.2 300.45 312.05 L301.1 312.35 Q315.45 310.5 306.8 299.05 M309.4 318.55 Q311.65 321.1 311.65 324.7 311.65 328.3 309.4 330.85 307.15 333.4 304.0 333.4 300.85 333.4 298.6 330.85 296.35 328.3 296.35 324.7 296.35 321.1 298.6 318.55 300.85 316.0 304.0 316.0 307.15 316.0 309.4 318.55 M306.85 319.3 L307.15 320.0 Q310.4 330.3 299.8 330.2 L300.0 330.25 Q315.8 330.65 306.85 319.3 M302.95 304.65 Q303.85 301.1 301.2 300.25 298.55 299.05 297.05 302.6 295.9 305.85 298.85 307.0 302.1 307.6 302.95 304.65 M301.8 343.05 Q302.95 340.4 300.6 339.2 298.25 338.3 297.05 341.25 296.45 344.25 298.55 345.1 300.6 346.3 301.8 343.05 M298.25 322.1 Q297.35 325.35 299.7 326.2 302.1 327.1 303.85 324.15 304.75 321.2 302.1 320.0 299.45 318.85 298.25 322.1 M302.95 336.25 Q310.95 335.35 309.45 344.25 308.0 352.8 300.3 351.3 297.2 350.6 296.25 347.65 296.0 346.9 295.9 346.0 295.3 341.55 297.65 338.9 299.15 336.95 301.85 336.4 L302.95 336.25 M279.8 373.05 Q281.8 370.6 287.0 369.9 L289.25 369.65 289.3 369.65 Q294.7 369.35 294.7 374.05 294.7 379.35 286.75 381.45 278.75 383.2 278.45 377.3 278.35 374.75 279.8 373.05 M280.25 377.25 L280.25 377.3 Q281.4 382.6 287.0 380.85 292.95 379.65 291.75 374.65 291.55 373.55 291.15 372.8 L291.15 372.85 Q292.35 377.9 286.45 379.05 281.85 380.5 280.25 377.25 M299.2 349.15 L303.8 349.95 Q312.15 343.3 303.75 337.5 309.8 345.9 299.9 349.0 L299.2 349.15 M300.9 358.7 L299.6 357.4 Q302.85 361.45 299.15 365.2 296.35 368.2 293.4 366.5 297.1 370.45 300.6 366.35 304.75 362.55 300.9 358.7 M293.8 363.1 Q296.2 364.3 297.05 361.95 298.55 360.15 296.75 358.4 295.3 357.2 293.5 359.6 291.75 361.95 293.8 363.1 M286.45 375.5 Q289.1 374.35 287.9 372.55 287.0 370.8 284.35 371.7 281.7 372.85 282.9 374.95 283.8 377.3 286.45 375.5 M279.15 448.7 L265.1 481.55 Q255.35 476.55 249.25 465.85 254.85 453.2 264.9 441.35 270.1 446.75 279.15 448.7 M293.6 485.35 L297.8 449.3 313.9 445.85 Q310.4 471.9 300.9 483.95 L293.6 485.35 M262.0 514.55 L249.05 503.15 249.25 469.4 264.25 483.45 262.0 514.55 M269.3 485.45 Q276.25 487.7 284.95 487.7 292.35 487.7 299.9 486.1 301.35 489.65 302.4 520.85 286.2 524.45 270.5 518.65 L269.0 518.05 269.3 485.45 M423.2 471.85 Q418.85 477.2 412.35 480.55 411.8 477.35 396.7 448.7 403.6 447.25 408.35 443.75 L423.2 471.85 M385.35 485.3 L377.55 484.15 Q365.75 469.65 364.8 451.0 364.7 448.8 364.85 446.65 370.55 448.3 376.9 449.1 L385.35 485.3 M410.6 483.8 L427.0 469.1 426.95 502.8 412.05 515.7 410.6 483.8 M404.85 518.9 L377.45 521.5 378.55 486.55 405.4 485.8 404.85 518.9 M376.8 521.4 L376.7 521.35 376.7 520.9 376.8 521.4" fill="#6bbd46" fill-rule="evenodd" stroke="none"/>
    <path d="M336.4 510.65 L338.1 509.0 339.25 510.05 336.4 510.65 M296.7 -10.25 L298.25 -9.2 Q301.5 -6.8 291.5 -8.5 L290.2 -9.7 289.75 -13.05 291.5 -12.5 296.7 -10.25 M382.35 -8.9 Q377.05 -6.35 375.3 -10.1 L379.6 -12.45 376.05 -10.35 383.3 -13.35 382.75 -9.2 382.35 -8.9 M289.5 -45.0 L294.1 -44.05 304.85 -29.7 309.85 -31.7 319.85 -29.3 Q332.9 -25.25 346.95 -28.05 L363.9 -31.65 368.3 -30.15 Q378.2 -32.5 380.65 -44.35 L383.25 -44.15 Q375.75 -30.95 364.9 -22.7 350.05 -11.4 330.8 -11.2 304.35 -10.95 295.7 -33.5 293.4 -39.45 289.2 -44.35 L289.5 -45.0 M397.3 83.1 Q399.2 83.1 400.55 85.05 401.9 86.95 401.9 89.7 L397.55 93.7 397.75 84.25 397.65 84.05 397.3 83.1 M401.9 89.75 Q403.7 106.7 403.9 122.95 L402.0 121.05 398.05 97.4 401.9 89.75 M403.9 130.15 L403.8 134.3 405.25 150.7 410.15 147.9 391.25 193.05 392.45 208.2 389.8 208.7 387.1 196.6 397.4 158.4 398.15 155.3 Q402.55 156.4 405.45 153.5 L410.15 147.9 405.45 152.0 Q402.2 154.35 398.65 153.2 400.55 139.6 400.7 134.9 L401.25 133.95 Q403.2 132.6 403.9 130.15 M366.45 26.25 L305.05 26.5 Q301.2 26.25 300.3 23.85 L372.65 23.85 Q373.25 25.65 366.45 26.25 M345.3 63.85 Q338.2 64.85 331.0 64.05 L331.45 60.6 344.6 60.2 345.3 63.85 M303.25 99.75 Q305.05 104.75 303.85 104.45 L303.25 99.75 M315.4 126.6 Q319.15 128.5 318.65 133.55 317.85 128.75 315.4 126.6 M358.55 128.85 Q359.75 124.75 365.85 125.15 L367.4 125.3 Q360.7 125.7 358.55 128.85 M376.4 126.75 L386.15 128.3 Q392.15 130.15 398.3 134.2 398.6 134.4 398.6 135.1 L395.25 133.75 Q389.8 131.65 385.15 130.3 374.6 127.2 368.05 127.8 372.15 126.7 376.4 126.75 M346.8 63.6 L346.4 60.2 364.95 57.45 364.55 57.65 Q361.0 59.45 357.45 60.75 352.15 62.7 346.8 63.6 M310.0 57.95 L310.9 57.55 313.7 57.5 Q319.85 59.4 329.55 60.2 L329.25 63.85 Q324.25 63.1 319.25 61.55 L312.6 59.1 310.0 57.95 M391.55 95.7 Q388.45 96.25 385.8 97.05 378.7 99.2 374.45 103.3 L374.7 100.95 Q376.8 99.45 394.2 91.5 L395.55 95.15 391.55 95.7 M363.35 54.75 Q343.35 61.55 322.2 58.3 314.65 57.3 309.35 52.45 333.35 60.05 359.95 51.15 L366.3 51.35 363.35 54.75 M349.6 122.5 L349.6 172.7 326.6 172.7 326.6 122.5 Q338.1 127.8 349.6 122.5 M299.0 200.9 L326.6 174.45 349.7 174.7 377.4 200.75 377.3 205.05 373.85 222.3 Q354.9 245.4 373.5 259.05 L362.9 259.5 362.9 215.5 372.35 209.3 371.65 197.55 304.8 197.35 304.05 209.35 313.3 215.2 313.3 259.5 303.2 259.5 Q321.4 246.0 300.9 220.5 L299.0 200.9 M358.8 217.55 L358.8 239.2 Q333.7 224.3 317.75 239.1 L318.05 217.55 358.8 217.55 M351.7 270.4 L324.5 270.4 324.8 261.55 351.7 261.55 351.7 270.4 M357.5 442.15 L352.6 439.9 Q349.05 419.4 348.35 398.1 348.05 388.05 356.1 380.55 360.05 386.45 365.85 386.55 L366.6 386.6 Q350.95 377.65 347.65 356.2 344.45 335.5 341.6 314.55 L341.55 313.95 Q339.9 301.95 340.9 296.75 L341.25 296.75 341.7 296.3 Q341.9 295.8 341.7 295.3 L341.2 294.4 340.75 294.05 335.45 295.75 338.05 289.9 Q348.55 298.0 347.75 313.3 L347.75 313.95 Q346.75 333.7 349.35 353.3 352.15 374.5 367.6 386.6 L369.75 388.2 393.45 390.75 Q402.8 393.65 411.05 398.55 L396.8 394.1 390.9 393.95 Q373.7 398.05 358.5 392.35 357.7 392.0 357.05 391.4 349.0 414.8 357.5 442.15 M335.2 296.35 L336.05 296.4 334.15 313.95 Q331.65 333.05 327.65 351.85 325.1 363.85 320.85 375.35 318.1 382.9 312.45 386.15 316.15 384.75 319.05 381.1 L320.1 381.3 322.35 384.3 322.8 385.15 323.0 385.1 Q332.05 394.1 329.3 407.05 325.85 423.35 323.65 439.9 L318.75 442.15 Q320.15 429.9 323.5 416.0 327.25 400.6 320.55 391.75 L319.45 392.25 Q303.75 398.25 285.9 394.5 L279.55 395.0 266.05 398.25 267.4 396.75 Q280.1 392.4 293.5 389.6 L303.4 388.55 310.0 386.95 310.1 386.75 311.75 383.45 Q322.25 361.85 324.8 338.1 326.15 325.5 329.25 313.95 331.65 304.8 335.2 296.35 M314.4 313.85 L314.4 313.95 Q315.1 326.6 312.1 341.25 310.65 335.95 306.8 334.8 312.1 333.0 313.3 325.05 314.5 316.45 308.3 314.7 L308.95 313.95 Q312.1 310.2 313.0 306.85 L313.3 304.35 Q314.1 308.95 314.4 313.85 M294.25 307.7 Q295.1 312.0 297.55 313.95 298.75 314.9 300.3 315.3 L298.85 317.1 298.4 317.35 298.65 317.35 Q289.85 328.2 300.7 335.0 L300.9 335.05 Q289.7 342.1 297.4 351.95 L293.1 356.45 292.95 356.6 292.7 356.9 292.65 356.95 292.35 357.2 Q290.0 359.55 290.15 361.8 L290.75 367.9 281.25 370.8 Q290.1 345.5 292.95 313.95 L293.4 308.4 293.55 306.45 293.95 307.25 294.25 307.7 M304.65 364.75 L305.05 364.0 Q308.9 357.5 305.35 353.1 307.7 352.2 310.35 348.95 307.1 370.2 293.8 379.65 293.5 380.25 293.5 379.65 L296.2 375.8 Q297.05 372.85 295.9 370.8 299.9 370.35 302.9 367.1 L303.15 366.8 304.65 364.75 M325.2 284.0 L383.0 284.0 Q370.25 284.85 325.2 284.0 M379.1 309.55 L379.4 309.4 379.2 309.7 378.9 309.85 Q363.85 316.2 367.6 300.35 366.55 314.55 379.1 309.55 M377.65 375.5 Q367.55 364.6 365.25 348.95 L370.05 352.85 Q366.65 364.55 378.7 370.6 L379.8 376.7 380.35 377.35 382.5 380.1 Q379.85 377.9 377.65 375.5 M394.3 383.05 Q399.25 380.45 398.95 377.3 400.4 379.95 398.65 381.7 397.55 382.95 396.05 383.25 L393.9 383.2 394.3 383.05 M386.55 282.5 L287.5 282.5 Q302.15 276.9 299.85 273.3 L379.5 273.05 Q380.15 279.55 386.55 282.5 M360.85 258.9 L359.95 213.7 315.95 213.7 315.55 236.3 315.45 211.65 360.85 211.35 360.85 258.9 M382.0 304.4 L382.9 313.95 Q384.55 330.15 387.4 344.9 389.95 358.35 395.45 370.9 L390.5 369.05 385.35 368.45 Q387.9 358.15 377.7 352.5 383.6 348.2 381.05 340.8 380.05 337.95 377.55 336.1 L377.45 336.05 375.3 335.05 Q386.95 326.95 375.6 315.3 L378.2 313.95 Q382.3 311.1 381.9 305.45 L382.0 304.4 M367.65 314.7 Q361.75 316.75 362.6 325.05 363.5 333.3 369.1 334.5 364.4 337.45 363.8 341.25 361.1 329.1 361.65 313.95 361.8 309.3 362.3 304.35 362.85 310.0 366.85 313.95 L367.65 314.7 M365.85 328.4 L364.25 322.8 Q364.85 320.65 367.65 318.85 368.7 318.25 369.7 317.95 367.5 319.15 366.65 320.75 365.25 323.4 367.65 327.1 369.95 330.7 373.1 330.7 L372.95 331.1 372.9 331.3 Q368.65 332.5 365.85 328.4 M376.9 368.3 L375.45 367.4 374.2 366.1 374.0 365.85 Q370.85 361.8 375.2 357.75 372.05 364.75 379.55 367.2 L380.95 366.95 381.1 367.25 376.9 368.3 M385.25 374.1 Q388.65 383.05 396.0 377.3 386.75 385.95 385.25 374.1 M409.15 395.25 Q411.9 396.9 411.05 398.55 411.25 396.9 409.15 395.25 M372.4 337.55 Q366.75 345.8 376.15 349.15 363.55 348.45 372.4 337.55 M266.15 148.35 L266.2 148.2 266.3 148.25 270.5 153.5 Q273.75 156.45 278.15 155.25 283.8 181.85 289.1 196.3 L286.45 208.7 284.3 208.3 Q286.4 188.55 276.9 169.5 L266.15 148.35 M271.3 150.7 L272.7 134.6 272.7 128.05 275.1 133.75 275.5 134.25 276.6 153.4 271.3 150.7 M273.8 121.9 L272.8 123.0 Q273.1 107.6 274.65 91.5 L277.85 97.85 275.5 119.55 273.8 121.9 M274.6 90.15 Q274.6 87.35 275.9 85.4 277.2 83.45 279.0 83.45 L278.8 84.2 Q277.5 87.65 279.65 90.6 L278.75 94.75 274.6 90.15 M280.75 94.2 L280.95 93.6 282.2 91.7 Q293.65 96.3 301.5 100.65 L301.75 102.7 Q298.7 100.6 293.1 98.4 L287.9 96.5 280.75 94.2 M295.65 129.7 Q291.2 130.8 285.9 132.8 281.95 134.3 277.55 136.3 L277.4 134.75 277.85 133.4 Q299.4 120.05 314.15 130.3 308.2 126.5 295.65 129.7 M317.25 133.45 Q316.4 132.05 315.2 131.1 L316.8 132.4 317.25 133.45 M306.8 299.05 Q315.45 310.5 301.1 312.35 L300.45 312.05 Q311.35 309.2 305.9 298.55 L306.8 299.05 M306.85 319.3 Q315.8 330.65 300.0 330.25 L299.8 330.2 Q310.4 330.3 307.15 320.0 L306.85 319.3 M280.25 377.25 Q281.85 380.5 286.45 379.05 292.35 377.9 291.15 372.85 L291.15 372.8 Q291.55 373.55 291.75 374.65 292.95 379.65 287.0 380.85 281.4 382.6 280.25 377.3 L280.25 377.25 M283.5 390.05 L281.35 390.3 283.65 389.85 283.5 390.05 M277.3 382.0 Q275.5 380.25 276.7 377.3 277.0 382.0 282.0 382.9 279.35 383.8 277.3 382.0 M299.2 349.15 L299.9 349.0 Q309.8 345.9 303.75 337.5 312.15 343.3 303.8 349.95 L299.2 349.15 M300.9 358.7 Q304.75 362.55 300.6 366.35 297.1 370.45 293.4 366.5 296.35 368.2 299.15 365.2 302.85 361.45 299.6 357.4 L300.9 358.7 M289.2 389.85 L289.45 389.45 292.65 389.7 289.2 389.85 M299.9 486.1 Q317.3 483.05 329.85 470.9 L333.1 467.35 333.4 505.75 Q328.8 510.75 322.45 513.8 L316.75 516.45 Q309.85 519.7 302.4 520.85 301.35 489.65 299.9 486.1 M300.9 483.95 Q310.4 471.9 313.9 445.85 L323.65 441.65 333.05 464.1 332.8 464.6 Q320.9 480.15 300.9 483.95 M377.55 484.15 Q351.7 479.55 342.85 463.5 L352.3 441.65 356.25 443.55 356.55 443.7 Q360.5 445.4 364.85 446.65 364.7 448.8 364.8 451.0 365.75 469.65 377.55 484.15 M377.45 521.5 L376.8 521.4 376.7 520.9 376.7 521.35 Q357.85 518.85 343.15 506.9 L342.8 506.5 342.8 467.2 Q356.8 483.35 378.55 486.55 L377.45 521.5" fill="#016a3a" fill-rule="evenodd" stroke="none"/>
    <path d="M251.85 65.7 L251.55 66.1 251.6 65.8 251.85 65.7 M425.85 67.65 L423.1 63.95 425.2 65.2 425.85 67.65 M288.75 -42.0 Q267.85 -28.0 267.85 -24.85 265.6 -21.4 270.85 -19.6 L265.75 -21.0 Q264.8 -37.15 286.15 -45.2 L288.75 -42.0 M291.5 -8.5 L296.85 24.0 290.2 -9.7 291.5 -8.5 M376.25 22.9 Q378.35 10.7 380.9 -7.75 L382.35 -8.9 382.75 -9.2 Q380.9 10.5 376.35 23.1 L376.25 22.9 M402.55 -19.55 L404.5 -21.35 Q397.85 -34.35 385.6 -43.95 400.75 -40.05 407.75 -22.4 L407.75 -21.95 402.55 -19.55 M367.15 -17.0 L369.1 -17.75 Q359.85 -11.85 349.65 -8.35 328.4 -1.0 308.15 -15.0 329.1 -7.75 351.0 -11.55 359.55 -13.1 367.15 -17.0 M304.25 -17.0 L302.4 -18.05 303.4 -17.55 304.25 -17.0 M361.3 -33.45 Q340.85 -26.5 318.9 -31.15 315.6 -31.9 312.45 -32.95 L361.3 -33.45 M290.4 -46.7 L287.0 -47.3 Q300.9 -77.1 331.9 -79.2 371.2 -81.55 385.95 -46.7 L383.8 -46.55 Q371.4 -64.9 350.75 -70.65 329.65 -76.5 310.5 -65.6 298.25 -58.6 290.4 -46.7 M319.85 -29.3 L346.95 -28.05 Q332.9 -25.25 319.85 -29.3 M289.2 -44.35 L288.5 -45.2 289.5 -45.0 289.2 -44.35 M366.45 -51.15 Q332.2 -31.95 310.05 -51.4 332.8 -42.85 366.45 -51.15 M412.45 143.2 L413.0 138.4 Q416.15 117.85 421.8 97.7 428.35 74.2 408.6 65.95 396.4 60.85 383.5 57.5 407.25 56.5 419.75 73.45 429.4 86.6 424.0 103.45 417.6 123.2 412.45 143.2 M416.0 213.5 L414.0 211.95 Q422.1 191.25 415.65 170.3 411.85 157.95 412.3 145.95 418.2 159.05 420.5 173.45 423.55 192.4 418.8 211.15 417.9 214.8 416.0 213.5 M375.75 25.7 L373.05 43.15 371.3 44.6 Q373.15 40.15 375.75 25.7 M301.45 44.15 L299.7 42.75 296.2 28.6 297.3 26.7 Q299.9 41.05 301.45 44.15 M310.25 41.85 Q321.0 48.2 344.9 47.2 353.5 46.75 359.4 44.7 334.3 62.3 308.3 41.0 L310.25 41.85 M313.85 29.15 L370.3 28.9 Q349.55 31.7 328.6 29.8 L313.85 29.15 M289.15 82.75 Q280.7 81.9 280.55 88.55 279.05 86.45 280.8 84.1 L283.8 81.45 Q284.75 81.25 289.15 82.75 M296.85 115.55 Q292.55 117.4 285.25 119.55 271.2 123.3 275.45 130.85 L273.75 128.3 Q273.75 123.0 280.55 119.3 287.3 115.55 296.85 115.55 M317.6 162.15 L318.05 159.4 Q319.5 172.4 317.75 175.95 315.65 179.75 305.65 184.8 312.45 181.0 314.75 176.55 L317.6 162.15 M368.8 183.85 Q360.75 178.75 358.5 174.15 356.4 169.2 358.2 159.25 L359.95 174.45 Q361.0 176.5 368.8 183.85 M400.5 131.65 Q404.25 124.25 394.15 118.95 405.55 122.0 400.8 131.4 L400.5 131.65 M394.8 89.2 L394.8 89.1 Q396.7 80.5 384.85 83.65 L392.45 81.45 Q394.2 83.35 395.55 85.55 396.95 87.8 394.8 89.2 M357.45 60.75 Q361.0 59.45 364.55 57.65 372.7 65.9 381.8 82.65 L380.45 83.1 Q375.9 69.6 357.45 60.75 M297.6 83.9 L296.4 83.45 Q304.65 67.5 312.6 59.1 L319.25 61.55 Q301.95 70.45 297.6 83.9 M385.8 97.05 Q388.45 96.25 391.55 95.7 L391.55 116.5 389.7 115.95 Q391.95 106.45 386.5 98.1 L385.8 97.05 M385.15 130.3 Q389.8 131.65 395.25 133.75 390.0 159.75 376.2 186.25 L374.8 186.0 374.55 185.8 Q389.5 157.75 385.15 130.3 M412.55 261.3 Q426.5 249.95 424.65 234.95 428.3 254.25 412.55 261.3 M390.9 393.95 L396.8 394.1 399.25 397.35 396.05 446.4 396.1 446.85 391.45 447.5 Q395.25 431.95 396.3 402.1 L390.9 393.95 M284.0 447.45 L279.6 446.8 279.6 446.4 277.85 397.1 279.55 395.0 285.9 394.5 280.55 402.1 Q280.75 431.7 284.0 447.45 M287.45 385.1 L295.1 381.45 289.45 389.45 289.2 389.85 283.5 390.05 283.65 389.85 287.45 385.1 M282.05 361.85 L280.8 365.5 Q275.1 340.6 275.65 313.95 275.95 299.25 278.15 284.0 L282.15 284.0 Q278.3 298.15 277.65 313.95 276.7 336.25 282.05 361.85 M393.3 284.0 L398.05 284.0 Q400.15 299.15 400.45 313.95 400.9 340.3 395.4 365.5 L395.25 365.1 395.2 365.0 395.15 364.7 395.1 364.6 Q398.9 335.85 397.9 313.95 397.05 296.9 393.3 284.0 M397.85 370.8 L396.95 368.9 414.0 389.7 410.15 439.6 407.45 442.05 412.2 390.9 397.85 370.8 M382.5 273.05 L389.05 273.25 396.55 282.5 392.85 282.5 392.8 282.4 Q384.45 280.35 382.5 273.05 M281.7 282.5 L279.95 282.2 287.0 273.05 294.85 273.2 Q291.35 279.25 284.05 281.65 L281.7 282.5 M296.45 57.15 Q289.9 59.15 282.9 60.7 272.45 63.0 264.85 69.5 247.5 84.4 258.1 106.9 267.6 127.1 266.25 148.1 L266.05 147.9 266.25 148.15 266.2 148.2 266.15 148.35 Q259.3 159.5 257.8 172.5 255.45 192.75 262.45 211.8 251.6 199.1 255.9 174.0 258.45 158.95 264.1 144.7 255.35 117.15 252.15 88.2 249.2 61.65 276.35 59.8 286.45 59.1 296.45 57.15 M279.0 83.45 Q279.3 82.55 280.05 81.95 L278.8 84.2 279.0 83.45 M289.6 115.25 L287.9 115.7 287.9 96.5 293.1 98.4 Q292.05 99.9 291.15 101.8 288.0 109.25 289.6 115.25 M285.9 132.8 Q291.2 130.8 295.65 129.7 291.9 155.85 305.6 182.5 L304.3 183.6 Q291.05 157.95 285.9 132.8 M263.25 261.55 Q253.0 257.75 251.1 243.75 247.65 218.7 272.05 210.9 L280.65 210.65 280.35 210.7 Q265.4 210.9 258.0 223.35 245.3 244.8 263.25 261.55 M265.1 481.55 L279.15 448.7 297.8 449.3 293.6 485.35 284.95 485.95 Q273.65 485.95 265.1 481.55 M264.25 483.45 L269.3 485.45 269.0 518.05 Q265.3 516.55 262.0 514.55 L264.25 483.45 M408.35 443.75 L411.05 441.35 Q420.8 452.9 427.0 465.85 425.4 469.1 423.2 471.85 L408.35 443.75 M412.35 480.55 L408.95 482.1 Q398.25 486.45 385.35 485.3 L376.9 449.1 396.7 448.7 Q411.8 477.35 412.35 480.55 M410.6 483.8 L412.05 515.7 Q408.65 517.55 404.85 518.9 L405.4 485.8 410.6 483.8" fill="#f2f5d3" fill-rule="evenodd" stroke="none"/>
    <path d="M375.0 300.25 Q377.7 299.05 379.15 302.6 380.35 305.85 377.4 307.0 374.45 308.2 373.25 304.65 372.35 301.1 375.0 300.25 M375.35 320.0 Q376.25 320.55 376.8 322.1 377.95 325.35 375.3 326.2 L374.35 326.5 Q372.4 326.75 371.45 324.15 370.0 321.2 372.95 320.0 374.35 319.4 375.35 320.0 M379.15 341.25 Q380.05 343.95 377.7 345.1 375.6 346.3 374.45 343.05 373.25 340.4 375.9 339.2 377.95 338.3 379.15 341.25 M381.5 359.6 Q383.3 361.95 381.2 363.1 379.45 364.3 377.95 362.25 376.8 360.15 378.25 358.4 379.75 357.2 381.5 359.6 M391.85 371.7 Q394.2 372.55 393.6 374.95 392.45 377.3 389.8 375.5 387.1 374.35 388.3 372.55 389.2 370.8 391.85 371.7 M302.95 304.65 Q302.1 307.6 298.85 307.0 295.9 305.85 297.05 302.6 298.55 299.05 301.2 300.25 303.85 301.1 302.95 304.65 M298.25 322.1 Q299.45 318.85 302.1 320.0 304.75 321.2 303.85 324.15 302.1 327.1 299.7 326.2 297.35 325.35 298.25 322.1 M301.8 343.05 Q300.6 346.3 298.55 345.1 296.45 344.25 297.05 341.25 298.25 338.3 300.6 339.2 302.95 340.4 301.8 343.05 M293.8 363.1 Q291.75 361.95 293.5 359.6 295.3 357.2 296.75 358.4 298.55 360.15 297.05 361.95 296.2 364.3 293.8 363.1 M286.45 375.5 Q283.8 377.3 282.9 374.95 281.7 372.85 284.35 371.7 287.0 370.8 287.9 372.55 289.1 374.35 286.45 375.5" fill="#e0f3c6" fill-rule="evenodd" stroke="none"/>
  </g>
</svg>
