<?xml version="1.0" encoding="UTF-8" standalone="no"?>
<svg xmlns:xlink="http://www.w3.org/1999/xlink" height="460.25px" width="157.45px" xmlns="http://www.w3.org/2000/svg">
  <g transform="matrix(1.0, 0.0, 0.0, 1.0, 78.7, 230.1)">
    <path d="M24.15 -80.2 L25.35 -80.2 16.85 -82.4 16.75 -82.4 -28.65 -94.2 -20.95 -94.05 -17.65 -93.1 -15.95 -92.0 -9.0 -90.6 -7.6 -90.2 21.0 -83.0 21.1 -83.0 29.1 -80.95 Q31.15 -79.3 33.7 -78.25 L40.25 -75.55 Q42.2 -74.7 43.75 -73.7 L34.55 -75.5 Q34.2 -67.2 35.45 -51.25 L39.6 22.85 51.8 32.9 Q62.4 40.55 64.25 42.9 L60.95 48.25 Q63.0 48.85 62.45 50.0 61.25 52.1 61.6 52.65 L65.4 55.05 76.4 65.95 Q78.15 68.9 75.5 71.85 77.55 73.05 77.55 77.2 L51.45 109.95 Q49.65 113.5 49.35 113.5 47.6 113.8 43.45 111.15 35.45 106.7 27.7 100.5 L25.35 102.55 23.6 104.95 23.0 156.6 30.4 156.6 Q32.15 157.2 34.55 160.45 L38.4 164.3 44.65 173.45 50.85 182.3 50.85 229.55 40.45 230.15 -36.65 229.85 -37.15 228.9 -37.3 228.4 Q-37.9 226.1 -37.9 221.0 L-37.9 68.6 Q-37.6 62.7 -31.95 53.55 -33.75 52.95 -38.75 53.55 -43.2 54.15 -44.65 52.95 -45.9 52.1 -45.85 45.0 L-46.15 16.95 -47.4 14.3 -49.15 11.6 -51.5 6.3 Q-53.6 -1.05 -48.55 -14.95 -45.9 -21.75 -45.85 -22.65 L-45.85 -80.8 Q-44.65 -82.85 -40.85 -82.85 L-40.85 -94.4 -41.45 -94.5 -36.05 -94.4 -36.05 -90.65 -36.05 -80.2 -2.45 -80.2 24.15 -80.2 M30.0 -69.25 L29.5 -78.15 29.2 -78.75 16.4 -78.7 16.15 -78.7 16.05 -78.7 2.4 -78.65 -6.55 -78.55 Q-31.85 -78.3 -41.15 -77.55 L-41.15 -52.8 -41.15 -30.0 -34.6 -45.35 Q-26.9 -63.4 -23.9 -66.35 -16.5 -73.1 -7.0 -73.1 3.95 -73.1 11.4 -64.55 19.1 -55.7 16.15 -43.9 L13.65 -38.55 -1.65 -5.8 0.15 -3.65 13.2 11.9 28.6 29.05 24.2 34.65 35.45 34.65 30.0 -69.25 M8.3 50.0 L27.15 29.05 -3.15 -5.5 10.8 -35.35 Q16.15 -45.95 15.85 -51.0 15.25 -59.55 9.3 -65.45 3.35 -71.35 -5.5 -71.95 -16.55 -72.7 -23.4 -65.3 -25.65 -62.9 -27.4 -59.7 L-29.3 -55.65 -29.55 -55.1 -30.2 -53.25 -38.45 -29.7 Q-45.3 -12.3 -47.1 -4.3 -48.55 2.45 -45.55 9.25 L-39.35 20.2 -28.7 35.85 Q-20.1 46.35 -2.45 59.3 L-2.3 59.45 -1.05 60.35 0.85 58.25 2.2 56.8 8.3 50.0 M43.7 41.45 L44.25 41.85 Q41.9 40.35 39.85 39.7 L39.6 39.7 Q39.85 42.35 45.55 48.85 58.0 63.3 69.25 71.85 L58.0 60.95 Q51.15 54.15 47.9 48.25 50.1 47.95 52.85 50.0 54.85 51.0 57.55 52.95 55.65 50.85 50.25 46.45 L48.4 44.85 48.8 45.15 58.0 52.35 Q59.15 51.5 60.05 51.2 L61.6 50.0 49.35 40.55 Q41.95 34.95 38.4 29.95 L38.7 38.5 39.3 38.75 43.55 41.35 43.65 41.4 43.7 41.45 M49.65 48.55 Q49.35 48.55 49.1 48.85 L50.95 49.2 49.65 48.55 M60.65 48.25 L51.15 40.55 Q45.85 35.85 43.45 31.1 46.15 31.4 55.6 38.5 45.25 29.05 37.8 26.1 37.8 28.75 42.6 32.9 49.35 39.95 61.25 49.1 61.55 48.85 60.65 48.25 M36.7 36.15 L36.65 35.85 22.7 35.85 23.05 36.15 26.9 39.45 33.4 45.0 36.05 41.45 36.75 39.7 Q37.15 37.95 36.7 36.15 M26.75 53.7 L32.2 46.45 22.05 37.3 16.8 43.2 10.75 49.95 4.85 56.5 4.3 57.1 15.85 68.3 16.2 67.8 21.9 60.2 26.75 53.7 M3.1 58.3 L2.35 59.0 -0.8 61.8 -17.7 48.85 Q-31.35 57.7 -33.1 77.75 L-33.1 225.4 -29.0 225.4 46.4 225.4 46.15 184.95 18.8 184.95 18.8 102.0 Q19.1 100.5 22.05 98.45 25.0 96.35 25.65 94.6 L17.05 86.65 Q10.5 79.25 10.5 76.6 10.5 75.1 12.25 73.05 L13.0 72.05 14.95 69.5 3.1 58.3 M15.95 71.4 L14.7 73.15 11.95 76.9 Q11.4 79.25 18.2 86.9 L26.55 94.3 28.6 94.3 46.7 107.6 71.65 76.3 70.15 74.5 Q68.95 73.35 68.65 72.45 45.25 51.2 38.7 41.15 L28.6 53.85 15.95 71.4 M27.4 166.95 L20.3 167.25 Q23.25 168.1 33.95 167.25 L27.4 166.95 M69.25 71.0 L70.45 69.8 70.5 69.75 71.65 68.6 60.0 57.3 60.6 62.6 69.25 71.0 M34.25 168.7 L20.3 168.7 20.3 183.5 45.55 183.75 41.05 176.7 Q35.45 169.6 34.25 168.7 M20.9 161.35 Q20.3 161.9 20.3 165.75 L31.85 165.75 30.65 163.7 28.6 161.65 20.9 161.35 M-25.8 40.85 L-30.45 35.85 -40.85 35.85 -40.85 40.85 -40.85 48.85 -29.55 48.85 Q-22.75 48.85 -20.65 46.45 L-25.8 40.85 M-31.85 34.65 L-31.65 34.65 -33.1 32.0 -40.3 23.45 -40.55 23.15 -40.55 23.65 -40.65 27.2 -40.85 34.65 -31.85 34.65" fill="#000000" fill-rule="evenodd" stroke="none"/>
    <path d="M29.1 -80.95 L21.1 -83.0 27.0 -83.0 29.1 -80.95 M21.0 -83.0 L-7.6 -90.2 -9.0 -90.6 -6.2 -89.95 -1.0 -89.5 Q2.0 -89.5 4.7 -88.35 9.25 -86.25 16.0 -86.0 L21.0 -83.0 M-17.65 -93.1 L-20.95 -94.05 -18.95 -94.0 -17.65 -93.1 M30.0 -69.25 L35.45 34.65 24.2 34.65 28.6 29.05 13.2 11.9 0.15 -3.65 13.65 -38.55 16.15 -43.9 Q19.1 -55.7 11.4 -64.55 3.95 -73.1 -7.0 -73.1 -16.5 -73.1 -23.9 -66.35 -26.9 -63.4 -34.6 -45.35 L-41.15 -30.0 -41.15 -52.8 -39.25 -56.15 Q-33.65 -73.0 -23.75 -72.1 -9.75 -78.25 9.6 -74.6 L25.05 -70.75 Q27.8 -69.7 30.0 -69.25 M-6.55 -78.55 L2.4 -78.65 3.1 -78.45 5.3 -78.5 5.45 -78.45 16.05 -78.7 16.15 -78.7 16.4 -78.7 10.8 -78.15 10.9 -78.1 -6.55 -78.55 M-23.4 -65.3 Q-16.55 -72.7 -5.5 -71.95 3.35 -71.35 9.3 -65.45 15.25 -59.55 15.85 -51.0 16.15 -45.95 10.8 -35.35 L-3.15 -5.5 27.15 29.05 8.3 50.0 Q-34.3 16.8 -28.4 -12.9 -26.6 -22.65 -18.6 -35.6 -9.1 -50.7 -7.6 -54.5 -0.55 -81.25 -23.4 -65.3 M-30.2 -53.25 L-29.55 -55.1 -29.3 -55.65 -27.4 -59.7 -30.0 -53.55 -30.2 -53.25 M43.7 41.45 L43.65 41.4 43.55 41.35 39.3 38.75 38.7 38.5 38.4 29.95 Q41.95 34.95 49.35 40.55 L61.6 50.0 60.05 51.2 Q59.15 51.5 58.0 52.35 L48.8 45.15 48.25 44.75 48.4 44.85 50.25 46.45 Q55.65 50.85 57.55 52.95 54.85 51.0 52.85 50.0 50.1 47.95 47.9 48.25 51.15 54.15 58.0 60.95 L69.25 71.85 Q58.0 63.3 45.55 48.85 39.85 42.35 39.6 39.7 L39.85 39.7 Q41.9 40.35 44.25 41.85 L44.35 41.9 43.7 41.45 M60.65 48.25 Q61.55 48.85 61.25 49.1 49.35 39.95 42.6 32.9 37.8 28.75 37.8 26.1 45.25 29.05 55.6 38.5 46.15 31.4 43.45 31.1 45.85 35.85 51.15 40.55 L60.65 48.25 M16.8 43.2 L22.05 37.3 32.2 46.45 26.75 53.7 27.7 52.35 16.8 43.2 M2.35 59.0 L3.1 58.3 2.3 59.55 2.35 59.0 M13.0 72.05 L12.25 73.05 Q10.5 75.1 10.5 76.6 10.5 79.25 17.05 86.65 L25.65 94.6 Q25.0 96.35 22.05 98.45 19.1 100.5 18.8 102.0 L18.8 184.95 46.15 184.95 46.4 225.4 -29.0 225.4 Q-29.0 88.15 -4.25 71.25 L1.3 70.7 1.45 69.0 Q6.75 68.25 13.0 72.05 M14.7 73.15 L16.15 74.2 15.95 71.4 28.6 53.85 38.7 41.15 Q45.25 51.2 68.65 72.45 68.95 73.35 70.15 74.5 L71.65 76.3 46.7 107.6 28.6 94.3 26.55 94.3 18.2 86.9 Q11.4 79.25 11.95 76.9 L14.7 73.15 M15.55 76.9 L15.6 77.0 14.7 77.45 Q32.75 99.3 47.0 103.45 16.8 77.4 42.95 53.05 L38.1 48.25 15.55 76.9 M20.9 161.35 L28.6 161.65 30.65 163.7 31.85 165.75 20.3 165.75 Q20.3 161.9 20.9 161.35 M34.25 168.7 Q35.45 169.6 41.05 176.7 L45.55 183.75 20.3 183.5 20.3 168.7 34.25 168.7 M-31.85 34.65 L-40.85 34.65 -40.65 27.2 -31.85 34.65 M-40.55 23.65 L-40.55 23.15 -40.3 23.45 -40.55 23.65" fill="#ffffff" fill-rule="evenodd" stroke="none"/>
    <path d="M16.85 -82.4 L25.35 -80.2 24.15 -80.2 17.25 -82.25 16.85 -82.4 M-2.45 -80.2 L-36.05 -80.2 -36.05 -90.65 -34.9 -90.4 -2.45 -80.2" fill="#ffe600" fill-rule="evenodd" stroke="none"/>
    <path d="M-37.3 228.4 L-37.15 228.9 -37.3 228.95 -37.3 228.4 M16.4 -78.7 L29.2 -78.75 29.5 -78.15 30.0 -69.25 Q27.8 -69.7 25.05 -70.75 L9.6 -74.6 Q-9.75 -78.25 -23.75 -72.1 -33.65 -73.0 -39.25 -56.15 L-41.15 -52.8 -41.15 -77.55 Q-31.85 -78.3 -6.55 -78.55 L10.9 -78.1 10.8 -78.15 16.4 -78.7 M0.15 -3.65 L-1.65 -5.8 13.65 -38.55 0.15 -3.65 M8.3 50.0 L2.2 56.8 Q-42.95 24.05 -43.2 -1.65 -42.9 -4.9 -31.65 -32.35 L-18.3 -63.1 -18.3 -66.35 Q-18.9 -67.2 -21.25 -65.75 -24.95 -62.8 -30.0 -53.55 L-27.4 -59.7 Q-25.65 -62.9 -23.4 -65.3 -0.55 -81.25 -7.6 -54.5 -9.1 -50.7 -18.6 -35.6 -26.6 -22.65 -28.4 -12.9 -34.3 16.8 8.3 50.0 M0.85 58.25 L-1.05 60.35 -2.3 59.45 -1.05 60.3 0.85 58.25 M49.65 48.55 L50.95 49.2 49.1 48.85 Q49.35 48.55 49.65 48.55 M23.05 36.15 L22.7 35.85 36.65 35.85 36.7 36.15 23.05 36.15 M36.75 39.7 L36.05 41.45 33.4 45.0 26.9 39.45 36.75 39.7 M26.75 53.7 L21.9 60.2 10.75 49.95 16.8 43.2 27.7 52.35 26.75 53.7 M16.2 67.8 L15.85 68.3 4.3 57.1 4.85 56.5 16.2 67.8 M2.35 59.0 L2.3 59.55 3.1 58.3 14.95 69.5 13.0 72.05 Q6.75 68.25 1.45 69.0 L1.3 70.7 -4.25 71.25 Q-29.0 88.15 -29.0 225.4 L-33.1 225.4 -33.1 77.75 Q-31.35 57.7 -17.7 48.85 L-0.8 61.8 2.35 59.0 M14.7 73.15 L15.95 71.4 16.15 74.2 14.7 73.15 M15.55 76.9 L38.1 48.25 42.95 53.05 Q16.8 77.4 47.0 103.45 32.75 99.3 14.7 77.45 L15.6 77.0 15.55 76.9 M69.25 71.0 L60.6 62.6 60.0 57.3 71.65 68.6 70.5 69.75 70.45 69.8 69.25 71.0 M27.4 166.95 L33.95 167.25 Q23.25 168.1 20.3 167.25 L27.4 166.95 M-25.8 40.85 L-20.65 46.45 Q-22.75 48.85 -29.55 48.85 L-40.85 48.85 -40.85 40.85 -25.8 40.85 M-40.3 23.45 L-33.1 32.0 -31.65 34.65 -31.85 34.65 -40.65 27.2 -40.55 23.65 -40.3 23.45" fill="#a7abac" fill-rule="evenodd" stroke="none"/>
    <path d="M2.2 56.8 L0.85 58.25 -1.05 60.3 -2.3 59.45 -2.45 59.3 Q-20.1 46.35 -28.7 35.85 L-39.35 20.2 -45.55 9.25 Q-48.55 2.45 -47.1 -4.3 -45.3 -12.3 -38.45 -29.7 L-30.2 -53.25 -30.0 -53.55 Q-24.95 -62.8 -21.25 -65.75 -18.9 -67.2 -18.3 -66.35 L-18.3 -63.1 -31.65 -32.35 Q-42.9 -4.9 -43.2 -1.65 -42.95 24.05 2.2 56.8 M36.7 36.15 Q37.15 37.95 36.75 39.7 L26.9 39.45 23.05 36.15 36.7 36.15 M21.9 60.2 L16.2 67.8 4.85 56.5 10.75 49.95 21.9 60.2 M-40.85 40.85 L-40.85 35.85 -30.45 35.85 -25.8 40.85 -40.85 40.85" fill="#525759" fill-rule="evenodd" stroke="none"/>
    <path d="M16.85 -82.4 L17.25 -82.25 24.15 -80.2 -2.45 -80.2 -34.9 -90.4 -36.05 -90.65 -36.05 -94.4 -28.65 -94.2 16.75 -82.4 16.85 -82.4 M2.4 -78.65 L16.05 -78.7 5.45 -78.45 5.3 -78.5 3.1 -78.45 2.4 -78.65" fill="#ff850d" fill-rule="evenodd" stroke="none"/>
    <path d="M35.8 -223.1 L35.9 -223.1 34.5 -222.75 34.55 -222.85 Q34.0 -223.6 35.8 -223.1 M-20.95 -94.05 L-29.05 -96.1 -50.65 -102.35 -54.45 -106.8 -57.45 -112.1 Q-68.45 -130.7 -69.9 -151.1 -71.4 -168.2 -67.25 -182.1 -59.25 -206.0 -35.75 -216.65 -27.75 -220.15 -20.4 -221.85 L-20.35 -221.85 Q-15.3 -223.05 -10.55 -223.4 L1.0 -223.15 Q15.85 -222.25 30.1 -216.35 L27.4 -213.95 Q6.65 -195.95 -5.2 -170.25 -8.8 -163.2 -8.5 -161.7 -8.8 -159.35 -0.5 -150.5 L10.2 -140.75 Q11.9 -140.0 14.65 -142.4 L15.55 -142.2 25.1 -146.0 25.35 -105.9 48.2 -92.9 55.6 -87.9 Q55.9 -86.7 52.65 -81.4 L51.85 -80.0 Q49.75 -76.3 48.5 -76.1 L29.1 -80.95 27.0 -83.0 21.1 -83.0 21.0 -83.0 16.0 -86.0 Q9.25 -86.25 4.7 -88.35 2.0 -89.5 -1.0 -89.5 L-6.2 -89.95 -9.0 -90.6 -17.65 -93.1 -18.95 -94.0 -20.95 -94.05 M32.2 -216.35 Q36.35 -219.0 37.8 -218.4 L47.9 -214.55 Q61.8 -208.05 71.95 -197.15 L69.35 -194.3 Q56.85 -210.5 32.2 -216.35 M63.45 -176.95 Q64.45 -170.65 64.25 -163.5 63.6 -152.85 60.05 -146.95 L37.8 -155.05 Q58.0 -171.7 63.45 -176.95 M34.1 -156.4 L32.3 -157.05 32.6 -157.25 34.1 -156.4 M47.9 -138.95 Q47.6 -136.3 46.15 -136.3 L45.25 -139.25 Q45.55 -141.35 47.0 -141.9 48.5 -141.35 47.9 -138.95 M48.2 -76.95 L-34.2 -110.0 -34.3 -110.05 Q-58.65 -136.55 -46.95 -166.05 L-46.55 -166.55 Q-40.35 -199.55 -11.1 -216.25 -14.1 -218.55 -17.35 -219.7 -24.05 -218.85 -30.4 -216.1 -41.65 -211.2 -51.8 -200.4 L-52.35 -200.5 -52.85 -199.85 -53.55 -198.95 -54.0 -198.35 -54.45 -197.75 Q-73.7 -171.05 -63.2 -134.4 -61.25 -115.4 -49.85 -107.55 -44.4 -103.8 -36.7 -102.65 L-34.2 -102.35 Q-15.75 -96.25 38.1 -80.0 L48.2 -76.95" fill="#ffffff" fill-rule="evenodd" stroke="none"/>
    <path d="M35.8 -223.1 L38.0 -223.2 42.4 -222.5 42.85 -222.4 43.05 -222.35 43.45 -222.25 Q57.4 -217.5 70.45 -205.7 L74.6 -201.3 Q78.75 -197.15 78.75 -196.55 L72.85 -190.35 66.6 -184.45 Q71.95 -172.05 67.2 -150.8 65.7 -143.1 63.05 -142.5 L60.05 -142.5 57.4 -143.4 46.4 -98.5 60.95 -89.35 Q59.45 -82.9 58.15 -80.0 L57.7 -79.05 Q53.2 -72.25 51.15 -71.95 L43.75 -73.7 Q42.2 -74.7 40.25 -75.55 L33.7 -78.25 Q31.15 -79.3 29.1 -80.95 L48.5 -76.1 Q49.75 -76.3 51.85 -80.0 L52.65 -81.4 Q55.9 -86.7 55.6 -87.9 L48.2 -92.9 25.35 -105.9 25.1 -146.0 25.05 -150.05 25.05 -152.25 22.05 -150.2 18.8 -147.25 Q13.75 -142.2 11.95 -141.9 10.2 -141.9 6.65 -146.35 L-6.4 -159.05 -8.5 -161.7 Q-8.8 -163.2 -5.2 -170.25 6.65 -195.95 27.4 -213.95 L30.1 -216.35 Q15.85 -222.25 1.0 -223.15 L-10.55 -223.4 Q-15.3 -223.05 -20.35 -221.85 L-20.4 -221.85 Q-27.75 -220.15 -35.75 -216.65 -59.25 -206.0 -67.25 -182.1 -71.4 -168.2 -69.9 -151.1 -68.45 -130.7 -57.45 -112.1 L-54.45 -106.8 -50.65 -102.35 -29.05 -96.1 -20.95 -94.05 -28.65 -94.2 -36.05 -96.15 -36.05 -94.4 -41.45 -94.5 -52.1 -96.75 -55.65 -97.95 Q-57.45 -98.8 -60.7 -104.4 -69.05 -116.8 -72.3 -127.75 L-76.45 -146.65 Q-81.2 -167.9 -75.85 -182.1 -71.7 -191.55 -63.65 -201.55 -47.95 -221.65 -25.4 -227.25 -10.55 -230.8 4.3 -229.9 21.45 -229.05 32.5 -221.35 L32.9 -221.75 33.65 -222.3 34.5 -222.75 35.9 -223.1 35.8 -223.1 M21.1 -83.0 L21.0 -83.0 21.1 -83.0 M-9.0 -90.6 L-15.95 -92.0 -17.65 -93.1 -9.0 -90.6 M69.35 -194.3 L71.95 -197.15 Q61.8 -208.05 47.9 -214.55 L37.8 -218.4 Q36.35 -219.0 32.2 -216.35 L28.0 -212.5 20.0 -205.1 Q11.6 -196.75 4.45 -185.15 -0.65 -176.85 -5.15 -166.9 L-7.0 -162.6 11.95 -142.8 12.2 -143.0 18.7 -148.8 29.25 -158.1 30.0 -158.75 30.7 -159.4 31.05 -159.75 31.1 -159.75 31.45 -160.05 31.4 -160.05 42.3 -169.7 Q54.9 -180.5 62.6 -187.7 L69.35 -194.3 M63.45 -176.95 L62.65 -180.95 62.45 -181.8 Q39.85 -167.0 30.95 -157.55 L32.3 -157.05 34.1 -156.4 37.8 -155.05 60.05 -146.95 Q63.6 -152.85 64.25 -163.5 64.45 -170.65 63.45 -176.95 M47.05 -145.2 L46.4 -146.05 Q43.1 -149.6 39.3 -149.0 L39.85 -153.15 29.8 -156.7 26.55 -153.75 26.55 -106.8 40.75 -98.5 41.05 -99.15 42.3 -102.05 42.9 -105.3 41.05 -108.25 Q39.6 -109.75 39.6 -111.2 40.45 -112.1 41.65 -112.1 39.6 -108.85 43.45 -107.65 L51.45 -139.85 47.05 -145.2 M35.75 -134.25 L36.35 -134.25 Q36.65 -130.7 34.85 -123.6 L33.1 -113.6 35.75 -134.25 M53.25 -146.65 L53.25 -147.85 Q52.05 -148.7 51.15 -148.7 52.05 -146.95 53.25 -146.65 M42.9 -137.2 Q44.05 -144.6 47.6 -143.4 50.55 -142.5 49.35 -135.7 47.9 -128.95 44.95 -129.5 41.65 -130.1 42.9 -137.2 M47.9 -138.95 Q48.5 -141.35 47.0 -141.9 45.55 -141.35 45.25 -139.25 L46.15 -136.3 Q47.6 -136.3 47.9 -138.95" fill="#000000" fill-rule="evenodd" stroke="none"/>
    <path d="M69.35 -194.3 L62.6 -187.7 Q55.75 -202.75 28.0 -212.5 L32.2 -216.35 Q56.85 -210.5 69.35 -194.3 M41.05 -99.15 L27.4 -107.1 28.5 -148.6 29.5 -149.3 Q39.85 -149.2 47.05 -145.2 L51.45 -139.85 43.45 -107.65 Q39.6 -108.85 41.65 -112.1 40.45 -112.1 39.6 -111.2 39.6 -109.75 41.05 -108.25 L42.9 -105.3 42.3 -102.05 41.05 -99.15 M35.75 -134.25 L33.1 -113.6 34.85 -123.6 Q36.65 -130.7 36.35 -134.25 L35.75 -134.25 M42.9 -137.2 Q41.65 -130.1 44.95 -129.5 47.9 -128.95 49.35 -135.7 50.55 -142.5 47.6 -143.4 44.05 -144.6 42.9 -137.2" fill="#ffe600" fill-rule="evenodd" stroke="none"/>
    <path d="M62.6 -187.7 Q54.9 -180.5 42.3 -169.7 L31.4 -160.05 31.4 -160.1 31.55 -160.25 4.45 -185.15 Q11.6 -196.75 20.0 -205.1 L28.0 -212.5 Q55.75 -202.75 62.6 -187.7 M31.05 -159.75 L30.7 -159.4 31.05 -159.75 M12.2 -143.0 L11.95 -142.8 -7.0 -162.6 -5.15 -166.9 15.6 -146.25 11.7 -143.1 12.2 -143.0" fill="#d19700" fill-rule="evenodd" stroke="none"/>
    <path d="M25.05 -150.05 L25.1 -146.0 15.55 -142.2 14.65 -142.4 16.0 -143.7 Q19.4 -145.4 25.05 -150.05 M30.0 -158.75 L29.25 -158.1 29.5 -159.05 30.0 -158.75 M18.7 -148.8 L12.2 -143.0 11.7 -143.1 15.6 -146.25 18.7 -148.8 M62.65 -180.95 L63.45 -176.95 Q58.0 -171.7 37.8 -155.05 L34.1 -156.4 32.6 -157.25 62.65 -180.95 M48.2 -76.95 L38.1 -80.0 Q-15.75 -96.25 -34.2 -102.35 L-36.7 -102.65 Q-44.4 -103.8 -49.85 -107.55 -61.25 -115.4 -63.2 -134.4 -73.7 -171.05 -54.45 -197.75 L-54.0 -198.35 -53.55 -198.95 -52.85 -199.85 -52.35 -200.5 -51.8 -200.4 Q-41.65 -211.2 -30.4 -216.1 -24.05 -218.85 -17.35 -219.7 -14.1 -218.55 -11.1 -216.25 -40.35 -199.55 -46.55 -166.55 L-46.95 -166.05 Q-58.65 -136.55 -34.3 -110.05 L-34.2 -110.0 48.2 -76.95" fill="#a7abac" fill-rule="evenodd" stroke="none"/>
    <path d="M-8.5 -161.7 L-6.4 -159.05 6.65 -146.35 Q10.2 -141.9 11.95 -141.9 13.75 -142.2 18.8 -147.25 L22.05 -150.2 25.05 -152.25 25.05 -150.05 Q19.4 -145.4 16.0 -143.7 L14.65 -142.4 Q11.9 -140.0 10.2 -140.75 L-0.5 -150.5 Q-8.8 -159.35 -8.5 -161.7 M32.3 -157.05 L30.95 -157.55 Q39.85 -167.0 62.45 -181.8 L62.65 -180.95 32.6 -157.25 32.3 -157.05" fill="#525759" fill-rule="evenodd" stroke="none"/>
    <path d="M31.4 -160.05 L31.45 -160.05 31.1 -159.75 31.05 -159.75 30.7 -159.4 30.0 -158.75 29.5 -159.05 29.25 -158.1 18.7 -148.8 15.6 -146.25 -5.15 -166.9 Q-0.65 -176.85 4.45 -185.15 L31.55 -160.25 31.4 -160.1 31.4 -160.05" fill="#a85b00" fill-rule="evenodd" stroke="none"/>
    <path d="M-36.05 -94.4 L-36.05 -96.15 -28.65 -94.2 -36.05 -94.4 M47.05 -145.2 Q39.85 -149.2 29.5 -149.3 L28.5 -148.6 27.4 -107.1 41.05 -99.15 40.75 -98.5 26.55 -106.8 26.55 -153.75 29.8 -156.7 39.85 -153.15 39.3 -149.0 Q43.1 -149.6 46.4 -146.05 L47.05 -145.2 M53.25 -146.65 Q52.05 -146.95 51.15 -148.7 52.05 -148.7 53.25 -147.85 L53.25 -146.65" fill="#ff850d" fill-rule="evenodd" stroke="none"/>
  </g>
</svg>
