<?xml version="1.0" encoding="UTF-8" standalone="no"?>
<svg xmlns:xlink="http://www.w3.org/1999/xlink" height="606.85px" width="159.8px" xmlns="http://www.w3.org/2000/svg">
  <g transform="matrix(1.0, 0.0, 0.0, 1.0, 79.9, 303.4)">
    <path d="M51.0 -299.5 L55.25 -297.45 Q64.45 -292.4 71.25 -283.0 80.7 -270.0 79.85 -257.3 78.95 -243.15 67.15 -235.15 L65.05 -205.65 62.1 -188.2 55.3 -171.1 Q52.05 -164.9 49.1 -163.7 58.55 -154.25 59.75 -139.2 L60.05 -127.95 62.4 -120.6 Q72.45 -90.75 74.5 -75.4 75.7 -69.2 75.1 -66.55 L71.55 -60.65 63.6 -49.7 59.15 -44.7 56.8 -39.1 Q49.1 -23.15 32.6 -9.85 L35.25 -6.9 Q37.9 -1.0 37.9 13.75 37.9 27.95 35.25 41.8 L33.15 43.9 26.4 44.2 26.1 48.6 31.7 48.6 Q32.6 48.9 39.95 54.8 47.05 60.7 47.05 61.6 L46.15 66.05 28.75 126.55 25.8 135.7 25.8 144.0 Q24.9 151.35 25.2 151.95 L29.65 156.1 Q42.6 168.8 49.1 177.95 54.15 185.6 54.75 188.85 L55.3 199.2 58.25 206.0 Q59.15 211.9 56.8 216.3 63.6 218.1 64.2 228.45 64.45 238.45 59.15 242.3 L59.0 256.95 59.0 257.15 58.55 296.65 Q28.75 303.45 -9.05 303.45 -43.3 303.45 -69.3 298.4 -74.6 297.25 -75.5 295.45 L-75.75 277.65 -76.05 258.55 -76.05 258.45 -76.1 255.9 Q-75.8 253.55 -72.25 250.0 -68.4 244.95 -57.8 235.5 -44.2 224.0 -31.2 223.4 L-18.5 172.9 -28.85 171.75 Q-34.45 167.0 -38.9 160.8 L-48.05 142.5 -49.8 133.35 -54.25 128.35 Q-57.8 122.15 -54.8 115.35 L-58.65 110.6 Q-61.05 105.9 -60.45 99.7 -59.55 93.2 -56.0 91.15 -58.65 86.4 -57.5 81.1 -56.3 76.05 -53.05 73.4 L-49.5 71.35 Q-48.6 70.75 -44.2 65.75 L-34.15 54.5 Q-30.0 49.5 -28.85 49.2 L-22.95 48.9 Q-22.35 47.4 -22.35 46.55 L-22.35 43.9 -28.85 40.95 Q-32.1 30.6 -32.95 15.55 -33.85 -1.0 -30.6 -11.95 L-28.85 -15.15 -43.6 -36.45 Q-48.35 -42.95 -48.9 -44.4 L-59.55 -91.95 Q-62.2 -102.6 -60.75 -132.7 -60.15 -144.2 -58.65 -147.15 -57.2 -150.4 -48.6 -155.7 L-37.1 -162.8 Q-53.35 -163.7 -64.55 -168.7 -70.2 -171.65 -70.75 -173.45 -72.25 -178.75 -61.3 -188.5 L-46.85 -198.85 -26.75 -201.2 -31.5 -207.7 -37.4 -213.6 -76.1 -213.6 -78.15 -215.35 Q-79.05 -217.45 -79.05 -221.85 L-79.9 -233.7 -78.15 -236.05 -75.8 -238.4 Q-74.3 -241.05 -75.5 -244.9 L-76.95 -246.65 Q-77.85 -247.55 -78.15 -248.45 -79.05 -251.1 -78.15 -254.05 -77.85 -255.25 -69.0 -264.1 -54.8 -277.1 -34.45 -287.4 -7.0 -301.6 27.25 -303.35 40.5 -303.9 51.0 -299.5 M69.4 -276.85 L67.0 -280.45 Q52.8 -300.0 29.05 -298.35 -20.3 -295.4 -53.95 -269.4 L-64.55 -261.15 Q-68.95 -257.85 -71.5 -254.75 L-71.5 -254.7 Q-72.9 -253.05 -73.7 -251.4 L-49.2 -259.05 Q-33.85 -263.8 -20.55 -262.6 L-1.65 -259.65 5.9 -259.05 6.45 -259.05 10.05 -258.85 10.6 -258.85 13.85 -258.75 14.9 -258.7 17.85 -258.7 18.3 -258.7 71.0 -268.05 71.75 -268.35 71.8 -268.35 73.6 -269.1 73.45 -269.4 73.35 -269.7 Q71.45 -273.55 69.4 -276.85 M74.25 -255.2 L74.55 -256.6 74.6 -265.35 74.2 -267.05 65.65 -264.15 Q40.05 -255.85 1.85 -247.55 L-65.45 -233.5 -74.6 -231.6 Q-75.5 -224.8 -74.0 -218.3 L-35.35 -218.3 Q-34.55 -218.15 -32.65 -216.05 L-30.3 -213.3 -25.6 -208.0 -25.2 -207.5 -25.1 -207.4 -24.35 -206.4 -19.95 -199.0 -19.7 -199.15 Q-14.85 -194.1 -9.6 -181.55 L-7.25 -177.6 -6.8 -176.3 -5.7 -172.75 -5.3 -171.35 -5.15 -170.75 -4.65 -168.4 41.15 -168.4 43.0 -189.05 43.1 -190.25 43.1 -190.1 43.2 -191.5 45.2 -223.6 45.25 -224.05 45.25 -225.0 45.3 -226.15 45.3 -235.35 45.3 -235.45 Q35.85 -236.95 24.0 -235.15 L9.05 -232.45 4.25 -231.6 Q7.0 -232.85 9.9 -233.9 21.65 -238.1 34.95 -238.1 L52.95 -237.5 Q64.2 -237.5 68.3 -240.75 L71.25 -244.9 Q72.75 -247.55 74.2 -254.95 L74.25 -255.2 M60.4 -205.05 L61.95 -227.4 62.05 -228.75 62.4 -233.95 Q58.85 -233.7 47.05 -235.15 L47.15 -225.8 47.0 -216.05 46.75 -207.4 60.35 -204.45 60.4 -205.05 M57.1 -188.85 L60.05 -202.65 58.8 -202.9 46.45 -205.65 45.85 -197.55 45.3 -190.0 56.8 -187.6 57.1 -188.85 M55.9 -186.2 L54.9 -186.35 45.0 -188.2 43.8 -174.65 43.2 -168.4 45.3 -168.15 47.65 -168.4 Q48.9 -168.9 50.0 -170.35 L50.25 -170.65 Q51.7 -172.7 52.95 -176.4 L56.15 -186.0 56.2 -186.15 55.9 -186.2 M41.85 -166.3 L-16.4 -165.45 -17.2 -165.45 -18.8 -165.45 -18.8 -162.2 20.45 -162.2 28.15 -163.1 45.0 -162.2 45.0 -166.35 41.85 -166.3 M37.0 -160.75 Q46.45 -155.45 55.3 -134.45 54.75 -148.35 49.4 -156.0 L49.35 -156.05 Q45.55 -160.75 44.7 -161.05 L37.0 -160.75 M7.5 -153.35 L7.6 -153.45 7.65 -153.5 7.75 -153.6 7.8 -153.7 12.75 -158.1 13.9 -159.0 16.65 -161.05 -19.7 -161.05 -25.3 -160.45 -32.95 -157.2 Q-38.9 -154.25 -46.25 -148.65 -51.0 -145.7 -51.6 -143.3 L-50.7 -135.95 -48.9 -136.65 Q-34.1 -142.4 -4.65 -141.85 -2.25 -141.25 1.6 -132.7 L6.9 -124.15 9.25 -109.35 Q13.4 -92.55 21.05 -77.75 L23.35 -73.4 24.0 -72.2 24.0 -72.15 20.75 -68.3 -0.2 -41.45 Q-17.3 -21.95 -25.0 -11.65 L-22.65 -10.6 -22.45 -10.5 -21.8 -10.25 -21.35 -10.05 -21.15 -9.95 Q-11.35 -5.95 -5.6 -5.45 L-5.5 -5.45 Q7.5 -4.55 22.85 -16.05 46.45 -33.8 63.9 -58.0 L70.6 -67.85 70.65 -68.05 Q71.25 -70.7 67.7 -85.75 64.75 -99.35 58.55 -117.65 L53.25 -132.7 Q49.4 -148.65 40.25 -156.3 34.85 -161.2 25.65 -161.15 L22.85 -161.05 20.0 -160.25 Q17.6 -159.3 14.85 -157.5 L14.6 -157.35 7.5 -153.35 M1.35 -129.45 L1.4 -129.45 0.4 -130.9 Q-27.35 -130.65 -49.2 -120.0 L-49.2 -109.95 -46.6 -109.5 -10.25 -103.3 -10.0 -103.25 10.45 -99.35 6.0 -117.05 5.1 -123.85 1.35 -129.45 M17.45 -80.95 L15.15 -85.75 Q8.95 -88.0 0.3 -89.95 L-0.1 -90.05 -1.05 -90.25 -13.9 -92.75 -16.15 -93.15 -49.2 -98.45 -49.8 -97.85 Q-50.7 -94.6 -48.05 -81.9 L-43.0 -58.85 -40.05 -47.65 -35.65 -40.55 -21.15 -20.2 -20.15 -21.3 -13.3 -29.2 -12.15 -30.5 1.0 -45.6 11.3 -59.15 Q17.5 -68.3 21.95 -72.75 L17.45 -80.95 M-5.6 -93.05 L-4.2 -92.75 13.35 -88.6 13.55 -88.55 13.8 -88.45 14.0 -88.4 11.0 -96.95 9.8 -97.2 -1.9 -99.65 -7.5 -100.85 -7.45 -100.8 -10.65 -101.5 -22.3 -103.65 -43.0 -107.3 -48.8 -108.2 -50.8 -108.7 -51.0 -108.8 -51.0 -121.2 Q-37.95 -127.9 -20.6 -130.85 L-17.05 -131.4 -0.5 -133.0 Q-2.55 -139.5 -5.5 -140.1 L-5.55 -140.1 -5.7 -140.15 -12.15 -140.2 -13.75 -140.1 -13.65 -140.1 -18.2 -139.8 Q-31.8 -139.2 -41.85 -137.1 L-49.95 -134.45 -49.9 -134.45 -51.85 -133.85 Q-53.65 -142.45 -53.35 -143.6 L-50.1 -147.45 -43.05 -153.0 -40.7 -154.85 -40.75 -154.85 -38.9 -156.3 -41.75 -154.45 -44.5 -152.7 -47.15 -151.0 Q-53.65 -146.85 -54.55 -145.1 L-54.55 -145.0 Q-55.1 -143.35 -56.0 -132.1 -57.8 -105.8 -54.8 -92.25 L-53.55 -86.8 -44.5 -46.2 Q-44.2 -45.0 -39.45 -38.8 L-23.8 -16.65 Q-21.75 -18.4 -23.25 -20.2 L-41.85 -47.05 -50.1 -81.3 -52.45 -93.15 Q-53.05 -97.85 -50.7 -99.6 -49.5 -100.5 -41.25 -99.05 L-12.6 -94.3 -11.05 -94.0 -5.6 -93.05 M-12.0 41.95 Q1.95 43.1 24.9 39.45 28.75 12.6 25.2 -9.25 L16.05 -9.25 9.85 -6.0 Q-5.6 0.4 -24.0 -9.1 L-25.9 -10.15 Q-30.3 4.3 -27.35 28.25 -25.3 38.0 -24.4 38.85 -23.5 40.05 -13.5 41.8 L-12.0 41.95 M28.75 -13.4 Q45.0 -24.35 52.65 -41.45 46.15 -33.5 34.95 -23.75 29.05 -19.0 28.75 -18.15 L28.75 -15.75 Q29.05 -14.9 28.75 -13.4 M26.95 -9.85 L26.65 -16.65 19.3 -11.35 25.8 -11.35 Q26.4 -10.15 26.95 -9.85 M29.35 -5.7 L28.75 -5.15 28.75 -2.05 Q28.75 20.05 28.9 30.4 L28.9 30.55 29.05 38.45 29.05 38.85 29.6 38.85 30.45 38.25 30.8 37.7 31.7 35.0 Q35.25 12.9 31.7 -1.6 30.8 -5.7 29.35 -5.7 M-13.8 63.05 L-14.6 63.05 -26.05 63.05 -27.8 63.05 -37.1 63.05 Q-38.6 63.35 -40.65 66.6 L-43.3 70.75 -41.25 74.0 -39.75 85.8 Q-34.35 124.8 -18.75 142.95 L-18.35 143.4 -17.6 144.25 Q-12.0 149.9 -11.4 151.35 -9.65 156.95 -13.5 161.1 -17.3 165.25 -22.95 164.65 L-23.05 164.65 -25.8 163.8 -26.8 163.35 -26.8 163.3 -28.35 162.5 -28.4 162.45 -29.05 162.05 -34.15 158.45 -33.0 159.95 -30.6 163.15 Q-28.55 166.4 -26.5 167.0 L-23.65 167.5 -21.45 167.9 Q-10.85 168.5 -6.4 170.25 -0.8 172.35 3.15 177.5 5.25 180.25 6.9 183.85 L7.6 186.05 Q8.5 189.35 8.05 190.05 1.0 172.05 -13.2 172.6 L-14.35 177.35 -26.5 226.35 -23.5 227.55 Q-17.95 229.6 -11.45 231.0 L-11.8 230.9 -9.85 231.3 6.65 233.4 7.5 233.45 Q28.15 234.65 43.2 229.6 39.1 216.05 33.75 206.3 L26.95 196.25 Q22.85 190.35 21.95 185.3 20.75 177.65 26.65 174.1 32.3 170.55 39.1 173.8 L38.8 172.6 Q34.95 167.9 25.2 159.35 21.05 155.2 19.9 154.9 L8.65 154.6 Q5.7 148.4 8.35 136.6 12.2 134.85 22.55 133.65 33.75 98.2 41.75 63.05 L34.95 63.05 -13.8 63.05 M27.45 53.35 L23.7 53.35 Q-0.7 52.15 -18.8 53.05 L-19.4 53.05 -27.05 53.35 Q-27.35 53.35 -33.25 59.25 -35.05 60.1 -34.75 61.0 L-15.45 61.0 -14.35 61.0 35.0 61.0 39.35 61.0 34.95 56.85 Q29.65 53.35 29.35 53.35 L27.45 53.35 M21.35 42.1 Q-4.9 45.65 -18.2 42.7 L-18.2 50.95 21.35 50.95 21.35 42.1 M9.85 138.05 Q8.65 146.95 9.85 152.85 L20.45 152.85 21.35 135.7 Q11.6 137.2 9.85 138.05 M35.45 176.75 L31.1 176.45 Q22.55 177.65 25.2 186.5 27.55 195.35 34.65 195.95 41.85 196.85 43.15 189.3 L43.15 189.25 43.2 188.85 Q43.8 183.25 39.95 179.4 38.1 177.55 35.75 176.8 L35.45 176.75 M26.65 176.45 Q33.15 172.05 39.65 176.75 46.15 181.2 45.0 189.15 44.4 194.2 41.45 196.25 38.2 198.6 33.75 197.7 29.65 197.15 27.25 194.45 33.15 201.55 37.9 211.6 34.35 201.55 41.15 198.0 44.4 196.25 47.35 197.15 L49.1 198.0 49.25 198.1 50.0 198.4 50.4 198.4 50.6 198.3 Q50.9 190.95 46.45 183.55 L42.05 176.75 Q38.2 172.9 31.7 173.5 23.45 174.1 22.85 183.25 24.3 178.25 26.65 176.45 M43.4 217.25 Q45.2 218.35 47.55 218.2 L47.75 218.2 47.8 218.2 48.55 218.1 51.5 216.05 53.25 213.7 Q55.1 209.9 52.65 204.8 50.85 200.5 47.8 199.25 45.8 198.4 43.2 198.9 38.8 200.05 38.4 204.45 38.15 206.8 39.1 210.1 40.45 215.4 43.4 217.25 M47.95 219.55 Q44.4 219.85 39.35 214.85 L43.8 226.05 47.05 237.9 50.15 243.7 51.05 244.6 51.05 244.65 53.55 246.15 53.25 241.4 Q47.35 242.3 46.75 233.15 46.15 224.0 50.0 220.15 L51.5 219.55 Q52.05 219.25 52.05 218.4 51.2 218.1 50.0 218.7 48.8 219.55 47.95 219.55 M48.2 235.5 Q49.25 239.75 52.05 239.95 L52.5 240.0 52.7 240.0 52.8 240.0 Q54.95 240.0 56.45 238.9 L56.95 238.45 57.45 237.9 Q59.45 235.3 59.45 229.6 59.45 224.25 57.7 222.05 55.85 219.7 52.05 220.75 50.7 221.1 49.75 222.25 47.65 224.7 47.65 230.8 47.75 233.55 48.2 235.5 M44.15 232.1 L44.1 231.8 44.1 231.7 44.0 231.75 Q21.85 238.75 -13.8 232.25 L-24.9 229.7 -31.5 228.15 -32.7 228.45 Q-51.3 231.7 -71.05 257.05 -65.9 259.85 -57.8 261.5 L-47.15 263.0 -14.35 264.15 Q-14.05 264.15 -10.25 261.8 17.25 245.85 42.05 253.25 L54.15 258.25 53.85 247.6 51.55 245.95 50.1 244.7 44.35 233.5 44.15 232.1 M-29.5 298.3 Q-19.5 298.8 -8.75 298.7 25.2 298.7 53.25 292.8 54.75 282.75 54.15 260.6 38.2 252.65 25.8 252.95 6.9 253.25 -9.95 263.85 L-14.35 266.2 -22.05 265.95 -22.5 265.95 -23.1 265.95 -29.55 265.85 -31.0 265.85 -31.15 265.8 Q-46.6 265.3 -57.85 263.05 -65.6 261.5 -71.35 259.15 L-70.75 292.8 -57.1 295.45 Q-44.15 297.5 -29.5 298.3 M-33.85 -250.2 Q-39.15 -249.9 -52.75 -256.1 L-72.25 -249.35 Q-69.3 -242.25 -70.75 -237.5 L-73.15 -234.25 Q-3.75 -247.85 38.8 -258.2 6.0 -254.35 -16.75 -259.95 -26.2 -250.5 -33.85 -250.2 M-23.15 -196.95 L-29.0 -196.25 -44.8 -194.4 -47.75 -192.95 -51.0 -190.55 Q-62.8 -182.3 -66.05 -175.2 -63.5 -173.5 -60.35 -172.15 -43.95 -165.15 -11.45 -167.7 L-6.4 -168.15 Q-8.15 -179.65 -20.0 -197.35 L-23.15 -196.95 M-48.4 76.35 Q-52.0 77.4 -53.05 81.95 -53.45 84.05 -52.95 86.2 L-52.2 88.35 -52.15 88.45 Q-50.7 91.7 -48.6 91.15 -44.5 90.55 -43.9 81.7 -43.3 75.5 -47.15 76.05 L-47.25 76.1 -47.9 76.2 -48.4 76.35 M-39.8 96.85 L-42.7 79.6 Q-43.6 87.9 -48.05 92.3 -44.5 93.5 -43.3 99.7 -42.15 105.3 -43.9 109.75 L-44.8 111.2 -45.1 112.4 Q-39.75 113.0 -35.95 118.3 -32.1 123.9 -34.75 128.9 -35.05 129.8 -36.8 131.3 -32.4 132.15 -29.15 135.1 -25.3 138.35 -26.2 142.8 -26.5 144.0 -27.35 145.75 -21.75 145.15 -15.25 149.3 -25.95 140.05 -32.95 121.4 -37.0 110.65 -39.8 96.85 M-53.7 95.2 Q-56.3 97.5 -55.7 103.55 -55.5 106.35 -54.8 108.25 -53.35 112.4 -49.5 112.4 -43.9 112.1 -43.9 102.65 -44.2 93.2 -50.1 93.8 -52.35 94.0 -53.7 95.2 M-38.9 133.05 Q-43.9 133.35 -44.5 136.9 L-44.6 137.85 Q-44.9 142.5 -40.35 145.45 -36.25 147.85 -32.55 146.55 L-31.1 145.9 -30.9 145.75 Q-26.75 144.0 -27.65 138.95 -28.25 136.0 -32.1 134.25 -35.65 132.45 -38.9 133.05 M-39.9 130.25 L-38.0 129.2 Q-34.75 126.55 -36.5 121.25 -38.3 116.2 -41.85 114.45 -43.0 113.85 -45.95 113.85 -48.55 114.2 -49.95 116.45 -50.85 117.75 -51.3 119.75 -52.15 125.1 -48.6 128.05 -47.35 129.1 -46.15 129.75 L-44.35 130.5 -42.95 130.75 -40.8 130.55 -40.55 130.5 -40.4 130.45 -39.9 130.25 M-40.35 147.25 L-35.45 155.6 -35.95 153.15 Q-36.2 149.9 -34.75 148.4 L-40.35 147.25 M-42.7 132.15 L-45.1 132.15 -44.8 133.95 Q-44.2 133.05 -42.7 132.15 M-15.4 159.05 L-15.05 158.55 -14.35 157.25 Q-12.3 151.95 -17.6 148.7 -22.05 146.05 -26.75 146.65 -33.25 147.25 -33.55 151.95 L-33.6 153.85 Q-33.15 159.05 -25.6 160.8 L-20.15 161.35 Q-17.6 161.05 -16.0 159.7 L-15.4 159.05" fill="#000000" fill-rule="evenodd" stroke="none"/>
    <path d="M26.9 -292.85 Q2.0 -290.1 -32.95 -272.35 20.75 -283.3 54.45 -279.75 63.05 -278.65 69.4 -276.85 71.45 -273.55 73.35 -269.7 L73.45 -269.4 Q41.05 -283.85 -9.65 -269.1 15.0 -275.4 47.65 -272.05 L68.9 -268.8 71.75 -268.35 71.0 -268.05 18.3 -258.7 17.85 -258.7 14.9 -258.7 13.85 -258.75 10.6 -258.85 10.05 -258.85 6.45 -259.05 5.9 -259.05 -1.65 -259.65 -20.55 -262.6 Q-33.85 -263.8 -49.2 -259.05 L-73.7 -251.4 Q-72.9 -253.05 -71.5 -254.7 L-71.5 -254.75 -66.0 -258.9 Q-13.0 -294.0 26.9 -292.85 M65.65 -264.15 L74.2 -267.05 74.6 -265.35 74.55 -256.6 74.25 -255.2 Q68.4 -244.7 57.4 -244.0 15.45 -241.35 6.3 -233.1 L9.9 -233.9 Q7.0 -232.85 4.25 -231.6 L9.05 -232.45 20.6 -233.4 5.4 -231.6 Q34.05 -230.15 41.75 -227.2 L45.3 -226.15 45.25 -225.0 45.25 -224.05 45.2 -223.6 43.2 -191.5 43.1 -190.1 42.9 -189.1 43.0 -189.05 41.15 -168.4 -4.65 -168.4 -5.15 -170.75 -5.3 -171.35 -5.7 -172.75 -6.8 -176.3 -7.25 -177.6 -9.6 -181.55 Q-14.85 -194.1 -19.7 -199.15 L-19.95 -199.0 -24.35 -206.4 -25.1 -207.4 Q-12.1 -193.05 -7.7 -180.25 -8.95 -184.7 -10.85 -189.4 -18.8 -208.35 -32.65 -216.05 -34.55 -218.15 -35.35 -218.3 L-74.0 -218.3 Q-75.5 -224.8 -74.6 -231.6 L-65.45 -233.5 Q5.15 -237.15 65.65 -264.15 M61.95 -227.4 L61.4 -228.3 62.05 -228.75 61.95 -227.4 M61.2 -228.2 Q60.35 -208.85 58.85 -206.8 L59.5 -206.05 Q46.8 -209.0 47.35 -218.05 L47.0 -216.05 47.15 -225.8 55.0 -226.0 Q58.65 -226.7 61.2 -228.2 M45.3 -235.35 L45.15 -235.4 45.3 -235.45 45.3 -235.35 M58.8 -202.9 Q57.05 -191.75 55.3 -190.25 L55.2 -190.15 Q48.25 -191.6 45.85 -197.55 L46.45 -205.65 58.8 -202.9 M56.15 -186.0 L55.9 -186.2 56.2 -186.15 56.15 -186.0 M54.9 -186.35 Q50.0 -172.25 48.55 -170.8 L50.25 -170.65 50.0 -170.35 Q45.6 -169.55 43.8 -174.65 L45.0 -188.2 54.9 -186.35 M37.0 -160.75 L45.3 -156.6 49.35 -156.05 49.4 -156.0 Q54.75 -148.35 55.3 -134.45 46.45 -155.45 37.0 -160.75 M13.9 -159.0 L12.75 -158.1 7.8 -153.7 7.75 -153.6 7.65 -153.5 7.6 -153.45 7.5 -153.35 Q11.55 -155.2 15.35 -155.6 17.45 -156.5 19.6 -156.65 42.5 -161.85 40.7 -138.15 45.3 -130.25 49.4 -118.8 55.0 -102.85 57.95 -84.55 60.65 -68.3 59.45 -65.35 54.8 -53.05 -5.6 -5.45 -11.35 -5.95 -21.15 -9.95 L-21.35 -10.05 -21.8 -10.25 -22.45 -10.5 -22.65 -10.6 Q-17.25 -15.2 0.4 -34.35 L25.8 -62.1 25.65 -62.2 Q27.1 -64.3 27.85 -65.95 26.7 -66.7 25.6 -68.35 L24.0 -72.15 24.0 -72.2 23.45 -73.65 23.35 -73.4 21.05 -77.75 Q13.4 -92.55 9.25 -109.35 L6.9 -124.15 1.6 -132.7 Q-2.25 -141.25 -4.65 -141.85 -34.1 -142.4 -48.9 -136.65 L-49.2 -143.3 Q-43.1 -149.95 -36.3 -154.25 -22.25 -156.55 -14.95 -154.25 -4.65 -151.0 12.5 -158.7 L13.9 -159.0 M14.6 -157.35 L14.85 -157.5 Q17.6 -159.3 20.0 -160.25 L25.65 -161.15 Q34.85 -161.2 40.25 -156.3 49.4 -148.65 53.25 -132.7 L58.55 -117.65 Q64.75 -99.35 67.7 -85.75 71.25 -70.7 70.65 -68.05 L70.6 -67.85 Q70.45 -76.0 60.65 -105.25 50.9 -133.85 44.7 -148.05 34.15 -166.4 14.6 -157.35 M25.8 -153.35 Q24.3 -153.45 22.85 -152.5 18.4 -149.5 23.15 -142.75 27.85 -135.95 32.3 -138.6 36.45 -141.65 32.55 -147.8 29.25 -151.45 25.8 -153.35 M37.3 -172.25 L42.6 -222.15 Q36.4 -180.55 30.5 -177.6 L1.0 -170.8 37.3 -172.25 M-46.6 -109.5 L-47.15 -118.5 Q-25.75 -129.55 1.35 -129.45 L5.1 -123.85 6.0 -117.05 10.45 -99.35 -10.0 -103.25 Q-10.7 -108.65 -14.05 -127.1 L-19.7 -125.0 Q-11.9 -111.75 -10.25 -103.3 L-46.6 -109.5 M-20.15 -21.3 L-33.85 -43.2 Q-38.3 -49.45 -41.25 -59.45 L-48.6 -90.45 Q-48.6 -94.0 -47.95 -96.05 5.05 -88.1 17.45 -80.95 L21.95 -72.75 Q17.5 -68.3 11.3 -59.15 L1.0 -45.6 -12.15 -30.5 Q-2.25 -50.75 -5.5 -88.1 L-11.7 -89.6 Q-2.25 -62.45 -13.3 -29.2 L-20.15 -21.3 M9.8 -97.2 L11.0 -96.95 14.0 -88.4 13.8 -88.45 13.55 -88.55 13.35 -88.6 -4.2 -92.75 -5.6 -93.05 Q-4.2 -94.95 -5.15 -98.15 L9.8 -97.2 M-11.05 -94.0 L-12.6 -94.3 -41.25 -99.05 Q-49.5 -100.5 -50.7 -99.6 -53.05 -97.85 -52.45 -93.15 L-50.1 -81.3 -41.85 -47.05 -23.25 -20.2 Q-21.75 -18.4 -23.8 -16.65 L-39.45 -38.8 Q-44.2 -45.0 -44.5 -46.2 L-53.55 -86.8 Q-55.6 -102.65 -54.55 -145.0 L-54.55 -145.1 Q-53.65 -146.85 -47.15 -151.0 L-44.5 -152.7 -43.05 -153.0 -50.1 -147.45 -53.35 -143.6 Q-53.65 -142.45 -51.85 -133.85 L-49.9 -134.45 -22.75 -138.75 Q-19.0 -135.75 -20.6 -130.85 -37.95 -127.9 -51.0 -121.2 L-51.0 -108.8 -50.8 -108.7 -48.8 -108.2 -48.9 -108.2 Q-25.7 -101.55 -10.05 -98.9 -9.5 -95.3 -11.05 -94.0 M-41.75 -154.45 L-38.9 -156.3 -40.75 -154.85 -41.75 -154.45 M-13.75 -140.1 L-12.15 -140.2 -5.7 -140.15 -5.55 -140.1 -5.5 -140.1 Q-2.55 -139.5 -0.5 -133.0 L-17.05 -131.4 Q-14.5 -133.9 -17.8 -139.5 L-13.75 -140.1 M-22.3 -103.65 L-10.65 -101.5 -10.6 -101.3 -18.5 -102.85 -22.3 -103.65 M-7.45 -100.8 L-7.5 -100.85 -1.9 -99.65 -7.15 -100.65 -7.45 -100.8 M-24.0 -9.1 Q-5.6 0.4 9.85 -6.0 L16.05 -9.25 25.2 -9.25 Q28.75 12.6 24.9 39.45 1.95 43.1 -12.0 41.95 -34.6 30.1 -24.0 -9.1 M28.75 -13.4 Q29.05 -14.9 28.75 -15.75 L28.75 -18.15 Q29.05 -19.0 34.95 -23.75 46.15 -33.5 52.65 -41.45 45.0 -24.35 28.75 -13.4 M24.2 -8.05 L24.3 -8.7 Q18.4 -8.15 17.15 -6.85 -3.45 3.55 -24.1 -6.9 -20.85 2.0 2.0 4.2 L5.7 5.2 Q14.3 8.55 17.1 15.55 21.4 38.3 23.15 37.1 24.8 36.0 24.1 -0.75 L24.3 -8.1 24.2 -8.05 M29.35 -5.7 L28.75 -2.05 28.75 -5.15 29.35 -5.7 Q30.8 -5.7 31.7 -1.6 35.25 12.9 31.7 35.0 L30.8 37.7 30.45 38.25 Q35.55 16.8 29.35 -5.7 M28.9 30.55 L29.6 38.85 29.05 38.85 29.05 38.45 28.9 30.55 M-13.8 63.05 Q-9.35 65.75 -7.6 75.2 L-6.4 86.7 Q-11.7 102.65 1.0 119.2 9.85 130.7 15.75 133.05 5.4 115.95 16.05 95.25 19.6 88.45 31.4 74.6 34.9 70.25 34.95 63.05 L41.75 63.05 Q33.75 98.2 22.55 133.65 12.2 134.85 8.35 136.6 5.7 148.4 8.65 154.6 L19.9 154.9 Q21.05 155.2 25.2 159.35 34.95 167.9 38.8 172.6 L39.1 173.8 Q32.3 170.55 26.65 174.1 20.75 177.65 21.95 185.3 22.85 190.35 26.95 196.25 L33.75 206.3 Q39.1 216.05 43.2 229.6 28.15 234.65 7.5 233.45 L6.65 233.4 -9.85 231.3 -11.8 230.9 -23.45 227.5 -10.55 178.8 -13.6 177.65 Q3.25 181.25 8.05 190.05 8.5 189.35 7.6 186.05 6.8 182.8 4.8 179.7 L3.15 177.5 Q-0.8 172.35 -6.4 170.25 -10.85 168.5 -21.45 167.9 L-23.65 167.5 Q-25.85 165.25 -26.8 163.35 L-25.8 163.8 -23.05 164.65 -22.95 164.65 Q-17.3 165.25 -13.5 161.1 -9.65 156.95 -11.4 151.35 -12.0 149.9 -17.6 144.25 L-18.35 143.4 -18.75 142.95 Q-38.25 116.85 -36.6 70.45 -33.95 64.6 -27.8 63.05 L-26.05 63.05 -14.35 63.65 -14.6 63.05 -13.8 63.05 M35.0 61.0 Q34.45 56.65 27.45 53.35 L29.35 53.35 Q29.65 53.35 34.95 56.85 L39.35 61.0 35.0 61.0 M-17.9 55.25 L-14.35 61.0 -15.45 61.0 -17.9 55.25 M36.1 180.6 Q34.35 181.2 36.1 184.75 38.2 188.25 39.65 187.1 42.05 186.5 39.65 182.95 38.2 179.4 36.1 180.6 M33.3 177.75 Q30.9 177.75 28.45 179.7 22.85 185.0 27.85 191.5 33.15 198.3 39.1 193.3 L40.55 191.95 Q35.15 195.75 30.5 190.05 26.1 184.15 31.7 178.8 L33.3 177.75 M35.45 176.75 L35.75 176.8 Q38.1 177.55 39.95 179.4 43.8 183.25 43.2 188.85 L43.15 189.25 43.15 189.3 Q41.85 196.85 34.65 195.95 27.55 195.35 25.2 186.5 22.55 177.65 31.1 176.45 L35.45 176.75 M51.75 209.85 Q53.55 208.65 51.5 205.4 50.0 202.15 47.95 203.05 46.45 203.9 47.95 207.45 49.7 210.4 51.75 209.85 M38.4 204.45 Q38.8 200.05 43.2 198.9 45.8 198.4 47.8 199.25 50.85 200.5 52.65 204.8 55.1 209.9 53.25 213.7 L51.5 216.05 48.55 218.1 47.8 218.2 47.75 218.2 47.55 218.2 Q45.2 218.35 43.4 217.25 47.05 219.05 50.9 215.75 52.1 214.9 52.9 213.95 47.2 218.2 42.6 212.5 37.9 206.3 43.8 201.25 L45.55 200.1 Q43.0 199.95 40.25 202.15 39.1 203.25 38.4 204.45 M49.75 222.25 Q50.7 221.1 52.05 220.75 55.85 219.7 57.7 222.05 59.45 224.25 59.45 229.6 59.45 235.3 57.45 237.9 L56.95 238.45 56.45 238.9 Q54.95 240.0 52.8 240.0 L52.7 240.0 52.5 240.0 52.05 239.95 Q49.25 239.75 48.2 235.5 49.8 239.6 54.15 238.75 L55.7 238.3 Q50.8 238.7 49.7 231.1 49.1 223.1 55.0 221.95 L56.8 221.9 Q55.2 220.55 52.65 221.05 50.95 221.35 49.75 222.25 M57.1 233.75 Q58.85 233.75 58.85 229.9 58.85 225.75 57.4 225.75 56.2 225.75 55.6 229.6 55.6 233.75 57.1 233.75 M44.15 232.1 L44.0 231.75 44.1 231.7 44.1 231.8 44.15 232.1 M-25.8 229.95 Q-1.25 239.5 18.65 238.4 34.1 238.7 44.35 233.5 L50.1 244.7 51.55 245.95 53.05 250.1 Q52.8 251.65 51.8 253.1 20.15 238.55 -14.95 261.8 -26.5 262.4 -39.15 261.8 -50.0 261.3 -57.5 259.6 -53.35 237.9 -25.8 229.95 M1.85 285.7 Q21.65 293.4 40.25 283.65 44.4 281.85 46.75 278.6 51.5 272.7 45.3 265.35 52.05 277.15 39.35 282.45 19.9 291.05 1.85 285.7 M-31.0 265.85 L-29.55 265.85 -23.1 265.95 -22.5 265.95 -22.05 265.95 -14.35 266.2 -9.95 263.85 Q6.9 253.25 25.8 252.95 38.2 252.65 54.15 260.6 54.75 282.75 53.25 292.8 25.2 298.7 -8.75 298.7 -19.5 298.8 -29.5 298.3 L-30.0 265.95 -31.0 265.85 M-29.0 -196.25 L-23.15 -196.95 Q-10.85 -183.6 -12.0 -168.4 -12.0 -167.95 -11.45 -167.7 -43.95 -165.15 -60.35 -172.15 L-58.35 -178.75 Q-50.4 -187.3 -44.8 -190.55 -40.6 -192.85 -29.0 -196.25 M-18.2 -141.85 Q-21.45 -149.8 -30.6 -151.9 -22.35 -146.85 -22.95 -141.55 L-18.2 -141.85 M-49.8 82.55 Q-49.2 81.1 -49.5 79.0 -51.0 79.3 -51.6 80.8 -52.15 81.95 -51.85 84.05 -50.4 83.75 -49.8 82.55 M-45.1 85.8 Q-43.0 79.6 -46.85 77.25 -47.25 77.0 -47.6 76.9 -44.95 79.1 -46.25 84.35 -47.75 90.25 -51.6 87.6 L-52.3 87.0 Q-51.75 88.65 -50.4 89.65 -46.55 91.7 -45.1 85.8 M-48.4 76.35 L-47.9 76.2 -47.25 76.1 -47.15 76.05 Q-43.3 75.5 -43.9 81.7 -44.5 90.55 -48.6 91.15 -50.7 91.7 -52.15 88.45 L-52.2 88.35 -52.95 86.2 Q-53.45 84.05 -53.05 81.95 -52.0 77.4 -48.4 76.35 M-50.1 95.25 L-52.0 95.3 Q-46.85 96.1 -46.85 102.65 -46.85 109.45 -52.45 108.85 L-54.15 108.5 Q-52.7 110.0 -50.1 110.0 -44.5 110.6 -44.5 103.25 -44.5 95.85 -50.1 95.25 M-53.7 95.2 Q-52.35 94.0 -50.1 93.8 -44.2 93.2 -43.9 102.65 -43.9 112.1 -49.5 112.4 -53.35 112.4 -54.8 108.25 -55.5 106.35 -55.7 103.55 -56.3 97.5 -53.7 95.2 M-39.9 130.25 L-40.4 130.45 -40.55 130.5 -40.8 130.55 -42.95 130.75 -44.35 130.5 -46.15 129.75 Q-47.35 129.1 -48.6 128.05 -52.15 125.1 -51.3 119.75 -50.85 117.75 -49.95 116.45 -48.55 114.2 -45.95 113.85 -43.0 113.85 -41.85 114.45 -38.3 116.2 -36.5 121.25 -34.75 126.55 -38.0 129.2 L-39.9 130.25 M-38.9 133.05 Q-35.65 132.45 -32.1 134.25 -28.25 136.0 -27.65 138.95 -26.75 144.0 -30.9 145.75 L-31.1 145.9 -32.55 146.55 Q-36.25 147.85 -40.35 145.45 -44.9 142.5 -44.6 137.85 L-44.5 136.9 Q-43.9 133.35 -38.9 133.05 M-39.45 144.0 Q-38.0 144.85 -35.65 144.85 -35.65 142.8 -37.1 141.6 -38.9 140.45 -41.25 140.45 -42.15 141.9 -39.45 144.0 M-32.1 146.1 Q-30.1 145.5 -28.85 143.4 -25.6 138.35 -32.7 134.55 -40.05 131.0 -43.0 136.0 L-43.65 137.25 Q-40.65 133.35 -34.45 136.3 -27.95 140.15 -31.2 144.85 L-32.1 146.1 M-39.75 128.65 Q-33.85 125.95 -38.3 119.2 -42.4 112.4 -48.05 115.05 L-49.85 116.4 Q-44.7 113.4 -40.95 119.75 -36.5 125.95 -42.7 128.65 L-44.4 129.45 Q-42.2 130.1 -39.75 128.65 M-45.95 122.7 Q-47.45 119.45 -48.9 120.05 -50.7 120.65 -49.2 123.6 -48.05 127.15 -46.25 126.55 -44.8 125.95 -45.95 122.7 M-55.4 101.45 Q-56.0 105.0 -54.25 105.0 -52.75 105.6 -52.15 102.35 -52.15 99.1 -53.35 98.8 -54.8 98.2 -55.4 101.45 M-19.75 160.95 Q-17.45 160.4 -15.85 158.15 -12.9 153.15 -20.3 148.7 -28.25 144.85 -31.5 150.2 L-32.3 151.75 Q-28.6 147.55 -22.35 150.75 -14.95 154.3 -18.8 159.65 L-19.75 160.95 M-15.4 159.05 L-16.0 159.7 Q-17.6 161.05 -20.15 161.35 L-25.6 160.8 Q-33.15 159.05 -33.6 153.85 L-33.55 151.95 Q-33.25 147.25 -26.75 146.65 -22.05 146.05 -17.6 148.7 -12.3 151.95 -14.35 157.25 L-15.05 158.55 -15.4 159.05 M-29.7 155.2 Q-29.45 157.25 -27.65 158.45 -24.7 160.8 -23.5 159.35 -22.05 158.45 -25.3 156.1 -28.55 154.0 -29.7 155.2 M-33.0 159.95 L-34.15 158.45 -29.05 162.05 -28.4 162.45 Q-29.85 161.9 -33.0 159.95" fill="#6bbd46" fill-rule="evenodd" stroke="none"/>
    <path d="M59.0 256.95 L59.15 257.05 59.0 257.15 59.0 256.95 M67.0 -280.45 L69.4 -276.85 Q63.05 -278.65 54.45 -279.75 20.75 -283.3 -32.95 -272.35 2.0 -290.1 26.9 -292.85 48.95 -292.2 67.0 -280.45 M43.0 -189.05 L42.9 -189.1 43.1 -190.1 43.1 -190.25 43.0 -189.05 M45.3 -226.15 L41.75 -227.2 Q34.05 -230.15 5.4 -231.6 L20.6 -233.4 9.05 -232.45 24.0 -235.15 Q35.85 -236.95 45.3 -235.45 L45.15 -235.4 45.3 -235.35 45.3 -226.15 M61.4 -228.3 L61.2 -228.65 61.2 -228.2 Q58.65 -226.7 55.0 -226.0 L47.15 -225.8 47.05 -235.15 Q58.85 -233.7 62.4 -233.95 L62.05 -228.75 61.4 -228.3 M59.5 -206.05 L60.4 -205.05 60.35 -204.45 46.75 -207.4 47.0 -216.05 47.35 -218.05 Q46.8 -209.0 59.5 -206.05 M55.2 -190.15 Q54.2 -189.4 57.1 -188.85 L56.8 -187.6 45.3 -190.0 45.85 -197.55 Q48.25 -191.6 55.2 -190.15 M43.8 -174.65 Q45.6 -169.55 50.0 -170.35 48.9 -168.9 47.65 -168.4 L45.3 -168.15 43.2 -168.4 43.8 -174.65 M41.85 -166.3 L45.0 -166.35 45.0 -162.2 28.15 -163.1 20.45 -162.2 -18.8 -162.2 -18.8 -165.45 -17.2 -165.45 -16.4 -165.45 41.85 -166.3 M49.35 -156.05 L45.3 -156.6 37.0 -160.75 44.7 -161.05 Q45.55 -160.75 49.35 -156.05 M13.9 -159.0 L12.5 -158.7 Q-4.65 -151.0 -14.95 -154.25 -22.25 -156.55 -36.3 -154.25 -43.1 -149.95 -49.2 -143.3 L-48.9 -136.65 -50.7 -135.95 -51.6 -143.3 Q-51.0 -145.7 -46.25 -148.65 -38.9 -154.25 -32.95 -157.2 L-25.3 -160.45 -19.7 -161.05 16.65 -161.05 13.9 -159.0 M-5.6 -5.45 Q54.8 -53.05 59.45 -65.35 60.65 -68.3 57.95 -84.55 55.0 -102.85 49.4 -118.8 45.3 -130.25 40.7 -138.15 42.5 -161.85 19.6 -156.65 17.45 -156.5 15.35 -155.6 11.55 -155.2 7.5 -153.35 L14.6 -157.35 Q34.15 -166.4 44.7 -148.05 50.9 -133.85 60.65 -105.25 70.45 -76.0 70.6 -67.85 L63.9 -58.0 Q46.45 -33.8 22.85 -16.05 7.5 -4.55 -5.5 -5.45 L-5.6 -5.45 M20.0 -160.25 L22.85 -161.05 25.65 -161.15 20.0 -160.25 M-46.6 -109.5 L-49.2 -109.95 -49.2 -120.0 Q-27.35 -130.65 0.4 -130.9 L1.4 -129.45 1.35 -129.45 Q-25.75 -129.55 -47.15 -118.5 L-46.6 -109.5 M-20.15 -21.3 L-21.15 -20.2 -35.65 -40.55 -40.05 -47.65 -43.0 -58.85 -48.05 -81.9 Q-50.7 -94.6 -49.8 -97.85 L-49.2 -98.45 -16.15 -93.15 -13.9 -92.75 -1.05 -90.25 -0.1 -90.05 0.3 -89.95 Q8.95 -88.0 15.15 -85.75 L17.45 -80.95 Q5.05 -88.1 -47.95 -96.05 -48.6 -94.0 -48.6 -90.45 L-41.25 -59.45 Q-38.3 -49.45 -33.85 -43.2 L-20.15 -21.3 M-44.5 -152.7 L-41.75 -154.45 -40.75 -154.85 -40.7 -154.85 -43.05 -153.0 -44.5 -152.7 M26.95 -9.85 Q26.4 -10.15 25.8 -11.35 L19.3 -11.35 26.65 -16.65 26.95 -9.85 M24.2 -8.05 L24.3 -8.1 24.1 -0.75 Q24.8 36.0 23.15 37.1 21.4 38.3 17.1 15.55 14.3 8.55 5.7 5.2 L2.0 4.2 Q-20.85 2.0 -24.1 -6.9 -3.45 3.55 17.15 -6.85 18.4 -8.15 24.3 -8.7 L24.2 -8.05 M28.75 -2.05 L29.35 -5.7 Q35.55 16.8 30.45 38.25 L29.6 38.85 28.9 30.55 28.9 30.4 Q28.75 20.05 28.75 -2.05 M34.95 63.05 Q34.9 70.25 31.4 74.6 19.6 88.45 16.05 95.25 5.4 115.95 15.75 133.05 9.85 130.7 1.0 119.2 -11.7 102.65 -6.4 86.7 L-7.6 75.2 Q-9.35 65.75 -13.8 63.05 L34.95 63.05 M3.15 177.5 L4.8 179.7 Q6.8 182.8 7.6 186.05 L6.9 183.85 Q5.25 180.25 3.15 177.5 M8.05 190.05 Q3.25 181.25 -13.6 177.65 L-14.35 177.35 -13.2 172.6 Q1.0 172.05 8.05 190.05 M-23.45 227.5 L-11.8 230.9 -11.45 231.0 Q-17.95 229.6 -23.5 227.55 L-23.45 227.5 M27.45 53.35 Q34.45 56.65 35.0 61.0 L-14.35 61.0 -17.9 55.25 -18.8 53.05 Q-0.7 52.15 23.7 53.35 L27.45 53.35 M9.85 138.05 Q11.6 137.2 21.35 135.7 L20.45 152.85 9.85 152.85 Q8.65 146.95 9.85 138.05 M21.35 42.1 L21.35 50.95 -18.2 50.95 -18.2 42.7 Q-4.9 45.65 21.35 42.1 M33.3 177.75 L31.7 178.8 Q26.1 184.15 30.5 190.05 35.15 195.75 40.55 191.95 L39.1 193.3 Q33.15 198.3 27.85 191.5 22.85 185.0 28.45 179.7 30.9 177.75 33.3 177.75 M26.65 176.45 Q24.3 178.25 22.85 183.25 23.45 174.1 31.7 173.5 38.2 172.9 42.05 176.75 L46.45 183.55 Q50.9 190.95 50.6 198.3 L50.4 198.4 50.0 198.4 49.25 198.1 49.1 198.0 47.35 197.15 Q44.4 196.25 41.15 198.0 34.35 201.55 37.9 211.6 33.15 201.55 27.25 194.45 29.65 197.15 33.75 197.7 38.2 198.6 41.45 196.25 44.4 194.2 45.0 189.15 46.15 181.2 39.65 176.75 33.15 172.05 26.65 176.45 M38.4 204.45 Q39.1 203.25 40.25 202.15 43.0 199.95 45.55 200.1 L43.8 201.25 Q37.9 206.3 42.6 212.5 47.2 218.2 52.9 213.95 52.1 214.9 50.9 215.75 47.05 219.05 43.4 217.25 40.45 215.4 39.1 210.1 38.15 206.8 38.4 204.45 M47.95 219.55 Q48.8 219.55 50.0 218.7 51.2 218.1 52.05 218.4 52.05 219.25 51.5 219.55 L50.0 220.15 Q46.15 224.0 46.75 233.15 47.35 242.3 53.25 241.4 L53.55 246.15 51.05 244.65 51.05 244.6 50.15 243.7 47.05 237.9 43.8 226.05 39.35 214.85 Q44.4 219.85 47.95 219.55 M49.75 222.25 Q50.95 221.35 52.65 221.05 55.2 220.55 56.8 221.9 L55.0 221.95 Q49.1 223.1 49.7 231.1 50.8 238.7 55.7 238.3 L54.15 238.75 Q49.8 239.6 48.2 235.5 47.75 233.55 47.65 230.8 47.65 224.7 49.75 222.25 M44.0 231.75 L44.15 232.1 44.35 233.5 Q34.1 238.7 18.65 238.4 -1.25 239.5 -25.8 229.95 L-24.9 229.7 -13.8 232.25 Q21.85 238.75 44.0 231.75 M51.55 245.95 L53.85 247.6 54.15 258.25 42.05 253.25 Q17.25 245.85 -10.25 261.8 -14.05 264.15 -14.35 264.15 L-47.15 263.0 -57.8 261.5 -57.8 261.2 -57.5 259.6 Q-50.0 261.3 -39.15 261.8 -26.5 262.4 -14.95 261.8 20.15 238.55 51.8 253.1 52.8 251.65 53.05 250.1 L51.55 245.95 M-31.0 265.85 L-30.0 265.95 -29.5 298.3 Q-44.15 297.5 -57.1 295.45 -58.65 290.9 -58.35 276.85 L-57.85 263.05 Q-46.6 265.3 -31.15 265.8 L-31.0 265.85 M-33.85 -250.2 Q-26.2 -250.5 -16.75 -259.95 6.0 -254.35 38.8 -258.2 -3.75 -247.85 -73.15 -234.25 L-70.75 -237.5 Q-69.3 -242.25 -72.25 -249.35 L-52.75 -256.1 Q-39.15 -249.9 -33.85 -250.2 M-11.45 -167.7 Q-12.0 -167.95 -12.0 -168.4 -10.85 -183.6 -23.15 -196.95 L-20.0 -197.35 Q-8.15 -179.65 -6.4 -168.15 L-11.45 -167.7 M-45.1 85.8 Q-46.55 91.7 -50.4 89.65 -51.75 88.65 -52.3 87.0 L-51.6 87.6 Q-47.75 90.25 -46.25 84.35 -44.95 79.1 -47.6 76.9 -47.25 77.0 -46.85 77.25 -43.0 79.6 -45.1 85.8 M-32.95 121.4 Q-25.95 140.05 -15.25 149.3 -21.75 145.15 -27.35 145.75 -26.5 144.0 -26.2 142.8 -25.3 138.35 -29.15 135.1 -32.4 132.15 -36.8 131.3 -35.05 129.8 -34.75 128.9 -32.1 123.9 -35.95 118.3 -39.75 113.0 -45.1 112.4 L-44.8 111.2 -43.9 109.75 Q-42.15 105.3 -43.3 99.7 -44.5 93.5 -48.05 92.3 -43.6 87.9 -42.7 79.6 L-39.8 96.85 -39.75 97.05 Q-37.75 110.2 -32.95 121.4 M-50.1 95.25 Q-44.5 95.85 -44.5 103.25 -44.5 110.6 -50.1 110.0 -52.7 110.0 -54.15 108.5 L-52.45 108.85 Q-46.85 109.45 -46.85 102.65 -46.85 96.1 -52.0 95.3 L-50.1 95.25 M-40.35 147.25 L-34.75 148.4 Q-36.2 149.9 -35.95 153.15 L-35.45 155.6 -40.35 147.25 M-32.1 146.1 L-31.2 144.85 Q-27.95 140.15 -34.45 136.3 -40.65 133.35 -43.65 137.25 L-43.0 136.0 Q-40.05 131.0 -32.7 134.55 -25.6 138.35 -28.85 143.4 -30.1 145.5 -32.1 146.1 M-39.75 128.65 Q-42.2 130.1 -44.4 129.45 L-42.7 128.65 Q-36.5 125.95 -40.95 119.75 -44.7 113.4 -49.85 116.4 L-48.05 115.05 Q-42.4 112.4 -38.3 119.2 -33.85 125.95 -39.75 128.65 M-42.7 132.15 Q-44.2 133.05 -44.8 133.95 L-45.1 132.15 -42.7 132.15 M-19.75 160.95 L-18.8 159.65 Q-14.95 154.3 -22.35 150.75 -28.6 147.55 -32.3 151.75 L-31.5 150.2 Q-28.25 144.85 -20.3 148.7 -12.9 153.15 -15.85 158.15 -17.45 160.4 -19.75 160.95" fill="#016a3a" fill-rule="evenodd" stroke="none"/>
    <path d="M51.0 -299.5 L51.1 -299.45 51.75 -299.25 Q53.45 -298.55 55.25 -297.45 L51.0 -299.5 M-75.75 277.65 Q-77.0 265.2 -76.05 258.55 L-75.75 277.65 M67.0 -280.45 Q48.95 -292.2 26.9 -292.85 -13.0 -294.0 -66.0 -258.9 L-71.5 -254.75 Q-68.95 -257.85 -64.55 -261.15 L-53.95 -269.4 Q-20.3 -295.4 29.05 -298.35 52.8 -300.0 67.0 -280.45 M73.45 -269.4 L73.6 -269.1 71.8 -268.35 71.75 -268.35 68.9 -268.8 47.65 -272.05 Q15.0 -275.4 -9.65 -269.1 41.05 -283.85 73.45 -269.4 M65.65 -264.15 Q5.15 -237.15 -65.45 -233.5 L1.85 -247.55 Q40.05 -255.85 65.65 -264.15 M-32.65 -216.05 Q-18.8 -208.35 -10.85 -189.4 -8.95 -184.7 -7.7 -180.25 -12.1 -193.05 -25.1 -207.4 L-25.2 -207.5 -25.6 -208.0 -30.3 -213.3 -32.65 -216.05 M9.9 -233.9 L6.3 -233.1 Q15.45 -241.35 57.4 -244.0 68.4 -244.7 74.25 -255.2 L74.2 -254.95 Q72.75 -247.55 71.25 -244.9 L68.3 -240.75 Q64.2 -237.5 52.95 -237.5 L34.95 -238.1 Q21.65 -238.1 9.9 -233.9 M61.4 -228.3 L61.95 -227.4 60.4 -205.05 59.5 -206.05 58.85 -206.8 Q60.35 -208.85 61.2 -228.2 L61.2 -228.65 61.4 -228.3 M58.8 -202.9 L60.05 -202.65 57.1 -188.85 Q54.2 -189.4 55.2 -190.15 L55.3 -190.25 Q57.05 -191.75 58.8 -202.9 M55.9 -186.2 L56.15 -186.0 52.95 -176.4 Q51.7 -172.7 50.25 -170.65 L48.55 -170.8 Q50.0 -172.25 54.9 -186.35 L55.9 -186.2 M23.35 -73.4 L23.45 -73.65 24.0 -72.2 23.35 -73.4 M24.0 -72.15 L25.6 -68.35 Q26.7 -66.7 27.85 -65.95 27.1 -64.3 25.65 -62.2 L25.8 -62.1 0.4 -34.35 Q-17.25 -15.2 -22.65 -10.6 L-25.0 -11.65 Q-17.3 -21.95 -0.2 -41.45 L20.75 -68.3 24.0 -72.15 M25.8 -153.35 Q29.25 -151.45 32.55 -147.8 36.45 -141.65 32.3 -138.6 27.85 -135.95 23.15 -142.75 18.4 -149.5 22.85 -152.5 24.3 -153.45 25.8 -153.35 M37.3 -172.25 L1.0 -170.8 30.5 -177.6 Q36.4 -180.55 42.6 -222.15 L37.3 -172.25 M-10.0 -103.25 L-10.25 -103.3 Q-11.9 -111.75 -19.7 -125.0 L-14.05 -127.1 Q-10.7 -108.65 -10.0 -103.25 M-12.15 -30.5 L-13.3 -29.2 Q-2.25 -62.45 -11.7 -89.6 L-5.5 -88.1 Q-2.25 -50.75 -12.15 -30.5 M9.8 -97.2 L-5.15 -98.15 Q-4.2 -94.95 -5.6 -93.05 L-11.05 -94.0 Q-9.5 -95.3 -10.05 -98.9 -25.7 -101.55 -48.9 -108.2 L-48.8 -108.2 -43.0 -107.3 -22.3 -103.65 -18.5 -102.85 -10.6 -101.3 -10.65 -101.5 -7.45 -100.8 -7.15 -100.65 -1.9 -99.65 9.8 -97.2 M-53.55 -86.8 L-54.8 -92.25 Q-57.8 -105.8 -56.0 -132.1 -55.1 -143.35 -54.55 -145.0 -55.6 -102.65 -53.55 -86.8 M-49.9 -134.45 L-49.95 -134.45 -41.85 -137.1 Q-31.8 -139.2 -18.2 -139.8 L-13.65 -140.1 -13.75 -140.1 -17.8 -139.5 Q-14.5 -133.9 -17.05 -131.4 L-20.6 -130.85 Q-19.0 -135.75 -22.75 -138.75 L-49.9 -134.45 M-24.0 -9.1 Q-34.6 30.1 -12.0 41.95 L-13.5 41.8 Q-23.5 40.05 -24.4 38.85 -25.3 38.0 -27.35 28.25 -30.3 4.3 -25.9 -10.15 L-24.0 -9.1 M-14.6 63.05 L-14.35 63.65 -26.05 63.05 -14.6 63.05 M-27.8 63.05 Q-33.95 64.6 -36.6 70.45 -38.25 116.85 -18.75 142.95 -34.35 124.8 -39.75 85.8 L-41.25 74.0 -43.3 70.75 -40.65 66.6 Q-38.6 63.35 -37.1 63.05 L-27.8 63.05 M-26.8 163.35 Q-25.85 165.25 -23.65 167.5 L-26.5 167.0 Q-28.55 166.4 -30.6 163.15 L-33.0 159.95 Q-29.85 161.9 -28.4 162.45 L-28.35 162.5 -26.8 163.3 -26.8 163.35 M-13.6 177.65 L-10.55 178.8 -23.45 227.5 -23.5 227.55 -26.5 226.35 -14.35 177.35 -13.6 177.65 M-18.8 53.05 L-17.9 55.25 -15.45 61.0 -34.75 61.0 Q-35.05 60.1 -33.25 59.25 -27.35 53.35 -27.05 53.35 L-19.4 53.05 -18.8 53.05 M-24.9 229.7 L-25.8 229.95 Q-53.35 237.9 -57.5 259.6 L-57.8 261.2 -57.8 261.5 Q-65.9 259.85 -71.05 257.05 -51.3 231.7 -32.7 228.45 L-31.5 228.15 -24.9 229.7 M1.85 285.7 Q19.9 291.05 39.35 282.45 52.05 277.15 45.3 265.35 51.5 272.7 46.75 278.6 44.4 281.85 40.25 283.65 21.65 293.4 1.85 285.7 M-57.1 295.45 L-70.75 292.8 -71.35 259.15 Q-65.6 261.5 -57.85 263.05 L-58.35 276.85 Q-58.65 290.9 -57.1 295.45 M-29.0 -196.25 Q-40.6 -192.85 -44.8 -190.55 -50.4 -187.3 -58.35 -178.75 L-60.35 -172.15 Q-63.5 -173.5 -66.05 -175.2 -62.8 -182.3 -51.0 -190.55 L-47.75 -192.95 -44.8 -194.4 -29.0 -196.25 M-18.2 -141.85 L-22.95 -141.55 Q-22.35 -146.85 -30.6 -151.9 -21.45 -149.8 -18.2 -141.85 M-32.95 121.4 Q-37.75 110.2 -39.75 97.05 L-39.8 96.85 Q-37.0 110.65 -32.95 121.4" fill="#f2f5d3" fill-rule="evenodd" stroke="none"/>
    <path d="M36.1 180.6 Q38.2 179.4 39.65 182.95 42.05 186.5 39.65 187.1 38.2 188.25 36.1 184.75 34.35 181.2 36.1 180.6 M51.75 209.85 Q49.7 210.4 47.95 207.45 46.45 203.9 47.95 203.05 50.0 202.15 51.5 205.4 53.55 208.65 51.75 209.85 M57.1 233.75 Q55.6 233.75 55.6 229.6 56.2 225.75 57.4 225.75 58.85 225.75 58.85 229.9 58.85 233.75 57.1 233.75 M-49.8 82.55 Q-50.4 83.75 -51.85 84.05 -52.15 81.95 -51.6 80.8 -51.0 79.3 -49.5 79.0 -49.2 81.1 -49.8 82.55 M-39.45 144.0 Q-42.15 141.9 -41.25 140.45 -38.9 140.45 -37.1 141.6 -35.65 142.8 -35.65 144.85 -38.0 144.85 -39.45 144.0 M-55.4 101.45 Q-54.8 98.2 -53.35 98.8 -52.15 99.1 -52.15 102.35 -52.75 105.6 -54.25 105.0 -56.0 105.0 -55.4 101.45 M-45.95 122.7 Q-44.8 125.95 -46.25 126.55 -48.05 127.15 -49.2 123.6 -50.7 120.65 -48.9 120.05 -47.45 119.45 -45.95 122.7 M-29.7 155.2 Q-28.55 154.0 -25.3 156.1 -22.05 158.45 -23.5 159.35 -24.7 160.8 -27.65 158.45 -29.45 157.25 -29.7 155.2" fill="#e0f3c6" fill-rule="evenodd" stroke="none"/>
  </g>
</svg>
