<?xml version="1.0" encoding="UTF-8" standalone="no"?>
<svg xmlns:xlink="http://www.w3.org/1999/xlink" height="497.6px" width="297.95px" xmlns="http://www.w3.org/2000/svg">
  <g transform="matrix(1.0, 0.0, 0.0, 1.0, 106.8, 121.2)">
    <path d="M-18.0 -100.15 Q-22.85 -91.2 -20.9 -64.2 -19.45 -43.25 -13.85 -11.45 L-13.6 -10.2 -13.7 -11.45 Q-15.4 -36.25 -5.55 -64.2 L-2.05 -73.4 Q1.95 -83.25 7.35 -93.45 L11.35 -101.0 Q11.35 -106.75 8.0 -109.9 4.95 -112.75 -0.05 -112.55 -11.45 -112.25 -18.0 -100.15 M-31.75 -37.5 Q-33.45 -48.85 -33.95 -60.3 L-34.05 -64.2 Q-34.2 -74.55 -32.6 -84.8 -30.75 -96.65 -22.6 -105.75 -13.95 -115.35 -1.2 -117.3 10.2 -119.15 21.5 -116.55 33.45 -113.8 43.5 -106.65 47.8 -103.55 51.05 -99.35 50.95 -97.3 50.3 -95.25 47.8 -87.9 44.6 -80.85 40.7 -72.4 36.35 -64.2 29.4 -51.15 21.25 -38.8 L17.5 -33.1 Q18.3 -28.25 16.7 -23.8 15.1 -19.35 11.9 -15.7 9.75 -13.3 7.35 -11.45 -1.6 -4.45 -13.8 -4.8 -19.25 -5.0 -22.45 -9.5 L-23.75 -11.45 Q-27.45 -17.3 -29.05 -24.05 -30.6 -30.4 -31.65 -36.9 L-31.7 -37.35 -31.75 -37.5 M-35.2 -58.55 L-34.65 -49.95 -35.15 -51.3 -40.6 -78.2 -41.15 -77.8 -38.3 -81.0 -35.2 -58.55 M-33.05 -37.15 Q-41.25 -33.95 -32.1 -11.9 L-31.35 -7.0 Q-29.9 2.15 -28.5 8.45 -26.25 18.55 -24.15 20.95 -21.05 24.55 -18.85 27.45 L-18.85 30.65 -19.3 31.7 Q-19.7 32.25 -19.9 33.15 -20.45 31.65 -20.8 31.7 -22.6 48.7 -35.45 56.45 L-53.15 60.7 -50.55 64.0 -61.2 51.15 Q-60.55 45.55 -23.45 26.1 L-22.3 26.35 Q-22.7 26.1 -23.05 25.9 L-22.0 25.35 -23.25 25.75 Q-31.5 20.6 -32.55 10.55 L-32.8 8.45 Q-34.05 -1.65 -36.5 -11.45 L-37.85 -16.6 Q-41.4 -29.0 -35.5 -39.65 L-33.75 -41.85 -33.05 -37.15 M-20.9 2.1 L-21.9 -0.35 Q-21.4 -1.8 -18.3 -0.8 -20.25 -0.8 -20.9 2.1 M-17.2 0.4 Q-16.55 1.05 -15.95 1.35 L-15.15 2.65 -16.95 0.7 -17.2 0.4 M-26.1 -12.45 Q-30.95 -19.3 -31.65 -29.85 L-26.1 -12.45 M66.3 -92.95 L72.15 -90.6 Q81.9 -80.05 69.75 -64.2 L69.35 -63.7 Q59.5 -56.7 51.05 -48.25 46.55 -43.9 43.85 -38.35 L45.25 -39.85 Q59.45 -48.25 67.5 -47.05 L55.1 -20.1 42.85 -21.7 Q39.95 -22.15 37.15 -21.1 L37.1 -20.95 Q34.9 -16.05 32.1 -11.45 L28.5 -6.15 Q24.85 -1.15 19.75 2.1 L2.8 7.25 3.0 7.7 2.2 7.75 1.55 7.85 2.5 10.05 -2.05 16.8 -14.1 3.8 Q-8.25 9.45 0.1 7.85 -6.3 7.85 -11.8 4.1 L-14.1 1.8 -14.4 1.4 -12.85 1.5 Q-1.15 8.6 10.2 0.9 16.9 -3.7 20.7 -11.05 L21.0 -11.45 Q27.1 -20.25 30.7 -30.35 L38.45 -52.35 42.3 -64.2 45.75 -75.9 Q49.25 -88.5 52.95 -97.7 L53.1 -97.55 53.35 -97.3 46.05 -44.9 Q56.0 -55.65 61.9 -64.2 76.0 -84.85 66.3 -92.95 M37.7 -0.1 Q38.35 4.9 36.95 8.45 36.0 10.75 34.1 12.5 L39.9 10.75 44.65 13.05 46.15 13.7 66.05 -5.6 70.5 -8.15 73.2 -1.6 72.75 -1.4 72.3 -1.15 46.05 17.6 Q49.3 24.95 48.05 33.15 47.55 36.25 46.1 39.15 L45.85 39.25 46.05 39.25 48.2 39.7 74.2 44.6 77.55 41.7 76.5 51.05 74.6 50.95 39.35 48.4 35.15 51.3 35.05 51.75 Q32.95 65.65 37.2 79.05 37.8 92.7 50.8 93.3 62.85 94.2 72.7 86.35 L68.0 97.2 53.6 104.1 Q40.7 99.15 31.45 88.55 L30.7 87.6 27.5 55.0 27.95 55.0 27.45 54.5 26.45 43.25 Q33.9 40.5 36.05 32.95 39.2 22.0 30.95 14.6 L28.75 15.5 28.3 15.65 Q21.45 17.8 15.95 17.05 9.7 16.2 5.25 11.6 L3.8 9.55 7.0 8.3 Q31.2 5.25 37.7 -0.1 M96.05 33.95 Q100.2 37.65 96.85 44.2 L96.55 44.65 95.4 34.2 96.05 33.95 M60.6 90.1 L57.05 91.2 Q58.7 89.9 60.4 88.65 L59.65 89.85 60.6 90.1 M56.35 91.3 Q42.45 91.9 38.3 78.15 34.7 66.1 35.9 53.55 36.0 52.1 36.85 51.0 L42.8 51.65 68.6 54.5 Q62.25 85.9 56.35 91.3 M20.75 -54.1 L27.6 -64.2 Q44.7 -90.0 44.7 -96.65 44.7 -105.55 39.85 -104.05 35.3 -102.9 31.8 -96.0 28.35 -80.6 21.2 -64.2 12.0 -43.1 -3.4 -20.4 L20.75 -54.1 M41.7 9.75 Q43.9 10.3 46.45 8.45 52.0 4.3 59.2 -11.45 L59.95 -13.05 Q69.5 -34.2 77.4 -41.85 87.75 -51.95 100.2 -45.9 103.45 -44.1 106.35 -41.9 115.9 -23.9 123.45 -11.45 131.4 1.55 137.2 8.45 L139.4 10.9 Q149.6 21.1 152.45 26.65 158.65 38.4 152.8 52.15 151.6 54.85 150.95 56.9 146.55 60.75 138.8 60.9 L137.45 61.8 133.45 61.75 133.45 61.7 133.3 61.75 132.65 61.75 131.15 58.25 Q123.25 37.8 127.5 15.95 L125.25 19.3 117.85 8.45 111.95 -0.6 Q108.55 -5.85 106.7 -11.45 104.9 -16.8 104.5 -22.45 103.55 -35.55 90.4 -38.35 77.65 -41.15 74.1 -27.0 71.55 -17.1 79.2 -11.45 81.45 -9.8 84.6 -8.45 95.6 -3.85 103.85 5.75 L106.0 8.45 Q111.6 15.55 115.4 23.65 L88.7 0.9 83.35 -5.2 Q80.65 -9.3 76.15 -11.45 73.45 -12.75 70.1 -13.35 L68.35 -13.9 68.95 -13.45 70.1 -9.2 Q64.7 -6.9 57.6 -0.5 L43.85 12.1 41.7 9.75 M44.7 -19.9 L53.7 -16.05 52.3 -11.45 Q49.1 -2.15 43.3 5.8 L40.8 8.45 Q39.25 9.7 37.35 10.5 L37.9 8.45 Q38.45 5.8 38.75 1.55 39.0 -1.6 38.2 -4.65 L44.7 -19.9 M136.35 94.2 L136.05 93.6 137.9 93.05 136.35 94.2 M89.5 6.85 L89.6 7.3 95.0 32.75 87.25 6.25 89.5 6.85 M77.4 39.4 L76.8 39.6 76.8 39.55 77.4 39.4 M76.25 39.65 L47.55 38.4 Q49.55 33.45 49.25 28.2 L49.1 26.7 47.75 17.9 48.9 20.3 67.1 8.9 Q76.35 10.7 74.35 39.05 L76.25 39.65 M153.6 82.95 L147.95 87.35 147.6 87.55 134.5 92.7 124.65 90.5 Q131.85 87.15 137.8 82.0 140.65 79.45 140.35 76.65 L131.85 84.65 121.95 67.75 123.5 67.45 Q131.45 65.95 136.05 68.85 132.4 65.55 126.45 65.6 134.95 65.2 142.85 68.35 154.95 73.1 148.35 86.55 L153.6 82.95 M123.15 64.25 L123.65 63.7 126.5 64.25 123.15 64.25 M134.35 94.05 L152.1 124.9 Q150.6 126.05 145.05 129.05 136.0 114.8 123.95 91.85 L134.35 94.05 M75.7 6.15 L75.05 4.25 68.8 7.85 75.3 3.75 75.7 6.15 M77.95 14.45 L76.8 8.45 76.7 7.95 76.9 8.45 Q79.05 12.9 79.15 21.95 78.8 18.35 77.95 14.45 M-1.95 18.25 L2.8 11.25 7.8 16.45 Q2.55 24.75 6.55 35.0 8.25 39.45 12.35 42.1 L14.25 48.3 14.55 51.65 15.05 51.65 15.35 53.05 14.75 53.05 16.75 74.65 Q16.0 82.75 13.25 90.3 11.05 96.4 5.5 99.4 L0.45 93.4 9.35 86.0 8.3 76.55 4.4 47.45 4.3 46.8 3.8 46.75 2.8 45.75 -10.45 45.95 -16.15 45.6 Q-17.45 44.85 -18.0 42.85 L-18.2 41.55 -17.55 38.2 -3.75 40.6 -2.0 37.75 -4.1 23.3 -12.5 15.35 -19.4 5.75 -19.5 5.4 -19.55 5.3 -19.55 5.1 Q-20.0 2.8 -18.75 1.05 L-13.55 8.45 Q-6.65 18.0 -4.4 19.65 -3.8 20.25 -1.95 18.25 M15.65 43.5 L15.8 43.55 25.35 44.5 25.95 51.8 16.5 51.65 15.65 43.5 M26.25 55.05 L28.8 86.85 20.0 86.95 16.85 55.4 26.25 55.05 M6.8 42.75 Q-3.4 30.85 3.15 18.95 -7.1 26.5 1.0 42.4 6.35 43.9 6.8 42.75 M6.5 49.45 L12.2 82.65 12.15 73.8 10.15 49.05 6.5 49.45 M28.95 50.15 L32.45 83.5 32.3 49.95 28.95 50.15 M4.25 85.8 Q3.45 86.8 2.95 86.35 L2.75 86.2 4.25 85.8 M-12.65 50.2 L-12.8 49.55 4.15 50.9 7.75 74.85 Q8.75 81.3 4.55 85.55 -1.45 78.4 -10.75 50.5 L-12.65 50.2 M10.65 97.45 L17.7 88.35 Q17.55 93.35 10.65 97.45 M30.25 88.9 L41.2 98.9 14.9 97.9 15.5 103.1 17.5 109.6 22.0 113.1 25.1 134.75 Q21.7 131.25 19.35 127.05 15.95 121.0 15.85 113.65 L11.55 111.45 10.15 101.75 18.7 91.35 31.8 91.05 30.25 88.9 M41.85 41.1 Q49.9 25.0 39.7 17.45 46.2 29.35 36.0 41.45 36.5 42.4 41.85 41.1 M67.3 127.7 Q58.8 115.55 71.2 108.55 73.1 107.4 75.3 106.6 74.0 117.5 76.5 128.1 L76.4 128.6 67.3 127.7 M68.85 105.2 L64.5 107.95 63.8 101.05 67.05 99.3 64.3 105.1 68.85 105.2 M59.55 121.3 L62.8 127.55 58.1 128.05 54.8 113.65 58.5 109.0 57.3 104.55 61.95 101.75 62.8 109.3 59.15 115.95 59.05 116.65 Q58.5 118.8 59.55 121.3 M53.65 115.65 L53.7 116.25 24.2 118.7 24.05 117.7 Q28.7 114.75 53.65 115.65 M54.45 121.2 L55.15 123.9 Q48.25 128.75 25.95 128.25 L25.65 127.75 24.9 123.35 54.45 121.2 M23.7 115.45 L23.4 113.3 Q36.3 110.05 49.35 112.05 L51.75 112.5 Q42.65 110.9 23.75 115.0 L23.7 115.45 M51.8 131.05 L52.3 130.9 46.9 134.2 51.8 131.05 M53.9 134.95 L43.45 140.6 43.0 140.8 Q49.85 136.35 53.9 134.95 M36.8 142.9 L33.65 143.35 Q34.85 142.4 36.8 142.9 M14.35 132.2 Q7.25 124.2 -2.85 120.95 L-5.25 120.15 Q1.15 117.85 7.8 119.6 13.7 121.15 16.9 125.9 L14.35 123.05 Q13.55 128.6 14.6 132.5 L14.35 132.2 M37.0 178.55 L36.3 171.8 36.7 173.35 Q34.05 159.95 41.25 146.85 43.85 142.05 41.55 142.7 L54.0 136.45 Q64.6 131.3 75.95 133.65 83.2 140.45 87.6 154.2 92.45 169.8 97.8 188.55 110.4 197.45 91.15 207.85 114.7 203.3 129.15 218.55 130.25 219.35 131.1 221.1 126.35 216.4 117.25 213.2 101.15 207.45 89.6 210.85 112.2 209.0 131.25 221.5 L133.8 243.05 141.2 234.35 137.35 239.9 134.8 243.0 Q131.4 247.15 127.3 250.65 117.45 259.15 104.6 259.2 92.3 259.2 80.75 255.2 L85.1 256.35 Q79.9 254.2 77.7 249.4 70.5 217.2 84.9 212.2 L83.6 211.35 83.6 209.85 83.75 209.65 83.55 209.8 Q82.85 205.85 75.5 202.45 84.3 204.2 90.85 198.1 95.05 194.2 96.85 188.75 L80.9 144.5 Q75.1 130.9 65.15 141.1 L63.35 143.1 Q63.95 140.3 66.65 138.25 67.35 137.45 68.45 136.85 L65.15 137.1 Q63.25 139.45 61.45 145.8 58.85 150.05 57.95 155.35 55.8 167.35 55.95 179.55 56.1 193.7 68.15 199.8 L69.5 200.45 Q64.8 199.7 59.45 201.45 57.75 191.2 55.0 179.4 52.25 167.65 54.45 155.85 56.05 147.1 52.95 140.2 48.1 145.85 46.3 154.4 43.35 168.6 44.1 183.2 44.8 196.85 47.35 206.85 L51.65 205.05 45.05 208.45 37.0 178.55 M17.35 137.6 Q10.75 173.2 -23.65 183.2 L-22.1 183.4 -23.7 184.05 Q-17.1 183.8 -10.65 182.0 5.55 177.3 10.75 166.7 L18.1 158.25 2.4 180.75 -6.5 183.6 -24.35 186.55 -22.3 186.6 -6.75 187.35 Q5.6 186.9 15.35 179.35 26.2 170.85 35.3 179.8 L40.65 197.95 Q37.95 198.15 35.4 199.05 23.75 202.9 12.5 205.35 L1.15 203.8 Q-9.2 202.5 -19.4 203.7 L-24.2 202.05 -25.6 201.55 Q-29.55 198.1 -32.15 196.15 L-24.7 192.4 Q-33.8 189.1 -43.2 191.05 -51.8 192.75 -59.3 189.95 -65.85 187.55 -69.35 181.95 L-66.95 162.3 Q-66.15 161.05 -66.55 159.15 L-65.55 154.9 Q-57.2 146.8 -47.05 140.9 -44.55 139.45 -41.8 138.4 -32.25 134.65 -22.25 132.35 -11.5 129.9 -1.4 126.2 L-2.25 122.65 Q7.8 125.6 16.25 136.35 L16.5 136.65 16.55 136.7 16.95 137.15 17.35 137.6 M61.45 132.4 L64.4 129.3 62.2 128.9 76.2 130.4 78.2 133.0 73.8 131.85 61.45 132.4 M68.15 141.3 Q68.5 142.8 71.35 142.15 74.0 141.6 73.7 140.1 73.35 138.45 70.65 139.15 67.8 139.75 68.15 141.3 M65.75 145.75 L64.5 146.0 65.8 143.05 65.75 145.75 M65.8 143.05 Q71.15 132.75 77.15 144.05 L76.65 144.9 Q75.25 146.85 72.8 147.5 70.5 145.55 67.05 145.65 L65.8 143.05 M77.95 145.6 Q79.4 148.95 75.2 150.7 L74.55 149.5 Q77.3 147.9 77.95 145.6 M12.85 166.7 L14.05 164.9 Q28.0 165.4 34.05 177.85 L33.65 177.45 Q25.55 168.0 12.85 166.7 M72.55 151.55 Q76.0 153.5 73.15 157.9 L71.3 157.0 72.55 151.55 M69.0 156.25 Q66.55 155.75 64.35 156.6 L60.75 151.05 60.3 152.3 Q60.15 149.0 63.0 148.7 61.9 149.35 62.15 150.35 62.45 152.05 65.15 151.35 67.65 150.75 67.7 149.5 69.6 150.15 72.0 151.25 L72.5 151.55 69.0 156.25 M83.35 190.5 Q82.75 196.25 75.7 196.3 72.3 196.25 70.4 195.05 67.95 193.45 67.85 189.85 L68.65 186.45 68.95 185.5 Q70.6 183.1 74.85 182.7 78.2 182.35 80.75 184.2 83.4 186.2 83.4 189.4 L83.35 190.5 M65.4 169.5 Q56.4 168.1 61.85 158.95 L62.4 158.4 62.7 158.25 Q76.0 154.8 74.15 166.95 L73.7 168.1 71.8 167.85 Q74.45 165.25 73.35 161.9 L73.15 161.25 Q71.15 169.9 62.6 164.45 61.55 163.8 61.3 162.5 60.35 167.75 65.4 169.5 M66.15 159.1 Q63.45 159.7 63.8 161.55 64.45 163.4 67.0 162.9 70.0 162.25 69.35 160.4 69.0 158.55 66.15 159.1 M70.35 168.8 Q76.2 168.45 78.2 173.65 80.2 179.0 75.2 181.7 73.85 181.5 72.7 182.05 L70.85 182.7 Q67.15 183.2 64.5 179.7 61.95 176.15 64.3 172.45 66.5 169.1 70.35 168.8 M69.35 170.95 Q66.8 171.95 67.3 173.65 68.0 175.45 70.65 174.65 73.2 173.8 72.7 171.8 72.15 170.1 69.35 170.95 M65.3 175.3 Q70.45 187.6 76.0 176.9 73.2 180.1 65.5 175.5 L65.3 175.3 M69.5 187.3 Q69.35 187.7 69.5 188.0 72.05 193.4 74.25 194.9 76.65 196.55 78.6 193.6 79.85 191.65 80.9 187.8 75.85 198.5 69.5 187.3 M74.85 188.4 Q77.7 188.35 77.7 186.35 77.7 184.35 74.85 184.35 72.0 184.35 72.05 186.35 72.0 188.35 74.85 188.4 M136.15 244.7 Q143.45 253.9 146.9 263.2 157.6 292.35 130.0 321.85 122.85 322.35 115.7 321.65 89.5 319.8 67.1 306.2 59.65 301.65 53.6 295.5 55.05 287.85 58.1 280.75 62.2 271.25 67.25 263.2 70.05 258.75 73.2 254.75 83.3 258.55 93.75 261.15 106.05 264.3 117.35 259.0 128.25 253.8 136.15 244.7 M90.95 218.7 Q86.9 220.55 81.05 219.7 76.35 242.65 85.4 251.4 92.95 258.55 104.5 258.45 L108.65 258.15 Q91.85 244.25 92.35 218.05 L90.95 218.7 M91.6 263.2 Q85.95 261.7 79.05 258.95 L62.3 299.15 Q72.35 309.2 98.5 315.25 107.85 264.95 109.9 263.65 103.5 266.35 91.6 263.2 M65.15 222.25 L77.2 214.6 83.6 211.35 65.15 222.25 74.85 253.15 72.05 252.05 65.15 222.25 M65.9 220.0 L64.65 220.75 Q61.6 219.3 49.3 211.55 L48.85 211.25 48.2 210.85 47.35 209.5 Q57.9 213.1 65.9 220.0 M7.45 207.85 L14.0 208.3 Q4.5 209.25 -4.9 214.05 L-38.9 230.25 -31.5 230.25 Q-35.6 230.55 -39.9 230.45 L-4.1 208.7 -3.7 207.15 -1.25 207.5 7.45 207.85 M16.6 208.15 Q27.0 202.7 35.3 209.95 L30.5 210.65 16.6 208.15 M15.7 213.55 L6.55 216.9 15.3 213.35 15.7 213.55 M-67.05 225.0 L-71.25 222.9 -67.2 217.1 -67.05 225.0 M5.35 262.3 L-12.3 267.15 -15.1 228.45 17.3 214.5 Q58.6 238.8 5.35 262.3 M17.75 212.55 Q24.45 210.55 28.65 210.9 L17.75 212.55 M181.05 335.25 Q169.95 355.8 154.35 365.35 147.85 369.3 140.55 371.4 120.45 377.25 97.3 368.55 L89.5 365.35 Q79.05 360.85 71.5 356.3 61.8 350.45 60.45 346.4 L59.1 340.7 57.15 331.9 Q53.5 314.8 53.25 306.05 L53.25 299.5 Q53.55 298.8 54.9 300.5 77.85 319.6 108.4 323.65 L120.8 324.6 133.5 324.15 Q135.0 323.95 142.55 320.95 L147.5 318.5 Q177.95 313.8 180.8 331.9 L181.05 335.25 M14.1 203.3 L32.9 197.75 Q25.2 199.45 17.6 199.6 10.05 199.7 2.8 197.15 -6.35 193.95 -15.3 190.4 L-20.65 196.05 14.1 203.3 M-15.45 17.7 L-15.55 14.05 -14.0 15.65 Q-7.85 24.25 -4.6 27.95 -4.65 32.2 -3.55 36.7 L-12.8 36.3 Q-14.95 23.35 -15.45 17.7 M-32.9 14.05 L-32.4 13.6 Q-30.8 23.6 -24.25 25.85 -30.15 26.1 -32.9 14.05 M-68.55 45.35 L-68.0 45.65 Q-70.05 48.25 -72.6 50.55 L-68.55 45.35 M-75.8 53.35 Q-89.15 52.4 -96.1 63.9 L-96.15 64.0 Q-99.7 69.85 -100.9 76.6 -105.85 67.3 -100.85 57.6 -98.95 55.5 -96.1 54.3 -88.85 51.05 -75.8 53.35 M-62.0 50.15 L-62.2 49.95 -62.35 49.65 -62.05 50.1 -62.0 50.15 M-50.0 78.45 L-74.45 54.0 -66.55 47.25 -44.1 74.95 -50.0 78.45 M-15.2 120.35 Q-15.65 120.7 -15.6 121.2 -15.3 122.5 -13.45 121.85 L-12.6 121.65 -10.1 123.35 Q-15.2 129.25 -18.65 123.3 -19.0 119.0 -15.2 120.35 M-11.8 127.9 Q-9.2 126.55 -8.65 124.45 L-8.3 124.75 Q-7.0 125.7 -9.75 127.0 L-11.8 127.9 M-31.05 126.05 Q-28.9 125.7 -29.2 124.7 -29.55 123.55 -31.35 124.05 -33.2 124.35 -33.05 125.4 -33.05 126.35 -31.05 126.05 M-37.55 126.45 L-37.3 130.6 Q-27.3 135.8 -25.2 125.7 -29.0 133.8 -37.3 126.85 L-37.5 126.45 Q-35.0 121.25 -26.1 123.2 L-23.35 125.3 Q-27.05 136.75 -38.5 131.05 -38.45 128.3 -37.55 126.45 M-54.2 133.85 Q-49.8 129.0 -43.1 129.5 L-40.25 130.55 Q-39.55 131.25 -39.85 132.1 -44.05 143.15 -55.1 138.65 L-55.0 134.8 -54.8 134.55 -54.2 133.85 Q-51.15 144.65 -42.3 134.2 -41.2 132.9 -42.1 131.25 -44.35 138.9 -53.6 134.5 L-54.2 133.85 M-67.15 144.15 Q-66.3 144.15 -65.65 143.4 -65.0 142.6 -65.0 141.6 L-57.95 139.35 Q-68.0 142.8 -65.55 151.85 L-64.2 150.35 -65.55 152.5 -66.3 151.6 Q-68.9 148.3 -67.35 144.5 L-67.25 144.3 -67.15 144.15 M-49.15 132.75 Q-49.15 133.75 -47.1 133.4 -45.3 133.05 -45.3 132.1 -45.65 130.9 -47.45 131.25 -49.3 131.9 -49.15 132.75 M-67.85 156.65 L-68.55 158.55 -68.85 158.5 -68.5 157.75 -67.85 156.65 M-69.05 161.05 L-69.0 163.85 -69.45 161.5 -69.05 161.05 M-51.15 176.25 Q-37.9 159.25 -17.2 154.15 -9.0 152.15 -2.2 148.45 6.0 144.0 3.9 134.55 -16.3 134.2 -33.45 145.0 -48.9 154.65 -61.15 168.15 -61.05 176.65 -52.3 176.2 L-51.15 176.25 M-66.9 226.25 L-64.9 242.2 Q-64.4 246.15 -53.15 250.2 L-42.95 239.5 Q-44.1 235.7 -41.15 231.9 L-16.8 228.95 -13.95 267.45 Q-24.2 269.0 -34.55 268.55 L-37.1 268.45 -58.3 266.4 Q-62.35 265.8 -64.25 263.2 -65.05 262.15 -65.45 260.75 -70.7 243.1 -71.35 224.5 L-66.9 226.25" fill="#6bbd46" fill-rule="evenodd" stroke="none"/>
    <path d="M45.75 249.35 Q35.9 256.95 24.2 261.1 L17.65 263.2 Q10.6 265.25 3.3 266.4 L45.75 249.35 M-31.7 -37.35 L-31.75 -37.5 -31.7 -37.35 M-38.3 -81.0 L-35.05 -84.1 Q-35.5 -73.5 -35.35 -64.2 L-35.2 -58.55 -38.3 -81.0 M-33.05 -37.15 L-31.65 -29.85 Q-30.95 -19.3 -26.1 -12.45 L-25.35 -11.45 Q-21.35 -6.05 -17.0 -1.0 -16.25 -0.1 -15.95 1.35 -16.55 1.05 -17.2 0.4 L-17.25 0.35 -17.5 0.05 -17.55 -0.05 -18.25 -0.8 -18.3 -0.8 Q-21.4 -1.8 -21.9 -0.35 L-20.9 2.1 -21.15 3.55 Q-21.5 6.15 -20.1 8.45 L-20.0 8.55 -17.3 11.9 Q-18.15 22.95 -16.15 36.05 -20.3 36.7 -19.3 42.1 -18.45 47.6 -14.45 47.25 L-13.45 53.15 -42.6 73.8 -49.85 64.95 -50.55 64.0 -53.15 60.7 -35.45 56.45 Q-22.6 48.7 -20.8 31.7 -20.45 31.65 -19.9 33.15 -19.7 32.25 -19.3 31.7 L-18.85 30.65 -18.85 27.45 Q-21.05 24.55 -24.15 20.95 -26.25 18.55 -28.5 8.45 -29.9 2.15 -31.35 -7.0 L-32.1 -11.9 Q-41.25 -33.95 -33.05 -37.15 M-16.3 -4.0 Q-0.9 -3.7 7.15 -9.35 L9.8 -11.45 Q14.95 -16.15 18.75 -24.6 23.55 -26.8 24.25 -28.65 L24.9 -34.65 24.9 -41.05 26.45 -43.7 37.35 -64.2 Q43.25 -75.75 47.25 -84.6 L40.9 -64.2 Q35.75 -48.45 28.6 -28.65 24.8 -18.2 19.05 -11.45 11.65 -2.8 1.15 -0.15 -8.85 2.5 -14.65 -0.6 L-14.75 -0.65 -16.3 -4.0 M45.25 -39.85 L45.4 -40.0 46.9 -41.6 50.8 -45.75 62.1 -56.4 63.3 -57.3 67.5 -47.05 Q59.45 -48.25 45.25 -39.85 M19.75 2.1 L37.05 -3.2 37.7 -0.1 Q31.2 5.25 7.0 8.3 L3.8 9.55 3.0 7.7 2.8 7.25 19.75 2.1 M70.5 -8.15 Q78.5 -9.5 84.15 -2.55 L84.2 -2.45 Q79.1 -4.55 73.2 -1.6 L70.5 -8.15 M77.7 40.7 L95.4 34.15 95.4 34.2 96.55 44.65 79.0 50.25 Q86.75 48.95 94.45 46.8 L93.9 48.7 Q89.95 60.35 84.45 71.55 79.05 82.45 67.55 87.95 L60.6 90.1 59.65 89.85 60.4 88.65 Q66.35 79.05 71.25 68.85 74.95 61.1 75.4 55.35 L68.6 54.5 42.8 51.65 Q58.8 53.05 74.6 50.95 L76.5 51.05 77.55 41.7 77.7 40.7 M73.7 85.35 Q77.95 82.25 83.25 77.45 81.9 89.0 80.05 90.85 L68.0 97.2 72.7 86.35 77.85 82.65 73.7 85.35 M27.5 55.0 L27.45 54.5 27.95 55.0 27.5 55.0 M53.1 -97.55 L54.6 -96.15 66.3 -92.95 Q76.0 -84.85 61.9 -64.2 56.0 -55.65 46.05 -44.9 L53.35 -97.3 53.1 -97.55 M137.45 61.8 L138.8 60.9 Q146.55 60.75 150.95 56.9 151.6 54.85 152.8 52.15 158.65 38.4 152.45 26.65 149.6 21.1 139.4 10.9 L137.2 8.45 Q131.4 1.55 123.45 -11.45 115.9 -23.9 106.35 -41.9 103.45 -44.1 100.2 -45.9 87.75 -51.95 77.4 -41.85 69.5 -34.2 59.95 -13.05 L59.2 -11.45 Q52.0 4.3 46.45 8.45 43.9 10.3 41.7 9.75 L43.05 8.45 Q48.85 2.1 53.25 -10.55 L58.05 -22.75 Q63.05 -36.1 71.3 -47.0 77.3 -55.1 87.3 -54.25 99.1 -53.5 107.05 -44.45 110.75 -40.25 113.35 -35.25 117.15 -27.95 121.35 -20.75 L127.1 -11.45 Q133.7 -1.2 141.2 8.45 146.85 15.6 153.0 22.45 156.25 26.1 157.25 30.95 161.15 49.55 155.8 67.4 L154.6 66.65 Q146.8 61.7 137.45 61.8 M70.1 -9.2 L68.95 -13.45 73.1 -10.15 70.1 -9.2 M70.1 -13.35 Q73.45 -12.75 76.15 -11.45 80.65 -9.3 83.35 -5.2 79.15 -9.15 74.65 -11.45 72.4 -12.6 70.1 -13.35 M53.7 -16.05 L44.7 -19.9 54.6 -18.75 53.7 -16.05 M137.9 93.05 Q150.35 90.05 157.05 79.55 157.95 78.1 158.4 76.35 166.8 86.45 166.15 100.45 165.85 106.9 162.9 112.7 159.35 119.6 153.15 124.2 L136.35 94.2 137.9 93.05 M89.5 6.85 L87.25 6.25 95.0 32.75 77.9 39.35 77.45 39.4 77.4 38.15 79.15 21.95 Q79.05 12.9 76.9 8.45 L76.7 7.95 76.8 8.45 77.95 14.45 76.4 8.45 75.7 6.15 75.3 3.75 68.8 7.85 67.1 8.9 48.9 20.3 47.75 17.9 Q50.25 15.85 52.85 13.9 56.45 11.05 60.2 8.45 65.6 4.55 71.3 1.1 84.3 -6.9 89.5 6.85 M12.85 17.45 Q5.55 29.7 15.5 39.55 17.75 41.7 20.75 42.75 3.65 40.5 6.8 23.3 7.5 19.6 10.15 16.95 L12.85 17.45 M14.25 48.3 L13.7 42.6 15.65 43.5 16.5 51.65 15.05 51.65 14.55 51.65 14.25 48.3 M15.35 53.05 L26.1 53.15 26.25 55.05 16.85 55.4 20.0 86.95 17.9 87.0 16.75 74.65 14.75 53.05 15.35 53.05 M4.4 47.45 L3.8 46.75 4.3 46.8 4.4 47.45 M-19.4 5.75 L-19.5 5.4 -19.4 5.75 M-12.8 49.55 L-13.1 47.25 3.45 47.65 4.15 50.9 -12.8 49.55 M17.7 88.35 L19.8 88.3 18.7 91.35 10.15 101.75 10.65 97.45 Q17.55 93.35 17.7 88.35 M67.3 127.7 L65.15 127.5 Q61.0 123.6 62.05 118.15 64.4 105.95 77.6 102.05 L75.3 106.6 Q73.1 107.4 71.2 108.55 58.8 115.55 67.3 127.7 M68.85 105.2 L64.3 105.1 67.05 99.3 78.75 92.85 79.05 99.25 68.85 105.2 M59.05 116.6 L59.55 121.3 Q58.5 118.8 59.05 116.65 L59.05 116.6 M53.7 116.25 L54.1 119.4 53.6 118.2 24.55 121.25 24.2 118.7 53.7 116.25 M55.15 123.9 L56.75 128.25 Q50.5 129.4 45.9 133.8 37.25 142.05 27.3 136.45 L25.65 127.75 25.95 128.25 Q48.25 128.75 55.15 123.9 M41.55 142.7 Q43.85 142.05 41.25 146.85 34.05 159.95 36.7 173.35 L36.3 171.8 37.0 178.55 Q35.05 170.8 33.7 163.95 L31.15 149.65 18.1 158.25 10.75 166.7 Q5.55 177.3 -10.65 182.0 -17.1 183.8 -23.7 184.05 L-22.1 183.4 -23.65 183.2 Q10.75 173.2 17.35 137.6 L18.95 139.2 Q28.8 148.3 41.55 142.7 M45.05 208.45 L51.65 205.05 59.45 201.45 Q64.8 199.7 69.5 200.45 L73.2 201.45 75.5 202.45 Q82.85 205.85 83.55 209.8 L65.9 220.0 Q57.9 213.1 47.35 209.5 L48.2 210.85 45.05 208.45 M61.45 145.8 Q63.25 139.45 65.15 137.1 L68.45 136.85 Q67.35 137.45 66.65 138.25 63.95 140.3 63.35 143.1 63.15 144.15 63.25 145.4 L63.25 146.15 60.95 147.65 61.45 145.8 M83.6 209.85 L83.6 211.35 84.9 212.2 Q70.5 217.2 77.7 249.4 79.9 254.2 85.1 256.35 L80.75 255.2 74.85 253.15 65.15 222.25 83.6 211.35 77.2 214.6 Q82.25 211.25 83.6 209.85 M141.2 234.35 L133.8 243.05 131.25 221.5 131.85 221.9 131.1 221.1 Q130.25 219.35 129.15 218.55 114.7 203.3 91.15 207.85 110.4 197.45 97.8 188.55 92.45 169.8 87.6 154.2 83.2 140.45 75.95 133.65 78.5 134.3 80.05 135.45 L83.9 140.95 Q99.3 165.6 102.0 188.05 118.4 194.6 124.8 198.1 130.65 201.45 131.7 202.8 L144.75 228.3 141.2 234.35 M65.75 145.75 L65.8 143.05 67.05 145.65 65.75 145.75 M77.15 144.05 Q77.85 142.4 77.2 140.55 L77.55 141.2 Q78.5 143.65 77.95 145.6 77.3 147.9 74.55 149.5 L72.8 147.5 Q75.25 146.85 76.65 144.9 L77.15 144.05 M-66.55 159.15 Q-66.15 161.05 -66.95 162.3 -67.6 163.25 -69.0 163.85 L-69.05 161.05 -68.55 158.55 -67.85 156.65 -67.6 156.4 Q-66.85 157.9 -66.55 159.15 M-24.7 192.4 L-32.15 196.15 Q-29.55 198.1 -25.6 201.55 L-24.2 202.05 -19.4 203.7 Q-9.2 202.5 1.15 203.8 L12.5 205.35 -17.35 204.3 Q-10.8 206.15 -3.7 207.15 L-4.1 208.7 -39.9 230.45 -45.3 230.15 Q-57.85 229.0 -67.05 225.0 L-67.2 217.1 Q-56.6 201.25 -39.45 195.3 -33.65 198.3 -27.65 200.7 L-40.75 191.75 -24.7 192.4 M35.3 179.8 Q26.2 170.85 15.35 179.35 5.6 186.9 -6.75 187.35 L-22.3 186.6 -11.55 186.65 Q2.45 185.95 8.25 174.6 10.35 171.75 11.85 168.25 L12.85 166.7 Q25.55 168.0 33.65 177.45 L34.05 177.85 35.3 179.8 M-6.5 183.6 L2.4 180.75 Q-0.75 182.5 -6.5 183.6 M72.5 151.55 L72.55 151.45 72.55 151.55 71.3 157.0 69.0 156.25 72.5 151.55 M64.35 156.6 Q63.0 157.05 61.85 157.95 60.4 154.45 60.3 152.3 L60.75 151.05 64.35 156.6 M83.35 190.5 Q86.05 186.75 77.05 181.7 83.3 173.85 74.85 168.6 76.15 167.0 76.25 164.85 76.45 161.15 73.7 158.75 L75.55 151.85 78.75 150.0 89.4 182.95 Q96.55 205.15 76.5 199.6 69.7 197.65 65.4 192.6 52.85 177.9 58.95 157.35 L60.0 159.95 Q56.45 167.4 63.65 171.3 59.55 180.45 69.15 183.55 L68.95 185.5 68.65 186.45 67.85 189.85 Q67.25 194.25 70.4 195.05 72.3 196.25 75.7 196.3 82.75 196.25 83.35 190.5 M71.8 167.85 Q68.15 167.6 65.4 169.5 60.35 167.75 61.3 162.5 61.55 163.8 62.6 164.45 71.15 169.9 73.15 161.25 L73.35 161.9 Q74.45 165.25 71.8 167.85 M65.3 175.3 L65.5 175.5 Q73.2 180.1 76.0 176.9 70.45 187.6 65.3 175.3 M69.5 187.3 Q75.85 198.5 80.9 187.8 79.85 191.65 78.6 193.6 76.65 196.55 74.25 194.9 72.05 193.4 69.5 188.0 69.35 187.7 69.5 187.3 M136.15 244.7 L145.9 231.0 Q149.35 230.75 152.5 232.95 162.55 239.8 169.9 249.95 173.55 255.0 176.9 260.3 L182.95 270.7 183.95 273.6 Q183.7 275.1 183.05 276.45 177.45 287.65 169.4 297.1 161.85 305.9 152.3 312.65 142.1 319.8 130.0 321.85 157.6 292.35 146.9 263.2 143.45 253.9 136.15 244.7 M7.45 207.85 Q14.65 207.55 21.15 205.05 L27.25 202.15 41.0 199.1 44.2 209.85 50.6 214.05 30.45 211.05 Q30.65 210.85 30.5 210.65 L35.3 209.95 Q27.0 202.7 16.6 208.15 L14.0 208.3 7.45 207.85 M29.9 211.1 Q23.0 211.45 15.7 213.55 L15.3 213.35 17.75 212.55 28.65 210.9 29.9 211.1 M17.3 214.5 Q26.2 212.2 35.35 212.5 45.5 212.8 54.6 217.2 54.65 225.25 55.75 233.15 56.7 240.25 50.1 243.7 39.15 249.3 27.75 254.05 16.7 258.6 5.35 262.3 58.6 238.8 17.3 214.5 M181.05 335.25 L180.8 331.9 Q177.95 313.8 147.5 318.5 163.5 309.9 175.4 293.45 181.6 285.05 184.8 278.2 186.8 287.4 188.3 313.25 L188.65 318.45 186.8 323.1 Q184.9 327.7 182.8 331.9 L181.05 335.25 M-4.6 27.95 Q-7.85 24.25 -14.0 15.65 -7.6 22.2 -4.4 24.65 L-4.6 27.95 M-76.45 54.65 L-55.2 76.1 Q-54.0 76.95 -54.15 77.45 -68.75 74.25 -73.45 96.55 -87.75 87.35 -96.1 80.8 L-99.75 77.8 Q-98.6 70.55 -96.1 65.55 -91.05 55.4 -80.45 54.5 L-76.45 54.65 M-18.65 123.3 Q-15.2 129.25 -10.1 123.35 L-9.15 122.2 Q-8.75 121.65 -8.95 120.8 -8.25 122.85 -8.65 124.45 -9.2 126.55 -11.8 127.9 L-17.6 128.1 Q-20.95 125.85 -20.0 121.75 L-19.75 121.0 -18.65 123.3 M-22.5 124.7 Q-21.5 128.05 -17.8 129.05 L-24.35 130.9 Q-22.0 127.05 -22.5 124.7 M-37.5 126.45 L-37.3 126.85 Q-29.0 133.8 -25.2 125.7 -27.3 135.8 -37.3 130.6 L-37.55 126.45 -37.55 126.4 -37.5 126.45 M-54.2 133.85 L-53.6 134.5 Q-44.35 138.9 -42.1 131.25 -41.2 132.9 -42.3 134.2 -51.15 144.65 -54.2 133.85 M-33.75 134.1 L-40.1 136.45 Q-38.45 134.1 -38.4 132.45 -37.1 133.75 -33.75 134.1 M-6.25 125.05 L-5.9 121.7 -2.3 125.1 -7.9 127.05 -6.25 125.05 M-50.8 141.25 L-64.25 152.05 -59.45 145.05 -55.3 140.55 -50.8 141.25 M-57.95 139.35 L-57.75 139.3 -55.9 139.7 -64.2 150.35 -65.55 151.85 Q-68.0 142.8 -57.95 139.35 M-41.15 231.9 Q-44.1 235.7 -42.95 239.5 L-53.15 250.2 Q-64.4 246.15 -64.9 242.2 L-66.9 226.25 Q-53.9 231.3 -41.15 231.9" fill="#016a3a" fill-rule="evenodd" stroke="none"/>
    <path d="M3.3 266.4 Q-8.5 270.4 -20.8 271.4 -32.45 272.05 -44.05 271.75 -56.7 271.35 -66.35 264.2 L-67.5 263.2 Q-71.2 259.75 -71.65 254.1 -72.55 243.5 -74.95 233.2 -76.65 225.85 -73.95 220.9 -64.9 207.35 -52.05 197.5 -49.4 195.45 -46.3 193.75 -62.3 197.2 -71.35 183.8 -73.1 181.25 -73.45 178.15 -75.05 164.35 -69.1 153.35 -73.0 147.75 -69.35 141.9 -67.25 138.5 -63.55 137.2 -61.7 136.45 -59.65 136.45 -57.25 130.15 -50.0 127.4 -45.95 125.85 -41.6 126.75 -37.5 119.8 -29.75 119.05 -26.85 118.75 -24.4 120.3 -20.7 115.9 -13.8 115.65 -10.5 115.55 -7.55 116.95 -7.25 117.1 -6.9 117.35 -0.2 115.0 6.8 116.4 9.85 116.85 12.7 118.3 L13.1 118.55 Q13.35 117.35 13.2 115.85 L9.0 113.35 7.15 102.4 3.45 102.3 Q1.0 100.45 -0.95 97.95 -2.8 95.55 -2.85 92.6 -2.95 90.0 -1.25 88.0 L-14.1 57.7 Q-25.9 65.75 -37.6 74.15 -41.9 77.2 -46.3 80.0 -50.35 82.6 -55.15 80.65 -58.9 79.25 -62.25 81.6 L-63.0 82.2 Q-69.05 88.75 -70.75 97.7 -70.95 98.5 -71.7 99.1 -83.05 96.2 -93.1 87.75 L-96.1 85.15 -102.35 79.05 Q-107.9 73.25 -106.5 65.05 -104.75 55.0 -97.55 47.65 L-96.1 46.25 -95.95 46.1 Q-88.6 39.65 -78.8 39.6 -75.4 39.6 -72.1 40.5 -69.6 41.1 -67.25 42.4 L-34.4 11.1 -35.3 8.45 Q-38.6 -1.45 -39.95 -11.45 -41.65 -23.85 -40.35 -36.4 -39.95 -40.85 -36.7 -43.85 -38.2 -51.2 -40.75 -58.2 -41.9 -61.2 -42.5 -64.2 -43.45 -68.95 -43.1 -73.7 -42.4 -84.5 -35.8 -94.7 -28.1 -106.75 -16.4 -115.1 L-14.95 -116.05 Q-7.15 -120.15 1.8 -120.75 L10.95 -121.2 Q16.8 -121.1 22.65 -119.7 38.7 -115.7 50.8 -104.25 L56.25 -98.85 Q69.4 -96.65 80.65 -89.65 83.1 -88.1 83.9 -85.3 86.25 -76.65 80.15 -70.0 L74.45 -64.2 67.9 -58.45 66.8 -57.55 67.0 -56.65 69.15 -51.25 Q77.15 -58.5 87.9 -57.65 100.55 -56.35 108.95 -46.5 117.5 -36.5 123.25 -24.45 125.55 -19.6 128.25 -15.1 L144.6 6.4 146.65 8.45 Q154.1 16.15 157.5 26.25 161.4 38.0 161.85 50.5 162.15 59.6 159.15 68.1 L159.05 68.6 167.75 88.6 Q172.9 100.3 167.25 112.1 161.9 123.2 151.15 129.3 L145.65 132.15 Q144.4 132.1 143.55 131.15 125.7 112.6 120.8 89.4 L128.15 85.0 119.1 69.6 120.1 63.2 Q116.4 57.2 113.9 50.5 110.35 41.3 112.7 31.8 113.25 29.25 114.6 27.0 L93.8 10.25 Q92.9 23.5 99.3 33.85 102.5 39.0 99.75 44.6 94.65 54.95 90.55 66.25 L86.45 76.35 86.05 78.1 Q86.3 84.6 83.65 90.4 L81.9 93.55 81.9 101.4 Q74.3 112.2 79.5 124.85 80.2 126.55 79.8 128.5 L91.3 147.8 Q99.8 161.75 103.4 177.8 L105.05 185.7 Q114.8 189.65 124.25 194.1 128.9 196.2 132.45 199.8 143.85 211.3 148.1 227.75 155.4 229.5 160.95 235.0 169.8 243.7 176.9 253.9 L178.35 256.1 Q183.6 263.95 186.8 272.9 187.95 276.2 188.45 279.7 L189.55 288.35 Q191.75 304.5 190.9 320.55 L188.5 325.75 185.75 331.9 Q182.1 339.55 177.4 346.55 170.6 356.6 160.95 364.1 L159.25 365.35 Q150.25 371.75 139.55 374.5 127.65 377.55 115.4 375.75 103.45 374.15 92.2 369.6 L82.6 365.35 Q76.55 362.45 70.65 359.1 63.85 355.2 58.65 350.25 55.7 341.15 53.65 331.9 51.7 322.95 50.65 313.9 49.45 303.65 51.25 293.7 53.35 282.05 58.75 271.5 L63.05 263.2 68.3 253.5 68.8 251.9 62.15 223.25 57.45 220.55 Q60.95 233.75 53.9 242.8 50.7 246.85 45.75 249.35 L3.3 266.4 M-31.7 -37.35 L-31.65 -36.9 Q-30.6 -30.4 -29.05 -24.05 -27.45 -17.3 -23.75 -11.45 L-22.45 -9.5 Q-19.25 -5.0 -13.8 -4.8 -1.6 -4.45 7.35 -11.45 9.75 -13.3 11.9 -15.7 15.1 -19.35 16.7 -23.8 18.3 -28.25 17.5 -33.1 L21.25 -38.8 Q29.4 -51.15 36.35 -64.2 40.7 -72.4 44.6 -80.85 47.8 -87.9 50.3 -95.25 50.95 -97.3 51.05 -99.35 47.8 -103.55 43.5 -106.65 33.45 -113.8 21.5 -116.55 10.2 -119.15 -1.2 -117.3 -13.95 -115.35 -22.6 -105.75 -30.75 -96.65 -32.6 -84.8 -34.2 -74.55 -34.05 -64.2 L-33.95 -60.3 Q-33.45 -48.85 -31.75 -37.5 L-31.7 -37.35 M-35.2 -58.55 L-35.35 -64.2 Q-35.5 -73.5 -35.05 -84.1 L-38.3 -81.0 -41.15 -77.8 -42.6 -75.55 -35.15 -51.3 -34.65 -49.95 -35.2 -58.55 M-31.65 -29.85 L-33.05 -37.15 -33.75 -41.85 -35.5 -39.65 Q-41.4 -29.0 -37.85 -16.6 L-36.5 -11.45 Q-34.05 -1.65 -32.8 8.45 L-32.55 10.55 Q-31.5 20.6 -23.25 25.75 L-23.05 25.9 Q-22.7 26.1 -22.3 26.35 L-23.45 26.1 -24.25 25.85 Q-30.8 23.6 -32.4 13.6 L-32.9 14.05 Q-52.25 32.8 -64.35 45.75 L-62.35 49.65 -62.2 49.95 -62.0 50.15 -61.65 50.6 -49.85 64.95 -42.6 73.8 -13.45 53.15 -14.45 47.25 Q-18.45 47.6 -19.3 42.1 -20.3 36.7 -16.15 36.05 -18.15 22.95 -17.3 11.9 L-20.0 8.55 -20.1 8.45 Q-21.5 6.15 -21.15 3.55 L-20.9 2.1 Q-20.25 -0.8 -18.3 -0.8 L-18.25 -0.8 -17.55 -0.05 -17.5 0.05 -17.35 0.25 -17.25 0.35 -17.2 0.4 -16.95 0.7 -15.15 2.65 -15.95 1.35 Q-16.25 -0.1 -17.0 -1.0 -21.35 -6.05 -25.35 -11.45 L-26.1 -12.45 -31.65 -29.85 M-16.3 -4.0 L-14.75 -0.65 -14.65 -0.6 Q-8.85 2.5 1.15 -0.15 11.65 -2.8 19.05 -11.45 24.8 -18.2 28.6 -28.65 35.75 -48.45 40.9 -64.2 L47.25 -84.6 Q43.25 -75.75 37.35 -64.2 L26.45 -43.7 24.9 -41.05 24.9 -34.65 24.25 -28.65 Q23.55 -26.8 18.75 -24.6 14.95 -16.15 9.8 -11.45 L7.15 -9.35 Q-0.9 -3.7 -16.3 -4.0 M72.15 -90.6 L66.3 -92.95 54.6 -96.15 53.1 -97.55 52.95 -97.7 Q49.25 -88.5 45.75 -75.9 L42.3 -64.2 38.45 -52.35 30.7 -30.35 Q27.1 -20.25 21.0 -11.45 L20.7 -11.05 Q14.0 -2.4 3.45 0.7 L2.45 1.0 Q-3.05 2.85 -8.35 2.15 L-12.85 1.5 -14.4 1.4 -14.1 1.8 -11.8 4.1 Q-6.3 7.85 0.1 7.85 -8.25 9.45 -14.1 3.8 L-2.05 16.8 2.5 10.05 1.55 7.85 2.2 7.75 3.0 7.7 3.8 9.55 5.25 11.6 Q9.7 16.2 15.95 17.05 L14.65 18.35 Q11.0 22.45 11.0 28.3 11.0 34.1 14.65 38.2 18.3 42.3 23.5 42.35 28.7 42.3 32.35 38.2 36.0 34.1 36.0 28.3 36.0 22.45 32.35 18.35 30.7 16.5 28.75 15.5 L30.95 14.6 Q39.2 22.0 36.05 32.95 33.9 40.5 26.45 43.25 L27.45 54.5 27.5 55.0 30.7 87.6 31.45 88.55 Q40.7 99.15 53.6 104.1 L68.0 97.2 80.05 90.85 Q81.9 89.0 83.25 77.45 77.95 82.25 73.7 85.35 63.6 93.6 50.95 91.35 40.4 89.55 37.2 79.05 32.95 65.65 35.05 51.75 L35.15 51.3 39.35 48.4 74.6 50.95 Q58.8 53.05 42.8 51.65 L36.85 51.0 Q36.0 52.1 35.9 53.55 34.7 66.1 38.3 78.15 42.45 91.9 56.35 91.3 L57.05 91.2 60.6 90.1 67.55 87.95 Q79.05 82.45 84.45 71.55 89.95 60.35 93.9 48.7 L94.45 46.8 Q86.75 48.95 79.0 50.25 L96.55 44.65 96.85 44.2 Q100.2 37.65 96.05 33.95 L95.4 34.15 77.7 40.7 48.2 39.7 46.05 39.25 46.1 39.15 Q47.55 36.25 48.05 33.15 49.3 24.95 46.05 17.6 L72.3 -1.15 72.75 -1.4 73.2 -1.6 Q79.1 -4.55 84.2 -2.45 L84.15 -2.55 Q78.5 -9.5 70.5 -8.15 L66.05 -5.6 44.65 13.05 39.9 10.75 34.1 12.5 Q36.0 10.75 36.95 8.45 38.35 4.9 37.7 -0.1 L37.05 -3.2 19.75 2.1 Q24.85 -1.15 28.5 -6.15 L32.1 -11.45 Q34.9 -16.05 37.1 -20.95 L37.15 -21.1 Q39.95 -22.15 42.85 -21.7 L55.1 -20.1 67.5 -47.05 63.3 -57.3 62.1 -56.4 50.8 -45.75 46.9 -41.6 45.4 -40.0 45.25 -39.85 43.85 -38.35 Q46.55 -43.9 51.05 -48.25 59.5 -56.7 69.35 -63.7 L70.15 -64.2 Q80.65 -71.2 79.45 -82.95 78.85 -88.85 72.15 -90.6 M137.45 61.8 Q146.8 61.7 154.6 66.65 L155.8 67.4 Q161.15 49.55 157.25 30.95 156.25 26.1 153.0 22.45 146.85 15.6 141.2 8.45 133.7 -1.2 127.1 -11.45 L121.35 -20.75 Q117.15 -27.95 113.35 -35.25 110.75 -40.25 107.05 -44.45 99.1 -53.5 87.3 -54.25 77.3 -55.1 71.3 -47.0 63.05 -36.1 58.05 -22.75 L53.25 -10.55 Q48.85 2.1 43.05 8.45 L41.7 9.75 43.85 12.1 57.6 -0.5 Q64.7 -6.9 70.1 -9.2 L73.1 -10.15 68.95 -13.45 68.35 -13.9 70.1 -13.35 Q72.4 -12.6 74.65 -11.45 79.15 -9.15 83.35 -5.2 L88.7 0.9 115.4 23.65 118.95 25.35 126.5 18.95 Q124.65 24.7 118.75 26.65 L115.65 32.55 115.4 44.8 119.75 55.6 123.3 62.35 132.65 61.75 133.3 61.75 133.45 61.75 137.45 61.8 M53.7 -16.05 L54.6 -18.75 44.7 -19.9 38.2 -4.65 Q39.0 -1.6 38.75 1.55 38.45 5.8 37.9 8.45 L37.35 10.5 Q39.25 9.7 40.8 8.45 L43.3 5.8 Q49.1 -2.15 52.3 -11.45 L53.7 -16.05 M136.35 94.2 L153.15 124.2 Q159.35 119.6 162.9 112.7 165.85 106.9 166.15 100.45 166.8 86.45 158.4 76.35 157.95 78.1 157.05 79.55 150.35 90.05 137.9 93.05 L136.05 93.6 136.35 94.2 M95.0 32.75 L89.6 7.3 89.5 6.85 Q84.3 -6.9 71.3 1.1 65.6 4.55 60.2 8.45 56.45 11.05 52.85 13.9 50.25 15.85 47.75 17.9 L49.1 26.7 49.25 28.2 Q49.55 33.45 47.55 38.4 L76.25 39.65 76.8 39.55 76.8 39.6 77.4 39.4 77.45 39.4 77.9 39.35 95.0 32.75 M126.45 65.6 Q132.4 65.55 136.05 68.85 131.45 65.95 123.5 67.45 L121.95 67.75 131.85 84.65 140.35 76.65 Q140.65 79.45 137.8 82.0 131.85 87.15 124.65 90.5 L134.5 92.7 147.6 87.55 147.95 87.35 153.6 82.95 154.95 81.35 157.15 74.55 Q157.15 71.55 155.8 69.6 150.25 60.9 123.65 63.7 L123.15 64.25 122.6 65.9 126.45 65.6 M134.35 94.05 L123.95 91.85 Q136.0 114.8 145.05 129.05 150.6 126.05 152.1 124.9 L134.35 94.05 M12.85 17.45 L10.15 16.95 Q7.5 19.6 6.8 23.3 3.65 40.5 20.75 42.75 17.75 41.7 15.5 39.55 5.55 29.7 12.85 17.45 M14.25 48.3 L12.35 42.1 Q8.25 39.45 6.55 35.0 2.55 24.75 7.8 16.45 L2.8 11.25 -1.95 18.25 Q-5.8 15.8 -12.1 8.45 L-16.55 3.1 -18.7 1.0 -18.75 1.05 Q-20.0 2.8 -19.55 5.1 L-19.55 5.3 -19.5 5.4 -19.4 5.75 -12.5 15.35 -4.1 23.3 -2.0 37.75 -17.5 38.05 -17.55 38.2 -18.2 41.55 -18.0 42.85 Q-17.45 44.85 -16.15 45.6 L-10.45 45.95 2.8 45.75 3.8 46.75 4.4 47.45 8.3 76.55 Q8.5 83.05 6.8 85.15 L4.1 87.3 2.5 88.6 0.45 93.4 5.5 99.4 Q11.05 96.4 13.25 90.3 16.0 82.75 16.75 74.65 L17.9 87.0 20.0 86.95 28.8 86.85 26.25 55.05 26.1 53.15 15.35 53.05 15.05 51.65 16.5 51.65 25.95 51.8 25.35 44.5 15.8 43.55 15.65 43.5 13.7 42.6 14.25 48.3 M4.25 85.8 L4.55 85.55 Q8.75 81.3 7.75 74.85 L4.15 50.9 3.45 47.65 -13.1 47.25 -12.8 49.55 -12.65 50.2 Q-10.05 61.55 -5.15 72.2 -1.75 79.55 2.75 86.2 L2.95 86.35 Q3.45 86.8 4.25 85.8 M17.7 88.35 L10.65 97.45 10.15 101.75 11.55 111.45 15.85 113.65 Q15.95 121.0 19.35 127.05 21.7 131.25 25.1 134.75 L22.0 113.1 17.5 109.6 15.5 103.1 14.9 97.9 41.2 98.9 30.25 88.9 19.8 88.3 17.7 88.35 M75.3 106.6 L77.6 102.05 Q64.4 105.95 62.05 118.15 61.0 123.6 65.15 127.5 L67.3 127.7 76.4 128.6 76.5 128.1 Q74.0 117.5 75.3 106.6 M67.05 99.3 L63.8 101.05 64.5 107.95 68.85 105.2 79.05 99.25 78.75 92.85 67.05 99.3 M59.15 115.95 L62.8 109.3 61.95 101.75 57.3 104.55 58.5 109.0 54.8 113.65 58.1 128.05 62.8 127.55 59.55 121.3 59.05 116.6 59.15 115.95 M57.1 108.6 Q55.95 107.45 55.95 104.6 53.75 106.25 48.05 103.25 L43.2 100.25 26.7 99.65 28.05 110.85 Q38.95 108.6 50.4 110.8 L53.9 111.65 Q54.75 111.45 55.75 110.15 L57.1 108.6 M53.65 115.65 Q53.55 114.3 53.6 112.95 L52.45 112.65 52.1 112.6 51.75 112.5 49.35 112.05 Q36.3 110.05 23.4 113.3 L23.7 115.45 24.05 117.7 24.2 118.7 24.55 121.25 24.9 123.35 25.65 127.75 27.3 136.45 Q37.25 142.05 45.9 133.8 50.5 129.4 56.75 128.25 L55.15 123.9 54.45 121.2 54.1 119.4 53.7 116.25 53.65 115.65 M52.3 130.85 L51.8 131.05 46.9 134.2 38.65 139.35 Q35.9 140.4 33.15 140.1 L27.85 138.2 27.6 138.05 27.55 138.0 16.9 125.9 Q13.7 121.15 7.8 119.6 1.15 117.85 -5.25 120.15 L-2.85 120.95 Q7.25 124.2 14.35 132.2 L14.6 132.5 Q20.55 142.9 31.8 143.4 L33.65 143.35 36.8 142.9 Q39.85 142.25 42.95 140.8 L43.0 140.8 43.45 140.6 53.9 134.95 61.45 132.4 73.8 131.85 78.2 133.0 76.2 130.4 62.2 128.9 Q56.9 129.15 52.3 130.85 M41.55 142.7 Q28.8 148.3 18.95 139.2 L17.35 137.6 16.95 137.15 16.5 136.65 16.25 136.35 Q7.8 125.6 -2.25 122.65 L-1.4 126.2 Q-11.5 129.9 -22.25 132.35 -32.25 134.65 -41.8 138.4 -44.55 139.45 -47.05 140.9 -57.2 146.8 -65.55 154.9 L-66.55 159.15 Q-66.85 157.9 -67.6 156.4 L-67.85 156.65 -68.5 157.75 -68.85 158.5 -69.45 161.5 -69.0 163.85 Q-67.6 163.25 -66.95 162.3 L-69.35 181.95 Q-65.85 187.55 -59.3 189.95 -51.8 192.75 -43.2 191.05 -33.8 189.1 -24.7 192.4 L-40.75 191.75 -27.65 200.7 Q-33.65 198.3 -39.45 195.3 -56.6 201.25 -67.2 217.1 L-71.25 222.9 -67.05 225.0 Q-57.85 229.0 -45.3 230.15 L-39.9 230.45 Q-35.6 230.55 -31.5 230.25 -19.2 229.45 -8.1 224.05 L5.0 217.55 6.55 216.9 15.7 213.55 Q23.0 211.45 29.9 211.1 L30.45 211.05 50.6 214.05 44.2 209.85 41.0 199.1 27.25 202.15 21.15 205.05 Q14.65 207.55 7.45 207.85 L-1.25 207.5 -3.7 207.15 Q-10.8 206.15 -17.35 204.3 L12.5 205.35 Q23.75 202.9 35.4 199.05 37.95 198.15 40.65 197.95 L35.3 179.8 34.05 177.85 Q28.0 165.4 14.05 164.9 L12.85 166.7 11.85 168.25 Q10.35 171.75 8.25 174.6 2.45 185.95 -11.55 186.65 L-22.3 186.6 -24.35 186.55 -6.5 183.6 Q-0.75 182.5 2.4 180.75 L18.1 158.25 31.15 149.65 33.7 163.95 Q35.05 170.8 37.0 178.55 L45.05 208.45 48.2 210.85 48.85 211.25 49.3 211.55 Q61.6 219.3 64.65 220.75 L65.9 220.0 83.55 209.8 83.75 209.65 83.6 209.85 Q82.25 211.25 77.2 214.6 L65.15 222.25 72.05 252.05 74.85 253.15 80.75 255.2 Q92.3 259.2 104.6 259.2 117.45 259.15 127.3 250.65 131.4 247.15 134.8 243.0 L137.35 239.9 141.2 234.35 144.75 228.3 131.7 202.8 Q130.65 201.45 124.8 198.1 118.4 194.6 102.0 188.05 99.3 165.6 83.9 140.95 L80.05 135.45 Q78.5 134.3 75.95 133.65 64.6 131.3 54.0 136.45 L41.55 142.7 M69.5 200.45 L68.15 199.8 Q56.1 193.7 55.95 179.55 55.8 167.35 57.95 155.35 58.85 150.05 61.45 145.8 L60.95 147.65 63.25 146.15 63.25 145.4 Q63.15 144.15 63.35 143.1 L65.15 141.1 Q75.1 130.9 80.9 144.5 L96.85 188.75 Q95.05 194.2 90.85 198.1 84.3 204.2 75.5 202.45 L73.2 201.45 69.5 200.45 M131.25 221.5 Q112.2 209.0 89.6 210.85 101.15 207.45 117.25 213.2 126.35 216.4 131.1 221.1 L131.85 221.9 131.25 221.5 M65.8 143.05 L64.5 146.0 65.75 145.75 67.05 145.65 Q70.5 145.55 72.8 147.5 L74.55 149.5 75.2 150.7 Q79.4 148.95 77.95 145.6 78.5 143.65 77.55 141.2 L77.2 140.55 Q77.85 142.4 77.15 144.05 71.15 132.75 65.8 143.05 M15.4 163.4 L28.25 167.45 35.15 176.15 30.1 150.7 15.4 163.4 M72.55 151.55 L72.55 151.45 72.5 151.55 72.0 151.25 Q69.6 150.15 67.7 149.5 L67.65 149.15 Q67.3 147.85 64.5 148.2 63.55 148.4 63.0 148.7 60.15 149.0 60.3 152.3 60.4 154.45 61.85 157.95 63.0 157.05 64.35 156.6 66.55 155.75 69.0 156.25 L71.3 157.0 73.15 157.9 Q76.0 153.5 72.55 151.55 M68.95 185.5 L69.15 183.55 Q59.55 180.45 63.65 171.3 56.45 167.4 60.0 159.95 L58.95 157.35 Q52.85 177.9 65.4 192.6 69.7 197.65 76.5 199.6 96.55 205.15 89.4 182.95 L78.75 150.0 75.55 151.85 73.7 158.75 Q76.45 161.15 76.25 164.85 76.15 167.0 74.85 168.6 83.3 173.85 77.05 181.7 86.05 186.75 83.35 190.5 L83.4 189.4 Q83.4 186.2 80.75 184.2 78.2 182.35 74.85 182.7 70.6 183.1 68.95 185.5 M70.4 195.05 Q67.25 194.25 67.85 189.85 67.95 193.45 70.4 195.05 M71.8 167.85 L73.7 168.1 74.15 166.95 Q76.0 154.8 62.7 158.25 L62.4 158.4 61.85 158.95 Q56.4 168.1 65.4 169.5 68.15 167.6 71.8 167.85 M70.35 168.8 Q66.5 169.1 64.3 172.45 61.95 176.15 64.5 179.7 67.15 183.2 70.85 182.7 L72.7 182.05 Q73.85 181.5 75.2 181.7 80.2 179.0 78.2 173.65 76.2 168.45 70.35 168.8 M130.0 321.85 Q142.1 319.8 152.3 312.65 161.85 305.9 169.4 297.1 177.45 287.65 183.05 276.45 183.7 275.1 183.95 273.6 L182.95 270.7 176.9 260.3 Q173.55 255.0 169.9 249.95 162.55 239.8 152.5 232.95 149.35 230.75 145.9 231.0 L136.15 244.7 Q128.25 253.8 117.35 259.0 106.05 264.3 93.75 261.15 83.3 258.55 73.2 254.75 70.05 258.75 67.25 263.2 62.2 271.25 58.1 280.75 55.05 287.85 53.6 295.5 59.65 301.65 67.1 306.2 89.5 319.8 115.7 321.65 122.85 322.35 130.0 321.85 M5.35 262.3 Q16.7 258.6 27.75 254.05 39.15 249.3 50.1 243.7 56.7 240.25 55.75 233.15 54.65 225.25 54.6 217.2 45.5 212.8 35.35 212.5 26.2 212.2 17.3 214.5 L-15.1 228.45 -12.3 267.15 5.35 262.3 M147.5 318.5 L142.55 320.95 Q135.0 323.95 133.5 324.15 L120.8 324.6 108.4 323.65 Q77.85 319.6 54.9 300.5 53.55 298.8 53.25 299.5 L53.25 306.05 Q53.5 314.8 57.15 331.9 L59.1 340.7 60.45 346.4 Q61.8 350.45 71.5 356.3 79.05 360.85 89.5 365.35 L97.3 368.55 Q120.45 377.25 140.55 371.4 147.85 369.3 154.35 365.35 169.95 355.8 181.05 335.25 L182.8 331.9 Q184.9 327.7 186.8 323.1 L188.65 318.45 188.3 313.25 Q186.8 287.4 184.8 278.2 181.6 285.05 175.4 293.45 163.5 309.9 147.5 318.5 M-14.0 15.65 L-15.55 14.05 -15.45 17.7 -14.85 35.85 -13.5 36.3 -12.8 36.3 -3.55 36.7 Q-4.65 32.2 -4.6 27.95 L-4.4 24.65 Q-7.6 22.2 -14.0 15.65 M-72.6 50.55 Q-70.05 48.25 -68.0 45.65 L-68.55 45.35 Q-80.65 39.3 -91.75 47.0 -94.15 48.65 -96.1 50.75 -98.95 53.75 -100.85 57.6 -105.85 67.3 -100.9 76.6 -99.7 69.85 -96.15 64.0 L-96.1 63.9 Q-89.15 52.4 -75.8 53.35 L-72.6 50.55 M-76.45 54.65 L-80.45 54.5 Q-91.05 55.4 -96.1 65.55 -98.6 70.55 -99.75 77.8 L-96.1 80.8 Q-87.75 87.35 -73.45 96.55 -68.75 74.25 -54.15 77.45 -54.0 76.95 -55.2 76.1 L-76.45 54.65 M-50.0 78.45 L-44.1 74.95 -66.55 47.25 -74.45 54.0 -50.0 78.45 M-12.6 121.65 Q-11.5 121.3 -11.75 120.5 -11.8 119.5 -13.8 119.85 L-15.2 120.35 Q-19.0 119.0 -18.65 123.3 L-19.75 121.0 -20.0 121.75 Q-20.95 125.85 -17.6 128.1 L-11.8 127.9 -9.75 127.0 Q-7.0 125.7 -8.3 124.75 L-8.65 124.45 Q-8.25 122.85 -8.95 120.8 -8.75 121.65 -9.15 122.2 L-10.1 123.35 -12.6 121.65 M-22.5 124.7 Q-22.0 127.05 -24.35 130.9 L-17.8 129.05 Q-21.5 128.05 -22.5 124.7 M-37.55 126.45 Q-38.45 128.3 -38.5 131.05 -27.05 136.75 -23.35 125.3 L-26.1 123.2 Q-35.0 121.25 -37.5 126.45 L-37.55 126.4 -37.55 126.45 M-54.2 133.85 L-54.8 134.55 -55.0 134.8 -55.1 138.65 Q-44.05 143.15 -39.85 132.1 -39.55 131.25 -40.25 130.55 L-43.1 129.5 Q-49.8 129.0 -54.2 133.85 M-33.75 134.1 Q-37.1 133.75 -38.4 132.45 -38.45 134.1 -40.1 136.45 L-33.75 134.1 M-6.25 125.05 L-7.9 127.05 -2.3 125.1 -5.9 121.7 -6.25 125.05 M-65.0 141.6 Q-66.45 142.65 -67.15 144.1 L-67.25 144.3 -67.35 144.5 Q-68.9 148.3 -66.3 151.6 L-65.55 152.5 -64.2 150.35 -55.9 139.7 -57.75 139.3 -57.95 139.35 -65.0 141.6 M-50.8 141.25 L-55.3 140.55 -59.45 145.05 -64.25 152.05 -50.8 141.25 M-66.9 226.25 L-71.35 224.5 Q-70.7 243.1 -65.45 260.75 -65.05 262.15 -64.25 263.2 -62.35 265.8 -58.3 266.4 L-37.1 268.45 -34.55 268.55 Q-24.2 269.0 -13.95 267.45 L-16.8 228.95 -41.15 231.9 Q-53.9 231.3 -66.9 226.25" fill="#000000" fill-rule="evenodd" stroke="none"/>
    <path d="M-18.0 -100.15 Q-11.45 -112.25 -0.05 -112.55 4.95 -112.75 8.0 -109.9 11.35 -106.75 11.35 -101.0 L7.35 -93.45 Q1.95 -83.25 -2.05 -73.4 L-5.55 -64.2 Q-15.4 -36.25 -13.7 -11.45 L-13.6 -10.2 -13.85 -11.45 Q-19.45 -43.25 -20.9 -64.2 -22.85 -91.2 -18.0 -100.15 M-35.15 -51.3 L-42.6 -75.55 -41.15 -77.8 -40.6 -78.2 -35.15 -51.3 M72.15 -90.6 Q78.85 -88.85 79.45 -82.95 80.65 -71.2 70.15 -64.2 L69.35 -63.7 69.75 -64.2 Q81.9 -80.05 72.15 -90.6 M44.65 13.05 L66.05 -5.6 46.15 13.7 44.65 13.05 M46.1 39.15 L46.05 39.25 45.85 39.25 46.1 39.15 M48.2 39.7 L77.7 40.7 77.55 41.7 74.2 44.6 48.2 39.7 M57.05 91.2 L56.35 91.3 Q62.25 85.9 68.6 54.5 L75.4 55.35 Q74.95 61.1 71.25 68.85 66.35 79.05 60.4 88.65 58.7 89.9 57.05 91.2 M37.2 79.05 Q40.4 89.55 50.95 91.35 63.6 93.6 73.7 85.35 L77.85 82.65 72.7 86.35 Q62.85 94.2 50.8 93.3 37.8 92.7 37.2 79.05 M-12.85 1.5 L-8.35 2.15 Q-3.05 2.85 2.45 1.0 L3.45 0.7 Q14.0 -2.4 20.7 -11.05 16.9 -3.7 10.2 0.9 -1.15 8.6 -12.85 1.5 M20.75 -54.1 L-3.4 -20.4 Q12.0 -43.1 21.2 -64.2 28.35 -80.6 31.8 -96.0 35.3 -102.9 39.85 -104.05 44.7 -105.55 44.7 -96.65 44.7 -90.0 27.6 -64.2 L20.75 -54.1 M115.4 23.65 Q111.6 15.55 106.0 8.45 L103.85 5.75 Q95.6 -3.85 84.6 -8.45 81.45 -9.8 79.2 -11.45 71.55 -17.1 74.1 -27.0 77.65 -41.15 90.4 -38.35 103.55 -35.55 104.5 -22.45 104.9 -16.8 106.7 -11.45 108.55 -5.85 111.95 -0.6 L117.85 8.45 125.25 19.3 127.5 15.95 Q123.25 37.8 131.15 58.25 L132.65 61.75 123.3 62.35 119.75 55.6 115.4 44.8 115.65 32.55 118.75 26.65 Q124.65 24.7 126.5 18.95 L118.95 25.35 115.4 23.65 M133.3 61.75 L133.45 61.7 133.45 61.75 133.3 61.75 M77.45 39.4 L77.4 39.4 76.8 39.55 76.25 39.65 74.35 39.05 Q76.35 10.7 67.1 8.9 L68.8 7.85 75.05 4.25 75.7 6.15 76.4 8.45 77.95 14.45 Q78.8 18.35 79.15 21.95 L77.4 38.15 77.45 39.4 M126.45 65.6 L122.6 65.9 123.15 64.25 126.5 64.25 123.65 63.7 Q150.25 60.9 155.8 69.6 157.15 71.55 157.15 74.55 L154.95 81.35 153.6 82.95 148.35 86.55 Q154.95 73.1 142.85 68.35 134.95 65.2 126.45 65.6 M0.45 93.4 L2.5 88.6 4.1 87.3 6.8 85.15 Q8.5 83.05 8.3 76.55 L9.35 86.0 0.45 93.4 M-17.55 38.2 L-17.5 38.05 -2.0 37.75 -3.75 40.6 -17.55 38.2 M-18.75 1.05 L-18.7 1.0 -16.55 3.1 -12.1 8.45 Q-5.8 15.8 -1.95 18.25 -3.8 20.25 -4.4 19.65 -6.65 18.0 -13.55 8.45 L-18.75 1.05 M6.8 42.75 Q6.35 43.9 1.0 42.4 -7.1 26.5 3.15 18.95 -3.4 30.85 6.8 42.75 M6.5 49.45 L10.15 49.05 12.15 73.8 12.2 82.65 6.5 49.45 M28.95 50.15 L32.3 49.95 32.45 83.5 28.95 50.15 M4.55 85.55 L4.25 85.8 2.75 86.2 Q-1.75 79.55 -5.15 72.2 -10.05 61.55 -12.65 50.2 L-10.75 50.5 Q-1.45 78.4 4.55 85.55 M19.8 88.3 L30.25 88.9 31.8 91.05 18.7 91.35 19.8 88.3 M41.85 41.1 Q36.5 42.4 36.0 41.45 46.2 29.35 39.7 17.45 49.9 25.0 41.85 41.1 M51.75 112.5 L52.1 112.6 52.45 112.65 53.6 112.95 Q53.55 114.3 53.65 115.65 28.7 114.75 24.05 117.7 L23.7 115.45 23.75 115.0 Q42.65 110.9 51.75 112.5 M54.1 119.4 L54.45 121.2 24.9 123.35 24.55 121.25 53.6 118.2 54.1 119.4 M52.3 130.9 L52.3 130.85 Q56.9 129.15 62.2 128.9 L64.4 129.3 61.45 132.4 53.9 134.95 Q49.85 136.35 43.0 140.8 L42.95 140.8 Q39.85 142.25 36.8 142.9 34.85 142.4 33.65 143.35 L31.8 143.4 Q20.55 142.9 14.6 132.5 13.55 128.6 14.35 123.05 L16.9 125.9 27.55 138.0 27.6 138.05 27.85 138.2 33.15 140.1 Q35.9 140.4 38.65 139.35 L46.9 134.2 52.3 130.9 M51.65 205.05 L47.35 206.85 Q44.8 196.85 44.1 183.2 43.35 168.6 46.3 154.4 48.1 145.85 52.95 140.2 56.05 147.1 54.45 155.85 52.25 167.65 55.0 179.4 57.75 191.2 59.45 201.45 L51.65 205.05 M68.15 141.3 Q67.8 139.75 70.65 139.15 73.35 138.45 73.7 140.1 74.0 141.6 71.35 142.15 68.5 142.8 68.15 141.3 M16.95 137.15 L16.55 136.7 16.5 136.65 16.95 137.15 M63.0 148.7 Q63.55 148.4 64.5 148.2 67.3 147.85 67.65 149.15 L67.7 149.5 Q67.65 150.75 65.15 151.35 62.45 152.05 62.15 150.35 61.9 149.35 63.0 148.7 M66.15 159.1 Q69.0 158.55 69.35 160.4 70.0 162.25 67.0 162.9 64.45 163.4 63.8 161.55 63.45 159.7 66.15 159.1 M69.35 170.95 Q72.15 170.1 72.7 171.8 73.2 173.8 70.65 174.65 68.0 175.45 67.3 173.65 66.8 171.95 69.35 170.95 M74.85 188.4 Q72.0 188.35 72.05 186.35 72.0 184.35 74.85 184.35 77.7 184.35 77.7 186.35 77.7 188.35 74.85 188.4 M90.95 218.7 L92.35 218.05 Q91.85 244.25 108.65 258.15 L104.5 258.45 Q92.95 258.55 85.4 251.4 76.35 242.65 81.05 219.7 86.9 220.55 90.95 218.7 M91.6 263.2 Q103.5 266.35 109.9 263.65 107.85 264.95 98.5 315.25 72.35 309.2 62.3 299.15 L79.05 258.95 Q85.95 261.7 91.6 263.2 M14.0 208.3 L16.6 208.15 30.5 210.65 Q30.65 210.85 30.45 211.05 L29.9 211.1 28.65 210.9 Q24.45 210.55 17.75 212.55 L15.3 213.35 6.55 216.9 5.0 217.55 -8.1 224.05 Q-19.2 229.45 -31.5 230.25 L-38.9 230.25 -4.9 214.05 Q4.5 209.25 14.0 208.3 M14.1 203.3 L-20.65 196.05 -15.3 190.4 Q-6.35 193.95 2.8 197.15 10.05 199.7 17.6 199.6 25.2 199.45 32.9 197.75 L14.1 203.3 M-15.45 17.7 Q-14.95 23.35 -12.8 36.3 L-13.5 36.3 -14.85 35.85 -15.45 17.7 M-24.25 25.85 L-23.45 26.1 Q-60.55 45.55 -61.2 51.15 L-61.65 50.6 -62.0 50.15 -62.05 50.1 -62.35 49.65 -64.35 45.75 Q-52.25 32.8 -32.9 14.05 -30.15 26.1 -24.25 25.85 M-23.05 25.9 L-23.25 25.75 -22.0 25.35 -23.05 25.9 M-72.6 50.55 L-75.8 53.35 Q-88.85 51.05 -96.1 54.3 -98.95 55.5 -100.85 57.6 -98.95 53.75 -96.1 50.75 -94.15 48.65 -91.75 47.0 -80.65 39.3 -68.55 45.35 L-72.6 50.55 M-12.6 121.65 L-13.45 121.85 Q-15.3 122.5 -15.6 121.2 -15.65 120.7 -15.2 120.35 L-13.8 119.85 Q-11.8 119.5 -11.75 120.5 -11.5 121.3 -12.6 121.65 M-31.05 126.05 Q-33.05 126.35 -33.05 125.4 -33.2 124.35 -31.35 124.05 -29.55 123.55 -29.2 124.7 -28.9 125.7 -31.05 126.05 M-67.15 144.15 L-67.15 144.1 Q-66.45 142.65 -65.0 141.6 -65.0 142.6 -65.65 143.4 -66.3 144.15 -67.15 144.15 M-49.15 132.75 Q-49.3 131.9 -47.45 131.25 -45.65 130.9 -45.3 132.1 -45.3 133.05 -47.1 133.4 -49.15 133.75 -49.15 132.75 M-68.55 158.55 L-69.05 161.05 -69.45 161.5 -68.85 158.5 -68.55 158.55 M-51.15 176.25 L-52.3 176.2 Q-61.05 176.65 -61.15 168.15 -48.9 154.65 -33.45 145.0 -16.3 134.2 3.9 134.55 6.0 144.0 -2.2 148.45 -9.0 152.15 -17.2 154.15 -37.9 159.25 -51.15 176.25" fill="#f2f5d3" fill-rule="evenodd" stroke="none"/>
  </g>
</svg>
