<?xml version="1.0" encoding="UTF-8" standalone="no"?>
<svg xmlns:xlink="http://www.w3.org/1999/xlink" height="309.95px" width="534.0px" xmlns="http://www.w3.org/2000/svg">
  <g transform="matrix(1.0, 0.0, 0.0, 1.0, 267.0, 154.95)">
    <path d="M-110.85 -154.95 Q-130.0 -143.0 -147.05 -126.0 -204.0 -69.0 -204.0 11.55 -204.0 92.1 -147.05 149.05 L-140.85 155.0 -267.0 155.0 -267.0 -154.95 -110.85 -154.95 M121.85 155.0 L128.0 149.05 Q185.0 92.1 185.0 11.55 185.0 -69.0 128.0 -126.0 111.0 -143.0 91.85 -154.95 L267.0 -154.95 267.0 155.0 121.85 155.0" fill="#191919" fill-rule="evenodd" stroke="none"/>
    <path d="M-140.85 155.0 L-147.05 149.05 Q-204.0 92.1 -204.0 11.55 -204.0 -69.0 -147.05 -126.0 -130.0 -143.0 -110.85 -154.95 L91.85 -154.95 Q111.0 -143.0 128.0 -126.0 185.0 -69.0 185.0 11.55 185.0 92.1 128.0 149.05 L121.85 155.0 -140.85 155.0" fill="#006600" fill-rule="evenodd" stroke="none"/>
  </g>
</svg>
