<?xml version="1.0" encoding="UTF-8" standalone="no"?>
<svg xmlns:xlink="http://www.w3.org/1999/xlink" height="174.65px" width="285.65px" xmlns="http://www.w3.org/2000/svg">
  <g transform="matrix(1.0, 0.0, 0.0, 1.0, 1.0, 1.05)">
    <path d="M21.05 0.0 L21.05 172.6 0.0 172.6 0.0 6.85 Q21.05 -0.45 21.05 0.0" fill="#000000" fill-rule="evenodd" stroke="none"/>
    <path d="M21.05 0.0 Q21.05 -0.45 0.0 6.85 L0.0 172.6" fill="none" stroke="#000000" stroke-linecap="round" stroke-linejoin="round" stroke-width="2.0"/>
    <path d="M263.85 154.45 L36.85 154.45 36.85 16.65 263.85 16.65 263.85 154.45" fill="url(#gradient0)" fill-rule="evenodd" stroke="none"/>
    <path d="M283.65 172.6 L18.65 172.6 18.65 0.35 283.65 0.35 283.65 172.6 M263.85 154.45 L263.85 16.65 36.85 16.65 36.85 154.45 263.85 154.45" fill="#000000" fill-rule="evenodd" stroke="none"/>
    <path d="M283.65 172.6 L18.65 172.6 18.65 0.35 283.65 0.35 283.65 172.6 M263.85 154.45 L36.85 154.45 36.85 16.65 263.85 16.65 263.85 154.45" fill="none" stroke="#000000" stroke-linecap="round" stroke-linejoin="round" stroke-width="2.0"/>
  </g>
  <defs>
    <radialGradient cx="0" cy="0" gradientTransform="matrix(0.185, 0.0, 0.0, 0.185, 133.0, 78.0)" gradientUnits="userSpaceOnUse" id="gradient0" r="819.2" spreadMethod="pad">
      <stop offset="0.0" stop-color="#00ff00"/>
      <stop offset="1.0" stop-color="#000000"/>
    </radialGradient>
  </defs>
</svg>
