<?xml version="1.0" encoding="UTF-8" standalone="no"?>
<svg xmlns:xlink="http://www.w3.org/1999/xlink" height="214.5px" width="275.35px" xmlns="http://www.w3.org/2000/svg">
  <g transform="matrix(1.0, 0.0, 0.0, 1.0, 137.65, 107.25)">
    <path d="M135.05 -62.7 Q137.7 -60.0 137.7 -54.75 137.65 -41.25 120.6 -10.6 L107.45 12.2 Q100.4 24.3 98.35 29.25 94.55 38.3 85.1 51.0 L68.75 71.25 52.05 91.2 Q44.95 98.85 38.35 102.0 31.35 105.35 19.6 106.4 10.25 107.25 -12.15 107.25 -36.95 107.25 -41.1 106.7 -50.35 105.5 -55.75 99.25 -59.8 94.6 -70.55 71.65 L-90.05 29.4 Q-98.8 10.1 -116.35 -22.2 -133.9 -54.5 -136.7 -58.6 -139.55 -62.75 -133.85 -64.3 -128.15 -65.85 -121.65 -67.05 -115.2 -68.3 -94.85 -73.4 L-58.6 -82.45 2.35 -96.65 48.1 -107.25 101.2 -72.5 Q114.55 -63.65 115.0 -67.25 115.45 -70.9 127.2 -66.8 132.95 -64.8 135.05 -62.7" fill="#171e26" fill-rule="evenodd" stroke="none"/>
  </g>
</svg>
