<?xml version="1.0" encoding="UTF-8" standalone="no"?>
<svg xmlns:xlink="http://www.w3.org/1999/xlink" height="294.0px" width="365.4px" xmlns="http://www.w3.org/2000/svg">
  <g transform="matrix(1.0, 0.0, 0.0, 1.0, -248.9, -94.0)">
    <path d="M249.45 220.5 L249.45 220.55 249.4 220.5 249.45 220.5" fill="#333333" fill-rule="evenodd" stroke="none"/>
    <path d="M249.95 220.25 L265.4 233.7 416.6 358.65 417.8 359.65 419.05 360.65 419.0 360.65 417.8 359.65 419.0 360.65 256.0 347.95 249.45 220.55 249.45 220.5 249.45 219.85 249.95 220.25" fill="#202020" fill-rule="evenodd" stroke="none"/>
    <path d="M491.35 108.5 Q478.8 114.8 467.45 123.0 467.45 125.15 468.9 126.75 470.55 128.5 473.4 128.5 L475.9 128.05 Q478.3 130.6 488.95 138.4 500.95 147.25 505.0 149.75 L515.65 155.6 Q523.8 160.2 524.45 161.75 L526.45 167.6 Q528.8 172.5 532.65 172.5 533.9 172.5 536.75 171.25 539.6 170.0 540.85 170.0 543.05 170.0 547.05 173.8 L555.15 182.15 Q566.9 194.25 574.45 194.25 578.0 194.25 579.2 191.5 579.65 188.7 580.35 187.05 580.95 185.35 578.1 164.1 575.25 142.8 575.7 136.0 L539.8 116.35 510.65 100.4 Q509.8 100.0 491.35 108.5 L520.2 94.5 595.85 132.5 613.8 377.5 451.5 387.5 419.0 360.65 419.05 360.65 417.8 359.65 416.6 358.65 265.4 233.7 249.95 220.25 491.35 108.5 M581.65 190.7 L582.9 191.5 581.65 190.7 M433.95 295.8 Q443.0 305.15 449.6 307.3 L449.5 307.3 Q449.35 325.15 477.15 312.55 L512.05 296.5 543.8 270.7 569.65 249.8 Q570.3 249.15 569.6 228.75 568.55 214.75 565.4 201.05 L561.35 200.95 Q559.1 201.85 558.05 204.5 557.7 205.3 557.5 206.95 554.25 208.2 543.0 215.1 530.25 222.9 526.4 225.7 L516.95 233.35 Q509.6 239.15 507.95 239.1 L501.8 238.75 Q496.4 239.05 494.95 242.6 494.45 243.75 494.5 246.9 494.55 250.05 494.1 251.2 493.25 253.2 488.25 255.45 L477.45 259.8 Q472.6 261.75 469.0 263.75 458.75 253.45 454.5 249.65 L418.6 230.0 389.45 214.05 Q388.6 213.65 370.15 222.15 357.6 228.45 346.25 236.65 346.25 238.8 347.7 240.4 349.35 242.15 352.2 242.15 L354.65 241.7 Q357.1 244.25 367.75 252.05 379.75 260.9 383.8 263.4 L394.45 269.25 Q402.6 273.85 403.25 275.4 L405.2 281.25 Q407.6 286.15 411.45 286.15 412.7 286.15 415.55 284.9 418.4 283.65 419.65 283.65 421.85 283.65 425.85 287.45 L433.95 295.8" fill="#6c6c6c" fill-rule="evenodd" stroke="none"/>
    <path d="M491.35 108.5 Q509.8 100.0 510.65 100.4 L539.8 116.35 575.7 136.0 Q575.25 142.8 578.1 164.1 580.95 185.35 580.35 187.05 579.65 188.7 579.2 191.5 578.0 194.25 574.45 194.25 566.9 194.25 555.15 182.15 L547.05 173.8 Q543.05 170.0 540.85 170.0 539.6 170.0 536.75 171.25 533.9 172.5 532.65 172.5 528.8 172.5 526.45 167.6 L524.45 161.75 Q523.8 160.2 515.65 155.6 L505.0 149.75 Q500.95 147.25 488.95 138.4 478.3 130.6 475.9 128.05 L473.4 128.5 Q470.55 128.5 468.9 126.75 467.45 125.15 467.45 123.0 478.8 114.8 491.35 108.5 M433.95 295.8 L425.85 287.45 Q421.85 283.65 419.65 283.65 418.4 283.65 415.55 284.9 412.7 286.15 411.45 286.15 407.6 286.15 405.2 281.25 L403.25 275.4 Q402.6 273.85 394.45 269.25 L383.8 263.4 Q379.75 260.9 367.75 252.05 357.1 244.25 354.65 241.7 L352.2 242.15 Q349.35 242.15 347.7 240.4 346.25 238.8 346.25 236.65 357.6 228.45 370.15 222.15 388.6 213.65 389.45 214.05 L418.6 230.0 454.5 249.65 Q458.75 253.45 469.0 263.75 472.6 261.75 477.45 259.8 L488.25 255.45 Q493.25 253.2 494.1 251.2 494.55 250.05 494.5 246.9 494.45 243.75 494.95 242.6 496.4 239.05 501.8 238.75 L507.95 239.1 Q509.6 239.15 516.95 233.35 L526.4 225.7 Q530.25 222.9 543.0 215.1 554.25 208.2 557.5 206.95 557.7 205.3 558.05 204.5 559.1 201.85 561.35 200.95 L565.4 201.05 Q568.55 214.75 569.6 228.75 570.3 249.15 569.65 249.8 L543.8 270.7 512.05 296.5 477.15 312.55 Q449.35 325.15 449.5 307.3 L449.6 307.3 Q443.0 305.15 433.95 295.8" fill="#3c3c3c" fill-rule="evenodd" stroke="none"/>
    <path d="M491.35 108.5 L249.95 220.25 265.4 233.7 416.6 358.65 417.8 359.65 419.05 360.65 419.0 360.65 451.5 387.5 613.8 377.5 595.85 132.5 520.2 94.5 491.35 108.5 M419.0 360.65 L417.8 359.65 M249.95 220.25 L249.45 219.85 249.45 220.5 249.45 220.55 256.0 347.95 419.0 360.65 M249.45 220.55 L249.4 220.5 249.45 220.5" fill="none" stroke="#000000" stroke-linecap="round" stroke-linejoin="round" stroke-width="1.0"/>
    <path d="M582.9 191.5 L581.65 190.7" fill="none" stroke="#ffffff" stroke-linecap="round" stroke-linejoin="round" stroke-opacity="0.0" stroke-width="1.0"/>
  </g>
</svg>
