<?xml version="1.0" encoding="UTF-8" standalone="no"?>
<svg xmlns:xlink="http://www.w3.org/1999/xlink" height="127.1px" width="296.4px" xmlns="http://www.w3.org/2000/svg">
  <g transform="matrix(1.0, 0.0, 0.0, 1.0, -13.55, 203.4)">
    <path d="M271.4 -201.7 Q280.9 -203.6 291.3 -203.35 287.65 -189.6 267.95 -175.9 L267.75 -175.45 267.05 -176.15 Q268.95 -183.7 270.05 -190.15 271.1 -196.5 271.4 -201.7 M133.0 -150.6 L150.5 -152.0 204.15 -155.05 Q200.85 -144.45 204.1 -136.95 L204.15 -136.85 Q204.6 -134.95 205.4 -132.95 L204.6 -135.9 205.15 -135.05 209.75 -124.35 Q147.55 -152.55 127.55 -138.55 L130.15 -145.4 133.0 -150.6 M106.95 -105.8 L94.3 -97.85 Q107.25 -136.7 104.1 -141.9 104.45 -141.55 106.9 -142.35 117.55 -143.5 129.4 -148.35 L106.95 -105.8 M127.55 -138.55 Q127.1 -137.45 127.3 -138.35 L127.55 -138.55" fill="#f2f5d3" fill-rule="evenodd" stroke="none"/>
    <path d="M291.3 -203.35 L296.75 -203.1 Q301.1 -202.1 305.2 -200.4 L304.65 -195.45 Q298.8 -180.25 277.85 -168.6 257.55 -115.0 220.0 -102.0 191.2 -92.0 157.4 -92.4 122.9 -93.0 109.35 -104.55 109.1 -104.75 108.7 -104.4 L130.15 -145.4 127.55 -138.55 Q147.55 -152.55 209.75 -124.35 L205.15 -135.05 205.05 -140.8 Q205.05 -144.8 206.75 -148.0 L224.8 -180.7 Q234.4 -184.65 243.7 -190.6 256.5 -198.7 271.4 -201.7 271.1 -196.5 270.05 -190.15 268.95 -183.7 267.05 -176.15 L267.75 -175.45 267.95 -175.9 Q287.65 -189.6 291.3 -203.35 M150.5 -152.0 L133.0 -150.6 133.75 -150.8 150.5 -152.0 M204.6 -135.9 L205.4 -132.95 Q204.6 -134.95 204.15 -136.85 L204.6 -135.9 M134.15 -160.6 Q128.8 -145.2 110.05 -145.15 99.4 -145.05 89.15 -147.65 70.25 -152.4 58.4 -166.2 54.3 -170.95 51.1 -176.75 L49.85 -179.05 54.05 -179.7 Q59.35 -180.3 64.8 -179.5 65.8 -178.0 66.9 -176.65 83.85 -155.2 109.65 -166.1 114.05 -168.0 117.7 -170.9 126.95 -170.05 132.95 -163.35 L134.15 -161.85 134.15 -160.6 M106.9 -142.35 Q104.45 -141.55 104.1 -141.9 107.25 -136.7 94.3 -97.85 L106.95 -105.8 99.95 -92.65 98.3 -90.55 Q19.25 -71.15 66.15 -153.95 L64.9 -156.0 65.1 -155.9 Q83.3 -139.95 106.9 -142.35 M127.55 -138.55 L127.3 -138.35 Q127.1 -137.45 127.55 -138.55" fill="#6bbd46" fill-rule="evenodd" stroke="none"/>
    <path d="M305.2 -200.4 L309.95 -198.2 Q306.75 -178.35 296.85 -160.5 275.05 -120.7 239.25 -93.0 235.75 -90.3 231.7 -89.45 167.7 -76.3 102.85 -88.9 99.7 -85.45 95.75 -82.6 85.95 -75.5 74.0 -76.4 33.75 -79.5 13.55 -115.15 L13.65 -116.65 Q13.95 -118.8 14.9 -120.7 16.35 -124.15 18.1 -127.3 L42.35 -176.15 Q48.6 -186.7 60.65 -185.0 L63.6 -184.15 Q65.6 -183.25 67.1 -181.45 L68.15 -180.2 Q88.0 -157.85 113.55 -172.45 116.1 -173.9 118.65 -174.1 139.25 -176.1 138.6 -156.25 L197.0 -160.05 Q200.15 -160.05 202.95 -161.4 211.9 -165.85 215.65 -175.45 L218.7 -178.45 222.75 -179.9 224.8 -180.7 206.75 -148.0 Q205.05 -144.8 205.05 -140.8 L205.15 -135.05 204.6 -135.9 204.15 -136.85 204.1 -136.95 Q200.85 -144.45 204.15 -155.05 L150.5 -152.0 133.75 -150.8 133.0 -150.6 130.15 -145.4 108.7 -104.4 103.5 -94.45 Q146.8 -87.5 190.6 -85.1 212.55 -83.9 231.8 -94.35 250.95 -104.65 265.2 -121.6 292.4 -154.5 304.65 -195.45 L305.2 -200.4 M134.15 -160.6 L134.15 -161.85 132.95 -163.35 Q126.95 -170.05 117.7 -170.9 114.05 -168.0 109.65 -166.1 83.85 -155.2 66.9 -176.65 65.8 -178.0 64.8 -179.5 59.35 -180.3 54.05 -179.7 L49.85 -179.05 51.1 -176.75 Q54.3 -170.95 58.4 -166.2 70.25 -152.4 89.15 -147.65 99.4 -145.05 110.05 -145.15 128.8 -145.2 134.15 -160.6 M106.9 -142.35 Q83.3 -139.95 65.1 -155.9 L64.9 -156.0 Q60.05 -160.55 55.95 -165.65 52.35 -170.15 49.4 -175.05 L48.4 -176.75 18.55 -116.85 Q29.8 -97.45 49.35 -86.25 76.4 -70.75 98.3 -90.55 L99.95 -92.65 106.95 -105.8 129.4 -148.35 Q117.55 -143.5 106.9 -142.35" fill="#000000" fill-rule="evenodd" stroke="none"/>
    <path d="M64.9 -156.0 L66.15 -153.95 Q19.25 -71.15 98.3 -90.55 76.4 -70.75 49.35 -86.25 29.8 -97.45 18.55 -116.85 L48.4 -176.75 49.4 -175.05 Q52.35 -170.15 55.95 -165.65 60.05 -160.55 64.9 -156.0 M108.7 -104.4 Q109.1 -104.75 109.35 -104.55 122.9 -93.0 157.4 -92.4 191.2 -92.0 220.0 -102.0 257.55 -115.0 277.85 -168.6 298.8 -180.25 304.65 -195.45 292.4 -154.5 265.2 -121.6 250.95 -104.65 231.8 -94.35 212.55 -83.9 190.6 -85.1 146.8 -87.5 103.5 -94.45 L108.7 -104.4" fill="#016a3a" fill-rule="evenodd" stroke="none"/>
  </g>
</svg>
