<?xml version="1.0" encoding="UTF-8" standalone="no"?>
<svg xmlns:xlink="http://www.w3.org/1999/xlink" height="522.15px" width="1028.9px" xmlns="http://www.w3.org/2000/svg">
  <g transform="matrix(1.0, 0.0, 0.0, 1.0, 34.2, 54.7)">
    <path d="M209.55 208.95 Q210.55 212.2 211.0 218.1 211.55 224.7 211.3 231.5 211.3 251.15 245.3 271.05 250.75 274.25 261.95 279.95 L265.75 279.8 277.55 283.75 Q290.8 287.7 299.35 287.7 L300.5 287.7 304.2 287.4 304.3 287.4 Q310.5 286.65 316.25 284.05 318.3 283.1 321.65 281.5 324.35 280.35 326.4 280.35 331.7 280.35 334.35 281.6 335.95 282.4 339.25 284.4 348.05 288.45 379.05 288.45 L385.9 288.1 Q391.7 286.6 397.35 285.75 404.15 283.7 411.0 280.2 L421.35 274.55 Q426.15 271.95 428.5 271.95 431.95 271.95 434.3 274.7 L438.1 280.75 Q443.3 289.5 453.05 289.5 454.8 289.5 458.8 288.15 464.75 286.15 468.65 285.2 475.8 283.4 484.9 282.4 489.05 279.0 497.4 279.0 503.45 279.0 507.35 280.95 L515.0 280.85 Q524.65 280.85 544.55 266.1 L557.8 255.9 Q563.9 251.3 565.4 251.3 567.05 251.3 568.2 251.85 L575.4 251.3 Q581.45 251.3 601.0 255.45 L643.15 264.5 Q706.85 277.7 745.1 277.7 L796.6 275.9 831.2 274.05 Q835.55 274.05 837.85 274.8 L841.65 273.4 Q856.65 268.35 871.9 267.55 875.1 266.0 881.2 266.0 887.6 266.0 910.45 269.85 944.55 269.85 965.65 256.4 970.15 253.5 977.65 247.1 982.65 242.9 984.9 242.9 993.0 242.9 993.15 250.8 993.25 254.8 991.7 259.45 991.7 261.75 993.2 268.15 994.7 274.6 994.7 276.4 994.7 285.15 992.5 303.3 990.25 321.5 990.25 330.2 990.25 331.55 991.3 333.35 992.35 335.2 992.35 336.5 992.35 340.5 990.05 343.2 987.15 346.6 981.45 346.6 962.7 350.0 944.85 350.0 L920.45 349.2 Q918.8 350.8 917.0 350.8 914.35 350.8 912.25 349.25 897.6 351.6 833.8 351.6 664.35 350.8 629.6 350.3 L601.65 348.95 596.35 348.2 573.65 347.4 562.3 348.45 562.3 349.6 209.55 349.6 209.55 288.75 212.1 288.3 Q210.4 287.6 209.55 286.7 L209.55 208.95 M551.6 284.0 L551.35 284.35 551.9 284.4 551.6 284.0" fill="#120403" fill-rule="evenodd" stroke="none"/>
    <path d="M10.55 410.65 L-33.7 410.65 -33.7 -16.85 10.55 -16.85 155.85 -16.85 155.85 410.65 10.55 410.65" fill="#0b0302" fill-rule="evenodd" stroke="none"/>
    <path d="M10.55 -16.85 L10.55 -53.7 209.55 -53.7 209.55 208.95 209.55 286.7 209.55 288.75 209.55 349.6 209.55 466.45 10.55 466.45 10.55 410.65 155.85 410.65 155.85 -16.85 10.55 -16.85" fill="url(#gradient0)" fill-rule="evenodd" stroke="none"/>
    <path d="M10.55 -16.85 L10.55 -53.7 209.55 -53.7 M209.55 466.45 L10.55 466.45 10.55 410.65 -33.7 410.65 -33.7 -16.85 10.55 -16.85 155.85 -16.85 M155.85 410.65 L10.55 410.65" fill="none" stroke="#000000" stroke-linecap="round" stroke-linejoin="round" stroke-width="1.0"/>
    <path d="M155.85 -16.85 L155.85 410.65" fill="none" stroke="#000000" stroke-linecap="round" stroke-linejoin="round" stroke-width="3.0"/>
    <path d="M209.55 -53.7 L209.55 208.95 M209.55 349.6 L209.55 466.45 M209.55 288.75 L209.55 349.6 M209.55 288.75 L209.55 286.7 209.55 208.95" fill="none" stroke="#797979" stroke-linecap="round" stroke-linejoin="round" stroke-width="2.0"/>
  </g>
  <defs>
    <radialGradient cx="0" cy="0" gradientTransform="matrix(0.34, 0.0, 0.0, 0.34, 110.05, 206.4)" gradientUnits="userSpaceOnUse" id="gradient0" r="819.2" spreadMethod="pad">
      <stop offset="0.0" stop-color="#00ff00"/>
      <stop offset="1.0" stop-color="#000000"/>
    </radialGradient>
  </defs>
</svg>
