<?xml version="1.0" encoding="UTF-8" standalone="no"?>
<svg xmlns:xlink="http://www.w3.org/1999/xlink" height="32.85px" width="40.6px" xmlns="http://www.w3.org/2000/svg">
  <g transform="matrix(1.0, 0.0, 0.0, 1.0, 20.3, 16.4)">
    <path d="M2.65 -16.4 Q7.7 -16.4 12.85 -13.75 17.2 -11.5 18.55 -9.3 19.55 -7.55 19.6 -5.35 L19.4 -1.4 Q19.25 4.15 20.3 14.5 20.3 16.45 17.8 16.45 15.3 16.45 12.7 12.6 L11.45 10.35 10.3 8.85 9.2 7.35 8.35 6.35 Q7.0 4.85 6.05 4.85 L-0.05 5.2 0.1 5.45 -0.45 5.55 Q-3.3 5.55 -4.3 4.85 L-4.85 4.1 -7.05 4.2 -7.2 6.6 Q-7.2 6.8 -7.85 6.8 -8.35 6.8 -10.55 4.35 -12.7 1.85 -12.95 1.85 -14.35 1.85 -14.85 2.45 -15.4 3.05 -15.7 3.05 L-18.05 1.5 Q-19.85 -0.05 -19.85 -0.4 L-19.3 -1.05 -20.3 -2.05 Q-20.3 -4.85 -18.45 -10.2 -17.85 -12.2 -14.35 -13.8 -8.65 -16.4 2.65 -16.4 M1.55 0.65 L1.4 0.65 1.4 0.7 1.55 0.65" fill="#ffffff" fill-rule="evenodd" stroke="none"/>
  </g>
</svg>
