<?xml version="1.0" encoding="UTF-8" standalone="no"?>
<svg xmlns:xlink="http://www.w3.org/1999/xlink" height="197.5px" width="304.05px" xmlns="http://www.w3.org/2000/svg">
  <g transform="matrix(1.0, 0.0, 0.0, 1.0, 152.0, 98.75)">
    <path d="M146.6 -68.6 Q140.9 -49.4 139.55 -32.0 138.05 -11.5 138.05 19.75 138.05 21.2 134.9 31.8 131.15 44.45 126.85 55.75 113.75 89.75 103.8 89.75 98.1 89.75 97.25 84.45 97.0 82.8 97.25 80.6 L97.55 78.5 97.3 78.0 Q92.55 81.1 85.0 81.9 81.8 82.25 71.8 82.25 70.55 82.25 69.3 83.5 68.05 84.75 66.8 84.75 L61.55 84.25 56.3 83.75 Q51.2 83.75 49.25 82.1 48.0 81.0 47.3 77.75 46.3 80.25 44.8 86.15 42.75 90.75 37.3 90.75 33.65 90.75 31.8 88.75 30.0 86.75 26.3 86.75 23.35 86.75 21.75 85.3 L20.05 83.25 Q19.65 83.95 18.5 89.0 16.55 93.75 11.8 93.75 8.8 93.75 6.7 91.9 4.55 90.0 1.55 90.0 -6.55 90.0 -8.7 94.4 L-10.3 97.4 Q-11.5 98.75 -14.2 98.75 -18.6 98.75 -19.95 94.8 L-20.45 90.5 Q-27.25 89.3 -32.85 84.05 -39.05 78.3 -35.3 74.0 L-37.8 71.25 Q-38.75 74.8 -39.9 76.1 -41.4 77.75 -44.55 77.75 -49.4 77.75 -50.35 62.75 L-50.3 47.35 Q-50.3 40.85 -51.05 33.6 -51.8 26.4 -51.8 17.75 -51.8 17.0 -53.3 10.25 -64.3 9.95 -66.55 8.05 -67.3 7.4 -67.3 6.3 L-67.3 4.5 Q-69.45 -3.8 -74.05 -9.75 -78.0 -14.85 -78.95 -22.95 -79.9 -31.15 -77.3 -38.25 -89.55 -39.9 -95.3 -45.85 -98.1 -48.75 -101.9 -57.6 -105.25 -65.3 -110.05 -68.5 -117.3 -73.25 -132.55 -73.25 -140.6 -73.25 -146.5 -79.25 -151.3 -84.1 -151.3 -87.5 L-152.0 -91.15 Q-152.0 -92.4 -148.5 -92.75 -145.9 -93.0 -96.05 -93.0 35.2 -93.0 99.1 -85.6 L115.2 -83.45 Q116.3 -88.4 121.8 -94.75 L122.8 -96.25 Q124.9 -98.75 127.8 -98.75 130.9 -98.75 132.05 -97.8 L133.4 -95.75 Q135.2 -92.75 144.8 -92.75 148.85 -92.75 150.85 -89.0 152.05 -86.65 152.05 -84.5 L146.6 -68.6" fill="#ffffff" fill-rule="evenodd" stroke="none"/>
  </g>
</svg>
