<?xml version="1.0" encoding="UTF-8" standalone="no"?>
<svg xmlns:xlink="http://www.w3.org/1999/xlink" height="723.9px" width="343.5px" xmlns="http://www.w3.org/2000/svg">
  <g transform="matrix(1.0, 0.0, 0.0, 1.0, 178.15, 336.3)">
    <path d="M16.95 -305.4 Q10.45 -303.4 4.15 -300.85 1.75 -299.9 -5.3 -296.3 -47.2 -278.4 -65.15 -236.55 -74.6 -214.4 -72.7 -190.45 -49.65 -233.7 -5.3 -254.75 L16.55 -262.95 39.3 -267.45 51.1 -268.7 68.05 -269.2 Q80.35 -268.65 92.4 -265.35 132.65 -253.5 158.4 -220.35 156.95 -242.55 146.95 -262.35 125.5 -304.7 78.9 -310.95 67.9 -312.6 56.8 -312.3 L37.2 -310.2 Q26.8 -308.45 16.95 -305.4 M44.5 -248.8 L51.2 -249.3 Q92.4 -252.15 125.05 -226.8 L133.5 -227.2 Q102.6 -256.2 60.1 -255.3 5.5 -254.2 -35.7 -219.2 L-27.95 -217.6 -27.4 -218.0 Q4.1 -243.3 44.5 -248.8 M18.75 -212.7 L17.1 -212.65 Q18.15 -233.8 36.3 -219.2 38.3 -217.6 36.05 -214.65 26.6 -233.95 18.75 -212.7 M105.8 -162.4 L113.95 -159.4 Q121.15 -196.55 123.1 -224.85 119.55 -228.4 109.95 -234.0 100.4 -239.65 94.95 -241.05 L95.95 -233.7 Q89.95 -238.0 78.35 -238.05 L67.35 -237.25 56.2 -237.25 Q55.1 -237.4 55.1 -244.0 64.25 -246.8 77.8 -245.75 48.95 -250.25 28.75 -243.65 37.2 -246.0 43.7 -242.35 42.7 -236.1 40.8 -235.8 31.95 -239.0 20.4 -237.9 7.85 -237.25 2.4 -233.05 L2.55 -234.0 Q-12.4 -226.95 -23.2 -218.4 -26.25 -216.15 -26.25 -215.5 L-14.8 -163.95 Q0.45 -167.6 13.4 -169.55 L14.45 -169.7 29.05 -171.4 32.75 -171.65 34.55 -172.75 43.55 -172.9 60.9 -174.2 Q68.6 -174.7 68.95 -174.4 69.7 -173.1 68.1 -171.8 60.85 -173.55 50.75 -171.95 80.25 -171.15 105.8 -162.4 M101.9 -210.2 L105.25 -207.95 Q103.9 -189.25 100.1 -170.85 L99.5 -171.7 Q102.6 -191.3 101.9 -210.2 M61.9 -215.65 Q61.75 -217.65 62.95 -218.9 80.25 -236.3 83.35 -212.85 L81.15 -212.55 80.95 -214.85 Q79.25 -225.9 69.4 -223.45 L64.05 -215.55 61.9 -215.65 M125.5 -224.5 L125.35 -224.05 Q121.95 -184.55 115.85 -158.45 L123.9 -155.25 133.55 -224.5 125.5 -224.5 M134.9 -216.2 L126.5 -156.35 125.05 -152.2 Q96.15 -165.75 64.3 -168.65 18.25 -172.4 -25.75 -158.6 L-35.9 -201.0 -39.4 -215.8 Q-43.6 -212.15 -47.35 -207.65 -55.5 -198.05 -60.95 -186.9 L-56.25 -172.2 -41.35 -125.2 Q-16.4 -132.3 8.65 -138.05 L88.35 -158.95 138.45 -147.7 146.4 -203.05 147.7 -212.3 136.15 -224.65 134.9 -216.2 M147.85 -216.15 L157.0 -217.3 155.1 -219.9 Q129.95 -253.5 88.85 -262.35 41.1 -272.7 -3.55 -252.5 -49.2 -231.75 -71.25 -187.05 L-63.05 -188.2 Q-42.05 -225.9 -2.65 -243.55 37.5 -261.65 80.65 -254.1 121.1 -247.15 147.85 -216.15 M-8.15 -297.65 Q25.9 -315.2 64.0 -314.7 93.05 -314.3 118.05 -300.0 101.1 -318.6 77.15 -325.3 34.75 -337.15 -4.9 -318.05 -38.55 -299.45 -52.45 -265.05 L-52.2 -265.45 Q-33.45 -285.9 -8.15 -297.65 M62.55 -333.95 Q106.2 -324.85 135.5 -291.4 165.3 -257.5 165.35 -212.8 L152.8 -211.0 145.1 -148.8 149.0 -146.1 149.1 -135.45 Q157.8 -125.0 155.05 -112.35 151.7 -96.7 149.45 -80.85 137.4 4.9 132.25 91.65 L125.25 93.1 124.2 114.45 106.7 116.75 106.05 128.05 Q102.45 228.05 92.05 327.45 52.6 358.95 10.9 387.6 -37.15 372.35 -84.1 353.85 L-84.4 351.4 Q-104.05 341.5 -120.35 326.95 L-117.35 265.9 -84.6 256.75 -107.1 147.75 Q-120.25 144.25 -127.15 132.35 -138.75 112.15 -128.15 92.5 -129.6 92.45 -129.85 91.1 -132.0 79.15 -131.5 67.05 L-141.8 65.3 -127.0 20.8 Q-133.85 18.65 -139.0 14.1 -168.75 -12.65 -178.15 -52.0 -174.0 -54.05 -169.15 -55.25 -152.8 -58.9 -136.35 -56.3 L-138.25 -77.1 Q-131.05 -80.9 -122.9 -81.5 -112.35 -82.35 -103.05 -77.45 L-91.45 -93.8 Q-81.05 -108.05 -64.15 -113.15 L-59.5 -122.95 -48.55 -126.8 -64.15 -181.6 -78.05 -180.65 Q-81.95 -198.45 -78.3 -216.25 -74.6 -234.6 -67.7 -252.15 -52.5 -290.8 -19.55 -315.55 17.5 -343.3 62.55 -333.95 M84.1 -181.05 L81.8 -186.3 76.8 -184.65 77.8 -183.15 Q79.1 -181.35 78.05 -180.3 L75.0 -184.2 70.35 -183.1 71.35 -181.4 Q77.55 -173.75 84.1 -181.05 M132.35 -140.8 Q127.4 -142.7 122.3 -142.7 89.95 -142.75 65.25 -120.65 L80.1 -111.45 Q105.85 -96.45 98.75 -72.95 96.95 -67.05 91.15 -63.55 51.7 -39.7 14.45 -64.8 -26.6 -59.95 -68.05 -59.25 -90.25 -38.65 -86.95 -8.5 -86.5 10.55 -72.85 22.2 -72.2 22.75 -71.25 23.0 L8.0 23.2 Q21.1 23.4 34.05 22.55 L36.75 22.3 Q45.1 21.4 52.8 18.75 85.6 -2.65 111.0 -34.3 133.65 -62.65 147.2 -96.1 158.6 -124.25 132.35 -140.8 M82.1 -135.15 L86.45 -155.85 80.0 -154.45 72.45 -142.7 Q76.95 -141.9 71.8 -133.2 L67.15 -125.35 82.1 -135.15 M142.55 -137.9 L142.85 -143.65 89.5 -156.05 85.15 -136.45 Q111.25 -151.95 137.75 -140.25 140.2 -139.25 142.55 -137.9 M76.3 -191.25 L77.6 -191.3 Q86.8 -190.65 87.05 -181.05 77.5 -167.95 67.75 -182.5 41.9 -175.45 18.9 -183.15 48.55 -179.6 77.55 -188.35 L76.3 -191.25 M2.7 -130.15 L0.95 -125.05 Q-0.05 -122.15 0.3 -119.4 3.65 -121.0 6.1 -130.8 L2.7 -130.15 M61.35 -144.45 L61.2 -144.4 Q62.1 -143.35 61.35 -144.45 M2.7 -116.65 L2.4 -105.75 18.3 -118.6 Q22.8 -122.3 23.9 -122.75 27.45 -124.4 39.2 -125.35 L43.85 -133.85 Q46.75 -139.65 49.15 -142.05 51.7 -144.65 54.8 -144.65 L57.05 -148.35 10.75 -136.25 Q9.95 -123.9 2.7 -116.65 M50.9 -138.55 L43.2 -125.35 Q51.55 -125.35 60.9 -122.45 L69.1 -136.25 50.9 -138.55 M84.5 -104.2 Q49.7 -136.9 10.2 -109.75 -2.25 -101.2 -11.95 -89.8 -3.75 -92.35 4.3 -89.5 8.55 -88.05 11.75 -85.35 44.65 -47.7 89.9 -68.35 102.25 -73.95 97.0 -87.8 93.2 -97.9 84.5 -104.2 M12.6 -80.8 Q10.1 -84.05 6.2 -85.25 -23.35 -95.05 -24.8 -63.8 L-20.15 -63.95 -18.7 -65.55 Q-1.45 -85.4 16.35 -66.85 34.3 -49.75 58.3 -57.65 30.2 -58.1 12.6 -80.8 M137.35 -56.95 L138.5 -70.75 Q135.45 -65.85 131.85 -60.95 105.8 -25.75 75.9 6.45 58.7 24.95 32.45 25.1 L31.35 33.5 24.55 84.75 104.2 87.15 119.05 87.95 Q124.05 88.25 124.85 87.45 L125.5 83.15 137.35 -56.95 M23.7 33.4 L27.45 25.45 25.05 25.6 23.6 26.6 19.8 26.4 19.25 25.6 14.95 25.75 Q12.45 30.05 7.55 31.05 1.2 32.3 2.2 25.6 L-0.35 25.6 -3.6 33.1 -20.6 73.5 2.4 76.9 2.55 76.75 Q15.65 56.25 23.7 33.4 M15.95 33.3 L16.35 32.35 Q18.3 29.15 21.85 30.9 L21.15 33.35 Q20.05 36.25 18.15 38.45 L14.1 37.95 Q15.35 34.65 15.95 33.3 M5.1 25.75 Q5.1 28.8 8.2 28.15 11.05 27.65 11.85 25.75 L5.1 25.75 M11.05 43.75 Q13.0 40.85 16.35 42.65 13.6 49.55 12.65 49.85 11.4 50.35 8.8 49.4 10.55 44.55 11.05 43.75 M1.85 70.9 L0.1 72.05 -13.8 70.2 -13.35 67.95 Q-5.7 66.85 1.75 69.5 L1.85 70.9 M5.6 60.65 Q5.9 63.5 2.85 63.7 L-10.35 61.9 Q-10.8 58.85 -7.4 58.85 L-1.0 59.5 5.6 60.65 M16.35 98.0 L17.35 86.35 -127.2 66.35 -126.9 74.4 -126.55 86.35 -27.25 102.45 15.4 109.35 15.45 108.5 16.35 98.0 M119.45 99.75 L120.2 90.2 19.85 86.9 18.75 98.05 17.75 108.8 17.65 109.65 27.2 110.15 36.6 110.65 40.5 106.85 Q72.2 78.75 101.75 110.75 L118.3 110.65 119.45 99.75 M25.4 56.55 L18.45 53.4 Q15.05 71.85 0.25 80.3 -0.75 80.9 -1.9 81.25 L22.3 84.6 25.4 56.55 M33.75 116.8 L35.35 112.7 -36.2 103.4 -39.15 108.0 Q-41.7 112.25 -43.25 116.45 -45.85 123.35 -45.85 129.9 -46.0 140.75 -40.85 150.2 -39.15 153.4 -36.85 156.45 L-29.95 157.05 43.85 170.25 38.8 164.05 38.0 162.9 Q27.35 147.45 30.55 128.75 31.5 122.95 33.75 116.8 M49.3 172.2 L48.2 204.05 46.25 296.75 47.8 298.5 15.7 322.9 11.7 379.85 84.85 328.4 101.4 113.75 Q96.65 107.0 88.9 103.7 46.2 85.25 32.65 129.1 29.7 155.05 49.3 172.2 M6.75 380.95 L9.15 381.8 13.15 322.3 -75.45 298.6 -79.45 349.8 Q-52.2 360.5 6.75 380.95 M-46.25 303.3 L14.75 320.25 43.7 299.0 35.65 296.85 -33.05 279.75 -72.05 296.15 -46.25 303.3 M-12.85 282.25 Q16.75 289.85 43.85 296.25 L46.75 173.0 -33.9 159.0 -32.45 214.05 -31.4 254.1 -30.75 277.65 -12.85 282.25 M-7.2 -208.75 L-5.65 -208.95 -2.15 -170.05 -3.7 -170.0 Q-4.5 -188.85 -9.15 -206.95 L-7.2 -208.75 M-28.65 -215.2 L-37.15 -217.1 -24.15 -161.0 -17.2 -163.25 -28.65 -215.2 M-129.55 -46.55 Q-151.25 -43.55 -174.7 -52.4 L-173.65 -50.0 Q-164.95 -29.85 -153.45 -11.0 -131.45 25.1 -92.9 8.85 L-99.3 8.1 -100.65 7.0 -106.85 -2.1 Q-108.15 -4.8 -108.9 -7.55 -111.25 -16.9 -108.85 -26.25 -105.3 -40.2 -92.45 -41.45 L-98.7 -60.85 Q-99.2 -56.9 -102.65 -55.2 -106.9 -53.05 -111.2 -51.35 -104.0 -56.4 -100.6 -66.7 -111.85 -78.4 -127.8 -75.7 L-117.5 -72.35 Q-105.85 -67.95 -112.55 -58.3 -131.7 -47.8 -154.6 -50.75 L-141.95 -48.3 Q-135.25 -46.75 -129.55 -46.55 M-47.3 -102.5 L-45.35 -116.8 -61.1 -108.15 -63.05 -94.5 -47.3 -102.5 M-38.6 -123.45 L-45.5 -121.15 -42.1 -121.5 -41.85 -120.6 Q-39.95 -106.75 -48.25 -97.7 L-48.75 -92.4 Q-35.05 -100.55 -20.75 -95.75 L-18.55 -102.0 -10.5 -130.8 -38.6 -123.45 M-56.75 -77.1 Q-55.1 -83.7 -50.85 -88.85 L-90.7 -75.85 -76.4 -82.45 -65.45 -106.7 -66.6 -106.35 Q-88.45 -93.65 -102.1 -71.15 L-97.6 -65.9 -93.5 -52.8 -90.35 -41.95 -84.1 -42.7 Q-80.05 -51.1 -73.0 -58.0 -69.3 -61.55 -68.15 -61.85 L-56.3 -62.2 Q-57.4 -65.45 -57.55 -68.95 L-56.75 -77.1 M-5.0 -128.4 L-8.4 -127.6 Q-11.75 -122.7 -10.65 -116.95 L-9.05 -118.9 Q-5.25 -122.8 -5.0 -128.4 M-1.3 -119.05 Q-2.0 -109.85 -10.95 -110.4 L-10.8 -111.7 Q-13.75 -101.65 -14.65 -91.1 L-2.1 -102.05 -1.3 -119.05 M-14.7 -103.15 L-14.5 -104.45 -15.25 -102.25 -16.45 -98.65 -15.3 -98.8 -14.7 -103.15 M-8.85 -112.95 L-4.85 -113.6 1.25 -131.6 -2.6 -130.65 -8.85 -112.95 M-134.25 -74.05 L-129.9 -53.8 -127.3 -54.2 Q-114.9 -55.0 -112.1 -65.25 -120.95 -74.65 -134.25 -74.05 M-89.75 -15.75 Q-89.45 -28.8 -85.7 -40.15 L-98.25 -38.4 -98.5 -38.2 Q-107.0 -28.95 -107.55 -16.15 -107.9 -9.25 -104.75 -2.85 L-99.75 3.75 -98.1 6.0 -87.15 6.6 -86.2 6.65 -86.5 5.4 -86.85 4.0 -88.35 -2.85 Q-89.7 -10.05 -89.75 -15.75 M-18.05 -94.0 L-16.6 -93.2 -15.75 -96.55 -17.4 -96.25 -18.05 -94.0 M-43.8 -72.75 Q-37.0 -83.95 -23.95 -85.35 L-20.45 -85.5 -16.5 -89.55 Q-42.2 -103.05 -54.75 -76.15 L-55.1 -69.15 Q-54.8 -65.7 -53.55 -62.35 L-46.15 -62.65 -45.8 -65.9 Q-45.2 -69.7 -43.8 -72.75 M-26.6 -73.0 Q-25.5 -78.05 -22.35 -82.9 L-22.7 -82.9 Q-37.45 -81.7 -41.9 -71.4 -43.1 -68.65 -43.55 -65.25 L-43.75 -62.8 -26.9 -63.45 -27.15 -65.95 Q-27.4 -69.55 -26.6 -73.0 M-15.3 -65.85 Q-16.45 -64.75 -16.25 -64.25 L12.85 -66.85 Q7.0 -74.7 -2.1 -73.9 -9.05 -73.1 -15.3 -65.85 M-62.9 -87.25 L-62.55 -90.45 Q-66.4 -88.2 -66.25 -93.0 L-65.45 -100.4 -73.0 -83.7 -62.9 -87.25 M-28.65 25.6 L-35.75 25.65 -46.05 32.3 -46.4 32.55 -53.7 37.35 -55.15 34.6 -59.0 36.05 Q-66.4 47.5 -75.4 39.75 L-76.4 39.6 Q-85.25 37.95 -78.5 30.35 L-73.65 28.0 -72.2 25.45 -79.3 21.4 -82.75 29.6 -82.9 30.05 Q-92.35 61.7 -62.65 59.5 -38.25 57.3 -31.0 33.05 L-30.1 30.6 -28.65 25.6 M-19.5 32.95 L-15.3 25.6 -23.85 25.6 -26.45 32.85 Q-37.55 60.05 -63.05 68.2 L-44.1 70.75 Q-32.7 55.0 -19.5 32.95 M-8.7 35.25 Q-10.5 34.55 -9.7 35.05 -8.4 35.7 -8.7 35.25 M-9.95 33.05 L-5.5 25.6 -8.25 25.6 -12.75 33.0 -16.85 37.15 -17.8 37.1 Q-29.65 56.4 -43.6 74.95 L-97.1 66.9 -95.6 31.65 -96.4 29.1 -94.85 15.3 -97.1 16.9 -98.6 28.95 -98.55 32.8 -104.35 34.3 -104.45 36.35 Q-105.95 57.25 -125.75 56.6 -129.25 49.6 -127.05 41.9 L-134.1 62.9 -21.2 78.6 Q-25.3 56.95 -10.8 40.2 L-14.5 38.6 Q-14.1 34.65 -10.65 34.65 L-9.95 33.05 M-3.3 48.2 Q-7.6 45.9 -3.35 42.3 11.15 30.1 4.65 46.5 1.25 50.6 -3.3 48.2 M-64.65 31.3 L-63.8 31.05 -59.2 29.2 -59.35 25.6 -69.5 25.75 -72.7 30.75 -73.2 33.15 -64.65 31.3 M-10.65 25.75 L-9.7 25.6 Q-10.5 25.25 -10.65 25.75 M-61.1 31.55 Q-69.7 35.55 -78.95 34.45 L-78.95 36.2 -78.05 36.45 Q-67.0 37.1 -58.5 31.75 L-58.55 30.75 -61.1 31.55 M-73.65 30.75 L-78.45 33.65 -74.15 32.35 -73.65 30.75 M-72.85 37.5 Q-71.1 41.0 -66.55 39.45 -62.25 37.8 -61.4 34.9 -68.85 37.15 -72.85 37.5 M-50.4 32.3 L-40.2 25.75 -51.8 25.75 Q-51.8 26.85 -53.05 28.3 -54.4 29.6 -54.2 31.2 -53.45 31.2 -52.95 32.1 L-52.25 33.45 -50.4 32.3 M-54.55 29.6 L-55.65 29.75 -55.8 31.85 -54.85 31.7 Q-54.55 31.05 -54.55 29.6 M-56.4 31.85 L-56.45 29.95 -57.6 30.4 -57.8 31.75 -57.65 32.2 Q-56.9 32.9 -56.4 31.85 M-56.3 25.6 L-56.45 27.2 Q-54.05 26.9 -54.05 25.6 L-56.3 25.6 M-87.9 9.35 L-89.05 10.35 Q-90.65 20.0 -91.75 29.45 L-94.2 63.7 -78.6 65.6 Q-80.4 64.25 -81.65 62.5 -92.7 47.9 -86.25 29.8 L-81.2 18.2 -85.7 9.05 Q-86.65 8.6 -87.8 9.3 L-87.9 9.35 M-105.45 29.25 L-104.5 26.05 -119.5 25.6 -120.85 30.25 -125.75 47.95 -123.8 53.4 Q-117.85 56.05 -114.05 52.05 L-111.4 49.55 -105.45 29.25 M-117.9 30.15 Q-117.55 28.05 -116.75 27.55 L-108.55 28.15 -108.8 29.55 -109.65 31.7 -118.0 31.05 -117.9 30.15 M-117.2 37.8 Q-118.2 41.5 -120.75 40.85 -122.65 40.2 -121.55 37.5 -120.6 34.75 -119.0 34.45 -116.25 34.1 -117.2 37.8 M-113.5 45.05 Q-113.85 47.3 -114.65 48.6 L-122.65 47.6 -121.7 44.25 -113.5 45.05 M-112.7 41.5 Q-115.3 41.3 -114.0 37.65 -112.9 34.1 -110.15 35.25 -109.0 36.85 -110.0 39.25 -110.95 41.65 -112.7 41.5 M-76.45 101.2 L-74.45 97.15 -121.55 89.4 -123.35 92.65 Q-125.7 97.3 -126.7 102.6 L-127.0 104.45 Q-129.9 121.8 -117.85 134.6 -113.35 139.05 -111.75 139.75 L-77.0 146.6 -79.0 142.55 Q-83.4 132.15 -82.3 120.9 -81.8 115.85 -80.1 110.35 -78.7 105.9 -76.45 101.2 M-102.1 21.9 Q-102.15 22.9 -100.95 22.4 L-102.1 21.9 M-70.05 153.9 Q-79.3 145.5 -92.4 145.9 L-102.6 144.05 -77.85 257.2 -49.85 268.7 -35.85 274.45 -33.45 275.45 -33.2 273.65 -36.2 160.95 -50.3 158.0 -70.05 153.9 M-47.45 122.4 L-45.75 116.25 -39.1 102.9 -71.55 97.6 -78.1 110.9 Q-79.1 114.15 -79.65 117.55 L-80.1 121.65 -80.25 125.4 Q-80.25 135.35 -75.35 144.35 L-70.6 151.45 -38.6 158.05 -43.55 149.75 Q-48.25 140.2 -48.25 130.55 L-48.15 127.55 -47.45 122.4 M-66.1 264.7 L-78.3 259.8 -111.4 270.25 -108.6 272.15 -75.1 294.85 -34.1 277.45 -66.1 264.7 M-77.65 297.95 L-77.5 296.25 -113.35 272.35 -115.45 323.95 -112.35 326.05 Q-93.7 338.7 -81.55 346.1 L-77.65 297.95" fill="#000000" fill-rule="evenodd" stroke="none"/>
    <path d="M44.5 -248.8 Q4.1 -243.3 -27.4 -218.0 L-27.95 -217.6 -35.7 -219.2 Q5.5 -254.2 60.1 -255.3 102.6 -256.2 133.5 -227.2 L125.05 -226.8 Q92.4 -252.15 51.2 -249.3 L44.5 -248.8 M31.35 33.5 L32.45 25.1 Q58.7 24.95 75.9 6.45 105.8 -25.75 131.85 -60.95 135.45 -65.85 138.5 -70.75 L137.35 -56.95 Q111.85 -23.3 84.8 8.9 62.95 34.9 31.35 33.5 M124.85 87.45 Q124.05 88.25 119.05 87.95 L104.2 87.15 124.85 87.45 M-3.6 33.1 L-0.35 25.6 2.2 25.6 Q1.2 32.3 7.55 31.05 12.45 30.05 14.95 25.75 L19.25 25.6 19.8 26.4 23.6 26.6 25.05 25.6 27.45 25.45 23.7 33.4 21.15 33.35 21.85 30.9 Q18.3 29.15 16.35 32.35 L15.95 33.3 -3.6 33.1 M5.1 25.75 L11.85 25.75 Q11.05 27.65 8.2 28.15 5.1 28.8 5.1 25.75 M-126.9 74.4 L-127.2 66.35 17.35 86.35 16.35 98.0 -126.9 74.4 M15.45 108.5 L15.4 109.35 -27.25 102.45 15.45 108.5 M18.75 98.05 L19.85 86.9 120.2 90.2 119.45 99.75 Q65.85 86.0 18.75 98.05 M27.2 110.15 L17.65 109.65 17.75 108.8 27.2 110.15 M33.75 116.8 L14.95 117.85 -39.15 108.0 -36.2 103.4 35.35 112.7 33.75 116.8 M-31.4 254.1 L-32.45 214.05 Q-30.55 235.5 -31.4 254.1 M30.2 7.6 L33.25 -9.6 Q34.5 8.05 48.85 17.1 48.0 18.05 -78.0 15.5 28.1 15.75 30.2 7.6 M-170.35 -46.1 L-155.65 -28.35 Q-133.3 -4.0 -115.6 -2.55 -110.2 -0.85 -106.85 -2.1 L-100.65 7.0 Q-126.7 16.4 -143.75 -3.8 -161.5 -24.95 -170.35 -46.1 M-57.55 -68.95 Q-57.4 -65.45 -56.3 -62.2 L-68.15 -61.85 Q-69.3 -61.55 -73.0 -58.0 -80.05 -51.1 -84.1 -42.7 L-90.35 -41.95 -93.5 -52.8 -57.55 -68.95 M-134.25 -74.05 Q-120.95 -74.65 -112.1 -65.25 -114.9 -55.0 -127.3 -54.2 L-129.9 -53.8 -134.25 -74.05 M-88.35 -2.85 L-86.85 4.0 -99.75 3.75 -104.75 -2.85 -88.35 -2.85 M-86.5 5.4 L-86.2 6.65 -87.15 6.6 -86.5 5.4 M-45.8 -65.9 L-46.15 -62.65 -53.55 -62.35 Q-54.8 -65.7 -55.1 -69.15 L-45.8 -65.9 M-27.15 -65.95 L-26.9 -63.45 -43.75 -62.8 -43.55 -65.25 -27.15 -65.95 M-15.3 -65.85 Q-9.05 -73.1 -2.1 -73.9 7.0 -74.7 12.85 -66.85 L-16.25 -64.25 Q-16.45 -64.75 -15.3 -65.85 M-28.65 25.6 L-30.1 30.6 -31.2 32.05 -28.65 25.6 M-82.9 30.05 L-82.75 29.6 -78.5 30.35 -82.9 30.05 M-46.4 32.55 L-46.05 32.3 -36.9 32.75 -46.4 32.55 M-26.45 32.85 L-23.85 25.6 -15.3 25.6 -19.5 32.95 -26.45 32.85 M-12.75 33.0 L-8.25 25.6 -5.5 25.6 -9.95 33.05 -12.75 33.0 M-98.6 28.95 L-97.1 16.9 -94.85 15.3 -96.4 29.1 -98.6 28.95 M-10.65 25.75 Q-10.5 25.25 -9.7 25.6 L-10.65 25.75 M-63.8 31.05 L-64.65 31.3 -71.85 30.8 -63.8 31.05 M-61.1 31.55 L-58.55 30.75 -58.5 31.75 -61.1 31.55 M-54.55 29.6 Q-54.55 31.05 -54.85 31.7 L-55.8 31.85 -55.65 29.75 -54.55 29.6 M-52.95 32.1 Q-53.45 31.2 -54.2 31.2 -54.4 29.6 -53.05 28.3 -51.8 26.85 -51.8 25.75 L-40.2 25.75 -50.4 32.3 -52.95 32.1 M-57.8 31.75 L-57.6 30.4 -56.45 29.95 -56.4 31.85 -57.8 31.75 M-56.3 25.6 L-54.05 25.6 Q-54.05 26.9 -56.45 27.2 L-56.3 25.6 M-91.75 29.45 Q-90.65 20.0 -89.05 10.35 L-87.9 9.35 Q-87.5 9.95 -85.7 9.05 L-87.8 9.3 Q-86.65 8.6 -85.7 9.05 L-81.2 18.2 -86.25 29.8 -91.75 29.45 M-105.45 29.25 L-108.8 29.55 -108.55 28.15 -116.75 27.55 Q-117.55 28.05 -117.9 30.15 L-120.85 30.25 -119.5 25.6 -104.5 26.05 -105.45 29.25 M-102.1 21.9 L-100.95 22.4 Q-102.15 22.9 -102.1 21.9 M-123.35 92.65 L-121.55 89.4 -74.45 97.15 -76.45 101.2 -123.35 92.65 M-50.3 158.0 L-36.2 160.95 -33.2 273.65 -33.45 275.45 -35.85 274.45 -35.85 274.4 Q-35.9 195.45 -50.3 158.0 M-43.55 149.75 L-38.6 158.05 -70.6 151.45 -75.35 144.35 -43.55 149.75 M-78.1 110.9 L-71.55 97.6 -39.1 102.9 -45.75 116.25 -78.1 110.9" fill="#525759" fill-rule="evenodd" stroke="none"/>
    <path d="M37.2 -310.2 L56.8 -312.3 Q64.75 -275.6 68.05 -269.2 L51.1 -268.7 39.3 -267.45 Q36.8 -302.9 37.2 -310.2 M134.9 -216.2 L134.85 -215.2 146.4 -203.05 138.45 -147.7 88.35 -158.95 8.65 -138.05 Q-16.4 -132.3 -41.35 -125.2 L-56.25 -172.2 Q-52.5 -176.8 -35.9 -201.0 L-25.75 -158.6 Q18.25 -172.4 64.3 -168.65 96.15 -165.75 125.05 -152.2 L126.5 -156.35 134.9 -216.2 M-4.9 -318.05 Q34.75 -337.15 77.15 -325.3 101.1 -318.6 118.05 -300.0 93.05 -314.3 64.0 -314.7 25.9 -315.2 -8.15 -297.65 -16.7 -305.8 -6.65 -316.45 L-4.9 -318.05 M132.35 -140.8 Q158.6 -124.25 147.2 -96.1 133.65 -62.65 111.0 -34.3 85.6 -2.65 52.8 18.75 32.3 3.25 33.15 -22.65 L33.3 -26.2 31.5 -26.6 29.05 -4.55 -85.75 -2.75 -86.95 -8.5 Q-90.25 -38.65 -68.05 -59.25 -26.6 -59.95 14.45 -64.8 51.7 -39.7 91.15 -63.55 96.95 -67.05 98.75 -72.95 105.85 -96.45 80.1 -111.45 101.15 -129.3 132.35 -140.8 M142.55 -137.9 Q140.2 -139.25 137.75 -140.25 111.25 -151.95 85.15 -136.45 L89.5 -156.05 142.85 -143.65 142.55 -137.9 M82.1 -135.15 L67.15 -125.35 71.8 -133.2 Q76.95 -141.9 72.45 -142.7 L80.0 -154.45 86.45 -155.85 82.1 -135.15 M2.7 -116.65 Q9.95 -123.9 10.75 -136.25 L57.05 -148.35 54.8 -144.65 Q51.7 -144.65 49.15 -142.05 46.75 -139.65 43.85 -133.85 L39.2 -125.35 Q27.45 -124.4 23.9 -122.75 22.8 -122.3 18.3 -118.6 L2.4 -105.75 2.7 -116.65 M61.35 -144.45 Q62.1 -143.35 61.2 -144.4 L61.35 -144.45 M84.5 -104.2 Q93.2 -97.9 97.0 -87.8 102.25 -73.95 89.9 -68.35 44.65 -47.7 11.75 -85.35 52.1 -72.05 81.85 -96.35 85.35 -99.2 84.5 -104.2 M137.35 -56.95 L125.5 83.15 124.85 87.45 104.2 87.15 24.55 84.75 31.35 33.5 Q62.95 34.9 84.8 8.9 111.85 -23.3 137.35 -56.95 M25.4 56.55 L22.3 84.6 -1.9 81.25 Q-0.75 80.9 0.25 80.3 15.05 71.85 18.45 53.4 L25.4 56.55 M-43.25 116.45 L30.55 128.75 Q27.35 147.45 38.0 162.9 L38.8 164.05 -40.85 150.2 Q-46.0 140.75 -45.85 129.9 -45.85 123.35 -43.25 116.45 M49.3 172.2 Q29.7 155.05 32.65 129.1 46.2 85.25 88.9 103.7 96.65 107.0 101.4 113.75 L84.85 328.4 11.7 379.85 15.7 322.9 47.8 298.5 46.25 296.75 48.2 204.05 49.3 172.2 M-75.45 298.6 L13.15 322.3 9.15 381.8 6.75 380.95 10.6 324.4 -75.45 298.6 M35.65 296.85 L43.7 299.0 14.75 320.25 -46.25 303.3 Q-23.95 287.95 35.65 296.85 M46.75 173.0 L43.85 296.25 Q16.75 289.85 -12.85 282.25 L46.75 173.0 M-173.65 -50.0 L-174.7 -52.4 Q-151.25 -43.55 -129.55 -46.55 -120.2 -47.85 -111.2 -51.35 -106.9 -53.05 -102.65 -55.2 -99.2 -56.9 -98.7 -60.85 L-92.45 -41.45 Q-105.3 -40.2 -108.85 -26.25 -111.25 -16.9 -108.9 -7.55 -132.6 -4.85 -155.65 -28.35 L-170.35 -46.1 -174.6 -52.25 -173.65 -50.0 M-38.6 -123.45 L-10.5 -130.8 -18.55 -102.0 Q-29.0 -106.65 -37.65 -103.7 L-38.6 -123.45 M-97.6 -65.9 L-102.1 -71.15 Q-88.45 -93.65 -66.6 -106.35 L-65.45 -106.7 -76.4 -82.45 -90.7 -75.85 -50.85 -88.85 Q-55.1 -83.7 -56.75 -77.1 L-97.6 -65.9 M-15.25 -102.25 L-14.5 -104.45 -14.7 -103.15 -15.25 -102.25 M-107.55 -16.15 Q-107.0 -28.95 -98.5 -38.2 L-98.25 -38.4 -85.7 -40.15 Q-89.45 -28.8 -89.75 -15.75 L-107.55 -16.15 M-54.75 -76.15 Q-42.2 -103.05 -16.5 -89.55 L-20.45 -85.5 -23.95 -85.35 Q-37.0 -83.95 -43.8 -72.75 L-54.75 -76.15 M-41.9 -71.4 Q-37.45 -81.7 -22.7 -82.9 L-22.35 -82.9 Q-25.5 -78.05 -26.6 -73.0 L-41.9 -71.4 M-8.7 35.25 Q-8.4 35.7 -9.7 35.05 -10.5 34.55 -8.7 35.25 M-9.95 33.05 L-10.65 34.65 Q-14.1 34.65 -14.5 38.6 L-10.8 40.2 Q-25.3 56.95 -21.2 78.6 L-134.1 62.9 -127.05 41.9 Q-129.25 49.6 -125.75 56.6 -105.95 57.25 -104.45 36.35 L-104.35 34.3 -98.55 32.8 -98.6 28.95 -96.4 29.1 -95.6 31.65 -97.1 66.9 -43.6 74.95 Q-29.65 56.4 -17.8 37.1 L-16.85 37.15 -12.75 33.0 -9.95 33.05 M-58.5 31.75 Q-67.0 37.1 -78.05 36.45 L-78.95 36.2 -78.95 34.45 Q-69.7 35.55 -61.1 31.55 L-58.5 31.75 M-73.65 30.75 L-74.15 32.35 -78.45 33.65 -73.65 30.75 M-56.4 31.85 Q-56.9 32.9 -57.65 32.2 L-57.8 31.75 -56.4 31.85 M-80.1 110.35 Q-81.8 115.85 -82.3 120.9 -83.4 132.15 -79.0 142.55 L-117.85 134.6 Q-129.9 121.8 -127.0 104.45 L-126.7 102.6 -80.1 110.35 M-49.85 268.7 L-77.85 257.2 -102.6 144.05 -92.4 145.9 Q-79.3 145.5 -70.05 153.9 -46.7 192.1 -49.85 268.7 M-47.45 122.4 L-48.15 127.55 -80.1 121.65 -79.65 117.55 -47.45 122.4 M-66.1 264.7 L-73.95 261.75 -108.6 272.15 -111.4 270.25 -78.3 259.8 -66.1 264.7 M-112.35 326.05 L-115.45 323.95 -113.35 272.35 -77.5 296.25 -77.65 297.95 -79.95 297.25 -110.45 276.65 -112.35 326.05" fill="#ffffff" fill-rule="evenodd" stroke="none"/>
    <path d="M105.8 -162.4 Q117.15 -194.55 110.9 -225.05 110.6 -226.65 108.4 -227.2 65.45 -236.45 22.3 -229.1 12.5 -227.4 3.4 -222.75 L13.4 -169.55 Q0.45 -167.6 -14.8 -163.95 L-26.25 -215.5 Q-26.25 -216.15 -23.2 -218.4 -12.4 -226.95 2.55 -234.0 L2.4 -233.05 Q7.85 -237.25 20.4 -237.9 31.95 -239.0 40.8 -235.8 42.7 -236.1 43.7 -242.35 37.2 -246.0 28.75 -243.65 48.95 -250.25 77.8 -245.75 64.25 -246.8 55.1 -244.0 55.1 -237.4 56.2 -237.25 L67.35 -237.25 78.35 -238.05 Q89.95 -238.0 95.95 -233.7 L94.95 -241.05 Q100.4 -239.65 109.95 -234.0 119.55 -228.4 123.1 -224.85 121.15 -196.55 113.95 -159.4 L105.8 -162.4 M50.9 -138.55 L69.1 -136.25 60.9 -122.45 Q51.55 -125.35 43.2 -125.35 L50.9 -138.55 M-7.2 -208.75 L-9.15 -206.95 Q-4.5 -188.85 -3.7 -170.0 L-2.15 -170.05 -5.65 -208.95 -7.2 -208.75 M-47.3 -102.5 L-63.05 -94.5 -61.1 -108.15 -45.35 -116.8 -47.3 -102.5 M-31.0 33.05 Q-38.25 57.3 -62.65 59.5 -92.35 61.7 -82.9 30.05 L-78.5 30.35 Q-85.25 37.95 -76.4 39.6 L-75.4 39.75 Q-66.4 47.5 -59.0 36.05 L-55.15 34.6 -53.7 37.35 -46.4 32.55 -36.9 32.75 -31.0 33.05" fill="#ff8510" fill-rule="evenodd" stroke="none"/>
    <path d="M125.5 -224.5 L133.55 -224.5 123.9 -155.25 115.85 -158.45 Q121.95 -184.55 125.35 -224.05 L125.5 -224.5 M146.4 -203.05 L134.85 -215.2 134.9 -216.2 136.15 -224.65 147.7 -212.3 146.4 -203.05 M-35.9 -201.0 Q-52.5 -176.8 -56.25 -172.2 L-60.95 -186.9 Q-55.5 -198.05 -47.35 -207.65 -43.6 -212.15 -39.4 -215.8 L-35.9 -201.0 M-8.15 -297.65 Q-33.45 -285.9 -52.2 -265.45 L-52.45 -265.05 Q-38.55 -299.45 -4.9 -318.05 L-6.65 -316.45 Q-16.7 -305.8 -8.15 -297.65 M80.1 -111.45 L65.25 -120.65 Q89.95 -142.75 122.3 -142.7 127.4 -142.7 132.35 -140.8 101.15 -129.3 80.1 -111.45 M52.8 18.75 Q45.1 21.4 36.75 22.3 L34.05 22.55 Q21.1 23.4 8.0 23.2 L-71.25 23.0 Q-72.2 22.75 -72.85 22.2 -86.5 10.55 -86.95 -8.5 L-85.75 -2.75 29.05 -4.55 31.5 -26.6 33.3 -26.2 33.15 -22.65 Q32.3 3.25 52.8 18.75 M2.7 -130.15 L6.1 -130.8 Q3.65 -121.0 0.3 -119.4 -0.05 -122.15 0.95 -125.05 L2.7 -130.15 M11.75 -85.35 Q8.55 -88.05 4.3 -89.5 -3.75 -92.35 -11.95 -89.8 -2.25 -101.2 10.2 -109.75 49.7 -136.9 84.5 -104.2 85.35 -99.2 81.85 -96.35 52.1 -72.05 11.75 -85.35 M12.6 -80.8 Q30.2 -58.1 58.3 -57.65 34.3 -49.75 16.35 -66.85 -1.45 -85.4 -18.7 -65.55 L-20.15 -63.95 -24.8 -63.8 Q-23.35 -95.05 6.2 -85.25 10.1 -84.05 12.6 -80.8 M23.7 33.4 Q15.65 56.25 2.55 76.75 L2.4 76.9 -20.6 73.5 -3.6 33.1 15.95 33.3 Q15.35 34.65 14.1 37.95 L18.15 38.45 Q20.05 36.25 21.15 33.35 L23.7 33.4 M11.05 43.75 Q10.55 44.55 8.8 49.4 11.4 50.35 12.65 49.85 13.6 49.55 16.35 42.65 13.0 40.85 11.05 43.75 M5.6 60.65 L-1.0 59.5 -7.4 58.85 Q-10.8 58.85 -10.35 61.9 L2.85 63.7 Q5.9 63.5 5.6 60.65 M1.85 70.9 L1.75 69.5 Q-5.7 66.85 -13.35 67.95 L-13.8 70.2 0.1 72.05 1.85 70.9 M-126.9 74.4 L16.35 98.0 15.45 108.5 -27.25 102.45 -126.55 86.35 -126.9 74.4 M119.45 99.75 L118.3 110.65 101.75 110.75 Q72.2 78.75 40.5 106.85 L36.6 110.65 27.2 110.15 17.75 108.8 18.75 98.05 Q65.85 86.0 119.45 99.75 M-39.15 108.0 L14.95 117.85 33.75 116.8 Q31.5 122.95 30.55 128.75 L-43.25 116.45 Q-41.7 112.25 -39.15 108.0 M38.8 164.05 L43.85 170.25 -29.95 157.05 -36.85 156.45 Q-39.15 153.4 -40.85 150.2 L38.8 164.05 M6.75 380.95 Q-52.2 360.5 -79.45 349.8 L-75.45 298.6 10.6 324.4 6.75 380.95 M-46.25 303.3 L-72.05 296.15 -33.05 279.75 35.65 296.85 Q-23.95 287.95 -46.25 303.3 M-12.85 282.25 L-30.75 277.65 -31.4 254.1 Q-30.55 235.5 -32.45 214.05 L-33.9 159.0 46.75 173.0 -12.85 282.25 M30.2 7.6 Q28.1 15.75 -78.0 15.5 48.0 18.05 48.85 17.1 34.5 8.05 33.25 -9.6 L30.2 7.6 M-28.65 -215.2 L-17.2 -163.25 -24.15 -161.0 -37.15 -217.1 -28.65 -215.2 M-173.65 -50.0 L-174.6 -52.25 -170.35 -46.1 Q-161.5 -24.95 -143.75 -3.8 -126.7 16.4 -100.65 7.0 L-99.3 8.1 -92.9 8.85 Q-131.45 25.1 -153.45 -11.0 -164.95 -29.85 -173.65 -50.0 M-155.65 -28.35 Q-132.6 -4.85 -108.9 -7.55 -108.15 -4.8 -106.85 -2.1 -110.2 -0.85 -115.6 -2.55 -133.3 -4.0 -155.65 -28.35 M-111.2 -51.35 Q-120.2 -47.85 -129.55 -46.55 -135.25 -46.75 -141.95 -48.3 L-154.6 -50.75 Q-131.7 -47.8 -112.55 -58.3 -105.85 -67.95 -117.5 -72.35 L-127.8 -75.7 Q-111.85 -78.4 -100.6 -66.7 -104.0 -56.4 -111.2 -51.35 M-18.55 -102.0 L-20.75 -95.75 Q-35.05 -100.55 -48.75 -92.4 L-48.25 -97.7 Q-39.95 -106.75 -41.85 -120.6 L-42.1 -121.5 -45.5 -121.15 -38.6 -123.45 -37.65 -103.7 Q-29.0 -106.65 -18.55 -102.0 M-56.75 -77.1 L-57.55 -68.95 -93.5 -52.8 -97.6 -65.9 -56.75 -77.1 M-5.0 -128.4 Q-5.25 -122.8 -9.05 -118.9 L-10.65 -116.95 Q-11.75 -122.7 -8.4 -127.6 L-5.0 -128.4 M-1.3 -119.05 L-2.1 -102.05 -14.65 -91.1 Q-13.75 -101.65 -10.8 -111.7 L-10.95 -110.4 Q-2.0 -109.85 -1.3 -119.05 M-15.25 -102.25 L-14.7 -103.15 -15.3 -98.8 -16.45 -98.65 -15.25 -102.25 M-8.85 -112.95 L-2.6 -130.65 1.25 -131.6 -4.85 -113.6 -8.85 -112.95 M-89.75 -15.75 Q-89.7 -10.05 -88.35 -2.85 L-104.75 -2.85 Q-107.9 -9.25 -107.55 -16.15 L-89.75 -15.75 M-86.85 4.0 L-86.5 5.4 -87.15 6.6 -98.1 6.0 -99.75 3.75 -86.85 4.0 M-18.05 -94.0 L-17.4 -96.25 -15.75 -96.55 -16.6 -93.2 -18.05 -94.0 M-43.8 -72.75 Q-45.2 -69.7 -45.8 -65.9 L-55.1 -69.15 -54.75 -76.15 -43.8 -72.75 M-26.6 -73.0 Q-27.4 -69.55 -27.15 -65.95 L-43.55 -65.25 Q-43.1 -68.65 -41.9 -71.4 L-26.6 -73.0 M-62.9 -87.25 L-73.0 -83.7 -65.45 -100.4 -66.25 -93.0 Q-66.4 -88.2 -62.55 -90.45 L-62.9 -87.25 M-19.5 32.95 Q-32.7 55.0 -44.1 70.75 L-63.05 68.2 Q-37.55 60.05 -26.45 32.85 L-19.5 32.95 M-3.3 48.2 Q1.25 50.6 4.65 46.5 11.15 30.1 -3.35 42.3 -7.6 45.9 -3.3 48.2 M-87.9 9.35 L-87.8 9.3 -85.7 9.05 Q-87.5 9.95 -87.9 9.35 M-86.25 29.8 Q-92.7 47.9 -81.65 62.5 -80.4 64.25 -78.6 65.6 L-94.2 63.7 -91.75 29.45 -86.25 29.8 M-108.8 29.55 L-105.45 29.25 -111.4 49.55 -114.05 52.05 Q-117.85 56.05 -123.8 53.4 L-125.75 47.95 -120.85 30.25 -117.9 30.15 -118.0 31.05 -109.65 31.7 -108.8 29.55 M-112.7 41.5 Q-110.95 41.65 -110.0 39.25 -109.0 36.85 -110.15 35.25 -112.9 34.1 -114.0 37.65 -115.3 41.3 -112.7 41.5 M-113.5 45.05 L-121.7 44.25 -122.65 47.6 -114.65 48.6 Q-113.85 47.3 -113.5 45.05 M-117.2 37.8 Q-116.25 34.1 -119.0 34.45 -120.6 34.75 -121.55 37.5 -122.65 40.2 -120.75 40.85 -118.2 41.5 -117.2 37.8 M-76.45 101.2 Q-78.7 105.9 -80.1 110.35 L-126.7 102.6 Q-125.7 97.3 -123.35 92.65 L-76.45 101.2 M-79.0 142.55 L-77.0 146.6 -111.75 139.75 Q-113.35 139.05 -117.85 134.6 L-79.0 142.55 M-70.05 153.9 L-50.3 158.0 Q-35.9 195.45 -35.85 274.4 L-35.85 274.45 -49.85 268.7 Q-46.7 192.1 -70.05 153.9 M-45.75 116.25 L-47.45 122.4 -79.65 117.55 Q-79.1 114.15 -78.1 110.9 L-45.75 116.25 M-48.15 127.55 L-48.25 130.55 Q-48.25 140.2 -43.55 149.75 L-75.35 144.35 Q-80.25 135.35 -80.25 125.4 L-80.1 121.65 -48.15 127.55 M-108.6 272.15 L-73.95 261.75 -66.1 264.7 -34.1 277.45 -75.1 294.85 -108.6 272.15 M-77.65 297.95 L-81.55 346.1 Q-93.7 338.7 -112.35 326.05 L-110.45 276.65 -79.95 297.25 -77.65 297.95" fill="#a7abac" fill-rule="evenodd" stroke="none"/>
    <path d="M-5.3 -296.3 Q1.75 -299.9 4.15 -300.85 10.45 -303.4 16.95 -305.4 L16.55 -262.95 -5.3 -254.75 -5.3 -296.3 M78.9 -310.95 Q125.5 -304.7 146.95 -262.35 156.95 -242.55 158.4 -220.35 132.65 -253.5 92.4 -265.35 89.65 -271.5 78.9 -310.95" fill="#d19700" fill-rule="evenodd" stroke="none"/>
    <path d="M-5.3 -254.75 Q-49.65 -233.7 -72.7 -190.45 -74.6 -214.4 -65.15 -236.55 -47.2 -278.4 -5.3 -296.3 L-5.3 -254.75 M147.85 -216.15 Q121.1 -247.15 80.65 -254.1 37.5 -261.65 -2.65 -243.55 -42.05 -225.9 -63.05 -188.2 L-71.25 -187.05 Q-49.2 -231.75 -3.55 -252.5 41.1 -272.7 88.85 -262.35 129.95 -253.5 155.1 -219.9 L157.0 -217.3 147.85 -216.15 M-72.7 30.75 L-69.5 25.75 -59.35 25.6 -59.2 29.2 -63.8 31.05 -71.85 30.8 -72.7 30.75" fill="#a85b00" fill-rule="evenodd" stroke="none"/>
    <path d="M16.95 -305.4 Q26.8 -308.45 37.2 -310.2 36.8 -302.9 39.3 -267.45 L16.55 -262.95 16.95 -305.4 M56.8 -312.3 Q67.9 -312.6 78.9 -310.95 89.65 -271.5 92.4 -265.35 80.35 -268.65 68.05 -269.2 64.75 -275.6 56.8 -312.3 M18.75 -212.7 Q26.6 -233.95 36.05 -214.65 38.3 -217.6 36.3 -219.2 18.15 -233.8 17.1 -212.65 L18.75 -212.7 M13.4 -169.55 L3.4 -222.75 Q12.5 -227.4 22.3 -229.1 65.45 -236.45 108.4 -227.2 110.6 -226.65 110.9 -225.05 117.15 -194.55 105.8 -162.4 80.25 -171.15 50.75 -171.95 60.85 -173.55 68.1 -171.8 69.7 -173.1 68.95 -174.4 68.6 -174.7 60.9 -174.2 L43.55 -172.9 34.55 -172.75 32.75 -171.65 29.05 -171.4 14.45 -169.7 13.4 -169.55 M61.9 -215.65 L64.05 -215.55 69.4 -223.45 Q79.25 -225.9 80.95 -214.85 L81.15 -212.55 83.35 -212.85 Q80.25 -236.3 62.95 -218.9 61.75 -217.65 61.9 -215.65 M101.9 -210.2 Q102.6 -191.3 99.5 -171.7 L100.1 -170.85 Q103.9 -189.25 105.25 -207.95 L101.9 -210.2 M76.3 -191.25 L77.55 -188.35 Q48.55 -179.6 18.9 -183.15 41.9 -175.45 67.75 -182.5 77.5 -167.95 87.05 -181.05 86.8 -190.65 77.6 -191.3 L76.3 -191.25 M-64.65 31.3 L-73.2 33.15 -72.7 30.75 -71.85 30.8 -64.65 31.3 M-72.85 37.5 Q-68.85 37.15 -61.4 34.9 -62.25 37.8 -66.55 39.45 -71.1 41.0 -72.85 37.5 M-50.4 32.3 L-52.25 33.45 -52.95 32.1 -50.4 32.3" fill="#ffe600" fill-rule="evenodd" stroke="none"/>
    <path d="M-46.05 32.3 L-35.75 25.65 -28.65 25.6 -31.2 32.05 -30.1 30.6 -31.0 33.05 -36.9 32.75 -46.05 32.3 M-82.75 29.6 L-79.3 21.4 -72.2 25.45 -73.65 28.0 -78.5 30.35 -82.75 29.6" fill="#af3c02" fill-rule="evenodd" stroke="none"/>
    <path d="M84.1 -181.05 Q77.55 -173.75 71.35 -181.4 L70.35 -183.1 75.0 -184.2 78.05 -180.3 Q79.1 -181.35 77.8 -183.15 L76.8 -184.65 81.8 -186.3 84.1 -181.05" fill="#ff3300" fill-rule="evenodd" stroke="none"/>
  </g>
</svg>
