<?xml version="1.0" encoding="UTF-8" standalone="no"?>
<svg xmlns:xlink="http://www.w3.org/1999/xlink" height="79.15px" width="131.4px" xmlns="http://www.w3.org/2000/svg">
  <g transform="matrix(1.0, 0.0, 0.0, 1.0, 260.05, -56.2)">
    <path d="M-214.7 122.55 Q-214.7 135.35 -237.65 135.35 -260.05 135.35 -260.05 122.55 -260.05 110.15 -237.65 110.15 -214.7 110.15 -214.7 122.55" fill="#000000" fill-rule="evenodd" stroke="none"/>
    <path d="M-221.6 123.5 Q-221.6 132.6 -238.0 132.6 -254.55 132.6 -254.55 123.5 -254.55 114.35 -238.0 114.35 -221.6 114.35 -221.6 123.5" fill="#ffffff" fill-rule="evenodd" stroke="none"/>
    <path d="M-140.6 63.0 Q-128.65 69.45 -128.65 79.05 -128.65 88.2 -140.6 95.1 -152.9 101.95 -169.9 101.95 -186.8 101.95 -199.1 95.1 -211.05 88.2 -211.05 79.05 -211.05 69.45 -199.1 63.0 -187.25 56.2 -169.9 56.2 -152.45 56.2 -140.6 63.0" fill="#000000" fill-rule="evenodd" stroke="none"/>
    <path d="M-137.8 79.05 Q-137.8 86.35 -146.95 91.4 -156.55 96.4 -169.9 96.4 -182.7 96.4 -192.3 91.4 -201.45 86.35 -201.45 79.05 -201.45 71.7 -192.3 66.65 -182.7 61.25 -169.9 61.25 -156.55 61.25 -146.95 66.65 -137.8 71.7 -137.8 79.05" fill="#ffffff" fill-rule="evenodd" stroke="none"/>
  </g>
</svg>
