<?xml version="1.0" encoding="UTF-8" standalone="no"?>
<svg xmlns:xlink="http://www.w3.org/1999/xlink" height="196.95px" width="204.95px" xmlns="http://www.w3.org/2000/svg">
  <g transform="matrix(1.0, 0.0, 0.0, 1.0, -253.85, -104.05)">
    <path d="M438.45 164.1 L405.6 179.05 405.55 179.05 401.55 181.7 Q399.95 183.65 398.5 185.75 L398.1 186.35 396.9 188.1 396.1 189.4 395.75 190.0 395.45 190.5 393.8 193.5 393.25 194.6 392.65 195.8 391.55 198.2 391.05 199.35 390.85 199.8 390.65 200.25 390.25 201.2 Q386.85 209.6 382.85 239.0 L382.65 240.75 380.65 269.8 379.7 272.35 261.55 230.35 258.1 230.35 275.15 184.35 308.8 192.35 313.2 195.0 Q316.45 196.5 318.25 195.9 320.3 195.3 320.0 190.6 L319.1 183.8 Q318.5 174.65 320.9 157.5 326.8 112.95 359.25 111.15 362.15 110.95 365.2 111.25 L367.5 111.5 408.15 111.5 411.9 111.55 426.1 111.5 Q469.6 134.5 455.25 156.4 444.05 160.9 438.45 164.1 M385.55 256.0 L385.4 255.15 386.45 253.45 385.55 256.0" fill="#ffffff" fill-rule="evenodd" stroke="none"/>
    <path d="M411.9 111.55 L408.15 111.5 367.5 111.5 365.2 111.25 Q362.15 110.95 359.25 111.15 326.8 112.95 320.9 157.5 318.5 174.65 319.1 183.8 L320.0 190.6 Q320.3 195.3 318.25 195.9 316.45 196.5 313.2 195.0 L308.8 192.35 275.15 184.35 258.1 230.35 261.55 230.35 379.7 272.35 380.65 269.8 382.65 240.75 382.85 239.0 Q386.85 209.6 390.25 201.2 L390.65 200.25 390.85 199.8 391.05 199.35 391.55 198.2 392.65 195.8 393.25 194.6 393.8 193.5 395.45 190.5 395.75 190.0 396.1 189.4 396.9 188.1 398.1 186.35 398.5 185.75 Q399.95 183.65 401.55 181.7 L405.55 179.05 405.6 179.05 438.45 164.1 Q432.15 167.55 455.25 156.4 425.95 172.2 419.2 178.2 L413.3 182.6 Q395.9 200.05 387.6 241.05 386.0 249.3 385.4 255.15 L385.55 256.0 Q384.95 262.85 384.95 270.0 L384.65 279.75 382.9 282.4 380.8 284.75 370.5 301.0 327.1 288.0 283.7 274.45 261.55 267.95 Q256.5 266.45 255.95 264.7 L255.05 256.7 253.85 232.8 254.65 230.35 273.25 181.65 301.7 186.7 315.3 191.45 315.1 186.6 315.05 186.1 Q315.9 154.4 319.75 138.8 324.35 119.8 335.65 112.05 342.75 107.3 354.55 105.55 366.55 103.85 433.05 104.1 433.3 111.3 411.9 111.55 M379.65 276.5 L260.95 234.0 Q260.65 234.25 260.65 234.55 L262.15 261.45 366.35 294.2 Q374.6 284.45 379.65 276.5 M364.25 290.55 L264.75 259.1 264.6 241.85 315.65 258.95 371.05 278.15 364.25 290.55" fill="#000000" fill-rule="evenodd" stroke="none"/>
    <path d="M364.25 290.55 L371.05 278.15 315.65 258.95 264.6 241.85 264.75 259.1 364.25 290.55 M379.65 276.5 Q374.6 284.45 366.35 294.2 L262.15 261.45 260.65 234.55 Q260.65 234.25 260.95 234.0 L379.65 276.5" fill="#525759" fill-rule="evenodd" stroke="none"/>
    <path d="M273.25 181.65 L254.65 230.35" fill="none" stroke="#ffffff" stroke-linecap="round" stroke-linejoin="round" stroke-opacity="0.2" stroke-width="1.0"/>
    <path d="M301.7 186.7 L273.25 181.65 Z" fill="none" stroke="#ffffff" stroke-linecap="round" stroke-linejoin="round" stroke-opacity="0.2" stroke-width="1.0"/>
  </g>
</svg>
