<?xml version="1.0" encoding="UTF-8" standalone="no"?>
<svg xmlns:xlink="http://www.w3.org/1999/xlink" height="459.6px" width="441.95px" xmlns="http://www.w3.org/2000/svg">
  <g transform="matrix(1.0, 0.0, 0.0, 1.0, -3.55, 67.5)">
    <path d="M334.95 -44.2 L311.05 -26.95 306.55 -21.55 288.4 7.35 Q282.55 19.8 285.7 32.6 284.25 28.85 283.1 24.95 L282.2 21.7 287.6 3.25 Q296.05 -16.55 312.65 -32.45 321.8 -41.2 332.95 -47.25 L358.0 -56.65 Q339.95 -61.85 321.6 -57.45 310.35 -54.65 299.9 -49.1 284.45 -42.05 274.1 -28.05 261.45 -10.85 255.7 9.7 249.85 30.65 249.0 52.3 248.0 77.4 260.35 89.8 L271.85 106.9 Q283.0 122.1 296.7 134.4 310.75 147.95 328.95 158.5 332.6 160.7 336.65 161.45 348.4 166.9 357.9 157.55 L359.35 156.1 Q325.8 143.35 308.15 108.05 307.2 106.2 307.5 104.3 310.65 85.2 319.75 67.9 L326.5 55.25 314.3 62.45 304.8 61.9 Q301.4 58.55 298.45 54.85 303.2 58.7 308.4 57.6 323.3 46.45 340.5 39.0 351.85 34.15 363.5 30.3 377.85 25.85 389.8 23.65 L397.0 22.55 418.9 21.5 421.2 21.75 424.35 22.2 429.1 23.35 435.25 26.1 Q438.25 6.35 425.7 -18.3 419.3 -30.85 408.9 -40.5 L400.05 -47.2 Q396.45 -48.9 392.55 -50.1 L383.4 -52.25 370.75 -53.2 362.35 -52.75 Q348.2 -52.25 334.95 -44.7 334.8 -44.7 334.95 -44.2 M297.3 -58.55 Q321.5 -70.75 348.7 -66.35 358.6 -64.95 368.45 -62.5 373.05 -61.35 377.65 -60.75 386.7 -59.35 395.65 -57.15 404.75 -55.1 411.6 -48.85 427.0 -34.85 435.0 -15.5 440.85 -1.4 443.85 13.35 446.25 25.25 445.2 37.25 L427.8 45.2 Q424.05 67.45 411.65 89.8 L398.85 85.65 Q390.95 108.0 375.6 126.05 L373.15 129.05 Q376.55 141.25 370.65 152.3 L368.85 155.35 Q382.45 174.05 388.0 196.4 400.5 198.3 402.8 211.45 406.65 233.85 406.25 256.65 406.05 268.5 398.95 276.65 390.85 286.0 377.95 286.35 L376.2 286.15 371.15 279.35 358.75 282.6 357.55 291.85 Q348.55 295.35 342.95 287.1 318.45 251.1 324.4 211.5 325.1 206.8 329.55 204.05 320.15 189.5 304.85 181.35 278.85 214.45 262.8 253.4 265.1 252.6 261.3 261.15 255.85 273.55 254.25 278.45 L254.05 279.1 Q253.55 280.9 255.55 281.35 L256.55 282.9 Q241.6 298.55 235.0 303.85 218.45 317.15 208.85 313.3 196.95 322.4 184.4 330.35 173.3 337.35 160.25 337.55 153.55 337.65 147.4 334.9 128.75 353.45 103.95 361.1 L97.25 362.65 93.1 374.45 47.75 392.1 3.55 352.9 38.95 247.75 98.3 251.0 106.25 260.55 Q113.1 258.65 119.15 252.95 124.8 247.6 129.25 241.25 L125.2 235.35 132.7 211.8 130.05 206.75 Q140.5 180.55 156.45 157.45 172.1 134.7 189.95 116.9 182.65 109.25 173.5 104.15 166.6 100.35 158.85 99.15 L139.6 95.4 Q135.3 101.8 127.85 104.1 121.95 106.05 115.75 106.9 101.45 106.95 88.0 102.4 79.0 99.4 75.85 90.95 L79.6 35.65 79.2 34.4 81.15 29.55 Q102.85 19.85 126.95 27.65 132.35 29.4 136.3 33.4 161.35 24.55 188.0 23.75 205.55 22.35 217.8 34.55 233.9 50.55 244.65 70.6 242.25 42.55 246.7 14.9 250.5 -9.0 264.05 -29.2 276.85 -48.2 297.3 -58.55 M419.0 46.8 L420.25 38.4 Q386.0 31.9 337.1 49.35 L338.65 50.5 339.4 51.05 341.7 51.9 Q374.9 75.8 407.1 85.25 413.5 72.55 417.2 56.05 L419.0 46.8 M436.05 34.5 Q406.7 13.85 363.8 31.0 335.85 42.05 311.15 59.4 350.35 37.15 395.8 33.5 L406.9 33.1 Q418.2 31.2 425.95 38.2 L426.4 38.3 436.05 34.5 M332.65 59.05 Q329.05 64.5 325.55 71.55 L314.05 102.9 344.35 135.15 345.8 136.0 Q354.3 140.9 360.35 132.95 L362.8 129.7 381.35 105.15 381.75 104.55 379.8 104.4 378.7 96.9 375.8 93.0 388.2 82.95 361.05 68.55 367.5 88.95 369.65 90.6 366.35 92.65 358.75 87.75 357.3 91.9 Q342.2 94.75 348.6 79.55 L348.7 79.45 Q351.45 77.1 355.0 78.55 354.0 72.65 342.15 70.0 344.65 66.45 351.5 62.9 L337.1 52.9 Q334.85 55.65 332.65 59.05 M323.45 106.9 Q328.35 97.7 332.6 88.6 333.6 86.45 334.85 88.9 L323.45 106.95 323.3 107.15 323.45 106.9 M339.9 127.25 L340.4 127.35 339.95 127.3 339.9 127.3 339.9 127.25 M346.3 128.35 L357.7 130.3 350.6 129.65 346.3 128.35 M356.5 85.65 Q356.5 87.5 357.45 87.9 358.1 87.55 358.25 86.25 L358.35 85.95 356.6 84.95 356.5 85.65 M389.0 90.95 Q385.75 91.65 386.3 93.65 L386.35 93.75 389.0 90.95 M370.9 70.9 L351.1 59.2 Q360.9 65.7 370.9 70.9 M366.2 130.8 L366.2 129.5 359.7 136.25 Q346.8 145.0 334.6 130.45 L312.9 105.15 311.6 105.35 311.35 105.1 311.55 105.4 Q307.5 107.15 320.1 121.2 L320.8 122.15 339.95 142.95 Q363.05 166.0 367.05 136.0 367.55 132.15 366.2 130.8 M338.65 116.05 Q345.75 122.1 354.95 124.3 L344.85 123.05 334.55 117.5 338.65 116.05 M351.2 134.1 Q348.75 133.5 350.7 132.15 L351.2 134.1 M353.5 200.05 L357.7 199.1 Q366.6 197.45 373.25 198.95 L382.45 198.05 Q378.05 184.25 370.65 171.75 367.25 166.1 362.65 161.45 359.85 163.65 356.45 165.0 352.75 166.6 348.55 167.05 L341.45 166.35 327.2 160.9 314.75 169.4 306.15 176.6 Q319.4 184.5 330.35 198.6 L335.35 205.55 349.15 201.25 349.55 201.2 351.55 200.6 353.5 200.2 353.5 200.05 M384.0 96.3 L384.0 99.25 Q387.85 95.4 384.0 96.3 M387.45 209.05 L388.15 210.25 388.25 211.1 392.55 206.15 391.4 203.7 Q385.1 201.8 378.8 200.9 383.85 203.5 387.2 208.6 L386.5 211.5 Q387.25 210.2 387.45 209.05 M393.65 275.9 L397.6 273.15 Q402.35 242.05 395.4 210.3 L386.15 215.8 375.05 219.8 369.25 221.9 366.9 223.6 Q364.55 233.7 365.25 244.2 366.7 266.35 379.5 280.65 L393.65 275.9 M372.85 219.8 Q382.25 217.85 386.1 210.3 380.6 216.5 372.85 219.8 M362.75 207.05 L356.55 204.9 Q339.1 206.1 331.5 218.45 L337.1 222.4 356.3 276.7 360.95 275.5 Q359.35 267.25 359.3 258.75 359.05 231.5 362.75 207.05 M338.4 205.85 Q326.75 210.25 326.25 221.2 L332.6 223.0 329.35 218.9 Q333.6 209.55 342.55 204.4 340.5 205.05 338.4 205.85 M325.8 224.15 L345.7 286.75 352.7 287.25 Q354.8 280.9 352.75 272.1 350.55 262.65 347.75 253.45 343.45 239.3 337.1 225.9 L325.8 224.15 M317.0 87.2 L332.7 51.8 313.35 91.15 313.3 91.4 313.15 92.1 310.8 102.15 317.0 87.2 M263.7 129.6 Q262.45 108.25 250.25 89.9 240.15 74.75 230.55 59.35 221.5 40.8 202.5 34.5 181.75 27.55 159.95 31.0 135.0 35.35 130.1 58.35 128.25 66.85 130.85 75.25 128.65 76.85 130.5 79.5 142.9 97.7 168.05 97.55 187.7 105.5 196.55 124.9 L197.75 127.4 195.95 125.55 Q186.55 132.2 177.75 141.45 L157.2 167.5 135.55 206.75 207.2 278.0 Q210.65 258.55 217.0 239.7 225.35 215.0 241.75 194.5 L247.45 188.0 248.15 187.25 Q269.75 164.7 297.75 153.3 L297.85 153.2 296.15 149.05 Q286.4 131.25 273.6 115.35 266.4 106.45 258.25 98.65 L259.75 101.9 267.1 131.95 Q264.35 149.55 248.2 157.45 L245.55 158.7 250.35 155.45 Q230.4 168.2 214.0 152.45 207.5 146.2 203.85 137.75 211.85 149.2 223.5 156.6 225.9 158.1 228.8 158.85 L233.1 158.95 238.25 157.75 241.05 157.1 Q259.2 150.5 263.35 132.0 L263.7 129.6 M172.8 101.5 L172.35 101.15 166.95 99.1 173.2 101.8 173.55 102.0 172.8 101.5 M288.95 130.45 L286.3 127.7 301.0 151.5 314.4 151.8 288.95 130.45 M290.15 169.5 L274.05 180.0 272.35 179.55 279.9 171.2 283.65 168.3 283.05 169.15 283.15 169.05 283.95 168.55 284.8 167.9 285.55 168.2 284.65 168.85 286.35 168.45 286.5 168.25 286.4 168.0 285.75 167.5 303.55 155.3 279.15 165.55 Q261.8 176.35 248.4 191.55 234.7 207.1 226.2 225.75 217.9 244.05 213.9 263.8 L211.3 277.95 253.7 254.85 256.65 249.15 249.2 254.55 254.3 239.1 240.85 261.65 226.05 267.4 231.05 246.4 Q224.65 257.0 221.2 269.25 220.2 272.7 216.9 274.2 215.45 274.85 215.9 273.65 L216.1 271.6 220.2 268.45 226.0 251.3 223.0 253.7 227.4 246.0 Q227.3 246.6 227.55 246.9 227.85 247.2 231.3 238.6 L227.7 243.15 232.3 233.0 232.3 234.4 232.3 235.05 234.1 232.1 227.7 233.95 227.25 234.85 222.95 247.05 Q219.55 252.5 222.2 250.15 L219.95 254.85 218.65 259.05 216.15 270.65 217.1 258.8 228.95 228.5 238.85 225.35 237.8 228.55 250.2 204.65 255.0 200.8 244.6 206.0 243.15 204.7 Q246.65 197.65 253.45 192.0 L247.15 203.1 250.95 201.7 258.5 189.6 255.0 190.75 Q257.75 188.7 260.95 187.25 L261.85 187.3 Q262.15 187.95 261.85 189.0 L261.95 189.15 274.75 181.9 265.3 199.1 279.9 182.4 280.45 182.4 281.7 181.65 280.15 182.15 285.5 176.0 283.4 178.95 284.9 177.5 299.8 167.15 288.35 174.55 290.85 172.65 285.95 176.0 293.7 170.15 307.95 161.65 306.4 163.0 309.9 160.95 293.45 173.2 298.9 170.45 270.55 198.2 280.1 190.3 Q283.2 188.0 281.4 190.85 L280.65 191.95 279.1 193.8 280.6 192.15 284.15 186.95 291.2 181.1 286.7 188.7 289.5 187.2 298.4 176.85 294.25 178.55 303.05 170.25 308.2 166.5 316.85 161.15 317.2 160.35 316.7 160.65 321.35 156.6 308.2 155.25 301.6 160.25 289.8 168.25 288.6 169.1 290.15 169.5 M244.4 223.75 L243.25 226.95 Q247.8 219.4 255.45 216.05 L258.15 215.75 257.5 223.85 278.15 195.8 274.65 198.15 276.45 193.85 267.15 203.2 260.8 203.75 270.85 185.15 262.0 191.75 266.6 189.3 263.6 192.95 263.8 191.95 Q261.55 193.45 261.3 195.2 L262.0 194.9 259.55 197.8 260.05 194.7 256.05 200.45 254.55 202.85 249.75 211.45 Q246.95 217.0 244.8 222.7 L243.1 226.5 244.4 223.75 M282.05 183.1 Q283.95 182.7 283.3 182.2 283.15 182.05 282.05 183.1 M271.2 193.0 Q272.2 191.35 271.15 193.05 L271.2 193.0 M272.2 193.2 L272.25 193.15 Q273.0 191.55 272.2 193.2 M271.45 195.65 Q270.65 196.0 270.1 196.85 272.85 195.05 271.45 195.65 M276.15 188.7 Q275.85 188.1 275.7 188.9 L276.15 188.7 M273.8 189.85 Q276.75 186.55 273.45 190.0 L273.8 189.85 M277.05 188.45 L277.05 188.25 Q274.15 191.45 277.05 188.45 M314.35 158.1 L311.75 159.75 316.45 156.25 314.35 158.1 M303.6 170.15 L303.25 170.2 Q302.55 171.3 303.3 170.5 L303.6 170.15 M113.85 101.05 Q127.95 102.45 135.25 92.25 L135.55 91.55 131.25 84.75 Q127.6 83.2 124.9 81.35 111.25 71.75 122.4 52.9 124.2 49.8 127.8 49.0 L133.2 41.85 Q130.25 33.05 118.95 32.8 L99.1 31.75 Q110.9 44.5 111.55 63.0 112.3 84.5 98.75 99.95 L113.85 101.05 M101.7 92.25 Q110.5 72.8 106.6 51.05 102.15 26.35 83.0 35.4 L86.75 39.0 92.8 40.8 93.6 41.4 98.45 48.2 98.8 49.2 101.05 72.9 Q100.5 95.4 82.15 92.5 81.3 92.5 80.55 91.9 80.4 91.35 79.65 91.3 L79.7 91.55 Q88.65 105.6 100.65 93.45 L101.7 92.25 M121.4 57.3 Q117.2 62.8 120.15 72.2 L120.6 72.2 Q121.55 76.45 123.7 79.1 L129.85 82.45 128.2 77.6 126.6 71.0 126.85 56.8 128.5 51.2 121.4 57.3 M128.55 56.5 L129.45 52.6 Q128.85 54.45 128.5 56.5 L128.5 59.15 128.55 56.5 M132.05 223.65 L128.5 234.2 135.05 240.7 149.7 238.85 Q165.1 242.95 173.25 257.25 L173.85 258.25 174.9 260.0 175.6 261.2 Q181.0 274.6 189.6 285.35 194.55 291.55 200.95 296.65 L205.35 286.95 206.5 282.85 135.6 213.9 132.05 223.65 M75.4 352.35 L91.7 356.4 Q113.85 356.9 129.75 340.75 L145.25 324.6 Q160.0 336.55 173.1 323.35 183.5 312.95 183.5 297.9 183.5 256.9 147.6 243.6 138.2 240.2 131.15 247.35 113.05 265.65 89.7 273.35 L89.7 273.3 Q89.7 272.0 86.1 271.1 82.45 270.2 77.35 270.2 72.25 270.2 68.65 271.1 65.0 272.0 65.0 273.3 65.0 274.6 68.65 275.5 L77.35 276.4 78.3 276.4 Q58.5 280.55 45.6 264.0 L40.85 257.8 Q40.35 259.3 39.3 260.2 L38.8 259.6 9.35 349.65 44.85 381.2 61.05 343.45 74.75 352.2 74.2 352.05 75.4 352.35 M100.75 266.8 L93.3 258.0 43.35 255.15 Q48.9 266.85 60.1 272.9 63.55 274.7 62.0 271.75 L62.2 267.85 Q79.15 256.05 99.9 267.1 100.65 267.55 100.75 266.8 M96.45 269.4 Q95.6 268.4 94.55 267.8 77.55 259.0 63.6 268.7 L63.25 272.15 Q66.55 269.95 70.5 269.95 84.3 270.0 96.45 269.4 M90.75 360.85 Q77.4 359.15 64.7 351.1 L62.05 349.05 49.25 384.65 52.6 383.25 88.95 366.2 90.75 360.85 M279.15 198.15 Q276.9 200.75 278.65 198.95 L279.15 198.15 M277.65 200.85 L277.65 200.6 277.6 200.9 277.45 201.5 277.4 201.65 277.45 201.6 282.7 195.8 278.15 203.15 287.75 189.7 277.65 200.85 M275.65 201.7 L275.1 202.3 Q275.45 203.95 275.65 201.7 M265.25 210.45 L264.45 213.85 259.5 218.25 265.25 210.45 M267.75 215.75 L264.5 222.55 266.85 220.4 268.85 220.3 277.45 205.8 Q275.45 202.95 272.4 207.05 L269.7 211.6 Q268.75 213.4 267.75 215.75 M249.1 208.8 L247.6 211.7 251.25 205.95 249.1 208.8 M250.1 218.0 L249.75 218.3 Q247.45 213.0 254.1 211.0 L250.1 218.0 M262.3 226.95 Q264.3 225.5 263.0 226.3 L262.3 226.95 M249.6 238.9 L255.75 220.55 Q251.1 218.2 246.0 225.4 242.7 230.0 239.8 235.05 L247.5 233.4 249.9 231.3 249.25 238.9 249.0 239.95 248.95 240.25 249.05 240.0 249.6 238.9 M247.95 239.8 L248.4 238.9 247.55 238.9 247.95 239.8 M244.5 242.75 L244.3 242.65 Q243.9 244.8 244.5 242.75 M248.9 243.1 L248.6 243.4 247.9 244.85 249.0 243.05 248.9 243.1 M244.05 236.2 Q241.9 236.0 242.5 238.35 L242.65 239.5 247.35 241.35 244.05 236.2 M260.25 236.05 L260.8 236.85 262.0 234.55 258.0 235.35 257.85 235.85 258.9 235.6 Q259.7 235.6 260.25 236.05 M258.9 238.6 Q258.1 238.6 257.55 238.15 L257.25 237.85 255.2 243.9 255.0 244.05 Q254.6 245.2 254.0 244.6 L253.75 244.3 250.55 250.7 257.0 243.75 259.95 238.35 258.9 238.6 M264.9 227.4 Q262.3 226.9 264.25 227.45 L264.9 227.4 M264.65 224.0 L264.3 224.45 Q266.75 221.75 264.65 224.0 M266.0 224.65 L266.6 224.75 Q267.75 221.4 266.0 224.65 M256.65 281.45 L256.7 281.45 Q257.25 282.25 257.1 282.4 L256.2 281.45 256.65 281.45 M258.4 283.8 L258.8 282.15 Q259.4 282.8 258.9 284.2 L258.35 283.9 258.4 283.8 M261.15 286.45 L260.2 285.7 258.9 284.2 261.15 286.45 M234.15 228.9 L233.95 229.0 Q232.2 231.3 234.15 228.9 M236.25 229.0 Q236.7 229.0 237.1 228.0 234.55 229.2 236.25 229.0 M235.15 229.7 L235.3 229.45 Q234.35 229.65 235.15 229.7 M239.35 227.8 Q235.5 236.4 232.35 245.25 L226.85 264.35 230.55 263.1 Q232.3 244.4 239.6 227.3 L239.35 227.8 M231.55 230.65 Q232.85 229.35 231.85 230.1 L231.55 230.65 M240.15 243.35 L239.6 235.35 Q232.05 246.5 232.25 259.85 242.8 255.0 247.0 243.6 L242.05 246.65 241.55 243.6 Q241.65 241.3 240.15 243.35 M217.6 266.5 L218.05 266.05 Q220.75 267.7 217.6 266.5 M217.75 263.7 L218.6 261.8 222.2 260.7 217.75 263.7 M236.15 272.6 L252.2 260.45 208.85 282.6 206.7 288.65 203.7 296.1 Q217.6 287.55 230.5 277.7 233.4 275.55 236.15 272.6 M230.25 287.15 L231.0 283.05 221.25 289.1 220.15 292.5 214.25 301.1 Q212.15 306.0 221.7 299.95 L222.75 299.25 226.85 294.9 228.85 291.35 230.25 287.15 M215.35 296.45 L217.85 291.9 201.95 301.8 185.45 287.65 186.9 299.0 181.2 321.35 215.35 296.45 M269.75 197.9 L269.15 198.25 Q266.3 202.4 269.75 197.9" fill="#000000" fill-rule="evenodd" stroke="none"/>
    <path d="M392.55 -50.1 Q396.45 -48.9 400.05 -47.2 L421.15 21.5 421.2 21.75 418.9 21.5 415.5 20.9 412.7 20.4 392.55 -50.1 M299.9 -49.1 Q310.35 -54.65 321.6 -57.45 339.95 -61.85 358.0 -56.65 L332.95 -47.25 Q317.25 -55.5 299.9 -49.1 M287.6 3.25 L282.2 21.7 Q276.95 42.4 286.55 61.05 299.3 85.85 319.75 67.9 310.65 85.2 307.5 104.3 307.2 106.2 308.15 108.05 325.8 143.35 359.35 156.1 L357.9 157.55 Q348.4 166.9 336.65 161.45 L347.05 158.65 304.5 117.25 296.7 134.4 Q283.0 122.1 271.85 106.9 L260.35 89.8 261.05 68.25 Q263.55 36.65 273.35 22.75 L287.6 3.25 M417.2 56.05 Q413.5 72.55 407.1 85.25 374.9 75.8 341.7 51.9 386.55 46.7 417.2 56.05 M379.8 104.4 L381.75 104.55 381.35 105.15 379.35 105.15 379.8 104.4 M356.5 85.65 L356.6 84.95 358.35 85.95 358.25 86.25 Q358.1 87.55 357.45 87.9 356.5 87.5 356.5 85.65 M347.7 161.2 L347.8 161.25 Q348.75 161.0 347.7 161.2 M341.45 166.35 L348.55 167.05 Q352.75 166.6 356.45 165.0 359.85 163.65 362.65 161.45 367.25 166.1 370.65 171.75 378.05 184.25 382.45 198.05 L373.25 198.95 Q366.6 197.45 357.7 199.1 L353.5 200.05 Q353.85 184.8 341.45 166.35 M351.55 200.6 L349.55 201.2 349.15 201.25 351.55 200.6 M384.0 96.3 Q387.85 95.4 384.0 99.25 L384.0 96.3 M387.2 208.6 Q383.85 203.5 378.8 200.9 385.1 201.8 391.4 203.7 L392.55 206.15 388.25 211.1 388.15 210.25 387.45 209.05 Q388.05 205.65 384.15 203.4 L387.25 208.25 387.2 208.6 M386.15 215.8 L395.4 210.3 Q402.35 242.05 397.6 273.15 L393.65 275.9 393.8 275.25 Q383.9 260.75 386.15 215.8 M379.5 280.65 Q366.7 266.35 365.25 244.2 364.55 233.7 366.9 223.6 L369.25 221.9 372.15 220.95 Q371.35 221.8 370.75 223.25 365.65 243.35 379.5 280.65 M338.4 205.85 Q340.5 205.05 342.55 204.4 333.6 209.55 329.35 218.9 L332.6 223.0 326.25 221.2 Q326.75 210.25 338.4 205.85 M230.55 59.35 Q225.95 69.0 229.05 78.3 227.55 103.8 263.7 129.6 L263.35 132.0 Q259.2 150.5 241.05 157.1 L238.25 157.75 Q219.1 107.65 182.15 88.3 157.95 75.6 141.85 74.45 133.35 73.6 130.85 75.25 128.25 66.85 130.1 58.35 135.0 35.35 159.95 31.0 181.75 27.55 202.5 34.5 221.5 40.8 230.55 59.35 M197.75 127.4 Q200.65 130.8 203.4 136.75 L203.2 136.85 Q195.5 140.2 177.75 141.45 186.55 132.2 195.95 125.55 L197.75 127.4 M157.2 167.5 Q159.0 169.75 162.3 173.05 172.95 183.95 228.85 163.8 235.9 164.65 245.55 158.7 L248.2 157.45 Q264.35 149.55 267.1 131.95 279.55 140.45 296.15 149.05 L297.85 153.2 297.75 153.3 Q269.75 164.7 248.15 187.25 L247.45 188.0 241.75 194.5 Q225.35 215.0 217.0 239.7 210.65 258.55 207.2 278.0 L135.55 206.75 157.2 167.5 M284.8 167.9 L283.95 168.55 283.15 169.05 283.05 169.15 283.65 168.3 279.9 171.2 272.35 179.55 274.05 180.0 290.15 169.5 293.7 170.15 285.95 176.0 290.85 172.65 288.35 174.55 284.9 177.5 283.4 178.95 285.5 176.0 280.15 182.15 281.7 181.65 280.45 182.4 279.9 182.4 265.3 199.1 274.75 181.9 261.95 189.15 261.85 189.0 Q262.15 187.95 261.85 187.3 L260.95 187.25 Q257.75 188.7 255.0 190.75 L253.95 191.1 253.45 192.0 Q246.65 197.65 243.15 204.7 L244.6 206.0 255.0 200.8 250.2 204.65 237.8 228.55 238.85 225.35 228.95 228.5 217.1 258.8 216.15 270.65 216.1 271.6 215.9 273.65 Q215.45 274.85 216.9 274.2 220.2 272.7 221.2 269.25 224.65 257.0 231.05 246.4 L226.05 267.4 240.85 261.65 254.3 239.1 249.2 254.55 256.65 249.15 253.7 254.85 211.3 277.95 213.9 263.8 Q217.9 244.05 226.2 225.75 234.7 207.1 248.4 191.55 261.8 176.35 279.15 165.55 282.0 166.9 284.8 167.9 M303.05 170.25 L294.25 178.55 298.4 176.85 289.5 187.2 286.7 188.7 291.2 181.1 284.15 186.95 285.25 185.4 278.8 191.3 280.1 190.3 270.55 198.2 298.9 170.45 303.05 170.25 M280.6 192.15 L279.1 193.8 280.65 191.95 280.6 192.15 M256.05 200.45 Q255.8 201.75 254.55 202.85 L256.05 200.45 M271.2 193.0 L271.15 193.05 Q272.2 191.35 271.2 193.0 M273.8 189.85 L273.45 190.0 Q276.75 186.55 273.8 189.85 M303.6 170.15 L303.3 170.5 Q302.55 171.3 303.25 170.2 L303.6 170.15 M133.2 41.85 Q108.3 40.75 112.7 68.05 115.8 87.1 113.85 101.05 L98.75 99.95 Q112.3 84.5 111.55 63.0 110.9 44.5 99.1 31.75 L118.95 32.8 Q130.25 33.05 133.2 41.85 M89.7 273.35 Q113.05 265.65 131.15 247.35 138.2 240.2 147.6 243.6 183.5 256.9 183.5 297.9 183.5 312.95 173.1 323.35 160.0 336.55 145.25 324.6 L129.75 340.75 Q113.85 356.9 91.7 356.4 L75.4 352.35 74.75 352.2 61.05 343.45 44.85 381.2 9.35 349.65 38.8 259.6 39.3 260.2 Q40.35 259.3 40.85 257.8 L45.6 264.0 Q58.5 280.55 78.3 276.4 L86.1 275.5 Q89.65 274.6 89.7 273.35 M100.75 266.8 Q100.65 267.55 99.9 267.1 79.15 256.05 62.2 267.85 L62.0 271.75 Q63.55 274.7 60.1 272.9 48.9 266.85 43.35 255.15 L93.3 258.0 100.75 266.8 M279.15 198.15 L278.65 198.95 Q276.9 200.75 279.15 198.15 M277.65 200.85 L277.6 200.9 277.65 200.6 277.65 200.85 M277.45 201.5 L277.45 201.6 277.4 201.65 277.45 201.5 M275.65 201.7 Q275.45 203.95 275.1 202.3 L275.65 201.7 M267.75 215.75 Q268.75 213.4 269.7 211.6 L272.4 207.05 Q275.45 202.95 277.45 205.8 L268.85 220.3 266.85 220.4 264.5 222.55 267.75 215.75 M253.7 212.95 L253.35 213.8 Q251.5 217.25 253.7 212.95 M262.3 226.95 L263.0 226.3 Q264.3 225.5 262.3 226.95 M249.25 238.9 L249.6 238.9 249.05 240.0 249.0 239.95 249.25 238.9 M244.05 236.2 L247.35 241.35 242.65 239.5 242.5 238.35 Q241.9 236.0 244.05 236.2 M264.65 224.0 Q266.75 221.75 264.3 224.45 L264.65 224.0 M234.15 228.9 Q232.2 231.3 233.95 229.0 L234.15 228.9 M239.35 227.8 L239.6 227.3 Q232.3 244.4 230.55 263.1 L226.85 264.35 232.35 245.25 Q235.5 236.4 239.35 227.8 M228.85 291.35 L226.85 294.9 216.95 297.95 219.95 293.25 228.85 291.35 M186.9 299.0 L199.3 307.7 215.35 296.45 181.2 321.35 186.9 299.0" fill="#ffffff" fill-rule="evenodd" stroke="none"/>
    <path d="M288.4 7.35 L288.1 9.1 Q285.85 26.3 296.85 40.95 303.0 49.15 308.4 57.6 303.2 58.7 298.45 54.85 295.6 52.55 292.95 48.5 287.6 40.45 285.7 32.6 282.55 19.8 288.4 7.35 M363.5 30.3 Q358.85 10.2 351.85 -9.15 345.15 -27.45 334.95 -44.2 334.8 -44.7 334.95 -44.7 348.2 -52.25 362.35 -52.75 L389.8 23.65 Q377.85 25.85 363.5 30.3 M370.75 -53.2 L383.4 -52.25 406.65 21.3 415.5 20.9 418.9 21.5 397.0 22.55 370.75 -53.2 M408.9 -40.5 Q419.3 -30.85 425.7 -18.3 438.25 6.35 435.25 26.1 L429.1 23.35 408.9 -40.5 M424.35 22.2 L421.2 21.75 421.15 21.5 424.35 22.2" fill="#d19700" fill-rule="evenodd" stroke="none"/>
    <path d="M288.4 7.35 L306.55 -21.55 311.05 -26.95 334.95 -44.2 Q345.15 -27.45 351.85 -9.15 358.85 10.2 363.5 30.3 351.85 34.15 340.5 39.0 323.3 46.45 308.4 57.6 303.0 49.15 296.85 40.95 285.85 26.3 288.1 9.1 L288.4 7.35 M436.05 34.5 L426.4 38.3 425.95 38.2 Q418.2 31.2 406.9 33.1 L395.8 33.5 Q350.35 37.15 311.15 59.4 335.85 42.05 363.8 31.0 406.7 13.85 436.05 34.5 M289.8 168.25 L301.6 160.25 Q299.1 163.4 289.8 168.25 M286.4 168.0 L285.5 167.75 285.75 167.5 286.4 168.0" fill="#a85b00" fill-rule="evenodd" stroke="none"/>
    <path d="M332.95 -47.25 Q321.8 -41.2 312.65 -32.45 296.05 -16.55 287.6 3.25 L273.35 22.75 Q263.55 36.65 261.05 68.25 L260.35 89.8 Q248.0 77.4 249.0 52.3 249.85 30.65 255.7 9.7 261.45 -10.85 274.1 -28.05 284.45 -42.05 299.9 -49.1 317.25 -55.5 332.95 -47.25 M339.4 51.05 L340.25 50.85 Q399.05 37.6 419.0 46.8 L417.2 56.05 Q386.55 46.7 341.7 51.9 L339.4 51.05 M366.2 130.8 Q367.55 132.15 367.05 136.0 363.05 166.0 339.95 142.95 L320.8 122.15 320.1 121.2 Q307.5 107.15 311.55 105.4 361.95 180.15 366.2 130.8 M311.6 105.35 L312.9 105.15 Q312.3 106.1 311.6 105.35 M347.7 161.2 Q348.75 161.0 347.8 161.25 L347.7 161.2 M341.45 166.35 Q353.85 184.8 353.5 200.05 L353.5 200.2 351.55 200.6 349.15 201.25 335.35 205.55 330.35 198.6 334.85 202.3 Q328.9 176.8 315.95 170.0 L314.75 169.4 327.2 160.9 341.45 166.35 M336.65 161.45 Q332.6 160.7 328.95 158.5 310.75 147.95 296.7 134.4 L304.5 117.25 347.05 158.65 336.65 161.45 M386.15 215.8 Q383.9 260.75 393.8 275.25 L393.65 275.9 379.5 280.65 Q365.65 243.35 370.75 223.25 371.35 221.8 372.15 220.95 L375.05 219.8 386.15 215.8 M362.75 207.05 Q359.05 231.5 359.3 258.75 359.35 267.25 360.95 275.5 L356.3 276.7 337.1 222.4 331.5 218.45 Q339.1 206.1 356.55 204.9 L362.75 207.05 M325.8 224.15 L337.1 225.9 Q343.45 239.3 347.75 253.45 350.55 262.65 352.75 272.1 354.8 280.9 352.7 287.25 L345.7 286.75 325.8 224.15 M313.15 92.1 Q312.65 94.5 313.15 94.8 L317.0 87.2 310.8 102.15 313.15 92.1 M263.7 129.6 Q227.55 103.8 229.05 78.3 225.95 69.0 230.55 59.35 240.15 74.75 250.25 89.9 262.45 108.25 263.7 129.6 M130.85 75.25 Q133.35 73.6 141.85 74.45 157.95 75.6 182.15 88.3 219.1 107.65 238.25 157.75 L233.1 158.95 228.8 158.85 226.6 153.2 Q218.9 132.4 202.35 117.4 185.7 102.2 168.05 97.55 142.9 97.7 130.5 79.5 128.65 76.85 130.85 75.25 M173.2 101.8 L166.95 99.1 172.35 101.15 172.8 101.5 173.2 101.8 M314.4 151.8 Q299.75 141.45 288.95 130.45 L314.4 151.8 M267.1 131.95 L259.75 101.9 258.25 98.65 Q266.4 106.45 273.6 115.35 286.4 131.25 296.15 149.05 279.55 140.45 267.1 131.95 M284.8 167.9 Q282.0 166.9 279.15 165.55 L303.55 155.3 285.75 167.5 285.5 167.75 286.4 168.0 286.5 168.25 286.35 168.45 285.55 168.2 284.8 167.9 M216.1 271.6 L216.15 270.65 218.65 259.05 219.95 254.85 222.2 250.15 Q219.55 252.5 222.95 247.05 L227.25 234.85 227.7 233.95 234.1 232.1 232.3 235.05 232.3 234.4 232.3 233.0 227.7 243.15 231.3 238.6 Q227.85 247.2 227.55 246.9 227.3 246.6 227.4 246.0 L223.0 253.7 226.0 251.3 220.2 268.45 216.1 271.6 M284.9 177.5 L288.35 174.55 299.8 167.15 284.9 177.5 M293.7 170.15 L290.15 169.5 288.6 169.1 289.8 168.25 Q299.1 163.4 301.6 160.25 L308.2 155.25 321.35 156.6 316.7 160.65 317.2 160.35 316.85 161.15 308.2 166.5 303.05 170.25 298.9 170.45 293.45 173.2 309.9 160.95 306.4 163.0 307.95 161.65 293.7 170.15 M244.8 222.7 L244.4 223.75 243.1 226.5 244.8 222.7 M282.05 183.1 Q283.15 182.05 283.3 182.2 283.95 182.7 282.05 183.1 M271.45 195.65 Q272.85 195.05 270.1 196.85 270.65 196.0 271.45 195.65 M272.2 193.2 Q273.0 191.55 272.25 193.15 L272.2 193.2 M276.15 188.7 L275.7 188.9 Q275.85 188.1 276.15 188.7 M277.05 188.45 Q274.15 191.45 277.05 188.25 L277.05 188.45 M314.35 158.1 L316.45 156.25 311.75 159.75 314.35 158.1 M133.2 41.85 L127.8 49.0 Q124.2 49.8 122.4 52.9 111.25 71.75 124.9 81.35 127.6 83.2 131.25 84.75 L135.55 91.55 135.25 92.25 Q127.95 102.45 113.85 101.05 115.8 87.1 112.7 68.05 108.3 40.75 133.2 41.85 M86.75 39.0 L83.0 35.4 Q102.15 26.35 106.6 51.05 110.5 72.8 101.7 92.25 109.55 72.55 105.2 51.25 101.6 33.8 86.75 39.0 M79.7 91.55 L79.65 91.3 Q80.4 91.35 80.55 91.9 L79.7 91.55 M98.8 49.2 L98.45 48.2 99.3 50.15 98.8 49.2 M120.6 72.2 L126.6 71.0 128.2 77.6 123.7 79.1 Q121.55 76.45 120.6 72.2 M126.85 56.8 L121.4 57.3 128.5 51.2 126.85 56.8 M128.55 56.5 L128.5 56.5 Q128.85 54.45 129.45 52.6 L128.55 56.5 M149.7 238.85 L135.05 240.7 128.5 234.2 132.05 223.65 149.7 238.85 M205.35 286.95 L200.95 296.65 Q194.55 291.55 189.6 285.35 181.0 274.6 175.6 261.2 L205.35 286.95 M96.45 269.4 Q84.3 270.0 70.5 269.95 66.55 269.95 63.25 272.15 L63.6 268.7 Q77.55 259.0 94.55 267.8 95.6 268.4 96.45 269.4 M52.6 383.25 L52.85 382.95 Q62.9 371.6 77.25 365.85 83.9 363.1 90.75 360.85 L88.95 366.2 52.6 383.25 M249.1 208.8 L251.25 205.95 247.6 211.7 249.1 208.8 M264.9 227.4 L264.25 227.45 Q262.3 226.9 264.9 227.4 M258.9 238.6 L259.95 238.35 257.0 243.75 250.55 250.7 253.75 244.3 254.0 244.6 Q254.6 245.2 255.0 244.05 L255.2 243.9 257.25 237.85 257.55 238.15 Q258.1 238.6 258.9 238.6 M260.25 236.05 Q259.7 235.6 258.9 235.6 L257.85 235.85 258.0 235.35 262.0 234.55 260.8 236.85 260.25 236.05 M266.0 224.65 Q267.75 221.4 266.6 224.75 L266.0 224.65 M236.25 229.0 Q234.55 229.2 237.1 228.0 236.7 229.0 236.25 229.0 M235.15 229.7 Q234.35 229.65 235.3 229.45 L235.15 229.7 M231.55 230.65 L231.85 230.1 Q232.85 229.35 231.55 230.65 M217.75 263.7 L222.2 260.7 218.6 261.8 217.75 263.7 M217.6 266.5 Q220.75 267.7 218.05 266.05 L217.6 266.5 M236.15 272.6 Q233.4 275.55 230.5 277.7 217.6 287.55 203.7 296.1 L206.7 288.65 236.15 272.6 M220.15 292.5 L230.25 287.15 228.85 291.35 219.95 293.25 216.95 297.95 226.85 294.9 222.75 299.25 214.25 301.1 220.15 292.5 M186.9 299.0 L185.45 287.65 201.95 301.8 217.85 291.9 215.35 296.45 199.3 307.7 186.9 299.0 M269.75 197.9 Q266.3 202.4 269.15 198.25 L269.75 197.9" fill="#a7abac" fill-rule="evenodd" stroke="none"/>
    <path d="M362.35 -52.75 L370.75 -53.2 397.0 22.55 389.8 23.65 362.35 -52.75 M383.4 -52.25 L392.55 -50.1 412.7 20.4 415.5 20.9 406.65 21.3 383.4 -52.25 M400.05 -47.2 L408.9 -40.5 429.1 23.35 424.35 22.2 421.15 21.5 400.05 -47.2 M348.6 79.55 Q342.2 94.75 357.3 91.9 L358.75 87.75 366.35 92.65 369.65 90.6 375.8 93.0 378.7 96.9 379.8 104.4 379.35 105.15 381.35 105.15 362.8 129.7 357.7 130.3 346.3 128.35 344.45 128.05 345.15 129.9 Q342.5 128.9 339.95 127.3 L340.4 127.35 339.9 127.25 323.45 106.95 334.85 88.9 Q333.6 86.45 332.6 88.6 328.35 97.7 323.45 106.9 L319.1 101.55 331.85 64.55 348.6 79.55 M338.65 116.05 L334.55 117.5 344.85 123.05 354.95 124.3 Q345.75 122.1 338.65 116.05 M247.95 239.8 L247.55 238.9 248.4 238.9 247.95 239.8 M244.5 242.75 Q243.9 244.8 244.3 242.65 L244.5 242.75" fill="#ffe600" fill-rule="evenodd" stroke="none"/>
    <path d="M332.65 59.05 Q334.85 55.65 337.1 52.9 L351.5 62.9 Q344.65 66.45 342.15 70.0 354.0 72.65 355.0 78.55 351.45 77.1 348.7 79.45 L348.6 79.55 331.85 64.55 319.1 101.55 323.45 106.9 323.3 107.15 323.45 106.95 339.9 127.25 339.9 127.3 339.95 127.3 Q342.5 128.9 345.15 129.9 L344.45 128.05 346.3 128.35 350.6 129.65 357.7 130.3 362.8 129.7 360.35 132.95 Q354.3 140.9 345.8 136.0 L344.55 135.0 344.35 135.15 314.05 102.9 325.55 71.55 332.65 59.05 M369.65 90.6 L367.5 88.95 361.05 68.55 388.2 82.95 375.8 93.0 369.65 90.6 M370.9 70.9 Q360.9 65.7 351.1 59.2 L370.9 70.9 M389.0 90.95 L386.35 93.75 386.3 93.65 Q385.75 91.65 389.0 90.95 M351.2 134.1 L350.7 132.15 Q348.75 133.5 351.2 134.1 M253.45 192.0 L253.95 191.1 255.0 190.75 258.5 189.6 250.95 201.7 247.15 203.1 253.45 192.0 M284.15 186.95 L280.6 192.15 280.65 191.95 281.4 190.85 Q283.2 188.0 280.1 190.3 L278.8 191.3 285.25 185.4 284.15 186.95 M256.05 200.45 L260.05 194.7 259.55 197.8 262.0 194.9 261.3 195.2 Q261.55 193.45 263.8 191.95 L263.6 192.95 266.6 189.3 262.0 191.75 270.85 185.15 260.8 203.75 267.15 203.2 276.45 193.85 274.65 198.15 278.15 195.8 257.5 223.85 258.15 215.75 255.45 216.05 Q247.8 219.4 243.25 226.95 L244.4 223.75 244.8 222.7 Q246.95 217.0 249.75 211.45 L254.55 202.85 Q255.8 201.75 256.05 200.45 M286.35 168.45 L284.65 168.85 285.55 168.2 286.35 168.45 M277.6 200.9 L277.65 200.85 287.75 189.7 278.15 203.15 282.7 195.8 277.45 201.6 277.45 201.5 277.6 200.9 M265.25 210.45 L259.5 218.25 264.45 213.85 265.25 210.45 M250.1 218.0 L254.1 211.0 Q247.45 213.0 249.75 218.3 L250.1 218.0 M253.7 212.95 Q251.5 217.25 253.35 213.8 L253.7 212.95 M249.25 238.9 L249.9 231.3 247.5 233.4 239.8 235.05 Q242.7 230.0 246.0 225.4 251.1 218.2 255.75 220.55 L249.6 238.9 249.25 238.9 M249.05 240.0 L248.95 240.25 249.0 239.95 249.05 240.0 M248.9 243.1 L249.0 243.05 247.9 244.85 248.6 243.4 248.9 243.1 M240.15 243.35 Q241.65 241.3 241.55 243.6 L242.05 246.65 247.0 243.6 Q242.8 255.0 232.25 259.85 232.05 246.5 239.6 235.35 L240.15 243.35" fill="#ff850d" fill-rule="evenodd" stroke="none"/>
    <path d="M282.2 21.7 L283.1 24.95 Q284.25 28.85 285.7 32.6 287.6 40.45 292.95 48.5 295.6 52.55 298.45 54.85 301.4 58.55 304.8 61.9 L314.3 62.45 326.5 55.25 319.75 67.9 Q299.3 85.85 286.55 61.05 276.95 42.4 282.2 21.7 M339.4 51.05 L338.65 50.5 337.1 49.35 Q386.0 31.9 420.25 38.4 L419.0 46.8 Q399.05 37.6 340.25 50.85 L339.4 51.05 M325.55 71.55 Q329.05 64.5 332.65 59.05 L325.55 71.55 M345.8 136.0 L344.35 135.15 344.55 135.0 345.8 136.0 M312.9 105.15 L334.6 130.45 Q346.8 145.0 359.7 136.25 L366.2 129.5 366.2 130.8 Q361.95 180.15 311.55 105.4 L311.35 105.1 311.6 105.35 Q312.3 106.1 312.9 105.15 M330.35 198.6 Q319.4 184.5 306.15 176.6 L314.75 169.4 315.95 170.0 Q328.9 176.8 334.85 202.3 L330.35 198.6 M387.2 208.6 L387.25 208.25 384.15 203.4 Q388.05 205.65 387.45 209.05 387.25 210.2 386.5 211.5 L387.2 208.6 M369.25 221.9 L375.05 219.8 372.15 220.95 369.25 221.9 M372.85 219.8 Q380.6 216.5 386.1 210.3 382.25 217.85 372.85 219.8 M317.0 87.2 L313.15 94.8 Q312.65 94.5 313.15 92.1 L313.3 91.4 313.35 91.15 332.7 51.8 317.0 87.2 M177.75 141.45 Q195.5 140.2 203.2 136.85 L203.4 136.75 Q200.65 130.8 197.75 127.4 L196.55 124.9 Q187.7 105.5 168.05 97.55 185.7 102.2 202.35 117.4 218.9 132.4 226.6 153.2 L228.8 158.85 Q225.9 158.1 223.5 156.6 211.85 149.2 203.85 137.75 207.5 146.2 214.0 152.45 230.4 168.2 250.35 155.45 L245.55 158.7 Q235.9 164.65 228.85 163.8 172.95 183.95 162.3 173.05 159.0 169.75 157.2 167.5 L177.75 141.45 M173.2 101.8 L172.8 101.5 173.55 102.0 173.2 101.8 M314.4 151.8 L301.0 151.5 286.3 127.7 288.95 130.45 Q299.75 141.45 314.4 151.8 M86.75 39.0 Q101.6 33.8 105.2 51.25 109.55 72.55 101.7 92.25 L100.65 93.45 Q88.65 105.6 79.7 91.55 L80.55 91.9 Q81.3 92.5 82.15 92.5 100.5 95.4 101.05 72.9 L101.1 74.45 101.35 72.65 99.3 50.15 98.45 48.2 93.6 41.4 92.8 40.8 86.75 39.0 M120.6 72.2 L120.15 72.2 Q117.2 62.8 121.4 57.3 L126.85 56.8 126.6 71.0 120.6 72.2 M128.5 56.5 L128.55 56.5 128.5 59.15 128.5 56.5 M128.2 77.6 L129.85 82.45 123.7 79.1 128.2 77.6 M149.7 238.85 L132.05 223.65 135.6 213.9 206.5 282.85 205.35 286.95 175.6 261.2 174.9 260.0 173.85 258.25 173.25 257.25 Q165.1 242.95 149.7 238.85 M89.7 273.35 Q89.65 274.6 86.1 275.5 L78.3 276.4 77.35 276.4 68.65 275.5 Q65.0 274.6 65.0 273.3 65.0 272.0 68.65 271.1 72.25 270.2 77.35 270.2 82.45 270.2 86.1 271.1 89.7 272.0 89.7 273.3 L89.7 273.35 M74.75 352.2 L75.4 352.35 74.2 352.05 74.75 352.2 M52.6 383.25 L49.25 384.65 62.05 349.05 64.7 351.1 Q77.4 359.15 90.75 360.85 83.9 363.1 77.25 365.85 62.9 371.6 52.85 382.95 L52.6 383.25 M206.7 288.65 L208.85 282.6 252.2 260.45 236.15 272.6 206.7 288.65 M220.15 292.5 L221.25 289.1 231.0 283.05 230.25 287.15 220.15 292.5 M222.75 299.25 L221.7 299.95 Q212.15 306.0 214.25 301.1 L222.75 299.25" fill="#525759" fill-rule="evenodd" stroke="none"/>
    <path d="M101.05 72.9 L98.8 49.2 99.3 50.15 101.35 72.65 101.1 74.45 101.05 72.9" fill="#6a9913" fill-rule="evenodd" stroke="none"/>
  </g>
</svg>
