<?xml version="1.0" encoding="UTF-8" standalone="no"?>
<svg xmlns:xlink="http://www.w3.org/1999/xlink" height="98.0px" width="55.15px" xmlns="http://www.w3.org/2000/svg">
  <g transform="matrix(1.0, 0.0, 0.0, 1.0, 96.6, 85.05)">
    <path d="M-83.85 -13.4 Q-77.0 -15.9 -70.8 -14.05 -69.65 -13.75 -68.65 -13.25 L-68.65 -85.05 -62.0 -85.05 -62.0 -77.05 Q-31.85 -63.3 -45.9 -12.4 L-49.9 -12.4 Q-37.95 -57.1 -62.0 -56.95 L-62.0 -3.55 -62.05 -3.55 Q-62.0 -0.05 -64.4 3.6 -67.9 9.0 -74.8 11.5 -81.7 14.0 -87.9 12.15 -94.1 10.3 -95.95 5.1 -97.85 -0.1 -94.35 -5.5 -90.75 -10.9 -83.85 -13.4" fill="#000000" fill-rule="evenodd" stroke="none"/>
  </g>
</svg>
