<?xml version="1.0" encoding="UTF-8" standalone="no"?>
<svg xmlns:xlink="http://www.w3.org/1999/xlink" height="19.5px" width="19.5px" xmlns="http://www.w3.org/2000/svg">
  <g transform="matrix(1.0, 0.0, 0.0, 1.0, 9.75, 9.75)">
    <path d="M6.55 -6.55 Q9.25 -3.85 9.25 0.0 9.25 3.85 6.55 6.55 3.85 9.25 0.0 9.25 -3.85 9.25 -6.55 6.55 -9.25 3.85 -9.25 0.0 -9.25 -3.85 -6.55 -6.55 -3.85 -9.25 0.0 -9.25 3.85 -9.25 6.55 -6.55" fill="#ff0000" fill-rule="evenodd" stroke="none"/>
    <path d="M6.55 -6.55 Q9.25 -3.85 9.25 0.0 9.25 3.85 6.55 6.55 3.85 9.25 0.0 9.25 -3.85 9.25 -6.55 6.55 -9.25 3.85 -9.25 0.0 -9.25 -3.85 -6.55 -6.55 -3.85 -9.25 0.0 -9.25 3.85 -9.25 6.55 -6.55 Z" fill="none" stroke="#000000" stroke-linecap="round" stroke-linejoin="round" stroke-width="1.0"/>
  </g>
</svg>
