<?xml version="1.0" encoding="UTF-8" standalone="no"?>
<svg xmlns:xlink="http://www.w3.org/1999/xlink" height="267.3px" width="84.85px" xmlns="http://www.w3.org/2000/svg">
  <g transform="matrix(1.0, 0.0, 0.0, 1.0, 42.45, 133.65)">
    <path d="M12.5 -131.15 Q17.6 -129.25 23.1 -125.15 29.45 -120.55 32.0 -117.75 L37.75 -111.1 Q39.8 -108.3 39.15 -106.8 L37.9 -105.65 Q36.85 -104.9 36.7 -104.2 36.55 -103.35 37.6 -102.3 L39.15 -100.65 38.25 -92.35 Q37.5 -91.1 34.7 -90.85 L29.6 -90.85 27.8 -88.4 Q28.45 -87.95 31.75 -86.75 34.45 -85.75 35.1 -84.45 35.7 -83.35 35.7 -80.65 35.7 -78.15 35.1 -76.85 34.7 -75.85 31.25 -72.75 34.95 -69.85 34.95 -61.25 34.95 -54.75 32.9 -47.6 34.4 -46.1 33.55 -43.65 L31.75 -41.65 29.95 -28.75 29.35 -24.05 35.55 -7.2 36.85 -5.3 Q38.75 -1.5 38.75 1.95 38.75 7.05 34.8 11.9 L25.5 8.45 26.65 12.15 33.05 14.35 35.7 17.75 36.6 26.2 37.75 28.85 Q38.1 32.0 36.6 35.75 37.35 37.0 37.25 39.55 37.25 42.1 36.35 43.0 37.85 44.5 37.6 47.6 37.5 50.4 35.85 51.8 36.95 54.05 36.2 56.9 35.3 59.45 33.4 60.45 33.0 64.4 30.75 65.45 L29.1 65.8 26.4 68.4 27.3 82.65 Q36.7 92.45 39.15 96.4 40.8 98.95 41.2 100.85 43.45 109.65 41.55 117.7 37.75 122.15 30.6 123.3 24.45 124.45 16.2 121.9 L16.2 125.0 Q16.05 125.7 13.75 128.0 9.55 132.2 2.55 133.35 -5.35 134.5 -16.55 130.95 -24.25 128.55 -31.0 123.45 -35.7 119.95 -39.65 115.55 L-42.2 112.5 -42.45 108.15 -41.8 99.6 -41.4 95.75 -35.55 88.75 Q-36.35 87.5 -36.05 85.6 -35.95 83.65 -34.95 82.65 -36.35 80.35 -35.45 77.4 -34.55 74.6 -32.5 73.45 -33.0 67.3 -27.8 65.45 L-26.1 65.05 -24.5 63.4 -22.55 61.85 -19.5 57.4 Q-23.95 47.2 -26.1 25.65 L-26.4 23.35 -25.75 22.25 -24.95 21.2 -33.8 15.35 Q-35.95 9.7 -35.45 4.25 -34.8 -2.25 -30.35 -7.1 -35.95 -20.35 -36.85 -23.9 -38.65 -30.15 -38.25 -34.35 L-35.7 -43.8 Q-30.85 -60.8 -28.65 -66.4 L-26.9 -70.45 -24.6 -72.75 Q-21.3 -75.7 -16.2 -75.8 -18.35 -77.1 -18.5 -77.45 L-19.9 -90.1 Q-20.9 -96.45 -21.0 -102.45 L-32.1 -103.2 Q-34.3 -103.75 -34.95 -105.25 -35.2 -107.8 -32.5 -110.5 L-24.5 -117.0 Q-17.85 -132.65 -1.65 -133.55 L6.4 -133.05 12.5 -131.15 M-18.05 -113.9 L-17.8 -113.8 -17.6 -113.7 -17.15 -113.5 -12.6 -111.3 -8.8 -109.6 2.85 -105.05 3.7 -104.8 5.1 -104.35 Q20.4 -99.65 36.5 -100.25 L35.45 -101.55 34.55 -103.35 34.7 -104.85 34.95 -105.9 26.0 -106.55 Q21.15 -107.15 18.0 -108.2 L16.1 -108.95 14.15 -109.45 11.1 -108.45 Q5.85 -107.3 1.8 -112.15 L0.5 -113.65 -2.15 -113.65 -3.0 -113.6 -18.45 -114.55 -19.8 -114.85 -20.15 -114.95 -18.05 -113.9 M-20.85 -119.5 L-21.2 -118.85 -22.05 -116.85 -22.15 -116.6 Q-16.2 -114.3 -6.75 -114.3 L1.8 -114.55 Q6.25 -114.3 9.35 -113.15 L15.2 -110.2 Q19.9 -107.95 29.45 -106.8 L35.85 -107.0 36.05 -107.1 Q36.75 -107.35 37.25 -107.7 28.4 -121.95 11.5 -129.1 4.7 -132.05 -1.9 -131.5 -15.1 -130.75 -20.85 -119.5 M-11.4 -103.6 L-9.55 -103.35 -8.8 -103.2 -10.95 -103.1 -10.7 -75.9 -7.1 -74.9 5.75 -94.7 18.5 -93.5 Q31.85 -92.4 36.5 -93.3 L37.25 -99.5 35.05 -99.4 34.95 -99.4 Q19.3 -99.0 3.95 -103.85 -6.35 -107.1 -16.95 -112.45 L-17.0 -112.5 -22.55 -115.45 -22.8 -115.45 -22.95 -115.35 -28.45 -111.0 Q-32.4 -107.7 -32.75 -106.0 -31.6 -105.25 -26.75 -105.0 L-11.4 -103.6 M10.95 -83.2 Q15.05 -79.75 20.8 -77.95 27.65 -75.8 33.15 -77.95 34.0 -80.6 33.1 -83.45 L33.05 -83.6 30.35 -83.85 10.95 -83.2 M25.4 -86.75 L1.9 -86.75 9.95 -84.1 Q11.1 -83.85 15.2 -84.2 L30.35 -84.75 25.4 -86.75 M13.65 -70.8 Q23.1 -70.3 27.8 -73.0 L29.7 -74.3 Q31.6 -75.55 32.25 -76.95 L29.4 -76.2 Q23.95 -75.35 17.65 -78.15 L13.45 -80.4 13.0 -80.65 9.35 -83.6 1.45 -86.05 1.15 -86.15 -6.25 -74.65 -4.7 -74.2 3.65 -72.15 10.35 -71.1 13.65 -70.8 M18.5 -68.15 Q19.25 -67.4 20.65 -67.8 18.6 -70.35 17.1 -69.45 L18.5 -68.15 M13.6 -64.15 L13.0 -63.45 11.35 -60.75 Q10.6 -58.85 9.95 -58.6 L6.5 -59.75 2.4 -60.95 -0.1 -61.65 -0.5 -61.8 -4.7 -62.15 -7.25 -59.75 -7.75 -59.0 -4.75 -58.7 -3.55 -58.55 -4.05 -58.6 -1.25 -58.1 1.5 -57.5 5.85 -56.3 9.2 -55.05 9.7 -54.65 9.7 -54.25 9.7 -51.1 9.95 -49.95 10.1 -49.4 10.1 -47.9 Q9.7 -46.75 5.35 -45.75 L-1.4 -44.3 -3.7 -43.9 -13.95 -43.05 -14.65 -43.05 -16.2 -38.7 -15.6 -38.7 -4.0 -39.3 -0.65 -39.85 9.05 -41.9 12.5 -42.55 Q14.8 -42.05 15.55 -39.35 L15.55 -38.85 15.55 -38.8 15.5 -38.0 15.4 -37.45 15.05 -35.0 14.95 -34.55 14.9 -34.25 13.5 -24.95 12.65 -20.35 9.45 -17.9 2.3 -13.6 Q-0.9 -11.95 -1.75 -11.8 L-9.35 -11.45 -10.05 -11.45 -9.45 -10.0 Q-9.05 -9.15 -8.55 -9.0 L-8.3 -9.0 -5.2 -9.15 Q-0.75 -9.4 3.05 -11.45 9.95 -15.05 15.3 -18.95 L18.5 -42.25 Q13.15 -44.2 12.9 -51.95 12.65 -58.65 16.3 -61.55 L16.35 -61.55 17.5 -62.3 19.05 -62.85 Q21.0 -63.25 22.85 -62.4 L23.25 -62.2 25.6 -60.0 26.2 -58.9 26.6 -58.0 27.4 -54.75 Q28.3 -48.8 25.5 -44.85 L23.7 -42.9 21.45 -22.5 20.9 -19.7 22.2 -17.9 26.55 -13.1 Q27.4 -14.9 26.0 -16.4 L25.15 -17.8 23.2 -20.6 26.0 -42.25 26.55 -43.45 27.3 -44.6 Q29.35 -48.55 29.2 -53.65 29.05 -58.85 26.65 -62.55 25.5 -64.35 24.15 -65.4 21.85 -67.2 18.85 -66.9 15.8 -66.65 13.6 -64.15 M18.65 -62.05 Q13.75 -60.65 13.3 -53.35 13.0 -49.95 14.55 -46.85 16.05 -43.55 18.5 -42.9 21.4 -42.15 23.45 -44.7 26.4 -47.9 26.0 -53.35 25.65 -58.85 22.3 -61.05 20.5 -62.3 18.85 -62.05 L18.65 -62.05 M12.7 -64.25 Q14.2 -66.2 16.1 -67.0 L17.5 -67.65 Q17.1 -69.1 15.8 -69.45 L2.45 -69.45 0.25 -67.25 -0.9 -66.1 -4.1 -62.95 0.4 -62.3 2.95 -61.7 6.25 -60.75 6.4 -60.7 6.5 -60.65 8.15 -59.85 9.7 -59.5 Q10.2 -59.65 10.95 -61.55 11.75 -63.1 12.7 -64.25 M-0.8 -67.6 L0.65 -69.15 Q1.25 -69.55 1.15 -69.8 -6.5 -71.25 -11.05 -72.75 L-10.05 -71.5 -9.05 -69.55 -11.35 -71.85 Q-13.15 -73.65 -14.25 -73.75 -16.45 -74.45 -19.6 -73.0 -24.5 -71.35 -26.9 -65.0 L-28.45 -60.5 Q-31.9 -50.55 -33.8 -42.65 L-36.2 -33.25 Q-36.35 -30.55 -35.3 -26.2 L-33.5 -20.1 -32.0 -16.8 Q-28.7 -8.5 -27.8 -6.85 L-25.35 -3.4 Q-22.4 -1.15 -19.15 -2.3 L-18.35 -2.65 Q-20.9 0.15 -24.7 -1.5 L-29.05 -5.2 Q-33.65 0.8 -33.65 6.4 -33.65 7.7 -31.85 14.45 L-20.4 21.3 Q-22.95 18.25 -22.45 12.55 -22.3 7.95 -20.15 3.75 -16.55 -3.8 -10.2 -5.6 -8.4 -5.95 -8.05 -5.6 L-9.45 -5.05 Q-14.4 -3.9 -17.95 1.05 -21.3 5.8 -21.8 11.8 -22.2 18.15 -18.75 21.95 L-16.95 20.05 Q-19.65 14.45 -16.7 7.45 -13.75 0.4 -7.75 -1.25 L-7.65 -3.15 -7.75 -5.2 -9.05 -7.8 -9.3 -8.25 Q-15.85 -18.95 -19.4 -30.85 L-19.5 -31.2 Q-20.3 -29.95 -21.9 -29.65 L-23.65 -29.7 -24.6 -30.4 -24.1 -30.3 -23.65 -30.25 -23.6 -30.25 Q-20.85 -30.2 -19.1 -34.0 L-10.95 -56.7 Q-10.6 -57.45 -8.05 -60.0 L-0.8 -67.6 M8.85 -47.8 L9.35 -48.15 8.95 -54.25 Q0.25 -57.7 -8.55 -58.2 L-10.3 -56.05 -14.25 -44.05 -13.6 -44.0 -4.35 -44.65 -2.75 -44.95 -1.75 -45.1 -0.45 -45.35 3.7 -46.25 4.1 -46.35 Q7.65 -47.1 8.85 -47.8 M30.55 -70.45 L30.45 -70.55 Q29.3 -72.0 27.65 -71.95 L24.1 -70.7 Q26.2 -69.6 27.9 -67.5 L30.1 -64.05 31.5 -62.55 31.25 -60.65 31.5 -50.55 Q32.6 -54.9 32.75 -60.0 L32.8 -62.1 Q32.7 -66.8 31.25 -69.3 L30.55 -70.45 M27.35 -67.05 L26.65 -67.8 Q23.05 -71.35 19.75 -69.95 20.5 -68.65 22.45 -67.4 L24.8 -65.65 25.5 -65.1 27.95 -62.4 28.7 -63.2 28.8 -63.3 29.35 -63.8 Q28.8 -65.3 27.35 -67.05 M30.5 -58.4 L30.5 -59.5 Q29.7 -58.85 29.65 -56.95 L29.65 -56.9 29.7 -55.4 Q30.2 -51.2 29.35 -48.25 L29.85 -47.95 30.05 -47.85 30.6 -47.5 30.6 -50.75 30.5 -57.2 30.5 -58.4 M29.1 -58.7 L30.2 -60.4 Q31.0 -61.4 30.75 -62.3 30.35 -64.2 28.05 -61.25 L29.1 -58.7 M31.25 -46.0 Q30.45 -47.15 29.1 -47.4 L28.05 -44.2 30.85 -43.8 Q32.0 -44.85 31.25 -46.0 M22.7 -42.55 Q21.15 -41.65 19.15 -42.05 L16.3 -19.45 20.15 -19.7 22.85 -42.55 22.7 -42.55 M30.15 -42.5 L30.2 -43.05 27.55 -43.3 26.8 -42.25 26.7 -41.7 24.0 -20.75 26.0 -18.2 Q29.25 -29.9 30.15 -42.5 M10.8 -19.85 L12.0 -20.85 14.3 -34.35 14.8 -39.1 Q14.3 -41.9 11.35 -41.65 L8.3 -40.75 Q-6.0 -37.45 -16.7 -37.7 L-19.0 -32.45 -18.2 -29.65 Q-14.8 -19.1 -10.6 -12.35 L-9.75 -12.35 -1.65 -12.7 Q1.25 -13.6 5.6 -16.4 L6.0 -16.65 6.6 -16.95 10.5 -19.6 10.8 -19.85 M6.25 -9.9 L2.3 -9.55 2.45 -8.1 4.45 -8.1 6.25 -7.85 6.25 -9.9 M12.35 -6.3 L11.8 -6.45 6.85 -6.8 6.45 -6.75 6.35 -6.75 6.2 -6.75 5.75 -6.75 5.6 -6.75 5.45 -6.75 5.25 -6.75 4.7 -6.7 2.45 -6.45 2.45 -5.7 2.45 -4.95 2.45 -3.5 Q2.65 -4.05 3.05 -4.05 L14.7 -4.95 13.95 -5.55 12.35 -6.3 M1.45 -7.35 L1.55 -9.8 -1.75 -8.6 -1.75 -6.5 -1.75 -0.6 -1.15 0.15 -0.35 0.95 Q1.05 2.55 1.6 4.95 L1.65 5.0 1.85 6.2 1.9 10.4 1.9 10.5 1.9 10.6 Q1.45 16.5 -1.4 19.05 L0.3 18.7 2.3 18.3 Q3.7 17.5 5.0 14.2 5.85 11.5 5.85 8.2 L5.75 6.35 5.1 3.25 3.7 -1.1 3.0 -1.55 2.55 -1.85 1.55 -2.9 Q1.15 -3.95 1.4 -6.2 L1.45 -7.35 M17.2 -3.6 L15.55 -4.15 4.2 -3.25 5.1 -3.05 5.5 -2.5 6.05 -1.0 6.25 1.45 6.3 7.45 6.35 9.1 6.4 14.35 6.1 15.3 Q6.25 14.3 5.85 12.55 L4.75 16.35 4.85 16.4 5.0 16.4 5.05 16.4 5.1 16.4 5.5 16.3 5.75 16.1 5.95 15.8 6.0 15.75 5.85 16.5 18.1 13.95 Q18.8 12.6 18.85 5.8 L18.85 5.15 18.85 4.9 18.75 0.9 18.7 0.15 18.45 -1.95 17.85 -3.4 17.2 -3.6 M3.05 -2.75 Q4.2 -1.85 5.0 0.45 L6.0 4.25 Q6.0 -1.25 5.1 -2.5 L3.05 -2.75 M18.7 -2.0 Q19.1 0.35 19.15 5.65 L19.15 12.3 18.5 14.45 Q17.6 14.8 18.1 14.8 19.25 14.2 19.75 11.5 20.5 7.7 19.5 -3.25 L18.25 -3.5 18.6 -2.5 18.7 -2.0 M15.95 -4.65 Q20.4 -4.05 21.2 -5.2 L14.15 -6.05 15.95 -4.65 M25.4 -8.1 L25.4 -12.95 20.4 -18.95 16.2 -18.7 Q11.75 -15.25 2.45 -10.15 L22.45 -12.45 22.6 -8.6 Q22.7 -5.95 22.2 -4.8 L20.15 -3.25 Q22.0 8.3 19.7 14.3 L19.65 14.45 20.85 14.2 24.75 13.4 Q23.05 10.6 22.7 6.65 L22.7 5.7 22.7 5.65 Q22.65 4.3 22.85 3.15 23.2 1.15 24.1 -0.45 L25.0 -1.8 25.4 -2.4 25.4 -2.55 25.4 -8.1 M27.15 -19.7 L26.55 -17.3 27.95 -15.0 26.8 -11.95 29.45 -7.85 Q31.6 -8.65 33.3 -7.6 L27.8 -22.25 27.15 -19.7 M28.3 -8.0 L26.0 -11.8 26.0 -8.5 28.3 -8.0 M26.0 -7.6 L26.0 -4.95 28.8 -4.3 28.7 -7.1 26.0 -7.6 M30.0 -7.35 L29.6 -7.25 29.45 -7.2 29.6 -3.9 Q33.4 -4.05 34.8 -0.35 36.2 2.95 34.95 6.8 L34.3 8.45 Q33.9 9.35 34.7 9.75 L35.65 8.15 Q37.1 5.4 37.25 2.45 37.5 -1.85 35.45 -5.05 34.05 -7.05 32.2 -7.45 L31.7 -7.5 30.0 -7.35 M35.2 2.7 Q30.2 -0.25 24.75 -0.2 23.3 2.35 23.35 5.0 L33.55 8.85 Q35.3 6.4 35.2 2.7 M18.7 18.9 L6.7 21.2 -7.4 23.9 -12.6 24.05 -14.9 23.65 -17.1 22.8 -17.85 22.5 -18.1 22.6 -18.5 22.85 -19.0 23.25 -20.9 22.1 -22.05 21.45 Q-23.85 23.0 -24.1 23.75 L-23.4 24.1 Q-18.05 26.8 -14.1 27.7 L-10.45 28.1 -9.8 28.1 1.4 26.2 6.95 25.2 Q16.95 23.35 23.9 21.55 L33.55 18.55 31.25 15.85 Q29.45 16.6 21.2 18.4 L18.7 18.9 M25.45 13.85 L25.4 13.8 25.2 13.85 18.0 15.45 17.5 15.1 16.85 14.95 Q16.95 15.85 16.6 15.85 L12.35 16.75 8.3 17.75 6.15 17.15 5.1 17.15 4.2 17.0 2.85 18.35 2.75 18.4 1.7 18.95 Q-0.05 19.7 -2.8 20.3 L-7.4 21.2 Q-11.45 21.55 -13.65 18.65 L-16.3 19.15 -15.95 20.3 -17.45 21.85 -10.05 23.5 0.15 21.7 Q22.7 17.5 30.2 15.35 L25.45 13.85 M8.05 16.75 L7.55 16.85 8.05 17.0 8.05 16.75 M10.35 16.25 Q8.65 16.6 8.7 16.85 L12.5 16.1 16.2 15.1 10.35 16.25 M1.65 7.55 Q-2.15 4.85 -11.35 4.9 L-11.6 5.15 Q-11.75 6.4 -12.6 8.45 L-13.75 11.5 Q-14.8 15.8 -12.35 18.75 -9.95 21.55 -4.85 19.55 -1.0 17.9 0.15 15.45 1.65 12.65 1.65 7.55 M-15.05 76.2 L-14.5 76.05 -14.4 76.0 3.45 73.6 9.45 66.95 11.5 64.8 12.0 60.6 Q14.3 44.25 14.55 39.05 15.05 33.15 16.6 31.25 18.1 28.95 19.75 29.85 16.8 30.35 15.95 33.55 L15.3 40.2 15.25 40.6 14.25 48.85 12.25 65.05 4.2 74.1 1.8 74.5 Q0.75 78.3 1.9 87.0 5.95 88.0 9.9 88.4 L9.75 88.4 10.4 88.45 13.65 88.65 15.25 88.7 15.45 88.7 15.55 88.7 17.6 88.65 18.2 88.6 17.95 88.65 13.1 89.6 12.1 89.55 12.0 89.5 2.2 87.85 2.95 92.85 4.75 95.15 9.95 102.15 Q18.25 104.45 22.7 105.05 34.3 106.6 37.9 102.25 38.95 101.1 38.3 99.2 L37.75 98.1 Q35.15 93.75 26.35 84.9 L25.85 84.4 25.75 84.3 25.6 85.1 Q25.35 85.95 24.9 86.4 L24.85 86.45 24.8 86.55 24.65 86.75 24.4 87.0 24.2 87.15 24.1 87.2 24.0 87.3 23.95 87.35 23.85 87.45 21.75 87.85 21.6 87.9 22.05 87.7 22.15 87.7 22.95 87.25 24.2 86.2 Q24.95 85.25 25.15 84.05 25.45 82.05 24.45 71.25 L24.25 69.0 21.2 69.9 18.85 69.25 17.2 68.9 13.6 68.05 13.5 68.0 13.15 67.9 12.0 67.45 13.3 67.7 18.85 68.75 21.2 68.85 24.1 67.2 29.1 62.65 31.25 60.1 31.6 56.4 Q32.0 46.45 30.35 37.75 L28.95 31.15 Q28.65 27.95 30.2 26.2 31.75 24.25 34.55 24.9 L33.8 19.4 Q26.55 22.35 1.4 26.95 L-10.05 28.85 -14.15 28.5 Q-18.15 27.6 -23.75 24.85 L-24.2 24.65 Q-22.45 43.5 -18.6 53.7 L-17.3 57.15 -17.2 57.4 -15.8 58.7 Q-16.7 62.65 -20.5 65.05 L-21.05 64.65 -21.8 64.05 -23.2 65.3 -22.5 66.0 Q-21.65 67.15 -21.9 69.4 -22.1 70.5 -22.45 71.3 L-22.45 71.35 Q-22.9 72.3 -23.65 72.85 L-23.85 72.95 -23.5 72.3 Q-22.95 70.85 -22.8 69.15 -22.8 66.55 -24.2 66.2 -22.8 69.65 -24.7 73.2 L-25.4 74.3 Q-27.0 76.55 -29.3 77.4 -29.7 79.65 -30.45 81.35 -31.1 82.75 -32.0 83.8 L-32.5 83.8 -32.85 83.9 -33.2 86.0 -33.8 89.55 -28.1 92.9 -26.9 93.5 -25.1 94.35 -24.95 94.4 Q-20.7 96.3 -16.7 97.15 L-15.25 97.45 -14.8 97.5 -4.0 96.7 -2.7 96.15 -1.6 95.6 -1.25 95.4 Q1.8 93.85 2.2 92.6 L1.4 89.0 Q0.5 83.0 0.5 79.15 0.45 76.25 0.9 74.55 L0.9 74.5 0.2 74.6 -11.35 76.15 Q-14.75 76.5 -16.45 77.25 L-17.2 77.7 -16.25 76.7 Q-15.75 76.4 -15.05 76.2 M11.15 34.25 Q10.3 32.15 7.55 32.4 L6.0 32.8 Q3.45 34.05 3.6 37.75 3.85 41.6 7.25 41.45 9.95 41.4 10.95 39.2 11.4 38.2 11.5 36.75 11.5 35.25 11.15 34.25 M4.45 31.4 L7.4 30.65 Q13.25 30.25 13.3 39.3 L12.9 48.35 Q12.6 54.2 12.0 56.75 10.35 61.7 5.85 66.95 1.65 72.2 -2.8 72.55 -5.25 72.7 -6.9 71.95 -8.9 70.9 -9.05 69.5 -9.2 68.25 -7.0 65.7 L-4.45 62.65 Q-2.15 59.7 -0.5 55.25 2.05 49.1 2.2 40.7 L2.2 35.2 Q2.55 32.55 4.45 31.4 M8.05 31.4 Q9.45 31.55 11.35 33.45 9.8 30.85 6.75 31.25 2.55 31.9 2.8 36.1 3.3 31.15 8.05 31.4 M10.1 41.85 L10.15 41.85 Q11.65 42.5 12.35 44.25 12.6 36.5 11.85 34.6 13.1 39.1 9.25 41.55 L9.2 41.6 10.1 41.85 M5.9 42.05 L6.0 42.0 Q3.45 41.45 2.8 38.4 3.2 54.85 -5.1 64.55 -2.8 62.25 -0.15 63.25 -0.5 58.4 3.95 57.4 2.3 55.75 3.05 53.2 3.85 50.65 6.0 50.15 3.45 49.35 3.6 46.25 L3.6 46.2 Q3.6 45.15 3.85 44.35 L3.8 44.4 4.1 43.7 5.45 42.3 5.9 42.05 M5.35 43.35 Q4.3 44.25 4.1 45.95 4.0 47.5 4.65 48.4 L4.8 48.6 4.95 48.75 5.0 48.85 5.35 49.1 Q6.65 50.0 8.4 49.6 L8.55 49.55 8.7 49.55 8.8 49.5 8.95 49.45 9.1 49.4 9.25 49.35 11.35 48.1 11.75 47.5 Q12.35 46.2 11.6 44.25 10.45 41.95 7.65 42.35 6.2 42.6 5.35 43.35 M34.55 25.9 Q34.4 25.25 33.55 25.25 L32.25 25.55 Q33.65 25.4 34.55 25.9 M32.15 26.3 Q29.8 26.8 30.1 31.0 30.2 35.2 32.25 35.6 34.45 36.05 35.4 34.3 35.95 33.15 36.1 31.15 L36.05 29.3 Q35.6 26.1 32.9 26.3 32.4 26.15 32.15 26.3 M29.6 31.55 L29.7 31.8 29.7 31.55 Q29.45 27.05 32.0 25.65 29.2 26.65 29.6 30.9 L29.6 31.55 M35.6 37.4 Q35.3 36.6 34.7 36.25 32.0 35.6 31.5 39.55 31.1 43.35 32.9 43.65 33.75 43.8 34.25 43.35 L34.55 43.0 Q35.7 41.95 35.85 39.55 35.9 38.2 35.6 37.4 M34.25 50.85 L34.95 50.55 Q36.2 49.25 36.1 46.7 L36.05 46.1 Q35.75 44.05 34.3 44.25 L33.55 44.4 33.5 44.4 33.1 44.85 Q32.8 45.2 32.65 45.85 32.35 46.7 32.25 48.0 L32.25 48.7 32.25 49.25 32.45 50.15 32.6 50.45 32.7 50.6 Q33.0 50.95 33.55 51.0 L34.05 50.9 34.25 50.85 M32.25 46.3 L33.15 44.15 Q32.75 44.25 31.9 43.65 L32.25 46.3 M31.25 39.15 Q31.25 38.75 32.4 36.25 31.0 36.0 29.85 33.2 L31.25 39.15 M34.3 52.4 Q34.05 51.75 33.7 51.85 L33.55 51.95 Q33.2 52.1 33.0 52.4 32.0 53.7 32.5 57.55 L32.6 58.2 32.65 58.4 32.65 58.45 32.7 58.4 33.5 57.8 Q34.3 56.9 34.55 55.25 L34.55 54.95 34.5 53.75 34.45 52.95 34.4 52.7 34.3 52.4 M32.25 50.55 L32.4 51.9 Q32.4 51.5 32.9 51.4 32.75 51.0 32.25 50.55 M31.05 62.05 L31.35 61.1 30.2 62.5 Q29.8 62.9 29.35 63.8 L30.05 63.5 Q30.65 63.05 31.05 62.05 M6.0 58.0 L6.75 58.2 8.1 58.0 9.35 57.4 9.4 57.35 10.0 56.95 10.45 56.55 10.5 56.5 Q11.7 55.15 11.25 53.2 10.45 50.15 7.0 50.8 6.25 50.85 5.65 51.2 L5.45 51.3 5.4 51.3 Q4.35 51.95 3.85 53.45 3.3 54.65 3.55 55.65 L3.6 55.7 Q3.8 56.5 4.65 57.2 L4.75 57.3 4.8 57.35 5.4 57.75 6.0 58.0 M5.1 65.2 L6.9 64.05 Q8.4 62.25 7.8 60.1 7.45 59.1 6.8 58.6 6.4 58.3 5.9 58.15 L4.25 58.0 4.1 58.05 4.0 58.05 3.95 58.05 2.8 58.45 1.75 59.3 1.45 59.7 Q1.0 60.4 0.8 61.5 L0.75 61.75 0.75 61.8 Q0.25 64.55 2.8 65.45 L2.85 65.45 3.15 65.45 3.45 65.45 3.55 65.45 5.1 65.2 M8.7 62.0 L9.0 61.4 11.1 56.5 Q9.95 58.15 7.65 58.55 8.65 59.75 8.65 61.4 L8.65 61.45 8.55 62.4 8.7 62.0 M-6.1 67.1 Q-6.3 67.85 -6.1 68.75 -5.4 71.85 -1.8 71.3 L-1.65 71.3 Q0.2 70.95 1.15 70.05 2.05 69.15 2.2 67.75 2.3 65.95 0.9 64.65 -0.65 63.65 -2.4 63.9 L-2.5 63.95 -2.6 63.95 -3.15 64.15 -3.65 64.35 -5.2 65.55 Q-5.9 66.3 -6.1 67.1 M2.8 65.95 Q3.7 67.7 2.2 69.8 4.35 68.25 6.4 65.2 4.85 66.45 2.8 65.95 M12.0 52.7 L12.25 46.95 Q11.6 48.85 9.2 50.15 10.95 50.65 12.0 52.7 M2.45 93.6 L0.8 95.15 Q-5.7 100.3 -16.7 97.95 -26.15 95.9 -34.05 90.3 L-34.3 90.3 -34.45 90.45 -34.55 90.55 -34.55 90.95 -37.75 94.75 -38.5 95.8 -38.5 95.85 -38.5 95.9 -37.6 95.85 Q-35.65 95.95 -31.75 97.15 L-24.85 103.15 -18.35 109.55 Q-17.1 110.65 -13.25 112.2 -5.5 115.4 5.75 111.7 L9.2 110.35 9.35 110.25 9.4 110.25 9.45 110.2 10.0 109.85 11.35 108.75 11.45 108.6 11.65 108.35 11.85 107.95 12.1 107.2 12.1 106.75 12.1 106.6 11.25 104.95 2.6 93.85 2.45 93.6 M38.95 117.5 L39.65 116.55 Q40.8 114.35 40.3 109.15 39.8 103.95 39.15 101.9 L37.8 103.6 35.6 105.15 Q31.75 107.05 25.0 106.4 L25.15 106.4 24.15 106.3 17.75 105.15 17.5 105.1 15.15 104.5 10.95 103.3 13.15 106.35 13.3 107.15 13.4 107.5 13.45 107.9 13.45 107.95 14.3 112.5 14.9 119.1 16.95 119.7 Q24.2 121.65 26.65 121.65 31.7 121.55 35.65 119.6 L37.25 118.7 38.95 117.5 M11.65 127.3 Q14.15 125.15 14.3 123.95 L14.15 119.75 Q14.15 117.7 12.75 108.0 L10.6 110.45 9.5 111.15 7.1 112.3 2.25 113.75 1.3 113.9 1.5 113.85 0.8 114.0 -2.75 114.35 -3.25 114.35 -4.1 114.4 Q-12.9 114.75 -18.75 110.3 L-26.75 102.55 Q-30.35 99.2 -31.85 98.3 L-33.0 97.7 Q-35.55 96.55 -38.25 96.7 L-39.15 96.8 Q-39.65 97.4 -39.9 100.1 -40.55 109.0 -40.15 111.6 L-39.0 112.95 Q-36.15 116.3 -33.25 118.85 L-32.0 119.95 -28.3 122.75 -25.85 124.25 -24.95 124.7 Q-13.15 130.8 -3.45 131.45 3.2 132.05 8.55 129.25 L11.35 127.5 11.65 127.3 M-18.95 -102.55 L-17.6 -88.55 Q-16.2 -87.75 -12.45 -87.45 L-12.1 -87.45 -11.85 -87.45 -11.6 -87.4 -11.85 -103.2 -19.0 -103.6 -18.95 -102.55 M-16.9 -87.4 L-17.6 -87.65 -17.35 -84.65 -17.2 -82.55 Q-16.05 -81.95 -13.6 -81.75 L-12.65 -81.7 -11.8 -81.65 -11.65 -81.65 -11.55 -81.65 -11.45 -81.65 -11.5 -82.45 -11.6 -86.5 Q-15.3 -86.9 -16.9 -87.4 M-16.5 -81.4 L-16.95 -81.55 -16.95 -81.4 -16.9 -81.25 -16.8 -80.6 -16.55 -78.6 -14.25 -77.55 -11.35 -76.2 -11.45 -80.9 Q-14.35 -80.7 -16.5 -81.4 M-13.0 -74.3 L-10.85 -73.55 Q1.35 -69.6 12.5 -70.05 4.0 -70.7 -8.15 -74.35 L-9.65 -74.8 -10.2 -74.95 -12.85 -75.8 -13.0 -74.3 M-2.6 -6.3 L-2.55 -8.5 -8.4 -8.25 -6.9 -5.45 -6.9 -5.25 -6.9 -5.0 -6.9 -1.65 -2.7 -1.0 -2.7 -1.3 -2.6 -6.3 M-16.45 8.6 Q-18.25 13.55 -16.8 18.4 L-13.9 17.75 Q-14.8 15.6 -14.8 13.4 -14.8 12.15 -13.4 9.35 -11.45 5.25 -11.6 1.45 L-11.6 1.3 Q-14.95 4.0 -16.45 8.6 M-17.6 58.3 L-21.15 63.5 -20.55 64.1 -20.4 64.15 Q-17.2 61.45 -16.7 58.95 L-17.45 58.35 -17.6 58.3 M-7.65 67.45 Q-8.4 68.45 -8.3 69.9 -6.65 72.3 -3.45 71.8 -5.6 71.8 -6.35 69.65 -7.25 67.6 -6.25 65.8 L-7.65 67.45 M-30.65 73.9 Q-30.45 75.85 -29.45 76.3 -28.4 76.7 -27.35 75.95 L-27.25 75.85 -25.75 73.95 Q-24.25 71.05 -24.5 68.5 -24.75 66.7 -26.0 66.95 -27.1 66.95 -28.0 67.45 L-29.45 68.75 Q-30.7 70.5 -30.7 72.8 L-30.65 73.9 M-30.9 80.9 L-30.7 80.35 -30.4 79.65 Q-29.65 77.9 -29.85 77.3 L-30.7 76.15 Q-31.5 75.5 -31.35 74.9 L-32.2 75.65 -33.15 76.8 -33.3 77.0 -33.65 77.7 Q-34.1 78.65 -34.05 79.7 L-33.5 81.65 Q-32.9 82.75 -32.25 82.65 -31.6 82.65 -30.9 80.9" fill="#000000" fill-rule="evenodd" stroke="none"/>
    <path d="M36.05 -107.1 L35.85 -107.0 29.45 -106.8 Q19.9 -107.95 15.2 -110.2 L9.35 -113.15 Q6.25 -114.3 1.8 -114.55 L-6.75 -114.3 Q-16.2 -114.3 -22.15 -116.6 L-22.05 -116.85 -21.2 -118.85 -20.85 -119.5 Q-11.2 -131.1 -0.85 -129.7 9.6 -133.2 29.2 -114.1 L36.05 -107.1 M9.2 -122.35 L9.55 -122.25 -1.35 -128.55 Q-12.75 -130.1 -21.65 -117.5 -9.45 -125.15 3.95 -123.35 L5.05 -123.2 9.2 -122.35 M34.95 -99.4 L35.05 -99.4 37.25 -99.5 36.5 -93.3 Q31.85 -92.4 18.5 -93.5 L5.75 -94.7 -7.1 -74.9 -10.7 -75.9 -10.95 -103.1 -8.8 -103.2 -9.55 -103.35 -11.4 -103.6 -9.05 -103.6 -27.6 -106.2 Q-29.9 -107.0 -29.65 -108.5 L-22.55 -115.3 -22.95 -115.35 -22.8 -115.45 -22.55 -115.45 -17.0 -112.5 -16.95 -112.45 Q-0.1 -101.25 19.4 -99.25 28.25 -98.4 34.95 -99.4 M33.1 -83.45 Q34.0 -80.6 33.15 -77.95 27.65 -75.8 20.8 -77.95 15.05 -79.75 10.95 -83.2 26.0 -80.9 33.1 -83.45 M29.4 -76.2 L32.25 -76.95 Q31.6 -75.55 29.7 -74.3 L27.8 -73.0 Q23.1 -70.3 13.65 -70.8 L13.3 -70.85 15.45 -71.1 Q24.7 -72.15 29.4 -76.2 M3.65 -72.15 L-4.7 -74.2 1.65 -85.85 1.45 -86.05 9.35 -83.6 13.0 -80.65 13.45 -80.4 17.65 -78.15 Q13.75 -70.55 3.6 -72.25 L3.65 -72.15 M2.4 -60.95 L6.5 -59.75 9.95 -58.6 Q10.6 -58.85 11.35 -60.75 L13.0 -63.45 13.6 -64.15 Q19.6 -63.7 24.15 -65.4 25.5 -64.35 26.65 -62.55 29.05 -58.85 29.2 -53.65 29.35 -48.55 27.3 -44.6 L26.55 -43.45 26.0 -42.25 23.2 -20.6 25.15 -17.8 26.0 -16.4 Q27.4 -14.9 26.55 -13.1 L22.2 -17.9 20.9 -19.7 21.45 -22.5 23.7 -42.9 25.5 -44.85 Q28.3 -48.8 27.4 -54.75 L26.6 -58.0 26.2 -58.9 26.25 -58.85 Q22.0 -68.35 16.35 -61.55 L16.3 -61.55 Q12.65 -58.65 12.9 -51.95 13.15 -44.2 18.5 -42.25 L15.3 -18.95 Q9.95 -15.05 3.05 -11.45 -0.75 -9.4 -5.2 -9.15 L-8.3 -9.0 -9.3 -11.45 -9.35 -11.45 -1.75 -11.8 Q-0.9 -11.95 2.3 -13.6 L9.45 -17.9 12.65 -20.35 13.5 -24.95 14.9 -34.25 14.95 -34.55 15.05 -35.0 15.4 -37.45 15.5 -38.0 15.55 -38.45 15.55 -38.8 15.55 -38.85 15.55 -39.35 Q14.8 -42.05 12.5 -42.55 L9.05 -41.9 -0.65 -39.85 Q-1.75 -42.65 -1.15 -44.3 L-1.4 -44.3 5.35 -45.75 Q9.7 -46.75 10.1 -47.9 L10.1 -49.4 9.95 -49.95 9.75 -53.5 9.8 -53.65 9.7 -53.85 9.7 -54.25 9.7 -54.65 9.2 -55.05 5.85 -56.3 1.5 -57.5 Q1.3 -59.85 2.4 -60.95 M0.25 -67.25 Q7.05 -64.85 12.7 -64.25 11.75 -63.1 10.95 -61.55 10.2 -59.65 9.7 -59.5 L8.15 -59.85 6.5 -60.65 6.4 -60.7 6.25 -60.75 2.95 -61.7 Q3.2 -64.15 4.7 -65.0 L2.95 -64.35 Q0.65 -63.35 0.4 -62.55 L0.4 -62.3 -4.1 -62.95 -0.9 -66.1 0.25 -67.25 M-19.15 -2.3 L-19.0 -2.4 Q-19.85 -2.5 -20.75 -2.95 -26.4 -6.6 -29.25 -14.6 L-31.55 -24.05 -32.25 -31.8 Q-33.0 -44.6 -21.8 -59.85 -24.3 -64.9 -22.05 -69.0 -18.45 -72.95 -12.85 -70.8 L-17.0 -72.9 -15.1 -72.75 -13.15 -72.15 Q-11.05 -71.0 -8.9 -68.3 -8.85 -70.0 -9.25 -71.2 -4.85 -69.1 -0.8 -67.6 L-8.05 -60.0 Q-10.6 -57.45 -10.95 -56.7 L-19.1 -34.0 Q-20.85 -30.2 -23.6 -30.25 L-23.65 -30.25 -23.85 -30.4 -24.1 -30.3 -24.6 -30.4 -23.65 -29.7 -23.25 -29.3 -7.75 -5.2 -7.65 -3.15 -7.75 -1.25 Q-13.75 0.4 -16.7 7.45 -19.65 14.45 -16.95 20.05 L-18.75 21.95 Q-22.2 18.15 -21.8 11.8 -21.3 5.8 -17.95 1.05 -14.4 -3.9 -9.45 -5.05 L-8.05 -5.6 Q-8.4 -5.95 -10.2 -5.6 -16.55 -3.8 -20.15 3.75 -22.3 7.95 -22.45 12.55 -22.95 18.25 -20.4 21.3 L-31.85 14.45 Q-33.65 7.7 -33.65 6.4 -33.65 0.8 -29.05 -5.2 L-24.7 -1.5 Q-20.9 0.15 -18.35 -2.65 L-19.15 -2.3 M-21.9 -29.65 Q-20.3 -29.95 -19.5 -31.2 L-19.4 -30.85 Q-20.6 -29.6 -21.9 -29.65 M1.0 -55.9 Q4.5 -54.95 8.0 -53.2 9.35 -49.2 8.95 -48.0 L8.85 -47.8 Q7.65 -47.1 4.1 -46.35 L3.7 -46.25 -0.45 -45.35 -1.75 -45.1 Q-2.9 -52.1 1.0 -55.9 M-13.6 -44.0 Q-10.85 -49.2 -10.05 -54.75 -9.9 -55.8 -9.2 -56.9 -4.2 -57.25 0.85 -55.95 L-1.4 -56.15 Q-3.6 -52.15 -2.75 -44.95 L-4.35 -44.65 -13.6 -44.0 M30.45 -70.55 L30.55 -70.45 30.25 -70.2 30.45 -70.55 M32.8 -62.1 L32.75 -60.0 Q32.6 -54.9 31.5 -50.55 L31.25 -60.65 31.5 -62.55 30.1 -64.05 27.9 -67.5 29.65 -69.4 Q32.55 -65.65 32.7 -59.9 L32.8 -62.1 M24.8 -65.65 L26.05 -66.2 28.7 -63.2 27.95 -62.4 25.5 -65.1 24.8 -65.65 M27.0 -66.8 L27.35 -67.05 Q28.8 -65.3 29.35 -63.8 L28.8 -63.3 Q28.65 -64.55 27.0 -66.8 M23.25 -62.2 L22.85 -62.4 Q21.0 -63.25 19.05 -62.85 21.2 -63.65 23.25 -62.2 M30.5 -58.4 L30.5 -57.2 30.35 -57.85 Q30.45 -50.3 29.85 -47.95 L29.35 -48.25 Q30.2 -51.2 29.7 -55.4 L29.65 -56.9 29.7 -56.8 30.5 -58.4 M30.6 -50.75 L30.6 -47.5 30.05 -47.85 30.6 -50.75 M29.1 -58.7 L28.05 -61.25 Q30.35 -64.2 30.75 -62.3 31.0 -61.4 30.2 -60.4 L29.1 -58.7 M31.25 -46.0 Q32.0 -44.85 30.85 -43.8 L28.05 -44.2 29.1 -47.4 Q30.45 -47.15 31.25 -46.0 M29.95 -42.65 L30.15 -42.5 Q29.25 -29.9 26.0 -18.2 L24.0 -20.75 26.7 -41.7 Q27.95 -42.8 28.95 -42.85 29.5 -39.55 27.65 -28.4 L26.05 -19.2 Q27.5 -23.9 29.95 -42.65 M-9.75 -12.35 Q-17.5 -30.5 -17.6 -32.2 -17.7 -33.05 -16.35 -36.6 -9.85 -36.25 -4.2 -36.8 -2.6 -27.75 6.0 -16.65 L5.6 -16.4 Q1.25 -13.6 -1.65 -12.7 L-9.75 -12.35 M-0.35 -37.3 Q4.4 -38.05 8.4 -39.6 L11.6 -40.25 Q13.75 -40.15 13.3 -36.55 L10.8 -19.85 10.5 -19.6 6.6 -16.95 Q-3.9 -29.2 -0.35 -37.3 M2.45 -5.7 L2.45 -6.45 4.7 -6.7 5.25 -6.75 5.45 -6.75 5.6 -6.75 5.75 -6.75 6.2 -6.75 6.35 -6.75 6.45 -6.75 6.85 -6.8 11.8 -6.45 12.35 -6.3 2.45 -5.7 M13.95 -5.55 L14.7 -4.95 3.05 -4.05 Q2.65 -4.05 2.45 -3.5 L2.45 -4.95 13.95 -5.55 M1.45 -7.35 L1.4 -6.2 Q1.15 -3.95 1.55 -2.9 L2.55 -1.85 3.0 -1.55 2.2 -1.85 Q9.3 13.05 0.0 18.55 L0.3 18.7 -1.4 19.05 Q1.45 16.5 1.9 10.6 L1.9 10.5 Q2.4 7.3 1.9 5.5 L1.65 5.0 1.6 4.95 Q1.05 2.55 -0.35 0.95 L-1.15 0.15 -1.75 -0.6 -1.75 -6.5 1.45 -7.35 M5.5 -2.5 L5.1 -3.05 4.2 -3.25 15.55 -4.15 17.2 -3.6 5.5 -2.5 M18.45 -1.95 L18.7 0.15 6.5 1.3 6.4 3.35 18.75 1.85 18.75 0.9 18.85 4.9 18.65 4.0 6.5 5.9 6.3 7.45 6.25 1.45 6.05 -1.0 18.45 -1.95 M18.85 5.8 Q18.8 12.6 18.1 13.95 L5.85 16.5 6.0 15.75 5.95 15.8 6.0 15.7 6.0 15.6 6.05 15.55 6.4 14.35 6.35 9.1 18.65 6.9 18.85 5.8 M22.45 -12.45 L22.45 -12.55 20.15 -17.45 24.85 -12.95 25.4 -8.1 25.4 -2.55 25.0 -1.8 24.1 -0.45 Q23.2 1.15 22.85 3.15 22.45 4.55 22.6 5.25 L22.7 5.65 22.7 5.7 22.7 6.65 Q23.05 10.6 24.75 13.4 L20.85 14.2 19.7 14.3 Q22.0 8.3 20.15 -3.25 L22.2 -4.8 Q22.7 -5.95 22.6 -8.6 L22.45 -12.45 M27.15 -19.7 L27.8 -22.25 33.3 -7.6 Q31.6 -8.65 29.45 -7.85 L26.8 -11.95 27.95 -15.0 26.55 -17.3 27.15 -19.7 M26.0 -7.6 L28.7 -7.1 28.8 -4.3 26.0 -4.95 26.0 -7.6 M28.3 -8.0 L26.0 -8.5 26.0 -11.8 28.3 -8.0 M35.65 8.15 L34.7 9.75 Q33.9 9.35 34.3 8.45 L34.95 6.8 Q36.2 2.95 34.8 -0.35 33.4 -4.05 29.6 -3.9 L29.45 -7.2 29.6 -7.25 30.0 -7.35 Q34.4 -7.15 35.85 -2.4 38.05 3.05 35.65 8.15 M23.9 21.55 L21.3 18.55 18.7 18.9 21.2 18.4 Q29.45 16.6 31.25 15.85 L33.55 18.55 23.9 21.55 M6.7 21.2 L6.95 25.2 1.4 26.2 -9.8 28.1 -10.45 28.1 -14.1 27.7 Q-13.95 25.35 -12.6 24.05 L-7.4 23.9 6.7 21.2 M25.2 13.85 L25.4 13.8 25.45 13.85 25.2 13.85 M19.75 29.85 Q18.1 28.95 16.6 31.25 15.05 33.15 14.55 39.05 14.3 44.25 12.0 60.6 L11.5 64.8 9.45 66.95 3.45 73.6 -14.4 76.0 -14.5 76.05 -15.05 76.2 -16.2 76.55 -16.25 76.7 -17.2 77.7 -16.45 77.25 -16.45 77.3 Q-2.15 76.55 0.15 79.6 L0.5 79.15 Q0.5 83.0 1.4 89.0 L2.2 92.6 Q1.8 93.85 -1.25 95.4 L-1.6 95.6 Q-5.5 87.5 -4.6 77.8 L-6.75 77.4 -6.8 77.5 -7.4 77.4 Q-8.4 84.8 -4.2 96.4 L-3.65 96.2 -3.55 96.4 -2.7 96.15 -4.0 96.7 -14.8 97.5 -15.25 97.45 -21.65 95.5 -24.95 94.4 -25.1 94.35 -26.9 93.5 -28.1 92.9 Q-31.2 90.0 -30.45 85.3 L-30.45 85.15 Q-28.5 80.15 -23.65 72.85 -22.9 72.3 -22.45 71.35 L-22.55 71.6 -22.3 71.3 -19.9 67.85 Q-15.95 62.1 -15.8 58.7 L-16.0 58.2 Q-15.4 58.7 -15.4 58.3 L-14.15 28.5 -10.05 28.85 1.4 26.95 Q26.55 22.35 33.8 19.4 L34.55 24.9 Q31.75 24.25 30.2 26.2 28.65 27.95 28.95 31.15 L30.35 37.75 Q32.0 46.45 31.6 56.4 L31.25 60.1 29.1 62.65 24.1 67.2 21.2 68.85 18.85 68.75 13.3 67.7 15.2 63.8 Q15.7 54.1 19.75 29.85 M11.15 34.25 Q11.5 35.25 11.5 36.75 11.4 38.2 10.95 39.2 9.95 41.4 7.25 41.45 3.85 41.6 3.6 37.75 3.45 34.05 6.0 32.8 L7.55 32.4 Q10.3 32.15 11.15 34.25 M4.45 31.4 Q2.55 32.55 2.2 35.2 L2.2 40.7 Q2.05 49.1 -0.5 55.25 -2.15 59.7 -4.45 62.65 L-7.0 65.7 Q-9.2 68.25 -9.05 69.5 -8.9 70.9 -6.9 71.95 -5.25 72.7 -2.8 72.55 1.65 72.2 5.85 66.95 10.35 61.7 12.0 56.75 12.6 54.2 12.9 48.35 L13.3 39.3 Q13.25 30.25 7.4 30.65 L4.45 31.4 M6.65 33.45 L6.7 33.4 5.5 33.95 Q2.55 36.0 4.45 39.05 6.2 42.15 9.25 40.25 7.15 40.95 5.6 38.55 3.55 35.35 6.65 33.45 M8.15 34.6 Q6.75 35.1 7.4 36.9 7.9 38.55 9.35 38.05 10.7 37.5 10.2 35.75 9.55 34.05 8.15 34.6 M9.25 41.55 L10.1 41.85 9.2 41.6 9.25 41.55 M8.4 49.6 L9.45 49.1 9.5 49.05 Q7.15 49.95 5.5 47.35 3.95 45.05 5.35 43.35 6.2 42.6 7.65 42.35 10.45 41.95 11.6 44.25 12.35 46.2 11.75 47.5 L11.35 48.1 9.25 49.35 9.1 49.4 8.95 49.45 8.8 49.5 8.7 49.55 8.55 49.55 8.4 49.6 M8.3 43.4 Q6.75 44.15 7.4 45.65 8.15 47.45 9.45 46.85 11.1 46.3 10.35 44.65 9.8 42.85 8.3 43.4 M1.8 74.5 L1.75 75.25 1.65 75.1 1.8 74.5 M9.75 88.4 Q5.55 87.7 3.55 85.6 2.95 83.05 2.8 81.2 L3.2 77.3 Q7.0 76.0 9.05 74.25 10.55 72.95 13.15 68.0 L21.0 72.65 20.05 73.1 Q20.5 80.6 21.95 87.5 L22.05 87.7 21.6 87.9 18.2 88.6 17.6 88.65 18.5 88.5 15.55 88.7 15.45 88.7 15.25 88.7 13.65 88.65 10.4 88.45 9.75 88.4 M21.2 72.65 L24.45 71.25 Q25.45 82.05 25.15 84.05 24.95 85.25 24.2 86.2 21.9 74.45 22.2 72.35 L21.2 72.65 M21.2 69.9 L17.2 68.9 18.85 69.25 21.2 69.9 M13.5 68.0 L13.15 67.95 13.15 67.9 13.5 68.0 M32.15 26.3 Q32.4 26.15 32.9 26.3 35.6 26.1 36.05 29.3 L36.1 31.15 Q35.95 33.15 35.4 34.3 34.45 36.05 32.25 35.6 30.2 35.2 30.1 31.0 29.8 26.8 32.15 26.3 M33.8 27.5 Q33.0 26.9 32.0 27.05 29.6 27.7 30.2 31.65 31.1 35.6 33.55 34.95 L34.3 34.65 Q31.95 35.0 31.35 31.65 30.6 28.05 33.15 27.6 L33.8 27.5 M34.05 28.7 Q33.0 29.1 33.4 30.5 33.9 31.9 34.8 31.65 35.95 31.4 35.45 30.0 35.05 28.45 34.05 28.7 M35.6 37.4 Q35.9 38.2 35.85 39.55 35.7 41.95 34.55 43.0 L34.25 43.35 Q33.75 43.8 32.9 43.65 31.1 43.35 31.5 39.55 32.0 35.6 34.7 36.25 35.3 36.6 35.6 37.4 M35.15 37.2 Q34.7 36.5 33.8 36.6 31.85 36.6 31.6 40.1 31.6 43.5 33.65 43.5 L34.2 43.35 Q32.5 43.2 32.5 40.3 32.5 37.15 34.55 37.15 L35.15 37.2 M34.55 37.75 Q33.65 37.75 33.9 39.05 33.9 40.15 34.8 40.2 35.55 40.05 35.55 38.9 35.3 37.5 34.55 37.75 M32.65 45.85 Q32.8 45.2 33.1 44.85 L33.5 44.4 33.55 44.4 34.3 44.25 Q35.75 44.05 36.05 46.1 L36.1 46.7 Q36.2 49.25 34.95 50.55 L34.25 50.85 34.2 50.85 Q32.9 50.5 32.9 48.2 32.9 45.4 34.7 45.45 L35.2 45.5 Q34.8 44.9 34.05 44.9 33.05 44.9 32.65 45.85 M34.05 50.9 L33.55 51.0 Q33.0 50.95 32.7 50.6 L32.6 50.45 32.45 50.15 32.25 49.25 32.25 48.7 Q32.25 50.9 33.9 50.9 L34.05 50.9 M34.15 47.35 Q34.15 48.45 34.95 48.5 35.7 48.45 35.7 47.35 35.7 46.2 35.1 46.2 34.4 46.2 34.15 47.35 M33.0 52.4 Q33.2 52.1 33.55 51.95 L33.7 51.85 Q34.05 51.75 34.3 52.4 L33.65 52.2 33.0 52.4 M34.4 52.7 L34.45 52.95 34.5 53.75 34.15 53.35 Q33.5 53.8 33.55 54.35 33.55 54.95 34.05 55.5 L34.55 55.25 Q34.3 56.9 33.5 57.8 L33.0 57.25 Q32.75 56.6 32.75 55.5 32.75 52.65 34.3 52.7 L34.4 52.7 M32.7 58.4 L32.65 58.45 32.65 58.4 32.6 58.2 32.7 58.4 M31.05 62.05 Q30.5 62.3 30.2 62.9 L30.05 63.5 29.35 63.8 Q29.8 62.9 30.2 62.5 L31.35 61.1 31.05 62.05 M5.45 51.3 L5.65 51.2 Q6.25 50.85 7.0 50.8 10.45 50.15 11.25 53.2 11.7 55.15 10.5 56.5 L10.45 56.55 10.0 56.95 9.4 57.35 9.35 57.4 8.1 58.0 6.75 58.2 6.0 58.0 Q7.2 58.35 8.7 57.5 6.5 58.15 5.1 55.75 3.25 52.85 6.0 51.1 L5.45 51.3 M4.65 57.2 Q3.8 56.5 3.6 55.7 L3.95 56.4 4.65 57.2 M8.95 55.35 Q10.35 54.85 9.7 53.35 9.2 51.65 7.8 52.2 6.4 52.65 6.9 54.2 7.5 55.85 8.95 55.35 M1.45 59.7 L1.75 59.3 2.8 58.45 3.95 58.05 4.0 58.05 4.1 58.05 4.25 58.0 5.9 58.15 Q6.4 58.3 6.8 58.6 7.45 59.1 7.8 60.1 8.4 62.25 6.9 64.05 L5.1 65.2 Q3.1 65.25 2.2 62.9 1.05 59.55 4.2 58.7 L4.4 58.65 2.95 58.95 Q2.0 59.2 1.45 59.7 M3.45 65.45 L3.15 65.45 2.85 65.45 2.8 65.45 Q0.25 64.55 0.75 61.8 0.75 62.4 1.05 63.15 1.8 65.25 3.45 65.45 M7.0 61.5 Q7.0 59.95 5.5 59.95 3.95 60.2 4.2 61.75 4.45 63.5 5.85 63.25 7.25 63.0 7.0 61.5 M8.65 61.45 L8.7 62.0 8.55 62.4 8.65 61.45 M-3.65 64.35 L-3.15 64.15 -2.6 63.95 -2.5 63.95 -2.4 63.9 Q-0.65 63.65 0.9 64.65 2.3 65.95 2.2 67.75 2.05 69.15 1.15 70.05 0.2 70.95 -1.65 71.3 L-1.8 71.3 Q-5.4 71.85 -6.1 68.75 -6.3 67.85 -6.1 67.1 L-6.1 67.35 Q-6.4 70.55 -3.15 71.05 L-2.85 71.1 Q-5.2 70.35 -4.95 67.6 -4.45 64.4 -1.5 64.65 L-2.4 64.4 -3.65 64.35 M0.9 74.55 L0.2 74.6 0.9 74.5 0.9 74.55 M2.45 93.6 L1.75 94.6 0.8 95.15 2.45 93.6 M-34.45 90.45 L-34.55 90.95 -33.95 91.35 -37.3 95.5 -38.5 95.8 -37.75 94.75 -34.55 90.95 -34.55 90.55 -34.45 90.45 M-38.5 95.85 L-37.45 95.7 -37.6 95.85 -38.5 95.9 -38.5 95.85 M11.85 107.95 L8.3 109.9 9.05 109.4 Q-1.05 98.05 -0.25 97.15 -2.0 98.6 -4.2 99.35 -0.8 97.85 1.75 94.6 L2.6 93.85 11.25 104.95 12.1 106.6 12.1 106.75 12.1 107.2 11.85 107.95 M-1.1 112.75 Q-1.2 113.15 -3.55 112.75 L-4.85 112.5 Q-11.15 112.3 -16.7 108.9 -19.15 105.3 -25.75 100.25 -29.75 97.25 -32.9 96.15 -32.6 95.1 -31.1 93.1 -22.55 98.25 -15.85 99.85 L-9.3 99.85 -9.2 100.15 -6.35 105.7 Q-3.3 111.45 -1.15 112.6 L-1.1 112.75 M38.3 99.2 Q38.25 102.0 35.8 103.2 L37.25 101.9 25.4 88.4 Q23.85 90.15 19.4 91.05 L19.1 91.1 Q25.65 102.55 30.35 104.7 L26.25 104.45 22.7 103.5 13.5 102.05 4.9 89.45 15.2 90.55 Q22.7 91.3 25.5 87.25 26.2 86.1 26.35 84.9 35.15 93.75 37.75 98.1 L38.3 99.2 M25.85 84.4 L25.6 85.1 25.75 84.3 25.85 84.4 M24.9 86.4 Q21.9 91.0 12.1 89.55 L13.1 89.6 17.95 88.65 21.75 87.85 23.85 87.45 23.95 87.35 24.0 87.3 24.1 87.2 24.2 87.15 24.4 87.0 24.65 86.75 24.8 86.55 24.85 86.45 24.9 86.4 M15.05 91.45 L15.15 91.6 15.9 91.45 15.05 91.45 M22.95 87.25 L22.15 87.7 22.9 86.95 22.95 87.25 M38.95 117.5 Q38.25 105.65 37.9 104.9 L37.9 104.85 37.8 103.6 39.15 101.9 Q39.8 103.95 40.3 109.15 40.8 114.35 39.65 116.55 L38.95 117.5 M35.6 105.3 Q38.05 114.8 35.65 119.6 31.7 121.55 26.65 121.65 24.2 121.65 16.95 119.7 16.8 108.5 15.15 104.5 L17.5 105.1 17.75 105.15 24.15 106.3 25.15 106.4 Q32.0 107.35 35.6 105.3 M13.3 107.15 L13.4 107.25 13.45 107.9 13.4 107.5 13.3 107.15 M9.5 111.15 L10.6 110.45 12.75 108.0 Q14.15 117.7 14.15 119.75 L14.3 123.95 Q14.15 125.15 11.65 127.3 L11.75 127.15 9.5 111.15 M8.55 129.25 Q3.2 132.05 -3.45 131.45 -13.15 130.8 -24.95 124.7 L-25.85 124.25 -28.3 122.75 -32.0 119.95 -33.25 118.85 -33.0 97.7 -31.85 98.3 Q-30.35 99.2 -26.75 102.55 L-18.75 110.3 Q-12.9 114.75 -4.1 114.4 L-3.25 114.35 -2.75 114.35 0.8 114.0 1.3 113.9 2.25 113.75 7.1 112.3 7.6 115.15 8.15 120.1 Q8.8 126.4 8.55 129.25 M-39.0 112.95 L-40.15 111.6 Q-40.55 109.0 -39.9 100.1 -39.65 97.4 -39.15 96.8 L-38.25 96.7 -38.6 97.15 Q-40.1 101.05 -39.0 112.95 M-12.45 -87.45 Q-16.95 -89.1 -16.8 -90.6 L-18.55 -102.6 -17.6 -102.65 -12.8 -102.5 -11.85 -87.45 -12.1 -87.45 -12.45 -87.45 M-17.35 -84.65 L-17.6 -87.65 -16.9 -87.4 -12.6 -85.75 -11.65 -81.65 -11.8 -81.65 -12.65 -81.7 -13.6 -81.75 Q-16.6 -82.2 -17.35 -84.65 M-11.5 -82.45 L-11.45 -81.65 -11.55 -81.65 -11.5 -82.45 M-16.9 -81.4 L-16.55 -81.4 -16.9 -81.4 M-16.9 -81.25 L-12.1 -79.9 -11.35 -76.2 -14.25 -77.55 Q-16.0 -78.8 -16.8 -80.6 L-16.9 -81.25 M-25.15 -63.4 L-24.95 -64.0 -24.7 -62.9 -25.15 -63.4 M-3.55 -58.55 L-4.75 -58.7 -7.75 -59.0 -7.25 -59.75 -4.7 -62.15 -0.5 -61.8 -0.1 -61.65 Q-1.5 -60.25 -1.25 -58.15 L-3.55 -58.55 M-3.7 -43.9 Q-4.6 -42.1 -4.0 -39.3 L-15.6 -38.7 -13.95 -43.05 -3.7 -43.9 M-16.25 -36.9 L-16.2 -37.0 -15.75 -36.95 -16.25 -36.9 M-21.0 -0.6 Q-27.55 0.15 -29.3 -4.05 L-29.55 -3.65 Q-36.95 8.55 -29.7 14.8 -34.15 1.8 -21.0 -0.6 M-6.9 -5.25 L-2.6 -6.3 -2.7 -1.3 -6.9 -5.0 -6.9 -5.25 M-18.1 22.6 L-17.85 22.5 -17.1 22.8 -18.1 22.6 M-20.9 22.1 L-21.8 21.95 -23.4 24.1 -24.1 23.75 Q-23.85 23.0 -22.05 21.45 L-20.9 22.1 M-23.75 24.85 L-23.55 26.3 Q-23.1 37.1 -17.35 55.65 L-17.3 57.15 -18.6 53.7 Q-22.45 43.5 -24.2 24.65 L-23.75 24.85 M-21.05 64.65 L-22.5 66.0 -23.2 65.3 -21.8 64.05 -21.05 64.65 M-0.75 66.45 Q-1.9 66.05 -2.7 67.45 -3.2 69.1 -1.75 69.5 -0.5 70.25 0.0 68.5 0.65 66.95 -0.75 66.45 M-30.65 73.9 L-30.7 72.8 Q-30.7 70.5 -29.45 68.75 L-28.0 67.45 Q-27.1 66.95 -26.0 66.95 -24.75 66.7 -24.5 68.5 -24.25 71.05 -25.75 73.95 L-27.25 75.85 -27.35 75.95 Q-28.4 76.7 -29.45 76.3 -30.45 75.85 -30.65 73.9 M-26.1 68.65 Q-24.75 71.15 -27.15 73.6 -29.0 75.4 -30.3 74.25 -28.8 76.9 -26.5 74.35 -24.1 71.95 -25.5 69.4 L-26.1 68.65 M-29.7 72.2 Q-28.8 72.8 -27.8 71.55 -26.9 70.25 -27.65 69.25 -28.55 68.6 -29.45 69.9 -30.45 71.15 -29.7 72.2 M-23.5 72.3 L-25.4 74.3 -24.7 73.2 Q-22.8 69.65 -24.2 66.2 -22.8 66.55 -22.8 69.15 -22.95 70.85 -23.5 72.3 M-29.3 77.4 Q-29.05 78.8 -30.45 81.35 -29.7 79.65 -29.3 77.4 M-32.0 83.8 Q-32.7 84.65 -33.2 86.0 L-32.85 83.9 -32.5 83.8 -32.0 83.8 M-30.4 79.65 Q-29.9 77.6 -31.1 76.4 L-31.7 76.05 Q-30.1 77.45 -31.25 79.85 -32.1 81.55 -33.2 81.2 -31.95 82.4 -30.9 80.9 -31.6 82.65 -32.25 82.65 -32.9 82.75 -33.5 81.65 L-34.05 79.7 Q-34.1 78.65 -33.65 77.7 L-33.65 77.8 Q-34.05 78.95 -33.25 79.45 -32.5 79.95 -32.25 78.55 -31.75 77.15 -32.65 76.9 L-33.15 76.8 -32.2 75.65 -31.35 74.9 Q-31.5 75.5 -30.7 76.15 L-29.85 77.3 Q-29.65 77.9 -30.4 79.65" fill="#6bbd46" fill-rule="evenodd" stroke="none"/>
    <path d="M-19.8 -114.85 L-18.45 -114.55 -3.0 -113.6 -2.15 -113.65 0.5 -113.65 1.8 -112.15 Q5.85 -107.3 11.1 -108.45 L14.15 -109.45 16.1 -108.95 18.0 -108.2 Q21.15 -107.15 26.0 -106.55 L34.95 -105.9 34.7 -104.85 34.55 -103.35 35.45 -101.55 36.5 -100.25 Q20.4 -99.65 5.1 -104.35 L3.7 -104.8 2.85 -105.05 -8.8 -109.6 -12.6 -111.3 -17.15 -113.5 -17.6 -113.7 -17.8 -113.8 -18.05 -113.9 -19.8 -114.85 M9.2 -122.35 L5.05 -123.2 3.95 -123.35 Q-9.45 -125.15 -21.65 -117.5 -12.75 -130.1 -1.35 -128.55 L9.55 -122.25 9.2 -122.35 M25.4 -86.75 L30.35 -84.75 15.2 -84.2 Q11.1 -83.85 9.95 -84.1 L1.9 -86.75 25.4 -86.75 M29.4 -76.2 Q24.7 -72.15 15.45 -71.1 L13.3 -70.85 13.65 -70.8 10.35 -71.1 3.65 -72.15 3.6 -72.25 Q13.75 -70.55 17.65 -78.15 23.95 -75.35 29.4 -76.2 M-4.7 -74.2 L-6.25 -74.65 1.15 -86.15 1.45 -86.05 1.65 -85.85 -4.7 -74.2 M18.5 -68.15 L17.1 -69.45 Q18.6 -70.35 20.65 -67.8 19.25 -67.4 18.5 -68.15 M9.7 -54.25 L9.7 -53.85 9.8 -53.65 9.75 -53.5 9.95 -49.95 9.7 -51.1 9.7 -54.25 M15.55 -38.8 L15.55 -38.45 15.5 -38.0 15.55 -38.8 M-9.35 -11.45 L-9.3 -11.45 -8.3 -9.0 -8.55 -9.0 Q-9.05 -9.15 -9.45 -10.0 L-10.05 -11.45 -9.35 -11.45 M24.15 -65.4 Q19.6 -63.7 13.6 -64.15 15.8 -66.65 18.85 -66.9 21.85 -67.2 24.15 -65.4 M0.25 -67.25 L2.45 -69.45 15.8 -69.45 Q17.1 -69.1 17.5 -67.65 L16.1 -67.0 Q14.2 -66.2 12.7 -64.25 7.05 -64.85 0.25 -67.25 M18.65 -62.05 L18.85 -62.05 Q20.5 -62.3 22.3 -61.05 25.65 -58.85 26.0 -53.35 26.4 -47.9 23.45 -44.7 21.4 -42.15 18.5 -42.9 16.05 -43.55 14.55 -46.85 13.0 -49.95 13.3 -53.35 13.75 -60.65 18.65 -62.05 M-19.15 -2.3 Q-22.4 -1.15 -25.35 -3.4 L-27.8 -6.85 Q-28.7 -8.5 -32.0 -16.8 L-33.5 -20.1 -35.3 -26.2 Q-36.35 -30.55 -36.2 -33.25 L-33.8 -42.65 Q-31.9 -50.55 -28.45 -60.5 L-26.9 -65.0 Q-24.5 -71.35 -19.6 -73.0 -16.45 -74.45 -14.25 -73.75 -13.15 -73.65 -11.35 -71.85 L-9.05 -69.55 -10.05 -71.5 -11.05 -72.75 Q-6.5 -71.25 1.15 -69.8 1.25 -69.55 0.65 -69.15 L-0.8 -67.6 Q-4.85 -69.1 -9.25 -71.2 -8.85 -70.0 -8.9 -68.3 -11.05 -71.0 -13.15 -72.15 L-15.1 -72.75 -17.0 -72.9 -12.85 -70.8 Q-18.45 -72.95 -22.05 -69.0 -24.3 -64.9 -21.8 -59.85 -33.0 -44.6 -32.25 -31.8 L-31.55 -24.05 -29.25 -14.6 Q-26.4 -6.6 -20.75 -2.95 -19.85 -2.5 -19.0 -2.4 L-19.15 -2.3 M1.0 -55.9 L1.05 -55.9 0.85 -55.95 Q-4.2 -57.25 -9.2 -56.9 -9.9 -55.8 -10.05 -54.75 -10.85 -49.2 -13.6 -44.0 L-14.25 -44.05 -10.3 -56.05 -8.55 -58.2 Q0.25 -57.7 8.95 -54.25 L9.35 -48.15 8.85 -47.8 8.95 -48.0 Q9.35 -49.2 8.0 -53.2 4.5 -54.95 1.0 -55.9 M27.9 -67.5 Q26.2 -69.6 24.1 -70.7 L27.65 -71.95 Q29.3 -72.0 30.45 -70.55 L30.25 -70.2 29.45 -69.7 29.65 -69.4 27.9 -67.5 M24.8 -65.65 L22.45 -67.4 Q20.5 -68.65 19.75 -69.95 23.05 -71.35 26.65 -67.8 L27.35 -67.05 27.0 -66.8 26.9 -66.9 26.0 -66.25 26.05 -66.2 24.8 -65.65 M29.65 -56.9 L29.65 -56.95 Q29.7 -58.85 30.5 -59.5 L30.5 -58.4 29.7 -56.8 29.65 -56.9 M22.7 -42.55 L22.85 -42.55 20.15 -19.7 16.3 -19.45 19.15 -42.05 Q21.15 -41.65 22.7 -42.55 M29.95 -42.65 L29.95 -42.8 28.95 -43.05 28.95 -42.85 Q27.95 -42.8 26.7 -41.7 L26.8 -42.25 27.55 -43.3 30.2 -43.05 30.15 -42.5 29.95 -42.65 M-9.75 -12.35 L-10.6 -12.35 Q-14.8 -19.1 -18.2 -29.65 L-19.0 -32.45 -16.7 -37.7 Q-6.0 -37.45 8.3 -40.75 L11.35 -41.65 Q14.3 -41.9 14.8 -39.1 L14.3 -34.35 12.0 -20.85 10.8 -19.85 13.3 -36.55 Q13.75 -40.15 11.6 -40.25 L8.4 -39.6 Q4.4 -38.05 -0.35 -37.3 L-0.25 -37.55 -4.2 -36.8 Q-9.85 -36.25 -16.35 -36.6 -17.7 -33.05 -17.6 -32.2 -17.5 -30.5 -9.75 -12.35 M-1.75 -6.5 L-1.75 -8.6 1.55 -9.8 1.45 -7.35 -1.75 -6.5 M1.9 10.5 L1.9 10.4 1.85 6.2 1.65 5.0 1.9 5.5 Q2.4 7.3 1.9 10.5 M18.7 0.15 L18.75 0.9 18.75 1.85 6.4 3.35 6.5 1.3 18.7 0.15 M18.85 4.9 L18.85 5.15 18.85 5.8 18.65 6.9 6.35 9.1 6.3 7.45 6.5 5.9 18.65 4.0 18.85 4.9 M5.5 16.3 L5.1 16.4 5.05 16.4 5.0 16.4 4.85 16.4 4.75 16.35 5.85 12.55 Q6.25 14.3 6.1 15.3 L6.05 15.55 6.0 15.6 6.0 15.7 5.5 16.3 M3.05 -2.75 L5.1 -2.5 Q6.0 -1.25 6.0 4.25 L5.0 0.45 Q4.2 -1.85 3.05 -2.75 M18.7 -2.0 L18.75 -2.0 18.6 -2.5 18.25 -3.5 19.5 -3.25 Q20.5 7.7 19.75 11.5 19.25 14.2 18.1 14.8 17.6 14.8 18.5 14.45 L19.15 12.3 19.15 5.65 Q19.1 0.35 18.7 -2.0 M22.45 -12.45 L2.45 -10.15 Q11.75 -15.25 16.2 -18.7 L20.4 -18.95 25.4 -12.95 25.4 -8.1 24.85 -12.95 20.15 -17.45 22.45 -12.55 22.45 -12.45 M15.95 -4.65 L14.15 -6.05 21.2 -5.2 Q20.4 -4.05 15.95 -4.65 M25.4 -2.55 L25.4 -2.4 25.0 -1.8 25.4 -2.55 M22.85 3.15 Q22.65 4.3 22.7 5.65 L22.6 5.25 Q22.45 4.55 22.85 3.15 M20.85 14.2 L19.65 14.45 19.7 14.3 20.85 14.2 M35.2 2.7 Q35.3 6.4 33.55 8.85 L23.35 5.0 Q23.3 2.35 24.75 -0.2 30.2 -0.25 35.2 2.7 M25.45 13.85 L30.2 15.35 Q22.7 17.5 0.15 21.7 L-10.05 23.5 -17.45 21.85 -15.95 20.3 -16.3 19.15 -13.65 18.65 Q-11.45 21.55 -7.4 21.2 L-2.8 20.3 Q-0.05 19.7 1.7 18.95 L2.75 18.4 2.85 18.35 4.2 17.0 5.1 17.15 6.15 17.15 8.3 17.75 12.35 16.75 16.6 15.85 Q16.95 15.85 16.85 14.95 L17.5 15.1 18.0 15.45 19.65 15.2 25.2 13.85 25.45 13.85 M8.05 16.75 L8.05 17.0 7.55 16.85 8.05 16.75 M1.65 7.55 Q1.65 12.65 0.15 15.45 -1.0 17.9 -4.85 19.55 -9.95 21.55 -12.35 18.75 -14.8 15.8 -13.75 11.5 L-12.6 8.45 Q-11.75 6.4 -11.6 5.15 L-11.35 4.9 Q-2.15 4.85 1.65 7.55 M10.35 16.25 L16.2 15.1 12.5 16.1 8.7 16.85 Q8.65 16.6 10.35 16.25 M19.75 29.85 Q15.7 54.1 15.2 63.8 L13.3 67.7 12.0 67.45 13.15 67.9 13.15 67.95 13.5 68.0 13.6 68.05 17.2 68.9 21.2 69.9 24.25 69.0 24.45 71.25 21.2 72.65 21.2 72.55 21.0 72.65 13.15 68.0 Q10.55 72.95 9.05 74.25 7.0 76.0 3.2 77.3 L2.8 81.2 Q2.95 83.05 3.55 85.6 5.55 87.7 9.75 88.4 L9.9 88.4 Q5.95 88.0 1.9 87.0 0.75 78.3 1.8 74.5 L4.2 74.1 12.25 65.05 14.25 48.85 15.2 42.35 15.25 40.6 15.3 40.2 15.95 33.55 Q16.8 30.35 19.75 29.85 M-14.15 28.5 L-15.4 58.3 Q-15.4 58.7 -16.0 58.2 L-15.8 58.7 Q-15.95 62.1 -19.9 67.85 L-22.3 71.3 -22.55 71.6 -22.45 71.35 -22.45 71.3 Q-22.1 70.5 -21.9 69.4 -21.65 67.15 -22.5 66.0 L-21.05 64.65 -20.5 65.05 Q-16.7 62.65 -15.8 58.7 L-17.2 57.4 -17.3 57.15 -17.35 55.65 Q-23.1 37.1 -23.55 26.3 L-23.75 24.85 Q-18.15 27.6 -14.15 28.5 M-23.65 72.85 Q-28.5 80.15 -30.45 85.15 L-30.45 85.3 Q-31.2 90.0 -28.1 92.9 L-33.8 89.55 -33.2 86.0 Q-32.7 84.65 -32.0 83.8 -31.1 82.75 -30.45 81.35 -29.05 78.8 -29.3 77.4 -27.0 76.55 -25.4 74.3 L-23.5 72.3 -23.85 72.95 -23.65 72.85 M-24.95 94.4 L-21.65 95.5 -15.25 97.45 -16.7 97.15 Q-20.7 96.3 -24.95 94.4 M0.5 79.15 L0.15 79.6 Q-2.15 76.55 -16.45 77.3 L-16.45 77.25 Q-14.75 76.5 -11.35 76.15 L0.2 74.6 0.9 74.55 Q0.45 76.25 0.5 79.15 M-16.25 76.7 L-16.2 76.55 -15.05 76.2 Q-15.75 76.4 -16.25 76.7 M6.65 33.45 Q3.55 35.35 5.6 38.55 7.15 40.95 9.25 40.25 6.2 42.15 4.45 39.05 2.55 36.0 5.5 33.95 L6.7 33.4 6.65 33.45 M8.05 31.4 Q3.3 31.15 2.8 36.1 2.55 31.9 6.75 31.25 9.8 30.85 11.35 33.45 9.45 31.55 8.05 31.4 M10.1 41.85 L9.25 41.55 Q13.1 39.1 11.85 34.6 12.6 36.5 12.35 44.25 11.65 42.5 10.15 41.85 L10.1 41.85 M8.4 49.6 Q6.65 50.0 5.35 49.1 L5.0 48.85 4.95 48.75 4.8 48.6 4.65 48.4 Q4.0 47.5 4.1 45.95 4.3 44.25 5.35 43.35 3.95 45.05 5.5 47.35 7.15 49.95 9.5 49.05 L9.45 49.1 8.4 49.6 M5.9 42.05 L5.45 42.3 4.1 43.7 3.8 44.4 3.85 44.35 Q3.6 45.15 3.6 46.2 L3.6 46.25 Q3.45 49.35 6.0 50.15 3.85 50.65 3.05 53.2 2.3 55.75 3.95 57.4 -0.5 58.4 -0.15 63.25 -2.8 62.25 -5.1 64.55 3.2 54.85 2.8 38.4 3.45 41.45 6.0 42.0 L5.9 42.05 M1.8 74.5 L1.65 75.1 1.75 75.25 1.8 74.5 M34.55 25.9 Q33.65 25.4 32.25 25.55 L33.55 25.25 Q34.4 25.25 34.55 25.9 M33.8 27.5 L33.15 27.6 Q30.6 28.05 31.35 31.65 31.95 35.0 34.3 34.65 L33.55 34.95 Q31.1 35.6 30.2 31.65 29.6 27.7 32.0 27.05 33.0 26.9 33.8 27.5 M29.6 31.55 L29.6 30.9 Q29.2 26.65 32.0 25.65 29.45 27.05 29.7 31.55 L29.7 31.8 29.6 31.55 M35.15 37.2 L34.55 37.15 Q32.5 37.15 32.5 40.3 32.5 43.2 34.2 43.35 L33.65 43.5 Q31.6 43.5 31.6 40.1 31.85 36.6 33.8 36.6 34.7 36.5 35.15 37.2 M32.65 45.85 Q33.05 44.9 34.05 44.9 34.8 44.9 35.2 45.5 L34.7 45.45 Q32.9 45.4 32.9 48.2 32.9 50.5 34.2 50.85 L34.25 50.85 34.05 50.9 33.9 50.9 Q32.25 50.9 32.25 48.7 L32.25 48.0 Q32.35 46.7 32.65 45.85 M32.25 46.3 L31.9 43.65 Q32.75 44.25 33.15 44.15 L32.25 46.3 M31.25 39.15 L29.85 33.2 Q31.0 36.0 32.4 36.25 31.25 38.75 31.25 39.15 M33.0 52.4 L33.65 52.2 34.3 52.4 34.4 52.7 34.3 52.7 Q32.75 52.65 32.75 55.5 32.75 56.6 33.0 57.25 L33.5 57.8 32.7 58.4 32.6 58.2 32.5 57.55 Q32.0 53.7 33.0 52.4 M32.25 50.55 Q32.75 51.0 32.9 51.4 32.4 51.5 32.4 51.9 L32.25 50.55 M5.45 51.3 L6.0 51.1 Q3.25 52.85 5.1 55.75 6.5 58.15 8.7 57.5 7.2 58.35 6.0 58.0 L5.4 57.75 4.8 57.35 4.75 57.3 4.65 57.2 3.95 56.4 3.6 55.7 3.55 55.65 Q3.3 54.65 3.85 53.45 4.35 51.95 5.4 51.3 L5.45 51.3 M5.1 65.2 L3.55 65.45 3.45 65.45 Q1.8 65.25 1.05 63.15 0.75 62.4 0.75 61.8 L0.75 61.75 0.8 61.5 Q1.0 60.4 1.45 59.7 2.0 59.2 2.95 58.95 L4.4 58.65 4.2 58.7 Q1.05 59.55 2.2 62.9 3.1 65.25 5.1 65.2 M8.65 61.45 L8.65 61.4 Q8.65 59.75 7.65 58.55 9.95 58.15 11.1 56.5 L9.0 61.4 8.7 62.0 8.65 61.45 M-3.65 64.35 L-2.4 64.4 -1.5 64.65 Q-4.45 64.4 -4.95 67.6 -5.2 70.35 -2.85 71.1 L-3.15 71.05 Q-6.4 70.55 -6.1 67.35 L-6.1 67.1 Q-5.9 66.3 -5.2 65.55 L-3.65 64.35 M2.8 65.95 Q4.85 66.45 6.4 65.2 4.35 68.25 2.2 69.8 3.7 67.7 2.8 65.95 M12.0 52.7 Q10.95 50.65 9.2 50.15 11.6 48.85 12.25 46.95 L12.0 52.7 M0.8 95.15 L1.75 94.6 2.45 93.6 2.6 93.85 1.75 94.6 Q-0.8 97.85 -4.2 99.35 L-9.2 100.15 -9.3 99.85 -15.85 99.85 Q-22.55 98.25 -31.1 93.1 -32.6 95.1 -32.9 96.15 -29.75 97.25 -25.75 100.25 -19.15 105.3 -16.7 108.9 -11.15 112.3 -4.85 112.5 L-3.55 112.75 Q-1.2 113.15 -1.1 112.75 3.6 112.65 8.3 109.9 L11.85 107.95 11.65 108.35 11.45 108.6 11.35 108.75 10.0 109.85 9.45 110.2 9.4 110.25 9.35 110.25 9.35 110.2 9.2 110.35 5.75 111.7 Q-5.5 115.4 -13.25 112.2 -17.1 110.65 -18.35 109.55 L-24.85 103.15 -31.75 97.15 Q-35.65 95.95 -37.6 95.85 L-37.45 95.7 -38.5 95.85 -38.5 95.8 -37.3 95.5 -33.95 91.35 -34.55 90.95 -34.45 90.45 -34.3 90.3 -34.05 90.3 Q-26.15 95.9 -16.7 97.95 -5.7 100.3 0.8 95.15 M38.3 99.2 Q38.95 101.1 37.9 102.25 34.3 106.6 22.7 105.05 18.25 104.45 9.95 102.15 L4.75 95.15 2.95 92.85 2.2 87.85 12.0 89.5 12.1 89.55 Q21.9 91.0 24.9 86.4 25.35 85.95 25.6 85.1 L25.85 84.4 26.35 84.9 Q26.2 86.1 25.5 87.25 22.7 91.3 15.2 90.55 L4.9 89.45 13.5 102.05 22.7 103.5 26.25 104.45 30.35 104.7 Q33.75 104.5 35.8 103.2 38.25 102.0 38.3 99.2 M17.6 88.65 L15.55 88.7 18.5 88.5 17.6 88.65 M35.6 105.15 L35.6 105.3 Q32.0 107.35 25.15 106.4 L25.0 106.4 Q31.75 107.05 35.6 105.15 M15.15 104.5 Q16.8 108.5 16.95 119.7 L14.9 119.1 14.3 112.5 13.45 107.95 13.45 107.9 13.4 107.25 13.3 107.15 13.15 106.35 10.95 103.3 15.15 104.5 M-33.25 118.85 Q-36.15 116.3 -39.0 112.95 -40.1 101.05 -38.6 97.15 L-38.25 96.7 Q-35.55 96.55 -33.0 97.7 L-33.25 118.85 M0.8 114.0 L1.5 113.85 1.3 113.9 0.8 114.0 M-18.55 -102.6 L-18.95 -102.55 -19.0 -103.6 -11.85 -103.2 -11.6 -87.4 -11.85 -87.45 -12.8 -102.5 -17.6 -102.65 -18.55 -102.6 M-11.65 -81.65 L-12.6 -85.75 -16.9 -87.4 Q-15.3 -86.9 -11.6 -86.5 L-11.5 -82.45 -11.55 -81.65 -11.65 -81.65 M-16.9 -81.4 L-16.55 -81.4 -16.5 -81.4 Q-14.35 -80.7 -11.45 -80.9 L-11.35 -76.2 -12.1 -79.9 -16.9 -81.25 -16.95 -81.4 -16.9 -81.4 M-13.0 -74.3 L-12.85 -75.8 -10.2 -74.95 -9.65 -74.8 -8.15 -74.35 Q4.0 -70.7 12.5 -70.05 1.35 -69.6 -10.85 -73.55 L-13.0 -74.3 M-25.15 -63.4 L-24.7 -62.9 -24.95 -64.0 -25.15 -63.4 M-1.25 -58.1 L-4.05 -58.6 -3.55 -58.55 -1.25 -58.15 -1.25 -58.1 M-13.95 -43.05 L-15.6 -38.7 -16.2 -38.7 -14.65 -43.05 -13.95 -43.05 M-16.25 -36.9 L-15.75 -36.95 -16.2 -37.0 -16.25 -36.9 M-21.0 -0.6 Q-34.15 1.8 -29.7 14.8 -36.95 8.55 -29.55 -3.65 L-29.3 -4.05 Q-27.55 0.15 -21.0 -0.6 M-6.9 -5.25 L-6.9 -5.45 -8.4 -8.25 -2.55 -8.5 -2.6 -6.3 -6.9 -5.25 M-2.7 -1.3 L-2.7 -1.0 -6.9 -1.65 -6.9 -5.0 -2.7 -1.3 M-18.1 22.6 L-17.1 22.8 -14.9 23.65 -12.6 24.05 Q-13.95 25.35 -14.1 27.7 -18.05 26.8 -23.4 24.1 L-21.8 21.95 -20.9 22.1 -19.0 23.25 -18.5 22.85 -18.1 22.6 M-17.6 58.3 L-17.45 58.35 -16.7 58.95 Q-17.2 61.45 -20.4 64.15 L-20.55 64.1 -21.15 63.5 -17.6 58.3 M-7.65 67.45 L-6.25 65.8 Q-7.25 67.6 -6.35 69.65 -5.6 71.8 -3.45 71.8 -6.65 72.3 -8.3 69.9 -8.4 68.45 -7.65 67.45 M-26.1 68.65 L-25.5 69.4 Q-24.1 71.95 -26.5 74.35 -28.8 76.9 -30.3 74.25 -29.0 75.4 -27.15 73.6 -24.75 71.15 -26.1 68.65 M-30.9 80.9 Q-31.95 82.4 -33.2 81.2 -32.1 81.55 -31.25 79.85 -30.1 77.45 -31.7 76.05 L-31.1 76.4 Q-29.9 77.6 -30.4 79.65 L-30.7 80.35 -30.9 80.9" fill="#016a3a" fill-rule="evenodd" stroke="none"/>
    <path d="M8.15 34.6 Q9.55 34.05 10.2 35.75 10.7 37.5 9.35 38.05 7.9 38.55 7.4 36.9 6.75 35.1 8.15 34.6 M8.3 43.4 Q9.8 42.85 10.35 44.65 11.1 46.3 9.45 46.85 8.15 47.45 7.4 45.65 6.75 44.15 8.3 43.4 M34.05 28.7 Q35.05 28.45 35.45 30.0 35.95 31.4 34.8 31.65 33.9 31.9 33.4 30.5 33.0 29.1 34.05 28.7 M34.55 37.75 Q35.3 37.5 35.55 38.9 35.55 40.05 34.8 40.2 33.9 40.15 33.9 39.05 33.65 37.75 34.55 37.75 M34.15 47.35 Q34.4 46.2 35.1 46.2 35.7 46.2 35.7 47.35 35.7 48.45 34.95 48.5 34.15 48.45 34.15 47.35 M34.5 53.75 L34.55 54.95 34.55 55.25 34.05 55.5 Q33.55 54.95 33.55 54.35 33.5 53.8 34.15 53.35 L34.5 53.75 M30.05 63.5 L30.2 62.9 Q30.5 62.3 31.05 62.05 30.65 63.05 30.05 63.5 M8.95 55.35 Q7.5 55.85 6.9 54.2 6.4 52.65 7.8 52.2 9.2 51.65 9.7 53.35 10.35 54.85 8.95 55.35 M7.0 61.5 Q7.25 63.0 5.85 63.25 4.45 63.5 4.2 61.75 3.95 60.2 5.5 59.95 7.0 59.95 7.0 61.5 M-18.95 -102.55 L-18.55 -102.6 -16.8 -90.6 Q-16.95 -89.1 -12.45 -87.45 -16.2 -87.75 -17.6 -88.55 L-18.95 -102.55 M-17.35 -84.65 Q-16.6 -82.2 -13.6 -81.75 -16.05 -81.95 -17.2 -82.55 L-17.35 -84.65 M-16.55 -81.4 L-16.9 -81.4 -16.95 -81.4 -16.95 -81.55 -16.5 -81.4 -16.55 -81.4 M-16.8 -80.6 Q-16.0 -78.8 -14.25 -77.55 L-16.55 -78.6 -16.8 -80.6 M-0.75 66.45 Q0.65 66.95 0.0 68.5 -0.5 70.25 -1.75 69.5 -3.2 69.1 -2.7 67.45 -1.9 66.05 -0.75 66.45 M-29.7 72.2 Q-30.45 71.15 -29.45 69.9 -28.55 68.6 -27.65 69.25 -26.9 70.25 -27.8 71.55 -28.8 72.8 -29.7 72.2 M-33.15 76.8 L-32.65 76.9 Q-31.75 77.15 -32.25 78.55 -32.5 79.95 -33.25 79.45 -34.05 78.95 -33.65 77.8 L-33.65 77.7 -33.3 77.0 -33.15 76.8" fill="#e0f3c6" fill-rule="evenodd" stroke="none"/>
    <path d="M-19.8 -114.85 L-18.05 -113.9 -20.15 -114.95 -19.8 -114.85 M36.05 -107.1 L29.2 -114.1 Q9.6 -133.2 -0.85 -129.7 -11.2 -131.1 -20.85 -119.5 -15.1 -130.75 -1.9 -131.5 4.7 -132.05 11.5 -129.1 28.4 -121.95 37.25 -107.7 36.75 -107.35 36.05 -107.1 M34.95 -99.4 Q28.25 -98.4 19.4 -99.25 -0.1 -101.25 -16.95 -112.45 -6.35 -107.1 3.95 -103.85 19.3 -99.0 34.95 -99.4 M-22.95 -115.35 L-22.55 -115.3 -29.65 -108.5 Q-29.9 -107.0 -27.6 -106.2 L-9.05 -103.6 -11.4 -103.6 -26.75 -105.0 Q-31.6 -105.25 -32.75 -106.0 -32.4 -107.7 -28.45 -111.0 L-22.95 -115.35 M10.95 -83.2 L30.35 -83.85 33.05 -83.6 33.1 -83.45 Q26.0 -80.9 10.95 -83.2 M2.4 -60.95 Q1.3 -59.85 1.5 -57.5 L-1.25 -58.1 -1.25 -58.15 Q-1.5 -60.25 -0.1 -61.65 L2.4 -60.95 M-1.4 -44.3 L-1.15 -44.3 Q-1.75 -42.65 -0.65 -39.85 L-4.0 -39.3 Q-4.6 -42.1 -3.7 -43.9 L-1.4 -44.3 M16.35 -61.55 Q22.0 -68.35 26.25 -58.85 L26.2 -58.9 25.6 -60.0 23.25 -62.2 Q21.2 -63.65 19.05 -62.85 L17.5 -62.3 16.35 -61.55 M2.95 -61.7 L0.4 -62.3 0.4 -62.55 Q0.65 -63.35 2.95 -64.35 L4.7 -65.0 Q3.2 -64.15 2.95 -61.7 M-23.65 -30.25 L-24.1 -30.3 -23.85 -30.4 -23.65 -30.25 M-23.65 -29.7 L-21.9 -29.65 Q-20.6 -29.6 -19.4 -30.85 -15.85 -18.95 -9.3 -8.25 L-9.05 -7.8 -7.75 -5.2 -23.25 -29.3 -23.65 -29.7 M0.85 -55.95 L1.05 -55.9 1.0 -55.9 Q-2.9 -52.1 -1.75 -45.1 L-2.75 -44.95 Q-3.6 -52.15 -1.4 -56.15 L0.85 -55.95 M30.55 -70.45 L31.25 -69.3 Q32.7 -66.8 32.8 -62.1 L32.7 -59.9 Q32.55 -65.65 29.65 -69.4 L29.45 -69.7 30.25 -70.2 30.55 -70.45 M26.05 -66.2 L26.0 -66.25 26.9 -66.9 27.0 -66.8 Q28.65 -64.55 28.8 -63.3 L28.7 -63.2 26.05 -66.2 M30.5 -57.2 L30.6 -50.75 30.05 -47.85 29.85 -47.95 Q30.45 -50.3 30.35 -57.85 L30.5 -57.2 M28.95 -42.85 L28.95 -43.05 29.95 -42.8 29.95 -42.65 Q27.5 -23.9 26.05 -19.2 L27.65 -28.4 Q29.5 -39.55 28.95 -42.85 M-4.2 -36.8 L-0.25 -37.55 -0.35 -37.3 Q-3.9 -29.2 6.6 -16.95 L6.0 -16.65 Q-2.6 -27.75 -4.2 -36.8 M2.45 -5.7 L12.35 -6.3 13.95 -5.55 2.45 -4.95 2.45 -5.7 M3.0 -1.55 L3.7 -1.1 5.1 3.25 5.75 6.35 5.85 8.2 Q5.85 11.5 5.0 14.2 3.7 17.5 2.3 18.3 L0.3 18.7 0.0 18.55 Q9.3 13.05 2.2 -1.85 L3.0 -1.55 M5.5 -2.5 L17.2 -3.6 17.85 -3.4 18.45 -1.95 6.05 -1.0 5.5 -2.5 M18.6 -2.5 L18.75 -2.0 18.7 -2.0 18.6 -2.5 M30.0 -7.35 L31.7 -7.5 32.2 -7.45 Q34.05 -7.05 35.45 -5.05 37.5 -1.85 37.25 2.45 37.1 5.4 35.65 8.15 38.05 3.05 35.85 -2.4 34.4 -7.15 30.0 -7.35 M18.7 18.9 L21.3 18.55 23.9 21.55 Q16.95 23.35 6.95 25.2 L6.7 21.2 18.7 18.9 M-2.7 96.15 L-3.55 96.4 -3.65 96.2 -4.2 96.4 Q-8.4 84.8 -7.4 77.4 L-6.8 77.5 -6.75 77.4 -4.6 77.8 Q-5.5 87.5 -1.6 95.6 L-2.7 96.15 M21.0 72.65 L21.2 72.55 21.2 72.65 22.2 72.35 Q21.9 74.45 24.2 86.2 L22.95 87.25 22.9 86.95 22.15 87.7 22.05 87.7 21.95 87.5 Q20.5 80.6 20.05 73.1 L21.0 72.65 M9.2 110.35 L9.35 110.2 9.35 110.25 9.2 110.35 M8.3 109.9 Q3.6 112.65 -1.1 112.75 L-1.15 112.6 Q-3.3 111.45 -6.35 105.7 L-9.2 100.15 -4.2 99.35 Q-2.0 98.6 -0.25 97.15 -1.05 98.05 9.05 109.4 L8.3 109.9 M35.8 103.2 Q33.75 104.5 30.35 104.7 25.65 102.55 19.1 91.1 L19.4 91.05 Q23.85 90.15 25.4 88.4 L37.25 101.9 35.8 103.2 M15.05 91.45 L15.9 91.45 15.15 91.6 15.05 91.45 M37.8 103.6 L37.9 104.85 37.9 104.9 Q38.25 105.65 38.95 117.5 L37.25 118.7 35.65 119.6 Q38.05 114.8 35.6 105.3 L35.6 105.15 37.8 103.6 M9.5 111.15 L11.75 127.15 11.65 127.3 11.35 127.5 8.55 129.25 Q8.8 126.4 8.15 120.1 L7.6 115.15 7.1 112.3 9.5 111.15" fill="#f2f5d3" fill-rule="evenodd" stroke="none"/>
  </g>
</svg>
