<?xml version="1.0" encoding="UTF-8" standalone="no"?>
<svg xmlns:xlink="http://www.w3.org/1999/xlink" height="294.0px" width="365.4px" xmlns="http://www.w3.org/2000/svg">
  <g transform="matrix(1.0, 0.0, 0.0, 1.0, -248.9, -94.0)">
    <path d="M249.45 220.55 L249.4 220.5 249.45 220.5 249.45 220.55" fill="#333333" fill-rule="evenodd" stroke="none"/>
    <path d="M249.95 220.25 L265.4 233.7 416.6 358.65 417.8 359.65 419.05 360.65 419.0 360.65 256.0 347.95 249.45 220.55 249.45 220.5 249.45 219.85 249.95 220.25 M417.8 359.65 L419.0 360.65 417.8 359.65" fill="#202020" fill-rule="evenodd" stroke="none"/>
    <path d="M581.65 190.7 L582.9 191.5 581.65 190.7 M249.95 220.25 L491.35 108.5 520.2 94.5 595.85 132.5 613.8 377.5 451.5 387.5 419.0 360.65 419.05 360.65 417.8 359.65 416.6 358.65 265.4 233.7 249.95 220.25" fill="#6c6c6c" fill-rule="evenodd" stroke="none"/>
    <path d="M419.0 360.65 L451.5 387.5 613.8 377.5 595.85 132.5 520.2 94.5 491.35 108.5 249.95 220.25 265.4 233.7 416.6 358.65 417.8 359.65 419.05 360.65 419.0 360.65 256.0 347.95 249.45 220.55 249.4 220.5 249.45 220.5 249.45 219.85 249.95 220.25 M419.0 360.65 L417.8 359.65 M249.45 220.5 L249.45 220.55" fill="none" stroke="#000000" stroke-linecap="round" stroke-linejoin="round" stroke-width="1.0"/>
    <path d="M582.9 191.5 L581.65 190.7" fill="none" stroke="#ffffff" stroke-linecap="round" stroke-linejoin="round" stroke-opacity="0.0" stroke-width="1.0"/>
  </g>
</svg>
