<?xml version="1.0" encoding="UTF-8" standalone="no"?>
<svg xmlns:xlink="http://www.w3.org/1999/xlink" height="375.5px" width="325.5px" xmlns="http://www.w3.org/2000/svg">
  <g transform="matrix(1.0, 0.0, 0.0, 1.0, -178.4, 300.3)">
    <path d="M274.9 -159.2 L275.25 -158.65 279.85 -147.15 279.95 -146.7 280.45 -143.6 279.15 -138.2 Q275.1 -126.0 265.1 -112.5 262.75 -109.1 261.95 -108.8 L255.95 -108.7 Q237.15 -109.35 218.15 -113.65 L208.15 -115.9 Q204.5 -116.85 199.5 -119.45 187.3 -126.4 181.0 -137.7 178.25 -142.55 178.4 -147.1 178.75 -157.25 184.05 -166.05 187.7 -172.2 197.7 -176.8 206.45 -180.75 217.1 -181.65 L210.0 -195.65 207.15 -197.4 204.5 -199.2 204.25 -200.9 204.1 -213.25 204.5 -214.45 Q206.6 -218.25 214.5 -222.05 L220.75 -224.55 227.2 -226.8 229.85 -226.65 232.2 -226.8 233.65 -228.1 Q236.35 -230.45 239.9 -230.6 243.95 -230.85 248.3 -227.3 250.3 -228.5 253.55 -228.6 256.85 -228.65 259.05 -227.55 263.4 -225.6 264.35 -219.95 269.55 -221.7 273.8 -219.4 278.25 -217.1 277.7 -211.55 283.1 -211.7 286.1 -208.65 289.35 -205.5 288.6 -200.15 295.15 -200.15 297.4 -195.0 298.85 -191.1 296.2 -186.25 L300.15 -180.45 303.4 -182.45 302.8 -183.6 302.4 -184.9 Q302.5 -185.7 304.75 -186.65 L307.5 -187.95 Q308.9 -193.2 311.3 -194.9 313.5 -196.45 319.7 -197.25 320.1 -197.25 323.4 -199.75 L333.5 -206.95 334.55 -209.3 Q338.85 -216.8 349.35 -218.65 348.3 -222.05 351.35 -229.0 347.25 -229.15 343.85 -230.3 339.35 -231.65 338.05 -233.2 335.7 -236.1 337.7 -240.55 L338.6 -242.0 339.15 -243.7 Q339.1 -244.5 338.2 -245.4 337.25 -246.45 337.15 -246.95 336.9 -247.7 337.05 -249.3 L337.4 -252.35 Q338.3 -261.35 341.1 -269.0 L340.95 -268.65 341.6 -270.4 341.75 -270.6 Q344.75 -277.75 349.75 -283.85 L351.7 -286.25 353.25 -288.7 Q355.9 -291.5 359.05 -293.95 L359.2 -294.05 359.45 -294.25 359.7 -294.4 Q361.7 -295.95 363.6 -296.95 365.05 -297.8 366.4 -298.3 L369.25 -299.1 369.45 -299.15 373.95 -300.0 375.35 -300.2 376.25 -300.25 Q388.05 -300.8 399.5 -293.55 405.6 -289.8 411.55 -283.45 L414.85 -279.4 415.1 -279.25 419.45 -277.7 Q427.55 -274.55 429.8 -270.6 431.75 -267.35 429.8 -263.5 428.85 -261.7 424.15 -259.55 L423.65 -259.35 417.65 -257.35 417.2 -257.25 417.05 -257.2 416.75 -256.0 Q415.5 -251.95 411.4 -243.45 L414.3 -243.6 415.6 -243.45 Q417.4 -243.15 418.85 -242.2 L419.15 -242.05 Q423.75 -238.85 424.4 -229.15 L424.55 -225.6 Q424.65 -224.95 426.9 -222.7 L429.65 -219.95 Q432.5 -221.15 435.95 -220.75 L438.05 -220.45 439.65 -221.8 Q446.85 -228.1 454.7 -224.95 L460.35 -221.4 Q498.3 -195.15 503.15 -146.1 L503.8 -137.7 Q504.05 -132.2 503.55 -128.9 L497.35 -105.8 Q496.55 -103.2 495.9 -103.05 495.1 -102.9 493.95 -104.9 L471.1 -141.2 465.35 -141.75 459.55 -142.0 457.2 -144.65 455.25 -147.4 432.95 -158.4 Q420.7 -164.45 414.7 -173.5 407.45 -164.05 399.2 -160.65 L396.2 -159.6 Q395.65 -159.35 393.55 -156.55 386.1 -147.0 380.6 -141.5 L377.7 -138.7 374.3 -136.5 371.9 -137.15 364.85 -139.4 Q364.05 -139.25 362.2 -136.9 360.75 -135.2 360.35 -133.6 L360.25 -131.9 359.75 -130.6 355.0 -131.1 340.7 -133.5 Q340.15 -133.9 339.5 -135.6 L338.35 -137.95 Q337.3 -141.75 339.65 -149.5 L337.15 -147.8 334.8 -147.1 333.5 -145.05 Q330.7 -141.75 327.45 -140.85 328.35 -139.55 330.45 -138.2 L333.75 -135.95 Q337.15 -133.5 339.15 -130.3 342.65 -125.2 343.85 -112.75 345.4 -93.85 340.15 -74.95 L339.5 -72.85 Q339.65 -72.2 341.35 -71.0 L343.85 -69.85 347.15 -70.0 Q355.9 -69.75 365.9 -65.4 L370.5 -65.25 Q380.2 -65.0 382.05 -63.95 386.1 -61.6 388.7 -53.6 L391.2 -52.15 Q394.85 -53.05 397.75 -51.35 400.5 -49.65 401.45 -46.6 410.2 -47.8 411.65 -38.6 L411.65 -36.65 413.5 -34.4 Q427.3 -18.8 431.5 2.05 432.15 4.55 432.0 5.35 L408.65 51.55 Q406.4 55.45 400.5 60.85 387.9 72.25 370.9 74.65 L362.75 75.05 Q360.9 74.75 357.2 73.05 338.2 64.65 334.15 43.9 332.3 34.35 335.7 17.05 338.3 4.3 342.55 -2.4 L343.45 -3.45 343.95 -4.5 337.15 -29.45 319.7 -41.5 Q315.9 -43.75 315.4 -45.3 L315.25 -47.55 313.0 -49.4 Q298.1 -61.35 293.5 -83.85 L293.45 -83.95 293.3 -84.75 Q292.85 -87.0 292.55 -89.4 288.85 -115.65 296.1 -144.35 L297.0 -147.4 296.1 -151.05 274.35 -160.5 273.8 -160.75 274.9 -159.2 M235.75 -225.55 L244.9 -224.0 Q245.55 -223.65 245.95 -223.75 L246.75 -224.3 247.1 -224.65 247.4 -225.05 246.05 -226.35 Q244.85 -227.25 243.2 -227.7 L237.45 -227.55 237.25 -227.5 236.2 -227.05 Q235.0 -226.45 234.55 -225.75 L235.75 -225.55 M288.95 -187.1 Q287.25 -188.45 285.45 -190.45 L268.0 -209.6 Q263.95 -213.65 261.45 -215.2 254.6 -219.7 244.1 -222.45 233.1 -225.35 227.6 -224.65 226.15 -224.45 221.45 -222.6 214.05 -219.7 210.3 -217.2 206.45 -214.45 206.2 -213.0 L206.45 -200.4 Q207.25 -199.6 209.1 -198.8 L209.4 -198.65 Q210.95 -197.85 211.6 -197.25 L231.25 -159.45 232.1 -158.45 232.7 -157.85 Q234.85 -155.65 238.6 -153.45 250.95 -145.85 265.9 -147.8 L267.05 -147.95 Q272.1 -148.65 274.05 -150.55 275.7 -151.85 275.75 -152.9 L274.45 -155.5 Q271.8 -160.4 269.3 -162.45 267.7 -163.8 258.7 -166.65 L253.05 -168.5 Q248.85 -169.95 247.8 -170.75 247.25 -171.0 244.8 -173.9 239.4 -179.95 236.9 -184.5 L231.35 -186.0 230.5 -186.25 229.15 -190.15 228.9 -191.45 233.1 -192.55 Q234.4 -192.4 235.7 -190.05 L237.15 -185.7 239.55 -181.75 246.75 -172.7 248.2 -171.25 Q248.55 -171.0 254.1 -169.05 L267.2 -165.5 267.25 -165.5 267.75 -165.35 267.8 -165.35 267.95 -165.3 273.25 -163.25 285.25 -158.0 292.5 -154.95 294.75 -154.0 296.15 -153.4 296.4 -153.3 296.45 -153.3 296.45 -153.35 Q295.25 -164.85 286.9 -174.95 280.6 -182.7 269.7 -189.0 L266.5 -190.75 263.85 -192.15 Q256.0 -196.3 249.1 -199.35 240.45 -203.3 234.05 -205.2 L234.1 -205.15 233.35 -205.4 228.9 -206.45 Q226.0 -206.7 225.75 -207.2 226.25 -207.5 228.65 -207.2 232.55 -206.55 237.3 -205.0 243.7 -202.95 251.75 -199.2 L255.15 -197.55 266.85 -191.45 Q267.4 -191.15 268.0 -190.8 L268.15 -190.7 268.35 -190.6 268.5 -190.55 278.9 -183.45 279.8 -182.5 281.75 -181.15 282.6 -180.35 Q287.65 -175.75 291.05 -170.6 293.45 -166.95 295.0 -163.0 L295.05 -162.95 295.3 -162.35 Q294.75 -167.2 294.65 -170.95 L294.65 -171.05 294.65 -173.15 Q294.7 -179.6 296.35 -182.15 L295.95 -182.75 295.1 -184.05 294.8 -184.5 Q292.25 -184.7 289.4 -186.8 L288.95 -187.1 M247.7 -223.15 Q252.2 -221.7 259.55 -218.3 L262.5 -216.95 Q262.2 -221.4 260.5 -223.5 258.3 -226.25 253.7 -226.25 L250.95 -225.95 249.55 -225.45 Q248.0 -224.75 247.0 -223.35 L247.2 -223.3 247.7 -223.15 M267.2 -218.15 Q266.5 -218.05 265.95 -217.65 L263.45 -216.65 263.45 -216.6 263.4 -216.55 263.4 -216.5 263.25 -215.9 264.3 -214.6 265.4 -213.5 Q267.2 -211.85 270.75 -209.85 L272.7 -208.8 Q273.65 -208.35 273.9 -208.4 275.6 -208.8 275.35 -212.45 275.2 -215.35 273.0 -216.95 L272.9 -217.0 271.05 -217.95 267.75 -218.25 267.25 -218.2 267.2 -218.15 M273.0 -205.65 L272.85 -206.55 271.3 -207.35 273.0 -205.65 M275.6 -203.5 L275.6 -203.45 Q277.85 -200.35 280.6 -198.55 L280.7 -198.5 281.65 -197.95 283.85 -197.25 283.95 -197.25 284.0 -197.25 284.25 -197.3 284.35 -197.3 284.55 -197.4 Q285.2 -197.8 285.85 -199.5 287.55 -203.45 284.65 -206.55 281.9 -209.45 277.7 -208.95 275.1 -208.55 274.55 -207.6 273.75 -206.3 275.35 -203.8 L275.45 -203.7 275.6 -203.5 M320.5 -188.35 L318.25 -189.1 313.0 -188.35 305.0 -184.25 Q306.7 -181.75 305.15 -180.85 L306.7 -181.4 308.0 -182.05 Q306.95 -184.15 307.0 -184.5 L309.6 -186.1 Q312.05 -187.55 312.5 -187.55 L321.95 -176.65 Q322.05 -176.0 322.45 -176.1 L322.35 -178.4 Q322.15 -183.25 322.6 -187.25 L320.5 -188.35 M323.0 -187.95 L339.5 -201.7 337.55 -202.75 319.6 -189.5 323.0 -187.95 M350.05 -215.85 L351.3 -216.3 353.3 -216.55 351.7 -216.95 Q349.9 -216.95 346.1 -215.75 337.4 -212.9 335.45 -205.8 L320.6 -195.3 318.0 -195.0 Q313.25 -194.25 311.7 -192.4 310.25 -190.85 309.6 -187.55 312.45 -189.25 315.9 -189.65 L318.65 -189.9 321.0 -191.6 337.55 -203.55 340.55 -201.7 325.6 -189.0 323.5 -187.0 323.0 -182.45 323.05 -178.1 323.3 -174.35 323.3 -174.5 323.4 -173.7 323.5 -172.6 324.0 -168.0 326.0 -165.9 Q331.35 -161.15 340.8 -156.2 L343.55 -154.85 Q344.25 -154.9 346.35 -155.9 L348.85 -157.5 Q344.2 -160.15 335.15 -167.35 331.1 -170.5 330.85 -171.0 330.2 -172.35 330.2 -178.25 330.2 -183.75 330.45 -184.5 330.6 -185.45 332.4 -186.9 335.4 -190.3 344.25 -197.65 L347.9 -200.65 348.95 -201.7 351.85 -202.1 358.8 -204.85 359.35 -204.5 370.2 -198.05 Q376.9 -193.95 380.95 -190.7 L381.5 -190.15 385.45 -186.1 385.6 -185.9 386.25 -185.1 388.05 -182.95 388.45 -182.45 393.35 -175.7 Q395.25 -172.8 396.6 -170.1 L399.6 -171.8 402.25 -174.15 Q402.35 -174.8 401.2 -177.2 L398.7 -181.8 393.7 -189.35 393.15 -190.15 389.5 -195.0 389.3 -195.2 388.75 -195.65 Q387.1 -196.95 383.6 -198.7 L374.8 -202.75 363.6 -207.9 363.45 -208.0 363.4 -208.0 365.05 -210.2 Q365.95 -211.6 366.15 -212.6 363.35 -212.6 359.2 -213.65 L359.0 -211.95 358.4 -210.75 Q355.0 -206.45 347.0 -205.9 342.4 -205.65 340.55 -207.5 338.45 -209.7 342.15 -212.75 L342.25 -212.85 342.55 -213.05 342.75 -213.2 342.9 -213.3 343.45 -213.5 341.6 -211.95 Q339.5 -209.6 341.1 -208.15 340.95 -208.95 341.5 -210.25 342.9 -212.6 347.4 -214.05 L347.5 -214.1 347.65 -214.15 347.75 -214.2 348.0 -214.25 348.2 -214.3 348.4 -214.4 351.35 -215.05 354.15 -215.25 355.4 -215.2 Q354.5 -215.95 353.05 -216.0 L352.75 -216.0 350.05 -215.85 M313.8 -184.5 L313.75 -184.55 313.25 -185.2 312.2 -186.65 307.75 -184.25 309.2 -181.25 Q311.0 -181.0 313.8 -177.85 L316.0 -175.35 316.2 -175.1 316.25 -175.05 Q319.35 -171.45 320.7 -169.05 L321.2 -168.15 321.25 -168.0 321.5 -168.1 321.8 -168.3 323.1 -169.05 322.7 -172.7 Q322.2 -172.7 322.2 -173.1 L313.8 -184.5 M307.75 -166.3 Q312.0 -169.5 319.6 -169.3 317.6 -173.15 313.0 -177.45 L311.8 -178.85 310.5 -180.05 Q306.7 -182.3 302.8 -178.35 L302.6 -178.15 301.1 -176.4 300.7 -175.7 300.45 -175.1 300.4 -174.8 300.4 -169.85 Q300.5 -166.55 302.5 -156.55 302.85 -158.75 303.55 -160.55 304.9 -164.2 307.75 -166.3 M322.6 -173.75 Q322.55 -174.45 321.25 -176.1 L319.45 -178.1 322.6 -173.75 M291.45 -186.75 L291.95 -186.55 293.4 -186.15 293.7 -186.1 294.1 -186.55 294.8 -188.05 295.55 -190.45 Q295.8 -193.6 293.35 -195.8 L293.1 -196.0 Q291.4 -197.45 289.4 -197.65 L287.95 -197.65 287.5 -197.55 286.55 -197.35 285.8 -197.15 284.95 -196.75 Q283.2 -195.3 284.95 -192.55 L285.6 -191.75 285.65 -191.75 286.0 -191.3 287.55 -189.5 Q289.05 -188.05 290.55 -187.2 L291.2 -186.85 291.45 -186.75 M298.3 -179.7 L298.2 -179.95 297.0 -181.4 Q295.55 -179.95 295.3 -174.55 295.2 -172.95 295.25 -171.05 295.35 -167.9 295.8 -163.85 L296.35 -159.7 Q297.4 -153.15 297.55 -152.9 L298.6 -150.15 Q299.35 -148.45 299.2 -147.0 L298.7 -143.95 Q298.15 -139.1 299.85 -135.1 302.9 -127.75 313.55 -123.25 323.85 -119.15 330.95 -121.6 L333.35 -122.7 Q335.8 -124.2 336.8 -125.45 L337.4 -126.65 Q337.75 -128.9 335.15 -131.9 L330.95 -135.45 Q331.95 -133.6 330.55 -131.8 L328.75 -130.2 324.8 -128.5 Q312.1 -124.5 304.9 -136.7 L303.4 -139.5 Q300.65 -145.55 298.85 -157.65 297.1 -168.55 298.45 -176.0 L299.0 -178.35 298.3 -179.75 298.3 -179.7 M302.5 -179.4 Q300.0 -178.0 299.6 -177.95 L299.55 -177.8 299.45 -177.25 Q297.7 -169.3 299.6 -157.85 301.45 -145.95 303.95 -140.3 305.2 -137.6 306.65 -135.5 313.35 -125.8 324.3 -129.15 328.55 -130.5 329.95 -132.2 330.6 -133.0 330.6 -133.9 330.6 -135.1 328.35 -137.3 L325.35 -140.05 Q324.25 -137.3 318.65 -137.7 307.6 -137.7 305.55 -146.7 L305.5 -146.75 305.45 -146.8 305.4 -146.85 304.6 -147.95 303.8 -149.35 302.85 -151.95 302.65 -152.8 301.95 -155.6 301.9 -155.85 301.75 -156.55 301.5 -157.7 Q300.1 -164.05 299.75 -168.4 L299.65 -170.45 299.6 -170.5 299.55 -172.15 299.6 -175.0 299.6 -175.05 Q299.85 -176.25 302.25 -179.0 302.65 -179.15 302.5 -179.4 M320.5 -168.1 L316.95 -168.4 Q303.95 -167.5 303.2 -155.5 303.05 -152.5 304.5 -149.75 304.6 -148.85 305.15 -148.95 304.6 -154.9 305.8 -157.5 306.7 -159.85 310.9 -163.5 313.65 -165.65 317.85 -167.85 L318.4 -167.35 318.9 -166.65 319.95 -167.2 Q320.6 -167.5 320.5 -168.1 M322.7 -165.65 L324.15 -166.55 323.1 -168.0 322.05 -167.5 318.65 -165.9 318.15 -166.4 317.6 -166.95 Q310.5 -162.2 309.05 -160.75 304.85 -156.45 305.95 -149.75 305.9 -151.75 307.6 -155.1 L310.0 -158.55 Q313.0 -161.7 317.6 -162.45 L317.85 -162.6 Q318.5 -162.75 321.0 -164.6 L322.7 -165.65 M307.55 -144.2 Q308.25 -142.75 309.45 -141.5 311.8 -139.15 316.3 -138.45 320.6 -137.95 324.15 -139.5 327.45 -146.7 335.45 -149.5 L319.95 -160.25 317.6 -161.7 316.95 -161.7 Q313.5 -161.7 310.1 -157.65 307.1 -153.6 306.7 -150.7 306.2 -147.0 307.55 -144.2 M323.1 -165.0 L318.8 -162.2 334.1 -151.4 336.25 -149.9 342.55 -154.45 Q332.3 -159.45 324.7 -166.05 L323.1 -165.0 M282.95 -196.05 L281.1 -196.75 282.7 -195.0 282.95 -196.05 M246.95 -143.2 Q262.6 -141.55 274.95 -133.1 L276.8 -138.2 278.5 -143.6 276.4 -151.85 Q273.35 -148.6 271.65 -147.9 L265.9 -147.0 Q250.4 -145.3 238.1 -152.75 233.1 -155.8 230.6 -158.95 L224.85 -169.55 221.2 -175.4 221.25 -175.4 220.1 -177.2 218.4 -179.55 216.95 -179.55 Q199.0 -177.7 188.6 -168.4 186.1 -165.9 186.15 -165.1 186.1 -164.45 188.1 -161.7 L193.9 -154.4 200.55 -146.7 201.75 -145.35 201.85 -145.25 Q203.6 -143.4 205.15 -142.35 L205.7 -142.0 206.35 -141.6 Q208.1 -140.7 210.6 -140.45 L210.65 -140.45 215.4 -140.55 221.0 -141.75 223.45 -142.3 224.05 -142.4 243.6 -143.45 246.95 -143.2 M240.6 -112.0 L257.1 -110.75 261.05 -110.75 263.05 -113.15 Q270.9 -123.8 274.45 -132.3 261.3 -142.05 243.1 -142.65 234.15 -143.2 223.5 -141.35 L214.7 -139.65 Q209.05 -139.25 205.7 -141.1 205.4 -141.2 202.8 -143.45 197.55 -148.45 190.05 -157.85 L187.8 -160.8 185.5 -164.3 185.35 -164.3 185.15 -163.85 Q181.5 -156.75 180.75 -149.75 180.2 -145.95 180.6 -143.85 180.75 -142.65 182.45 -139.5 185.35 -134.0 189.9 -129.45 193.3 -126.0 197.7 -123.1 202.9 -119.85 205.95 -118.8 209.75 -117.35 218.7 -115.75 230.45 -113.25 240.6 -112.0 M299.15 -135.1 Q297.9 -138.05 297.65 -141.5 L297.65 -141.6 295.3 -128.65 Q294.4 -122.8 294.0 -117.25 L294.0 -117.2 Q292.7 -100.75 295.15 -86.65 L295.3 -85.95 297.4 -76.95 297.85 -75.65 Q303.1 -59.45 315.4 -50.15 317.2 -49.0 317.35 -48.3 L317.35 -46.1 Q317.6 -45.2 320.9 -43.2 L322.35 -42.55 Q323.1 -42.3 327.55 -42.65 L332.4 -43.35 342.35 -44.4 Q352.05 -44.65 362.35 -42.15 L356.35 -42.7 342.55 -43.45 332.8 -42.55 323.4 -41.75 335.05 -33.5 338.85 -30.75 346.2 -4.1 Q348.25 -1.2 352.1 1.1 L354.35 2.35 354.65 2.5 355.05 2.65 357.75 3.75 368.25 3.25 374.7 1.75 375.0 1.65 375.15 1.6 377.3 0.9 Q397.9 -6.45 414.95 -29.3 L412.35 -32.45 Q410.75 -31.9 406.3 -33.75 L402.1 -35.2 Q396.45 -37.3 383.85 -40.05 378.05 -41.25 375.3 -42.95 370.2 -46.25 372.05 -50.3 373.5 -53.7 377.95 -54.75 382.15 -55.8 386.35 -54.2 383.95 -60.65 380.6 -62.35 378.85 -63.15 372.2 -63.15 365.85 -63.15 365.5 -63.3 L355.25 -66.7 Q350.25 -67.9 346.45 -67.85 L343.2 -67.75 Q342.1 -67.5 340.55 -65.5 L339.65 -63.95 338.6 -62.75 Q337.65 -62.1 335.3 -62.35 333.05 -62.5 332.4 -63.15 330.45 -64.75 332.4 -69.45 L335.15 -71.0 Q336.85 -72.1 337.55 -73.1 L338.2 -75.85 338.45 -76.95 338.65 -77.75 338.85 -78.5 339.1 -79.7 341.9 -109.7 341.85 -110.85 341.2 -117.35 Q340.0 -125.1 338.2 -127.55 L337.95 -125.9 337.25 -124.75 336.6 -124.05 333.5 -121.9 Q332.3 -121.3 331.0 -120.85 327.6 -119.85 323.0 -120.1 317.6 -120.65 312.75 -122.7 307.65 -124.9 304.25 -128.0 L302.35 -129.95 301.15 -131.5 Q299.95 -133.2 299.15 -135.1 M297.25 -125.2 Q296.3 -124.05 295.95 -113.9 295.3 -91.75 298.85 -79.4 302.1 -68.25 312.5 -55.25 L315.4 -52.0 315.45 -51.95 315.5 -51.9 315.65 -51.75 315.7 -51.7 317.75 -50.1 Q318.65 -49.55 319.3 -49.6 319.95 -49.65 320.6 -50.15 L322.2 -52.35 322.7 -53.45 322.9 -53.95 323.25 -54.9 Q324.4 -58.3 324.4 -62.75 324.4 -63.9 324.0 -65.2 L323.5 -66.4 323.4 -66.55 323.05 -67.25 323.0 -67.35 Q312.75 -83.9 308.8 -106.55 308.9 -102.75 307.1 -100.15 L306.2 -99.1 Q308.7 -98.6 310.25 -96.2 311.8 -94.0 311.8 -91.1 311.8 -87.7 309.45 -85.05 308.9 -84.65 309.2 -84.4 312.35 -84.4 314.3 -81.9 316.15 -79.7 316.15 -76.4 316.15 -73.4 314.05 -70.25 318.0 -71.95 320.9 -69.3 323.5 -66.95 323.5 -62.75 323.5 -59.35 321.65 -57.1 319.7 -54.5 316.4 -54.6 311.15 -54.65 310.1 -61.05 309.45 -64.45 311.45 -67.85 312.1 -68.4 311.95 -68.8 308.7 -67.25 305.95 -69.3 303.3 -71.3 302.8 -74.55 301.95 -78.9 304.5 -81.9 L305.8 -83.35 Q300.65 -83.35 299.6 -89.55 298.7 -94.15 301.85 -97.55 L302.4 -98.05 Q298.45 -98.85 297.55 -103.45 296.6 -107.9 299.0 -111.05 L300.4 -112.5 Q295.95 -113.95 296.85 -119.85 297.9 -125.9 302.65 -125.75 303.55 -125.75 305.15 -124.7 304.35 -126.95 301.35 -126.9 298.55 -126.95 297.25 -125.2 M310.95 -55.85 L310.25 -56.7 Q300.8 -68.95 297.65 -80.75 294.35 -93.75 295.3 -114.45 295.65 -124.2 296.45 -125.5 297.75 -127.45 300.65 -127.7 305.5 -128.4 307.75 -120.9 L308.95 -111.7 Q310.9 -94.25 317.85 -78.9 L321.35 -71.55 321.45 -71.35 323.1 -68.55 324.95 -65.25 Q325.35 -63.75 325.35 -61.9 325.25 -59.05 324.15 -55.25 L324.1 -55.05 324.0 -54.75 323.95 -54.65 320.95 -49.4 Q320.35 -49.0 319.75 -48.85 L319.45 -48.85 Q318.25 -48.7 316.0 -50.3 314.35 -51.6 310.95 -55.85 M304.65 -114.85 L305.7 -116.15 306.3 -116.85 306.45 -117.65 306.5 -117.95 306.55 -118.5 306.6 -119.85 Q306.45 -125.75 301.45 -124.8 299.75 -124.55 298.45 -122.85 297.1 -120.9 297.25 -118.0 297.5 -115.0 299.5 -113.65 300.65 -112.9 302.5 -113.15 L302.6 -113.15 302.75 -113.2 302.9 -113.2 303.35 -113.35 304.65 -114.85 M298.5 -108.55 Q297.6 -106.25 298.25 -103.5 L298.45 -102.75 Q299.75 -98.7 303.3 -98.85 306.9 -99.05 307.85 -102.75 308.2 -104.15 308.15 -106.05 L308.05 -107.8 304.65 -112.3 303.95 -112.4 302.8 -112.35 Q300.4 -112.1 299.0 -109.6 L298.5 -108.55 M304.2 -113.0 Q307.25 -112.35 308.7 -108.15 L307.25 -119.45 Q307.1 -115.4 304.2 -113.0 M231.25 -186.75 L236.5 -185.2 Q235.7 -189.65 233.9 -191.2 L231.9 -191.45 229.85 -190.95 231.25 -186.75 M304.45 -84.85 L306.05 -84.15 Q308.55 -84.3 310.0 -86.65 311.15 -88.9 311.05 -91.75 310.75 -94.8 309.2 -96.5 307.6 -98.6 304.85 -98.15 300.15 -97.35 300.25 -91.55 L300.3 -90.55 Q300.4 -88.35 301.1 -86.9 L301.1 -86.85 301.5 -86.2 301.9 -86.0 302.1 -85.85 Q303.2 -85.05 304.45 -84.85 M304.5 -80.6 Q302.9 -78.0 303.4 -74.95 303.8 -71.55 306.45 -69.85 308.25 -68.7 310.5 -69.2 312.6 -69.6 313.8 -71.15 316.55 -74.7 314.85 -79.3 313.1 -84.15 308.7 -83.5 306.05 -83.1 304.5 -80.6 M316.0 -70.0 Q313.4 -69.6 311.8 -67.1 310.25 -64.45 310.8 -61.45 311.15 -58.05 313.8 -56.35 315.6 -55.15 317.85 -55.65 319.95 -56.05 321.15 -57.65 323.9 -61.2 322.2 -65.8 320.45 -70.65 316.0 -70.0 M339.25 -247.45 Q339.9 -245.7 342.95 -244.6 349.5 -241.45 357.5 -245.3 361.55 -247.1 364.15 -249.5 L369.3 -254.05 393.7 -268.35 Q404.55 -274.8 412.7 -278.35 412.2 -279.55 409.7 -282.0 405.7 -286.55 401.25 -289.8 L401.15 -289.85 398.45 -291.7 394.95 -293.75 Q391.85 -295.4 388.75 -296.45 382.75 -298.45 376.75 -298.15 371.45 -297.85 367.5 -296.45 L365.25 -295.5 Q361.8 -293.95 355.0 -287.4 350.9 -283.35 347.25 -276.65 345.5 -273.6 344.15 -270.3 L342.55 -266.15 Q340.3 -259.55 339.5 -252.1 L339.2 -248.5 339.15 -247.75 339.25 -247.45 M341.6 -239.15 Q343.55 -237.9 347.65 -237.15 361.65 -235.45 372.55 -244.6 L377.95 -250.25 382.7 -256.45 Q386.6 -261.15 393.45 -267.35 L379.9 -259.45 376.9 -256.45 374.95 -252.1 Q372.7 -248.45 368.1 -247.65 L363.8 -247.5 361.4 -246.75 355.75 -243.7 Q348.45 -241.15 342.8 -243.85 L342.55 -243.95 341.2 -244.5 341.2 -242.55 340.05 -240.4 Q340.95 -239.5 341.5 -239.25 L341.6 -239.15 M348.5 -236.25 Q343.7 -236.6 341.15 -238.3 L340.45 -238.85 Q339.9 -239.8 339.5 -239.5 338.45 -236.1 339.5 -234.75 339.75 -234.5 340.3 -234.15 L341.15 -233.7 342.2 -233.2 342.35 -233.15 342.55 -233.05 Q355.1 -227.85 370.6 -234.5 374.95 -236.5 380.05 -240.15 L383.1 -242.25 383.25 -242.1 383.25 -242.05 Q384.85 -239.9 383.7 -234.0 L384.65 -233.85 Q389.15 -233.05 392.25 -229.95 399.15 -236.3 405.3 -240.1 L405.35 -240.1 405.65 -240.3 407.75 -241.6 Q408.35 -242.15 409.95 -245.3 L413.45 -253.15 414.9 -257.4 414.95 -257.75 413.3 -257.4 Q398.8 -254.4 389.8 -250.35 L387.4 -249.2 Q387.0 -248.7 386.9 -248.95 L387.0 -248.95 387.95 -249.8 Q391.15 -252.3 399.2 -254.75 L414.45 -258.55 419.15 -260.1 Q426.75 -262.45 427.8 -264.15 429.0 -266.65 428.2 -269.15 427.95 -269.95 425.3 -272.15 423.2 -273.9 414.4 -277.25 L414.0 -277.4 413.9 -277.45 413.6 -277.55 413.55 -277.6 413.25 -277.7 411.2 -276.85 Q408.0 -275.4 403.7 -272.95 399.1 -270.6 394.9 -267.2 385.45 -259.7 380.7 -252.75 374.15 -243.2 365.6 -238.85 360.75 -236.35 353.95 -236.2 350.95 -236.05 348.5 -236.25 M354.6 -229.45 L353.8 -229.4 353.75 -229.25 Q350.9 -222.55 351.2 -219.95 L352.35 -219.1 Q354.25 -217.9 357.3 -217.6 L357.35 -217.6 Q362.2 -216.8 365.5 -218.0 366.8 -218.4 369.55 -221.55 L372.7 -226.0 Q361.8 -229.75 354.95 -229.45 L354.6 -229.45 M363.35 -231.25 L357.75 -230.2 Q364.8 -229.95 373.25 -226.5 377.0 -230.1 382.55 -233.75 377.3 -236.35 376.25 -236.6 L375.8 -236.35 375.55 -236.15 365.05 -231.7 363.45 -231.25 363.35 -231.25 M365.9 -217.25 L365.75 -217.2 358.3 -216.65 Q355.9 -216.8 352.5 -218.1 353.15 -217.2 354.75 -216.4 359.7 -213.65 364.3 -213.5 L369.7 -213.8 369.85 -213.8 370.05 -213.85 375.35 -215.45 376.2 -215.85 383.8 -221.0 384.0 -221.2 384.9 -222.05 391.6 -229.25 Q389.35 -232.55 383.6 -233.2 L383.2 -233.05 377.95 -229.4 Q374.15 -226.5 373.25 -225.35 L369.95 -220.85 368.65 -219.4 Q367.1 -217.8 365.9 -217.25 M348.55 -158.5 Q349.55 -157.95 350.0 -157.85 L353.3 -158.15 Q381.35 -160.9 395.8 -169.7 392.35 -176.9 385.15 -185.05 L380.95 -189.65 Q379.35 -191.2 375.7 -193.6 L358.55 -204.05 Q355.35 -202.5 351.95 -201.7 L349.6 -201.2 347.25 -199.2 Q338.05 -191.45 335.45 -188.85 331.25 -184.65 331.1 -184.25 L331.1 -177.7 Q331.1 -172.35 331.5 -171.55 331.7 -171.05 332.8 -170.25 L344.9 -160.9 345.15 -160.7 345.2 -160.65 345.55 -160.45 Q347.4 -159.15 348.55 -158.5 M407.85 -240.35 L407.85 -240.4 403.95 -238.2 Q400.1 -235.7 394.9 -231.25 L390.7 -227.4 385.95 -221.9 Q385.3 -221.55 385.45 -221.25 L393.45 -221.25 396.05 -219.95 396.45 -219.75 397.45 -219.2 397.5 -219.2 402.1 -216.15 403.0 -215.5 Q403.0 -218.9 403.15 -219.3 404.45 -204.6 410.5 -193.95 410.9 -199.1 413.1 -204.05 L411.55 -196.35 Q410.75 -191.6 411.25 -188.05 413.25 -176.55 421.8 -168.4 426.75 -163.65 436.6 -158.8 L452.85 -150.8 452.2 -151.85 448.6 -156.1 448.55 -156.15 427.95 -180.2 424.4 -184.4 Q424.15 -185.2 424.55 -189.9 425.45 -201.75 431.75 -211.95 L432.55 -213.05 436.6 -218.65 Q427.7 -219.25 420.55 -213.95 L419.65 -213.25 420.35 -214.05 420.4 -214.1 420.45 -214.15 420.8 -214.45 421.0 -214.65 Q423.75 -217.2 427.95 -218.65 L425.05 -221.65 Q422.25 -224.8 422.3 -225.05 L422.3 -225.5 422.3 -229.4 Q421.35 -241.2 412.85 -241.85 411.3 -241.95 408.65 -240.75 L408.7 -240.75 407.85 -240.35 M377.95 -214.0 L378.05 -214.0 Q388.1 -214.3 391.2 -213.65 L393.85 -212.95 Q395.95 -212.25 398.3 -211.0 L400.65 -209.8 400.7 -209.75 404.3 -207.85 403.15 -213.9 Q402.6 -215.35 398.8 -217.6 395.9 -219.6 394.05 -220.2 L393.45 -220.35 386.7 -220.35 384.25 -220.35 Q379.4 -216.2 373.25 -213.8 L377.95 -214.0 M366.55 -207.45 Q376.7 -203.25 383.7 -199.5 L386.65 -197.85 388.25 -196.9 389.45 -196.1 389.5 -196.05 391.35 -193.95 399.5 -182.05 399.6 -181.8 Q402.35 -176.75 402.5 -174.45 404.05 -175.35 407.05 -179.25 410.1 -183.2 410.35 -185.6 L409.95 -190.7 410.25 -192.65 409.3 -194.1 Q406.7 -199.1 404.6 -206.45 395.8 -212.45 389.25 -213.25 385.0 -213.65 378.35 -213.25 L367.45 -212.75 Q367.3 -211.85 364.85 -208.15 L366.55 -207.45 M436.45 -216.75 L436.4 -216.7 435.7 -215.9 434.4 -214.3 Q425.4 -202.65 425.2 -185.95 428.6 -196.35 434.65 -200.8 437.35 -203.05 439.7 -203.35 441.85 -204.15 444.4 -201.8 L444.8 -201.45 446.1 -200.25 446.2 -200.15 Q449.0 -196.7 451.6 -189.7 L452.4 -187.35 453.8 -182.85 Q455.75 -176.15 458.25 -162.45 460.75 -180.6 460.9 -193.95 460.9 -209.6 458.5 -216.55 L457.95 -218.1 457.95 -218.15 457.9 -218.3 457.3 -219.6 457.15 -219.85 456.6 -220.75 456.05 -221.5 455.95 -221.6 455.55 -222.0 455.5 -222.05 Q453.25 -223.9 448.8 -223.6 442.15 -222.9 436.45 -216.75 M435.95 -200.95 L456.3 -168.6 455.45 -172.95 437.4 -201.7 435.95 -200.95 M495.35 -172.25 Q492.7 -179.75 488.95 -186.9 477.8 -207.5 457.45 -220.75 L457.35 -220.75 Q458.4 -218.85 459.25 -216.4 461.45 -209.65 461.65 -198.7 L461.65 -195.0 463.4 -193.45 465.5 -191.45 468.8 -188.2 474.15 -182.15 Q492.1 -160.55 501.55 -134.25 L501.55 -134.35 Q501.65 -154.35 495.35 -172.25 M499.6 -122.5 L499.95 -123.75 Q501.25 -128.25 501.15 -129.7 501.15 -130.75 499.95 -134.9 498.25 -140.3 494.6 -148.85 483.55 -173.4 461.95 -193.7 L461.65 -193.7 Q461.6 -186.7 460.9 -178.55 460.1 -169.85 458.65 -159.85 L477.95 -134.25 495.15 -107.2 495.2 -107.2 495.4 -106.85 499.6 -122.5 M449.75 -192.25 L449.25 -193.3 449.65 -192.2 449.8 -192.1 449.75 -192.25 M454.3 -178.0 L453.9 -179.6 453.65 -180.05 454.3 -178.0 M457.4 -162.0 L433.7 -199.2 Q432.3 -197.95 431.05 -196.2 L431.0 -196.15 467.5 -143.7 469.8 -143.6 457.75 -159.6 457.4 -162.0 M430.0 -194.65 L426.95 -188.65 426.5 -187.4 Q425.45 -184.95 425.6 -184.25 L427.55 -181.75 455.9 -148.85 460.6 -144.1 465.1 -143.85 430.2 -194.95 430.0 -194.65 M410.35 -183.6 Q405.35 -171.8 387.0 -164.45 375.05 -159.75 352.25 -157.1 373.1 -154.9 389.0 -159.3 405.9 -164.2 413.25 -175.75 410.9 -180.85 410.35 -183.6 M356.0 -145.25 L356.7 -146.2 358.2 -148.25 358.25 -148.35 358.3 -148.45 Q358.65 -150.55 356.55 -153.45 354.45 -155.95 350.0 -155.25 345.95 -154.6 343.85 -152.5 342.7 -151.5 341.75 -148.95 L341.5 -148.25 341.05 -146.95 341.0 -146.8 340.95 -146.6 Q339.1 -139.0 341.6 -135.95 344.75 -146.6 347.4 -148.7 348.9 -149.75 350.35 -149.5 L350.4 -149.5 Q351.95 -149.1 353.3 -147.25 L354.55 -145.1 355.15 -144.1 356.0 -145.25 M354.7 -155.65 L354.6 -155.65 354.65 -155.65 354.8 -155.6 355.15 -155.45 Q356.0 -155.05 356.75 -154.35 L357.3 -153.65 358.6 -151.05 359.0 -148.95 359.05 -148.15 378.1 -142.3 382.15 -146.25 382.1 -146.25 384.0 -148.35 384.05 -148.35 392.9 -159.2 Q381.9 -154.65 354.7 -155.65 M355.65 -143.45 Q369.65 -139.15 373.75 -138.2 L375.85 -139.9 377.55 -141.75 363.8 -145.8 Q359.6 -147.25 358.4 -147.1 L355.65 -143.45 M361.5 -139.15 L344.8 -142.65 344.55 -142.05 361.05 -138.55 361.5 -139.15 M360.25 -137.5 L344.2 -141.05 343.95 -140.4 343.9 -140.2 359.7 -136.65 360.25 -137.5 M359.1 -135.65 L343.55 -139.25 342.25 -135.2 358.0 -132.7 358.05 -132.9 358.05 -133.0 358.1 -133.1 358.35 -134.0 359.1 -135.65 M332.4 -147.4 Q328.45 -144.9 327.05 -142.65 331.1 -144.65 332.4 -147.4 M376.9 -50.3 Q376.75 -47.25 379.15 -44.65 381.2 -42.15 383.7 -41.9 387.15 -41.75 388.05 -45.3 389.0 -48.6 387.15 -51.45 385.4 -54.25 381.5 -54.2 377.15 -54.1 376.9 -50.3 M337.55 -71.95 Q335.7 -70.25 333.1 -69.05 331.65 -65.8 332.8 -63.8 334.25 -62.75 338.2 -63.4 340.55 -67.1 342.4 -68.15 338.7 -69.85 337.55 -71.95 M401.55 -41.3 Q403.35 -38.25 405.9 -36.45 L406.35 -36.15 406.45 -36.1 Q409.05 -34.8 410.25 -35.45 410.3 -38.45 409.5 -40.45 408.8 -42.15 407.5 -43.15 L405.95 -44.1 404.85 -44.5 404.35 -44.6 401.2 -44.9 400.9 -44.65 400.9 -42.55 401.55 -41.3 M396.05 -38.45 Q392.0 -39.4 389.35 -44.25 387.8 -40.6 384.45 -40.85 L393.85 -38.75 403.3 -35.6 Q408.65 -33.65 411.65 -33.1 L410.35 -34.65 Q409.45 -33.75 407.6 -34.65 403.8 -36.1 400.4 -41.2 398.8 -37.7 396.05 -38.45 M397.35 -49.5 Q393.55 -52.25 390.05 -49.9 L390.05 -45.95 Q390.15 -42.8 394.25 -40.2 396.55 -39.0 397.5 -39.15 399.2 -39.4 400.0 -42.4 401.3 -46.65 397.35 -49.5 M376.4 -49.25 Q376.1 -52.5 377.95 -53.95 372.8 -52.95 372.45 -49.0 371.9 -44.8 379.65 -42.0 L382.4 -41.35 Q380.55 -42.1 379.0 -43.75 376.6 -46.25 376.4 -49.25 M384.45 -40.85 L382.4 -41.35 384.4 -40.85 384.45 -40.85 M397.9 28.1 L397.9 24.9 Q397.9 10.7 403.55 -0.15 L403.85 -0.8 404.35 -1.6 407.1 -5.7 407.3 -5.95 407.8 -6.55 408.75 -7.6 409.15 -8.0 409.4 -8.25 Q411.45 -10.3 413.85 -11.85 L414.15 -12.05 414.45 -12.25 419.95 -14.85 420.55 -15.05 420.45 -15.05 421.0 -15.2 423.1 -15.8 Q422.25 -18.0 419.65 -22.2 L416.0 -27.95 415.75 -28.4 415.45 -28.5 Q404.3 -13.95 392.25 -5.95 380.6 2.05 368.25 4.05 L357.75 4.55 354.35 3.15 Q349.45 1.0 345.8 -3.3 338.6 6.5 336.25 27.0 L335.85 32.4 Q335.85 33.4 337.55 35.8 342.95 44.05 352.9 49.85 L355.3 51.0 355.3 51.05 355.4 51.05 356.15 51.4 358.6 51.2 362.75 49.95 Q369.55 47.85 379.3 42.5 389.3 37.35 393.35 34.3 L394.25 33.55 Q396.8 31.25 397.6 29.9 L397.9 29.25 397.9 28.1 M413.7 36.8 L413.7 36.85 429.9 4.7 428.75 -0.55 Q426.75 -8.7 423.5 -15.1 410.75 -12.25 404.1 0.5 398.3 11.4 398.55 29.65 395.9 33.7 390.4 37.35 L379.65 43.15 Q373.5 46.55 368.7 48.55 L362.75 50.85 Q358.0 52.45 355.9 52.2 355.0 52.05 352.65 50.6 341.85 44.6 335.55 34.1 335.15 49.05 343.2 59.55 349.45 67.9 359.95 71.85 L361.3 72.35 363.15 73.05 370.6 72.55 Q388.95 70.05 401.95 56.4 L405.9 52.3 413.7 36.8" fill="#000000" fill-rule="evenodd" stroke="none"/>
    <path d="M236.2 -227.05 Q235.95 -226.7 235.85 -226.25 L235.75 -225.55 234.55 -225.75 Q235.0 -226.45 236.2 -227.05 M247.1 -224.65 L246.55 -225.4 246.05 -226.35 246.05 -226.0 245.7 -226.4 Q241.8 -222.65 237.25 -227.5 L237.45 -227.55 243.2 -227.7 Q244.85 -227.25 246.05 -226.35 L247.4 -225.05 247.1 -224.65 M240.45 -226.9 Q240.45 -225.6 241.65 -225.35 243.05 -225.1 243.35 -226.4 243.6 -227.55 242.15 -227.8 240.7 -228.1 240.45 -226.9 M209.4 -198.65 L210.5 -198.4 Q209.05 -205.8 213.05 -210.25 L215.5 -213.05 Q232.5 -223.9 250.95 -208.55 256.3 -203.95 279.95 -186.9 290.6 -179.25 293.9 -174.35 293.6 -168.25 295.0 -163.0 293.45 -166.95 291.05 -170.6 287.55 -176.5 282.6 -180.35 L281.75 -181.15 279.8 -182.5 278.9 -183.45 268.5 -190.55 268.35 -190.6 268.15 -190.7 268.0 -190.8 Q267.4 -191.15 266.85 -191.45 L255.15 -197.55 253.55 -198.55 251.75 -199.2 Q243.7 -202.95 237.3 -205.0 232.55 -206.55 228.65 -207.2 226.25 -207.5 225.75 -207.2 226.0 -206.7 228.9 -206.45 L233.35 -205.4 234.1 -205.15 236.7 -203.75 240.3 -202.25 Q252.8 -196.55 266.05 -184.55 284.9 -169.75 280.4 -162.55 275.1 -163.35 267.95 -165.3 L267.8 -165.35 267.75 -165.35 267.25 -165.5 267.2 -165.5 254.1 -169.05 Q248.55 -171.0 248.2 -171.25 L246.75 -172.7 239.55 -181.75 237.15 -185.7 235.7 -190.05 Q234.4 -192.4 233.1 -192.55 L228.9 -191.45 229.15 -190.15 230.5 -186.25 231.35 -186.0 Q233.0 -171.8 244.5 -166.05 258.95 -158.8 260.65 -157.75 L264.4 -155.0 Q266.15 -151.6 267.05 -147.95 L265.9 -147.8 Q250.95 -145.85 238.6 -153.45 234.85 -155.65 232.7 -157.85 L232.1 -158.45 231.25 -159.45 211.6 -197.25 Q210.95 -197.85 209.4 -198.65 M294.4 -173.55 L294.65 -173.15 294.65 -171.05 294.4 -173.55 M295.95 -182.75 L294.75 -183.8 295.1 -184.05 295.95 -182.75 M289.4 -186.8 L289.15 -186.9 288.95 -187.1 289.4 -186.8 M292.5 -154.95 L296.45 -153.35 296.45 -153.3 296.4 -153.3 296.15 -153.4 294.75 -154.0 292.5 -154.95 M266.5 -190.75 L265.0 -191.45 263.85 -192.15 266.5 -190.75 M247.7 -223.15 L247.2 -223.3 247.0 -223.35 Q248.0 -224.75 249.55 -225.45 247.75 -224.25 247.7 -223.15 M250.95 -225.95 L253.7 -226.25 Q258.3 -226.25 260.5 -223.5 262.2 -221.4 262.5 -216.95 L259.55 -218.3 260.4 -219.8 Q260.75 -221.3 259.65 -222.75 259.8 -222.15 259.6 -221.55 L259.6 -221.4 259.45 -222.85 Q255.85 -219.35 250.9 -224.2 L251.2 -224.85 250.6 -224.45 Q250.55 -225.15 250.95 -225.95 M257.75 -223.5 Q258.15 -224.7 256.6 -225.35 254.85 -225.9 254.5 -224.65 254.1 -223.65 255.8 -222.85 257.5 -222.3 257.75 -223.5 M272.7 -208.8 L273.5 -209.45 Q274.45 -210.65 274.2 -212.4 L273.65 -211.4 Q271.8 -209.4 269.35 -211.05 270.15 -210.65 271.4 -210.6 273.2 -210.75 273.85 -212.2 L273.25 -211.95 271.05 -212.35 Q267.75 -213.6 266.9 -217.55 L267.65 -218.2 267.2 -218.15 267.25 -218.2 267.75 -218.25 271.05 -217.95 272.9 -217.0 273.0 -216.95 Q275.2 -215.35 275.35 -212.45 275.6 -208.8 273.9 -208.4 273.65 -208.35 272.7 -208.8 M265.95 -217.65 L265.1 -216.95 Q264.25 -215.95 264.3 -214.6 L263.25 -215.9 263.4 -216.5 263.4 -216.55 263.45 -216.6 263.45 -216.65 265.95 -217.65 M268.65 -211.7 L268.9 -211.4 268.4 -211.8 268.65 -211.7 M270.75 -216.15 Q269.7 -215.35 270.9 -213.9 271.8 -212.75 273.0 -213.4 273.75 -214.2 272.85 -215.6 271.65 -216.8 270.75 -216.15 M281.65 -206.3 Q280.6 -205.55 281.9 -204.2 282.8 -202.75 284.0 -203.7 285.05 -204.5 283.75 -205.8 282.8 -207.25 281.65 -206.3 M280.7 -198.5 Q282.5 -198.1 283.75 -199.1 284.95 -200.1 284.95 -201.85 L284.65 -201.45 Q278.2 -201.8 278.45 -208.0 L278.5 -208.0 279.65 -208.6 278.5 -208.6 278.5 -208.65 278.4 -208.6 Q277.6 -208.4 276.8 -207.75 274.6 -206.2 275.6 -203.5 L275.45 -203.7 275.35 -203.8 Q273.75 -206.3 274.55 -207.6 275.1 -208.55 277.7 -208.95 281.9 -209.45 284.65 -206.55 287.55 -203.45 285.85 -199.5 285.2 -197.8 284.55 -197.4 L284.35 -197.3 284.25 -197.3 284.0 -197.25 283.95 -197.25 283.85 -197.25 281.65 -197.95 280.7 -198.5 M313.8 -184.5 L313.85 -184.35 313.75 -184.55 313.8 -184.5 M313.25 -185.2 L316.0 -175.35 313.8 -177.85 Q311.0 -181.0 309.2 -181.25 L307.75 -184.25 312.2 -186.65 313.25 -185.2 M316.2 -175.1 L316.2 -175.15 316.25 -175.05 316.2 -175.1 M320.7 -169.05 L321.75 -173.2 321.8 -168.3 321.25 -168.25 321.5 -168.1 321.25 -168.0 321.2 -168.15 320.7 -169.05 M302.6 -178.15 L302.8 -178.35 Q306.7 -182.3 310.5 -180.05 L311.8 -178.85 313.0 -177.45 Q317.6 -173.15 319.6 -169.3 312.0 -169.5 307.75 -166.3 306.8 -167.9 302.6 -178.15 M303.55 -160.55 Q302.85 -158.75 302.5 -156.55 300.5 -166.55 300.4 -169.85 L300.4 -174.8 300.45 -175.1 300.7 -175.7 301.1 -176.4 303.55 -160.55 M294.1 -186.55 L293.7 -186.1 293.4 -186.15 291.95 -186.55 291.45 -186.75 294.1 -186.55 M291.2 -186.85 L290.55 -187.2 290.8 -187.2 290.9 -187.2 291.2 -186.85 M286.0 -191.3 L285.65 -191.75 285.95 -191.5 286.0 -191.4 286.0 -191.3 M285.6 -191.75 L284.95 -192.55 Q283.2 -195.3 284.95 -196.75 L285.8 -197.15 Q283.95 -194.9 285.6 -191.75 M286.55 -197.35 L287.5 -197.55 287.3 -197.4 286.55 -196.65 286.55 -197.35 M289.4 -197.65 Q291.4 -197.45 293.1 -196.0 L293.6 -195.4 Q295.1 -193.5 295.05 -192.0 L294.9 -192.0 Q289.1 -188.35 288.35 -197.0 L289.4 -197.65 M292.55 -195.4 L290.3 -195.3 Q289.65 -194.35 291.1 -193.3 292.55 -192.4 293.2 -193.3 293.85 -194.5 292.55 -195.4 M295.8 -163.85 Q295.35 -167.9 295.25 -171.05 295.2 -172.95 295.3 -174.55 295.55 -179.95 297.0 -181.4 L298.2 -179.95 298.3 -179.7 Q297.0 -173.25 297.15 -168.75 L295.8 -163.85 M304.9 -136.7 Q312.1 -124.5 324.8 -128.5 L328.75 -130.2 330.55 -131.8 Q334.25 -129.3 336.8 -125.45 335.8 -124.2 333.35 -122.7 L330.95 -121.6 330.7 -123.2 Q331.1 -125.9 326.55 -125.9 L316.3 -126.25 Q310.0 -127.6 305.55 -132.8 307.6 -131.25 304.6 -133.75 L301.85 -135.6 299.85 -135.55 Q298.15 -141.05 304.9 -136.7 M322.05 -167.5 L322.7 -165.65 321.0 -164.6 Q318.5 -162.75 317.85 -162.6 L317.6 -162.45 Q313.0 -161.7 310.0 -158.55 L307.6 -155.1 Q305.9 -151.75 305.95 -149.75 304.85 -156.45 309.05 -160.75 310.5 -162.2 317.6 -166.95 L318.15 -166.4 318.65 -165.9 322.05 -167.5 M316.95 -161.7 L329.8 -151.85 Q328.05 -151.3 325.85 -149.5 321.7 -146.0 322.55 -140.85 315.45 -135.0 307.55 -144.2 306.2 -147.0 306.7 -150.7 307.1 -153.6 310.1 -157.65 313.5 -161.7 316.95 -161.7 M334.1 -151.4 L318.8 -162.2 323.1 -165.0 335.25 -154.1 Q334.9 -151.8 334.1 -151.4 M230.6 -158.95 Q241.3 -142.3 267.45 -145.15 266.35 -141.7 262.1 -140.1 255.1 -142.6 246.95 -143.2 L243.6 -143.45 224.05 -142.4 223.45 -142.3 220.4 -141.85 221.0 -141.75 215.4 -140.55 210.65 -140.45 210.6 -140.45 Q207.75 -141.15 205.7 -142.0 L205.15 -142.35 Q203.6 -143.4 201.85 -145.25 L201.75 -145.35 195.15 -153.4 195.55 -153.15 Q192.55 -166.65 221.2 -175.4 L224.85 -169.55 230.6 -158.95 M189.9 -129.45 L189.95 -129.55 Q189.3 -135.8 194.3 -150.3 L194.65 -149.85 Q198.4 -138.7 211.65 -137.8 217.25 -137.1 227.6 -137.7 235.3 -137.85 241.9 -135.05 248.15 -132.45 250.95 -128.25 253.8 -123.9 251.45 -119.7 248.9 -115.1 240.6 -112.0 230.45 -113.25 218.7 -115.75 209.75 -117.35 205.95 -118.8 202.9 -119.85 197.7 -123.1 193.3 -126.0 189.9 -129.45 M294.0 -117.25 Q295.65 -125.9 299.15 -135.1 299.95 -133.2 301.15 -131.5 L301.6 -130.6 302.35 -129.95 304.25 -128.0 308.7 -121.3 Q311.45 -96.5 317.6 -81.15 319.3 -77.15 321.4 -73.25 L324.3 -69.3 328.35 -63.15 328.5 -63.15 Q330.45 -63.3 328.5 -69.05 324.8 -79.55 330.05 -111.15 331.1 -117.4 331.0 -120.85 332.3 -121.3 333.5 -121.9 L336.6 -124.05 337.25 -124.75 Q340.7 -119.15 341.85 -110.85 L341.9 -109.7 339.1 -79.7 338.85 -78.5 338.65 -77.75 338.45 -76.95 338.2 -75.85 337.55 -73.1 Q336.85 -72.1 335.15 -71.0 L332.4 -69.45 Q330.45 -64.75 332.4 -63.15 333.05 -62.5 335.3 -62.35 337.65 -62.1 338.6 -62.75 L339.65 -63.95 340.55 -65.5 Q342.1 -67.5 343.2 -67.75 L346.45 -67.85 Q350.25 -67.9 355.25 -66.7 L365.5 -63.3 Q365.85 -63.15 372.2 -63.15 378.85 -63.15 380.6 -62.35 383.95 -60.65 386.35 -54.2 382.15 -55.8 377.95 -54.75 373.5 -53.7 372.05 -50.3 370.2 -46.25 375.3 -42.95 378.05 -41.25 383.85 -40.05 396.45 -37.3 402.1 -35.2 L406.3 -33.75 Q410.75 -31.9 412.35 -32.45 L414.95 -29.3 Q397.9 -6.45 377.3 0.9 L375.15 1.6 375.0 1.65 374.75 1.7 Q378.6 -1.0 376.75 -4.9 375.05 -8.7 369.55 -11.85 363.35 -15.25 345.8 -32.7 L345.15 -31.9 Q349.5 -5.7 354.1 1.8 L354.45 2.2 355.05 2.65 354.65 2.5 354.35 2.35 352.1 1.1 Q346.55 -5.5 342.55 -31.9 L336.45 -39.5 Q355.05 -44.15 364.05 -40.2 362.45 -41.55 356.35 -42.7 L362.35 -42.15 Q352.05 -44.65 342.35 -44.4 334.15 -44.6 326.4 -42.85 L326.15 -42.95 Q318.15 -43.8 319.75 -48.85 320.35 -49.0 320.95 -49.4 L323.95 -54.65 324.0 -54.75 324.1 -55.05 324.15 -55.25 Q325.25 -59.05 325.35 -61.9 325.35 -63.75 324.95 -65.25 L323.1 -68.55 321.45 -71.35 321.35 -71.55 317.85 -78.9 Q310.9 -94.25 308.95 -111.7 L307.75 -120.9 Q305.5 -128.4 300.65 -127.7 297.75 -127.45 296.45 -125.5 295.65 -124.2 295.3 -114.45 294.35 -93.75 297.65 -80.75 300.8 -68.95 310.25 -56.7 L310.95 -55.85 Q302.4 -65.15 297.85 -75.65 L297.4 -76.95 295.3 -85.95 295.15 -86.65 Q292.7 -100.75 294.0 -117.2 L294.0 -117.25 M305.7 -116.15 L305.9 -116.65 304.75 -115.9 Q301.85 -114.45 300.15 -118.0 298.45 -121.7 301.35 -122.85 L302.05 -123.15 299.6 -123.0 Q298.15 -122.35 297.65 -120.5 297.25 -118.8 298.05 -116.95 298.95 -115.1 300.55 -114.3 302.25 -113.55 303.7 -114.3 L304.65 -114.85 303.35 -113.35 302.9 -113.2 302.75 -113.2 302.6 -113.15 302.5 -113.15 Q300.65 -112.9 299.5 -113.65 297.5 -115.0 297.25 -118.0 297.1 -120.9 298.45 -122.85 299.75 -124.55 301.45 -124.8 306.45 -125.75 306.6 -119.85 L306.55 -118.5 306.5 -117.95 306.45 -117.65 306.3 -116.85 305.7 -116.15 M303.55 -122.2 Q301.95 -122.2 302.0 -120.25 301.95 -118.4 303.55 -118.4 305.15 -118.4 305.15 -120.25 305.15 -122.2 303.55 -122.2 M298.25 -103.5 L298.45 -103.05 Q299.45 -100.85 301.45 -99.9 303.55 -99.0 305.25 -99.9 306.85 -100.7 307.45 -102.35 L306.45 -101.75 Q302.9 -100.15 301.05 -104.35 300.15 -106.05 300.65 -107.9 301.05 -109.6 302.5 -110.25 L303.5 -110.55 300.4 -110.4 Q299.1 -109.75 298.5 -108.55 L299.0 -109.6 Q300.4 -112.1 302.8 -112.35 L303.95 -112.4 304.65 -112.3 308.05 -107.8 308.15 -106.05 Q308.2 -104.15 307.85 -102.75 306.9 -99.05 303.3 -98.85 299.75 -98.7 298.45 -102.75 L298.25 -103.5 M304.2 -113.0 Q307.1 -115.4 307.25 -119.45 L308.7 -108.15 Q307.25 -112.35 304.2 -113.0 M306.2 -107.9 Q305.25 -109.6 303.95 -108.8 302.5 -107.9 303.4 -106.35 304.5 -104.5 305.8 -105.4 307.25 -106.2 306.2 -107.9 M305.4 -93.95 Q306.3 -92.45 307.75 -93.05 309.05 -94.0 308.15 -95.55 307.25 -97.55 305.95 -96.5 304.5 -95.85 305.4 -93.95 M304.45 -84.85 L305.95 -84.95 Q308.0 -85.2 309.35 -87.0 310.5 -88.55 310.4 -90.4 L309.75 -89.25 Q307.1 -85.85 303.8 -88.45 302.35 -89.55 302.25 -91.1 301.95 -92.95 303.05 -94.25 303.65 -95.0 304.5 -95.4 302.65 -95.15 301.05 -93.2 300.45 -92.45 300.25 -91.55 300.15 -97.35 304.85 -98.15 307.6 -98.6 309.2 -96.5 310.75 -94.8 311.05 -91.75 311.15 -88.9 310.0 -86.65 308.55 -84.3 306.05 -84.15 L304.45 -84.85 M301.1 -86.85 L301.9 -86.0 301.5 -86.2 301.1 -86.85 M313.15 -80.45 Q312.2 -82.05 310.8 -81.4 309.45 -80.45 310.4 -78.9 311.45 -77.05 312.6 -77.95 314.2 -78.75 313.15 -80.45 M304.5 -80.6 Q306.05 -83.1 308.7 -83.5 313.1 -84.15 314.85 -79.3 316.55 -74.7 313.8 -71.15 312.6 -69.6 310.5 -69.2 308.25 -68.7 306.45 -69.85 303.8 -71.55 303.4 -74.95 302.9 -78.0 304.5 -80.6 M306.85 -80.8 Q305.3 -80.05 304.5 -78.35 303.4 -76.25 304.1 -74.05 304.85 -71.95 306.85 -70.9 308.9 -69.85 311.05 -70.6 313.25 -71.45 314.3 -73.5 315.25 -75.4 314.75 -77.25 L314.2 -75.85 Q312.2 -72.1 308.3 -73.9 304.2 -76.0 306.3 -79.95 L306.85 -80.8 M314.85 -67.3 Q313.25 -66.65 312.35 -65.1 311.05 -63.3 311.55 -61.05 312.1 -58.85 313.95 -57.65 315.9 -56.35 318.15 -56.85 320.2 -57.4 321.55 -59.35 322.7 -61.35 322.35 -63.55 L322.3 -63.75 Q322.2 -62.75 321.65 -61.85 319.3 -58.05 315.65 -60.4 314.05 -61.3 313.65 -63.15 313.25 -65.0 314.2 -66.55 L314.85 -67.3 M317.6 -67.85 Q316.15 -67.25 317.2 -65.4 318.1 -63.8 319.6 -64.45 321.0 -65.15 319.95 -66.95 319.05 -68.55 317.6 -67.85 M316.0 -70.0 Q320.45 -70.65 322.2 -65.8 323.9 -61.2 321.15 -57.65 319.95 -56.05 317.85 -55.65 315.6 -55.15 313.8 -56.35 311.15 -58.05 310.8 -61.45 310.25 -64.45 311.8 -67.1 313.4 -69.6 316.0 -70.0 M401.15 -289.85 L401.25 -289.8 Q405.7 -286.55 409.7 -282.0 412.2 -279.55 412.7 -278.35 404.55 -274.8 393.7 -268.35 L369.3 -254.05 364.15 -249.5 Q361.55 -247.1 357.5 -245.3 349.5 -241.45 342.95 -244.6 339.9 -245.7 339.25 -247.45 L339.35 -248.35 339.2 -248.5 339.5 -252.1 Q340.3 -259.55 342.55 -266.15 L343.25 -267.6 344.15 -270.3 Q345.5 -273.6 347.25 -276.65 350.9 -283.35 355.0 -287.4 361.8 -293.95 365.25 -295.5 L367.5 -296.45 Q376.7 -298.8 388.8 -294.95 367.3 -297.1 355.8 -273.15 L354.6 -270.6 Q351.95 -264.6 352.35 -257.2 352.5 -253.55 353.3 -250.8 353.95 -272.7 375.1 -282.0 381.65 -285.05 389.65 -286.35 L394.65 -287.1 395.15 -287.1 Q402.1 -287.4 401.05 -289.65 L400.9 -290.0 401.15 -289.85 M388.75 -296.45 Q391.85 -295.4 394.95 -293.75 L390.4 -295.8 388.75 -296.45 M386.9 -259.05 L385.85 -257.75 382.25 -253.3 Q384.5 -256.0 389.65 -257.9 L403.7 -262.85 Q415.2 -267.3 414.85 -277.0 418.1 -275.35 420.75 -273.35 427.15 -268.25 423.85 -265.9 421.9 -264.3 405.0 -258.25 389.35 -252.5 387.3 -249.6 L387.95 -249.8 387.0 -248.95 386.9 -248.95 Q387.0 -248.7 387.4 -249.2 L396.55 -251.5 Q407.7 -253.3 412.15 -253.05 409.15 -244.4 405.1 -240.0 L405.3 -240.1 Q399.15 -236.3 392.25 -229.95 389.15 -233.05 384.65 -233.85 L384.8 -234.15 Q386.1 -239.4 383.2 -242.4 L383.25 -242.1 383.1 -242.25 380.05 -240.15 Q374.95 -236.5 370.6 -234.5 355.1 -227.85 342.55 -233.05 L342.35 -233.15 342.2 -233.2 341.15 -233.7 340.3 -234.15 Q340.0 -236.1 341.15 -238.3 343.7 -236.6 348.5 -236.25 359.6 -234.25 369.3 -240.0 375.7 -243.85 380.2 -250.0 382.55 -254.45 386.9 -259.05 M414.0 -277.4 L412.45 -276.95 413.6 -277.55 413.9 -277.45 414.0 -277.4 M357.35 -217.6 L357.3 -217.6 Q354.25 -217.9 352.35 -219.1 351.25 -222.65 353.95 -227.75 366.55 -226.45 367.3 -223.75 368.1 -221.4 364.95 -219.4 362.0 -217.75 357.35 -217.6 M368.65 -219.4 L369.95 -220.85 373.25 -225.35 Q374.15 -226.5 377.95 -229.4 L383.2 -233.05 383.6 -233.2 Q389.35 -232.55 391.6 -229.25 L384.9 -222.05 384.0 -221.2 383.8 -221.0 376.2 -215.85 375.35 -215.45 370.05 -213.85 369.85 -213.8 369.7 -213.8 364.3 -213.5 Q359.7 -213.65 354.75 -216.4 353.15 -217.2 352.5 -218.1 355.9 -216.8 358.3 -216.65 L365.75 -217.2 365.9 -217.25 366.55 -217.35 Q367.25 -217.65 368.65 -219.4 M332.8 -170.25 L332.6 -170.4 333.6 -184.0 Q351.7 -199.5 351.05 -200.0 355.9 -200.4 358.15 -201.7 L359.2 -201.3 361.55 -199.85 Q369.15 -196.25 374.45 -192.7 370.95 -188.45 352.9 -179.65 336.35 -171.6 333.15 -170.6 340.9 -171.2 379.8 -188.55 L381.9 -186.5 382.15 -186.35 382.95 -185.45 390.4 -175.85 392.45 -173.05 391.1 -171.2 Q388.0 -169.15 384.0 -167.7 374.65 -164.45 359.85 -161.55 L355.35 -160.55 Q351.5 -159.95 348.55 -158.5 347.4 -159.15 345.55 -160.45 L345.2 -160.65 345.15 -160.7 344.9 -160.9 332.8 -170.25 M448.55 -156.15 Q421.15 -168.7 414.95 -188.45 L414.25 -190.85 414.05 -195.15 Q413.65 -206.35 418.0 -210.5 L416.25 -208.95 Q414.85 -207.65 413.85 -205.95 405.8 -207.5 409.6 -221.0 L402.75 -219.4 402.8 -219.2 Q400.65 -218.85 399.2 -219.25 398.15 -219.55 397.4 -220.25 395.6 -221.95 395.7 -226.0 397.45 -230.1 401.95 -234.9 L407.85 -240.35 408.7 -240.75 Q418.25 -242.55 421.75 -227.75 L421.9 -225.35 422.3 -225.5 422.3 -225.05 Q422.25 -224.8 425.05 -221.65 L427.95 -218.65 Q423.75 -217.2 421.0 -214.65 L420.85 -214.6 420.8 -214.45 420.45 -214.15 420.4 -214.1 419.8 -213.9 420.35 -214.05 419.65 -213.25 420.55 -213.95 420.4 -213.7 421.85 -214.35 Q431.4 -216.2 432.55 -213.05 L431.75 -211.95 Q425.45 -201.75 424.55 -189.9 424.15 -185.2 424.4 -184.4 L427.95 -180.2 448.55 -156.15 M396.45 -219.75 L396.95 -219.6 397.45 -219.2 396.45 -219.75 M393.85 -212.95 L394.05 -219.85 394.1 -219.8 398.05 -217.6 Q400.1 -216.25 401.1 -215.0 L400.7 -209.75 400.65 -209.8 Q397.3 -211.9 393.85 -212.95 M366.55 -207.45 Q368.2 -208.9 368.5 -210.3 370.8 -210.65 373.25 -211.6 L378.5 -211.95 Q383.25 -212.25 386.6 -212.15 L386.7 -212.0 386.6 -212.05 Q387.8 -209.8 388.4 -207.8 388.8 -205.85 388.85 -203.55 L388.75 -201.9 Q388.25 -199.65 386.65 -197.85 L383.7 -199.5 Q376.7 -203.25 366.55 -207.45 M392.6 -211.2 L393.1 -211.0 Q396.55 -209.55 400.55 -207.1 399.95 -195.8 401.15 -188.65 400.8 -184.95 399.6 -181.8 L399.5 -182.05 391.35 -193.95 389.5 -196.05 389.45 -196.1 388.25 -196.9 Q392.7 -201.95 392.6 -211.2 M411.2 -276.85 L413.25 -277.7 413.55 -277.6 411.2 -276.85 M413.3 -257.4 L414.95 -257.75 414.9 -257.4 413.45 -253.15 412.15 -253.15 411.95 -253.15 413.3 -257.4 M436.45 -216.75 Q442.15 -222.9 448.8 -223.6 453.25 -223.9 455.5 -222.05 L455.55 -222.0 455.95 -221.6 456.05 -221.5 456.6 -220.75 457.15 -219.85 457.3 -219.6 457.9 -218.3 457.95 -218.15 457.95 -218.1 458.5 -216.55 Q460.9 -209.6 460.9 -193.95 460.75 -180.6 458.25 -162.45 455.75 -176.15 453.8 -182.85 L452.4 -187.35 451.6 -189.7 Q449.0 -196.7 446.2 -200.15 L446.1 -200.25 444.8 -201.45 444.4 -201.8 Q441.85 -204.15 439.7 -203.35 437.35 -203.05 434.65 -200.8 428.6 -196.35 425.2 -185.95 425.4 -202.65 434.4 -214.3 L436.4 -216.7 436.55 -216.65 436.45 -216.75 M423.1 -214.85 Q428.0 -216.9 431.5 -217.3 L423.1 -214.85 M459.25 -216.4 Q485.65 -191.4 495.35 -172.25 501.65 -154.35 501.55 -134.35 491.95 -164.8 468.8 -188.2 L465.5 -191.45 463.4 -193.45 461.65 -195.0 461.65 -198.7 Q461.45 -209.65 459.25 -216.4 M460.9 -178.55 Q469.45 -189.15 499.6 -122.5 L495.4 -106.85 495.2 -107.2 495.15 -107.2 477.95 -134.25 458.65 -159.85 Q460.1 -169.85 460.9 -178.55 M341.75 -148.95 Q344.0 -151.55 349.5 -150.05 L350.35 -149.5 Q348.9 -149.75 347.4 -148.7 344.75 -146.6 341.6 -135.95 339.1 -139.0 340.95 -146.6 L341.0 -146.8 341.05 -146.95 341.5 -148.25 341.75 -148.95 M354.55 -145.1 L356.0 -145.25 355.15 -144.1 354.55 -145.1 M354.7 -155.65 L355.55 -155.4 355.15 -155.45 354.8 -155.6 354.65 -155.65 354.6 -155.65 354.7 -155.65 M356.75 -154.35 Q375.3 -145.9 384.0 -148.35 L382.1 -146.25 Q373.45 -143.05 359.0 -148.95 L358.6 -151.05 357.3 -153.65 356.75 -154.35 M376.9 -50.3 Q377.15 -54.1 381.5 -54.2 385.4 -54.25 387.15 -51.45 389.0 -48.6 388.05 -45.3 387.15 -41.75 383.7 -41.9 381.2 -42.15 379.15 -44.65 376.75 -47.25 376.9 -50.3 M382.9 -52.8 Q381.55 -53.3 379.9 -52.5 376.5 -50.7 378.35 -46.35 380.45 -42.05 384.0 -43.75 385.25 -44.3 385.8 -45.8 L385.05 -45.3 Q382.05 -44.15 380.45 -47.55 378.85 -50.95 381.65 -52.4 382.25 -52.7 382.9 -52.8 M385.7 -51.05 Q383.95 -52.25 383.35 -51.2 382.4 -50.3 384.1 -49.0 385.7 -47.7 386.5 -48.85 387.4 -49.75 385.7 -51.05 M404.35 -44.6 Q403.5 -44.45 402.65 -43.75 401.6 -42.85 401.55 -41.3 L400.9 -42.55 400.9 -44.65 401.2 -44.9 404.35 -44.6 M405.9 -36.45 Q406.9 -36.5 408.0 -37.3 409.25 -38.45 409.25 -39.85 L408.4 -38.85 Q406.15 -37.15 404.2 -39.65 402.1 -42.3 404.2 -44.1 L404.85 -44.5 405.95 -44.1 405.5 -43.85 Q404.45 -43.1 405.65 -41.75 406.7 -40.45 407.6 -41.1 408.35 -41.9 407.5 -43.15 408.8 -42.15 409.5 -40.45 410.3 -38.45 410.25 -35.45 409.05 -34.8 406.45 -36.1 L406.35 -36.15 405.9 -36.45 M398.3 -43.35 Q395.8 -41.4 393.45 -44.4 392.4 -45.6 392.4 -47.0 392.4 -48.6 393.45 -49.4 L394.0 -49.8 Q392.75 -49.8 391.75 -49.0 390.4 -47.95 390.4 -46.1 390.4 -44.25 391.75 -42.8 392.9 -41.25 394.75 -40.85 396.45 -40.6 397.75 -41.6 398.95 -42.45 399.05 -44.15 L398.3 -43.35 M398.05 -47.95 Q397.0 -49.5 395.7 -48.7 394.75 -47.8 395.8 -46.2 396.95 -44.8 398.15 -45.4 399.05 -46.35 398.05 -47.95 M397.35 -49.5 Q401.3 -46.65 400.0 -42.4 399.2 -39.4 397.5 -39.15 396.55 -39.0 394.25 -40.2 390.15 -42.8 390.05 -45.95 L390.05 -49.9 Q393.55 -52.25 397.35 -49.5 M407.3 -5.95 L407.1 -5.7 404.35 -1.6 403.85 -0.8 403.55 -0.15 Q397.9 10.7 397.9 24.9 L397.9 28.1 397.6 29.9 Q396.8 31.25 394.25 33.55 L393.35 34.3 393.45 33.85 Q393.4 32.25 390.55 32.1 390.0 32.1 382.7 34.75 374.8 37.5 369.7 38.05 352.5 39.45 354.75 17.55 348.85 29.5 356.45 51.15 L357.6 51.15 357.75 51.15 355.4 51.05 355.3 51.05 355.3 51.0 Q346.15 32.1 355.1 6.6 L364.8 6.3 365.1 6.25 Q371.8 5.6 386.1 -0.55 400.05 -6.6 416.0 -27.95 L419.65 -22.2 Q422.25 -18.0 423.1 -15.8 L421.0 -15.2 420.45 -15.05 419.95 -14.85 414.45 -12.25 414.15 -12.05 413.85 -11.85 Q411.45 -10.3 409.4 -8.25 L409.15 -8.0 408.75 -7.6 407.8 -6.55 407.5 -6.15 407.3 -5.95 M361.3 72.35 Q358.4 66.25 355.55 54.25 360.35 54.5 369.55 50.2 405.45 37.75 409.85 25.4 411.45 21.95 410.9 18.25 L410.9 18.2 411.55 11.4 Q412.45 -0.6 413.65 -2.4 414.85 -4.0 416.4 -3.95 418.35 -3.7 419.15 -0.3 421.2 9.05 413.7 36.8 L405.9 52.3 401.95 56.4 Q388.95 70.05 370.6 72.55 L363.15 73.05 361.3 72.35" fill="#6bbd46" fill-rule="evenodd" stroke="none"/>
    <path d="M293.45 -83.95 L293.35 -84.55 293.3 -84.75 293.45 -83.95 M274.35 -160.5 L274.9 -159.2 273.8 -160.75 274.35 -160.5 M235.75 -225.55 L235.85 -226.25 Q235.95 -226.7 236.2 -227.05 L237.25 -227.5 Q241.8 -222.65 245.7 -226.4 L246.05 -226.0 246.05 -226.35 246.55 -225.4 247.1 -224.65 246.75 -224.3 245.95 -223.75 Q245.55 -223.65 244.9 -224.0 L235.75 -225.55 M293.9 -174.35 L294.4 -173.55 294.65 -171.05 294.65 -170.95 Q294.75 -167.2 295.3 -162.35 L295.05 -162.95 295.0 -163.0 Q293.6 -168.25 293.9 -174.35 M234.1 -205.15 L234.05 -205.2 Q240.45 -203.3 249.1 -199.35 256.0 -196.3 263.85 -192.15 L265.0 -191.45 266.5 -190.75 269.7 -189.0 Q280.6 -182.7 286.9 -174.95 295.25 -164.85 296.45 -153.35 L292.5 -154.95 285.25 -158.0 273.25 -163.25 267.95 -165.3 Q275.1 -163.35 280.4 -162.55 284.9 -169.75 266.05 -184.55 252.8 -196.55 240.3 -202.25 L236.7 -203.75 234.1 -205.15 M259.55 -218.3 Q252.2 -221.7 247.7 -223.15 247.75 -224.25 249.55 -225.45 L250.95 -225.95 Q250.55 -225.15 250.6 -224.45 L251.2 -224.85 250.9 -224.2 Q255.85 -219.35 259.45 -222.85 L259.6 -221.4 259.6 -221.55 Q259.8 -222.15 259.65 -222.75 260.75 -221.3 260.4 -219.8 L259.55 -218.3 M251.75 -199.2 L253.55 -198.55 255.15 -197.55 251.75 -199.2 M282.6 -180.35 Q287.55 -176.5 291.05 -170.6 287.65 -175.75 282.6 -180.35 M267.2 -218.15 L267.65 -218.2 266.9 -217.55 Q267.75 -213.6 271.05 -212.35 L273.25 -211.95 273.85 -212.2 Q273.2 -210.75 271.4 -210.6 270.15 -210.65 269.35 -211.05 271.8 -209.4 273.65 -211.4 L274.2 -212.4 Q274.45 -210.65 273.5 -209.45 L272.7 -208.8 270.75 -209.85 Q267.2 -211.85 265.4 -213.5 L264.3 -214.6 Q264.25 -215.95 265.1 -216.95 L265.95 -217.65 Q266.5 -218.05 267.2 -218.15 M268.65 -211.7 L268.4 -211.8 268.9 -211.4 268.65 -211.7 M273.0 -205.65 L271.3 -207.35 272.85 -206.55 273.0 -205.65 M275.6 -203.5 Q274.6 -206.2 276.8 -207.75 277.6 -208.4 278.4 -208.6 L278.5 -208.65 278.5 -208.6 279.65 -208.6 278.5 -208.0 278.45 -208.0 Q278.2 -201.8 284.65 -201.45 L284.95 -201.85 Q284.95 -200.1 283.75 -199.1 282.5 -198.1 280.7 -198.5 L280.6 -198.55 Q277.85 -200.35 275.6 -203.45 L275.6 -203.5 M359.35 -204.5 L358.8 -204.85 351.85 -202.1 348.95 -201.7 347.9 -200.65 344.25 -197.65 Q335.4 -190.3 332.4 -186.9 330.6 -185.45 330.45 -184.5 330.2 -183.75 330.2 -178.25 330.2 -172.35 330.85 -171.0 331.1 -170.5 335.15 -167.35 344.2 -160.15 348.85 -157.5 L346.35 -155.9 Q344.25 -154.9 343.55 -154.85 L340.8 -156.2 Q331.35 -161.15 326.0 -165.9 L324.0 -168.0 323.5 -172.6 323.4 -173.7 323.3 -174.5 323.3 -174.35 323.05 -178.1 323.0 -182.45 323.5 -187.0 325.6 -189.0 340.55 -201.7 337.55 -203.55 321.0 -191.6 318.65 -189.9 315.9 -189.65 Q312.45 -189.25 309.6 -187.55 310.25 -190.85 311.7 -192.4 313.25 -194.25 318.0 -195.0 L320.6 -195.3 335.45 -205.8 Q337.4 -212.9 346.1 -215.75 349.9 -216.95 351.7 -216.95 L353.3 -216.55 351.3 -216.3 350.05 -215.85 Q346.2 -215.4 343.45 -213.5 L342.9 -213.3 342.75 -213.2 342.55 -213.05 342.25 -212.85 342.15 -212.75 Q338.45 -209.7 340.55 -207.5 342.4 -205.65 347.0 -205.9 355.0 -206.45 358.4 -210.75 L359.0 -211.95 359.2 -213.65 Q363.35 -212.6 366.15 -212.6 365.95 -211.6 365.05 -210.2 L363.4 -208.0 363.45 -208.0 363.6 -207.9 Q360.05 -208.05 359.35 -204.5 M323.0 -187.95 L319.6 -189.5 337.55 -202.75 339.5 -201.7 323.0 -187.95 M320.5 -188.35 L322.6 -187.25 Q322.15 -183.25 322.35 -178.4 L322.45 -176.1 Q322.05 -176.0 321.95 -176.65 L312.5 -187.55 Q312.05 -187.55 309.6 -186.1 L307.0 -184.5 Q306.95 -184.15 308.0 -182.05 L306.7 -181.4 305.15 -180.85 Q306.7 -181.75 305.0 -184.25 L313.0 -188.35 318.25 -189.1 320.5 -188.35 M350.05 -215.85 L352.75 -216.0 353.05 -216.0 Q354.5 -215.95 355.4 -215.2 L354.15 -215.25 351.35 -215.05 348.4 -214.4 348.2 -214.3 348.0 -214.25 347.75 -214.2 347.65 -214.15 347.5 -214.1 347.4 -214.05 Q342.9 -212.6 341.5 -210.25 340.95 -208.95 341.1 -208.15 339.5 -209.6 341.6 -211.95 L343.45 -213.5 350.05 -215.85 M313.75 -184.55 L313.85 -184.35 313.8 -184.5 322.2 -173.1 Q322.2 -172.7 322.7 -172.7 L323.1 -169.05 321.8 -168.3 321.75 -173.2 320.7 -169.05 Q319.35 -171.45 316.25 -175.05 L316.2 -175.15 316.2 -175.1 316.0 -175.35 313.25 -185.2 313.75 -184.55 M302.6 -178.15 Q306.8 -167.9 307.75 -166.3 304.9 -164.2 303.55 -160.55 L301.1 -176.4 302.6 -178.15 M322.6 -173.75 L319.45 -178.1 321.25 -176.1 Q322.55 -174.45 322.6 -173.75 M294.1 -186.55 L291.45 -186.75 291.2 -186.85 290.9 -187.2 290.8 -187.2 290.55 -187.2 Q289.05 -188.05 287.55 -189.5 L286.0 -191.3 286.0 -191.4 285.95 -191.5 285.65 -191.75 285.6 -191.75 Q283.95 -194.9 285.8 -197.15 L286.55 -197.35 286.55 -196.65 287.3 -197.4 287.5 -197.55 287.95 -197.65 289.4 -197.65 288.35 -197.0 Q289.1 -188.35 294.9 -192.0 L295.05 -192.0 Q295.1 -193.5 293.6 -195.4 L293.1 -196.0 293.35 -195.8 Q295.8 -193.6 295.55 -190.45 L294.8 -188.05 294.1 -186.55 M298.3 -179.7 L298.3 -179.75 299.0 -178.35 298.45 -176.0 Q297.1 -168.55 298.85 -157.65 300.65 -145.55 303.4 -139.5 L304.9 -136.7 Q298.15 -141.05 299.85 -135.55 L299.85 -135.1 Q298.15 -139.1 298.7 -143.95 L299.2 -147.0 Q299.35 -148.45 298.6 -150.15 L297.55 -152.9 Q297.4 -153.15 296.35 -159.7 L295.8 -163.85 297.15 -168.75 Q297.0 -173.25 298.3 -179.7 M330.55 -131.8 Q331.95 -133.6 330.95 -135.45 L335.15 -131.9 Q337.75 -128.9 337.4 -126.65 L336.8 -125.45 Q334.25 -129.3 330.55 -131.8 M302.5 -179.4 Q302.65 -179.15 302.25 -179.0 299.85 -176.25 299.6 -175.05 L299.6 -175.0 299.55 -172.15 299.6 -170.5 299.65 -170.45 299.75 -168.4 Q300.1 -164.05 301.5 -157.7 L301.75 -156.55 301.9 -155.85 301.95 -155.6 302.65 -152.8 302.85 -151.95 303.8 -149.35 304.6 -147.95 305.4 -146.85 305.45 -146.8 305.5 -146.75 305.55 -146.7 Q307.6 -137.7 318.65 -137.7 324.25 -137.3 325.35 -140.05 L328.35 -137.3 Q330.6 -135.1 330.6 -133.9 330.6 -133.0 329.95 -132.2 328.55 -130.5 324.3 -129.15 313.35 -125.8 306.65 -135.5 305.2 -137.6 303.95 -140.3 301.45 -145.95 299.6 -157.85 297.7 -169.3 299.45 -177.25 L299.55 -177.8 299.6 -177.95 Q300.0 -178.0 302.5 -179.4 M320.5 -168.1 Q320.6 -167.5 319.95 -167.2 L318.9 -166.65 318.4 -167.35 317.85 -167.85 Q313.65 -165.65 310.9 -163.5 306.7 -159.85 305.8 -157.5 304.6 -154.9 305.15 -148.95 304.6 -148.85 304.5 -149.75 303.05 -152.5 303.2 -155.5 303.95 -167.5 316.95 -168.4 L320.5 -168.1 M321.5 -168.1 L321.25 -168.25 321.8 -168.3 321.5 -168.1 M322.05 -167.5 L323.1 -168.0 324.15 -166.55 322.7 -165.65 322.05 -167.5 M316.95 -161.7 L317.6 -161.7 319.95 -160.25 335.45 -149.5 Q327.45 -146.7 324.15 -139.5 320.6 -137.95 316.3 -138.45 311.8 -139.15 309.45 -141.5 308.25 -142.75 307.55 -144.2 315.45 -135.0 322.55 -140.85 321.7 -146.0 325.85 -149.5 328.05 -151.3 329.8 -151.85 L316.95 -161.7 M334.1 -151.4 Q334.9 -151.8 335.25 -154.1 L323.1 -165.0 324.7 -166.05 Q332.3 -159.45 342.55 -154.45 L336.25 -149.9 334.1 -151.4 M231.35 -186.0 L236.9 -184.5 Q239.4 -179.95 244.8 -173.9 247.25 -171.0 247.8 -170.75 248.85 -169.95 253.05 -168.5 L258.7 -166.65 Q267.7 -163.8 269.3 -162.45 271.8 -160.4 274.45 -155.5 L275.75 -152.9 Q275.7 -151.85 274.05 -150.55 272.1 -148.65 267.05 -147.95 266.15 -151.6 264.4 -155.0 L260.65 -157.75 Q258.95 -158.8 244.5 -166.05 233.0 -171.8 231.35 -186.0 M282.95 -196.05 L282.7 -195.0 281.1 -196.75 282.95 -196.05 M230.6 -158.95 Q233.1 -155.8 238.1 -152.75 250.4 -145.3 265.9 -147.0 L271.65 -147.9 Q273.35 -148.6 276.4 -151.85 L278.5 -143.6 276.8 -138.2 274.95 -133.1 Q262.6 -141.55 246.95 -143.2 255.1 -142.6 262.1 -140.1 266.35 -141.7 267.45 -145.15 241.3 -142.3 230.6 -158.95 M223.45 -142.3 L221.0 -141.75 220.4 -141.85 223.45 -142.3 M210.6 -140.45 Q208.1 -140.7 206.35 -141.6 L205.7 -142.0 Q207.75 -141.15 210.6 -140.45 M201.75 -145.35 L200.55 -146.7 193.9 -154.4 195.15 -153.4 201.75 -145.35 M187.8 -160.8 L190.05 -157.85 Q197.55 -148.45 202.8 -143.45 205.4 -141.2 205.7 -141.1 209.05 -139.25 214.7 -139.65 L223.5 -141.35 Q234.15 -143.2 243.1 -142.65 261.3 -142.05 274.45 -132.3 270.9 -123.8 263.05 -113.15 L261.05 -110.75 257.1 -110.75 240.6 -112.0 Q248.9 -115.1 251.45 -119.7 253.8 -123.9 250.95 -128.25 248.15 -132.45 241.9 -135.05 235.3 -137.85 227.6 -137.7 217.25 -137.1 211.65 -137.8 198.4 -138.7 194.65 -149.85 L194.3 -150.3 Q189.3 -135.8 189.95 -129.55 L189.9 -129.45 Q185.35 -134.0 182.45 -139.5 180.75 -142.65 180.6 -143.85 180.2 -145.95 180.75 -149.75 181.5 -156.75 185.15 -163.85 L187.8 -160.8 M294.0 -117.25 Q294.4 -122.8 295.3 -128.65 L297.65 -141.6 297.65 -141.5 Q297.9 -138.05 299.15 -135.1 295.65 -125.9 294.0 -117.25 M337.25 -124.75 L337.95 -125.9 338.2 -127.55 Q340.0 -125.1 341.2 -117.35 L341.85 -110.85 Q340.7 -119.15 337.25 -124.75 M375.0 1.65 L374.7 1.75 374.75 1.7 375.0 1.65 M352.1 1.1 Q348.25 -1.2 346.2 -4.1 L338.85 -30.75 335.05 -33.5 323.4 -41.75 332.8 -42.55 342.55 -43.45 356.35 -42.7 Q362.45 -41.55 364.05 -40.2 355.05 -44.15 336.45 -39.5 L342.55 -31.9 Q346.55 -5.5 352.1 1.1 M342.35 -44.4 L332.4 -43.35 327.55 -42.65 Q323.1 -42.3 322.35 -42.55 L320.9 -43.2 Q317.6 -45.2 317.35 -46.1 L317.35 -48.3 Q317.2 -49.0 315.4 -50.15 303.1 -59.45 297.85 -75.65 302.4 -65.15 310.95 -55.85 314.35 -51.6 316.0 -50.3 318.25 -48.7 319.45 -48.85 L319.75 -48.85 Q318.15 -43.8 326.15 -42.95 L326.4 -42.85 Q334.15 -44.6 342.35 -44.4 M297.25 -125.2 Q298.55 -126.95 301.35 -126.9 304.35 -126.95 305.15 -124.7 303.55 -125.75 302.65 -125.75 297.9 -125.9 296.85 -119.85 295.95 -113.95 300.4 -112.5 L299.0 -111.05 Q296.6 -107.9 297.55 -103.45 298.45 -98.85 302.4 -98.05 L301.85 -97.55 Q298.7 -94.15 299.6 -89.55 300.65 -83.35 305.8 -83.35 L304.5 -81.9 Q301.95 -78.9 302.8 -74.55 303.3 -71.3 305.95 -69.3 308.7 -67.25 311.95 -68.8 312.1 -68.4 311.45 -67.85 309.45 -64.45 310.1 -61.05 311.15 -54.65 316.4 -54.6 319.7 -54.5 321.65 -57.1 323.5 -59.35 323.5 -62.75 323.5 -66.95 320.9 -69.3 318.0 -71.95 314.05 -70.25 316.15 -73.4 316.15 -76.4 316.15 -79.7 314.3 -81.9 312.35 -84.4 309.2 -84.4 308.9 -84.65 309.45 -85.05 311.8 -87.7 311.8 -91.1 311.8 -94.0 310.25 -96.2 308.7 -98.6 306.2 -99.1 L307.1 -100.15 Q308.9 -102.75 308.8 -106.55 312.75 -83.9 323.0 -67.35 L323.05 -67.25 323.4 -66.55 323.5 -66.4 324.0 -65.2 Q324.4 -63.9 324.4 -62.75 324.4 -58.3 323.25 -54.9 L322.9 -53.95 322.7 -53.45 322.2 -52.35 320.6 -50.15 Q319.95 -49.65 319.3 -49.6 318.65 -49.55 317.75 -50.1 L315.7 -51.7 315.65 -51.75 315.5 -51.9 315.45 -51.95 315.4 -52.0 312.5 -55.25 Q302.1 -68.25 298.85 -79.4 295.3 -91.75 295.95 -113.9 296.3 -124.05 297.25 -125.2 M304.65 -114.85 L303.7 -114.3 Q302.25 -113.55 300.55 -114.3 298.95 -115.1 298.05 -116.95 297.25 -118.8 297.65 -120.5 298.15 -122.35 299.6 -123.0 L302.05 -123.15 301.35 -122.85 Q298.45 -121.7 300.15 -118.0 301.85 -114.45 304.75 -115.9 L305.9 -116.65 305.7 -116.15 304.65 -114.85 M298.5 -108.55 Q299.1 -109.75 300.4 -110.4 L303.5 -110.55 302.5 -110.25 Q301.05 -109.6 300.65 -107.9 300.15 -106.05 301.05 -104.35 302.9 -100.15 306.45 -101.75 L307.45 -102.35 Q306.85 -100.7 305.25 -99.9 303.55 -99.0 301.45 -99.9 299.45 -100.85 298.45 -103.05 L298.25 -103.5 Q297.6 -106.25 298.5 -108.55 M231.25 -186.75 L229.85 -190.95 231.9 -191.45 233.9 -191.2 Q235.7 -189.65 236.5 -185.2 L231.25 -186.75 M300.25 -91.55 Q300.45 -92.45 301.05 -93.2 302.65 -95.15 304.5 -95.4 303.65 -95.0 303.05 -94.25 301.95 -92.95 302.25 -91.1 302.35 -89.55 303.8 -88.45 307.1 -85.85 309.75 -89.25 L310.4 -90.4 Q310.5 -88.55 309.35 -87.0 308.0 -85.2 305.95 -84.95 L304.45 -84.85 Q303.2 -85.05 302.1 -85.85 L301.9 -86.0 301.1 -86.85 301.1 -86.9 Q300.4 -88.35 300.3 -90.55 L300.25 -91.55 M306.85 -80.8 L306.3 -79.95 Q304.2 -76.0 308.3 -73.9 312.2 -72.1 314.2 -75.85 L314.75 -77.25 Q315.25 -75.4 314.3 -73.5 313.25 -71.45 311.05 -70.6 308.9 -69.85 306.85 -70.9 304.85 -71.95 304.1 -74.05 303.4 -76.25 304.5 -78.35 305.3 -80.05 306.85 -80.8 M314.85 -67.3 L314.2 -66.55 Q313.25 -65.0 313.65 -63.15 314.05 -61.3 315.65 -60.4 319.3 -58.05 321.65 -61.85 322.2 -62.75 322.3 -63.75 L322.35 -63.55 Q322.7 -61.35 321.55 -59.35 320.2 -57.4 318.15 -56.85 315.9 -56.35 313.95 -57.65 312.1 -58.85 311.55 -61.05 311.05 -63.3 312.35 -65.1 313.25 -66.65 314.85 -67.3 M342.8 -243.85 Q348.45 -241.15 355.75 -243.7 L361.4 -246.75 363.8 -247.5 368.1 -247.65 Q372.7 -248.45 374.95 -252.1 L376.9 -256.45 379.9 -259.45 393.45 -267.35 Q386.6 -261.15 382.7 -256.45 L377.95 -250.25 372.55 -244.6 Q361.65 -235.45 347.65 -237.15 343.55 -237.9 341.6 -239.15 342.65 -240.85 342.8 -243.85 M414.85 -277.0 Q415.2 -267.3 403.7 -262.85 L389.65 -257.9 Q384.5 -256.0 382.25 -253.3 L385.85 -257.75 386.9 -259.05 390.55 -262.6 398.15 -268.75 Q399.65 -270.15 412.45 -276.95 L414.0 -277.4 414.4 -277.25 414.85 -277.0 M412.15 -253.05 Q407.7 -253.3 396.55 -251.5 L387.4 -249.2 389.8 -250.35 Q398.8 -254.4 413.3 -257.4 L411.95 -253.15 412.15 -253.15 412.15 -253.05 M353.75 -229.25 L353.8 -229.4 354.6 -229.45 353.75 -229.25 M354.95 -229.45 Q361.8 -229.75 372.7 -226.0 L369.55 -221.55 Q366.8 -218.4 365.5 -218.0 362.2 -216.8 357.35 -217.6 362.0 -217.75 364.95 -219.4 368.1 -221.4 367.3 -223.75 366.55 -226.45 353.95 -227.75 L354.95 -229.45 M363.35 -231.25 L363.45 -231.25 365.05 -231.7 375.55 -236.15 375.8 -236.35 376.25 -236.6 Q377.3 -236.35 382.55 -233.75 377.0 -230.1 373.25 -226.5 364.8 -229.95 357.75 -230.2 L363.35 -231.25 M368.65 -219.4 Q367.25 -217.65 366.55 -217.35 L365.9 -217.25 Q367.1 -217.8 368.65 -219.4 M332.8 -170.25 Q331.7 -171.05 331.5 -171.55 331.1 -172.35 331.1 -177.7 L331.1 -184.25 Q331.25 -184.65 335.45 -188.85 338.05 -191.45 347.25 -199.2 L349.6 -201.2 351.95 -201.7 Q355.35 -202.5 358.55 -204.05 L375.7 -193.6 Q379.35 -191.2 380.95 -189.65 L385.15 -185.05 Q392.35 -176.9 395.8 -169.7 381.35 -160.9 353.3 -158.15 L350.0 -157.85 Q349.55 -157.95 348.55 -158.5 351.5 -159.95 355.35 -160.55 L359.85 -161.55 Q374.65 -164.45 384.0 -167.7 388.0 -169.15 391.1 -171.2 L392.45 -173.05 390.4 -175.85 382.95 -185.45 382.15 -186.35 381.9 -186.5 379.8 -188.55 374.45 -192.75 374.45 -192.7 Q369.15 -196.25 361.55 -199.85 L359.2 -201.3 358.15 -201.7 Q355.9 -200.4 351.05 -200.0 351.7 -199.5 333.6 -184.0 L332.6 -170.4 332.8 -170.25 M374.8 -202.75 L383.6 -198.7 Q387.1 -196.95 388.75 -195.65 L374.8 -202.75 M389.3 -195.2 L389.5 -195.0 393.15 -190.15 393.7 -189.35 398.7 -181.8 401.2 -177.2 Q402.35 -174.8 402.25 -174.15 L399.6 -171.8 396.6 -170.1 Q395.25 -172.8 393.35 -175.7 L388.45 -182.45 388.05 -182.95 386.25 -185.1 385.6 -185.9 385.45 -186.1 381.5 -190.15 389.3 -195.2 M407.85 -240.35 L401.95 -234.9 Q397.45 -230.1 395.7 -226.0 395.6 -221.95 397.4 -220.25 398.15 -219.55 399.2 -219.25 400.65 -218.85 402.8 -219.2 L402.75 -219.4 409.6 -221.0 Q405.8 -207.5 413.85 -205.95 414.85 -207.65 416.25 -208.95 L418.0 -210.5 Q413.65 -206.35 414.05 -195.15 L414.25 -190.85 414.95 -188.45 Q421.15 -168.7 448.55 -156.15 L448.6 -156.1 452.2 -151.85 452.85 -150.8 436.6 -158.8 Q426.75 -163.65 421.8 -168.4 413.25 -176.55 411.25 -188.05 410.75 -191.6 411.55 -196.35 L413.1 -204.05 Q410.9 -199.1 410.5 -193.95 404.45 -204.6 403.15 -219.3 403.0 -218.9 403.0 -215.5 L402.1 -216.15 397.5 -219.2 397.45 -219.2 396.95 -219.6 396.45 -219.75 396.05 -219.95 393.45 -221.25 385.45 -221.25 Q385.3 -221.55 385.95 -221.9 L390.7 -227.4 394.9 -231.25 Q400.1 -235.7 403.95 -238.2 L407.85 -240.4 407.85 -240.35 M394.05 -219.85 L394.05 -220.2 Q395.9 -219.6 398.8 -217.6 402.6 -215.35 403.15 -213.9 L404.3 -207.85 400.7 -209.75 401.1 -215.0 Q400.1 -216.25 398.05 -217.6 L394.1 -219.8 394.05 -219.85 M386.7 -220.35 L377.45 -214.05 377.95 -214.0 373.25 -213.8 Q379.4 -216.2 384.25 -220.35 L386.7 -220.35 M386.6 -212.15 Q383.25 -212.25 378.5 -211.95 L373.25 -211.6 Q370.8 -210.65 368.5 -210.3 368.2 -208.9 366.55 -207.45 L364.85 -208.15 Q367.3 -211.85 367.45 -212.75 L378.35 -213.25 Q385.0 -213.65 389.25 -213.25 395.8 -212.45 404.6 -206.45 406.7 -199.1 409.3 -194.1 L410.25 -192.65 409.95 -190.7 410.35 -185.6 Q410.1 -183.2 407.05 -179.25 404.05 -175.35 402.5 -174.45 402.35 -176.75 399.6 -181.8 400.8 -184.95 401.15 -188.65 399.95 -195.8 400.55 -207.1 396.55 -209.55 393.1 -211.0 L392.6 -211.2 388.8 -212.0 386.5 -212.3 386.6 -212.15 M400.65 -209.8 L398.3 -211.0 Q395.95 -212.25 393.85 -212.95 397.3 -211.9 400.65 -209.8 M435.95 -200.95 L437.4 -201.7 455.45 -172.95 456.3 -168.6 435.95 -200.95 M501.55 -134.35 L501.55 -134.25 Q492.1 -160.55 474.15 -182.15 L468.8 -188.2 Q491.95 -164.8 501.55 -134.35 M460.9 -178.55 Q461.6 -186.7 461.65 -193.7 L461.95 -193.7 Q483.55 -173.4 494.6 -148.85 498.25 -140.3 499.95 -134.9 501.15 -130.75 501.15 -129.7 501.25 -128.25 499.95 -123.75 L499.6 -122.5 Q469.45 -189.15 460.9 -178.55 M449.75 -192.25 L449.8 -192.1 449.65 -192.2 449.25 -193.3 449.75 -192.25 M457.4 -162.0 L457.75 -159.6 469.8 -143.6 467.5 -143.7 431.0 -196.15 431.05 -196.2 Q432.3 -197.95 433.7 -199.2 L457.4 -162.0 M454.3 -178.0 L453.65 -180.05 453.9 -179.6 454.3 -178.0 M430.0 -194.65 L430.2 -194.95 465.1 -143.85 460.6 -144.1 455.9 -148.85 427.55 -181.75 425.6 -184.25 Q425.45 -184.95 426.5 -187.4 L426.95 -188.65 430.0 -194.65 M410.35 -183.6 Q410.9 -180.85 413.25 -175.75 405.9 -164.2 389.0 -159.3 373.1 -154.9 352.25 -157.1 375.05 -159.75 387.0 -164.45 405.35 -171.8 410.35 -183.6 M341.75 -148.95 Q342.7 -151.5 343.85 -152.5 345.95 -154.6 350.0 -155.25 354.45 -155.95 356.55 -153.45 358.65 -150.55 358.3 -148.45 L358.25 -148.35 358.2 -148.25 356.7 -146.2 356.0 -145.25 354.55 -145.1 353.3 -147.25 Q351.95 -149.1 350.4 -149.5 L350.35 -149.5 349.5 -150.05 Q344.0 -151.55 341.75 -148.95 M355.15 -155.45 L355.55 -155.4 354.7 -155.65 Q381.9 -154.65 392.9 -159.2 L384.05 -148.35 384.0 -148.35 Q375.3 -145.9 356.75 -154.35 356.0 -155.05 355.15 -155.45 M332.4 -147.4 Q331.1 -144.65 327.05 -142.65 328.45 -144.9 332.4 -147.4 M359.1 -135.65 L358.35 -134.0 358.1 -133.1 358.05 -133.0 358.05 -132.9 358.0 -132.7 342.25 -135.2 343.55 -139.25 359.1 -135.65 M360.25 -137.5 L359.7 -136.65 343.9 -140.2 343.95 -140.4 344.2 -141.05 360.25 -137.5 M361.5 -139.15 L361.05 -138.55 344.55 -142.05 344.8 -142.65 361.5 -139.15 M355.65 -143.45 L358.4 -147.1 Q359.6 -147.25 363.8 -145.8 L377.55 -141.75 375.85 -139.9 373.75 -138.2 Q369.65 -139.15 355.65 -143.45 M382.9 -52.8 Q382.25 -52.7 381.65 -52.4 378.85 -50.95 380.45 -47.55 382.05 -44.15 385.05 -45.3 L385.8 -45.8 Q385.25 -44.3 384.0 -43.75 380.45 -42.05 378.35 -46.35 376.5 -50.7 379.9 -52.5 381.55 -53.3 382.9 -52.8 M337.55 -71.95 Q338.7 -69.85 342.4 -68.15 340.55 -67.1 338.2 -63.4 334.25 -62.75 332.8 -63.8 331.65 -65.8 333.1 -69.05 335.7 -70.25 337.55 -71.95 M401.55 -41.3 Q401.6 -42.85 402.65 -43.75 403.5 -44.45 404.35 -44.6 L404.85 -44.5 404.2 -44.1 Q402.1 -42.3 404.2 -39.65 406.15 -37.15 408.4 -38.85 L409.25 -39.85 Q409.25 -38.45 408.0 -37.3 406.9 -36.5 405.9 -36.45 403.35 -38.25 401.55 -41.3 M398.3 -43.35 L399.05 -44.15 Q398.95 -42.45 397.75 -41.6 396.45 -40.6 394.75 -40.85 392.9 -41.25 391.75 -42.8 390.4 -44.25 390.4 -46.1 390.4 -47.95 391.75 -49.0 392.75 -49.8 394.0 -49.8 L393.45 -49.4 Q392.4 -48.6 392.4 -47.0 392.4 -45.6 393.45 -44.4 395.8 -41.4 398.3 -43.35 M396.05 -38.45 Q398.8 -37.7 400.4 -41.2 403.8 -36.1 407.6 -34.65 409.45 -33.75 410.35 -34.65 L411.65 -33.1 Q408.65 -33.65 403.3 -35.6 L393.85 -38.75 384.45 -40.85 Q387.8 -40.6 389.35 -44.25 392.0 -39.4 396.05 -38.45 M384.45 -40.85 L384.4 -40.85 382.4 -41.35 384.45 -40.85 M376.4 -49.25 Q376.6 -46.25 379.0 -43.75 380.55 -42.1 382.4 -41.35 L379.65 -42.0 Q371.9 -44.8 372.45 -49.0 372.8 -52.95 377.95 -53.95 376.1 -52.5 376.4 -49.25 M407.3 -5.95 L407.5 -6.15 407.8 -6.55 407.3 -5.95 M419.95 -14.85 L420.45 -15.05 420.55 -15.05 419.95 -14.85 M416.0 -27.95 Q400.05 -6.6 386.1 -0.55 371.8 5.6 365.1 6.25 L364.8 6.3 355.1 6.6 Q346.15 32.1 355.3 51.0 L352.9 49.85 Q342.95 44.05 337.55 35.8 335.85 33.4 335.85 32.4 L336.25 27.0 Q338.6 6.5 345.8 -3.3 349.45 1.0 354.35 3.15 L357.75 4.55 368.25 4.05 Q380.6 2.05 392.25 -5.95 404.3 -13.95 415.45 -28.5 L415.75 -28.4 416.0 -27.95 M355.4 51.05 L357.75 51.15 358.6 51.2 356.15 51.4 355.4 51.05 M397.6 29.9 L397.9 28.1 397.9 29.25 397.6 29.9 M413.7 36.8 Q421.2 9.05 419.15 -0.3 418.35 -3.7 416.4 -3.95 414.85 -4.0 413.65 -2.4 412.45 -0.6 411.55 11.4 L410.9 18.2 410.9 18.25 Q411.45 21.95 409.85 25.4 405.45 37.75 369.55 50.2 360.35 54.5 355.55 54.25 358.4 66.25 361.3 72.35 L359.95 71.85 Q349.45 67.9 343.2 59.55 335.15 49.05 335.55 34.1 341.85 44.6 352.65 50.6 355.0 52.05 355.9 52.2 358.0 52.45 362.75 50.85 L368.7 48.55 Q373.5 46.55 379.65 43.15 L390.4 37.35 Q395.9 33.7 398.55 29.65 398.3 11.4 404.1 0.5 410.75 -12.25 423.5 -15.1 426.75 -8.7 428.75 -0.55 L429.9 4.7 413.7 36.85 413.7 36.8" fill="#016a3a" fill-rule="evenodd" stroke="none"/>
    <path d="M337.05 -249.3 L337.0 -249.35 Q337.55 -259.75 340.95 -268.65 L341.1 -269.0 Q338.3 -261.35 337.4 -252.35 L337.05 -249.3 M363.6 -296.95 L363.95 -297.25 Q366.4 -298.5 369.25 -299.1 L366.4 -298.3 Q365.05 -297.8 363.6 -296.95 M417.2 -257.25 L417.3 -257.2 416.75 -256.0 417.05 -257.2 417.2 -257.25 M414.3 -243.6 L414.55 -243.7 415.6 -243.45 414.3 -243.6 M240.45 -226.9 Q240.7 -228.1 242.15 -227.8 243.6 -227.55 243.35 -226.4 243.05 -225.1 241.65 -225.35 240.45 -225.6 240.45 -226.9 M209.4 -198.65 L209.1 -198.8 Q207.25 -199.6 206.45 -200.4 L206.2 -213.0 Q206.45 -214.45 210.3 -217.2 214.05 -219.7 221.45 -222.6 226.15 -224.45 227.6 -224.65 233.1 -225.35 244.1 -222.45 254.6 -219.7 261.45 -215.2 263.95 -213.65 268.0 -209.6 L285.45 -190.45 Q287.25 -188.45 288.95 -187.1 L289.15 -186.9 289.4 -186.8 Q292.25 -184.7 294.8 -184.5 L295.1 -184.05 294.75 -183.8 295.95 -182.75 296.35 -182.15 Q294.7 -179.6 294.65 -173.15 L294.4 -173.55 293.9 -174.35 Q290.6 -179.25 279.95 -186.9 256.3 -203.95 250.95 -208.55 232.5 -223.9 215.5 -213.05 L213.05 -210.25 Q209.05 -205.8 210.5 -198.4 L209.4 -198.65 M257.75 -223.5 Q257.5 -222.3 255.8 -222.85 254.1 -223.65 254.5 -224.65 254.85 -225.9 256.6 -225.35 258.15 -224.7 257.75 -223.5 M270.75 -216.15 Q271.65 -216.8 272.85 -215.6 273.75 -214.2 273.0 -213.4 271.8 -212.75 270.9 -213.9 269.7 -215.35 270.75 -216.15 M281.65 -206.3 Q282.8 -207.25 283.75 -205.8 285.05 -204.5 284.0 -203.7 282.8 -202.75 281.9 -204.2 280.6 -205.55 281.65 -206.3 M359.35 -204.5 Q360.05 -208.05 363.6 -207.9 L374.8 -202.75 388.75 -195.65 389.3 -195.2 381.5 -190.15 380.95 -190.7 Q376.9 -193.95 370.2 -198.05 L359.35 -204.5 M292.55 -195.4 Q293.85 -194.5 293.2 -193.3 292.55 -192.4 291.1 -193.3 289.65 -194.35 290.3 -195.3 L292.55 -195.4 M330.95 -121.6 Q323.85 -119.15 313.55 -123.25 302.9 -127.75 299.85 -135.1 L299.85 -135.55 301.85 -135.6 304.6 -133.75 Q307.6 -131.25 305.55 -132.8 310.0 -127.6 316.3 -126.25 L326.55 -125.9 Q331.1 -125.9 330.7 -123.2 L330.95 -121.6 M193.9 -154.4 L188.1 -161.7 Q186.1 -164.45 186.15 -165.1 186.1 -165.9 188.6 -168.4 199.0 -177.7 216.95 -179.55 L218.4 -179.55 220.1 -177.2 221.25 -175.4 221.2 -175.4 Q192.55 -166.65 195.55 -153.15 L195.15 -153.4 193.9 -154.4 M187.8 -160.8 L185.15 -163.85 185.35 -164.3 185.5 -164.3 187.8 -160.8 M301.15 -131.5 L302.35 -129.95 301.6 -130.6 301.15 -131.5 M304.25 -128.0 Q307.65 -124.9 312.75 -122.7 317.6 -120.65 323.0 -120.1 327.6 -119.85 331.0 -120.85 331.1 -117.4 330.05 -111.15 324.8 -79.55 328.5 -69.05 330.45 -63.3 328.5 -63.15 L328.35 -63.15 324.3 -69.3 321.4 -73.25 Q319.3 -77.15 317.6 -81.15 311.45 -96.5 308.7 -121.3 L304.25 -128.0 M374.7 1.75 L368.25 3.25 357.75 3.75 355.05 2.65 354.45 2.2 354.1 1.8 Q349.5 -5.7 345.15 -31.9 L345.8 -32.7 Q363.35 -15.25 369.55 -11.85 375.05 -8.7 376.75 -4.9 378.6 -1.0 374.75 1.7 L374.7 1.75 M303.55 -122.2 Q305.15 -122.2 305.15 -120.25 305.15 -118.4 303.55 -118.4 301.95 -118.4 302.0 -120.25 301.95 -122.2 303.55 -122.2 M306.2 -107.9 Q307.25 -106.2 305.8 -105.4 304.5 -104.5 303.4 -106.35 302.5 -107.9 303.95 -108.8 305.25 -109.6 306.2 -107.9 M305.4 -93.95 Q304.5 -95.85 305.95 -96.5 307.25 -97.55 308.15 -95.55 309.05 -94.0 307.75 -93.05 306.3 -92.45 305.4 -93.95 M313.15 -80.45 Q314.2 -78.75 312.6 -77.95 311.45 -77.05 310.4 -78.9 309.45 -80.45 310.8 -81.4 312.2 -82.05 313.15 -80.45 M317.6 -67.85 Q319.05 -68.55 319.95 -66.95 321.0 -65.15 319.6 -64.45 318.1 -63.8 317.2 -65.4 316.15 -67.25 317.6 -67.85 M339.25 -247.45 L339.15 -247.75 339.2 -248.5 339.35 -248.35 339.25 -247.45 M342.55 -266.15 L344.15 -270.3 343.25 -267.6 342.55 -266.15 M367.5 -296.45 Q371.45 -297.85 376.75 -298.15 382.75 -298.45 388.75 -296.45 L390.4 -295.8 394.95 -293.75 398.45 -291.7 401.15 -289.85 400.9 -290.0 401.05 -289.65 Q402.1 -287.4 395.15 -287.1 L394.65 -287.1 389.65 -286.35 Q381.65 -285.05 375.1 -282.0 353.95 -272.7 353.3 -250.8 352.5 -253.55 352.35 -257.2 351.95 -264.6 354.6 -270.6 L355.8 -273.15 Q367.3 -297.1 388.8 -294.95 376.7 -298.8 367.5 -296.45 M342.8 -243.85 Q342.65 -240.85 341.6 -239.15 L341.5 -239.25 Q340.95 -239.5 340.05 -240.4 L341.2 -242.55 341.2 -244.5 342.55 -243.95 342.8 -243.85 M386.9 -259.05 Q382.55 -254.45 380.2 -250.0 375.7 -243.85 369.3 -240.0 359.6 -234.25 348.5 -236.25 350.95 -236.05 353.95 -236.2 360.75 -236.35 365.6 -238.85 374.15 -243.2 380.7 -252.75 385.45 -259.7 394.9 -267.2 399.1 -270.6 403.7 -272.95 408.0 -275.4 411.2 -276.85 L413.55 -277.6 413.6 -277.55 412.45 -276.95 Q399.65 -270.15 398.15 -268.75 L390.55 -262.6 386.9 -259.05 M341.15 -238.3 Q340.0 -236.1 340.3 -234.15 339.75 -234.5 339.5 -234.75 338.45 -236.1 339.5 -239.5 339.9 -239.8 340.45 -238.85 L341.15 -238.3 M383.25 -242.1 L383.2 -242.4 Q386.1 -239.4 384.8 -234.15 L384.65 -233.85 383.7 -234.0 Q384.85 -239.9 383.25 -242.05 L383.25 -242.1 M405.3 -240.1 L405.1 -240.0 Q409.15 -244.4 412.15 -253.05 L412.15 -253.15 413.45 -253.15 409.95 -245.3 Q408.35 -242.15 407.75 -241.6 L405.65 -240.3 405.35 -240.1 405.3 -240.1 M387.95 -249.8 L387.3 -249.6 Q389.35 -252.5 405.0 -258.25 421.9 -264.3 423.85 -265.9 427.15 -268.25 420.75 -273.35 418.1 -275.35 414.85 -277.0 L414.4 -277.25 Q423.2 -273.9 425.3 -272.15 427.95 -269.95 428.2 -269.15 429.0 -266.65 427.8 -264.15 426.75 -262.45 419.15 -260.1 L414.45 -258.55 399.2 -254.75 Q391.15 -252.3 387.95 -249.8 M353.75 -229.25 L354.6 -229.45 354.95 -229.45 353.95 -227.75 Q351.25 -222.65 352.35 -219.1 L351.2 -219.95 Q350.9 -222.55 353.75 -229.25 M374.45 -192.7 L374.45 -192.75 379.8 -188.55 Q340.9 -171.2 333.15 -170.6 336.35 -171.6 352.9 -179.65 370.95 -188.45 374.45 -192.7 M432.55 -213.05 Q431.4 -216.2 421.85 -214.35 L420.4 -213.7 420.55 -213.95 Q427.7 -219.25 436.6 -218.65 L432.55 -213.05 M420.35 -214.05 L419.8 -213.9 420.4 -214.1 420.35 -214.05 M420.8 -214.45 L420.85 -214.6 421.0 -214.65 420.8 -214.45 M422.3 -225.5 L421.9 -225.35 421.75 -227.75 Q418.25 -242.55 408.7 -240.75 L408.65 -240.75 Q411.3 -241.95 412.85 -241.85 421.35 -241.2 422.3 -229.4 L422.3 -225.5 M393.85 -212.95 L391.2 -213.65 Q388.1 -214.3 378.05 -214.0 L377.95 -214.0 377.45 -214.05 386.7 -220.35 393.45 -220.35 394.05 -220.2 394.05 -219.85 393.85 -212.95 M386.65 -197.85 Q388.25 -199.65 388.75 -201.9 L388.85 -203.55 Q388.8 -205.85 388.4 -207.8 387.8 -209.8 386.6 -212.05 L386.7 -212.0 386.6 -212.15 386.5 -212.3 388.8 -212.0 392.6 -211.2 Q392.7 -201.95 388.25 -196.9 L386.65 -197.85 M414.95 -257.75 L414.9 -257.4 414.95 -257.75 M434.4 -214.3 L435.7 -215.9 436.4 -216.7 436.45 -216.75 436.55 -216.65 436.4 -216.7 434.4 -214.3 M423.1 -214.85 L431.5 -217.3 Q428.0 -216.9 423.1 -214.85 M459.25 -216.4 Q458.4 -218.85 457.35 -220.75 L457.45 -220.75 Q477.8 -207.5 488.95 -186.9 492.7 -179.75 495.35 -172.25 485.65 -191.4 459.25 -216.4 M382.1 -146.25 L382.15 -146.25 378.1 -142.3 359.05 -148.15 359.0 -148.95 Q373.45 -143.05 382.1 -146.25 M385.7 -51.05 Q387.4 -49.75 386.5 -48.85 385.7 -47.7 384.1 -49.0 382.4 -50.3 383.35 -51.2 383.95 -52.25 385.7 -51.05 M398.05 -47.95 Q399.05 -46.35 398.15 -45.4 396.95 -44.8 395.8 -46.2 394.75 -47.8 395.7 -48.7 397.0 -49.5 398.05 -47.95 M357.75 51.15 L357.6 51.15 356.45 51.15 Q348.85 29.5 354.75 17.55 352.5 39.45 369.7 38.05 374.8 37.5 382.7 34.75 390.0 32.1 390.55 32.1 393.4 32.25 393.45 33.85 L393.35 34.3 Q389.3 37.35 379.3 42.5 369.55 47.85 362.75 49.95 L358.6 51.2 357.75 51.15 M405.95 -44.1 L407.5 -43.15 Q408.35 -41.9 407.6 -41.1 406.7 -40.45 405.65 -41.75 404.45 -43.1 405.5 -43.85 L405.95 -44.1" fill="#f2f5d3" fill-rule="evenodd" stroke="none"/>
  </g>
</svg>
