<?xml version="1.0" encoding="UTF-8" standalone="no"?>
<svg xmlns:xlink="http://www.w3.org/1999/xlink" height="150.5px" width="408.05px" xmlns="http://www.w3.org/2000/svg">
  <g transform="matrix(1.0, 0.0, 0.0, 1.0, -37.0, 258.0)">
    <path d="M197.25 -227.35 L198.0 -222.3 Q198.0 -220.75 196.9 -218.0 L195.25 -213.85 Q201.65 -212.1 204.95 -199.75 210.15 -199.45 217.25 -182.25 217.25 -182.05 196.5 -176.3 189.4 -170.55 175.5 -162.5 170.45 -162.5 169.55 -168.0 169.1 -170.9 169.5 -175.35 168.1 -173.85 167.1 -171.4 L165.6 -167.65 Q163.55 -163.75 156.25 -163.75 155.35 -163.75 145.9 -153.1 136.45 -142.5 133.0 -142.5 128.65 -142.5 127.9 -146.25 127.5 -148.2 128.0 -150.85 L127.85 -151.25 124.35 -148.05 Q122.3 -146.5 120.5 -146.5 117.7 -146.5 115.5 -153.35 114.4 -156.8 113.85 -160.5 L112.0 -164.8 113.35 -169.1 Q113.85 -169.75 112.6 -169.75 110.9 -169.75 105.5 -164.6 100.05 -159.5 97.5 -159.5 94.55 -159.5 92.5 -163.75 91.0 -166.9 91.0 -168.6 91.0 -172.1 95.25 -175.25 L91.25 -175.0 Q84.75 -175.0 82.55 -180.6 81.4 -183.55 81.35 -190.1 78.0 -191.35 78.0 -195.0 L77.85 -195.25 Q74.7 -192.05 69.2 -187.45 62.0 -181.5 60.0 -181.5 56.65 -181.5 55.5 -184.25 54.9 -185.65 55.0 -187.05 55.0 -189.45 55.95 -190.7 57.85 -193.3 59.0 -195.85 56.0 -197.0 56.0 -200.75 56.0 -202.0 57.6 -205.25 L55.5 -205.0 Q52.3 -205.0 50.6 -208.5 48.75 -207.0 46.0 -207.0 41.85 -207.0 39.1 -209.9 37.0 -212.15 37.0 -214.0 37.0 -220.2 38.5 -235.0 37.75 -241.2 40.5 -245.5 41.05 -246.4 43.25 -246.95 45.25 -247.5 46.1 -249.5 47.8 -253.5 51.5 -253.5 53.1 -253.5 54.45 -252.5 55.6 -251.65 55.85 -250.75 L57.4 -251.6 Q58.95 -252.5 60.0 -252.5 62.75 -252.5 64.3 -250.4 65.5 -248.15 66.1 -247.75 L72.05 -253.25 Q77.55 -258.0 80.5 -258.0 85.5 -258.0 85.5 -252.6 85.5 -251.2 84.35 -249.25 L84.0 -248.85 Q85.5 -248.75 91.0 -250.9 96.85 -253.25 97.75 -253.35 L113.85 -255.0 126.0 -255.5 125.0 -255.5 Q136.3 -254.55 139.4 -250.7 140.6 -249.2 140.6 -244.85 L149.85 -244.35 Q161.5 -248.5 163.0 -248.5 167.4 -248.5 168.5 -243.85 170.95 -245.0 172.5 -245.0 176.5 -245.0 180.5 -235.5 180.5 -233.75 179.05 -232.15 177.85 -230.9 173.85 -228.0 L173.85 -227.85 Q174.45 -228.1 183.65 -233.1 193.05 -238.0 195.5 -238.0 200.85 -238.0 201.0 -233.0 201.0 -232.2 199.15 -230.7 197.3 -229.15 197.25 -227.35 M445.05 -127.0 Q445.05 -125.05 436.05 -116.5 426.55 -107.5 422.55 -107.5 419.4 -107.5 417.8 -110.6 412.75 -108.0 411.3 -108.0 407.65 -108.0 406.55 -110.95 406.0 -112.4 406.15 -114.1 L406.15 -114.5 Q400.75 -110.0 398.05 -110.0 395.25 -110.0 392.6 -113.45 391.5 -114.9 390.3 -117.25 388.55 -116.0 386.8 -116.0 382.2 -116.0 381.8 -120.25 L381.5 -123.35 Q381.15 -124.85 379.9 -125.1 L363.8 -128.65 357.9 -130.5 Q353.95 -131.65 348.8 -133.95 345.3 -135.5 341.05 -136.0 332.8 -136.9 330.1 -138.15 327.5 -139.35 327.5 -142.0 327.5 -145.05 331.75 -147.85 336.45 -151.0 342.8 -151.0 348.25 -151.0 351.85 -148.4 355.15 -146.05 354.55 -143.6 357.4 -143.5 363.2 -140.75 368.75 -138.1 374.05 -138.1 375.95 -138.1 379.85 -141.05 383.75 -144.0 385.55 -144.0 386.85 -144.0 391.65 -141.55 L397.55 -138.1 399.7 -139.85 Q401.05 -141.0 402.8 -141.0 406.4 -141.0 407.9 -137.1 408.65 -135.45 409.9 -134.95 L412.55 -134.25 415.5 -137.3 Q417.25 -139.0 419.05 -139.0 423.35 -139.0 424.05 -134.1 425.4 -134.6 427.5 -136.5 429.1 -138.0 431.05 -138.0 436.8 -138.0 435.9 -131.0 437.9 -132.0 439.55 -132.0 444.85 -132.0 445.05 -127.0" fill="#6c6c6c" fill-rule="evenodd" stroke="none"/>
  </g>
</svg>
