<?xml version="1.0" encoding="UTF-8" standalone="no"?>
<svg xmlns:xlink="http://www.w3.org/1999/xlink" height="120.15px" width="148.4px" xmlns="http://www.w3.org/2000/svg">
  <g transform="matrix(1.0, 0.0, 0.0, 1.0, 55.85, 11.85)">
    <path d="M58.25 -2.8 Q57.5 -4.3 57.5 -5.0 57.5 -8.0 61.5 -8.0 63.8 -8.0 67.3 -6.25 L67.35 -6.25 67.3 -7.5 Q67.3 -8.75 67.55 -9.55 L67.3 -9.85 67.6 -9.85 67.85 -10.3 68.05 -11.5 68.75 -11.5 Q71.0 -11.5 72.45 -9.15 L73.7 -6.9 Q74.4 -5.95 74.85 -4.4 L76.35 0.5 Q76.45 -0.35 77.1 -1.5 78.0 -3.1 79.0 -3.6 81.55 -1.4 82.2 -0.2 83.0 0.45 83.05 2.4 L83.0 3.2 Q83.55 5.1 83.7 7.9 L83.65 18.7 83.65 18.5 Q83.95 17.2 85.8 17.05 85.95 16.2 87.75 15.5 L88.15 18.05 Q89.55 20.4 89.0 27.85 89.0 36.5 88.0 40.05 L88.0 44.25 Q91.3 43.8 92.25 46.15 92.7 47.3 92.5 48.6 92.5 53.3 91.2 56.65 89.7 60.55 85.55 65.25 L85.25 65.3 Q88.85 66.5 88.5 71.85 88.5 75.85 84.25 79.1 80.4 82.0 80.05 83.15 L82.65 85.8 Q85.5 89.2 86.05 91.5 L85.5 92.05 85.2 91.95 81.0 95.55 Q77.75 95.55 77.2 94.55 L77.1 93.5 Q74.8 93.35 73.3 92.7 77.5 99.5 77.5 100.15 77.5 101.1 76.8 102.05 75.85 103.5 74.0 103.5 69.25 103.5 69.0 98.75 68.65 98.75 68.5 98.05 L68.05 99.65 Q67.35 101.0 65.5 101.0 62.95 101.0 55.5 88.65 L54.75 87.8 54.55 87.1 54.5 87.0 54.55 87.0 54.5 86.4 Q54.5 85.55 54.85 85.0 L54.8 84.35 55.2 84.55 Q55.85 84.0 57.0 84.0 L58.2 84.25 Q59.2 83.2 61.8 83.05 65.55 81.2 70.9 77.4 71.25 76.85 72.0 76.65 L71.8 76.05 72.4 76.1 Q73.35 73.95 74.75 72.05 L77.65 67.75 Q79.0 65.15 79.0 61.75 79.0 61.2 76.75 58.25 L71.7 51.45 Q64.15 40.7 63.0 33.25 62.55 30.3 62.7 25.9 L63.0 18.55 Q63.0 14.3 60.5 10.4 58.0 6.45 58.0 4.3 59.0 0.9 59.0 -0.3 59.0 -1.25 58.25 -2.8 M79.3 -1.0 L79.3 -0.95 79.4 -0.9 79.3 -1.0 M70.5 78.8 L70.5 78.75 70.5 78.8 M66.5 94.75 Q66.5 95.8 68.3 97.75 L68.5 97.75 66.5 94.75 M-50.55 -6.6 Q-49.9 -9.5 -45.35 -7.75 L-45.3 -10.35 Q-45.0 -11.85 -43.25 -11.85 -41.05 -11.85 -38.1 -2.25 -35.1 7.35 -35.1 14.55 -35.1 15.8 -34.1 17.55 -33.1 19.35 -33.1 21.0 L-33.1 40.7 -32.0 40.55 Q-30.45 40.55 -30.1 43.8 -29.95 45.45 -30.1 47.15 -30.1 50.2 -32.35 55.5 L-33.0 57.0 -33.1 57.9 Q-33.1 61.3 -34.1 68.8 -31.6 70.2 -31.6 74.15 -31.6 77.3 -34.1 81.85 -36.6 86.35 -36.6 87.75 -36.6 89.65 -35.35 92.65 -34.1 95.65 -34.1 96.0 -34.1 96.6 -35.9 98.65 -37.9 100.95 -39.1 100.55 L-38.7 104.7 Q-38.8 108.3 -41.25 108.3 -43.4 108.3 -43.8 107.5 -44.75 105.3 -45.0 105.05 -45.75 107.3 -47.0 107.3 -49.5 107.3 -51.85 92.85 -51.85 92.3 -49.85 90.7 -47.85 89.1 -47.85 85.3 L-47.35 77.8 Q-51.85 62.25 -51.85 58.1 -51.85 57.35 -51.1 56.5 L-50.85 56.25 Q-50.85 55.2 -50.45 54.85 -49.15 53.65 -44.35 54.05 L-44.35 46.8 Q-45.15 44.9 -45.55 42.3 L-46.5 42.3 Q-52.8 42.3 -54.45 37.05 -55.0 35.4 -54.95 33.4 L-54.85 31.6 -54.3 27.75 -55.75 27.25 -55.85 22.5 Q-55.85 18.55 -54.6 15.15 -53.35 11.75 -53.35 5.5 -53.35 3.4 -51.85 1.6 -50.35 -0.2 -50.35 -2.25 -50.9 -5.05 -50.55 -6.6" fill="#ffffff" fill-rule="evenodd" stroke="none"/>
  </g>
</svg>
