<?xml version="1.0" encoding="UTF-8" standalone="no"?>
<svg xmlns:xlink="http://www.w3.org/1999/xlink" height="1981.85px" width="114.3px" xmlns="http://www.w3.org/2000/svg">
  <g transform="matrix(1.0, 0.0, 0.0, 1.0, 57.15, 1475.9)">
    <path d="M36.65 -464.05 Q36.1 -460.0 36.1 -456.05 36.1 -448.55 37.75 -443.6 39.35 -438.7 39.35 -432.05 39.35 -429.05 43.35 -425.05 L43.05 -423.8 Q40.65 -423.45 40.15 -420.7 L40.1 -416.15 40.1 -335.15 Q40.1 -325.1 36.6 -318.3 L34.2 -313.65 Q33.1 -311.15 33.1 -308.4 33.1 -304.9 35.75 -299.55 L38.35 -294.15 Q38.35 -290.75 30.25 -283.95 L30.15 -283.85 29.35 -283.9 Q19.55 -283.9 16.35 -263.6 14.75 -253.35 15.1 -241.9 15.1 -218.6 21.0 -203.25 28.2 -184.45 48.35 -163.9 44.45 -160.2 42.5 -147.6 41.1 -138.9 41.1 -131.3 41.1 -113.75 42.6 -93.1 44.1 -72.5 44.1 -60.05 44.1 -51.05 42.6 -32.3 41.1 -13.6 41.1 -4.9 L41.1 51.6 41.35 138.2 42.8 139.1 44.85 139.45 Q48.7 139.45 49.0 136.1 L48.6 130.95 Q51.65 141.15 54.1 147.65 L56.55 153.9 Q57.1 155.55 57.15 158.3 L57.1 169.6 Q57.1 185.55 56.35 189.6 54.15 201.45 45.1 207.2 L45.1 208.25 Q38.25 210.05 35.1 231.65 33.1 245.05 33.1 257.7 33.1 266.75 36.1 278.1 L39.1 289.2 36.6 310.0 Q34.1 333.4 34.1 355.2 33.2 382.15 36.05 387.9 35.85 393.2 36.1 399.35 36.1 412.25 37.85 422.8 38.75 428.2 40.1 432.95 L43.25 442.05 Q44.8 446.35 45.1 450.2 45.9 459.3 48.5 462.9 L49.25 463.95 50.15 465.05 Q50.85 466.15 50.85 467.85 50.85 470.25 43.5 483.5 38.1 495.0 36.65 505.95 L-57.15 505.95 -57.15 -464.05 36.65 -464.05" fill="url(#gradient0)" fill-rule="evenodd" stroke="none"/>
    <path d="M-57.15 -464.05 L-57.15 -1442.2 36.65 -1442.2 Q38.1 -1453.15 43.5 -1464.65 47.55 -1471.9 49.35 -1475.9 L50.15 -1474.95 Q50.85 -1473.85 50.85 -1472.15 50.85 -1469.75 43.5 -1456.5 36.1 -1440.75 36.1 -1426.05 36.1 -1418.55 37.75 -1413.6 39.35 -1408.7 39.35 -1402.05 39.35 -1399.05 43.35 -1395.05 L43.05 -1393.8 Q40.65 -1393.45 40.15 -1390.7 L40.1 -1386.15 40.1 -1305.15 Q40.1 -1295.1 36.6 -1288.3 L34.2 -1283.65 Q33.1 -1281.15 33.1 -1278.4 33.1 -1274.9 35.75 -1269.55 L38.35 -1264.15 Q38.35 -1260.75 30.25 -1253.95 L30.15 -1253.85 29.35 -1253.9 Q19.55 -1253.9 16.35 -1233.6 14.75 -1223.35 15.1 -1211.9 15.1 -1188.6 21.0 -1173.25 28.2 -1154.45 48.35 -1133.9 44.45 -1130.2 42.5 -1117.6 41.1 -1108.9 41.1 -1101.3 41.1 -1083.75 42.6 -1063.1 44.1 -1042.5 44.1 -1030.05 44.1 -1021.05 42.6 -1002.3 41.1 -983.6 41.1 -974.9 L41.1 -918.4 41.35 -831.8 42.8 -830.9 Q43.35 -830.55 44.85 -830.55 48.7 -830.55 49.0 -833.9 L48.6 -839.05 Q51.65 -828.85 54.1 -822.35 L56.55 -816.1 Q57.1 -814.45 57.15 -811.7 L57.1 -800.4 Q57.1 -784.45 56.35 -780.4 54.15 -768.55 45.1 -762.8 L45.1 -761.75 Q38.25 -759.95 35.1 -738.35 33.1 -724.95 33.1 -712.3 33.1 -703.25 36.1 -691.9 L39.1 -680.8 36.6 -660.0 Q34.1 -636.6 34.1 -614.8 33.2 -587.85 36.05 -582.1 35.85 -576.8 36.1 -570.65 36.1 -557.75 37.85 -547.2 38.75 -541.8 40.1 -537.05 L43.25 -527.95 Q44.8 -523.65 45.1 -519.8 45.9 -510.7 48.5 -507.1 L49.25 -506.05 49.35 -505.9 50.15 -504.95 Q50.85 -503.85 50.85 -502.15 50.85 -499.75 43.5 -486.5 L42.25 -483.7 42.1 -483.25 41.8 -482.6 Q40.3 -479.05 39.2 -475.5 L39.15 -475.25 36.85 -465.45 36.65 -464.05 -57.15 -464.05" fill="url(#gradient1)" fill-rule="evenodd" stroke="none"/>
  </g>
  <defs>
    <linearGradient gradientTransform="matrix(0.0698, 0.0, 0.0, 0.6706, 0.0, 5.1)" gradientUnits="userSpaceOnUse" id="gradient0" spreadMethod="pad" x1="-819.2" x2="819.2">
      <stop offset="0.0" stop-color="#666666"/>
      <stop offset="1.0" stop-color="#4d4d4d"/>
    </linearGradient>
    <linearGradient gradientTransform="matrix(0.0698, 0.0, 0.0, 0.6706, 0.0, -964.9)" gradientUnits="userSpaceOnUse" id="gradient1" spreadMethod="pad" x1="-819.2" x2="819.2">
      <stop offset="0.0" stop-color="#666666"/>
      <stop offset="1.0" stop-color="#4d4d4d"/>
    </linearGradient>
  </defs>
</svg>
