<?xml version="1.0" encoding="UTF-8" standalone="no"?>
<svg xmlns:xlink="http://www.w3.org/1999/xlink" height="46.85px" width="63.6px" xmlns="http://www.w3.org/2000/svg">
  <g transform="matrix(1.0, 0.0, 0.0, 1.0, 24.1, 209.7)">
    <path d="M0.4 -204.55 Q7.15 -206.25 25.45 -209.2 L39.0 -205.6 30.7 -174.7 Q20.45 -178.85 10.85 -176.35 7.75 -175.55 1.4 -173.1 -5.85 -170.4 -10.15 -169.05 -9.45 -167.85 -10.2 -164.95 -12.3 -165.85 -13.5 -165.4 -14.4 -165.1 -15.8 -163.35 -13.6 -169.55 -18.3 -178.6 L-21.9 -185.6 Q-23.7 -189.5 -23.6 -192.35 -19.65 -194.4 -11.55 -199.2 -4.3 -203.35 0.4 -204.55" fill="url(#gradient0)" fill-rule="evenodd" stroke="none"/>
    <path d="M0.4 -204.55 Q-4.3 -203.35 -11.55 -199.2 -19.65 -194.4 -23.6 -192.35 -23.7 -189.5 -21.9 -185.6 L-18.3 -178.6 Q-13.6 -169.55 -15.8 -163.35 -14.4 -165.1 -13.5 -165.4 -12.3 -165.85 -10.2 -164.95 -9.45 -167.85 -10.15 -169.05 -5.85 -170.4 1.4 -173.1 7.75 -175.55 10.85 -176.35 20.45 -178.85 30.7 -174.7 L39.0 -205.6 25.45 -209.2 Q7.15 -206.25 0.4 -204.55 Z" fill="none" stroke="#000000" stroke-linecap="round" stroke-linejoin="round" stroke-width="1.0"/>
  </g>
  <defs>
    <radialGradient cx="0" cy="0" gradientTransform="matrix(0.0125, -0.0467, 0.0467, 0.0125, 4.35, -186.4)" gradientUnits="userSpaceOnUse" id="gradient0" r="819.2" spreadMethod="pad">
      <stop offset="0.00784313725490196" stop-color="#ffffff"/>
      <stop offset="0.33725490196078434" stop-color="#c8c8c8"/>
      <stop offset="1.0" stop-color="#000000"/>
    </radialGradient>
  </defs>
</svg>
