<?xml version="1.0" encoding="UTF-8" standalone="no"?>
<svg xmlns:xlink="http://www.w3.org/1999/xlink" height="56.45px" width="55.0px" xmlns="http://www.w3.org/2000/svg">
  <g transform="matrix(1.0, 0.0, 0.0, 1.0, 7.65, 236.5)">
    <path d="M24.85 -211.0 Q19.9 -206.3 19.45 -196.35 19.2 -190.85 19.85 -181.0 L6.2 -180.6 Q0.7 -180.95 -2.05 -182.95 -4.9 -185.1 -6.05 -189.95 -7.15 -194.5 -7.15 -203.5 -7.15 -213.85 -5.45 -217.85 -4.1 -220.95 -0.5 -222.25 5.95 -224.55 7.35 -225.4 12.85 -228.6 17.85 -236.0 L46.85 -236.0 44.45 -228.35 Q42.75 -222.5 40.85 -220.0 38.6 -217.0 34.35 -216.2 29.4 -215.3 24.85 -211.0" fill="url(#gradient0)" fill-rule="evenodd" stroke="none"/>
    <path d="M24.85 -211.0 Q19.9 -206.3 19.45 -196.35 19.2 -190.85 19.85 -181.0 L6.2 -180.6 Q0.7 -180.95 -2.05 -182.95 -4.9 -185.1 -6.05 -189.95 -7.15 -194.5 -7.15 -203.5 -7.15 -213.85 -5.45 -217.85 -4.1 -220.95 -0.5 -222.25 5.95 -224.55 7.35 -225.4 12.85 -228.6 17.85 -236.0 L46.85 -236.0 44.45 -228.35 Q42.75 -222.5 40.85 -220.0 38.6 -217.0 34.35 -216.2 29.4 -215.3 24.85 -211.0 Z" fill="none" stroke="#000000" stroke-linecap="round" stroke-linejoin="round" stroke-width="1.0"/>
  </g>
  <defs>
    <linearGradient gradientTransform="matrix(0.033, 0.0, 0.0, 0.0338, 19.85, -208.3)" gradientUnits="userSpaceOnUse" id="gradient0" spreadMethod="pad" x1="-819.2" x2="819.2">
      <stop offset="0.17647058823529413" stop-color="#996600"/>
      <stop offset="0.5372549019607843" stop-color="#ffcc00"/>
      <stop offset="0.9098039215686274" stop-color="#ffffff"/>
    </linearGradient>
  </defs>
</svg>
