<?xml version="1.0" encoding="UTF-8" standalone="no"?>
<svg xmlns:xlink="http://www.w3.org/1999/xlink" height="63.0px" width="56.0px" xmlns="http://www.w3.org/2000/svg">
  <g transform="matrix(1.0, 0.0, 0.0, 1.0, 20.65, 230.5)">
    <path d="M5.85 -230.0 Q9.8 -228.05 18.35 -223.1 26.6 -218.85 34.85 -218.0 L34.85 -216.0 Q29.05 -210.2 27.4 -203.75 26.15 -199.15 26.85 -192.0 27.35 -187.3 24.7 -184.4 23.4 -183.0 19.0 -180.45 15.2 -178.35 14.2 -176.3 12.65 -173.25 14.85 -168.0 L2.5 -171.0 Q-5.8 -173.0 -12.15 -173.0 L-20.15 -172.0 -20.15 -185.0 Q-19.05 -189.9 -11.0 -194.1 -6.85 -196.25 -5.4 -197.35 -2.75 -199.4 -2.15 -202.0 L0.7 -217.7 Q2.25 -225.15 5.85 -230.0" fill="url(#gradient0)" fill-rule="evenodd" stroke="none"/>
    <path d="M5.85 -230.0 Q2.25 -225.15 0.7 -217.7 L-2.15 -202.0 Q-2.75 -199.4 -5.4 -197.35 -6.85 -196.25 -11.0 -194.1 -19.05 -189.9 -20.15 -185.0 L-20.15 -172.0 -12.15 -173.0 Q-5.8 -173.0 2.5 -171.0 L14.85 -168.0 Q12.65 -173.25 14.2 -176.3 15.2 -178.35 19.0 -180.45 23.4 -183.0 24.7 -184.4 27.35 -187.3 26.85 -192.0 26.15 -199.15 27.4 -203.75 29.05 -210.2 34.85 -216.0 L34.85 -218.0 Q26.6 -218.85 18.35 -223.1 9.8 -228.05 5.85 -230.0 Z" fill="none" stroke="#000000" stroke-linecap="round" stroke-linejoin="round" stroke-width="1.0"/>
  </g>
  <defs>
    <linearGradient gradientTransform="matrix(0.0336, 0.0, 0.0, 0.0378, 7.35, -199.0)" gradientUnits="userSpaceOnUse" id="gradient0" spreadMethod="pad" x1="-819.2" x2="819.2">
      <stop offset="0.0" stop-color="#0066fd"/>
      <stop offset="0.7686274509803922" stop-color="#ffffff"/>
      <stop offset="0.9176470588235294" stop-color="#ffffff"/>
    </linearGradient>
  </defs>
</svg>
