<?xml version="1.0" encoding="UTF-8" standalone="no"?>
<svg xmlns:xlink="http://www.w3.org/1999/xlink" height="39.0px" width="58.85px" xmlns="http://www.w3.org/2000/svg">
  <g transform="matrix(1.0, 0.0, 0.0, 1.0, 39.5, 211.5)">
    <path d="M-35.25 -173.0 Q-35.75 -177.05 -37.95 -182.5 -39.95 -187.45 -38.15 -189.0 -36.55 -191.5 -27.6 -195.9 -19.3 -200.0 -17.65 -200.0 -14.0 -200.0 -10.05 -197.5 -6.1 -195.0 -4.15 -195.0 -0.05 -195.0 4.45 -201.1 L11.85 -211.0 13.85 -211.0 Q13.0 -203.8 14.5 -198.35 15.45 -194.9 18.85 -186.0 10.85 -186.0 1.5 -180.0 L-4.6 -175.85 Q-7.4 -174.0 -8.65 -174.0 -9.45 -174.0 -14.55 -178.5 -19.65 -183.0 -21.15 -183.0 -25.35 -183.0 -27.85 -179.6 -31.0 -175.3 -33.8 -173.0 L-35.25 -173.0" fill="url(#gradient0)" fill-rule="evenodd" stroke="none"/>
    <path d="M-35.25 -173.0 Q-35.75 -177.05 -37.95 -182.5 -39.95 -187.45 -38.15 -189.0 -36.55 -191.5 -27.6 -195.9 -19.3 -200.0 -17.65 -200.0 -14.0 -200.0 -10.05 -197.5 -6.1 -195.0 -4.15 -195.0 -0.05 -195.0 4.45 -201.1 L11.85 -211.0 13.85 -211.0 Q13.0 -203.8 14.5 -198.35 15.45 -194.9 18.85 -186.0 10.85 -186.0 1.5 -180.0 L-4.6 -175.85 Q-7.4 -174.0 -8.65 -174.0 -9.45 -174.0 -14.55 -178.5 -19.65 -183.0 -21.15 -183.0 -25.35 -183.0 -27.85 -179.6 -31.0 -175.3 -33.8 -173.0" fill="none" stroke="#000000" stroke-linecap="round" stroke-linejoin="round" stroke-width="1.0"/>
  </g>
  <defs>
    <radialGradient cx="0" cy="0" gradientTransform="matrix(0.0385, 0.0, 0.0, 0.0385, -10.1, -192.0)" gradientUnits="userSpaceOnUse" id="gradient0" r="819.2" spreadMethod="pad">
      <stop offset="0.19215686274509805" stop-color="#ff9900"/>
      <stop offset="0.6196078431372549" stop-color="#c57700"/>
      <stop offset="1.0" stop-color="#000000"/>
    </radialGradient>
  </defs>
</svg>
